<?xml version="1.0" encoding="utf-8" standalone="no"?>
<!DOCTYPE svg PUBLIC "-//W3C//DTD SVG 1.1//EN"
  "http://www.w3.org/Graphics/SVG/1.1/DTD/svg11.dtd">
<!-- Created with matplotlib (http://matplotlib.org/) -->
<svg height="648pt" version="1.1" viewBox="0 0 648 648" width="648pt" xmlns="http://www.w3.org/2000/svg" xmlns:xlink="http://www.w3.org/1999/xlink">
 <defs>
  <style type="text/css">
*{stroke-linecap:butt;stroke-linejoin:round;stroke-miterlimit:100000;}
  </style>
 </defs>
 <g id="figure_1">
  <g id="patch_1">
   <path d="M 0 648 
L 648 648 
L 648 0 
L 0 0 
z
" style="fill:#ffffff;"/>
  </g>
  <g id="axes_1">
   <g id="patch_2">
    <path d="M 81 583.2 
L 583.2 583.2 
L 583.2 64.8 
L 81 64.8 
z
" style="fill:#ffffff;"/>
   </g>
   <g id="line2d_1">
    <path clip-path="url(#pc877925b28)" d="M 311.192912 83.02176 
L 292.359742 84.112474 
L 276.309095 85.518374 
L 263.322371 87.051802 
L 253.545709 88.54272 
L 247.002043 89.858419 
L 243.608845 90.906624 
L 243.195869 91.646899 
L 245.522227 92.081318 
L 250.290783 92.251354 
L 265.758543 92.075098 
L 286.549958 91.758874 
L 297.934162 91.72777 
L 309.452119 91.841818 
L 320.737574 92.121754 
L 331.460199 92.564467 
L 341.333985 93.151296 
L 350.123958 93.848026 
L 357.64976 94.617331 
L 363.787146 95.417741 
L 368.466478 96.210893 
L 371.66951 96.96672 
L 373.424866 97.665523 
L 373.802353 98.296934 
L 372.906596 98.859917 
L 370.871012 99.361728 
L 367.851116 99.81792 
L 359.554604 100.659802 
L 339.019362 102.497011 
L 329.441755 103.609498 
L 321.674462 104.82359 
L 318.664844 105.447744 
L 316.295481 106.073971 
L 314.581423 106.693978 
L 313.517261 107.302579 
L 313.078673 107.897702 
L 313.22565 108.477274 
L 313.903955 109.043366 
L 315.049138 109.598054 
L 318.444429 110.685658 
L 325.110832 112.315507 
L 331.858713 113.995123 
L 335.594475 115.143898 
L 338.356994 116.30304 
L 339.324365 116.882611 
L 340.008344 117.460109 
L 340.413971 118.034496 
L 340.553717 118.605773 
L 340.446464 119.173939 
L 340.116418 119.738995 
L 339.59192 120.300941 
L 338.086709 121.420685 
L 335.190639 123.096154 
L 332.281306 124.776806 
L 330.667545 125.900698 
L 329.4634 127.025626 
L 328.725768 128.14848 
L 328.453442 129.26615 
L 328.597122 130.38071 
L 329.072939 131.491123 
L 330.180474 133.152077 
L 332.206031 135.912038 
L 333.087585 137.563661 
L 333.446179 138.662669 
L 333.613222 139.758566 
L 333.604375 140.85239 
L 333.330604 142.488461 
L 332.524205 145.20384 
L 331.797428 147.906778 
L 331.511254 150.059174 
L 331.510635 152.203277 
L 331.771878 154.870963 
L 332.27574 159.640243 
L 332.337194 162.796262 
L 332.122094 168.01344 
L 332.008009 173.178778 
L 332.100339 227.633587 
L 332.216397 542.563661 
L 332.456304 544.854989 
L 332.82164 546.268147 
L 333.286155 547.24896 
L 333.919504 548.08151 
L 334.702367 548.769946 
L 335.826475 549.44905 
L 337.442353 550.114675 
L 339.232362 550.631002 
L 341.628676 551.120371 
L 344.838186 551.566195 
L 349.137972 551.934259 
L 354.898039 552.164429 
L 360.46593 552.186202 
L 367.388757 551.997504 
L 375.982403 551.484288 
L 382.82153 550.879834 
L 390.692344 549.981965 
L 399.727089 548.693222 
L 410.061528 546.887117 
L 415.757313 545.738342 
L 421.82573 544.393613 
L 428.279837 542.824934 
L 435.129511 540.998093 
L 442.381446 538.877837 
L 450.037318 536.421658 
L 458.092271 533.584973 
L 466.533081 530.315942 
L 475.33648 526.559616 
L 484.465806 522.255859 
L 493.869166 517.338317 
L 503.47575 511.740634 
L 513.19332 505.390234 
L 522.900846 498.218688 
L 532.451016 490.155494 
L 541.664712 481.139482 
L 550.325988 471.119846 
L 558.185418 460.060301 
L 564.956748 447.947366 
L 570.325266 434.800742 
L 573.957846 420.676416 
L 575.504622 405.67392 
L 574.630794 389.947738 
L 571.026672 373.705229 
L 564.44283 357.210778 
L 554.715216 340.775424 
L 541.79361 324.75168 
L 525.761712 309.509683 
L 506.862252 295.41335 
L 485.48795 282.797568 
L 462.168628 271.936051 
L 437.545427 263.014387 
L 412.3226 256.11863 
L 387.217287 251.224934 
L 362.906622 248.204736 
L 339.981979 246.842381 
L 318.916329 246.857933 
L 300.048257 247.940352 
L 283.581454 249.76823 
L 269.597695 252.038822 
L 258.078398 254.488781 
L 248.930491 256.897267 
L 242.011179 259.097357 
L 237.148711 260.973965 
L 234.160286 262.457626 
L 232.862602 263.519309 
L 233.078715 264.165235 
L 234.641059 264.423398 
L 237.391609 264.343565 
L 241.18121 263.985869 
L 257.376323 261.907085 
L 270.85219 260.31767 
L 278.006029 259.616794 
L 285.273533 259.024781 
L 292.53953 258.564442 
L 299.697052 258.249254 
L 306.648337 258.08233 
L 313.307341 258.05952 
L 319.600443 258.170458 
L 325.466507 258.400627 
L 330.857795 258.731366 
L 340.08868 259.61472 
L 347.154968 260.668109 
L 352.080529 261.761933 
L 353.78282 262.294848 
L 355.012205 262.809101 
L 355.79999 263.299507 
L 356.180155 263.766067 
L 356.18953 264.20567 
L 355.865443 264.623501 
L 355.246565 265.018522 
L 353.278444 265.761907 
L 350.58548 266.466931 
L 336.210474 269.763955 
L 332.421251 270.982195 
L 330.440718 271.814746 
L 328.918262 272.653517 
L 327.841595 273.494362 
L 327.177804 274.331059 
L 326.87933 275.161536 
L 326.889608 275.986829 
L 327.147689 276.805901 
L 327.866471 278.026214 
L 329.492645 280.049011 
L 331.086241 282.069734 
L 332.071896 283.684032 
L 332.589752 284.892941 
L 332.919008 286.098739 
L 333.102773 287.699558 
L 333.032674 289.691251 
L 332.601222 292.856602 
L 332.109254 296.778816 
L 331.94755 299.889216 
L 331.968195 304.124544 
L 332.121821 316.184602 
L 332.1 411.202138 
L 331.990649 501.755213 
L 331.754724 505.603814 
L 331.424107 507.766579 
L 330.973775 509.370509 
L 330.418015 510.606374 
L 329.721413 511.655616 
L 328.919048 512.521344 
L 327.838816 513.376704 
L 326.382202 514.215475 
L 324.415302 515.029363 
L 322.353939 515.650406 
L 319.728186 516.228941 
L 316.381927 516.74112 
L 312.116792 517.147546 
L 306.682821 517.383936 
L 301.655297 517.390157 
L 295.639945 517.17865 
L 288.458485 516.656102 
L 282.926417 516.07031 
L 276.727595 515.236723 
L 269.801588 514.086912 
L 262.091479 512.54208 
L 253.550228 510.498547 
L 244.147873 507.833971 
L 239.12219 506.221747 
L 233.884244 504.395942 
L 228.440898 502.333747 
L 222.803368 500.008205 
L 216.98739 497.395469 
L 211.014893 494.464435 
L 204.914167 491.18711 
L 198.720702 487.533427 
L 192.479528 483.472282 
L 186.244882 478.971533 
L 180.081549 474.004224 
L 174.066532 468.542362 
L 168.288386 462.562099 
L 162.848556 456.045811 
L 157.860036 448.98313 
L 153.447372 441.371981 
L 149.747832 433.222733 
L 146.898684 424.559232 
L 145.048914 415.421914 
L 144.339138 405.866765 
L 144.903276 395.971546 
L 146.86353 385.830605 
L 150.313644 375.55799 
L 155.322252 365.284339 
L 161.914464 355.153766 
L 170.068183 345.315571 
L 179.716617 335.9232 
L 190.737731 327.120768 
L 202.95994 319.042022 
L 216.1678 311.795827 
L 230.110211 305.466163 
L 244.512805 300.100723 
L 259.091168 295.715059 
L 273.566246 292.289472 
L 287.67656 289.772122 
L 301.190092 288.084211 
L 313.912325 287.126208 
L 325.690857 286.787174 
L 336.416961 286.947878 
L 346.023277 287.494272 
L 354.479873 288.314381 
L 361.788892 289.309709 
L 367.977503 290.396275 
L 373.092577 291.502541 
L 377.194212 292.572518 
L 380.351209 293.56681 
L 382.636553 294.457421 
L 384.125576 295.2288 
L 384.892771 295.87369 
L 385.010788 296.3952 
L 384.549935 296.799552 
L 383.577509 297.099187 
L 382.157455 297.308621 
L 378.216356 297.527386 
L 367.453876 297.608256 
L 358.345976 297.756518 
L 352.358078 298.006387 
L 346.709082 298.397261 
L 341.567943 298.919808 
L 337.048578 299.553293 
L 333.21469 300.267648 
L 330.086764 301.036954 
L 327.650173 301.834253 
L 325.863496 302.64192 
L 324.666469 303.44544 
L 323.986792 304.237555 
L 323.746104 305.016192 
L 323.86464 305.78135 
L 324.264876 306.535104 
L 325.236567 307.650701 
L 327.34132 309.496205 
L 329.828951 311.718067 
L 331.149856 313.205875 
L 332.114397 314.695757 
L 332.731429 316.183565 
L 333.052034 317.665152 
L 333.146292 319.140518 
L 333.019547 321.340608 
L 332.061325 331.081344 
L 332.011473 336.02999 
L 332.100385 368.161459 
L 332.200648 490.103654 
L 332.41778 494.57952 
L 332.753658 497.253427 
L 333.204733 499.139366 
L 333.790573 500.633395 
L 334.433606 501.741734 
L 335.330033 502.839706 
L 336.343724 503.742758 
L 337.68577 504.629222 
L 339.465332 505.492877 
L 341.300572 506.156429 
L 343.60505 506.782656 
L 346.500434 507.353933 
L 350.139359 507.839155 
L 354.712392 508.189594 
L 358.894546 508.321267 
L 363.850591 508.290163 
L 369.71411 508.029926 
L 376.633757 507.450355 
L 381.911879 506.826202 
L 387.777575 505.954253 
L 394.27621 504.776448 
L 401.447626 503.219174 
L 409.321118 501.190157 
L 417.908236 498.583642 
L 422.465701 497.024294 
L 427.192909 495.271066 
L 432.081659 493.304256 
L 437.119897 491.104166 
L 442.29172 488.647987 
L 447.57704 485.913946 
L 452.949408 482.878195 
L 458.377018 479.517926 
L 463.820866 475.808256 
L 469.23475 471.727411 
L 474.563929 467.251546 
L 479.745628 462.363034 
L 484.707532 457.04425 
L 489.368617 451.284826 
L 493.639326 445.076467 
L 497.421729 438.422285 
L 500.611536 431.330573 
L 503.100774 423.82103 
L 504.779796 415.926835 
L 505.538118 407.691533 
L 505.273626 399.173184 
L 503.89425 390.444365 
L 501.32466 381.589056 
L 497.511121 372.70679 
L 492.426513 363.901248 
L 486.075859 355.28855 
L 478.498666 346.982746 
L 469.771267 339.097882 
L 460.006657 331.738675 
L 449.350978 324.998438 
L 437.979161 318.951821 
L 426.087567 313.651699 
L 413.885781 309.128141 
L 401.586568 305.38633 
L 389.397002 302.40864 
L 377.509928 300.151526 
L 366.096262 298.559002 
L 355.300301 297.556416 
L 345.236983 297.061862 
L 335.990594 296.990323 
L 327.616074 297.254707 
L 320.141547 297.775181 
L 313.571833 298.473984 
L 307.892621 299.287872 
L 303.074179 300.158784 
L 299.07583 301.040064 
L 295.849195 301.897498 
L 293.340706 302.704128 
L 291.494619 303.44233 
L 290.254352 304.101734 
L 289.563827 304.676122 
L 289.368137 305.168602 
L 289.614717 305.583322 
L 290.252511 305.926502 
L 291.233308 306.207475 
L 294.042949 306.626342 
L 299.759492 307.052467 
L 310.984666 307.776154 
L 317.563168 308.421043 
L 323.428044 309.25463 
L 328.312458 310.241664 
L 330.965703 310.958093 
L 333.133354 311.704589 
L 334.834747 312.4656 
L 336.103304 313.232832 
L 336.981987 313.99799 
L 337.519424 314.759002 
L 337.766741 315.511718 
L 337.77491 316.257178 
L 337.592946 316.996416 
L 337.061786 318.095424 
L 336.074176 319.550054 
L 333.738807 322.812864 
L 332.759924 324.623117 
L 332.205361 326.068416 
L 331.776247 327.869338 
L 331.581696 329.660928 
L 331.564948 332.154432 
L 331.848127 337.087526 
L 332.079748 342.642701 
L 332.128876 350.136691 
L 332.09995 416.396506 
L 331.989373 480.21984 
L 331.768556 485.122867 
L 331.424271 488.127514 
L 330.946329 490.300646 
L 330.386594 491.864141 
L 329.667326 493.218202 
L 328.804195 494.365939 
L 327.845713 495.309427 
L 326.597545 496.2384 
L 324.969396 497.144563 
L 322.842211 498.014438 
L 320.677461 498.67177 
L 317.991829 499.275187 
L 314.658761 499.798771 
L 310.522307 500.202086 
L 305.392334 500.420851 
L 300.757363 500.40841 
L 295.32607 500.18135 
L 288.97776 499.657766 
L 284.17338 499.09271 
L 278.867972 498.307853 
L 273.026047 497.251354 
L 266.61764 495.863078 
L 259.621659 494.070451 
L 252.030906 491.785344 
L 243.859777 488.90615 
L 239.56898 487.206835 
L 235.152634 485.314675 
L 230.623124 483.212045 
L 225.995854 480.880282 
L 221.290742 478.302797 
L 216.53156 475.459891 
L 211.747268 472.332902 
L 206.97235 468.904205 
L 202.246816 465.155136 
L 197.617536 461.071181 
L 193.137075 456.637824 
L 188.865362 451.843661 
L 184.868519 446.681434 
L 181.218697 441.148032 
L 177.993736 435.246566 
L 175.275662 428.987405 
L 173.149515 422.388173 
L 171.700501 415.475827 
L 171.012487 408.284582 
L 171.164318 400.863168 
L 172.226137 393.265498 
L 174.256699 385.56 
L 177.298357 377.819251 
L 181.374044 370.125158 
L 186.484432 362.566886 
L 192.604408 355.23049 
L 199.682917 348.20617 
L 207.64195 341.577907 
L 216.378891 335.419315 
L 225.76819 329.794675 
L 235.667221 324.755827 
L 245.920471 320.333875 
L 256.366064 316.544371 
L 266.842625 313.386278 
L 277.195311 310.840934 
L 287.281328 308.874125 
L 296.974123 307.44023 
L 306.166727 306.483264 
L 314.7741 305.942054 
L 322.732413 305.751283 
L 329.999097 305.848742 
L 336.550848 306.172224 
L 342.381407 306.663667 
L 347.498808 307.273306 
L 351.922671 307.95552 
L 355.681303 308.674022 
L 358.809842 309.398746 
L 361.347291 310.105843 
L 363.335836 310.77769 
L 364.818163 311.404954 
L 365.837963 311.978304 
L 366.437758 312.496704 
L 366.65906 312.960154 
L 366.54188 313.36969 
L 366.12472 313.731533 
L 365.444071 314.051904 
L 363.429245 314.588966 
L 359.236042 315.243187 
L 345.815283 317.031667 
L 341.245564 317.892211 
L 337.332773 318.857472 
L 334.171056 319.897382 
L 331.768829 320.982912 
L 330.565409 321.718003 
L 329.651775 322.456205 
L 328.997793 323.194406 
L 328.570723 323.929498 
L 328.337133 324.661478 
L 328.278024 325.750118 
L 328.477548 326.830464 
L 328.992604 328.261248 
L 331.498381 334.286093 
L 331.987417 336.394944 
L 332.254294 338.49239 
L 332.371426 341.269978 
L 332.289303 346.077619 
L 332.10667 356.154278 
L 332.098776 377.906342 
L 332.004847 471.139546 
L 331.793579 477.099072 
L 331.481114 480.43031 
L 331.034655 482.891674 
L 330.484955 484.716442 
L 329.856522 486.121306 
L 329.116195 487.313626 
L 328.119111 488.490394 
L 327.026073 489.456691 
L 325.619444 490.402253 
L 323.806117 491.319821 
L 321.464927 492.190733 
L 319.107634 492.838733 
L 316.211363 493.421414 
L 312.652305 493.904563 
L 308.280152 494.243597 
L 304.360648 494.360755 
L 299.796487 494.314099 
L 294.491916 494.045568 
L 288.343816 493.477402 
L 283.724748 492.882278 
L 278.654537 492.069427 
L 273.106399 490.992192 
L 267.059576 489.593549 
L 260.501848 487.809216 
L 253.435392 485.560397 
L 245.882304 482.75689 
L 241.937356 481.116672 
L 237.8918 479.298125 
L 233.758024 477.28777 
L 229.550593 475.071091 
L 225.288086 472.633574 
L 220.99277 469.95863 
L 216.690255 467.030707 
L 212.411678 463.837363 
L 208.192027 460.363046 
L 204.071643 456.595315 
L 200.09606 452.524838 
L 196.315666 448.143322 
L 192.786037 443.445581 
L 189.567437 438.430579 
L 186.723814 433.102464 
L 184.322628 427.470566 
L 182.432515 421.550438 
L 181.123112 415.36489 
L 180.461547 408.943987 
L 180.5116 402.325056 
L 181.329851 395.553715 
L 182.964177 388.683878 
L 185.449732 381.774643 
L 188.807441 374.892365 
L 193.040485 368.106509 
L 198.133295 361.487578 
L 204.050216 355.109184 
L 210.735 349.039757 
L 218.111481 343.341504 
L 226.085915 338.07145 
L 234.549324 333.274176 
L 243.381348 328.983898 
L 252.454763 325.219277 
L 261.639499 321.989645 
L 270.808331 319.287744 
L 279.840398 317.093875 
L 288.625048 315.380045 
L 297.065189 314.106854 
L 305.079296 313.230758 
L 312.60175 312.703027 
L 319.583653 312.471821 
L 325.992076 312.487373 
L 331.80855 312.700954 
L 337.027536 313.069018 
L 341.654522 313.548019 
L 345.703995 314.104781 
L 352.161718 315.330278 
L 356.627448 316.56407 
L 359.367451 317.697293 
L 360.176495 318.210509 
L 360.656933 318.68329 
L 360.841408 319.117709 
L 360.761224 319.514803 
L 360.446679 319.87872 
L 359.926065 320.211533 
L 358.373597 320.806656 
L 356.301353 321.335424 
L 351.264119 322.322458 
L 344.613351 323.644378 
L 340.966927 324.536026 
L 337.790679 325.499213 
L 335.161813 326.51735 
L 333.095141 327.570739 
L 331.561129 328.643827 
L 330.501872 329.723136 
L 329.844369 330.801408 
L 329.510607 331.873459 
L 329.424848 332.940326 
L 329.578471 334.353485 
L 330.118352 336.457152 
L 331.396525 340.975526 
L 331.838565 343.38816 
L 332.114428 346.126349 
L 332.23164 349.855718 
L 332.16559 357.522854 
L 332.100612 372.96599 
L 331.956958 477.130176 
L 331.703917 481.900493 
L 331.345669 484.750656 
L 330.891837 486.761011 
L 330.327652 488.352499 
L 329.610277 489.730406 
L 328.757173 490.89888 
L 327.816954 491.858957 
L 326.600977 492.804518 
L 325.025609 493.72727 
L 322.981354 494.615808 
L 320.913428 495.288691 
L 318.361616 495.911808 
L 315.211349 496.459238 
L 311.321977 496.895731 
L 306.523121 497.163226 
L 302.205708 497.204698 
L 297.163955 497.053325 
L 291.290056 496.638605 
L 284.469845 495.867226 
L 279.340877 495.093773 
L 273.710043 494.05801 
L 267.551062 492.702912 
L 260.846692 490.961088 
L 253.59325 488.751667 
L 245.806304 485.979264 
L 241.72526 484.349414 
L 237.529881 482.538125 
L 233.231886 480.529843 
L 228.845671 478.307981 
L 224.389483 475.856986 
L 219.885251 473.159232 
L 215.359592 470.198131 
L 210.843643 466.958131 
L 206.373895 463.422643 
L 201.992033 459.577152 
L 197.745932 455.410253 
L 193.688993 450.910541 
L 189.880141 446.072832 
L 186.384159 440.891942 
L 183.270352 435.373056 
L 180.611872 429.522394 
L 178.484386 423.355507 
L 176.964896 416.895206 
L 176.128565 410.171558 
L 176.046874 403.224998 
L 176.784941 396.104256 
L 178.397672 388.865318 
L 180.927254 381.574541 
L 184.399297 374.301389 
L 188.820666 367.124659 
L 194.176629 360.123149 
L 200.430023 353.375654 
L 207.52025 346.958899 
L 215.363945 340.944422 
L 223.857821 335.392358 
L 232.881016 330.355584 
L 242.299609 325.868314 
L 251.971981 321.954394 
L 261.753498 318.621082 
L 271.502707 315.85801 
L 281.086189 313.643405 
L 290.382246 311.943053 
L 299.285415 310.713408 
L 307.707476 309.903667 
L 315.578825 309.456806 
L 322.849108 309.317875 
L 329.485463 309.428813 
L 335.471319 309.737779 
L 340.804214 310.195008 
L 345.493624 310.755917 
L 349.558481 311.383181 
L 353.025167 312.045696 
L 358.293915 313.373837 
L 361.587845 314.600371 
L 362.589734 315.150912 
L 363.212629 315.655834 
L 363.493359 316.114099 
L 363.467579 316.528819 
L 363.169607 316.90103 
L 362.631751 317.236954 
L 360.95909 317.820672 
L 358.676089 318.321446 
L 353.048771 319.234867 
L 345.56266 320.482138 
L 341.456923 321.350976 
L 337.892475 322.307942 
L 334.961385 323.331264 
L 332.681384 324.396058 
L 331.017019 325.482624 
L 329.898975 326.575411 
L 329.414385 327.302208 
L 329.00988 328.387738 
L 328.91093 329.464973 
L 329.032964 330.535987 
L 329.413883 331.95433 
L 331.689149 338.967245 
L 332.068195 341.394394 
L 332.257252 344.149171 
L 332.278535 348.239347 
L 332.097821 368.607283 
L 331.973377 471.648614 
L 331.739464 476.965325 
L 331.404257 480.09024 
L 330.95787 482.351501 
L 330.372315 484.180416 
L 329.704054 485.58839 
L 328.917927 486.781747 
L 327.860545 487.960589 
L 326.702806 488.92585 
L 325.21457 489.869338 
L 323.298225 490.780685 
L 321.372924 491.474304 
L 319.011429 492.123341 
L 316.113434 492.704986 
L 312.556552 493.188134 
L 308.192267 493.525094 
L 302.844172 493.644326 
L 298.064232 493.528205 
L 292.518605 493.167398 
L 286.105511 492.47689 
L 281.298285 491.779123 
L 276.032718 490.841856 
L 270.285709 489.615322 
L 264.041354 488.039386 
L 257.294464 486.043546 
L 250.057093 483.545894 
L 246.264143 482.079859 
L 242.363891 480.452083 
L 238.365709 478.650125 
L 234.281317 476.657395 
L 230.125612 474.46249 
L 225.916673 472.048819 
L 221.676264 469.401869 
L 217.429828 466.507123 
L 213.207665 463.351104 
L 209.04426 459.918259 
L 204.978784 456.199258 
L 201.055932 452.181658 
L 197.324921 447.858202 
L 193.83982 443.225779 
L 190.659555 438.28128 
L 187.846398 433.029888 
L 185.465803 427.480934 
L 183.585231 421.648934 
L 182.271978 415.555661 
L 181.591832 409.230144 
L 181.606898 402.709709 
L 182.372753 396.037901 
L 183.936269 389.26656 
L 186.332265 382.453747 
L 189.581834 375.663744 
L 193.688993 368.962906 
L 198.640015 362.422771 
L 204.401086 356.11177 
L 210.918805 350.09833 
L 218.120855 344.443622 
L 225.917008 339.203635 
L 234.202471 334.42295 
L 242.860901 330.135782 
L 251.769092 326.36183 
L 260.80049 323.111462 
L 269.830883 320.378458 
L 278.741752 318.147264 
L 287.424121 316.388851 
L 295.7819 315.069005 
L 303.7334 314.144179 
L 311.212832 313.566682 
L 318.170361 313.288819 
L 324.571587 313.260826 
L 330.396437 313.435008 
L 335.637631 313.766784 
L 340.2988 314.216755 
L 344.392634 314.74967 
L 347.93897 315.332352 
L 353.493887 316.55785 
L 357.204308 317.743949 
L 358.450434 318.296563 
L 359.335645 318.81289 
L 359.892418 319.292928 
L 360.153227 319.734605 
L 360.148707 320.139994 
L 359.908655 320.512205 
L 359.46086 320.855386 
L 358.04767 321.467098 
L 356.103821 322.011418 
L 351.283538 323.019187 
L 344.818818 324.345254 
L 340.137159 325.545869 
L 337.16457 326.522534 
L 334.726322 327.548966 
L 332.826087 328.605466 
L 331.428657 329.677517 
L 330.474727 330.753715 
L 329.892848 331.82784 
L 329.608469 332.896781 
L 329.550197 333.959501 
L 329.71455 335.367475 
L 330.235733 337.465958 
L 331.435856 341.972928 
L 331.891505 344.720448 
L 332.142732 347.788339 
L 332.221574 351.83497 
L 331.96099 484.931059 
L 331.721733 489.130099 
L 331.383382 491.684774 
L 330.917055 493.625664 
L 330.322965 495.162202 
L 329.552055 496.492416 
L 328.619185 497.619418 
L 327.575948 498.546317 
L 326.208742 499.45559 
L 324.414047 500.337907 
L 322.579728 501.017011 
L 320.294852 501.656717 
L 317.447043 502.239398 
L 313.896589 502.733952 
L 309.470533 503.096832 
L 303.958051 503.254426 
L 298.959989 503.173555 
L 293.08676 502.849037 
L 286.205281 502.189632 
L 280.989097 501.501197 
L 275.223004 500.559782 
L 268.870509 499.306291 
L 261.902149 497.669184 
L 254.30018 495.56137 
L 246.066109 492.882278 
L 241.719568 491.291827 
L 237.228728 489.512678 
L 232.603299 487.528243 
L 227.856337 485.317786 
L 223.005085 482.86368 
L 218.070803 480.14519 
L 213.079939 477.142618 
L 208.0643 473.835226 
L 203.061551 470.204352 
L 198.116555 466.229261 
L 193.280704 461.892326 
L 188.612755 457.18007 
L 184.178831 452.079014 
L 180.052421 446.583974 
L 176.314045 440.689766 
L 173.049745 434.403648 
L 170.35042 427.738061 
L 168.309311 420.711667 
L 167.020499 413.358682 
L 166.574378 405.720576 
L 167.05582 397.851264 
L 168.538482 389.816064 
L 171.08179 381.688589 
L 174.725753 373.55593 
L 179.487279 365.509325 
L 185.356993 357.645197 
L 192.296057 350.063078 
L 200.236007 342.857318 
L 209.078912 336.116045 
L 218.699725 329.918054 
L 228.950464 324.325555 
L 239.66557 319.384166 
L 250.66894 315.121882 
L 261.781621 311.544922 
L 272.828347 308.638771 
L 283.644731 306.373363 
L 294.083125 304.703078 
L 304.017143 303.568819 
L 313.343667 302.90423 
L 321.984252 302.63881 
L 329.884578 302.701018 
L 337.012939 303.021389 
L 343.357583 303.533568 
L 348.923867 304.180531 
L 353.730591 304.910438 
L 357.807785 305.680781 
L 361.192613 306.457344 
L 363.927929 307.213171 
L 366.059768 307.927526 
L 367.635505 308.587968 
L 368.702847 309.186202 
L 369.30917 309.720154 
L 369.500173 310.189824 
L 369.320051 310.598323 
L 368.81149 310.952909 
L 368.014666 311.257728 
L 365.708228 311.754355 
L 360.978844 312.33289 
L 347.872729 313.73257 
L 342.656746 314.5392 
L 338.147107 315.47543 
L 334.48006 316.508083 
L 331.68464 317.598797 
L 330.28371 318.342182 
L 329.222126 319.089715 
L 328.465913 319.837248 
L 327.977357 320.58167 
L 327.717334 321.321946 
L 327.64706 322.056 
L 327.816971 323.148787 
L 328.217709 324.232243 
L 329.1477 326.027981 
L 330.842009 329.245171 
L 331.539319 331.025357 
L 332.01655 332.800358 
L 332.335307 334.919578 
L 332.457129 337.375757 
L 332.381373 341.201549 
L 332.109563 351.0864 
L 332.093777 364.582426 
L 332.079042 466.956058 
L 331.930663 477.895334 
L 331.668558 482.240563 
L 331.314199 484.883366 
L 330.840695 486.892685 
L 330.251787 488.482099 
L 329.502672 489.85897 
L 328.611518 491.024333 
L 327.629131 491.983373 
L 326.358314 492.925824 
L 324.711567 493.844429 
L 322.57427 494.724672 
L 320.411998 495.389261 
L 317.743575 495.997862 
L 314.449344 496.525594 
L 310.382863 496.932019 
L 305.36689 497.153894 
L 300.855962 497.146637 
L 295.591734 496.928909 
L 289.463722 496.423987 
L 282.35776 495.530266 
L 277.02155 494.652096 
L 271.171924 493.488806 
L 264.786116 491.980262 
L 257.851906 490.050778 
L 250.372976 487.615334 
L 246.436398 486.177293 
L 242.375776 484.575437 
L 238.199481 482.793178 
L 233.918728 480.816 
L 229.547579 478.629389 
L 225.103444 476.214682 
L 220.607917 473.557363 
L 216.086443 470.639808 
L 211.569824 467.44439 
L 207.09338 463.957632 
L 202.698126 460.162944 
L 198.430933 456.047885 
L 194.344029 451.603123 
L 190.495838 446.819328 
L 186.949971 441.695462 
L 183.774895 436.231526 
L 181.043429 430.434778 
L 178.830904 424.318694 
L 177.213652 417.906086 
L 176.267675 411.225984 
L 176.064953 404.315712 
L 176.671611 397.222963 
L 178.144396 390.003725 
L 180.527503 382.721242 
L 183.849221 375.446016 
L 188.119762 368.253734 
L 193.327576 361.22423 
L 199.43935 354.436301 
L 206.397833 347.967706 
L 214.123678 341.889984 
L 222.516277 336.265344 
L 231.457613 331.147699 
L 240.815608 326.575411 
L 250.449813 322.573363 
L 260.215594 319.14985 
L 269.971331 316.29865 
L 279.581933 314.001101 
L 288.92369 312.222989 
L 297.888629 310.921805 
L 306.385853 310.048819 
L 314.342878 309.548045 
L 321.706234 309.362458 
L 328.440552 309.437107 
L 334.526748 309.717043 
L 339.960284 310.152499 
L 344.748844 310.698893 
L 348.909973 311.317862 
L 352.468897 311.975194 
L 357.907556 313.305408 
L 361.349132 314.54231 
L 362.416307 315.101146 
L 363.098797 315.613325 
L 363.43343 316.078848 
L 363.456364 316.499789 
L 363.201748 316.879258 
L 362.702561 317.221402 
L 361.09301 317.813414 
L 358.856212 318.32041 
L 353.278778 319.236941 
L 345.794726 320.476954 
L 341.669254 321.341645 
L 338.076213 322.293427 
L 335.11238 323.313638 
L 332.799007 324.377395 
L 331.103212 325.461888 
L 329.95728 326.554675 
L 329.45652 327.281472 
L 329.031608 328.367002 
L 328.916856 329.445274 
L 329.02734 330.516288 
L 329.398532 331.93463 
L 330.681344 335.454566 
L 331.432956 337.902451 
L 331.92462 340.336858 
L 332.183504 342.755712 
L 332.288995 345.840192 
L 332.213312 351.927245 
L 332.102001 363.776832 
L 332.099477 427.093171 
L 331.988356 470.98921 
L 331.756296 476.74345 
L 331.40762 480.078835 
L 330.963454 482.340096 
L 330.380835 484.170048 
L 329.715973 485.576986 
L 328.933847 486.771379 
L 327.881855 487.950221 
L 326.730059 488.915482 
L 325.24949 489.85897 
L 323.343038 490.771354 
L 321.427698 491.467046 
L 319.078423 492.116083 
L 316.19541 492.699802 
L 312.656825 493.186061 
L 308.314971 493.527168 
L 302.993827 493.653658 
L 298.237658 493.544794 
L 292.71915 493.193318 
L 286.336523 492.516288 
L 281.551226 491.82889 
L 276.308928 490.904064 
L 270.586192 489.694118 
L 264.366277 488.137882 
L 257.643995 486.164851 
L 250.429725 483.694157 
L 246.647657 482.243674 
L 242.757281 480.632486 
L 238.767804 478.848154 
L 234.690944 476.87616 
L 230.540931 474.70199 
L 226.335843 472.310093 
L 222.096773 469.688026 
L 217.849165 466.818163 
L 213.622315 463.688064 
L 209.45054 460.28425 
L 205.372508 456.593242 
L 201.432415 452.605709 
L 197.678972 448.313357 
L 194.165915 443.711002 
L 190.951668 438.797606 
L 188.098 433.575245 
L 185.670533 428.054285 
L 183.736058 422.249242 
L 182.362541 416.179814 
L 181.61577 409.875034 
L 181.558352 403.371187 
L 182.246701 396.711821 
L 183.728693 389.946701 
L 186.040487 383.133888 
L 189.204514 376.337664 
L 193.226969 369.623347 
L 198.09563 363.062477 
L 203.77886 356.724518 
L 210.225267 350.676864 
L 217.364207 344.983795 
L 225.107127 339.699226 
L 233.350405 334.869811 
L 241.978871 330.530803 
L 250.869652 326.705011 
L 259.896362 323.401766 
L 268.934121 320.617958 
L 277.863572 318.336998 
L 286.575068 316.534003 
L 294.970513 315.171648 
L 302.967211 314.209498 
L 310.497532 313.599859 
L 317.509868 313.294003 
L 323.968545 313.2432 
L 329.852103 313.399757 
L 335.15202 313.719091 
L 339.870942 314.158694 
L 344.020772 314.684352 
L 350.695462 315.872525 
L 355.387684 317.093875 
L 358.353175 318.234355 
L 359.272368 318.754829 
L 359.859942 319.237978 
L 360.148205 319.683802 
L 360.168293 320.093338 
L 359.949668 320.468659 
L 359.52079 320.813914 
L 358.137563 321.429773 
L 356.21464 321.976166 
L 351.413608 322.984973 
L 344.942961 324.30793 
L 340.242554 325.504397 
L 337.252287 326.480026 
L 334.795659 327.505421 
L 332.877886 328.560883 
L 331.464734 329.632934 
L 330.497438 330.709133 
L 329.90475 331.783258 
L 329.612051 332.852198 
L 329.547753 333.914918 
L 329.707084 335.32393 
L 330.225488 337.422413 
L 331.428922 341.929382 
L 331.887718 344.677939 
L 332.141426 347.74583 
L 332.221731 351.792461 
L 331.983396 483.893222 
L 331.753895 488.51113 
L 331.413451 491.269018 
L 330.968706 493.215091 
L 330.402932 494.754739 
L 329.669637 496.089101 
L 328.783203 497.219213 
L 327.792731 498.149222 
L 326.495666 499.06368 
L 324.794279 499.953254 
L 322.559171 500.806541 
L 320.273491 501.446246 
L 317.425616 502.028928 
L 313.876166 502.524518 
L 309.453124 502.886362 
L 305.437532 503.02944 
L 300.708985 503.012851 
L 295.149965 502.779571 
L 288.631242 502.243546 
L 283.684739 501.663974 
L 278.210257 500.857344 
L 272.169461 499.769741 
L 265.528703 498.335846 
L 258.26438 496.478938 
L 250.367452 494.104666 
L 246.184963 492.69047 
L 241.851982 491.104166 
L 237.375203 489.329165 
L 232.764673 487.349914 
L 228.033446 485.146714 
L 223.198432 482.699866 
L 218.281057 479.990707 
L 213.307268 476.998502 
L 208.309039 473.702515 
L 203.3237 470.084083 
L 198.395779 466.124544 
L 193.576165 461.805235 
L 188.923282 457.110605 
L 184.503085 452.031322 
L 180.388393 446.558054 
L 176.659056 440.689766 
L 173.400448 434.430605 
L 170.702797 427.793011 
L 168.65901 420.797722 
L 167.362162 413.47584 
L 166.902314 405.869875 
L 167.363836 398.032704 
L 168.820049 390.028608 
L 171.330044 381.933274 
L 174.934166 373.829645 
L 179.649824 365.809997 
L 185.467811 357.969715 
L 192.35063 350.407296 
L 200.230985 343.216051 
L 209.012119 336.485146 
L 218.570659 330.292339 
L 228.76013 324.69984 
L 239.416981 319.754304 
L 250.366448 315.483725 
L 261.430583 311.893286 
L 272.435292 308.971584 
L 283.217024 306.68855 
L 293.628634 304.998566 
L 303.543569 303.844608 
L 312.858374 303.161357 
L 321.49439 302.877274 
L 329.396607 302.922893 
L 336.532585 303.228749 
L 342.889784 303.728486 
L 348.472691 304.365082 
L 353.299536 305.087731 
L 357.399497 305.85289 
L 360.809267 306.625306 
L 363.571033 307.379059 
L 365.730493 308.093414 
L 367.334352 308.754893 
L 368.43032 309.356237 
L 369.065101 309.893299 
L 369.284562 310.367117 
L 369.132563 310.779763 
L 368.651455 311.137459 
L 367.881583 311.446426 
L 365.6257 311.951347 
L 360.964112 312.538176 
L 347.964816 313.94304 
L 342.771298 314.747597 
L 338.271569 315.680717 
L 334.603936 316.711296 
L 331.799959 317.798899 
L 330.390126 318.541248 
L 329.317912 319.288781 
L 328.549948 320.036314 
L 328.049104 320.779699 
L 327.776728 321.518938 
L 327.694417 322.252992 
L 327.847538 323.345779 
L 328.233629 324.429235 
L 329.144971 326.223936 
L 330.823322 329.439053 
L 331.519299 331.219238 
L 331.998423 332.993203 
L 332.321564 335.111386 
L 332.449031 337.566528 
L 332.379851 341.38921 
L 332.107898 351.6048 
L 332.094927 366.044314 
L 332.099878 402.909811 
L 332.099878 402.909811 
" style="fill:none;stroke:#0000ff;stroke-linecap:square;"/>
   </g>
   <g id="patch_3">
    <path d="M 583.2 583.2 
L 583.2 64.8 
" style="fill:none;stroke:#000000;stroke-linecap:square;stroke-linejoin:miter;"/>
   </g>
   <g id="patch_4">
    <path d="M 81 583.2 
L 583.2 583.2 
" style="fill:none;stroke:#000000;stroke-linecap:square;stroke-linejoin:miter;"/>
   </g>
   <g id="patch_5">
    <path d="M 81 583.2 
L 81 64.8 
" style="fill:none;stroke:#000000;stroke-linecap:square;stroke-linejoin:miter;"/>
   </g>
   <g id="patch_6">
    <path d="M 81 64.8 
L 583.2 64.8 
" style="fill:none;stroke:#000000;stroke-linecap:square;stroke-linejoin:miter;"/>
   </g>
   <g id="matplotlib.axis_1">
    <g id="xtick_1">
     <g id="line2d_2">
      <path clip-path="url(#pc877925b28)" d="M 81 583.2 
L 81 64.8 
" style="fill:none;stroke:#000000;stroke-dasharray:1.000000,3.000000;stroke-dashoffset:0.0;stroke-width:0.5;"/>
     </g>
     <g id="line2d_3">
      <defs>
       <path d="M 0 0 
L 0 -4 
" id="md8961b5dbd" style="stroke:#000000;stroke-width:0.5;"/>
      </defs>
      <g>
       <use style="stroke:#000000;stroke-width:0.5;" x="81.0" xlink:href="#md8961b5dbd" y="583.2"/>
      </g>
     </g>
     <g id="line2d_4">
      <defs>
       <path d="M 0 0 
L 0 4 
" id="mbc2ffaa97f" style="stroke:#000000;stroke-width:0.5;"/>
      </defs>
      <g>
       <use style="stroke:#000000;stroke-width:0.5;" x="81.0" xlink:href="#mbc2ffaa97f" y="64.8"/>
      </g>
     </g>
     <g id="text_1">
      <!-- −15 -->
      <defs>
       <path d="M 10.796875 72.90625 
L 49.515625 72.90625 
L 49.515625 64.59375 
L 19.828125 64.59375 
L 19.828125 46.734375 
Q 21.96875 47.46875 24.109375 47.828125 
Q 26.265625 48.1875 28.421875 48.1875 
Q 40.625 48.1875 47.75 41.5 
Q 54.890625 34.8125 54.890625 23.390625 
Q 54.890625 11.625 47.5625 5.09375 
Q 40.234375 -1.421875 26.90625 -1.421875 
Q 22.3125 -1.421875 17.546875 -0.640625 
Q 12.796875 0.140625 7.71875 1.703125 
L 7.71875 11.625 
Q 12.109375 9.234375 16.796875 8.0625 
Q 21.484375 6.890625 26.703125 6.890625 
Q 35.15625 6.890625 40.078125 11.328125 
Q 45.015625 15.765625 45.015625 23.390625 
Q 45.015625 31 40.078125 35.4375 
Q 35.15625 39.890625 26.703125 39.890625 
Q 22.75 39.890625 18.8125 39.015625 
Q 14.890625 38.140625 10.796875 36.28125 
z
" id="BitstreamVeraSans-Roman-35"/>
       <path d="M 10.59375 35.5 
L 73.1875 35.5 
L 73.1875 27.203125 
L 10.59375 27.203125 
z
" id="BitstreamVeraSans-Roman-2212"/>
       <path d="M 12.40625 8.296875 
L 28.515625 8.296875 
L 28.515625 63.921875 
L 10.984375 60.40625 
L 10.984375 69.390625 
L 28.421875 72.90625 
L 38.28125 72.90625 
L 38.28125 8.296875 
L 54.390625 8.296875 
L 54.390625 0 
L 12.40625 0 
z
" id="BitstreamVeraSans-Roman-31"/>
      </defs>
      <g transform="translate(68.3371875 596.318125)scale(0.12 -0.12)">
       <use xlink:href="#BitstreamVeraSans-Roman-2212"/>
       <use x="83.7890625" xlink:href="#BitstreamVeraSans-Roman-31"/>
       <use x="147.412109375" xlink:href="#BitstreamVeraSans-Roman-35"/>
      </g>
     </g>
    </g>
    <g id="xtick_2">
     <g id="line2d_5">
      <path clip-path="url(#pc877925b28)" d="M 164.7 583.2 
L 164.7 64.8 
" style="fill:none;stroke:#000000;stroke-dasharray:1.000000,3.000000;stroke-dashoffset:0.0;stroke-width:0.5;"/>
     </g>
     <g id="line2d_6">
      <g>
       <use style="stroke:#000000;stroke-width:0.5;" x="164.7" xlink:href="#md8961b5dbd" y="583.2"/>
      </g>
     </g>
     <g id="line2d_7">
      <g>
       <use style="stroke:#000000;stroke-width:0.5;" x="164.7" xlink:href="#mbc2ffaa97f" y="64.8"/>
      </g>
     </g>
     <g id="text_2">
      <!-- −10 -->
      <defs>
       <path d="M 31.78125 66.40625 
Q 24.171875 66.40625 20.328125 58.90625 
Q 16.5 51.421875 16.5 36.375 
Q 16.5 21.390625 20.328125 13.890625 
Q 24.171875 6.390625 31.78125 6.390625 
Q 39.453125 6.390625 43.28125 13.890625 
Q 47.125 21.390625 47.125 36.375 
Q 47.125 51.421875 43.28125 58.90625 
Q 39.453125 66.40625 31.78125 66.40625 
M 31.78125 74.21875 
Q 44.046875 74.21875 50.515625 64.515625 
Q 56.984375 54.828125 56.984375 36.375 
Q 56.984375 17.96875 50.515625 8.265625 
Q 44.046875 -1.421875 31.78125 -1.421875 
Q 19.53125 -1.421875 13.0625 8.265625 
Q 6.59375 17.96875 6.59375 36.375 
Q 6.59375 54.828125 13.0625 64.515625 
Q 19.53125 74.21875 31.78125 74.21875 
" id="BitstreamVeraSans-Roman-30"/>
      </defs>
      <g transform="translate(152.0371875 596.318125)scale(0.12 -0.12)">
       <use xlink:href="#BitstreamVeraSans-Roman-2212"/>
       <use x="83.7890625" xlink:href="#BitstreamVeraSans-Roman-31"/>
       <use x="147.412109375" xlink:href="#BitstreamVeraSans-Roman-30"/>
      </g>
     </g>
    </g>
    <g id="xtick_3">
     <g id="line2d_8">
      <path clip-path="url(#pc877925b28)" d="M 248.4 583.2 
L 248.4 64.8 
" style="fill:none;stroke:#000000;stroke-dasharray:1.000000,3.000000;stroke-dashoffset:0.0;stroke-width:0.5;"/>
     </g>
     <g id="line2d_9">
      <g>
       <use style="stroke:#000000;stroke-width:0.5;" x="248.4" xlink:href="#md8961b5dbd" y="583.2"/>
      </g>
     </g>
     <g id="line2d_10">
      <g>
       <use style="stroke:#000000;stroke-width:0.5;" x="248.4" xlink:href="#mbc2ffaa97f" y="64.8"/>
      </g>
     </g>
     <g id="text_3">
      <!-- −5 -->
      <g transform="translate(239.5546875 596.318125)scale(0.12 -0.12)">
       <use xlink:href="#BitstreamVeraSans-Roman-2212"/>
       <use x="83.7890625" xlink:href="#BitstreamVeraSans-Roman-35"/>
      </g>
     </g>
    </g>
    <g id="xtick_4">
     <g id="line2d_11">
      <path clip-path="url(#pc877925b28)" d="M 332.1 583.2 
L 332.1 64.8 
" style="fill:none;stroke:#000000;stroke-dasharray:1.000000,3.000000;stroke-dashoffset:0.0;stroke-width:0.5;"/>
     </g>
     <g id="line2d_12">
      <g>
       <use style="stroke:#000000;stroke-width:0.5;" x="332.1" xlink:href="#md8961b5dbd" y="583.2"/>
      </g>
     </g>
     <g id="line2d_13">
      <g>
       <use style="stroke:#000000;stroke-width:0.5;" x="332.1" xlink:href="#mbc2ffaa97f" y="64.8"/>
      </g>
     </g>
     <g id="text_4">
      <!-- 0 -->
      <g transform="translate(328.2825 596.318125)scale(0.12 -0.12)">
       <use xlink:href="#BitstreamVeraSans-Roman-30"/>
      </g>
     </g>
    </g>
    <g id="xtick_5">
     <g id="line2d_14">
      <path clip-path="url(#pc877925b28)" d="M 415.8 583.2 
L 415.8 64.8 
" style="fill:none;stroke:#000000;stroke-dasharray:1.000000,3.000000;stroke-dashoffset:0.0;stroke-width:0.5;"/>
     </g>
     <g id="line2d_15">
      <g>
       <use style="stroke:#000000;stroke-width:0.5;" x="415.8" xlink:href="#md8961b5dbd" y="583.2"/>
      </g>
     </g>
     <g id="line2d_16">
      <g>
       <use style="stroke:#000000;stroke-width:0.5;" x="415.8" xlink:href="#mbc2ffaa97f" y="64.8"/>
      </g>
     </g>
     <g id="text_5">
      <!-- 5 -->
      <g transform="translate(411.9825 596.318125)scale(0.12 -0.12)">
       <use xlink:href="#BitstreamVeraSans-Roman-35"/>
      </g>
     </g>
    </g>
    <g id="xtick_6">
     <g id="line2d_17">
      <path clip-path="url(#pc877925b28)" d="M 499.5 583.2 
L 499.5 64.8 
" style="fill:none;stroke:#000000;stroke-dasharray:1.000000,3.000000;stroke-dashoffset:0.0;stroke-width:0.5;"/>
     </g>
     <g id="line2d_18">
      <g>
       <use style="stroke:#000000;stroke-width:0.5;" x="499.5" xlink:href="#md8961b5dbd" y="583.2"/>
      </g>
     </g>
     <g id="line2d_19">
      <g>
       <use style="stroke:#000000;stroke-width:0.5;" x="499.5" xlink:href="#mbc2ffaa97f" y="64.8"/>
      </g>
     </g>
     <g id="text_6">
      <!-- 10 -->
      <g transform="translate(491.865 596.318125)scale(0.12 -0.12)">
       <use xlink:href="#BitstreamVeraSans-Roman-31"/>
       <use x="63.623046875" xlink:href="#BitstreamVeraSans-Roman-30"/>
      </g>
     </g>
    </g>
    <g id="xtick_7">
     <g id="line2d_20">
      <path clip-path="url(#pc877925b28)" d="M 583.2 583.2 
L 583.2 64.8 
" style="fill:none;stroke:#000000;stroke-dasharray:1.000000,3.000000;stroke-dashoffset:0.0;stroke-width:0.5;"/>
     </g>
     <g id="line2d_21">
      <g>
       <use style="stroke:#000000;stroke-width:0.5;" x="583.2" xlink:href="#md8961b5dbd" y="583.2"/>
      </g>
     </g>
     <g id="line2d_22">
      <g>
       <use style="stroke:#000000;stroke-width:0.5;" x="583.2" xlink:href="#mbc2ffaa97f" y="64.8"/>
      </g>
     </g>
     <g id="text_7">
      <!-- 15 -->
      <g transform="translate(575.565 596.318125)scale(0.12 -0.12)">
       <use xlink:href="#BitstreamVeraSans-Roman-31"/>
       <use x="63.623046875" xlink:href="#BitstreamVeraSans-Roman-35"/>
      </g>
     </g>
    </g>
    <g id="text_8">
     <!-- x -->
     <defs>
      <path d="M 54.890625 54.6875 
L 35.109375 28.078125 
L 55.90625 0 
L 45.3125 0 
L 29.390625 21.484375 
L 13.484375 0 
L 2.875 0 
L 24.125 28.609375 
L 4.6875 54.6875 
L 15.28125 54.6875 
L 29.78125 35.203125 
L 44.28125 54.6875 
z
" id="BitstreamVeraSans-Roman-78"/>
     </defs>
     <g transform="translate(326.773125 617.4909375)scale(0.18 -0.18)">
      <use xlink:href="#BitstreamVeraSans-Roman-78"/>
     </g>
    </g>
   </g>
   <g id="matplotlib.axis_2">
    <g id="ytick_1">
     <g id="line2d_23">
      <path clip-path="url(#pc877925b28)" d="M 81 583.2 
L 583.2 583.2 
" style="fill:none;stroke:#000000;stroke-dasharray:1.000000,3.000000;stroke-dashoffset:0.0;stroke-width:0.5;"/>
     </g>
     <g id="line2d_24">
      <defs>
       <path d="M 0 0 
L 4 0 
" id="m6fd877e234" style="stroke:#000000;stroke-width:0.5;"/>
      </defs>
      <g>
       <use style="stroke:#000000;stroke-width:0.5;" x="81.0" xlink:href="#m6fd877e234" y="583.2"/>
      </g>
     </g>
     <g id="line2d_25">
      <defs>
       <path d="M 0 0 
L -4 0 
" id="m82aa31f866" style="stroke:#000000;stroke-width:0.5;"/>
      </defs>
      <g>
       <use style="stroke:#000000;stroke-width:0.5;" x="583.2" xlink:href="#m82aa31f866" y="583.2"/>
      </g>
     </g>
     <g id="text_9">
      <!-- 10 -->
      <g transform="translate(61.73 586.51125)scale(0.12 -0.12)">
       <use xlink:href="#BitstreamVeraSans-Roman-31"/>
       <use x="63.623046875" xlink:href="#BitstreamVeraSans-Roman-30"/>
      </g>
     </g>
    </g>
    <g id="ytick_2">
     <g id="line2d_26">
      <path clip-path="url(#pc877925b28)" d="M 81 479.52 
L 583.2 479.52 
" style="fill:none;stroke:#000000;stroke-dasharray:1.000000,3.000000;stroke-dashoffset:0.0;stroke-width:0.5;"/>
     </g>
     <g id="line2d_27">
      <g>
       <use style="stroke:#000000;stroke-width:0.5;" x="81.0" xlink:href="#m6fd877e234" y="479.52"/>
      </g>
     </g>
     <g id="line2d_28">
      <g>
       <use style="stroke:#000000;stroke-width:0.5;" x="583.2" xlink:href="#m82aa31f866" y="479.52"/>
      </g>
     </g>
     <g id="text_10">
      <!-- 20 -->
      <defs>
       <path d="M 19.1875 8.296875 
L 53.609375 8.296875 
L 53.609375 0 
L 7.328125 0 
L 7.328125 8.296875 
Q 12.9375 14.109375 22.625 23.890625 
Q 32.328125 33.6875 34.8125 36.53125 
Q 39.546875 41.84375 41.421875 45.53125 
Q 43.3125 49.21875 43.3125 52.78125 
Q 43.3125 58.59375 39.234375 62.25 
Q 35.15625 65.921875 28.609375 65.921875 
Q 23.96875 65.921875 18.8125 64.3125 
Q 13.671875 62.703125 7.8125 59.421875 
L 7.8125 69.390625 
Q 13.765625 71.78125 18.9375 73 
Q 24.125 74.21875 28.421875 74.21875 
Q 39.75 74.21875 46.484375 68.546875 
Q 53.21875 62.890625 53.21875 53.421875 
Q 53.21875 48.921875 51.53125 44.890625 
Q 49.859375 40.875 45.40625 35.40625 
Q 44.1875 33.984375 37.640625 27.21875 
Q 31.109375 20.453125 19.1875 8.296875 
" id="BitstreamVeraSans-Roman-32"/>
      </defs>
      <g transform="translate(61.73 482.83125)scale(0.12 -0.12)">
       <use xlink:href="#BitstreamVeraSans-Roman-32"/>
       <use x="63.623046875" xlink:href="#BitstreamVeraSans-Roman-30"/>
      </g>
     </g>
    </g>
    <g id="ytick_3">
     <g id="line2d_29">
      <path clip-path="url(#pc877925b28)" d="M 81 375.84 
L 583.2 375.84 
" style="fill:none;stroke:#000000;stroke-dasharray:1.000000,3.000000;stroke-dashoffset:0.0;stroke-width:0.5;"/>
     </g>
     <g id="line2d_30">
      <g>
       <use style="stroke:#000000;stroke-width:0.5;" x="81.0" xlink:href="#m6fd877e234" y="375.84"/>
      </g>
     </g>
     <g id="line2d_31">
      <g>
       <use style="stroke:#000000;stroke-width:0.5;" x="583.2" xlink:href="#m82aa31f866" y="375.84"/>
      </g>
     </g>
     <g id="text_11">
      <!-- 30 -->
      <defs>
       <path d="M 40.578125 39.3125 
Q 47.65625 37.796875 51.625 33 
Q 55.609375 28.21875 55.609375 21.1875 
Q 55.609375 10.40625 48.1875 4.484375 
Q 40.765625 -1.421875 27.09375 -1.421875 
Q 22.515625 -1.421875 17.65625 -0.515625 
Q 12.796875 0.390625 7.625 2.203125 
L 7.625 11.71875 
Q 11.71875 9.328125 16.59375 8.109375 
Q 21.484375 6.890625 26.8125 6.890625 
Q 36.078125 6.890625 40.9375 10.546875 
Q 45.796875 14.203125 45.796875 21.1875 
Q 45.796875 27.640625 41.28125 31.265625 
Q 36.765625 34.90625 28.71875 34.90625 
L 20.21875 34.90625 
L 20.21875 43.015625 
L 29.109375 43.015625 
Q 36.375 43.015625 40.234375 45.921875 
Q 44.09375 48.828125 44.09375 54.296875 
Q 44.09375 59.90625 40.109375 62.90625 
Q 36.140625 65.921875 28.71875 65.921875 
Q 24.65625 65.921875 20.015625 65.03125 
Q 15.375 64.15625 9.8125 62.3125 
L 9.8125 71.09375 
Q 15.4375 72.65625 20.34375 73.4375 
Q 25.25 74.21875 29.59375 74.21875 
Q 40.828125 74.21875 47.359375 69.109375 
Q 53.90625 64.015625 53.90625 55.328125 
Q 53.90625 49.265625 50.4375 45.09375 
Q 46.96875 40.921875 40.578125 39.3125 
" id="BitstreamVeraSans-Roman-33"/>
      </defs>
      <g transform="translate(61.73 379.15125)scale(0.12 -0.12)">
       <use xlink:href="#BitstreamVeraSans-Roman-33"/>
       <use x="63.623046875" xlink:href="#BitstreamVeraSans-Roman-30"/>
      </g>
     </g>
    </g>
    <g id="ytick_4">
     <g id="line2d_32">
      <path clip-path="url(#pc877925b28)" d="M 81 272.16 
L 583.2 272.16 
" style="fill:none;stroke:#000000;stroke-dasharray:1.000000,3.000000;stroke-dashoffset:0.0;stroke-width:0.5;"/>
     </g>
     <g id="line2d_33">
      <g>
       <use style="stroke:#000000;stroke-width:0.5;" x="81.0" xlink:href="#m6fd877e234" y="272.16"/>
      </g>
     </g>
     <g id="line2d_34">
      <g>
       <use style="stroke:#000000;stroke-width:0.5;" x="583.2" xlink:href="#m82aa31f866" y="272.16"/>
      </g>
     </g>
     <g id="text_12">
      <!-- 40 -->
      <defs>
       <path d="M 37.796875 64.3125 
L 12.890625 25.390625 
L 37.796875 25.390625 
z
M 35.203125 72.90625 
L 47.609375 72.90625 
L 47.609375 25.390625 
L 58.015625 25.390625 
L 58.015625 17.1875 
L 47.609375 17.1875 
L 47.609375 0 
L 37.796875 0 
L 37.796875 17.1875 
L 4.890625 17.1875 
L 4.890625 26.703125 
z
" id="BitstreamVeraSans-Roman-34"/>
      </defs>
      <g transform="translate(61.73 275.47125)scale(0.12 -0.12)">
       <use xlink:href="#BitstreamVeraSans-Roman-34"/>
       <use x="63.623046875" xlink:href="#BitstreamVeraSans-Roman-30"/>
      </g>
     </g>
    </g>
    <g id="ytick_5">
     <g id="line2d_35">
      <path clip-path="url(#pc877925b28)" d="M 81 168.48 
L 583.2 168.48 
" style="fill:none;stroke:#000000;stroke-dasharray:1.000000,3.000000;stroke-dashoffset:0.0;stroke-width:0.5;"/>
     </g>
     <g id="line2d_36">
      <g>
       <use style="stroke:#000000;stroke-width:0.5;" x="81.0" xlink:href="#m6fd877e234" y="168.48"/>
      </g>
     </g>
     <g id="line2d_37">
      <g>
       <use style="stroke:#000000;stroke-width:0.5;" x="583.2" xlink:href="#m82aa31f866" y="168.48"/>
      </g>
     </g>
     <g id="text_13">
      <!-- 50 -->
      <g transform="translate(61.73 171.79125)scale(0.12 -0.12)">
       <use xlink:href="#BitstreamVeraSans-Roman-35"/>
       <use x="63.623046875" xlink:href="#BitstreamVeraSans-Roman-30"/>
      </g>
     </g>
    </g>
    <g id="ytick_6">
     <g id="line2d_38">
      <path clip-path="url(#pc877925b28)" d="M 81 64.8 
L 583.2 64.8 
" style="fill:none;stroke:#000000;stroke-dasharray:1.000000,3.000000;stroke-dashoffset:0.0;stroke-width:0.5;"/>
     </g>
     <g id="line2d_39">
      <g>
       <use style="stroke:#000000;stroke-width:0.5;" x="81.0" xlink:href="#m6fd877e234" y="64.8"/>
      </g>
     </g>
     <g id="line2d_40">
      <g>
       <use style="stroke:#000000;stroke-width:0.5;" x="583.2" xlink:href="#m82aa31f866" y="64.8"/>
      </g>
     </g>
     <g id="text_14">
      <!-- 60 -->
      <defs>
       <path d="M 33.015625 40.375 
Q 26.375 40.375 22.484375 35.828125 
Q 18.609375 31.296875 18.609375 23.390625 
Q 18.609375 15.53125 22.484375 10.953125 
Q 26.375 6.390625 33.015625 6.390625 
Q 39.65625 6.390625 43.53125 10.953125 
Q 47.40625 15.53125 47.40625 23.390625 
Q 47.40625 31.296875 43.53125 35.828125 
Q 39.65625 40.375 33.015625 40.375 
M 52.59375 71.296875 
L 52.59375 62.3125 
Q 48.875 64.0625 45.09375 64.984375 
Q 41.3125 65.921875 37.59375 65.921875 
Q 27.828125 65.921875 22.671875 59.328125 
Q 17.53125 52.734375 16.796875 39.40625 
Q 19.671875 43.65625 24.015625 45.921875 
Q 28.375 48.1875 33.59375 48.1875 
Q 44.578125 48.1875 50.953125 41.515625 
Q 57.328125 34.859375 57.328125 23.390625 
Q 57.328125 12.15625 50.6875 5.359375 
Q 44.046875 -1.421875 33.015625 -1.421875 
Q 20.359375 -1.421875 13.671875 8.265625 
Q 6.984375 17.96875 6.984375 36.375 
Q 6.984375 53.65625 15.1875 63.9375 
Q 23.390625 74.21875 37.203125 74.21875 
Q 40.921875 74.21875 44.703125 73.484375 
Q 48.484375 72.75 52.59375 71.296875 
" id="BitstreamVeraSans-Roman-36"/>
      </defs>
      <g transform="translate(61.73 68.11125)scale(0.12 -0.12)">
       <use xlink:href="#BitstreamVeraSans-Roman-36"/>
       <use x="63.623046875" xlink:href="#BitstreamVeraSans-Roman-30"/>
      </g>
     </g>
    </g>
    <g id="text_15">
     <!-- y -->
     <defs>
      <path d="M 32.171875 -5.078125 
Q 28.375 -14.84375 24.75 -17.8125 
Q 21.140625 -20.796875 15.09375 -20.796875 
L 7.90625 -20.796875 
L 7.90625 -13.28125 
L 13.1875 -13.28125 
Q 16.890625 -13.28125 18.9375 -11.515625 
Q 21 -9.765625 23.484375 -3.21875 
L 25.09375 0.875 
L 2.984375 54.6875 
L 12.5 54.6875 
L 29.59375 11.921875 
L 46.6875 54.6875 
L 56.203125 54.6875 
z
" id="BitstreamVeraSans-Roman-79"/>
     </defs>
     <g transform="translate(52.9865625 329.326875)rotate(-90.0)scale(0.18 -0.18)">
      <use xlink:href="#BitstreamVeraSans-Roman-79"/>
     </g>
    </g>
   </g>
   <g id="text_16">
    <!-- Data -->
    <defs>
     <path d="M 34.28125 27.484375 
Q 23.390625 27.484375 19.1875 25 
Q 14.984375 22.515625 14.984375 16.5 
Q 14.984375 11.71875 18.140625 8.90625 
Q 21.296875 6.109375 26.703125 6.109375 
Q 34.1875 6.109375 38.703125 11.40625 
Q 43.21875 16.703125 43.21875 25.484375 
L 43.21875 27.484375 
z
M 52.203125 31.203125 
L 52.203125 0 
L 43.21875 0 
L 43.21875 8.296875 
Q 40.140625 3.328125 35.546875 0.953125 
Q 30.953125 -1.421875 24.3125 -1.421875 
Q 15.921875 -1.421875 10.953125 3.296875 
Q 6 8.015625 6 15.921875 
Q 6 25.140625 12.171875 29.828125 
Q 18.359375 34.515625 30.609375 34.515625 
L 43.21875 34.515625 
L 43.21875 35.40625 
Q 43.21875 41.609375 39.140625 45 
Q 35.0625 48.390625 27.6875 48.390625 
Q 23 48.390625 18.546875 47.265625 
Q 14.109375 46.140625 10.015625 43.890625 
L 10.015625 52.203125 
Q 14.9375 54.109375 19.578125 55.046875 
Q 24.21875 56 28.609375 56 
Q 40.484375 56 46.34375 49.84375 
Q 52.203125 43.703125 52.203125 31.203125 
" id="BitstreamVeraSans-Roman-61"/>
     <path d="M 19.671875 64.796875 
L 19.671875 8.109375 
L 31.59375 8.109375 
Q 46.6875 8.109375 53.6875 14.9375 
Q 60.6875 21.78125 60.6875 36.53125 
Q 60.6875 51.171875 53.6875 57.984375 
Q 46.6875 64.796875 31.59375 64.796875 
z
M 9.8125 72.90625 
L 30.078125 72.90625 
Q 51.265625 72.90625 61.171875 64.09375 
Q 71.09375 55.28125 71.09375 36.53125 
Q 71.09375 17.671875 61.125 8.828125 
Q 51.171875 0 30.078125 0 
L 9.8125 0 
z
" id="BitstreamVeraSans-Roman-44"/>
     <path d="M 18.3125 70.21875 
L 18.3125 54.6875 
L 36.8125 54.6875 
L 36.8125 47.703125 
L 18.3125 47.703125 
L 18.3125 18.015625 
Q 18.3125 11.328125 20.140625 9.421875 
Q 21.96875 7.515625 27.59375 7.515625 
L 36.8125 7.515625 
L 36.8125 0 
L 27.59375 0 
Q 17.1875 0 13.234375 3.875 
Q 9.28125 7.765625 9.28125 18.015625 
L 9.28125 47.703125 
L 2.6875 47.703125 
L 2.6875 54.6875 
L 9.28125 54.6875 
L 9.28125 70.21875 
z
" id="BitstreamVeraSans-Roman-74"/>
    </defs>
    <g transform="translate(305.83578125 59.8)scale(0.22 -0.22)">
     <use xlink:href="#BitstreamVeraSans-Roman-44"/>
     <use x="77.001953125" xlink:href="#BitstreamVeraSans-Roman-61"/>
     <use x="138.28125" xlink:href="#BitstreamVeraSans-Roman-74"/>
     <use x="177.490234375" xlink:href="#BitstreamVeraSans-Roman-61"/>
    </g>
   </g>
   <g id="legend_1">
    <g id="patch_7">
     <path d="M 88.2 97.4565 
L 181.638 97.4565 
L 181.638 72 
L 88.2 72 
z
" style="fill:#ffffff;stroke:#000000;stroke-linejoin:miter;"/>
    </g>
    <g id="line2d_41">
     <path d="M 98.28 83.66175 
L 118.44 83.66175 
" style="fill:none;stroke:#0000ff;stroke-linecap:square;"/>
    </g>
    <g id="line2d_42"/>
    <g id="text_17">
     <!-- data1 -->
     <defs>
      <path d="M 45.40625 46.390625 
L 45.40625 75.984375 
L 54.390625 75.984375 
L 54.390625 0 
L 45.40625 0 
L 45.40625 8.203125 
Q 42.578125 3.328125 38.25 0.953125 
Q 33.9375 -1.421875 27.875 -1.421875 
Q 17.96875 -1.421875 11.734375 6.484375 
Q 5.515625 14.40625 5.515625 27.296875 
Q 5.515625 40.1875 11.734375 48.09375 
Q 17.96875 56 27.875 56 
Q 33.9375 56 38.25 53.625 
Q 42.578125 51.265625 45.40625 46.390625 
M 14.796875 27.296875 
Q 14.796875 17.390625 18.875 11.75 
Q 22.953125 6.109375 30.078125 6.109375 
Q 37.203125 6.109375 41.296875 11.75 
Q 45.40625 17.390625 45.40625 27.296875 
Q 45.40625 37.203125 41.296875 42.84375 
Q 37.203125 48.484375 30.078125 48.484375 
Q 22.953125 48.484375 18.875 42.84375 
Q 14.796875 37.203125 14.796875 27.296875 
" id="BitstreamVeraSans-Roman-64"/>
     </defs>
     <g transform="translate(134.28 88.70175)scale(0.144 -0.144)">
      <use xlink:href="#BitstreamVeraSans-Roman-64"/>
      <use x="63.4765625" xlink:href="#BitstreamVeraSans-Roman-61"/>
      <use x="124.755859375" xlink:href="#BitstreamVeraSans-Roman-74"/>
      <use x="163.96484375" xlink:href="#BitstreamVeraSans-Roman-61"/>
      <use x="225.244140625" xlink:href="#BitstreamVeraSans-Roman-31"/>
     </g>
    </g>
   </g>
  </g>
 </g>
 <defs>
  <clipPath id="pc877925b28">
   <rect height="518.4" width="502.2" x="81.0" y="64.8"/>
  </clipPath>
 </defs>
</svg>
