<?xml version="1.0" encoding="utf-8" standalone="no"?>
<!DOCTYPE svg PUBLIC "-//W3C//DTD SVG 1.1//EN"
  "http://www.w3.org/Graphics/SVG/1.1/DTD/svg11.dtd">
<!-- Created with matplotlib (http://matplotlib.org/) -->
<svg height="648pt" version="1.1" viewBox="0 0 648 648" width="648pt" xmlns="http://www.w3.org/2000/svg" xmlns:xlink="http://www.w3.org/1999/xlink">
 <defs>
  <style type="text/css">
*{stroke-linecap:butt;stroke-linejoin:round;stroke-miterlimit:100000;}
  </style>
 </defs>
 <g id="figure_1">
  <g id="patch_1">
   <path d="M 0 648 
L 648 648 
L 648 0 
L 0 0 
z
" style="fill:#ffffff;"/>
  </g>
  <g id="axes_1">
   <g id="patch_2">
    <path d="M 81 583.2 
L 583.2 583.2 
L 583.2 64.8 
L 81 64.8 
z
" style="fill:#ffffff;"/>
   </g>
   <g id="line2d_1">
    <path clip-path="url(#p4d2241cf97)" d="M 461.995034 327.529509 
L 453.617133 346.797504 
L 443.83729 363.769056 
L 433.062288 378.127699 
L 421.695694 389.678515 
L 410.122997 398.340634 
L 398.700659 404.13289 
L 387.747155 407.158099 
L 377.537308 407.587507 
L 368.298536 405.645408 
L 360.209339 401.598086 
L 353.399708 395.741722 
L 347.951642 388.394266 
L 343.902704 379.885939 
L 341.247673 370.551283 
L 339.94336 360.72 
L 339.912223 350.70935 
L 341.0482 340.815168 
L 343.220516 331.304774 
L 346.281324 322.411023 
L 350.069921 314.327779 
L 354.419375 307.207296 
L 359.161549 301.159469 
L 364.132586 296.25264 
L 369.176944 292.516531 
L 374.151215 289.944749 
L 378.927016 288.49945 
L 383.39325 288.116006 
L 387.457426 288.707501 
L 391.046448 290.16887 
L 394.106654 292.382611 
L 396.603532 295.221888 
L 398.520631 298.555546 
L 399.858491 302.251565 
L 400.632884 306.180864 
L 400.873076 310.219891 
L 400.619706 314.25389 
L 399.922713 318.17899 
L 398.839146 321.904005 
L 397.430877 325.351621 
L 395.762669 328.459225 
L 393.900029 331.17908 
L 391.90744 333.478184 
L 389.846873 335.337598 
L 387.776182 336.751534 
L 385.748198 337.726212 
L 383.809706 338.278378 
L 382.000876 338.433846 
L 380.354853 338.225898 
L 378.897607 337.693674 
L 377.647953 336.880564 
L 376.6178 335.832756 
L 375.812452 334.597668 
L 375.231226 333.222803 
L 374.867955 331.7544 
L 374.71171 330.236525 
L 374.747547 328.710131 
L 374.957246 327.212369 
L 375.320075 325.776056 
L 375.813597 324.429301 
L 376.414329 323.195303 
L 377.098446 322.092253 
L 377.842385 321.133438 
L 378.623386 320.327378 
L 379.419976 319.678134 
L 380.212407 319.185688 
L 380.982826 318.846344 
L 381.715657 318.653171 
L 382.397658 318.596561 
L 383.018042 318.664679 
L 383.568469 318.843994 
L 384.438039 319.476649 
L 384.985617 320.370526 
L 385.221973 321.402868 
L 385.182319 322.46255 
L 384.918724 323.457434 
L 384.492417 324.318431 
L 383.966854 325.00083 
L 383.401889 325.483208 
L 382.591443 325.834168 
L 381.935847 325.797759 
L 381.50363 325.483517 
L 381.307721 325.016849 
L 381.318631 324.513294 
L 381.557793 323.934022 
L 382.005757 323.50772 
L 382.397728 323.427999 
L 382.61218 323.58105 
L 382.632051 323.862015 
L 382.420863 324.132705 
L 382.235843 324.114643 
L 382.230931 324.103373 
L 382.302642 323.965405 
L 382.308399 323.963885 
L 382.342596 323.979185 
L 382.315398 324.00613 
L 382.315398 324.00613 
L 380.408436 326.776447 
L 368.557229 344.366554 
L 337.063946 391.19328 
L 322.461376 412.55568 
L 308.639627 432.401587 
L 297.836099 447.584314 
L 285.641478 464.29321 
L 279.000184 473.170118 
L 271.991079 482.344762 
L 264.616373 491.760461 
L 256.884702 501.341184 
L 248.81234 510.98688 
L 240.425801 520.57728 
L 231.763252 529.955136 
L 222.876522 538.940736 
L 213.833909 547.31808 
L 204.721791 554.83488 
L 195.647037 561.212928 
L 186.73821 566.146368 
L 178.147577 569.313792 
L 170.046086 570.383424 
L 162.631606 569.042496 
L 156.115058 565.009344 
L 150.717413 558.06624 
L 146.667672 548.074944 
L 144.184795 535.012992 
L 143.467654 518.989248 
L 144.684986 500.250816 
L 147.95933 479.192198 
L 153.354967 456.327821 
L 160.867879 432.270778 
L 170.42575 407.68825 
L 181.887159 383.253984 
L 195.042187 359.600774 
L 209.631298 337.27968 
L 225.356586 316.731306 
L 241.897849 298.270944 
L 258.931067 282.088915 
L 276.142064 268.261459 
L 293.239563 256.771296 
L 309.962823 247.529606 
L 326.088264 240.400051 
L 341.429872 235.217434 
L 355.839998 231.804979 
L 369.205609 229.984013 
L 381.446395 229.582771 
L 392.509759 230.438477 
L 402.367302 232.399066 
L 411.011088 235.322669 
L 418.450879 239.076058 
L 424.710099 243.533606 
L 429.825308 248.574701 
L 433.842908 254.084602 
L 436.818342 259.952198 
L 438.814085 266.070874 
L 439.898837 272.339539 
L 440.146522 278.661946 
L 439.634479 284.949274 
L 438.442658 291.120134 
L 436.652616 297.101779 
L 434.346313 302.831136 
L 431.604502 308.254637 
L 428.50653 313.329133 
L 425.128332 318.021224 
L 421.542624 322.30711 
L 417.817103 326.171992 
L 414.014846 329.609261 
L 410.193305 332.619592 
L 406.403905 335.210054 
L 402.692446 337.393054 
L 399.098221 339.185474 
L 395.655097 340.607722 
L 392.390938 341.68297 
L 389.328201 342.436378 
L 386.484162 342.894298 
L 383.871288 343.084032 
L 381.497637 343.033229 
L 379.367265 342.76919 
L 377.4806 342.318874 
L 375.834971 341.708371 
L 374.424874 340.962826 
L 373.242454 340.106049 
L 372.277888 339.160573 
L 371.519687 338.14743 
L 370.955073 337.085988 
L 370.570328 335.994065 
L 370.350967 334.887748 
L 370.282186 333.78143 
L 370.348878 332.687848 
L 370.8288 330.581779 
L 371.674043 328.639749 
L 372.77589 326.909088 
L 374.037035 325.417067 
L 375.37367 324.174255 
L 376.716412 323.177842 
L 378.625536 322.11489 
L 380.299268 321.504422 
L 381.668594 321.257681 
L 382.711828 321.282478 
L 383.441698 321.492914 
L 383.893282 321.8151 
L 384.113812 322.189851 
L 384.137112 322.696784 
L 383.89141 323.253718 
L 383.427958 323.740342 
L 382.773758 324.111249 
L 382.240583 324.18633 
L 382.177862 324.103167 
L 382.211979 324.058065 
L 382.310429 324.008057 
L 382.24144 324.092103 
L 382.24144 324.092103 
L 380.077496 326.93328 
L 371.900013 338.052252 
L 328.441975 397.520179 
L 314.726692 415.693382 
L 302.423395 431.523936 
L 293.195771 443.02585 
L 283.143736 455.114592 
L 277.819412 461.301869 
L 272.308068 467.52768 
L 266.624168 473.737939 
L 260.786796 479.867846 
L 254.82046 485.842234 
L 248.756294 491.573664 
L 242.632066 496.962432 
L 236.493976 501.901056 
L 230.395661 506.264256 
L 224.399795 509.925888 
L 218.577891 512.747712 
L 213.0101 514.591488 
L 207.784809 515.322432 
L 202.997035 514.809216 
L 198.748022 512.937792 
L 195.14102 509.620032 
L 192.28069 504.790272 
L 190.267872 498.42432 
L 189.196178 490.541184 
L 189.148167 481.204454 
L 190.190333 470.528006 
L 192.369479 458.672371 
L 195.708707 445.839725 
L 200.206009 432.266976 
L 205.831452 418.213325 
L 212.527988 403.948685 
L 220.213054 389.740032 
L 228.78159 375.83879 
L 238.109052 362.470118 
L 248.058035 349.82496 
L 258.4821 338.054964 
L 269.231993 327.270948 
L 280.160467 317.543846 
L 291.127109 308.908201 
L 302.000743 301.367174 
L 312.663655 294.898406 
L 323.01239 289.459699 
L 332.958561 284.99472 
L 342.429049 281.437978 
L 351.365999 278.718797 
L 359.725218 276.764083 
L 367.475912 275.501261 
L 374.598313 274.859654 
L 381.083041 274.771354 
L 386.929573 275.171558 
L 392.14492 275.999616 
L 396.742461 277.19833 
L 400.740917 278.713786 
L 404.163289 280.495872 
L 407.036275 282.498106 
L 409.389384 284.676941 
L 411.253751 286.991597 
L 412.662522 289.405267 
L 413.649847 291.883392 
L 414.250479 294.394694 
L 414.499168 296.911008 
L 414.430266 299.407104 
L 414.078124 301.860346 
L 413.476086 304.251552 
L 412.656295 306.563789 
L 411.649484 308.783163 
L 410.485586 310.898252 
L 409.192119 312.900054 
L 407.7952 314.78188 
L 406.319334 316.539084 
L 404.786821 318.168968 
L 401.631438 321.044135 
L 398.470109 323.416178 
L 395.41368 325.312 
L 392.545274 326.771004 
L 389.922967 327.840342 
L 387.583156 328.570957 
L 385.543963 329.014483 
L 383.80874 329.220962 
L 382.369313 329.237205 
L 380.726519 328.996616 
L 379.631081 328.545297 
L 378.98955 327.98031 
L 378.705968 327.374231 
L 378.690078 326.778106 
L 378.949214 326.053745 
L 379.515675 325.312654 
L 380.28826 324.679438 
L 381.268873 324.156669 
L 382.211386 323.900702 
L 382.521973 323.775115 
L 384.938792 320.719962 
L 392.595032 310.656228 
L 438.727506 249.56087 
L 448.218081 237.438259 
L 459.120241 223.876224 
L 467.202246 214.131168 
L 475.92787 203.966035 
L 485.256938 193.584557 
L 490.12406 188.401421 
L 495.107089 183.283603 
L 500.186541 178.285709 
L 505.339314 173.469254 
L 510.536481 168.904224 
L 515.744697 164.667686 
L 520.924589 160.843795 
L 526.031159 157.522406 
L 531.012983 154.798214 
L 535.813412 152.76816 
L 540.369773 151.529011 
L 544.614568 151.17408 
L 548.476084 151.789075 
L 551.879996 153.448646 
L 554.750571 156.2112 
L 557.013082 160.114406 
L 558.595414 165.171744 
L 559.431678 171.368352 
L 559.463818 178.658957 
L 558.645433 186.967699 
L 556.942774 196.187962 
L 554.338767 206.18617 
L 550.832808 216.805766 
L 546.442777 227.873434 
L 541.205232 239.206176 
L 535.174011 250.619098 
L 528.41902 261.93335 
L 521.024426 272.982182 
L 513.084845 283.61785 
L 504.702725 293.714899 
L 495.985136 303.172589 
L 487.039748 311.916321 
L 477.972628 319.896086 
L 468.884415 327.085154 
L 459.869322 333.476957 
L 451.012724 339.081967 
L 442.390151 343.924358 
L 434.066889 348.038381 
L 426.097778 351.465869 
L 418.527013 354.253478 
L 411.389345 356.450285 
L 404.710085 358.106573 
L 398.506207 359.272109 
L 392.787194 359.99545 
L 387.555997 360.323597 
L 382.809786 360.300787 
L 378.540845 359.969184 
L 374.737342 359.368704 
L 371.383992 358.535981 
L 368.462795 357.505747 
L 365.953463 356.309971 
L 363.834098 354.978202 
L 362.081541 353.538086 
L 360.671564 352.014336 
L 359.579781 350.430278 
L 358.781283 348.806477 
L 358.251362 347.161939 
L 357.965711 345.513254 
L 357.900224 343.875629 
L 358.031599 342.26185 
L 358.337539 340.68346 
L 358.796349 339.150119 
L 359.387539 337.669914 
L 360.091624 336.249533 
L 361.766963 333.60806 
L 363.690971 331.253453 
L 365.752281 329.196891 
L 367.85885 327.436284 
L 369.937315 325.959535 
L 371.93135 324.747472 
L 374.677882 323.372907 
L 377.060058 322.450513 
L 379.044491 321.889438 
L 381.08179 321.558267 
L 382.49349 321.548348 
L 383.38924 321.726833 
L 383.963809 322.072468 
L 384.129007 322.447135 
L 384.020959 322.850616 
L 383.620682 323.294121 
L 382.895644 323.71789 
L 382.485865 323.858833 
L 382.577767 323.736105 
L 385.684419 319.900044 
L 393.684907 309.605743 
L 435.379841 255.505536 
L 446.767728 241.253856 
L 456.699637 229.183085 
L 464.00504 220.57056 
L 471.845989 211.628333 
L 480.184518 202.523155 
L 488.949515 193.492109 
L 493.458065 189.100397 
L 498.026478 184.853318 
L 502.631652 180.804442 
L 507.24687 177.013037 
L 511.841398 173.54304 
L 516.379879 170.463398 
L 520.822542 167.84617 
L 525.12519 165.766003 
L 529.239414 164.297376 
L 533.112782 163.513901 
L 536.690053 163.484525 
L 539.912971 164.271456 
L 542.722077 165.92688 
L 545.05791 168.490022 
L 546.862214 171.983866 
L 548.079748 176.413248 
L 548.660894 181.761408 
L 548.56186 187.99033 
L 547.748898 195.039014 
L 546.197703 202.825382 
L 543.896422 211.247654 
L 540.84626 220.187462 
L 537.061882 229.514342 
L 532.571611 239.0904 
L 527.417231 248.775667 
L 521.652377 258.432595 
L 515.34133 267.931757 
L 508.55701 277.155648 
L 501.378965 286.001626 
L 493.890359 294.383981 
L 486.176366 302.235494 
L 478.320753 309.507126 
L 470.405478 316.166959 
L 462.507479 322.199009 
L 454.698068 327.601169 
L 447.041728 332.382943 
L 439.594906 336.563286 
L 432.407017 340.16836 
L 425.518842 343.22953 
L 418.963525 345.781958 
L 412.76698 347.86247 
L 406.94829 349.508909 
L 401.51999 350.759462 
L 396.489211 351.650938 
L 391.857883 352.21945 
L 387.623573 352.499386 
L 383.780159 352.523578 
L 380.318283 352.322438 
L 377.225964 351.924998 
L 374.489075 351.358214 
L 372.091773 350.64697 
L 370.016883 349.814419 
L 368.246287 348.881645 
L 366.761161 347.868518 
L 365.542322 346.792493 
L 364.570464 345.670157 
L 363.826264 344.515853 
L 363.290658 343.343059 
L 362.944963 342.163181 
L 362.771001 340.986845 
L 362.751174 339.82302 
L 362.868629 338.679636 
L 363.451784 336.480117 
L 364.401765 334.429914 
L 365.614156 332.556106 
L 366.999063 330.873621 
L 368.481055 329.387541 
L 370.754455 327.519452 
L 372.95387 326.055249 
L 374.977193 324.947364 
L 377.304991 323.929418 
L 379.563384 323.213801 
L 381.386868 322.88567 
L 382.56242 322.887949 
L 383.101757 323.077601 
L 383.190522 323.311556 
L 383.011913 323.546257 
L 382.634502 323.735595 
L 382.663495 323.67627 
L 384.028442 322.041623 
L 389.291641 315.478731 
L 401.192134 300.233434 
L 425.758693 268.704864 
L 437.198206 254.340173 
L 448.334793 240.711782 
L 457.940472 229.332038 
L 464.944756 221.306861 
L 472.40544 213.06119 
L 480.275918 204.764026 
L 488.477045 196.645363 
L 492.666196 192.743366 
L 496.890301 189.003283 
L 501.126458 185.474016 
L 505.349559 182.207578 
L 509.529871 179.260819 
L 513.634854 176.692838 
L 517.627947 174.565152 
L 521.468973 172.940141 
L 525.114744 171.879322 
L 528.519259 171.442138 
L 531.634104 171.683194 
L 534.409663 172.650528 
L 536.794912 174.382848 
L 538.740435 176.907629 
L 540.19802 180.238694 
L 541.12247 184.373971 
L 541.473608 189.29497 
L 541.217687 194.965402 
L 540.32819 201.331181 
L 538.787642 208.321632 
L 536.588608 215.850528 
L 533.734104 223.819891 
L 530.238591 232.121549 
L 526.127581 240.642144 
L 521.437234 249.266592 
L 516.213149 257.881882 
L 510.510166 266.380877 
L 504.389352 274.6656 
L 497.917601 282.649306 
L 491.164819 290.258726 
L 484.20272 297.434592 
L 477.102617 304.132147 
L 469.934013 310.320374 
L 462.762999 315.981389 
L 455.650842 321.108641 
L 448.65379 325.705591 
L 441.822263 329.783979 
L 435.199651 333.362114 
L 428.823318 336.463321 
L 422.723999 339.114574 
L 416.926602 341.345146 
L 411.449609 343.185638 
L 406.306277 344.667226 
L 401.505085 345.821011 
L 397.049888 346.677062 
L 392.940686 347.264928 
L 389.174086 347.612429 
L 385.743738 347.746176 
L 382.64087 347.691398 
L 379.85466 347.471251 
L 377.372667 347.108026 
L 375.181086 346.621766 
L 373.265193 346.031482 
L 371.60952 345.354106 
L 370.198158 344.605709 
L 369.014934 343.800634 
L 368.043619 342.952013 
L 367.268082 342.07177 
L 366.672412 341.170566 
L 366.241103 340.257802 
L 365.959027 339.341927 
L 365.811621 338.430355 
L 365.865638 336.644968 
L 366.299398 334.942854 
L 367.020517 333.352869 
L 367.948422 331.893539 
L 369.014271 330.57485 
L 370.748709 328.866013 
L 372.515871 327.469686 
L 374.747728 326.046609 
L 376.70916 325.045616 
L 379.027436 324.137317 
L 381.015805 323.625083 
L 382.284005 323.513369 
L 382.712564 323.653749 
L 382.617547 323.770468 
L 382.585883 323.774391 
L 382.602007 323.738478 
L 382.602007 323.738478 
L 383.479421 322.689459 
L 387.984836 317.086376 
L 398.309104 303.848928 
L 429.210012 264.083674 
L 441.694503 248.463245 
L 450.593086 237.620736 
L 460.611373 225.792058 
L 467.906732 217.485907 
L 475.663512 208.996762 
L 483.824262 200.519194 
L 488.02848 196.364045 
L 492.295372 192.315686 
L 496.606056 188.418701 
L 500.938836 184.722336 
L 505.268001 181.28016 
L 509.564222 178.150234 
L 513.794956 175.393728 
L 517.922839 173.074752 
L 521.907695 171.258451 
L 525.705131 170.010144 
L 529.267938 169.393075 
L 532.546099 169.466342 
L 535.488188 170.282477 
L 538.040971 171.884851 
L 540.15222 174.305952 
L 541.770911 177.563578 
L 542.849034 181.659974 
L 543.343198 186.579245 
L 543.216041 192.28752 
L 542.438033 198.731232 
L 540.988684 205.83936 
L 538.85795 213.524122 
L 536.047036 221.683738 
L 532.568598 230.205888 
L 528.447344 238.971686 
L 523.71903 247.86 
L 518.430462 256.750906 
L 512.637083 265.530874 
L 506.402371 274.095187 
L 499.795628 282.351398 
L 492.889776 290.221056 
L 485.75954 297.640742 
L 478.47985 304.562074 
L 471.123423 310.951958 
L 463.759966 316.790905 
L 456.454161 322.071794 
L 449.264867 326.798185 
L 442.245115 330.982451 
L 435.440908 334.643996 
L 428.891417 337.807532 
L 422.629183 340.501571 
L 416.679921 342.757094 
L 411.063317 344.606573 
L 405.793632 346.08263 
L 400.879102 347.217926 
L 396.324088 348.044602 
L 392.128488 348.593242 
L 388.288667 348.893395 
L 384.797935 348.972883 
L 381.647048 348.857971 
L 378.824608 348.573197 
L 376.317525 348.141542 
L 374.11132 347.58409 
L 372.190526 346.92071 
L 370.53893 346.169549 
L 369.139841 345.346675 
L 367.976304 344.467814 
L 367.031284 343.546099 
L 366.287928 342.594317 
L 365.729562 341.623181 
L 365.339895 340.64299 
L 365.103158 339.662246 
L 365.004104 338.688708 
L 365.161313 336.788945 
L 365.703146 334.986106 
L 366.533243 333.309583 
L 367.567694 331.777814 
L 368.735048 330.400253 
L 370.608113 328.62653 
L 372.493895 327.189888 
L 374.849956 325.743569 
L 376.897686 324.74479 
L 378.94383 323.973221 
L 380.894602 323.478642 
L 382.205684 323.356571 
L 382.790999 323.48945 
L 382.796465 323.646014 
L 382.61678 323.751222 
L 382.728493 323.590246 
L 382.728493 323.590246 
L 387.467791 317.764806 
L 397.166137 305.383392 
L 429.52901 263.844173 
L 441.978749 248.321894 
L 450.834945 237.574426 
L 460.78875 225.875002 
L 468.026055 217.676851 
L 475.71092 209.313677 
L 483.784488 200.979878 
L 487.939088 196.90249 
L 492.152345 192.935347 
L 496.405377 189.122342 
L 500.676286 185.511686 
L 504.939964 182.156083 
L 509.167283 179.112038 
L 513.325901 176.439514 
L 517.379057 174.200717 
L 521.287378 172.458893 
L 525.007274 171.277286 
L 528.492542 170.716723 
L 531.694569 170.834054 
L 534.562533 171.679392 
L 537.04561 173.294381 
L 539.092578 175.709261 
L 540.654219 178.940621 
L 541.68393 182.989325 
L 542.139927 187.839475 
L 541.986656 193.457203 
L 541.19559 199.790323 
L 539.747446 206.769197 
L 537.632783 214.308634 
L 534.853005 222.310138 
L 531.421171 230.665018 
L 527.361186 239.258189 
L 522.708403 247.97232 
L 517.507821 256.691635 
L 511.813676 265.306061 
L 505.687439 273.714336 
L 499.196403 281.826432 
L 492.41148 289.566144 
L 485.405188 296.871091 
L 478.250445 303.694272 
L 471.017961 310.002561 
L 463.775233 315.776275 
L 456.585738 321.007692 
L 449.507128 325.699466 
L 442.59083 329.862879 
L 435.882241 333.516096 
L 429.419731 336.682518 
L 423.235439 339.389378 
L 417.354878 341.666381 
L 411.797533 343.544717 
L 406.577867 345.056198 
L 401.704217 346.232275 
L 397.181283 347.104051 
L 393.009307 347.701421 
L 389.185074 348.053069 
L 385.702417 348.185952 
L 382.552549 348.12599 
L 379.72465 347.897203 
L 377.206138 347.521709 
L 374.983139 347.020589 
L 373.04069 346.412851 
L 371.363121 345.716294 
L 369.934282 344.947162 
L 368.73774 344.120314 
L 367.756983 343.249056 
L 366.97558 342.345485 
L 366.37736 341.420832 
L 365.946452 340.484481 
L 365.66749 339.545244 
L 365.525608 338.610707 
L 365.59672 336.781204 
L 366.053923 335.03817 
L 366.802824 333.411258 
L 367.761162 331.919338 
L 368.858589 330.572621 
L 370.639953 328.830123 
L 372.450826 327.409534 
L 374.732742 325.966637 
L 376.733005 324.957134 
L 378.750322 324.161032 
L 380.700252 323.625335 
L 382.135125 323.455111 
L 382.728865 323.573981 
L 382.705643 323.714654 
L 382.598512 323.764814 
L 382.662436 323.66516 
L 382.662436 323.66516 
L 390.314582 314.140879 
L 403.524491 297.135648 
L 425.171922 269.278733 
L 436.581103 254.890714 
L 447.719899 241.188883 
L 457.352296 229.70615 
L 464.39093 221.58265 
L 471.903039 213.210835 
L 479.844428 204.756768 
L 488.139566 196.448371 
L 492.385567 192.439066 
L 496.672949 188.58407 
L 500.979816 184.932115 
L 505.280456 181.536768 
L 509.545741 178.455398 
L 513.742727 175.748832 
L 517.834652 173.480486 
L 521.781141 171.714816 
L 525.537999 170.51593 
L 529.058822 169.946208 
L 532.293593 170.063366 
L 535.191488 170.918726 
L 537.700077 172.554624 
L 539.767534 175.00199 
L 541.34384 178.27776 
L 542.381586 182.38297 
L 542.838387 187.30103 
L 542.677884 192.99721 
L 541.87115 199.418285 
L 540.398699 206.493062 
L 538.25089 214.134106 
L 535.429732 222.241018 
L 531.94828 230.702342 
L 527.831245 239.401094 
L 523.114783 248.217178 
L 517.845098 257.033088 
L 512.077432 265.736851 
L 505.87486 274.225651 
L 499.305682 282.408422 
L 492.442014 290.208269 
L 485.358182 297.562637 
L 478.127707 304.424352 
L 470.822505 310.760755 
L 463.511478 316.552769 
L 456.257902 321.793396 
L 449.120635 326.486125 
L 442.151706 330.643175 
L 435.396112 334.28357 
L 428.893024 337.431675 
L 422.674381 340.115535 
L 416.765496 342.365702 
L 411.185853 344.213971 
L 405.949514 345.692794 
L 401.064736 346.834483 
L 396.535755 347.670144 
L 392.362534 348.230534 
L 388.541475 348.544339 
L 385.06605 348.639552 
L 381.927095 348.541747 
L 379.113413 348.27529 
L 376.612075 347.862816 
L 374.408803 347.325408 
L 372.48835 346.682419 
L 370.834686 345.951648 
L 369.431338 345.14951 
L 368.261554 344.29104 
L 367.308579 343.389542 
L 366.555681 342.457459 
L 365.986447 341.505504 
L 365.584768 340.54382 
L 365.335074 339.580823 
L 365.2223 338.624202 
L 365.350441 336.75556 
L 365.862082 334.979988 
L 366.661906 333.326794 
L 367.666929 331.814413 
L 368.806401 330.45249 
L 370.64158 328.695788 
L 372.49516 327.269428 
L 374.817835 325.828518 
L 376.842705 324.828308 
L 378.87302 324.049108 
L 380.819099 323.539334 
L 382.228393 323.400258 
L 382.773408 323.535291 
L 382.749504 323.684426 
L 382.609613 323.756421 
L 382.692598 323.631545 
L 382.692598 323.631545 
L 388.613108 316.313459 
L 399.328751 302.582304 
L 427.501327 266.373965 
L 439.467347 251.374234 
L 451.097495 237.206707 
L 461.102324 225.450605 
L 468.375787 217.216512 
L 476.098016 208.821888 
L 484.208144 200.46407 
L 488.380422 196.378906 
L 492.610352 192.40727 
L 496.878851 188.59392 
L 501.164023 184.987584 
L 505.439754 181.64183 
L 509.676916 178.61351 
L 513.842363 175.96345 
L 517.899537 173.754202 
L 521.807657 172.049702 
L 525.523134 170.91337 
L 528.999161 170.406202 
L 532.186524 170.58505 
L 535.034199 171.500026 
L 537.490961 173.191738 
L 539.505386 175.689907 
L 541.027855 179.009568 
L 542.012167 183.150547 
L 542.41674 188.095046 
L 542.206017 193.807469 
L 541.352277 200.23321 
L 539.837039 207.300902 
L 537.651464 214.923283 
L 534.798567 222.999955 
L 531.292005 231.420499 
L 527.157091 240.068794 
L 522.430385 248.82647 
L 517.158289 257.577581 
L 511.396047 266.211533 
L 505.206331 274.627757 
L 498.657241 282.736915 
L 491.820291 290.463667 
L 484.769001 297.747014 
L 477.57589 304.540819 
L 470.312471 310.813788 
L 463.046039 316.547257 
L 455.83987 321.734886 
L 448.751217 326.380424 
L 441.831303 330.496157 
L 435.125125 334.101128 
L 428.670248 337.219476 
L 422.498411 339.879007 
L 416.634723 342.109958 
L 411.098069 343.943712 
L 405.901705 345.412339 
L 401.05435 346.547808 
L 396.55974 347.380877 
L 392.417755 347.941613 
L 388.624759 348.258874 
L 385.174183 348.359789 
L 382.056948 348.269933 
L 379.261883 348.013152 
L 376.776154 347.612083 
L 374.585658 347.087117 
L 372.675209 346.457606 
L 371.028977 345.74135 
L 369.630651 344.954074 
L 368.463679 344.11081 
L 367.511408 343.224864 
L 366.757384 342.308333 
L 366.185298 341.37193 
L 365.77928 340.425452 
L 365.523881 339.477368 
L 365.404257 338.53521 
L 365.515866 336.693888 
L 366.008203 334.943078 
L 366.787115 333.31176 
L 367.770523 331.81825 
L 368.88848 330.472189 
L 370.693005 328.733873 
L 372.519105 327.320041 
L 374.811568 325.888255 
L 376.81412 324.890571 
L 378.826918 324.108445 
L 380.76375 323.588938 
L 382.177998 323.434225 
L 382.740195 323.553775 
L 382.726284 323.699568 
L 382.602877 323.76138 
L 382.67656 323.649175 
L 382.67656 323.649175 
L 389.138349 315.641422 
L 400.943243 300.483302 
L 427.568421 266.255424 
L 439.574818 251.198842 
L 448.146568 240.705907 
L 457.818538 229.200192 
L 464.880676 221.071334 
L 472.41247 212.705741 
L 480.36772 204.273101 
L 488.668283 196.005485 
L 492.912676 192.025382 
L 497.195639 188.205638 
L 501.494069 184.596019 
L 505.782455 181.250266 
L 510.030866 178.22592 
L 514.205956 175.584154 
L 518.270763 173.388211 
L 522.184307 171.702374 
L 525.902395 170.590406 
L 529.378021 170.113651 
L 532.561567 170.32896 
L 535.401608 171.286445 
L 537.846519 173.026541 
L 539.844471 175.578451 
L 541.346049 178.956691 
L 542.304649 183.160397 
L 542.678888 188.170387 
L 542.433212 193.94951 
L 541.5403 200.442643 
L 539.981672 207.576173 
L 537.749896 215.261798 
L 534.847581 223.397568 
L 531.289997 231.871853 
L 527.102854 240.567322 
L 522.323517 249.364915 
L 516.999594 258.147821 
L 511.186931 266.805792 
L 504.949004 275.237741 
L 498.354716 283.355021 
L 491.476183 291.082291 
L 484.387329 298.35959 
L 477.161274 305.141472 
L 469.86953 311.397385 
L 462.579595 317.109635 
L 455.354544 322.272679 
L 448.25203 326.891065 
L 441.322674 330.977802 
L 434.611274 334.55255 
L 428.155392 337.64002 
L 421.986167 340.268446 
L 416.128305 342.468346 
L 410.600489 344.271859 
L 405.415977 345.710765 
L 400.582463 346.817203 
L 396.103703 347.622451 
L 391.979234 348.156576 
L 388.205101 348.448435 
L 384.774452 348.524986 
L 381.677975 348.412147 
L 378.904257 348.133766 
L 376.440283 347.712307 
L 374.271703 347.168333 
L 372.38321 346.521197 
L 370.758794 345.788179 
L 369.382042 344.985696 
L 368.236243 344.128435 
L 367.304702 343.22953 
L 366.570787 342.301248 
L 366.018186 341.354131 
L 365.63095 340.398098 
L 365.39357 339.441443 
L 365.291161 338.491699 
L 365.43463 336.637935 
L 365.955351 334.877985 
L 366.759072 333.240411 
L 367.763833 331.743133 
L 368.89979 330.39538 
L 370.725447 328.657617 
L 372.566472 327.247033 
L 374.870787 325.822193 
L 376.87804 324.832889 
L 378.889833 324.061495 
L 380.818235 323.555303 
L 382.216525 323.414217 
L 382.76107 323.543832 
L 382.741852 323.688868 
L 382.606897 323.75828 
L 382.685648 323.639254 
L 382.685648 323.639254 
L 388.900949 315.946483 
L 400.204889 301.445971 
L 427.761868 266.030784 
L 439.802816 250.942752 
L 448.395258 240.435821 
L 458.085709 228.923885 
L 465.158292 220.797446 
L 472.697318 212.441702 
L 480.655782 204.028416 
L 488.953934 195.791731 
L 493.194912 191.832019 
L 497.471849 188.036467 
L 501.762444 184.454842 
L 506.040385 181.141056 
L 510.275739 178.152998 
L 514.434758 175.551494 
L 518.480482 173.399962 
L 522.371728 171.76199 
L 526.064103 170.701344 
L 529.510802 170.278848 
L 532.661806 170.55049 
L 535.466091 171.565517 
L 537.872031 173.363501 
L 539.8282 175.972262 
L 541.285584 179.405107 
L 542.198182 183.659789 
L 542.525014 188.71609 
L 542.231127 194.535648 
L 541.290406 201.061613 
L 539.684772 208.220371 
L 537.407797 215.922067 
L 534.463097 224.064749 
L 530.86614 232.536614 
L 526.644245 241.220851 
L 521.834977 249.998573 
L 516.486145 258.754176 
L 510.654197 267.378106 
L 504.403213 275.770483 
L 497.801493 283.844045 
L 490.921554 291.524832 
L 483.836516 298.75392 
L 476.619701 305.487245 
L 469.341819 311.694929 
L 462.070164 317.360333 
L 454.867008 322.478544 
L 447.789203 327.054655 
L 440.887167 331.102063 
L 434.204893 334.640678 
L 427.779345 337.695316 
L 421.641256 340.29428 
L 415.814932 342.468173 
L 410.318654 344.248531 
L 405.164877 345.667565 
L 400.361495 346.757069 
L 395.911842 347.548147 
L 391.815176 348.070522 
L 388.067458 348.35305 
L 384.661678 348.422342 
L 381.588411 348.304147 
L 378.836219 348.022138 
L 376.392011 347.598605 
L 374.24147 347.053939 
L 372.369309 346.407322 
L 370.759517 345.676032 
L 369.395742 344.876141 
L 368.261313 344.022163 
L 367.339615 343.127232 
L 366.614117 342.203443 
L 366.068547 341.261424 
L 365.687056 340.310644 
L 365.454236 339.35957 
L 365.355262 338.415564 
L 365.502688 336.573446 
L 366.024052 334.825039 
L 366.825764 333.19849 
L 367.826508 331.711442 
L 368.957 330.372968 
L 370.772815 328.647076 
L 372.603213 327.245892 
L 374.893748 325.829987 
L 376.889008 324.846081 
L 378.889271 324.077711 
L 380.80797 323.571416 
L 382.202129 323.426644 
L 382.749504 323.551054 
L 382.735183 323.692667 
L 382.6044 323.760065 
L 382.683844 323.640775 
L 382.683844 323.640775 
L 388.641332 316.272989 
L 399.444317 302.422637 
L 427.884204 265.863341 
L 439.964726 250.726752 
L 448.584687 240.188717 
L 458.305271 228.646195 
L 465.398343 220.501786 
L 472.95806 212.131526 
L 480.93601 203.709254 
L 489.251839 195.471533 
L 493.500049 191.515104 
L 497.783413 187.726118 
L 502.07883 184.154342 
L 506.359985 180.854381 
L 510.596745 177.884122 
L 514.754961 175.305082 
L 518.797269 173.180333 
L 522.682289 171.574502 
L 526.365624 170.550835 
L 529.799467 170.169984 
L 532.934199 170.488109 
L 535.718597 171.553766 
L 538.100632 173.406182 
L 540.02908 176.072141 
L 541.454725 179.564256 
L 542.331968 183.879072 
L 542.619829 188.995162 
L 542.284159 194.872608 
L 541.298843 201.453696 
L 539.647006 208.663085 
L 537.322222 216.410227 
L 534.329311 224.591616 
L 530.684544 233.095277 
L 526.415844 241.803187 
L 521.561579 250.596634 
L 516.170562 259.35984 
L 510.299844 267.983597 
L 504.013908 276.36889 
L 497.381653 284.428454 
L 490.4756 292.089888 
L 483.369671 299.294784 
L 476.136585 306.000115 
L 468.847453 312.176903 
L 461.569169 317.809526 
L 454.363804 322.893785 
L 447.288007 327.435489 
L 440.391997 331.44863 
L 433.718764 334.953585 
L 427.30567 337.975563 
L 421.182446 340.543146 
L 415.372996 342.68711 
L 409.8954 344.439302 
L 404.761711 345.831898 
L 399.979582 346.896691 
L 395.551885 347.664787 
L 391.477677 348.165907 
L 387.752619 348.428736 
L 384.369518 348.48023 
L 381.318728 348.345792 
L 378.588654 348.049094 
L 376.166081 347.612083 
L 374.036573 347.055494 
L 372.1847 346.398163 
L 370.594434 345.657542 
L 369.249321 344.849184 
L 368.132669 343.987949 
L 367.227785 343.08697 
L 366.518156 342.157824 
L 365.987492 341.211329 
L 365.619922 340.256903 
L 365.400058 339.302892 
L 365.313097 338.356621 
L 365.481756 336.511774 
L 366.020778 334.762572 
L 366.836893 333.1368 
L 367.849047 331.65174 
L 368.988277 330.316099 
L 370.812971 328.59553 
L 372.64807 327.200308 
L 374.940091 325.79242 
L 376.933182 324.815936 
L 378.92798 324.055457 
L 380.837393 323.557343 
L 382.219953 323.419452 
L 382.757593 323.547914 
L 382.73855 323.691006 
L 382.605842 323.758897 
L 382.685533 323.639133 
L 382.685533 323.639133 
L 388.667004 316.241902 
L 399.511672 302.338829 
L 428.051939 265.658227 
L 440.169623 250.483104 
L 448.813289 239.923814 
L 458.557174 228.365741 
L 465.664911 220.215802 
L 473.237083 211.846234 
L 481.224875 203.432602 
L 489.545726 195.213888 
L 493.794539 191.271802 
L 498.076899 187.500442 
L 502.369303 183.950266 
L 506.645034 180.675706 
L 510.87396 177.735168 
L 515.021931 175.189997 
L 519.050981 173.103782 
L 522.919528 171.540461 
L 526.582976 170.563277 
L 529.993718 170.23271 
L 533.101733 170.604058 
L 535.855798 171.725357 
L 538.204286 173.63497 
L 540.095772 176.35847 
L 541.481442 179.90761 
L 542.316099 184.277549 
L 542.559164 189.445306 
L 542.177291 195.370099 
L 541.144768 201.992832 
L 539.445524 209.236954 
L 537.074336 217.011226 
L 534.036227 225.211622 
L 530.348874 233.725478 
L 526.0404 242.435117 
L 521.150177 251.221824 
L 515.727622 259.970688 
L 509.830388 268.573018 
L 503.522756 276.930662 
L 496.874231 284.957741 
L 489.95753 292.582541 
L 482.845977 299.748211 
L 475.61269 306.412416 
L 468.327977 312.547576 
L 461.058532 318.138538 
L 453.866023 323.181987 
L 446.806498 327.684321 
L 439.929572 331.659948 
L 433.278234 335.129616 
L 426.888442 338.118745 
L 420.790328 340.656071 
L 415.006993 342.772301 
L 409.556114 344.499437 
L 404.449343 345.869568 
L 399.694111 346.914317 
L 395.292891 347.664787 
L 391.244576 348.150528 
L 387.544628 348.400051 
L 384.185655 348.440141 
L 381.157925 348.296026 
L 378.449725 347.991206 
L 376.047763 347.547974 
L 373.937539 346.986202 
L 372.103645 346.325069 
L 370.529991 345.581683 
L 369.200125 344.771597 
L 368.097415 343.90967 
L 367.205166 343.008518 
L 366.506907 342.080064 
L 365.986407 341.134952 
L 365.627816 340.18234 
L 365.415848 339.230575 
L 365.335696 338.286914 
L 365.515122 336.44808 
L 366.061496 334.705599 
L 366.882051 333.086844 
L 367.896233 331.608799 
L 369.035605 330.279915 
L 370.857787 328.568676 
L 372.688266 327.18149 
L 374.972493 325.782207 
L 376.957448 324.811934 
L 378.943067 324.056415 
L 380.842901 323.561485 
L 382.218346 323.424101 
L 382.75382 323.551029 
L 382.735856 323.692644 
L 382.6049 323.759516 
L 382.685105 323.639404 
L 382.685105 323.639404 
L 388.680885 316.223464 
L 399.558758 302.276102 
L 428.19376 265.474195 
L 440.350214 250.254144 
L 449.020195 239.667552 
L 458.791601 228.084941 
L 465.917618 219.921869 
L 473.507266 211.544006 
L 481.510526 203.128819 
L 489.844033 194.917709 
L 494.097466 190.983571 
L 498.38304 187.223443 
L 502.67685 183.688301 
L 506.95238 180.432576 
L 511.178895 177.515194 
L 515.321844 174.99767 
L 519.343261 172.943597 
L 523.201162 171.417082 
L 526.85095 170.48137 
L 530.244215 170.196595 
L 533.33154 170.617709 
L 536.061097 171.792403 
L 538.381061 173.75783 
L 540.240607 176.539392 
L 541.590922 180.14711 
L 542.386608 184.575283 
L 542.58809 189.799718 
L 542.162024 195.778253 
L 541.0837 202.450406 
L 539.33745 209.738592 
L 536.918654 217.550362 
L 533.833539 225.780998 
L 530.100184 234.317318 
L 525.747717 243.041126 
L 520.816314 251.834054 
L 515.355994 260.580845 
L 509.425012 269.173843 
L 503.088052 277.515245 
L 496.415019 285.520378 
L 489.478833 293.118394 
L 482.352816 300.253306 
L 475.110088 306.884074 
L 467.820956 312.983654 
L 460.551511 318.538068 
L 453.363221 323.544681 
L 446.311931 328.010515 
L 439.446455 331.950545 
L 432.809581 335.385896 
L 426.437065 338.342331 
L 420.358034 340.848778 
L 414.59559 342.936115 
L 409.166608 344.636467 
L 404.082937 345.981715 
L 399.351309 347.003654 
L 394.973994 347.733389 
L 390.949604 348.200294 
L 387.273359 348.432883 
L 383.937699 348.457766 
L 380.932723 348.3 
L 378.246575 347.983258 
L 375.865846 347.529485 
L 373.775971 346.958726 
L 371.961442 346.289645 
L 370.406129 345.53952 
L 369.093559 344.723904 
L 368.007039 343.857312 
L 367.129937 342.952531 
L 366.445699 342.021139 
L 365.938176 341.073919 
L 365.591517 340.119873 
L 365.390416 339.167295 
L 365.320189 338.223358 
L 365.516569 336.385354 
L 366.076401 334.645137 
L 366.907301 333.029699 
L 367.929097 331.555663 
L 369.073692 330.231203 
L 370.900113 328.526928 
L 372.731495 327.14655 
L 375.013452 325.75551 
L 377.434337 324.606772 
L 379.610832 323.850425 
L 381.408969 323.469043 
L 382.487981 323.445528 
L 382.781377 323.610981 
L 382.659959 323.745511 
L 382.60487 323.758203 
L 382.636087 323.700757 
L 382.636087 323.700757 
L 384.363773 321.621391 
L 390.180193 314.320228 
L 403.086171 297.720576 
L 426.229556 267.968736 
L 437.885819 253.311149 
L 449.241565 239.405069 
L 459.038081 227.803277 
L 466.179967 219.632083 
L 473.784079 211.251629 
L 481.799191 202.841453 
L 485.935913 198.698746 
L 490.140532 194.645549 
L 494.395974 190.72368 
L 498.681749 186.979277 
L 502.974153 183.463315 
L 507.246268 180.231091 
L 511.466756 177.341357 
L 515.601068 174.855802 
L 519.611034 172.838189 
L 523.454471 171.352627 
L 527.086382 170.461843 
L 530.458554 170.225971 
L 533.520769 170.699616 
L 536.222002 171.929261 
L 538.510026 173.951712 
L 540.334016 176.790989 
L 541.645762 180.456422 
L 542.400067 184.940582 
L 542.557758 190.218413 
L 542.086091 196.246368 
L 540.960762 202.962586 
L 539.167305 210.288442 
L 536.701503 218.130797 
L 533.570788 226.383898 
L 529.793441 234.934387 
L 525.399994 243.663898 
L 520.431026 252.454234 
L 514.937159 261.190656 
L 508.97705 269.766202 
L 502.615984 278.08393 
L 495.924269 286.060205 
L 488.974223 293.625043 
L 481.83997 300.723667 
L 474.593826 307.316074 
L 467.3059 313.376256 
L 460.04228 318.891012 
L 452.864034 323.858405 
L 445.826203 328.286097 
L 438.9772 332.189528 
L 432.359409 335.590163 
L 426.008186 338.514025 
L 419.952056 340.99018 
L 414.213718 343.049645 
L 408.809845 344.724422 
L 403.751686 346.046515 
L 399.04561 347.047718 
L 394.693766 347.758618 
L 390.694446 348.208934 
L 387.042709 348.426835 
L 383.730814 348.439104 
L 380.748697 348.270278 
L 378.084405 347.944205 
L 375.724447 347.482483 
L 373.654157 346.905158 
L 371.858029 346.23072 
L 370.319891 345.476448 
L 369.023271 344.657722 
L 367.951475 343.788883 
L 367.087872 342.88272 
L 366.415949 341.95081 
L 365.919574 341.003572 
L 365.58294 340.050131 
L 365.390818 339.098642 
L 365.328525 338.156208 
L 365.537942 336.32223 
L 366.107377 334.587024 
L 366.944906 332.977167 
L 367.97082 331.508955 
L 369.117463 330.190353 
L 370.943945 328.494424 
L 372.772816 327.121597 
L 375.049108 325.738973 
L 377.461516 324.598014 
L 379.628389 323.847541 
L 381.416996 323.469857 
L 382.489175 323.447467 
L 382.780067 323.612296 
L 382.654738 323.748146 
L 382.604514 323.758384 
L 382.632995 323.704719 
L 382.632995 323.704719 
L 384.106725 321.935455 
L 389.566927 315.099746 
L 402.215557 298.844986 
L 426.371779 267.786259 
L 438.065405 253.085818 
L 449.455301 239.145178 
L 459.278333 227.521094 
L 466.437496 219.339187 
L 474.057878 210.95303 
L 482.086851 202.54441 
L 486.229398 198.40585 
L 490.438839 194.359565 
L 494.697696 190.447546 
L 498.985278 186.716621 
L 503.278084 183.217939 
L 507.54819 180.006797 
L 511.764461 177.142464 
L 515.892344 174.686803 
L 519.892668 172.703578 
L 523.72365 171.256896 
L 527.339691 170.409658 
L 530.692579 170.221306 
L 533.732095 170.745926 
L 536.406611 172.030003 
L 538.664502 174.109133 
L 540.454946 177.00647 
L 541.729328 180.730138 
L 542.443658 185.271667 
L 542.55836 190.604621 
L 542.041697 196.68407 
L 540.870165 203.447117 
L 539.0293 210.813926 
L 536.516292 218.69015 
L 533.338973 226.96969 
L 529.516829 235.538323 
L 525.080796 244.277683 
L 520.072456 253.069747 
L 514.542832 261.800122 
L 508.551385 270.362189 
L 502.163602 278.660218 
L 495.449991 286.611091 
L 488.483473 294.146208 
L 481.337569 301.211482 
L 474.084997 307.768291 
L 466.795464 313.79127 
L 459.534656 319.268166 
L 452.36324 324.197799 
L 445.335855 328.588428 
L 438.500913 332.455968 
L 431.899795 335.822302 
L 425.567455 338.713695 
L 419.532216 341.15942 
L 413.816377 343.19065 
L 408.435806 344.839162 
L 403.401552 346.137408 
L 398.719984 347.116666 
L 394.392667 347.808038 
L 390.417714 348.240557 
L 386.789982 348.442733 
L 383.501516 348.440832 
L 380.542124 348.259738 
L 377.899716 347.922778 
L 375.560709 347.451725 
L 373.510367 346.866451 
L 371.733122 346.185274 
L 370.212762 345.425472 
L 368.932774 344.602253 
L 367.876487 343.729786 
L 367.027247 342.82103 
L 366.368581 341.887219 
L 365.88434 340.938703 
L 365.558794 339.984691 
L 365.376696 339.033185 
L 365.323403 338.091235 
L 365.548047 336.259434 
L 366.129253 334.52765 
L 366.9755 332.922044 
L 368.007501 331.458601 
L 369.158021 330.144993 
L 370.986953 328.456581 
L 372.815282 327.090822 
L 375.087858 325.716478 
L 377.493296 324.583675 
L 379.651249 323.839899 
L 381.430033 323.467142 
L 382.494121 323.447246 
L 382.780809 323.612536 
L 382.654744 323.748101 
L 382.604681 323.758172 
L 382.633375 323.704294 
L 382.633375 323.704294 
L 384.111404 321.929821 
L 389.589325 315.07151 
L 402.281626 298.760141 
L 426.520631 267.598426 
L 438.25142 252.856166 
L 449.674662 238.882694 
L 459.523407 227.238566 
L 466.699041 219.047674 
L 474.334289 210.658061 
L 482.375917 202.253587 
L 486.523286 198.120902 
L 490.736342 194.083085 
L 494.99761 190.182816 
L 499.286197 186.466925 
L 503.577797 182.987251 
L 507.844689 179.799091 
L 512.055536 176.962061 
L 516.175183 174.538022 
L 520.16466 172.590912 
L 523.98138 171.184838 
L 527.580145 170.382528 
L 530.912141 170.242906 
L 533.927149 170.819885 
L 536.573542 172.158912 
L 538.799694 174.295066 
L 540.554984 177.250291 
L 541.791199 181.031846 
L 542.464147 185.629709 
L 542.535259 191.016403 
L 541.972996 197.145619 
L 540.754458 203.953075 
L 538.866588 211.358074 
L 536.306573 219.265402 
L 533.083252 227.567923 
L 529.217116 236.151418 
L 524.739902 244.897344 
L 519.693596 253.687507 
L 514.130023 262.408378 
L 508.109047 270.953856 
L 501.696757 279.229075 
L 494.963661 287.151955 
L 487.98288 294.654758 
L 480.827936 301.684781 
L 473.571347 308.204024 
L 466.282416 314.188381 
L 459.026832 319.626311 
L 451.864656 324.517389 
L 444.849926 328.870437 
L 438.030854 332.701845 
L 431.448217 336.033844 
L 425.136367 338.892941 
L 419.123426 341.308512 
L 413.430888 343.311955 
L 408.074825 344.935066 
L 403.065681 346.209984 
L 398.409202 347.168333 
L 394.106975 347.840698 
L 390.156791 348.256627 
L 386.553285 348.44377 
L 383.288362 348.428736 
L 380.351675 348.23641 
L 377.731017 347.889773 
L 375.412741 347.410253 
L 373.382025 346.818067 
L 371.62322 346.131187 
L 370.120156 345.36672 
L 368.856259 344.539872 
L 367.814857 343.664813 
L 366.979337 342.754157 
L 366.333226 341.819309 
L 365.860395 340.870516 
L 365.545154 339.916694 
L 365.372317 338.965897 
L 365.3273 338.025105 
L 365.565624 336.196673 
L 366.157115 334.469313 
L 367.010654 332.86877 
L 368.047436 331.410753 
L 369.200608 330.102657 
L 371.030423 328.422246 
L 372.856945 327.06383 
L 375.124579 325.697791 
L 377.522102 324.572858 
L 379.670734 323.835221 
L 381.439931 323.466596 
L 382.496752 323.448336 
L 382.780302 323.613424 
L 382.654258 323.74836 
L 382.604532 323.758196 
L 382.633477 323.704108 
L 382.633477 323.704108 
L 384.177063 321.849642 
L 389.610056 315.045037 
L 402.344944 298.677888 
L 426.666068 267.412838 
L 438.434623 252.62807 
L 449.891613 238.620902 
L 459.766472 226.955693 
L 466.95898 218.754778 
L 474.609897 210.360672 
L 482.664783 201.959309 
L 486.817575 197.831635 
L 491.03485 193.801766 
L 495.29893 189.912557 
L 499.588722 186.211354 
L 503.87972 182.749824 
L 508.144201 179.583955 
L 512.350026 176.773536 
L 516.462039 174.380602 
L 520.44107 172.469261 
L 524.244532 171.103277 
L 527.826223 170.345376 
L 531.138131 170.25431 
L 534.129234 170.883302 
L 536.748107 172.277107 
L 538.943123 174.470285 
L 540.66366 177.483571 
L 541.861708 181.323187 
L 542.493677 185.977901 
L 542.521398 191.418682 
L 541.913937 197.598182 
L 540.648795 204.450912 
L 538.713316 211.895136 
L 536.106295 219.834259 
L 532.836973 228.161146 
L 528.926442 236.760538 
L 524.407446 245.514067 
L 519.322771 254.303712 
L 513.724648 263.016115 
L 507.673539 271.546214 
L 501.235938 279.799834 
L 494.482553 287.695584 
L 487.486706 295.167283 
L 480.321919 302.162918 
L 473.060308 308.645597 
L 465.771177 314.592077 
L 458.51961 319.991714 
L 451.36567 324.844755 
L 444.362993 329.160655 
L 437.558786 332.956241 
L 430.993626 336.254112 
L 424.701863 339.081034 
L 418.710416 341.466624 
L 413.04098 343.442074 
L 407.708621 345.03961 
L 402.723984 346.2912 
L 398.092194 347.228294 
L 393.814695 347.881478 
L 389.888998 348.280128 
L 386.309537 348.452237 
L 383.068015 348.423725 
L 380.153951 348.219475 
L 377.555046 347.862643 
L 375.257501 347.374483 
L 373.246471 346.774694 
L 371.506268 346.081594 
L 370.02066 345.312115 
L 368.773055 344.481293 
L 367.746799 343.603123 
L 366.92526 342.690221 
L 366.291986 341.75399 
L 365.830886 340.804247 
L 365.526311 339.850236 
L 365.363096 338.899766 
L 365.326677 337.959769 
L 365.579404 336.134068 
L 366.181883 334.410561 
L 367.043458 332.814649 
L 368.085663 331.361677 
L 369.242109 330.058783 
L 371.073633 328.386061 
L 372.899009 327.0348 
L 375.162384 325.67701 
L 377.552535 324.560059 
L 379.692108 323.828841 
L 381.45162 323.464778 
L 382.500733 323.44864 
L 382.780542 323.613918 
L 382.654069 323.748433 
L 382.604575 323.758075 
L 382.63085 323.707652 
L 382.63085 323.707652 
L 383.948625 322.128023 
L 389.047853 315.758771 
L 400.654659 300.861907 
L 426.814317 267.225005 
L 438.620236 252.397901 
L 450.110974 238.357901 
L 460.011746 226.672301 
L 467.220928 218.4624 
L 474.88691 210.064838 
L 482.954452 201.667795 
L 487.112065 197.545824 
L 491.333157 193.524595 
L 495.599647 189.647136 
L 499.890243 185.961139 
L 504.180236 182.51879 
L 508.441303 179.37625 
L 512.641704 176.593306 
L 516.745481 174.232339 
L 520.713464 172.357286 
L 524.502663 171.032256 
L 528.066877 170.319456 
L 531.357492 170.277638 
L 534.324088 170.959162 
L 536.914637 172.408262 
L 539.077712 174.658464 
L 540.762895 177.729984 
L 541.922575 181.627142 
L 542.513162 186.338189 
L 542.496891 191.832538 
L 541.843629 198.061459 
L 540.531682 204.958426 
L 538.548996 212.44032 
L 535.89497 220.410029 
L 532.579847 228.759552 
L 528.625524 237.373286 
L 524.065347 246.132691 
L 518.942907 254.92009 
L 513.311036 263.622816 
L 507.2308 272.135981 
L 500.768892 280.366445 
L 493.996424 288.234202 
L 486.986515 295.673587 
L 479.81289 302.633971 
L 472.547462 309.079342 
L 465.259134 314.987426 
L 458.01299 320.348356 
L 450.86809 325.163136 
L 443.878069 329.441748 
L 437.089731 333.201514 
L 430.543052 336.46536 
L 424.271578 339.260279 
L 418.302429 341.615923 
L 412.656295 343.563898 
L 407.348443 345.136205 
L 402.388515 346.36464 
L 397.781774 347.280826 
L 393.529204 347.915347 
L 389.628115 348.297408 
L 386.07274 348.454483 
L 382.85462 348.413011 
L 379.963135 348.19753 
L 377.385865 347.830848 
L 375.10893 347.334394 
L 373.117426 346.72752 
L 371.395603 346.028717 
L 369.927211 345.254573 
L 368.695635 344.420122 
L 367.684245 343.539187 
L 366.876386 342.624384 
L 366.255646 341.686944 
L 365.805977 340.736803 
L 365.511728 339.782878 
L 365.357793 338.833048 
L 365.32967 337.894105 
L 365.596178 336.071583 
L 366.209042 334.352327 
L 367.078029 332.76134 
L 368.125136 331.313639 
L 369.284375 330.016136 
L 371.116983 328.351294 
L 372.940732 327.007256 
L 375.199366 325.657707 
L 377.581803 324.548609 
L 379.712176 323.82358 
L 381.462116 323.463767 
L 382.50385 323.449426 
L 382.780323 323.614647 
L 382.649558 323.750549 
L 382.604502 323.758042 
L 382.628256 323.711146 
L 382.628256 323.711146 
L 383.800271 322.308101 
L 388.794001 316.08049 
L 399.89483 301.843066 
L 426.961763 267.03769 
L 438.805447 252.168077 
L 450.329732 238.094726 
L 460.256619 226.388563 
L 467.482473 218.169331 
L 475.163924 209.768141 
L 483.244121 201.374899 
L 487.406957 197.25863 
L 491.631865 193.246042 
L 495.900766 189.380333 
L 500.192366 185.709542 
L 504.481355 182.286202 
L 508.739409 179.166816 
L 512.934386 176.411347 
L 517.030128 174.082349 
L 520.987062 172.243757 
L 524.761999 170.95968 
L 528.308736 170.292154 
L 531.57846 170.299238 
L 534.520147 171.033466 
L 537.082572 172.537862 
L 539.213708 174.845434 
L 540.863536 177.974842 
L 541.984647 181.930061 
L 542.533853 186.69744 
L 542.473991 192.245357 
L 541.774928 198.523699 
L 540.416176 205.464902 
L 538.386283 212.98464 
L 535.68505 220.984762 
L 532.324127 229.356922 
L 528.326012 237.984998 
L 523.724655 246.750451 
L 518.564449 255.535776 
L 512.899031 264.228653 
L 506.789466 272.725056 
L 500.303252 280.932883 
L 493.511499 288.772646 
L 486.487529 296.179891 
L 479.304864 303.10537 
L 472.035419 309.513588 
L 464.747894 315.383501 
L 457.506773 320.705983 
L 450.370912 325.482712 
L 443.393546 329.724259 
L 436.620676 333.448393 
L 430.092277 336.678353 
L 423.841293 339.441391 
L 417.89404 341.767469 
L 412.271208 343.687795 
L 406.98726 345.234701 
L 402.052061 346.440326 
L 397.470169 347.335603 
L 393.242388 347.951462 
L 389.365786 348.316589 
L 385.834396 348.458976 
L 382.639606 348.404371 
L 379.770632 348.177485 
L 377.214936 347.800954 
L 374.958592 347.295859 
L 372.986593 346.682074 
L 371.283151 345.977222 
L 369.831973 345.19824 
L 368.616489 344.359987 
L 367.619983 343.476288 
L 366.825844 342.559584 
L 366.21772 341.620762 
L 365.779521 340.670033 
L 365.495677 339.716091 
L 365.351124 338.766745 
L 365.422637 336.907918 
L 365.88657 335.136787 
L 366.647061 333.483679 
L 367.620405 331.967998 
L 368.735088 330.600217 
L 370.544334 328.831488 
L 372.383089 327.390889 
L 374.698994 325.930107 
L 376.72726 324.910917 
L 378.770029 324.111087 
L 380.739165 323.579367 
L 382.178725 323.421241 
L 382.750215 323.544603 
L 382.739699 323.689266 
L 382.605581 323.759637 
L 382.688052 323.635935 
L 382.688052 323.635935 
L 388.551157 316.388039 
L 399.169332 302.779469 
L 427.110615 266.849165 
L 438.991864 251.937216 
L 450.549896 237.830688 
L 460.502697 226.104307 
L 467.745224 217.876262 
L 475.441741 209.471789 
L 483.534392 201.083386 
L 487.70205 196.973165 
L 491.930775 192.969389 
L 496.201885 189.115949 
L 500.494088 185.460883 
L 504.781872 182.057069 
L 509.03651 178.961357 
L 513.225662 176.233882 
L 517.312766 173.93737 
L 521.258451 172.135757 
L 525.018724 170.892979 
L 528.547583 170.271072 
L 531.795812 170.32775 
L 534.71259 171.114682 
L 537.246289 172.674893 
L 539.345084 175.039661 
L 540.959355 178.227302 
L 542.041496 182.240064 
L 542.548919 187.063603 
L 542.444863 192.66457 
L 541.700201 198.991987 
L 540.294242 205.976563 
L 538.217142 213.53328 
L 535.469104 221.563123 
L 532.062581 229.956883 
L 528.020875 238.598438 
L 523.378539 247.368902 
L 518.18117 256.15129 
L 512.482406 264.833453 
L 506.344316 273.31223 
L 499.834398 281.496384 
L 493.023964 289.307635 
L 485.986535 296.682394 
L 478.795633 303.572275 
L 471.522773 309.943238 
L 464.236453 315.774772 
L 457.001158 321.058668 
L 449.87494 325.79731 
L 442.91043 330.001793 
L 436.15363 333.690365 
L 429.643913 336.886577 
L 423.413419 339.617889 
L 417.488463 341.914349 
L 411.889134 343.807546 
L 406.629493 345.329395 
L 401.719042 346.512211 
L 397.162099 347.386925 
L 392.959147 347.984122 
L 389.107072 348.332832 
L 385.599667 348.460531 
L 382.428162 348.393139 
L 379.581644 348.155021 
L 377.047462 347.768813 
L 374.811588 347.255597 
L 372.858974 346.634726 
L 371.173792 345.924346 
L 369.739689 345.140698 
L 368.540114 344.298989 
L 367.558353 343.412525 
L 366.777794 342.49392 
L 366.182104 341.554061 
L 365.755234 340.602831 
L 365.481636 339.64901 
L 365.346263 338.700286 
L 365.433264 336.843948 
L 365.909108 335.076566 
L 366.678358 333.428072 
L 367.657749 331.917489 
L 368.776188 330.55503 
L 370.587624 328.794232 
L 372.425535 327.361046 
L 374.737302 325.908852 
L 376.759722 324.896545 
L 378.794616 324.102992 
L 380.754096 323.576538 
L 382.184603 323.42145 
L 382.750908 323.545412 
L 382.739249 323.689693 
L 382.605517 323.759599 
L 382.683103 323.641926 
L 382.683103 323.641926 
L 388.831706 316.032728 
L 400.007564 301.697395 
L 427.259267 266.660294 
L 439.17828 251.70601 
L 450.770262 237.566477 
L 460.748976 225.819878 
L 468.008176 217.582848 
L 475.719759 209.175264 
L 483.825066 200.791699 
L 487.997544 196.687526 
L 492.229885 192.692736 
L 496.503406 188.851565 
L 500.796011 185.212397 
L 505.082388 181.828282 
L 509.333612 178.756416 
L 513.516938 176.057107 
L 517.595605 173.793082 
L 521.529639 172.028794 
L 525.275248 170.827661 
L 528.786027 170.251546 
L 532.012763 170.35799 
L 534.90423 171.197971 
L 537.409002 172.813651 
L 539.475656 175.235962 
L 541.053769 178.481664 
L 542.096939 182.552314 
L 542.562579 187.431667 
L 542.414329 193.085683 
L 541.623666 199.461658 
L 540.170901 206.489606 
L 538.046394 214.082957 
L 535.251551 222.142176 
L 531.799428 230.557363 
L 527.714132 239.211878 
L 523.031418 247.987181 
L 517.796686 256.766112 
L 512.064977 265.437216 
L 505.898363 273.898368 
L 499.364942 282.058675 
L 492.536026 289.841242 
L 485.48554 297.183514 
L 478.286402 304.037798 
L 471.010328 310.371402 
L 463.725616 316.164609 
L 456.495944 321.410022 
L 449.379369 326.110666 
L 442.428117 330.278256 
L 435.687388 333.931386 
L 429.196152 337.093989 
L 422.986348 339.79373 
L 417.08369 342.060883 
L 411.507864 343.926778 
L 406.272529 345.423744 
L 401.386746 346.583923 
L 396.854692 347.438074 
L 392.676529 348.016954 
L 388.848921 348.349248 
L 385.365421 348.462259 
L 382.217137 348.38208 
L 379.392998 348.13273 
L 376.88027 347.737018 
L 374.664825 347.215507 
L 372.731536 346.587898 
L 371.064553 345.871814 
L 369.647505 345.083501 
L 368.46378 344.238163 
L 367.496723 343.349107 
L 366.729723 342.428602 
L 366.146428 341.487533 
L 365.730847 340.535854 
L 365.467474 339.582136 
L 365.341301 338.634017 
L 365.44377 336.780132 
L 365.931507 335.016467 
L 366.709515 333.372499 
L 367.694972 331.866996 
L 368.817188 330.509808 
L 370.630873 328.756873 
L 372.467981 327.331083 
L 374.77569 325.887443 
L 376.792305 324.881994 
L 378.819365 324.094713 
L 380.769208 323.573543 
L 382.190653 323.421535 
L 382.751721 323.546149 
L 382.738867 323.690083 
L 382.605479 323.75954 
L 382.683478 323.641473 
L 382.683478 323.641473 
L 388.850689 316.008691 
L 400.064253 301.624301 
L 427.408721 266.470733 
L 439.365702 251.473939 
L 450.991431 237.301402 
L 460.996058 225.534931 
L 468.271932 217.289434 
L 475.998379 208.879085 
L 484.116141 200.500531 
L 488.29324 196.402752 
L 492.529196 192.417466 
L 496.804726 188.588736 
L 501.097733 184.965638 
L 505.382704 181.601741 
L 509.630311 178.554067 
L 513.80741 175.88327 
L 517.877239 173.652422 
L 521.799421 171.925632 
L 525.530164 170.76649 
L 529.022463 170.236512 
L 532.227303 170.392896 
L 535.093258 171.286272 
L 537.568903 172.957766 
L 539.602813 175.437446 
L 541.144768 178.741382 
L 542.148766 182.869574 
L 542.572221 187.804742 
L 542.379778 193.511462 
L 541.543113 199.935648 
L 540.043142 207.006278 
L 537.871428 214.635744 
L 535.02978 222.723648 
L 531.532258 231.159398 
L 527.403772 239.826355 
L 522.680481 248.605632 
L 517.409189 257.380416 
L 511.644736 266.039942 
L 505.449999 274.482778 
L 498.893476 282.618893 
L 492.046682 290.372256 
L 484.98334 297.681523 
L 477.776368 304.500211 
L 470.497682 310.796179 
L 463.214778 316.550955 
L 455.991334 321.757851 
L 448.884802 326.420548 
L 441.94701 330.55128 
L 435.222752 334.16909 
L 428.750198 337.298204 
L 422.561286 339.96653 
L 416.681127 342.204307 
L 411.128803 344.043418 
L 405.917775 345.515674 
L 401.056821 346.653216 
L 396.549696 347.487149 
L 392.396342 348.047712 
L 388.593161 348.363763 
L 385.133545 348.462432 
L 382.008433 348.369638 
L 379.206621 348.109229 
L 376.715247 347.704013 
L 374.520151 347.174381 
L 372.606106 346.540032 
L 370.957203 345.818419 
L 369.557109 345.025613 
L 368.389153 344.176819 
L 367.43668 343.285171 
L 366.683119 342.362938 
L 366.112118 341.420832 
L 365.707746 340.468739 
L 365.454477 339.515176 
L 365.337384 338.567731 
L 365.4551 336.716404 
L 365.954568 334.956522 
L 366.741173 333.317186 
L 367.732536 331.816781 
L 368.858388 330.464915 
L 370.674163 328.719876 
L 372.510347 327.301448 
L 374.813898 325.866344 
L 376.824626 324.86772 
L 378.843852 324.08666 
L 380.784078 323.570708 
L 382.196527 323.421711 
L 382.752444 323.546929 
L 382.738443 323.690494 
L 382.605426 323.759492 
L 382.68384 323.64103 
L 382.68384 323.64103 
L 388.869632 315.984672 
L 400.121001 301.551034 
L 427.558578 266.280826 
L 439.553524 251.24135 
L 448.116235 240.761549 
L 457.777157 229.270694 
L 464.831058 221.15255 
L 472.353612 212.798016 
L 480.299019 204.37609 
L 488.589337 196.118323 
L 492.828708 192.142541 
L 497.106247 188.326598 
L 501.399655 184.719917 
L 505.683019 181.376237 
L 509.926609 178.353101 
L 514.097481 175.711162 
L 518.15827 173.513664 
L 522.0686 171.824544 
L 525.784077 170.707738 
L 529.257894 170.224243 
L 532.440436 170.430912 
L 535.28088 171.377683 
L 537.727196 173.105165 
L 539.727961 175.642387 
L 541.233757 179.004384 
L 542.198182 183.190118 
L 542.579453 188.180928 
L 542.342414 193.940006 
L 541.459747 200.412403 
L 539.912771 207.525197 
L 537.693649 215.190432 
L 534.805397 223.306502 
L 531.262476 231.76247 
L 527.090801 240.441178 
L 522.327534 249.223738 
L 517.019481 257.994029 
L 511.222687 266.641632 
L 505.000429 275.065632 
L 498.421007 283.17721 
L 491.556535 290.901197 
L 484.480537 298.177459 
L 477.266334 304.960205 
L 469.985036 311.218692 
L 462.704342 316.935072 
L 455.487326 322.103485 
L 448.391039 326.728305 
L 441.466705 330.8223 
L 434.75892 334.40491 
L 428.30545 337.500691 
L 422.137429 340.13774 
L 416.279768 342.346522 
L 410.750948 344.158675 
L 405.564427 345.606394 
L 400.728262 346.721645 
L 396.246046 347.53536 
L 392.11746 348.077779 
L 388.338666 348.377587 
L 384.902895 348.462086 
L 381.800894 348.356678 
L 379.02135 348.085382 
L 376.551289 347.670662 
L 374.376441 347.133254 
L 372.481561 346.491994 
L 370.850696 345.764851 
L 369.467457 344.967725 
L 368.315209 344.115475 
L 367.37728 343.221235 
L 366.637077 342.297274 
L 366.07831 341.354131 
L 365.685067 340.401692 
L 365.441862 339.44832 
L 365.333808 338.501549 
L 365.46669 336.652796 
L 365.977789 334.896716 
L 366.772933 333.261994 
L 367.770161 331.766686 
L 368.899629 330.420125 
L 370.717452 328.682949 
L 372.552692 327.271882 
L 374.852065 325.845262 
L 376.856928 324.853445 
L 378.868319 324.078585 
L 380.798961 323.567836 
L 382.202436 323.421849 
L 382.753202 323.547682 
L 382.738043 323.69089 
L 382.605384 323.759436 
L 382.684212 323.640581 
L 382.684212 323.640581 
L 388.888696 315.960515 
L 400.178031 301.477421 
L 427.709037 266.090054 
L 439.74195 251.008243 
L 445.347104 244.123546 
L 445.347104 244.123546 
" style="fill:none;stroke:#0000ff;stroke-linecap:square;"/>
   </g>
   <g id="patch_3">
    <path d="M 81 64.8 
L 583.2 64.8 
" style="fill:none;stroke:#000000;stroke-linecap:square;stroke-linejoin:miter;"/>
   </g>
   <g id="patch_4">
    <path d="M 583.2 583.2 
L 583.2 64.8 
" style="fill:none;stroke:#000000;stroke-linecap:square;stroke-linejoin:miter;"/>
   </g>
   <g id="patch_5">
    <path d="M 81 583.2 
L 81 64.8 
" style="fill:none;stroke:#000000;stroke-linecap:square;stroke-linejoin:miter;"/>
   </g>
   <g id="patch_6">
    <path d="M 81 583.2 
L 583.2 583.2 
" style="fill:none;stroke:#000000;stroke-linecap:square;stroke-linejoin:miter;"/>
   </g>
   <g id="matplotlib.axis_1">
    <g id="xtick_1">
     <g id="line2d_2">
      <path clip-path="url(#p4d2241cf97)" d="M 81 583.2 
L 81 64.8 
" style="fill:none;stroke:#000000;stroke-dasharray:1.000000,3.000000;stroke-dashoffset:0.0;stroke-width:0.5;"/>
     </g>
     <g id="line2d_3">
      <defs>
       <path d="M 0 0 
L 0 -4 
" id="m6660a2446a" style="stroke:#000000;stroke-width:0.5;"/>
      </defs>
      <g>
       <use style="stroke:#000000;stroke-width:0.5;" x="81.0" xlink:href="#m6660a2446a" y="583.2"/>
      </g>
     </g>
     <g id="line2d_4">
      <defs>
       <path d="M 0 0 
L 0 4 
" id="m270019092c" style="stroke:#000000;stroke-width:0.5;"/>
      </defs>
      <g>
       <use style="stroke:#000000;stroke-width:0.5;" x="81.0" xlink:href="#m270019092c" y="64.8"/>
      </g>
     </g>
     <g id="text_1">
      <!-- 15 -->
      <defs>
       <path d="M 12.40625 8.296875 
L 28.515625 8.296875 
L 28.515625 63.921875 
L 10.984375 60.40625 
L 10.984375 69.390625 
L 28.421875 72.90625 
L 38.28125 72.90625 
L 38.28125 8.296875 
L 54.390625 8.296875 
L 54.390625 0 
L 12.40625 0 
z
" id="BitstreamVeraSans-Roman-31"/>
       <path d="M 10.796875 72.90625 
L 49.515625 72.90625 
L 49.515625 64.59375 
L 19.828125 64.59375 
L 19.828125 46.734375 
Q 21.96875 47.46875 24.109375 47.828125 
Q 26.265625 48.1875 28.421875 48.1875 
Q 40.625 48.1875 47.75 41.5 
Q 54.890625 34.8125 54.890625 23.390625 
Q 54.890625 11.625 47.5625 5.09375 
Q 40.234375 -1.421875 26.90625 -1.421875 
Q 22.3125 -1.421875 17.546875 -0.640625 
Q 12.796875 0.140625 7.71875 1.703125 
L 7.71875 11.625 
Q 12.109375 9.234375 16.796875 8.0625 
Q 21.484375 6.890625 26.703125 6.890625 
Q 35.15625 6.890625 40.078125 11.328125 
Q 45.015625 15.765625 45.015625 23.390625 
Q 45.015625 31 40.078125 35.4375 
Q 35.15625 39.890625 26.703125 39.890625 
Q 22.75 39.890625 18.8125 39.015625 
Q 14.890625 38.140625 10.796875 36.28125 
z
" id="BitstreamVeraSans-Roman-35"/>
       <path d="M 10.59375 35.5 
L 73.1875 35.5 
L 73.1875 27.203125 
L 10.59375 27.203125 
z
" id="BitstreamVeraSans-Roman-2212"/>
      </defs>
      <g transform="translate(68.3371875 596.318125)scale(0.12 -0.12)">
       <use xlink:href="#BitstreamVeraSans-Roman-2212"/>
       <use x="83.7890625" xlink:href="#BitstreamVeraSans-Roman-31"/>
       <use x="147.412109375" xlink:href="#BitstreamVeraSans-Roman-35"/>
      </g>
     </g>
    </g>
    <g id="xtick_2">
     <g id="line2d_5">
      <path clip-path="url(#p4d2241cf97)" d="M 181.44 583.2 
L 181.44 64.8 
" style="fill:none;stroke:#000000;stroke-dasharray:1.000000,3.000000;stroke-dashoffset:0.0;stroke-width:0.5;"/>
     </g>
     <g id="line2d_6">
      <g>
       <use style="stroke:#000000;stroke-width:0.5;" x="181.44" xlink:href="#m6660a2446a" y="583.2"/>
      </g>
     </g>
     <g id="line2d_7">
      <g>
       <use style="stroke:#000000;stroke-width:0.5;" x="181.44" xlink:href="#m270019092c" y="64.8"/>
      </g>
     </g>
     <g id="text_2">
      <!-- 10 -->
      <defs>
       <path d="M 31.78125 66.40625 
Q 24.171875 66.40625 20.328125 58.90625 
Q 16.5 51.421875 16.5 36.375 
Q 16.5 21.390625 20.328125 13.890625 
Q 24.171875 6.390625 31.78125 6.390625 
Q 39.453125 6.390625 43.28125 13.890625 
Q 47.125 21.390625 47.125 36.375 
Q 47.125 51.421875 43.28125 58.90625 
Q 39.453125 66.40625 31.78125 66.40625 
M 31.78125 74.21875 
Q 44.046875 74.21875 50.515625 64.515625 
Q 56.984375 54.828125 56.984375 36.375 
Q 56.984375 17.96875 50.515625 8.265625 
Q 44.046875 -1.421875 31.78125 -1.421875 
Q 19.53125 -1.421875 13.0625 8.265625 
Q 6.59375 17.96875 6.59375 36.375 
Q 6.59375 54.828125 13.0625 64.515625 
Q 19.53125 74.21875 31.78125 74.21875 
" id="BitstreamVeraSans-Roman-30"/>
      </defs>
      <g transform="translate(168.7771875 596.318125)scale(0.12 -0.12)">
       <use xlink:href="#BitstreamVeraSans-Roman-2212"/>
       <use x="83.7890625" xlink:href="#BitstreamVeraSans-Roman-31"/>
       <use x="147.412109375" xlink:href="#BitstreamVeraSans-Roman-30"/>
      </g>
     </g>
    </g>
    <g id="xtick_3">
     <g id="line2d_8">
      <path clip-path="url(#p4d2241cf97)" d="M 281.88 583.2 
L 281.88 64.8 
" style="fill:none;stroke:#000000;stroke-dasharray:1.000000,3.000000;stroke-dashoffset:0.0;stroke-width:0.5;"/>
     </g>
     <g id="line2d_9">
      <g>
       <use style="stroke:#000000;stroke-width:0.5;" x="281.88" xlink:href="#m6660a2446a" y="583.2"/>
      </g>
     </g>
     <g id="line2d_10">
      <g>
       <use style="stroke:#000000;stroke-width:0.5;" x="281.88" xlink:href="#m270019092c" y="64.8"/>
      </g>
     </g>
     <g id="text_3">
      <!-- 5 -->
      <g transform="translate(273.0346875 596.318125)scale(0.12 -0.12)">
       <use xlink:href="#BitstreamVeraSans-Roman-2212"/>
       <use x="83.7890625" xlink:href="#BitstreamVeraSans-Roman-35"/>
      </g>
     </g>
    </g>
    <g id="xtick_4">
     <g id="line2d_11">
      <path clip-path="url(#p4d2241cf97)" d="M 382.32 583.2 
L 382.32 64.8 
" style="fill:none;stroke:#000000;stroke-dasharray:1.000000,3.000000;stroke-dashoffset:0.0;stroke-width:0.5;"/>
     </g>
     <g id="line2d_12">
      <g>
       <use style="stroke:#000000;stroke-width:0.5;" x="382.32" xlink:href="#m6660a2446a" y="583.2"/>
      </g>
     </g>
     <g id="line2d_13">
      <g>
       <use style="stroke:#000000;stroke-width:0.5;" x="382.32" xlink:href="#m270019092c" y="64.8"/>
      </g>
     </g>
     <g id="text_4">
      <!-- 0 -->
      <g transform="translate(378.5025 596.318125)scale(0.12 -0.12)">
       <use xlink:href="#BitstreamVeraSans-Roman-30"/>
      </g>
     </g>
    </g>
    <g id="xtick_5">
     <g id="line2d_14">
      <path clip-path="url(#p4d2241cf97)" d="M 482.76 583.2 
L 482.76 64.8 
" style="fill:none;stroke:#000000;stroke-dasharray:1.000000,3.000000;stroke-dashoffset:0.0;stroke-width:0.5;"/>
     </g>
     <g id="line2d_15">
      <g>
       <use style="stroke:#000000;stroke-width:0.5;" x="482.76" xlink:href="#m6660a2446a" y="583.2"/>
      </g>
     </g>
     <g id="line2d_16">
      <g>
       <use style="stroke:#000000;stroke-width:0.5;" x="482.76" xlink:href="#m270019092c" y="64.8"/>
      </g>
     </g>
     <g id="text_5">
      <!-- 5 -->
      <g transform="translate(478.9425 596.318125)scale(0.12 -0.12)">
       <use xlink:href="#BitstreamVeraSans-Roman-35"/>
      </g>
     </g>
    </g>
    <g id="xtick_6">
     <g id="line2d_17">
      <path clip-path="url(#p4d2241cf97)" d="M 583.2 583.2 
L 583.2 64.8 
" style="fill:none;stroke:#000000;stroke-dasharray:1.000000,3.000000;stroke-dashoffset:0.0;stroke-width:0.5;"/>
     </g>
     <g id="line2d_18">
      <g>
       <use style="stroke:#000000;stroke-width:0.5;" x="583.2" xlink:href="#m6660a2446a" y="583.2"/>
      </g>
     </g>
     <g id="line2d_19">
      <g>
       <use style="stroke:#000000;stroke-width:0.5;" x="583.2" xlink:href="#m270019092c" y="64.8"/>
      </g>
     </g>
     <g id="text_6">
      <!-- 10 -->
      <g transform="translate(575.565 596.318125)scale(0.12 -0.12)">
       <use xlink:href="#BitstreamVeraSans-Roman-31"/>
       <use x="63.623046875" xlink:href="#BitstreamVeraSans-Roman-30"/>
      </g>
     </g>
    </g>
    <g id="text_7">
     <!-- x -->
     <defs>
      <path d="M 54.890625 54.6875 
L 35.109375 28.078125 
L 55.90625 0 
L 45.3125 0 
L 29.390625 21.484375 
L 13.484375 0 
L 2.875 0 
L 24.125 28.609375 
L 4.6875 54.6875 
L 15.28125 54.6875 
L 29.78125 35.203125 
L 44.28125 54.6875 
z
" id="BitstreamVeraSans-Roman-78"/>
     </defs>
     <g transform="translate(326.773125 617.4909375)scale(0.18 -0.18)">
      <use xlink:href="#BitstreamVeraSans-Roman-78"/>
     </g>
    </g>
   </g>
   <g id="matplotlib.axis_2">
    <g id="ytick_1">
     <g id="line2d_20">
      <path clip-path="url(#p4d2241cf97)" d="M 81 583.2 
L 583.2 583.2 
" style="fill:none;stroke:#000000;stroke-dasharray:1.000000,3.000000;stroke-dashoffset:0.0;stroke-width:0.5;"/>
     </g>
     <g id="line2d_21">
      <defs>
       <path d="M 0 0 
L 4 0 
" id="m1a463f6939" style="stroke:#000000;stroke-width:0.5;"/>
      </defs>
      <g>
       <use style="stroke:#000000;stroke-width:0.5;" x="81.0" xlink:href="#m1a463f6939" y="583.2"/>
      </g>
     </g>
     <g id="line2d_22">
      <defs>
       <path d="M 0 0 
L -4 0 
" id="m2e76f436e5" style="stroke:#000000;stroke-width:0.5;"/>
      </defs>
      <g>
       <use style="stroke:#000000;stroke-width:0.5;" x="583.2" xlink:href="#m2e76f436e5" y="583.2"/>
      </g>
     </g>
     <g id="text_8">
      <!-- 15 -->
      <g transform="translate(51.674375 586.51125)scale(0.12 -0.12)">
       <use xlink:href="#BitstreamVeraSans-Roman-2212"/>
       <use x="83.7890625" xlink:href="#BitstreamVeraSans-Roman-31"/>
       <use x="147.412109375" xlink:href="#BitstreamVeraSans-Roman-35"/>
      </g>
     </g>
    </g>
    <g id="ytick_2">
     <g id="line2d_23">
      <path clip-path="url(#p4d2241cf97)" d="M 81 496.8 
L 583.2 496.8 
" style="fill:none;stroke:#000000;stroke-dasharray:1.000000,3.000000;stroke-dashoffset:0.0;stroke-width:0.5;"/>
     </g>
     <g id="line2d_24">
      <g>
       <use style="stroke:#000000;stroke-width:0.5;" x="81.0" xlink:href="#m1a463f6939" y="496.8"/>
      </g>
     </g>
     <g id="line2d_25">
      <g>
       <use style="stroke:#000000;stroke-width:0.5;" x="583.2" xlink:href="#m2e76f436e5" y="496.8"/>
      </g>
     </g>
     <g id="text_9">
      <!-- 10 -->
      <g transform="translate(51.674375 500.11125)scale(0.12 -0.12)">
       <use xlink:href="#BitstreamVeraSans-Roman-2212"/>
       <use x="83.7890625" xlink:href="#BitstreamVeraSans-Roman-31"/>
       <use x="147.412109375" xlink:href="#BitstreamVeraSans-Roman-30"/>
      </g>
     </g>
    </g>
    <g id="ytick_3">
     <g id="line2d_26">
      <path clip-path="url(#p4d2241cf97)" d="M 81 410.4 
L 583.2 410.4 
" style="fill:none;stroke:#000000;stroke-dasharray:1.000000,3.000000;stroke-dashoffset:0.0;stroke-width:0.5;"/>
     </g>
     <g id="line2d_27">
      <g>
       <use style="stroke:#000000;stroke-width:0.5;" x="81.0" xlink:href="#m1a463f6939" y="410.4"/>
      </g>
     </g>
     <g id="line2d_28">
      <g>
       <use style="stroke:#000000;stroke-width:0.5;" x="583.2" xlink:href="#m2e76f436e5" y="410.4"/>
      </g>
     </g>
     <g id="text_10">
      <!-- 5 -->
      <g transform="translate(59.309375 413.71125)scale(0.12 -0.12)">
       <use xlink:href="#BitstreamVeraSans-Roman-2212"/>
       <use x="83.7890625" xlink:href="#BitstreamVeraSans-Roman-35"/>
      </g>
     </g>
    </g>
    <g id="ytick_4">
     <g id="line2d_29">
      <path clip-path="url(#p4d2241cf97)" d="M 81 324 
L 583.2 324 
" style="fill:none;stroke:#000000;stroke-dasharray:1.000000,3.000000;stroke-dashoffset:0.0;stroke-width:0.5;"/>
     </g>
     <g id="line2d_30">
      <g>
       <use style="stroke:#000000;stroke-width:0.5;" x="81.0" xlink:href="#m1a463f6939" y="324.0"/>
      </g>
     </g>
     <g id="line2d_31">
      <g>
       <use style="stroke:#000000;stroke-width:0.5;" x="583.2" xlink:href="#m2e76f436e5" y="324.0"/>
      </g>
     </g>
     <g id="text_11">
      <!-- 0 -->
      <g transform="translate(69.365 327.31125)scale(0.12 -0.12)">
       <use xlink:href="#BitstreamVeraSans-Roman-30"/>
      </g>
     </g>
    </g>
    <g id="ytick_5">
     <g id="line2d_32">
      <path clip-path="url(#p4d2241cf97)" d="M 81 237.6 
L 583.2 237.6 
" style="fill:none;stroke:#000000;stroke-dasharray:1.000000,3.000000;stroke-dashoffset:0.0;stroke-width:0.5;"/>
     </g>
     <g id="line2d_33">
      <g>
       <use style="stroke:#000000;stroke-width:0.5;" x="81.0" xlink:href="#m1a463f6939" y="237.6"/>
      </g>
     </g>
     <g id="line2d_34">
      <g>
       <use style="stroke:#000000;stroke-width:0.5;" x="583.2" xlink:href="#m2e76f436e5" y="237.6"/>
      </g>
     </g>
     <g id="text_12">
      <!-- 5 -->
      <g transform="translate(69.365 240.91125)scale(0.12 -0.12)">
       <use xlink:href="#BitstreamVeraSans-Roman-35"/>
      </g>
     </g>
    </g>
    <g id="ytick_6">
     <g id="line2d_35">
      <path clip-path="url(#p4d2241cf97)" d="M 81 151.2 
L 583.2 151.2 
" style="fill:none;stroke:#000000;stroke-dasharray:1.000000,3.000000;stroke-dashoffset:0.0;stroke-width:0.5;"/>
     </g>
     <g id="line2d_36">
      <g>
       <use style="stroke:#000000;stroke-width:0.5;" x="81.0" xlink:href="#m1a463f6939" y="151.2"/>
      </g>
     </g>
     <g id="line2d_37">
      <g>
       <use style="stroke:#000000;stroke-width:0.5;" x="583.2" xlink:href="#m2e76f436e5" y="151.2"/>
      </g>
     </g>
     <g id="text_13">
      <!-- 10 -->
      <g transform="translate(61.73 154.51125)scale(0.12 -0.12)">
       <use xlink:href="#BitstreamVeraSans-Roman-31"/>
       <use x="63.623046875" xlink:href="#BitstreamVeraSans-Roman-30"/>
      </g>
     </g>
    </g>
    <g id="ytick_7">
     <g id="line2d_38">
      <path clip-path="url(#p4d2241cf97)" d="M 81 64.8 
L 583.2 64.8 
" style="fill:none;stroke:#000000;stroke-dasharray:1.000000,3.000000;stroke-dashoffset:0.0;stroke-width:0.5;"/>
     </g>
     <g id="line2d_39">
      <g>
       <use style="stroke:#000000;stroke-width:0.5;" x="81.0" xlink:href="#m1a463f6939" y="64.8"/>
      </g>
     </g>
     <g id="line2d_40">
      <g>
       <use style="stroke:#000000;stroke-width:0.5;" x="583.2" xlink:href="#m2e76f436e5" y="64.8"/>
      </g>
     </g>
     <g id="text_14">
      <!-- 15 -->
      <g transform="translate(61.73 68.11125)scale(0.12 -0.12)">
       <use xlink:href="#BitstreamVeraSans-Roman-31"/>
       <use x="63.623046875" xlink:href="#BitstreamVeraSans-Roman-35"/>
      </g>
     </g>
    </g>
    <g id="text_15">
     <!-- y -->
     <defs>
      <path d="M 32.171875 -5.078125 
Q 28.375 -14.84375 24.75 -17.8125 
Q 21.140625 -20.796875 15.09375 -20.796875 
L 7.90625 -20.796875 
L 7.90625 -13.28125 
L 13.1875 -13.28125 
Q 16.890625 -13.28125 18.9375 -11.515625 
Q 21 -9.765625 23.484375 -3.21875 
L 25.09375 0.875 
L 2.984375 54.6875 
L 12.5 54.6875 
L 29.59375 11.921875 
L 46.6875 54.6875 
L 56.203125 54.6875 
z
" id="BitstreamVeraSans-Roman-79"/>
     </defs>
     <g transform="translate(42.9309375 329.326875)rotate(-90.0)scale(0.18 -0.18)">
      <use xlink:href="#BitstreamVeraSans-Roman-79"/>
     </g>
    </g>
   </g>
   <g id="text_16">
    <!-- Data -->
    <defs>
     <path d="M 19.671875 64.796875 
L 19.671875 8.109375 
L 31.59375 8.109375 
Q 46.6875 8.109375 53.6875 14.9375 
Q 60.6875 21.78125 60.6875 36.53125 
Q 60.6875 51.171875 53.6875 57.984375 
Q 46.6875 64.796875 31.59375 64.796875 
z
M 9.8125 72.90625 
L 30.078125 72.90625 
Q 51.265625 72.90625 61.171875 64.09375 
Q 71.09375 55.28125 71.09375 36.53125 
Q 71.09375 17.671875 61.125 8.828125 
Q 51.171875 0 30.078125 0 
L 9.8125 0 
z
" id="BitstreamVeraSans-Roman-44"/>
     <path d="M 18.3125 70.21875 
L 18.3125 54.6875 
L 36.8125 54.6875 
L 36.8125 47.703125 
L 18.3125 47.703125 
L 18.3125 18.015625 
Q 18.3125 11.328125 20.140625 9.421875 
Q 21.96875 7.515625 27.59375 7.515625 
L 36.8125 7.515625 
L 36.8125 0 
L 27.59375 0 
Q 17.1875 0 13.234375 3.875 
Q 9.28125 7.765625 9.28125 18.015625 
L 9.28125 47.703125 
L 2.6875 47.703125 
L 2.6875 54.6875 
L 9.28125 54.6875 
L 9.28125 70.21875 
z
" id="BitstreamVeraSans-Roman-74"/>
     <path d="M 34.28125 27.484375 
Q 23.390625 27.484375 19.1875 25 
Q 14.984375 22.515625 14.984375 16.5 
Q 14.984375 11.71875 18.140625 8.90625 
Q 21.296875 6.109375 26.703125 6.109375 
Q 34.1875 6.109375 38.703125 11.40625 
Q 43.21875 16.703125 43.21875 25.484375 
L 43.21875 27.484375 
z
M 52.203125 31.203125 
L 52.203125 0 
L 43.21875 0 
L 43.21875 8.296875 
Q 40.140625 3.328125 35.546875 0.953125 
Q 30.953125 -1.421875 24.3125 -1.421875 
Q 15.921875 -1.421875 10.953125 3.296875 
Q 6 8.015625 6 15.921875 
Q 6 25.140625 12.171875 29.828125 
Q 18.359375 34.515625 30.609375 34.515625 
L 43.21875 34.515625 
L 43.21875 35.40625 
Q 43.21875 41.609375 39.140625 45 
Q 35.0625 48.390625 27.6875 48.390625 
Q 23 48.390625 18.546875 47.265625 
Q 14.109375 46.140625 10.015625 43.890625 
L 10.015625 52.203125 
Q 14.9375 54.109375 19.578125 55.046875 
Q 24.21875 56 28.609375 56 
Q 40.484375 56 46.34375 49.84375 
Q 52.203125 43.703125 52.203125 31.203125 
" id="BitstreamVeraSans-Roman-61"/>
    </defs>
    <g transform="translate(305.83578125 59.8)scale(0.22 -0.22)">
     <use xlink:href="#BitstreamVeraSans-Roman-44"/>
     <use x="77.001953125" xlink:href="#BitstreamVeraSans-Roman-61"/>
     <use x="138.28125" xlink:href="#BitstreamVeraSans-Roman-74"/>
     <use x="177.490234375" xlink:href="#BitstreamVeraSans-Roman-61"/>
    </g>
   </g>
   <g id="legend_1">
    <g id="patch_7">
     <path d="M 88.2 97.4565 
L 181.638 97.4565 
L 181.638 72 
L 88.2 72 
z
" style="fill:#ffffff;stroke:#000000;stroke-linejoin:miter;"/>
    </g>
    <g id="line2d_41">
     <path d="M 98.28 83.66175 
L 118.44 83.66175 
" style="fill:none;stroke:#0000ff;stroke-linecap:square;"/>
    </g>
    <g id="line2d_42"/>
    <g id="text_17">
     <!-- data1 -->
     <defs>
      <path d="M 45.40625 46.390625 
L 45.40625 75.984375 
L 54.390625 75.984375 
L 54.390625 0 
L 45.40625 0 
L 45.40625 8.203125 
Q 42.578125 3.328125 38.25 0.953125 
Q 33.9375 -1.421875 27.875 -1.421875 
Q 17.96875 -1.421875 11.734375 6.484375 
Q 5.515625 14.40625 5.515625 27.296875 
Q 5.515625 40.1875 11.734375 48.09375 
Q 17.96875 56 27.875 56 
Q 33.9375 56 38.25 53.625 
Q 42.578125 51.265625 45.40625 46.390625 
M 14.796875 27.296875 
Q 14.796875 17.390625 18.875 11.75 
Q 22.953125 6.109375 30.078125 6.109375 
Q 37.203125 6.109375 41.296875 11.75 
Q 45.40625 17.390625 45.40625 27.296875 
Q 45.40625 37.203125 41.296875 42.84375 
Q 37.203125 48.484375 30.078125 48.484375 
Q 22.953125 48.484375 18.875 42.84375 
Q 14.796875 37.203125 14.796875 27.296875 
" id="BitstreamVeraSans-Roman-64"/>
     </defs>
     <g transform="translate(134.28 88.70175)scale(0.144 -0.144)">
      <use xlink:href="#BitstreamVeraSans-Roman-64"/>
      <use x="63.4765625" xlink:href="#BitstreamVeraSans-Roman-61"/>
      <use x="124.755859375" xlink:href="#BitstreamVeraSans-Roman-74"/>
      <use x="163.96484375" xlink:href="#BitstreamVeraSans-Roman-61"/>
      <use x="225.244140625" xlink:href="#BitstreamVeraSans-Roman-31"/>
     </g>
    </g>
   </g>
  </g>
 </g>
 <defs>
  <clipPath id="p4d2241cf97">
   <rect height="518.4" width="502.2" x="81.0" y="64.8"/>
  </clipPath>
 </defs>
</svg>
