<?xml version="1.0" encoding="utf-8" standalone="no"?>
<!DOCTYPE svg PUBLIC "-//W3C//DTD SVG 1.1//EN"
  "http://www.w3.org/Graphics/SVG/1.1/DTD/svg11.dtd">
<!-- Created with matplotlib (http://matplotlib.org/) -->
<svg height="648pt" version="1.1" viewBox="0 0 648 648" width="648pt" xmlns="http://www.w3.org/2000/svg" xmlns:xlink="http://www.w3.org/1999/xlink">
 <defs>
  <style type="text/css">
*{stroke-linecap:butt;stroke-linejoin:round;stroke-miterlimit:100000;}
  </style>
 </defs>
 <g id="figure_1">
  <g id="patch_1">
   <path d="M 0 648 
L 648 648 
L 648 0 
L 0 0 
z
" style="fill:#ffffff;"/>
  </g>
  <g id="axes_1">
   <g id="patch_2">
    <path d="M 81 583.2 
L 583.2 583.2 
L 583.2 64.8 
L 81 64.8 
z
" style="fill:#ffffff;"/>
   </g>
   <g id="line2d_1">
    <path clip-path="url(#p0bf5a97320)" d="M 461.995034 104.566464 
L 453.617133 105.815808 
L 433.062288 109.352333 
L 410.122997 113.251738 
L 398.700659 115.016371 
L 387.747155 116.551872 
L 377.537308 117.827136 
L 360.209339 119.640499 
L 347.951642 120.775795 
L 343.902704 121.247539 
L 341.247673 121.736909 
L 339.94336 122.296781 
L 339.912223 122.960333 
L 341.0482 123.750374 
L 343.220516 124.668979 
L 346.281324 125.707853 
L 354.419375 128.061389 
L 364.132586 130.591181 
L 387.457426 136.512346 
L 391.046448 137.558477 
L 394.106654 138.569357 
L 396.603532 139.554317 
L 398.520631 140.525798 
L 399.858491 141.496243 
L 400.632884 142.472909 
L 400.873076 143.46409 
L 400.619706 144.473933 
L 399.922713 145.505549 
L 398.839146 146.557901 
L 397.430877 147.627878 
L 393.900029 149.807232 
L 380.354853 157.397645 
L 378.897607 158.447923 
L 377.647953 159.490944 
L 376.6178 160.527744 
L 375.812452 161.560397 
L 375.231226 162.589939 
L 374.867955 163.619482 
L 374.71171 164.649024 
L 374.747547 165.678566 
L 374.957246 166.711219 
L 375.320075 167.743872 
L 376.414329 169.814362 
L 377.842385 171.884851 
L 382.397658 178.051738 
L 383.568469 180.082829 
L 384.438039 182.104589 
L 384.985617 184.114944 
L 385.221973 186.119078 
L 385.182319 188.115955 
L 384.918724 190.106611 
L 384.238163 193.08119 
L 382.131707 200.929766 
L 381.62106 203.839027 
L 381.347893 206.730662 
L 381.295082 209.604672 
L 381.481127 213.410765 
L 382.61218 228.336538 
L 382.632051 233.811878 
L 382.327083 245.450995 
L 382.226463 255.066278 
L 382.319974 376.540877 
L 382.212168 521.700134 
L 381.989259 527.54665 
L 381.650995 531.015782 
L 381.19327 533.489587 
L 380.646202 535.316429 
L 379.985031 536.817715 
L 379.266463 538.003814 
L 378.319816 539.170214 
L 377.070744 540.313805 
L 375.877015 541.150502 
L 374.404545 541.959206 
L 372.586842 542.731622 
L 370.341405 543.451162 
L 367.565886 544.08983 
L 364.13353 544.611341 
L 359.887931 544.955558 
L 356.512143 545.04265 
L 352.623307 544.974221 
L 348.144687 544.700506 
L 342.990307 544.155149 
L 337.063946 543.250022 
L 330.259136 541.873152 
L 322.461376 539.876275 
L 318.152701 538.586496 
L 313.550339 537.066547 
L 308.639627 535.283251 
L 303.405899 533.201357 
L 297.836099 530.779392 
L 291.917773 527.972774 
L 285.641478 524.732774 
L 279.000184 521.005478 
L 271.991079 516.733862 
L 264.616373 511.856755 
L 256.884702 506.308838 
L 248.81234 500.02583 
L 240.425801 492.942413 
L 231.763252 484.999488 
L 222.876522 476.142106 
L 213.833909 466.32672 
L 204.721791 455.529485 
L 195.647037 443.74729 
L 186.73821 431.007091 
L 178.147577 417.373171 
L 170.046086 402.95232 
L 162.631606 387.899021 
L 156.115058 372.417523 
L 150.717413 356.76288 
L 146.667672 341.231616 
L 144.184795 326.15136 
L 143.467654 311.863219 
L 144.684986 298.703117 
L 147.95933 286.968614 
L 153.354967 276.905434 
L 160.867879 268.675315 
L 170.42575 262.350835 
L 181.887159 257.902963 
L 195.042187 255.213504 
L 209.631298 254.085466 
L 225.356586 254.265869 
L 241.897849 255.471667 
L 258.931067 257.413594 
L 276.142064 259.817933 
L 341.429872 269.815795 
L 355.839998 271.734912 
L 369.205609 273.294259 
L 381.446395 274.48969 
L 392.509759 275.338829 
L 402.367302 275.876928 
L 411.011088 276.150643 
L 418.450879 276.211814 
L 424.710099 276.117466 
L 433.842908 275.671642 
L 439.898837 275.044378 
L 440.146522 274.979059 
L 440.146522 274.979059 
L 440.146522 274.979059 
L 438.442658 275.175014 
L 431.604502 276.326899 
L 421.542624 278.331034 
L 410.193305 280.833869 
L 399.098221 283.498445 
L 389.328201 286.109107 
L 383.871288 287.773171 
L 379.367265 289.371917 
L 375.834971 290.916749 
L 373.242454 292.425293 
L 372.277888 293.170752 
L 371.519687 293.912064 
L 370.955073 294.652339 
L 370.570328 295.392614 
L 370.350967 296.133926 
L 370.282186 296.876275 
L 370.348878 297.620698 
L 370.8288 299.118874 
L 371.674043 300.627418 
L 372.77589 302.144256 
L 375.37367 305.194522 
L 378.625536 309.001651 
L 380.299268 311.27017 
L 381.668594 313.522099 
L 382.711828 315.758477 
L 383.441698 317.979302 
L 383.893282 320.185613 
L 384.113812 322.378445 
L 384.137112 325.282522 
L 383.89141 328.881254 
L 382.403548 344.990016 
L 382.215092 351.095731 
L 382.182716 360.376128 
L 382.310473 412.567603 
L 382.202249 469.415347 
L 381.979936 480.444826 
L 381.653261 486.550541 
L 381.198292 490.911322 
L 380.660348 494.018611 
L 379.960745 496.692518 
L 379.271767 498.573274 
L 378.365637 500.426035 
L 377.436426 501.884813 
L 376.273874 503.315597 
L 374.816409 504.710093 
L 373.483349 505.72512 
L 371.900013 506.704896 
L 370.017566 507.636979 
L 367.777554 508.504781 
L 365.110068 509.284454 
L 361.931684 509.942822 
L 358.14369 510.432192 
L 353.629113 510.685171 
L 350.14947 510.676877 
L 346.241148 510.485069 
L 341.854733 510.062054 
L 336.93719 509.35081 
L 331.432677 508.277722 
L 325.283137 506.754662 
L 318.432125 504.670694 
L 314.726692 503.377805 
L 310.826607 501.893107 
L 306.726847 500.196902 
L 302.423395 498.266381 
L 297.913438 496.077696 
L 293.195771 493.605965 
L 288.271399 490.82423 
L 283.143736 487.704499 
L 277.819412 484.218778 
L 272.308068 480.338035 
L 266.624168 476.035315 
L 260.786796 471.282624 
L 254.82046 466.056115 
L 248.756294 460.334016 
L 242.632066 454.101811 
L 236.493976 447.351206 
L 230.395661 440.081165 
L 224.399795 432.304128 
L 218.577891 424.043942 
L 213.0101 415.337933 
L 207.784809 406.243123 
L 202.997035 396.830016 
L 198.748022 387.190886 
L 195.14102 377.430451 
L 192.28069 367.67209 
L 190.267872 358.048512 
L 189.196178 348.699686 
L 189.148167 339.769728 
L 190.190333 331.393421 
L 192.369479 323.696218 
L 195.708707 316.781798 
L 200.206009 310.731034 
L 205.831452 305.59369 
L 212.527988 301.390502 
L 220.213054 298.10592 
L 228.78159 295.700544 
L 238.109052 294.105946 
L 248.058035 293.233997 
L 258.4821 292.986202 
L 269.231993 293.253696 
L 280.160467 293.930726 
L 291.127109 294.913613 
L 302.000743 296.109043 
L 323.01239 298.817165 
L 407.036275 310.57033 
L 411.253751 311.450573 
L 412.662522 311.881882 
L 413.649847 312.318374 
L 414.250479 312.767309 
L 414.499168 313.232832 
L 414.430266 313.720128 
L 414.078124 314.230234 
L 413.476086 314.765222 
L 411.649484 315.910886 
L 407.7952 317.800973 
L 393.951796 324.182477 
L 389.922967 326.378419 
L 386.525463 328.560883 
L 384.638637 330.004109 
L 383.052931 331.43593 
L 381.755557 332.857382 
L 380.726519 334.269504 
L 379.941038 335.673331 
L 379.371584 337.069901 
L 378.98955 338.46025 
L 378.705968 340.534886 
L 378.690078 342.598118 
L 378.949214 345.333197 
L 379.643515 349.402637 
L 381.081028 357.40777 
L 381.657285 361.992499 
L 382.062709 367.154726 
L 382.304015 373.491648 
L 382.398698 382.76375 
L 382.662689 460.294618 
L 382.967995 468.313229 
L 383.394375 473.925427 
L 383.944143 478.140019 
L 384.613507 481.446374 
L 385.315362 483.883891 
L 386.081177 485.885952 
L 387.064585 487.854835 
L 388.05191 489.402778 
L 389.26414 490.919616 
L 390.755755 492.396019 
L 392.595032 493.819546 
L 394.253236 494.839757 
L 396.198317 495.805018 
L 398.481861 496.698739 
L 401.164734 497.497075 
L 404.318369 498.165811 
L 408.026011 498.660365 
L 412.384504 498.918528 
L 415.705653 498.916454 
L 419.401243 498.738125 
L 423.509841 498.343104 
L 428.072429 497.681626 
L 433.130788 496.692518 
L 438.727506 495.304243 
L 444.902356 493.427635 
L 451.691096 490.961088 
L 455.324412 489.469133 
L 459.120241 487.782259 
L 463.079586 485.883878 
L 467.202246 483.754291 
L 471.486213 481.374835 
L 475.92787 478.725811 
L 480.520992 475.786483 
L 485.256938 472.535078 
L 490.12406 468.955008 
L 495.107089 465.024499 
L 500.186541 460.726963 
L 505.339314 456.049958 
L 510.536481 450.980006 
L 515.744697 445.51296 
L 520.924589 439.645709 
L 526.031159 433.38551 
L 531.012983 426.74688 
L 535.813412 419.752627 
L 540.369773 412.43593 
L 544.614568 404.843443 
L 548.476084 397.029082 
L 551.879996 389.06231 
L 554.750571 381.02089 
L 557.013082 372.990874 
L 558.595414 365.067648 
L 559.431678 357.348672 
L 559.463818 349.933478 
L 558.645433 342.917453 
L 556.942774 336.387686 
L 554.338767 330.422976 
L 550.832808 325.082419 
L 546.442777 320.410598 
L 541.205232 316.43136 
L 535.174011 313.147814 
L 528.41902 310.545446 
L 521.024426 308.590042 
L 513.084845 307.23287 
L 504.702725 306.414835 
L 495.985136 306.068544 
L 487.039748 306.123494 
L 477.972628 306.50711 
L 468.884415 307.149926 
L 459.869322 307.989734 
L 451.012724 308.9664 
L 434.066889 311.142643 
L 411.389345 314.448998 
L 387.555997 318.209472 
L 374.737342 320.437555 
L 368.462795 321.709709 
L 363.834098 322.871962 
L 360.671564 323.978227 
L 359.579781 324.522547 
L 358.781283 325.067904 
L 358.251362 325.616371 
L 357.965711 326.173133 
L 357.900224 326.738189 
L 358.031599 327.312576 
L 358.337539 327.899405 
L 359.387539 329.108314 
L 360.890322 330.363878 
L 363.690971 332.32032 
L 371.93135 337.799808 
L 374.677882 339.887923 
L 377.060058 341.970854 
L 379.044491 344.043418 
L 380.634844 346.102502 
L 381.859475 348.144998 
L 382.761145 350.174016 
L 383.38924 352.188518 
L 383.79415 354.190579 
L 384.068478 356.84064 
L 384.119891 360.123149 
L 383.902412 364.666406 
L 382.870873 381.004301 
L 382.625145 390.052454 
L 382.500294 403.977715 
L 382.525462 428.866099 
L 382.729536 446.325811 
L 383.037913 455.764838 
L 383.451971 462.149453 
L 383.993537 467.036928 
L 384.582833 470.519539 
L 385.300336 473.513818 
L 386.125069 476.037389 
L 387.010468 478.105805 
L 388.130695 480.136896 
L 389.240698 481.729421 
L 390.587618 483.283584 
L 392.225614 484.789018 
L 394.221758 486.231206 
L 396.003062 487.255565 
L 398.074014 488.215642 
L 400.48361 489.092774 
L 403.28906 489.85897 
L 406.556172 490.480013 
L 410.361442 490.908211 
L 413.23965 491.0544 
L 416.423398 491.061658 
L 419.943418 490.899917 
L 423.831249 490.533926 
L 428.120238 489.919104 
L 432.844333 489.00361 
L 438.036278 487.726272 
L 443.727007 486.012442 
L 449.942034 483.776064 
L 456.699637 480.920717 
L 460.284139 479.225549 
L 464.00504 477.334426 
L 467.860329 475.229722 
L 471.845989 472.896922 
L 475.956596 470.320474 
L 480.184518 467.483789 
L 484.519709 464.371315 
L 488.949515 460.969574 
L 493.458065 457.265088 
L 498.026478 453.246451 
L 502.631652 448.904333 
L 507.24687 444.234586 
L 511.841398 439.235136 
L 516.379879 433.910131 
L 520.822542 428.267866 
L 525.12519 422.324928 
L 529.239414 416.105165 
L 533.112782 409.638643 
L 536.690053 402.964762 
L 539.912971 396.131213 
L 542.722077 389.193984 
L 545.05791 382.21632 
L 546.862214 375.26665 
L 548.079748 368.418586 
L 548.660894 361.748851 
L 548.56186 355.332096 
L 547.748898 349.241933 
L 546.197703 343.544717 
L 543.896422 338.300582 
L 540.84626 333.556186 
L 537.061882 329.346778 
L 532.571611 325.695168 
L 527.417231 322.607578 
L 521.652377 320.075712 
L 515.34133 318.080909 
L 508.55701 316.58999 
L 501.378965 315.564595 
L 493.890359 314.955994 
L 486.176366 314.713382 
L 478.320753 314.781811 
L 470.405478 315.110477 
L 462.507479 315.648576 
L 454.698068 316.347379 
L 439.594906 318.068467 
L 425.518842 319.997952 
L 412.76698 321.950246 
L 396.489211 324.692582 
L 383.780159 327.103142 
L 377.225964 328.536 
L 372.091773 329.862067 
L 368.246287 331.112448 
L 365.542322 332.318246 
L 364.570464 332.91337 
L 363.826264 333.506419 
L 363.290658 334.099469 
L 362.944963 334.695629 
L 362.771001 335.294899 
L 362.751174 335.898317 
L 362.868629 336.507955 
L 363.451784 337.745894 
L 364.401765 339.00768 
L 366.290077 340.943386 
L 370.754455 344.923661 
L 373.651566 347.61623 
L 376.197901 350.31191 
L 377.814704 352.326413 
L 379.168936 354.331584 
L 380.270924 356.324314 
L 381.142676 358.305638 
L 381.812382 360.273485 
L 382.443814 362.878963 
L 382.840779 365.462669 
L 383.101757 368.66327 
L 383.197361 373.090406 
L 383.0615 380.536704 
L 382.706569 397.814976 
L 382.63366 414.664013 
L 382.760544 433.083802 
L 383.04352 444.988339 
L 383.429948 452.608819 
L 383.921433 458.162957 
L 384.479199 462.236544 
L 385.182419 465.789658 
L 386.027743 468.84096 
L 386.988532 471.408077 
L 388.010247 473.508634 
L 389.291641 475.564608 
L 390.551399 477.168538 
L 392.069229 478.727885 
L 393.901957 480.228134 
L 395.524485 481.302259 
L 397.398073 482.320397 
L 399.563439 483.264922 
L 402.06779 484.117171 
L 404.965604 484.848115 
L 408.319497 485.419392 
L 412.200498 485.782272 
L 415.119686 485.875584 
L 418.334168 485.822707 
L 421.871062 485.592538 
L 425.758693 485.149824 
L 430.025384 484.452058 
L 434.699661 483.449472 
L 439.80824 482.080896 
L 445.374424 480.278938 
L 451.415689 477.9648 
L 457.940472 475.047245 
L 461.383556 473.332378 
L 464.944756 471.430886 
L 468.620258 469.327219 
L 472.40544 467.008934 
L 476.293673 464.46359 
L 480.275918 461.677709 
L 484.341528 458.639885 
L 488.477045 455.337677 
L 492.666196 451.76279 
L 496.890301 447.906931 
L 501.126458 443.765952 
L 505.349559 439.335706 
L 509.529871 434.620339 
L 513.634854 429.626074 
L 517.627947 424.36224 
L 521.468973 418.848538 
L 525.114744 413.105702 
L 528.519259 407.165875 
L 531.634104 401.06327 
L 534.409663 394.841434 
L 536.794912 388.550131 
L 538.740435 382.244314 
L 540.19802 375.981005 
L 541.12247 369.82345 
L 541.473608 363.834893 
L 541.217687 358.077542 
L 540.32819 352.611533 
L 538.787642 347.489741 
L 536.588608 342.76297 
L 533.734104 338.467507 
L 530.238591 334.633421 
L 526.127581 331.279373 
L 521.437234 328.40951 
L 516.213149 326.02176 
L 510.510166 324.098496 
L 504.389352 322.617946 
L 497.917601 321.547968 
L 491.164819 320.851238 
L 484.20272 320.486285 
L 477.102617 320.410598 
L 469.934013 320.580634 
L 462.762999 320.955955 
L 455.650842 321.495091 
L 448.65379 322.161754 
L 435.199651 323.756352 
L 422.723999 325.528243 
L 411.449609 327.333312 
L 401.505085 329.084467 
L 392.940686 330.7392 
L 385.743738 332.284032 
L 379.85466 333.727258 
L 375.181086 335.087539 
L 371.60952 336.385613 
L 369.014934 337.643251 
L 367.268082 338.879117 
L 366.672412 339.493939 
L 366.241103 340.108762 
L 365.959027 340.724621 
L 365.811621 341.341517 
L 365.865638 342.58464 
L 366.299398 343.841242 
L 367.020517 345.112358 
L 368.467958 347.043917 
L 371.34016 350.313984 
L 374.747728 354.275597 
L 376.70916 356.914253 
L 378.339362 359.541504 
L 379.634194 362.152166 
L 380.622662 364.742093 
L 381.349818 367.31232 
L 381.865384 369.861811 
L 382.284005 373.018867 
L 382.557468 376.766899 
L 382.702259 382.303411 
L 382.674129 392.495155 
L 382.590451 417.316147 
L 382.743594 436.561229 
L 383.034004 447.823987 
L 383.444414 455.356339 
L 383.917625 460.392077 
L 384.497178 464.426266 
L 385.232599 467.943091 
L 385.977362 470.535091 
L 386.948556 473.083546 
L 387.984836 475.166477 
L 389.003117 476.802547 
L 390.22957 478.403366 
L 391.710095 479.96064 
L 393.501222 481.461926 
L 395.08964 482.539162 
L 396.926547 483.561446 
L 399.052762 484.515302 
L 401.515651 485.379994 
L 404.369995 486.127526 
L 407.679091 486.720576 
L 411.514895 487.112486 
L 415.958561 487.236902 
L 419.303012 487.128038 
L 422.985946 486.831514 
L 427.037093 486.305856 
L 431.486384 485.506483 
L 436.363148 484.377408 
L 441.694503 482.855386 
L 447.503752 480.865766 
L 453.807366 478.321459 
L 460.611373 475.127078 
L 464.198889 473.254618 
L 467.906732 471.178944 
L 471.730282 468.887616 
L 475.663512 466.366118 
L 479.698388 463.600973 
L 483.824262 460.578701 
L 488.02848 457.287898 
L 492.295372 453.717158 
L 496.606056 449.857152 
L 500.938836 445.703731 
L 505.268001 441.250675 
L 509.564222 436.501094 
L 513.794956 431.459136 
L 517.922839 426.134131 
L 521.907695 420.542669 
L 525.705131 414.707558 
L 529.267938 408.656794 
L 532.546099 402.426662 
L 535.488188 396.061747 
L 538.040971 389.610778 
L 540.15222 383.130778 
L 541.770911 376.680845 
L 542.849034 370.327334 
L 543.343198 364.135565 
L 543.216041 358.171891 
L 542.438033 352.499558 
L 540.988684 347.177664 
L 538.85795 342.257011 
L 536.047036 337.781146 
L 532.568598 333.781171 
L 528.447344 330.277824 
L 523.71903 327.280435 
L 518.430462 324.783821 
L 512.637083 322.773466 
L 506.402371 321.225523 
L 499.795628 320.107853 
L 492.889776 319.380019 
L 485.75954 318.999514 
L 478.47985 318.920717 
L 471.123423 319.09801 
L 463.759966 319.487846 
L 456.454161 320.047718 
L 449.264867 320.738227 
L 435.440908 322.382592 
L 422.629183 324.199066 
L 411.063317 326.039386 
L 396.324088 328.659379 
L 388.288667 330.263309 
L 381.647048 331.751117 
L 376.317525 333.139392 
L 372.190526 334.451981 
L 369.139841 335.713766 
L 367.031284 336.944448 
L 366.287928 337.555123 
L 365.729562 338.164762 
L 365.339895 338.775437 
L 365.103158 339.387149 
L 365.004104 340.001971 
L 365.161313 341.240947 
L 365.703146 342.496512 
L 366.533243 343.769702 
L 368.138756 345.707482 
L 375.917593 354.301517 
L 377.785696 356.94743 
L 378.94383 358.922534 
L 380.178298 361.538381 
L 381.09775 364.134528 
L 381.755328 366.709939 
L 382.291914 369.899136 
L 382.641569 373.683456 
L 382.803251 378.041126 
L 382.808492 385.372339 
L 382.617987 416.265869 
L 382.765126 435.081715 
L 383.054576 446.410829 
L 383.461908 453.987763 
L 383.982654 459.508723 
L 384.576264 463.557427 
L 385.327595 467.086694 
L 386.086841 469.688026 
L 387.07503 472.243738 
L 388.127662 474.333926 
L 389.160526 475.973107 
L 390.402949 477.578074 
L 391.900891 479.137421 
L 393.71072 480.639744 
L 395.313943 481.715942 
L 397.166137 482.73719 
L 399.307919 483.688973 
L 401.786357 484.54848 
L 404.655847 485.289792 
L 407.978804 485.874547 
L 411.82646 486.255053 
L 414.722346 486.36288 
L 417.912722 486.326592 
L 421.424707 486.117158 
L 425.287228 485.698291 
L 429.52901 485.028518 
L 434.17898 484.057037 
L 439.264659 482.724749 
L 444.810554 480.964262 
L 450.834945 478.695744 
L 457.34868 475.830029 
L 460.78875 474.143155 
L 464.348946 472.268621 
L 468.026055 470.193984 
L 471.815455 467.905766 
L 475.71092 465.389453 
L 479.704013 462.633638 
L 483.784488 459.624845 
L 487.939088 456.35063 
L 492.152345 452.802701 
L 496.405377 448.970688 
L 500.676286 444.850445 
L 504.939964 440.438861 
L 509.167283 435.736973 
L 513.325901 430.749965 
L 517.379057 425.488205 
L 521.287378 419.968282 
L 525.007274 414.211968 
L 528.492542 408.248294 
L 531.694569 402.113549 
L 534.562533 395.849203 
L 537.04561 389.505024 
L 539.092578 383.134925 
L 540.654219 376.798003 
L 541.68393 370.558541 
L 542.139927 364.478746 
L 541.986656 358.623936 
L 541.19559 353.054246 
L 539.747446 347.827738 
L 537.632783 342.994176 
L 534.853005 338.59296 
L 531.421171 334.657267 
L 527.361186 331.204723 
L 522.708403 328.244659 
L 517.507821 325.773965 
L 511.813676 323.778125 
L 505.687439 322.23433 
L 499.196403 321.110438 
L 492.41148 320.370163 
L 485.405188 319.970995 
L 478.250445 319.869389 
L 471.017961 320.021798 
L 463.775233 320.384678 
L 456.585738 320.917594 
L 449.507128 321.583219 
L 435.882241 323.181965 
L 423.235439 324.966298 
L 411.797533 326.784845 
L 397.181283 329.393434 
L 389.185074 330.999437 
L 382.552549 332.495539 
L 377.206138 333.895219 
L 373.04069 335.219213 
L 369.934282 336.491366 
L 367.756983 337.732416 
L 366.97558 338.347238 
L 366.37736 338.959987 
L 365.946452 339.572736 
L 365.66749 340.186522 
L 365.525608 340.803418 
L 365.59672 342.044467 
L 366.053923 343.300032 
L 366.802824 344.570112 
L 368.296427 346.503744 
L 371.24645 349.777958 
L 374.732742 353.745792 
L 376.733005 356.390669 
L 378.390687 359.022067 
L 379.702835 361.636877 
L 380.700252 364.231987 
L 381.430029 366.805325 
L 381.943748 369.358963 
L 382.356182 372.52224 
L 382.619578 376.275456 
L 382.748963 381.821299 
L 382.70025 392.027558 
L 382.599099 415.262246 
L 382.732975 434.654554 
L 383.014613 446.484442 
L 383.400515 454.059302 
L 383.894005 459.579226 
L 384.45668 463.62793 
L 385.169021 467.158234 
L 386.028446 470.189837 
L 387.008358 472.741402 
L 388.053236 474.827443 
L 389.366911 476.868902 
L 390.661261 478.46039 
L 392.223786 480.006259 
L 394.114107 481.488883 
L 395.79039 482.548493 
L 397.728762 483.549005 
L 399.972069 484.47383 
L 402.57011 485.298086 
L 405.580096 485.994816 
L 409.067976 486.520474 
L 413.108476 486.823219 
L 416.150402 486.865728 
L 419.501884 486.750643 
L 423.191447 486.44375 
L 427.248218 485.908762 
L 431.701728 485.097984 
L 436.581103 483.956467 
L 441.913061 482.420966 
L 447.719899 480.415795 
L 454.017487 477.855936 
L 460.810646 474.64704 
L 464.39093 472.766285 
L 468.089934 470.68439 
L 471.903039 468.385805 
L 475.823814 465.858086 
L 479.844428 463.088794 
L 483.954031 460.062374 
L 488.139566 456.769498 
L 492.385567 453.197722 
L 496.672949 449.339789 
L 500.979816 445.189478 
L 505.280456 440.744717 
L 509.545741 436.004467 
L 513.742727 430.975987 
L 517.834652 425.667571 
L 521.781141 420.097882 
L 525.537999 414.287654 
L 529.058822 408.267994 
L 532.293593 402.073114 
L 535.191488 395.74656 
L 537.700077 389.339136 
L 539.767534 382.905792 
L 541.34384 376.506662 
L 542.381586 370.206029 
L 542.838387 364.06921 
L 542.677884 358.160486 
L 541.87115 352.543104 
L 540.398699 347.275123 
L 538.25089 342.40631 
L 535.429732 337.978138 
L 531.94828 334.022746 
L 527.831245 330.558797 
L 523.114783 327.594586 
L 517.845098 325.125965 
L 512.077432 323.138419 
L 505.87486 321.608102 
L 499.305682 320.501837 
L 492.442014 319.781261 
L 485.358182 319.403866 
L 478.127707 319.325069 
L 470.822505 319.500288 
L 463.511478 319.884941 
L 456.257902 320.438592 
L 449.120635 321.12288 
L 435.396112 322.751693 
L 422.674381 324.556762 
L 411.185853 326.38775 
L 396.535755 329.000486 
L 388.541475 330.603379 
L 381.927095 332.093261 
L 376.612075 333.484646 
L 372.48835 334.800346 
L 369.431338 336.066278 
L 367.308579 337.301107 
L 366.555681 337.913856 
L 365.986447 338.524531 
L 365.584768 339.136243 
L 365.335074 339.748992 
L 365.2223 340.363814 
L 365.350441 341.603827 
L 365.862082 342.860429 
L 366.661906 344.132582 
L 368.223808 346.068288 
L 371.882697 350.010202 
L 374.817835 353.324851 
L 376.842705 355.973875 
L 378.512079 358.610458 
L 379.826276 361.228378 
L 380.819099 363.826598 
L 381.540114 366.404083 
L 382.042862 368.960832 
L 382.440617 372.127219 
L 382.687239 375.884582 
L 382.796023 381.437683 
L 382.711997 392.837299 
L 382.608042 413.282995 
L 382.72278 432.816307 
L 382.995087 445.216435 
L 383.388651 453.299328 
L 383.868931 458.836877 
L 384.415198 462.900096 
L 385.105282 466.442842 
L 385.936242 469.48585 
L 386.882146 472.047782 
L 387.889358 474.143155 
L 389.154078 476.194982 
L 390.398811 477.797875 
L 391.899987 479.356186 
L 393.714376 480.855398 
L 395.322079 481.93056 
L 397.179917 482.950771 
L 399.328751 483.899443 
L 401.815926 484.756877 
L 404.696224 485.495078 
L 408.03264 486.075686 
L 411.896567 486.451008 
L 414.805108 486.554688 
L 418.009948 486.513216 
L 421.538606 486.295488 
L 425.419608 485.868326 
L 429.682281 485.187149 
L 434.355754 484.203226 
L 439.467347 482.854349 
L 445.041767 481.074163 
L 451.097495 478.780762 
L 457.644576 475.883942 
L 461.102324 474.179443 
L 464.680398 472.28521 
L 468.375787 470.189837 
L 472.183869 467.87881 
L 476.098016 465.337613 
L 480.109589 462.554842 
L 484.208144 459.517018 
L 488.380422 456.211699 
L 492.610352 452.630592 
L 496.878851 448.764365 
L 501.164023 444.606797 
L 505.439754 440.156851 
L 509.676916 435.415565 
L 513.842363 430.388122 
L 517.899537 425.08489 
L 521.807657 419.524531 
L 525.523134 413.728819 
L 528.999161 407.726784 
L 532.186524 401.55575 
L 535.034199 395.259264 
L 537.490961 388.887091 
L 539.505386 382.493146 
L 541.027855 376.138598 
L 542.012167 369.887731 
L 542.41674 363.802752 
L 542.206017 357.950016 
L 541.352277 352.390694 
L 539.837039 347.180774 
L 537.651464 342.370022 
L 534.798567 337.997837 
L 531.292005 334.096358 
L 527.157091 330.682176 
L 522.430385 327.763584 
L 517.158289 325.336435 
L 511.396047 323.384141 
L 505.206331 321.882854 
L 498.657241 320.800435 
L 491.820291 320.099558 
L 484.769001 319.735642 
L 477.57589 319.667213 
L 470.312471 319.847616 
L 463.046039 320.235379 
L 455.83987 320.78903 
L 448.751217 321.471245 
L 435.125125 323.093837 
L 422.498411 324.889574 
L 411.098069 326.712269 
L 396.55974 329.315674 
L 388.624759 330.916493 
L 382.056948 332.405338 
L 376.776154 333.79776 
L 372.675209 335.11657 
L 369.630651 336.384576 
L 367.511408 337.622515 
L 366.757384 338.235264 
L 366.185298 338.848013 
L 365.77928 339.459725 
L 365.523881 340.07351 
L 365.404257 340.68937 
L 365.515866 341.931456 
L 366.008203 343.187021 
L 366.787115 344.459174 
L 368.316595 346.39488 
L 371.91538 350.332646 
L 374.811568 353.644186 
L 376.81412 356.290099 
L 378.468648 358.922534 
L 379.774368 361.538381 
L 380.76375 364.133491 
L 381.485016 366.708902 
L 381.990495 369.262541 
L 382.393646 372.426854 
L 382.647838 376.181107 
L 382.767326 381.729024 
L 382.703428 392.528333 
L 382.602618 414.636019 
L 382.730834 434.071872 
L 383.004963 445.929754 
L 383.38005 453.52224 
L 383.858729 459.054605 
L 384.403568 463.113677 
L 385.092265 466.653312 
L 385.92206 469.69321 
L 386.8671 472.253069 
L 387.87377 474.346368 
L 389.138349 476.397158 
L 390.383343 477.997978 
L 391.885303 479.555251 
L 393.701198 481.053427 
L 395.310648 482.127552 
L 397.170938 483.146726 
L 399.323106 484.094362 
L 401.814721 484.950758 
L 404.700844 485.686886 
L 408.044492 486.266458 
L 411.918061 486.638669 
L 414.834437 486.740275 
L 418.048115 486.695693 
L 421.587018 486.474854 
L 425.480072 486.042509 
L 429.756406 485.356147 
L 434.445347 484.36393 
L 439.574818 483.006758 
L 445.168924 481.213094 
L 451.24695 478.905178 
L 457.818538 475.989696 
L 461.289142 474.273792 
L 464.880676 472.368154 
L 468.590126 470.259302 
L 472.41247 467.932723 
L 476.34108 465.375974 
L 480.36772 462.574541 
L 484.48114 459.517018 
L 488.668283 456.190963 
L 492.912676 452.587046 
L 497.195639 448.695936 
L 501.494069 444.513485 
L 505.782455 440.035546 
L 510.030866 435.265229 
L 514.205956 430.207718 
L 518.270763 424.874419 
L 522.184307 419.282957 
L 525.902395 413.456141 
L 529.378021 407.424038 
L 532.561567 401.222938 
L 535.401608 394.898458 
L 537.846519 388.499328 
L 539.844471 382.08361 
L 541.346049 375.709363 
L 542.304649 369.442944 
L 542.678888 363.347597 
L 542.433212 357.48864 
L 541.5403 351.928282 
L 539.981672 346.721472 
L 537.749896 341.920051 
L 534.847581 337.561344 
L 531.289997 333.676454 
L 527.102854 330.284045 
L 522.323517 327.389299 
L 516.999594 324.987034 
L 511.186931 323.061696 
L 504.949004 321.588403 
L 498.354716 320.532941 
L 491.476183 319.856947 
L 484.387329 319.517914 
L 477.161274 319.470221 
L 469.86953 319.67136 
L 462.579595 320.075712 
L 455.354544 320.644915 
L 441.322674 322.127539 
L 428.155392 323.872474 
L 416.128305 325.702426 
L 405.415977 327.50231 
L 391.979234 330.024845 
L 384.774452 331.563456 
L 378.904257 332.99735 
L 374.271703 334.34519 
L 370.758794 335.630822 
L 368.236243 336.878093 
L 366.570787 338.106701 
L 366.018186 338.717376 
L 365.63095 339.330125 
L 365.39357 339.942874 
L 365.291161 340.558733 
L 365.43463 341.799782 
L 365.955351 343.057421 
L 366.759072 344.329574 
L 368.319307 346.266317 
L 372.566472 350.870746 
L 374.870787 353.521843 
L 376.87804 356.168794 
L 378.532227 358.803302 
L 379.834331 361.420186 
L 380.818235 364.01737 
L 381.533161 366.592781 
L 382.032161 369.147456 
L 382.427697 372.312806 
L 382.674033 376.068096 
L 382.784724 381.618086 
L 382.705728 393.010445 
L 382.605933 413.99113 
L 382.728072 433.473638 
L 382.994193 445.359514 
L 383.357867 452.969626 
L 383.821028 458.515469 
L 384.418634 463.03177 
L 385.111368 466.572442 
L 385.945824 469.614413 
L 386.896006 472.173235 
L 387.90802 474.267571 
L 389.179068 476.318362 
L 390.430269 477.919181 
L 391.939541 479.475418 
L 393.764013 480.972557 
L 395.380896 482.045645 
L 397.249582 483.062746 
L 399.411212 484.008307 
L 401.913494 484.861594 
L 404.811529 485.593574 
L 408.168837 486.167962 
L 412.057271 486.532915 
L 414.984494 486.628301 
L 418.209823 486.576461 
L 421.76098 486.347328 
L 425.666891 485.905651 
L 429.956683 485.207885 
L 434.659485 484.201152 
L 439.802816 482.827392 
L 445.410984 481.016102 
L 451.502068 478.686413 
L 458.085709 475.747085 
L 461.561736 474.017702 
L 465.158292 472.097549 
L 468.871759 469.973146 
L 472.697318 467.632051 
L 476.628138 465.058714 
L 480.655782 462.241728 
L 484.7688 459.167616 
L 488.953934 455.823936 
L 493.194912 452.202394 
L 497.471849 448.295731 
L 501.762444 444.095654 
L 506.040385 439.6032 
L 510.275739 434.818368 
L 514.434758 429.748416 
L 518.480482 424.404749 
L 522.371728 418.804992 
L 526.064103 412.972992 
L 529.510802 406.938816 
L 532.661806 400.740826 
L 535.466091 394.422566 
L 537.872031 388.034842 
L 539.8282 381.633638 
L 541.285584 375.280128 
L 542.198182 369.037555 
L 542.525014 362.971238 
L 542.231127 357.146496 
L 541.290406 351.621389 
L 539.684772 346.455014 
L 537.407797 341.694029 
L 534.463097 337.37783 
L 530.86614 333.53545 
L 526.644245 330.184512 
L 521.834977 327.329165 
L 516.486145 324.964224 
L 510.654197 323.074138 
L 504.403213 321.630912 
L 497.801493 320.602406 
L 490.921554 319.950259 
L 483.836516 319.630925 
L 476.619701 319.599821 
L 469.341819 319.812365 
L 462.070164 320.227085 
L 454.867008 320.802509 
L 440.887167 322.291354 
L 427.779345 324.037325 
L 415.814932 325.864166 
L 400.361495 328.526669 
L 388.067458 330.959002 
L 381.588411 332.439552 
L 376.392011 333.825754 
L 372.369309 335.139379 
L 369.395742 336.403238 
L 367.339615 337.639104 
L 366.614117 338.25289 
L 366.068547 338.864602 
L 365.687056 339.476314 
L 365.454236 340.090099 
L 365.355262 340.706995 
L 365.502688 341.949082 
L 366.024052 343.205683 
L 366.825764 344.478874 
L 368.37939 346.415616 
L 372.603213 351.019008 
L 374.893748 353.669069 
L 376.889008 356.314982 
L 378.533633 358.948454 
L 379.828747 361.564301 
L 380.80797 364.159411 
L 381.52017 366.733786 
L 382.017947 369.287424 
L 382.413429 372.450701 
L 382.660974 376.204954 
L 382.774429 381.75287 
L 382.700288 393.140045 
L 382.604171 414.656755 
L 382.733329 434.091571 
L 383.00933 445.948416 
L 383.386994 453.539866 
L 383.868996 459.07223 
L 384.417649 463.130266 
L 385.111208 466.669901 
L 385.946868 469.709798 
L 386.898638 472.268621 
L 387.912539 474.360883 
L 389.186179 476.410637 
L 390.440132 478.010419 
L 391.952919 479.565619 
L 393.781911 481.062758 
L 395.402973 482.133773 
L 397.276681 483.149837 
L 399.444317 484.094362 
L 401.95379 484.944538 
L 404.860544 485.674445 
L 408.227895 486.244685 
L 412.128583 486.605491 
L 415.065047 486.69673 
L 418.300822 486.640742 
L 421.86363 486.406426 
L 425.782196 485.957491 
L 430.08605 485.250394 
L 434.80452 484.233293 
L 439.964726 482.847091 
L 445.590772 481.02025 
L 451.701341 478.671898 
L 458.305271 475.710797 
L 461.791543 473.968973 
L 465.398343 472.035341 
L 469.122257 469.897459 
L 472.95806 467.539776 
L 476.898924 464.94985 
L 480.93601 462.114202 
L 485.058268 459.02039 
L 489.251839 455.657011 
L 493.500049 452.014733 
L 497.783413 448.085261 
L 502.07883 443.862374 
L 506.359985 439.346074 
L 510.596745 434.538432 
L 514.754961 429.444634 
L 518.797269 424.07712 
L 522.682289 418.45559 
L 526.365624 412.601818 
L 529.799467 406.547942 
L 532.934199 400.332326 
L 535.718597 393.999552 
L 538.100632 387.600422 
L 540.02908 381.191962 
L 541.454725 374.835341 
L 542.331968 368.594842 
L 542.619829 362.533709 
L 542.284159 356.719334 
L 541.298843 351.209779 
L 539.647006 346.062067 
L 537.322222 341.323891 
L 534.329311 337.033613 
L 530.684544 333.220262 
L 526.415844 329.899392 
L 521.561579 327.075149 
L 516.170562 324.742349 
L 510.299844 322.88233 
L 504.013908 321.469171 
L 497.381653 320.468659 
L 490.4756 319.841395 
L 483.369671 319.543834 
L 476.136585 319.533466 
L 468.847453 319.763635 
L 461.569169 320.191834 
L 454.363804 320.778662 
L 440.391997 322.285133 
L 427.30567 324.039398 
L 415.372996 325.868314 
L 404.761711 327.663014 
L 391.477677 330.174144 
L 384.369518 331.705498 
L 378.588654 333.132134 
L 374.036573 334.475827 
L 370.594434 335.759386 
L 368.132669 337.004582 
L 366.518156 338.232154 
L 365.987492 338.843866 
L 365.619922 339.456614 
L 365.400058 340.0704 
L 365.313097 340.686259 
L 365.481756 341.928346 
L 366.020778 343.187021 
L 366.836893 344.460211 
L 368.406629 346.39799 
L 375.979002 354.978547 
L 377.798332 357.619277 
L 379.260738 360.244454 
L 380.387072 362.849933 
L 381.220982 365.435712 
L 381.814664 367.999718 
L 382.297446 371.176474 
L 382.611559 374.945242 
L 382.766388 379.901146 
L 382.75009 388.38528 
L 382.605575 414.64535 
L 382.735223 434.081203 
L 383.012373 445.938048 
L 383.391602 453.529498 
L 383.875583 459.062899 
L 384.426468 463.120934 
L 385.122838 466.659533 
L 385.961854 469.69943 
L 386.91742 472.258253 
L 387.935319 474.350515 
L 389.213981 476.400269 
L 390.472855 477.999014 
L 391.991548 479.554214 
L 393.827612 481.04928 
L 395.45492 482.119258 
L 397.3358 483.134285 
L 399.511672 484.075699 
L 402.030587 484.923802 
L 404.948128 485.650598 
L 408.327934 486.215654 
L 412.242683 486.57024 
L 415.189593 486.656294 
L 418.436617 486.594086 
L 422.011477 486.351475 
L 425.943101 485.89321 
L 430.261016 485.175744 
L 434.994151 484.147238 
L 440.169623 482.745485 
L 445.811539 480.901018 
L 451.937977 478.53193 
L 458.557174 475.546982 
L 462.05108 473.79168 
L 465.664911 471.84457 
L 469.395253 469.691136 
L 473.237083 467.317901 
L 477.18337 464.711386 
L 481.224875 461.858112 
L 485.350348 458.746675 
L 489.545726 455.364634 
L 493.794539 451.702656 
L 498.076899 447.754522 
L 502.369303 443.512973 
L 506.645034 438.97801 
L 510.87396 434.151706 
L 515.021931 429.040282 
L 519.050981 423.658253 
L 522.919528 418.022208 
L 526.582976 412.15703 
L 529.993718 406.094861 
L 533.101733 399.874061 
L 535.855798 393.54025 
L 538.204286 387.143194 
L 540.095772 380.74199 
L 541.481442 374.396774 
L 542.316099 368.171827 
L 542.559164 362.13143 
L 542.177291 356.340902 
L 541.144768 350.860378 
L 539.445524 345.744806 
L 537.074336 341.040845 
L 534.036227 336.787891 
L 530.348874 333.010829 
L 526.0404 329.727283 
L 521.150177 326.940365 
L 515.727622 324.641779 
L 509.830388 322.814938 
L 503.522756 321.432883 
L 496.874231 320.459328 
L 489.95753 319.856947 
L 482.845977 319.580122 
L 475.61269 319.586342 
L 468.327977 319.831027 
L 461.058532 320.271667 
L 453.866023 320.86679 
L 439.929572 322.382592 
L 426.888442 324.139968 
L 415.006993 325.968883 
L 399.694111 328.623091 
L 387.544628 331.042982 
L 381.157925 332.516275 
L 376.047763 333.896256 
L 372.103645 335.205734 
L 369.200125 336.466483 
L 367.205166 337.701312 
L 366.506907 338.314061 
L 365.986407 338.925773 
L 365.627816 339.537485 
L 365.415848 340.15127 
L 365.335696 340.768166 
L 365.515122 342.01129 
L 366.061496 343.269965 
L 366.882051 344.544192 
L 368.454097 346.481971 
L 376.007306 355.062528 
L 377.818741 357.702221 
L 379.274197 360.326362 
L 380.394895 362.93184 
L 381.224507 365.516582 
L 381.815112 368.079552 
L 382.29546 371.25527 
L 382.608162 375.024038 
L 382.762631 379.978906 
L 382.747236 388.45993 
L 382.60543 415.258099 
L 382.742246 434.650406 
L 383.030163 446.480294 
L 383.424659 454.055155 
L 383.929133 459.574042 
L 384.504329 463.622746 
L 385.232499 467.15305 
L 385.968443 469.754381 
L 386.9265 472.312166 
L 387.947171 474.403392 
L 389.229428 476.452109 
L 390.491919 478.050854 
L 392.015132 479.603981 
L 393.856779 481.09801 
L 395.48913 482.167987 
L 397.375936 483.180941 
L 399.558758 484.120282 
L 402.085849 484.96631 
L 405.012811 485.68896 
L 408.403866 486.250906 
L 412.331673 486.600307 
L 415.288426 486.682214 
L 418.546297 486.613786 
L 422.133211 486.364954 
L 426.077891 485.89943 
L 430.409868 485.171597 
L 435.15827 484.131686 
L 440.350214 482.716454 
L 446.009406 480.855398 
L 452.153923 478.466611 
L 458.791601 475.458854 
L 462.294747 473.690074 
L 465.917618 471.729485 
L 469.656999 469.560499 
L 473.507266 467.171712 
L 477.461589 464.547571 
L 481.510526 461.676672 
L 485.642829 458.546573 
L 489.844033 455.144832 
L 494.097466 451.463155 
L 498.38304 447.492211 
L 502.67685 443.229926 
L 506.95238 438.67319 
L 511.178895 433.825114 
L 515.321844 428.692954 
L 519.343261 423.290189 
L 523.201162 417.635482 
L 526.85095 411.752678 
L 530.244215 405.675994 
L 533.33154 399.442752 
L 536.061097 393.09961 
L 538.381061 386.69737 
L 540.240607 380.29513 
L 541.590922 373.953024 
L 542.386608 367.735334 
L 542.58809 361.707379 
L 542.162024 355.93344 
L 541.0837 350.473651 
L 539.33745 345.382963 
L 536.918654 340.706995 
L 533.833539 336.484109 
L 530.100184 332.740224 
L 525.747717 329.489856 
L 520.816314 326.736115 
L 515.355994 324.470707 
L 509.425012 322.676006 
L 503.088052 321.322982 
L 496.415019 320.377421 
L 489.478833 319.798886 
L 482.352816 319.54487 
L 475.110088 319.569754 
L 467.820956 319.82999 
L 460.551511 320.283072 
L 453.363221 320.888563 
L 439.446455 322.417843 
L 426.437065 324.18144 
L 414.59559 326.010355 
L 399.351309 328.661453 
L 390.949604 330.299597 
L 383.937699 331.822656 
L 378.246575 333.243072 
L 373.775971 334.581581 
L 370.406129 335.862029 
L 368.007039 337.106189 
L 366.445699 338.33376 
L 365.938176 338.945472 
L 365.591517 339.557184 
L 365.390416 340.172006 
L 365.320189 340.787866 
L 365.516569 342.032026 
L 366.076401 343.290701 
L 366.907301 344.565965 
L 368.489834 346.504781 
L 376.046156 355.086374 
L 377.852369 357.726067 
L 379.30214 360.350208 
L 380.417361 362.955686 
L 381.24209 365.540429 
L 381.828569 368.103398 
L 382.304848 371.279117 
L 382.614084 375.046848 
L 382.765755 380.000678 
L 382.748332 388.481702 
L 382.60533 414.733478 
L 382.735908 434.16311 
L 383.014376 446.016845 
L 383.395483 453.605184 
L 383.881999 459.136512 
L 384.435909 463.19351 
L 385.136237 466.731072 
L 385.980194 469.769933 
L 386.941546 472.326682 
L 387.965752 474.418944 
L 389.252489 476.465587 
L 390.519439 478.064333 
L 392.048016 479.616422 
L 393.896212 481.109414 
L 395.534369 482.178355 
L 397.427904 483.189235 
L 399.61852 484.127539 
L 402.15461 484.970458 
L 405.092159 485.689997 
L 408.495066 486.246758 
L 412.436532 486.589939 
L 415.403731 486.666662 
L 418.672651 486.59305 
L 422.271818 486.33696 
L 426.229556 485.862106 
L 430.575594 485.124941 
L 435.339062 484.072589 
L 440.546675 482.642842 
L 446.222539 480.76416 
L 452.383529 478.354637 
L 459.038081 475.323034 
L 462.549061 473.541811 
L 466.179967 471.56567 
L 469.926781 469.38217 
L 473.784079 466.976794 
L 477.744629 464.337101 
L 481.799191 461.448576 
L 485.935913 458.298778 
L 490.140532 454.878374 
L 494.395974 451.176998 
L 498.681749 447.186355 
L 502.974153 442.903334 
L 507.246268 438.326899 
L 511.466756 433.459123 
L 515.601068 428.309338 
L 519.611034 422.888947 
L 523.454471 417.218688 
L 527.086382 411.322406 
L 530.458554 405.235354 
L 533.520769 398.993818 
L 536.222002 392.646528 
L 538.510026 386.244288 
L 540.334016 379.846195 
L 541.645762 373.512384 
L 542.400067 367.308173 
L 542.557758 361.297843 
L 542.086091 355.546714 
L 540.960762 350.112845 
L 539.167305 345.051187 
L 536.701503 340.40736 
L 533.570788 336.218688 
L 529.793441 332.510054 
L 525.399994 329.295974 
L 520.431026 326.577485 
L 514.937159 324.346291 
L 508.97705 322.583731 
L 502.615984 321.260774 
L 495.924269 320.34217 
L 488.974223 319.787482 
L 481.83997 319.554202 
L 474.593826 319.59671 
L 467.3059 319.871462 
L 460.04228 320.335949 
L 452.864034 320.950771 
L 438.9772 322.491456 
L 426.008186 324.2592 
L 414.213718 326.088115 
L 399.04561 328.734029 
L 390.694446 330.368026 
L 383.730814 331.886938 
L 378.084405 333.30528 
L 373.654157 334.640678 
L 370.319891 335.92009 
L 367.951475 337.163213 
L 366.415949 338.390784 
L 365.919574 339.002496 
L 365.58294 339.614208 
L 365.390818 340.22903 
L 365.328525 340.845926 
L 365.537942 342.090086 
L 366.107377 343.349798 
L 366.944906 344.625062 
L 368.532822 346.564915 
L 376.078478 355.146509 
L 377.87784 357.786202 
L 379.321183 360.409306 
L 380.43085 363.014784 
L 381.251077 365.59849 
L 381.834087 368.161459 
L 382.307312 371.336141 
L 382.614345 375.103872 
L 382.76471 380.056666 
L 382.747041 388.536653 
L 382.605067 414.783245 
L 382.736109 434.20873 
L 383.015193 446.06039 
L 383.397185 453.647693 
L 383.884907 459.177984 
L 384.440268 463.233946 
L 385.142505 466.77047 
L 385.988872 469.809331 
L 386.953036 472.365043 
L 387.980336 474.456269 
L 388.988573 476.097523 
L 390.201647 477.704563 
L 391.664496 479.269094 
L 393.43236 480.777638 
L 394.998742 481.861094 
L 396.808771 482.891674 
L 398.902303 483.853824 
L 401.325538 484.72992 
L 404.131952 485.490931 
L 407.383195 486.10368 
L 411.149293 486.519437 
L 413.984915 486.657331 
L 417.110206 486.657331 
L 420.552084 486.490406 
L 424.339476 486.122342 
L 428.501508 485.513741 
L 433.06731 484.614835 
L 438.065405 483.368602 
L 443.521105 481.708685 
L 449.455301 479.557325 
L 455.880649 476.826394 
L 459.278333 475.21417 
L 462.798153 473.419469 
L 466.437496 471.42985 
L 470.192746 469.231834 
L 474.057878 466.809869 
L 478.025861 464.15255 
L 482.086851 461.2464 
L 486.229398 458.077939 
L 490.438839 454.637837 
L 494.697696 450.915725 
L 498.985278 446.904346 
L 503.278084 442.600589 
L 507.54819 438.003418 
L 511.764461 433.114906 
L 515.892344 427.944384 
L 519.892668 422.505331 
L 523.72365 416.817446 
L 527.339691 410.90665 
L 530.692579 404.805082 
L 533.732095 398.554214 
L 536.406611 392.200704 
L 538.664502 385.795354 
L 540.454946 379.398298 
L 541.729328 373.070707 
L 542.443658 366.875827 
L 542.55836 360.88105 
L 542.041697 355.148582 
L 540.870165 349.73856 
L 539.0293 344.703859 
L 536.516292 340.090099 
L 533.338973 335.933568 
L 529.516829 332.259149 
L 525.080796 329.079283 
L 520.072456 326.395008 
L 514.542832 324.198029 
L 508.551385 322.466573 
L 502.163602 321.172646 
L 495.449991 320.280998 
L 488.483473 319.751194 
L 481.337569 319.53865 
L 474.084997 319.599821 
L 466.795464 319.889088 
L 459.534656 320.366016 
L 452.36324 320.989133 
L 438.500913 322.542259 
L 425.567455 324.315187 
L 413.816377 326.144102 
L 398.719984 328.785869 
L 390.417714 330.415718 
L 383.501516 331.930483 
L 377.899716 333.344678 
L 373.510367 334.67904 
L 370.212762 335.956378 
L 367.876487 337.198464 
L 366.368581 338.424998 
L 365.88434 339.03671 
L 365.558794 339.649459 
L 365.376696 340.263245 
L 365.323403 340.881178 
L 365.548047 342.125338 
L 366.129253 343.386086 
L 366.9755 344.66135 
L 368.571692 346.60224 
L 375.611532 354.522355 
L 377.493296 357.165158 
L 379.018758 359.793446 
L 380.202624 362.403072 
L 381.085518 364.991962 
L 381.718802 367.559078 
L 382.238653 370.739981 
L 382.582094 374.51497 
L 382.757902 379.477094 
L 382.757961 387.3744 
L 382.607724 416.444198 
L 382.751924 435.247603 
L 383.034496 446.569459 
L 383.432315 454.14121 
L 383.941204 459.658022 
L 384.521605 463.704653 
L 385.256524 467.23392 
L 385.999459 469.834214 
L 386.966756 472.389926 
L 387.997431 474.480115 
L 389.009043 476.12137 
L 390.226195 477.727373 
L 391.693985 479.290867 
L 393.467916 480.798374 
L 395.039702 481.880794 
L 396.856018 482.909299 
L 398.956801 483.870413 
L 401.388494 484.743398 
L 404.204671 485.502336 
L 407.467163 486.109901 
L 411.246519 486.52151 
L 415.621886 486.67081 
L 418.913104 486.584755 
L 422.536377 486.315187 
L 426.520631 485.823744 
L 430.894994 485.065843 
L 435.688794 483.988608 
L 440.928749 482.52983 
L 446.63816 480.616934 
L 452.834103 478.166976 
L 459.523407 475.08768 
L 463.051462 473.279501 
L 466.699041 471.276403 
L 470.461725 469.061798 
L 474.334289 466.624282 
L 478.308901 463.950374 
L 482.375917 461.025562 
L 486.523286 457.838438 
L 490.736342 454.378637 
L 494.99761 450.636826 
L 499.286197 446.605747 
L 503.577797 442.281254 
L 507.844689 437.663347 
L 512.055536 432.755136 
L 516.175183 427.565952 
L 520.16466 422.109274 
L 523.98138 416.4048 
L 527.580145 410.479488 
L 530.912141 404.367552 
L 533.927149 398.10839 
L 536.573542 391.749696 
L 538.799694 385.344346 
L 540.554984 378.9504 
L 541.791199 372.630067 
L 542.464147 366.448666 
L 542.535259 360.471514 
L 541.972996 354.759782 
L 540.754458 349.37568 
L 538.866588 344.368973 
L 536.306573 339.787354 
L 533.083252 335.665037 
L 529.217116 332.024832 
L 524.739902 328.880218 
L 519.693596 326.231194 
L 514.130023 324.067392 
L 508.109047 322.368077 
L 501.696757 321.104218 
L 494.963661 320.239526 
L 487.98288 319.732531 
L 480.827936 319.540723 
L 473.571347 319.618483 
L 466.282416 319.923302 
L 459.026832 320.410598 
L 451.864656 321.043046 
L 438.030854 322.607578 
L 425.136367 324.383616 
L 413.430888 326.212531 
L 398.409202 328.849114 
L 390.156791 330.474816 
L 383.288362 331.98647 
L 377.731017 333.397555 
L 373.382025 334.729843 
L 370.120156 336.005107 
L 367.814857 337.247194 
L 366.333226 338.472691 
L 365.860395 339.084403 
L 365.545154 339.697152 
L 365.372317 340.311974 
L 365.3273 340.929907 
L 365.565624 342.175104 
L 366.157115 343.435853 
L 367.010654 344.712154 
L 368.613194 346.653043 
L 375.646746 354.574195 
L 377.522102 357.216998 
L 379.041217 359.84425 
L 380.219358 362.452838 
L 381.09745 365.041728 
L 381.726908 367.608845 
L 382.243241 370.789747 
L 382.58398 374.563699 
L 382.757963 379.525824 
L 382.757247 387.421056 
L 382.60769 416.48567 
L 382.752362 435.287002 
L 383.035621 446.606784 
L 383.43445 454.177498 
L 383.944703 459.69431 
L 384.526727 463.739904 
L 385.263776 467.267098 
L 386.00894 469.867392 
L 386.979191 472.423104 
L 388.0131 474.512256 
L 389.027905 476.152474 
L 390.248975 477.758477 
L 391.721586 479.320934 
L 393.501383 480.827405 
L 395.078411 481.908787 
L 396.900855 482.936256 
L 399.008769 483.895296 
L 401.448758 484.766208 
L 404.274577 485.520998 
L 407.548318 486.125453 
L 411.340531 486.530842 
L 414.195638 486.660442 
L 417.342223 486.649037 
L 420.807604 486.468634 
L 424.620306 486.086054 
L 428.809859 485.457754 
L 433.40519 484.536038 
L 438.434623 483.263885 
L 443.923267 481.571827 
L 449.891613 479.382106 
L 456.351512 476.607629 
L 459.766472 474.970522 
L 463.303165 473.149901 
L 466.95898 471.131251 
L 470.729899 468.902131 
L 474.609897 466.448026 
L 478.591539 463.756493 
L 482.664783 460.814054 
L 486.817575 457.608269 
L 491.03485 454.128768 
L 495.29893 450.367258 
L 499.588722 446.315443 
L 503.87972 441.970214 
L 508.144201 437.331571 
L 512.350026 432.402624 
L 516.462039 427.193741 
L 520.44107 421.7184 
L 524.244532 415.997338 
L 527.826223 410.05751 
L 531.138131 403.933133 
L 534.129234 397.665677 
L 536.748107 391.300762 
L 538.943123 384.894374 
L 540.66366 378.502502 
L 541.861708 372.190464 
L 542.493677 366.020467 
L 542.521398 360.058867 
L 541.913937 354.368909 
L 540.648795 349.008653 
L 538.713316 344.030976 
L 536.106295 339.479424 
L 532.836973 335.389248 
L 528.926442 331.784294 
L 524.407446 328.673894 
L 519.322771 326.059085 
L 513.724648 323.929498 
L 507.673539 322.261286 
L 501.235938 321.026458 
L 494.482553 320.188723 
L 487.486706 319.705574 
L 480.321919 319.534502 
L 473.060308 319.629888 
L 465.771177 319.948186 
L 458.51961 320.447923 
L 451.36567 321.088666 
L 437.558786 322.663565 
L 424.701863 324.444787 
L 413.04098 326.273702 
L 398.092194 328.906138 
L 389.888998 330.527693 
L 383.068015 332.0352 
L 377.555046 333.443174 
L 373.246471 334.772352 
L 370.02066 336.046579 
L 367.746799 337.287629 
L 366.291986 338.513126 
L 365.830886 339.124838 
L 365.526311 339.737587 
L 365.363096 340.35241 
L 365.326677 340.970342 
L 365.579404 342.215539 
L 366.181883 343.477325 
L 367.043458 344.753626 
L 368.65331 346.695552 
L 375.683206 354.617741 
L 377.552535 357.260544 
L 379.065503 359.887795 
L 380.237979 362.496384 
L 381.111225 365.084237 
L 381.736737 367.651354 
L 382.249355 370.831219 
L 382.58713 374.605171 
L 382.758965 379.566259 
L 382.757099 387.460454 
L 382.607829 416.520922 
L 382.752985 435.320179 
L 383.036995 446.638925 
L 383.436915 454.207565 
L 383.948625 459.723341 
L 384.532372 463.768934 
L 385.27167 467.296128 
L 386.019125 469.895386 
L 386.992469 472.450061 
L 388.029713 474.539213 
L 389.047853 476.17943 
L 390.27296 477.784397 
L 391.750492 479.345818 
L 393.536296 480.851251 
L 395.118708 481.931597 
L 396.947399 482.956992 
L 399.062585 483.914995 
L 401.51099 484.782797 
L 404.346693 485.535514 
L 407.631684 486.135821 
L 411.436953 486.536026 
L 415.842453 486.67081 
L 419.156169 486.57335 
L 422.803748 486.289267 
L 426.814317 485.781235 
L 431.217406 485.002598 
L 436.04174 483.90048 
L 441.314037 482.412672 
L 447.057196 480.464525 
L 453.28769 477.974131 
L 460.011746 474.846106 
L 463.556876 473.012006 
L 467.220928 470.978842 
L 470.99948 468.735206 
L 474.88691 466.264512 
L 478.875182 463.55639 
L 482.954452 460.59529 
L 487.112065 457.370842 
L 491.333157 453.871642 
L 495.599647 450.089395 
L 499.890243 446.016845 
L 504.180236 441.651917 
L 508.441303 436.992538 
L 512.641704 432.043891 
L 516.745481 426.815309 
L 520.713464 421.322342 
L 524.502663 415.585728 
L 528.066877 409.631386 
L 531.357492 403.49664 
L 534.324088 397.219853 
L 536.914637 390.85079 
L 539.077712 384.443366 
L 540.762895 378.055642 
L 541.922575 371.750861 
L 542.513162 365.594342 
L 542.496891 359.650368 
L 541.843629 353.981146 
L 540.531682 348.64681 
L 538.548996 343.698163 
L 535.89497 339.178752 
L 532.579847 335.121754 
L 528.625524 331.551014 
L 524.065347 328.475866 
L 518.942907 325.896307 
L 513.311036 323.798861 
L 507.2308 322.16279 
L 500.768892 320.958029 
L 493.996424 320.146214 
L 486.986515 319.685875 
L 479.81289 319.535539 
L 472.547462 319.647514 
L 465.259134 319.980326 
L 458.01299 320.490432 
L 450.86809 321.140506 
L 437.089731 322.725773 
L 424.271578 324.511142 
L 412.656295 326.339021 
L 397.781774 328.966272 
L 389.628115 330.58368 
L 382.85462 332.088077 
L 377.385865 333.492941 
L 373.117426 334.819008 
L 369.927211 336.092198 
L 367.684245 337.332211 
L 366.876386 337.945997 
L 366.255646 338.557709 
L 365.805977 339.169421 
L 365.511728 339.78217 
L 365.357793 340.396992 
L 365.32967 341.014925 
L 365.596178 342.261158 
L 366.209042 343.522944 
L 367.078029 344.801318 
L 368.69441 346.743245 
L 375.718722 354.66647 
L 377.581803 357.308237 
L 379.088504 359.935488 
L 380.255315 362.54304 
L 381.123762 365.130893 
L 381.745427 367.69801 
L 382.254478 370.877875 
L 382.589474 374.65079 
L 382.759381 379.610842 
L 382.756607 387.504 
L 382.607863 416.561357 
L 382.753497 435.356467 
L 383.038222 446.673139 
L 383.439191 454.241779 
L 383.952307 459.756518 
L 384.537715 463.801075 
L 385.279203 467.328269 
L 386.028948 469.92649 
L 387.005305 472.481165 
L 388.045843 474.570317 
L 389.067238 476.209498 
L 390.296342 477.813427 
L 391.778756 479.374848 
L 393.570525 480.878208 
L 395.158261 481.957517 
L 396.993159 482.981875 
L 399.115557 483.937805 
L 401.572379 484.803533 
L 404.417804 485.552102 
L 407.714245 486.148262 
L 411.532572 486.543283 
L 414.407366 486.663552 
L 417.575444 486.641779 
L 421.064328 486.448934 
L 424.902542 486.049766 
L 429.119616 485.402803 
L 433.744476 484.458278 
L 438.805447 483.158131 
L 444.327237 481.433933 
L 450.329732 479.206886 
L 456.824383 476.387827 
L 460.256619 474.7248 
L 463.810186 472.877222 
L 467.482473 470.830579 
L 471.269061 468.570355 
L 475.163924 466.084109 
L 479.159025 463.357325 
L 483.244121 460.378598 
L 487.406957 457.135488 
L 491.631865 453.616589 
L 495.900766 449.813606 
L 500.192366 445.721357 
L 504.481355 441.334656 
L 508.739409 436.654541 
L 512.934386 431.686195 
L 517.030128 426.43895 
L 520.987062 420.928358 
L 524.761999 415.174118 
L 528.308736 409.206298 
L 531.57846 403.060147 
L 534.520147 396.775066 
L 537.082572 390.401856 
L 539.213708 383.993395 
L 540.863536 377.608781 
L 541.984647 371.312294 
L 542.533853 365.168218 
L 542.473991 359.241869 
L 541.774928 353.594419 
L 540.416176 348.284966 
L 538.386283 343.364314 
L 535.68505 338.877043 
L 532.324127 334.854259 
L 528.326012 331.317734 
L 523.724655 328.277837 
L 518.564449 325.732493 
L 512.899031 323.668224 
L 506.789466 322.063258 
L 500.303252 320.88649 
L 493.511499 320.100595 
L 486.487529 319.665139 
L 479.304864 319.533466 
L 472.035419 319.663066 
L 464.747894 320.009357 
L 457.506773 320.530867 
L 450.370912 321.189235 
L 436.620676 322.78487 
L 423.841293 324.574387 
L 412.271208 326.402266 
L 397.470169 329.024333 
L 389.365786 330.637594 
L 382.639606 332.137843 
L 377.214936 333.539597 
L 372.986593 334.86359 
L 369.831973 336.134707 
L 367.619983 337.37472 
L 366.825844 337.987469 
L 366.21772 338.600218 
L 365.779521 339.21193 
L 365.495677 339.824678 
L 365.351124 340.439501 
L 365.422637 341.679514 
L 365.88657 342.934042 
L 366.647061 344.204122 
L 368.164087 346.137754 
L 371.160232 349.414042 
L 374.142838 352.723507 
L 376.251757 355.373568 
L 378.020083 358.012224 
L 379.432872 360.634291 
L 380.515149 363.236659 
L 381.31234 365.819328 
L 381.876925 368.380224 
L 382.333086 371.552832 
L 382.626794 375.317453 
L 382.767802 380.267136 
L 382.74543 388.740902 
L 382.60484 414.425549 
L 382.731581 433.876954 
L 383.004175 445.74313 
L 383.377002 453.3408 
L 383.852475 458.878349 
L 384.466744 463.386355 
L 385.179587 466.920806 
L 386.039052 469.956557 
L 387.018483 472.510195 
L 388.062336 474.59831 
L 389.087065 476.237491 
L 390.320227 477.840384 
L 391.807562 479.400768 
L 393.605358 480.903091 
L 395.198477 481.981363 
L 397.039643 483.004685 
L 399.169332 483.958541 
L 401.634612 484.822195 
L 404.48992 485.567654 
L 407.79761 486.159667 
L 411.629196 486.549504 
L 416.064827 486.67081 
L 419.401042 486.560909 
L 423.073329 486.26231 
L 427.110615 485.736653 
L 431.542229 484.93728 
L 436.397298 483.810278 
L 441.701936 482.292403 
L 447.479044 480.309005 
L 453.744089 477.777139 
L 460.502697 474.600384 
L 464.064701 472.739328 
L 467.745224 470.677133 
L 471.539647 468.402394 
L 475.441741 465.899558 
L 479.443471 463.156186 
L 483.534392 460.158797 
L 487.70205 456.895987 
L 491.930775 453.357389 
L 496.201885 449.534707 
L 500.494088 445.421722 
L 504.781872 441.014285 
L 509.03651 436.31447 
L 513.225662 431.326426 
L 517.312766 426.059482 
L 521.258451 420.530227 
L 525.018724 414.761472 
L 528.547583 408.779136 
L 531.795812 402.621581 
L 534.71259 396.329242 
L 537.246289 389.950848 
L 539.345084 383.542387 
L 540.959355 377.162957 
L 542.041496 370.874765 
L 542.548919 364.744166 
L 542.444863 358.835443 
L 541.700201 353.209766 
L 540.294242 347.926234 
L 538.217142 343.035648 
L 535.469104 338.579482 
L 532.062581 334.589875 
L 528.020875 331.088602 
L 523.378539 328.082918 
L 518.18117 325.571789 
L 512.482406 323.541734 
L 506.344316 321.967872 
L 499.834398 320.820134 
L 493.023964 320.06016 
L 485.986535 319.646477 
L 478.795633 319.535539 
L 471.522773 319.681728 
L 464.236453 320.041498 
L 457.001158 320.573376 
L 449.87494 321.241075 
L 436.15363 322.847078 
L 423.413419 324.638669 
L 411.889134 326.466547 
L 397.162099 329.08343 
L 389.107072 330.692544 
L 382.428162 332.189683 
L 377.047462 333.58729 
L 372.858974 334.910246 
L 369.739689 336.17929 
L 367.558353 337.418266 
L 366.777794 338.032051 
L 366.182104 338.643763 
L 365.755234 339.255475 
L 365.481636 339.868224 
L 365.346263 340.484083 
L 365.433264 341.724096 
L 365.909108 342.978624 
L 366.678358 344.249741 
L 368.20356 346.183373 
L 371.203542 349.460698 
L 374.182432 352.7712 
L 376.285786 355.420224 
L 378.047805 358.05888 
L 379.454467 360.680947 
L 380.531304 363.283315 
L 381.323957 365.864947 
L 381.884936 368.425843 
L 382.337786 371.597414 
L 382.628937 375.362035 
L 382.768187 380.310682 
L 382.739249 389.379571 
L 382.604428 413.918554 
L 382.725093 433.40521 
L 383.005354 445.777344 
L 383.379164 453.375014 
L 383.855947 458.911526 
L 384.471987 463.418496 
L 385.186939 466.95191 
L 385.909183 469.557389 
L 386.84898 472.118285 
L 387.849825 474.213658 
L 389.106731 476.265485 
L 390.343911 477.869414 
L 391.836188 479.427725 
L 393.64001 480.929011 
L 395.238512 482.006246 
L 397.085946 483.028531 
L 399.222927 483.980314 
L 401.696684 484.840858 
L 404.561835 485.584243 
L 407.880976 486.172109 
L 411.725618 486.555725 
L 414.620299 486.666662 
L 417.810072 486.633485 
L 421.322459 486.427162 
L 425.186386 486.012442 
L 429.431181 485.345779 
L 434.085772 484.379482 
L 439.17828 483.051341 
L 444.733416 481.293965 
L 450.770262 479.028557 
L 457.299665 476.163878 
L 460.748976 474.477005 
L 464.319618 472.601434 
L 468.008176 470.524723 
L 471.810433 468.234432 
L 475.719759 465.715008 
L 479.728118 462.95401 
L 483.825066 459.938995 
L 487.997544 456.657523 
L 492.229885 453.099226 
L 496.503406 449.255808 
L 500.796011 445.122086 
L 505.082388 440.693914 
L 509.333612 435.973363 
L 513.516938 430.965619 
L 517.595605 425.680013 
L 521.529639 420.133133 
L 525.275248 414.347789 
L 528.786027 408.351974 
L 532.012763 402.183014 
L 534.90423 395.883418 
L 537.409002 389.500877 
L 539.475656 383.092416 
L 541.053769 376.717133 
L 542.096939 370.438272 
L 542.562579 364.321152 
L 542.414329 358.429018 
L 541.623666 352.82615 
L 540.170901 347.568538 
L 538.046394 342.706982 
L 535.251551 338.282957 
L 531.799428 334.327565 
L 527.714132 330.860506 
L 523.031418 327.890074 
L 517.796686 325.413158 
L 512.064977 323.416282 
L 505.898363 321.873523 
L 499.364942 320.753779 
L 492.536026 320.019725 
L 485.48554 319.628851 
L 478.286402 319.537613 
L 471.010328 319.699354 
L 463.725616 320.073638 
L 456.495944 320.615885 
L 449.379369 321.291878 
L 435.687388 322.907213 
L 422.986348 324.70295 
L 411.507864 326.528755 
L 396.854692 329.141491 
L 388.848921 330.746458 
L 382.217137 332.23945 
L 376.88027 333.634982 
L 372.731536 334.954829 
L 369.647505 336.222835 
L 367.496723 337.460774 
L 366.729723 338.07456 
L 366.146428 338.686272 
L 365.730847 339.297984 
L 365.467474 339.910733 
L 365.341301 340.526592 
L 365.44377 341.767642 
L 365.931507 343.023206 
L 366.709515 344.294323 
L 368.242932 346.228992 
L 371.86048 350.167795 
L 374.77569 353.480371 
L 376.792305 356.127322 
L 378.458584 358.76183 
L 379.773364 361.378714 
L 380.769208 363.975898 
L 381.494664 366.551309 
L 382.002509 369.107021 
L 382.406739 372.272371 
L 382.66049 376.028698 
L 382.777751 381.578688 
L 382.70932 392.384218 
L 382.604464 413.955878 
L 382.725583 433.441498 
L 383.00657 445.811558 
L 383.381372 453.407155 
L 383.85948 458.94263 
L 384.403467 463.003776 
L 385.090878 466.544448 
L 385.918846 469.587456 
L 386.861595 472.147315 
L 387.865614 474.242688 
L 389.126598 476.294515 
L 390.367855 477.896371 
L 391.865074 479.454682 
L 393.674963 480.954931 
L 395.278889 482.030093 
L 397.13261 483.051341 
L 399.276924 484.00105 
L 401.759198 484.85952 
L 404.634152 485.599795 
L 407.964943 486.183514 
L 411.822844 486.561946 
L 414.727368 486.667699 
L 417.927989 486.629338 
L 421.452228 486.415757 
L 425.329011 485.992742 
L 429.587667 485.317786 
L 434.257323 484.339046 
L 439.365702 482.997427 
L 444.93751 481.223462 
L 450.991431 478.938355 
L 457.53811 476.050867 
L 460.996058 474.350515 
L 464.575137 472.461466 
L 468.271932 470.371277 
L 472.081822 468.064397 
L 475.998379 465.528384 
L 480.013368 462.74976 
L 484.116141 459.716083 
L 488.29324 456.415949 
L 492.529196 452.837952 
L 496.804726 448.974835 
L 501.097733 444.820378 
L 505.382704 440.371469 
L 509.630311 435.630182 
L 513.80741 430.602739 
L 517.877239 425.297434 
L 521.799421 419.733965 
L 525.530164 413.932032 
L 529.022463 407.923776 
L 532.227303 401.744448 
L 535.093258 395.436557 
L 537.568903 389.050906 
L 539.602813 382.642445 
L 541.144768 376.272346 
L 542.148766 370.001779 
L 542.572221 363.898138 
L 542.379778 358.025702 
L 541.543113 352.444608 
L 540.043142 347.213952 
L 537.871428 342.381427 
L 535.02978 337.989542 
L 531.532258 334.067328 
L 527.403772 330.63552 
L 522.680481 327.700339 
L 517.409189 325.257638 
L 511.644736 323.292902 
L 505.449999 321.781248 
L 498.893476 320.690534 
L 492.046682 319.9824 
L 484.98334 319.613299 
L 477.776368 319.54176 
L 470.497682 319.72009 
L 463.214778 320.106816 
L 455.991334 320.660467 
L 441.94701 322.122355 
L 428.750198 323.856922 
L 416.681127 325.683763 
L 405.917775 327.485722 
L 392.396342 330.015514 
L 385.133545 331.559309 
L 379.206621 332.99735 
L 374.520151 334.349338 
L 370.957203 335.639117 
L 368.389153 336.888461 
L 366.683119 338.117069 
L 366.112118 338.728781 
L 365.707746 339.34153 
L 365.454477 339.954278 
L 365.337384 340.570138 
L 365.4551 341.811187 
L 365.954568 343.067789 
L 366.741173 344.339942 
L 368.282586 346.274611 
L 371.903408 350.214451 
L 374.813898 353.527027 
L 376.824626 356.173978 
L 378.484598 358.808486 
L 379.793432 361.424333 
L 380.784078 364.021517 
L 381.505259 366.596928 
L 382.009745 369.151603 
L 382.410925 372.316954 
L 382.66235 376.072243 
L 382.777922 381.622234 
L 382.708894 392.42569 
L 382.604484 413.99424 
L 382.726061 433.476749 
L 383.007769 445.845773 
L 383.383561 453.440333 
L 383.862993 458.974771 
L 384.408549 463.03488 
L 385.09799 466.575552 
L 385.928488 469.617523 
L 386.874171 472.177382 
L 387.881383 474.271718 
L 389.146445 476.322509 
L 390.39176 477.924365 
L 391.893961 479.481638 
L 393.709916 480.980851 
L 395.319266 482.054976 
L 397.179315 483.07415 
L 399.33096 484.022822 
L 401.821792 484.878182 
L 404.70667 485.615347 
L 408.048911 486.194918 
L 411.92007 486.56713 
L 414.834638 486.668736 
L 418.046106 486.62519 
L 421.582197 486.405389 
L 425.472037 485.97408 
L 429.744554 485.288755 
L 434.429276 484.298611 
L 439.553524 482.942477 
L 445.141805 481.15296 
L 451.213202 478.848154 
L 457.777157 475.937856 
L 461.243743 474.224026 
L 464.831058 472.321498 
L 468.536089 470.215757 
L 472.353612 467.894362 
L 476.277602 465.34176 
L 480.299019 462.54551 
L 484.407417 459.493171 
L 488.589337 456.173338 
L 492.828708 452.575642 
L 497.106247 448.692826 
L 501.399655 444.517632 
L 505.683019 440.047987 
L 509.926609 435.285965 
L 514.097481 430.238822 
L 518.15827 424.914854 
L 522.0686 419.33376 
L 525.784077 413.516275 
L 529.257894 407.494541 
L 532.440436 401.303808 
L 535.28088 394.989696 
L 537.727196 388.600934 
L 539.727961 382.192474 
L 541.233757 375.827558 
L 542.198182 369.56736 
L 542.579453 363.477197 
L 542.342414 357.623424 
L 541.459747 352.065139 
L 539.912771 346.860403 
L 537.693649 342.057946 
L 534.805397 337.698202 
L 531.262476 333.810202 
L 527.090801 330.412608 
L 522.327534 327.512678 
L 517.019481 325.104192 
L 511.222687 323.172634 
L 505.000429 321.691046 
L 498.421007 320.628326 
L 491.556535 319.945075 
L 484.480537 319.599821 
L 477.266334 319.545907 
L 469.985036 319.740826 
L 462.704342 320.139994 
L 455.487326 320.704013 
L 441.466705 322.179379 
L 428.30545 323.920166 
L 416.279768 325.748045 
L 405.564427 327.54793 
L 392.11746 330.071501 
L 384.902895 331.611149 
L 379.02135 333.04608 
L 374.376441 334.395994 
L 370.850696 335.683699 
L 368.315209 336.932006 
L 366.637077 338.160614 
L 366.07831 338.772326 
L 365.685067 339.384038 
L 365.441862 339.997824 
L 365.333808 340.613683 
L 365.46669 341.854733 
L 365.977789 343.111334 
L 366.772933 344.384525 
L 368.32228 346.32023 
L 371.946336 350.261107 
L 374.852065 353.573683 
L 376.856928 356.220634 
L 378.510612 358.854106 
L 379.8135 361.469952 
L 380.798961 364.066099 
L 381.515875 366.64151 
L 382.017011 369.196186 
L 382.415147 372.360499 
L 382.664248 376.115789 
L 382.778127 381.664742 
L 382.70849 392.467162 
L 382.604514 414.032602 
L 382.726547 433.512 
L 383.008982 445.87895 
L 383.385771 453.472474 
L 383.866533 459.006912 
L 384.413652 463.065984 
L 385.105161 466.606656 
L 385.93819 469.64759 
L 386.886826 472.20745 
L 387.897252 474.300749 
L 389.166412 476.351539 
L 390.415826 477.952358 
L 391.923008 479.508595 
L 393.74507 481.006771 
L 395.359864 482.079859 
L 397.22624 483.09696 
L 399.385278 484.043558 
L 401.884688 484.896845 
L 404.779589 485.630899 
L 408.133281 486.206323 
L 412.017898 486.57335 
L 414.942309 486.669773 
L 418.164625 486.620006 
L 421.712769 486.393984 
L 425.615466 485.954381 
L 429.902044 485.258688 
L 434.601832 484.257139 
L 439.74195 482.887526 
L 445.347104 481.080384 
L 445.347104 481.080384 
" style="fill:none;stroke:#0000ff;stroke-linecap:square;"/>
   </g>
   <g id="patch_3">
    <path d="M 81 583.2 
L 81 64.8 
" style="fill:none;stroke:#000000;stroke-linecap:square;stroke-linejoin:miter;"/>
   </g>
   <g id="patch_4">
    <path d="M 583.2 583.2 
L 583.2 64.8 
" style="fill:none;stroke:#000000;stroke-linecap:square;stroke-linejoin:miter;"/>
   </g>
   <g id="patch_5">
    <path d="M 81 583.2 
L 583.2 583.2 
" style="fill:none;stroke:#000000;stroke-linecap:square;stroke-linejoin:miter;"/>
   </g>
   <g id="patch_6">
    <path d="M 81 64.8 
L 583.2 64.8 
" style="fill:none;stroke:#000000;stroke-linecap:square;stroke-linejoin:miter;"/>
   </g>
   <g id="matplotlib.axis_1">
    <g id="xtick_1">
     <g id="line2d_2">
      <path clip-path="url(#p0bf5a97320)" d="M 81 583.2 
L 81 64.8 
" style="fill:none;stroke:#000000;stroke-dasharray:1.000000,3.000000;stroke-dashoffset:0.0;stroke-width:0.5;"/>
     </g>
     <g id="line2d_3">
      <defs>
       <path d="M 0 0 
L 0 -4 
" id="mdad66608e4" style="stroke:#000000;stroke-width:0.5;"/>
      </defs>
      <g>
       <use style="stroke:#000000;stroke-width:0.5;" x="81.0" xlink:href="#mdad66608e4" y="583.2"/>
      </g>
     </g>
     <g id="line2d_4">
      <defs>
       <path d="M 0 0 
L 0 4 
" id="m9d02261bc9" style="stroke:#000000;stroke-width:0.5;"/>
      </defs>
      <g>
       <use style="stroke:#000000;stroke-width:0.5;" x="81.0" xlink:href="#m9d02261bc9" y="64.8"/>
      </g>
     </g>
     <g id="text_1">
      <!-- 15 -->
      <defs>
       <path d="M 12.40625 8.296875 
L 28.515625 8.296875 
L 28.515625 63.921875 
L 10.984375 60.40625 
L 10.984375 69.390625 
L 28.421875 72.90625 
L 38.28125 72.90625 
L 38.28125 8.296875 
L 54.390625 8.296875 
L 54.390625 0 
L 12.40625 0 
z
" id="BitstreamVeraSans-Roman-31"/>
       <path d="M 10.796875 72.90625 
L 49.515625 72.90625 
L 49.515625 64.59375 
L 19.828125 64.59375 
L 19.828125 46.734375 
Q 21.96875 47.46875 24.109375 47.828125 
Q 26.265625 48.1875 28.421875 48.1875 
Q 40.625 48.1875 47.75 41.5 
Q 54.890625 34.8125 54.890625 23.390625 
Q 54.890625 11.625 47.5625 5.09375 
Q 40.234375 -1.421875 26.90625 -1.421875 
Q 22.3125 -1.421875 17.546875 -0.640625 
Q 12.796875 0.140625 7.71875 1.703125 
L 7.71875 11.625 
Q 12.109375 9.234375 16.796875 8.0625 
Q 21.484375 6.890625 26.703125 6.890625 
Q 35.15625 6.890625 40.078125 11.328125 
Q 45.015625 15.765625 45.015625 23.390625 
Q 45.015625 31 40.078125 35.4375 
Q 35.15625 39.890625 26.703125 39.890625 
Q 22.75 39.890625 18.8125 39.015625 
Q 14.890625 38.140625 10.796875 36.28125 
z
" id="BitstreamVeraSans-Roman-35"/>
       <path d="M 10.59375 35.5 
L 73.1875 35.5 
L 73.1875 27.203125 
L 10.59375 27.203125 
z
" id="BitstreamVeraSans-Roman-2212"/>
      </defs>
      <g transform="translate(68.3371875 596.318125)scale(0.12 -0.12)">
       <use xlink:href="#BitstreamVeraSans-Roman-2212"/>
       <use x="83.7890625" xlink:href="#BitstreamVeraSans-Roman-31"/>
       <use x="147.412109375" xlink:href="#BitstreamVeraSans-Roman-35"/>
      </g>
     </g>
    </g>
    <g id="xtick_2">
     <g id="line2d_5">
      <path clip-path="url(#p0bf5a97320)" d="M 181.44 583.2 
L 181.44 64.8 
" style="fill:none;stroke:#000000;stroke-dasharray:1.000000,3.000000;stroke-dashoffset:0.0;stroke-width:0.5;"/>
     </g>
     <g id="line2d_6">
      <g>
       <use style="stroke:#000000;stroke-width:0.5;" x="181.44" xlink:href="#mdad66608e4" y="583.2"/>
      </g>
     </g>
     <g id="line2d_7">
      <g>
       <use style="stroke:#000000;stroke-width:0.5;" x="181.44" xlink:href="#m9d02261bc9" y="64.8"/>
      </g>
     </g>
     <g id="text_2">
      <!-- 10 -->
      <defs>
       <path d="M 31.78125 66.40625 
Q 24.171875 66.40625 20.328125 58.90625 
Q 16.5 51.421875 16.5 36.375 
Q 16.5 21.390625 20.328125 13.890625 
Q 24.171875 6.390625 31.78125 6.390625 
Q 39.453125 6.390625 43.28125 13.890625 
Q 47.125 21.390625 47.125 36.375 
Q 47.125 51.421875 43.28125 58.90625 
Q 39.453125 66.40625 31.78125 66.40625 
M 31.78125 74.21875 
Q 44.046875 74.21875 50.515625 64.515625 
Q 56.984375 54.828125 56.984375 36.375 
Q 56.984375 17.96875 50.515625 8.265625 
Q 44.046875 -1.421875 31.78125 -1.421875 
Q 19.53125 -1.421875 13.0625 8.265625 
Q 6.59375 17.96875 6.59375 36.375 
Q 6.59375 54.828125 13.0625 64.515625 
Q 19.53125 74.21875 31.78125 74.21875 
" id="BitstreamVeraSans-Roman-30"/>
      </defs>
      <g transform="translate(168.7771875 596.318125)scale(0.12 -0.12)">
       <use xlink:href="#BitstreamVeraSans-Roman-2212"/>
       <use x="83.7890625" xlink:href="#BitstreamVeraSans-Roman-31"/>
       <use x="147.412109375" xlink:href="#BitstreamVeraSans-Roman-30"/>
      </g>
     </g>
    </g>
    <g id="xtick_3">
     <g id="line2d_8">
      <path clip-path="url(#p0bf5a97320)" d="M 281.88 583.2 
L 281.88 64.8 
" style="fill:none;stroke:#000000;stroke-dasharray:1.000000,3.000000;stroke-dashoffset:0.0;stroke-width:0.5;"/>
     </g>
     <g id="line2d_9">
      <g>
       <use style="stroke:#000000;stroke-width:0.5;" x="281.88" xlink:href="#mdad66608e4" y="583.2"/>
      </g>
     </g>
     <g id="line2d_10">
      <g>
       <use style="stroke:#000000;stroke-width:0.5;" x="281.88" xlink:href="#m9d02261bc9" y="64.8"/>
      </g>
     </g>
     <g id="text_3">
      <!-- 5 -->
      <g transform="translate(273.0346875 596.318125)scale(0.12 -0.12)">
       <use xlink:href="#BitstreamVeraSans-Roman-2212"/>
       <use x="83.7890625" xlink:href="#BitstreamVeraSans-Roman-35"/>
      </g>
     </g>
    </g>
    <g id="xtick_4">
     <g id="line2d_11">
      <path clip-path="url(#p0bf5a97320)" d="M 382.32 583.2 
L 382.32 64.8 
" style="fill:none;stroke:#000000;stroke-dasharray:1.000000,3.000000;stroke-dashoffset:0.0;stroke-width:0.5;"/>
     </g>
     <g id="line2d_12">
      <g>
       <use style="stroke:#000000;stroke-width:0.5;" x="382.32" xlink:href="#mdad66608e4" y="583.2"/>
      </g>
     </g>
     <g id="line2d_13">
      <g>
       <use style="stroke:#000000;stroke-width:0.5;" x="382.32" xlink:href="#m9d02261bc9" y="64.8"/>
      </g>
     </g>
     <g id="text_4">
      <!-- 0 -->
      <g transform="translate(378.5025 596.318125)scale(0.12 -0.12)">
       <use xlink:href="#BitstreamVeraSans-Roman-30"/>
      </g>
     </g>
    </g>
    <g id="xtick_5">
     <g id="line2d_14">
      <path clip-path="url(#p0bf5a97320)" d="M 482.76 583.2 
L 482.76 64.8 
" style="fill:none;stroke:#000000;stroke-dasharray:1.000000,3.000000;stroke-dashoffset:0.0;stroke-width:0.5;"/>
     </g>
     <g id="line2d_15">
      <g>
       <use style="stroke:#000000;stroke-width:0.5;" x="482.76" xlink:href="#mdad66608e4" y="583.2"/>
      </g>
     </g>
     <g id="line2d_16">
      <g>
       <use style="stroke:#000000;stroke-width:0.5;" x="482.76" xlink:href="#m9d02261bc9" y="64.8"/>
      </g>
     </g>
     <g id="text_5">
      <!-- 5 -->
      <g transform="translate(478.9425 596.318125)scale(0.12 -0.12)">
       <use xlink:href="#BitstreamVeraSans-Roman-35"/>
      </g>
     </g>
    </g>
    <g id="xtick_6">
     <g id="line2d_17">
      <path clip-path="url(#p0bf5a97320)" d="M 583.2 583.2 
L 583.2 64.8 
" style="fill:none;stroke:#000000;stroke-dasharray:1.000000,3.000000;stroke-dashoffset:0.0;stroke-width:0.5;"/>
     </g>
     <g id="line2d_18">
      <g>
       <use style="stroke:#000000;stroke-width:0.5;" x="583.2" xlink:href="#mdad66608e4" y="583.2"/>
      </g>
     </g>
     <g id="line2d_19">
      <g>
       <use style="stroke:#000000;stroke-width:0.5;" x="583.2" xlink:href="#m9d02261bc9" y="64.8"/>
      </g>
     </g>
     <g id="text_6">
      <!-- 10 -->
      <g transform="translate(575.565 596.318125)scale(0.12 -0.12)">
       <use xlink:href="#BitstreamVeraSans-Roman-31"/>
       <use x="63.623046875" xlink:href="#BitstreamVeraSans-Roman-30"/>
      </g>
     </g>
    </g>
    <g id="text_7">
     <!-- x -->
     <defs>
      <path d="M 54.890625 54.6875 
L 35.109375 28.078125 
L 55.90625 0 
L 45.3125 0 
L 29.390625 21.484375 
L 13.484375 0 
L 2.875 0 
L 24.125 28.609375 
L 4.6875 54.6875 
L 15.28125 54.6875 
L 29.78125 35.203125 
L 44.28125 54.6875 
z
" id="BitstreamVeraSans-Roman-78"/>
     </defs>
     <g transform="translate(326.773125 617.4909375)scale(0.18 -0.18)">
      <use xlink:href="#BitstreamVeraSans-Roman-78"/>
     </g>
    </g>
   </g>
   <g id="matplotlib.axis_2">
    <g id="ytick_1">
     <g id="line2d_20">
      <path clip-path="url(#p0bf5a97320)" d="M 81 583.2 
L 583.2 583.2 
" style="fill:none;stroke:#000000;stroke-dasharray:1.000000,3.000000;stroke-dashoffset:0.0;stroke-width:0.5;"/>
     </g>
     <g id="line2d_21">
      <defs>
       <path d="M 0 0 
L 4 0 
" id="m1cd77743fe" style="stroke:#000000;stroke-width:0.5;"/>
      </defs>
      <g>
       <use style="stroke:#000000;stroke-width:0.5;" x="81.0" xlink:href="#m1cd77743fe" y="583.2"/>
      </g>
     </g>
     <g id="line2d_22">
      <defs>
       <path d="M 0 0 
L -4 0 
" id="ma4de7ee99a" style="stroke:#000000;stroke-width:0.5;"/>
      </defs>
      <g>
       <use style="stroke:#000000;stroke-width:0.5;" x="583.2" xlink:href="#ma4de7ee99a" y="583.2"/>
      </g>
     </g>
     <g id="text_8">
      <!-- 10 -->
      <g transform="translate(61.73 586.51125)scale(0.12 -0.12)">
       <use xlink:href="#BitstreamVeraSans-Roman-31"/>
       <use x="63.623046875" xlink:href="#BitstreamVeraSans-Roman-30"/>
      </g>
     </g>
    </g>
    <g id="ytick_2">
     <g id="line2d_23">
      <path clip-path="url(#p0bf5a97320)" d="M 81 479.52 
L 583.2 479.52 
" style="fill:none;stroke:#000000;stroke-dasharray:1.000000,3.000000;stroke-dashoffset:0.0;stroke-width:0.5;"/>
     </g>
     <g id="line2d_24">
      <g>
       <use style="stroke:#000000;stroke-width:0.5;" x="81.0" xlink:href="#m1cd77743fe" y="479.52"/>
      </g>
     </g>
     <g id="line2d_25">
      <g>
       <use style="stroke:#000000;stroke-width:0.5;" x="583.2" xlink:href="#ma4de7ee99a" y="479.52"/>
      </g>
     </g>
     <g id="text_9">
      <!-- 20 -->
      <defs>
       <path d="M 19.1875 8.296875 
L 53.609375 8.296875 
L 53.609375 0 
L 7.328125 0 
L 7.328125 8.296875 
Q 12.9375 14.109375 22.625 23.890625 
Q 32.328125 33.6875 34.8125 36.53125 
Q 39.546875 41.84375 41.421875 45.53125 
Q 43.3125 49.21875 43.3125 52.78125 
Q 43.3125 58.59375 39.234375 62.25 
Q 35.15625 65.921875 28.609375 65.921875 
Q 23.96875 65.921875 18.8125 64.3125 
Q 13.671875 62.703125 7.8125 59.421875 
L 7.8125 69.390625 
Q 13.765625 71.78125 18.9375 73 
Q 24.125 74.21875 28.421875 74.21875 
Q 39.75 74.21875 46.484375 68.546875 
Q 53.21875 62.890625 53.21875 53.421875 
Q 53.21875 48.921875 51.53125 44.890625 
Q 49.859375 40.875 45.40625 35.40625 
Q 44.1875 33.984375 37.640625 27.21875 
Q 31.109375 20.453125 19.1875 8.296875 
" id="BitstreamVeraSans-Roman-32"/>
      </defs>
      <g transform="translate(61.73 482.83125)scale(0.12 -0.12)">
       <use xlink:href="#BitstreamVeraSans-Roman-32"/>
       <use x="63.623046875" xlink:href="#BitstreamVeraSans-Roman-30"/>
      </g>
     </g>
    </g>
    <g id="ytick_3">
     <g id="line2d_26">
      <path clip-path="url(#p0bf5a97320)" d="M 81 375.84 
L 583.2 375.84 
" style="fill:none;stroke:#000000;stroke-dasharray:1.000000,3.000000;stroke-dashoffset:0.0;stroke-width:0.5;"/>
     </g>
     <g id="line2d_27">
      <g>
       <use style="stroke:#000000;stroke-width:0.5;" x="81.0" xlink:href="#m1cd77743fe" y="375.84"/>
      </g>
     </g>
     <g id="line2d_28">
      <g>
       <use style="stroke:#000000;stroke-width:0.5;" x="583.2" xlink:href="#ma4de7ee99a" y="375.84"/>
      </g>
     </g>
     <g id="text_10">
      <!-- 30 -->
      <defs>
       <path d="M 40.578125 39.3125 
Q 47.65625 37.796875 51.625 33 
Q 55.609375 28.21875 55.609375 21.1875 
Q 55.609375 10.40625 48.1875 4.484375 
Q 40.765625 -1.421875 27.09375 -1.421875 
Q 22.515625 -1.421875 17.65625 -0.515625 
Q 12.796875 0.390625 7.625 2.203125 
L 7.625 11.71875 
Q 11.71875 9.328125 16.59375 8.109375 
Q 21.484375 6.890625 26.8125 6.890625 
Q 36.078125 6.890625 40.9375 10.546875 
Q 45.796875 14.203125 45.796875 21.1875 
Q 45.796875 27.640625 41.28125 31.265625 
Q 36.765625 34.90625 28.71875 34.90625 
L 20.21875 34.90625 
L 20.21875 43.015625 
L 29.109375 43.015625 
Q 36.375 43.015625 40.234375 45.921875 
Q 44.09375 48.828125 44.09375 54.296875 
Q 44.09375 59.90625 40.109375 62.90625 
Q 36.140625 65.921875 28.71875 65.921875 
Q 24.65625 65.921875 20.015625 65.03125 
Q 15.375 64.15625 9.8125 62.3125 
L 9.8125 71.09375 
Q 15.4375 72.65625 20.34375 73.4375 
Q 25.25 74.21875 29.59375 74.21875 
Q 40.828125 74.21875 47.359375 69.109375 
Q 53.90625 64.015625 53.90625 55.328125 
Q 53.90625 49.265625 50.4375 45.09375 
Q 46.96875 40.921875 40.578125 39.3125 
" id="BitstreamVeraSans-Roman-33"/>
      </defs>
      <g transform="translate(61.73 379.15125)scale(0.12 -0.12)">
       <use xlink:href="#BitstreamVeraSans-Roman-33"/>
       <use x="63.623046875" xlink:href="#BitstreamVeraSans-Roman-30"/>
      </g>
     </g>
    </g>
    <g id="ytick_4">
     <g id="line2d_29">
      <path clip-path="url(#p0bf5a97320)" d="M 81 272.16 
L 583.2 272.16 
" style="fill:none;stroke:#000000;stroke-dasharray:1.000000,3.000000;stroke-dashoffset:0.0;stroke-width:0.5;"/>
     </g>
     <g id="line2d_30">
      <g>
       <use style="stroke:#000000;stroke-width:0.5;" x="81.0" xlink:href="#m1cd77743fe" y="272.16"/>
      </g>
     </g>
     <g id="line2d_31">
      <g>
       <use style="stroke:#000000;stroke-width:0.5;" x="583.2" xlink:href="#ma4de7ee99a" y="272.16"/>
      </g>
     </g>
     <g id="text_11">
      <!-- 40 -->
      <defs>
       <path d="M 37.796875 64.3125 
L 12.890625 25.390625 
L 37.796875 25.390625 
z
M 35.203125 72.90625 
L 47.609375 72.90625 
L 47.609375 25.390625 
L 58.015625 25.390625 
L 58.015625 17.1875 
L 47.609375 17.1875 
L 47.609375 0 
L 37.796875 0 
L 37.796875 17.1875 
L 4.890625 17.1875 
L 4.890625 26.703125 
z
" id="BitstreamVeraSans-Roman-34"/>
      </defs>
      <g transform="translate(61.73 275.47125)scale(0.12 -0.12)">
       <use xlink:href="#BitstreamVeraSans-Roman-34"/>
       <use x="63.623046875" xlink:href="#BitstreamVeraSans-Roman-30"/>
      </g>
     </g>
    </g>
    <g id="ytick_5">
     <g id="line2d_32">
      <path clip-path="url(#p0bf5a97320)" d="M 81 168.48 
L 583.2 168.48 
" style="fill:none;stroke:#000000;stroke-dasharray:1.000000,3.000000;stroke-dashoffset:0.0;stroke-width:0.5;"/>
     </g>
     <g id="line2d_33">
      <g>
       <use style="stroke:#000000;stroke-width:0.5;" x="81.0" xlink:href="#m1cd77743fe" y="168.48"/>
      </g>
     </g>
     <g id="line2d_34">
      <g>
       <use style="stroke:#000000;stroke-width:0.5;" x="583.2" xlink:href="#ma4de7ee99a" y="168.48"/>
      </g>
     </g>
     <g id="text_12">
      <!-- 50 -->
      <g transform="translate(61.73 171.79125)scale(0.12 -0.12)">
       <use xlink:href="#BitstreamVeraSans-Roman-35"/>
       <use x="63.623046875" xlink:href="#BitstreamVeraSans-Roman-30"/>
      </g>
     </g>
    </g>
    <g id="ytick_6">
     <g id="line2d_35">
      <path clip-path="url(#p0bf5a97320)" d="M 81 64.8 
L 583.2 64.8 
" style="fill:none;stroke:#000000;stroke-dasharray:1.000000,3.000000;stroke-dashoffset:0.0;stroke-width:0.5;"/>
     </g>
     <g id="line2d_36">
      <g>
       <use style="stroke:#000000;stroke-width:0.5;" x="81.0" xlink:href="#m1cd77743fe" y="64.8"/>
      </g>
     </g>
     <g id="line2d_37">
      <g>
       <use style="stroke:#000000;stroke-width:0.5;" x="583.2" xlink:href="#ma4de7ee99a" y="64.8"/>
      </g>
     </g>
     <g id="text_13">
      <!-- 60 -->
      <defs>
       <path d="M 33.015625 40.375 
Q 26.375 40.375 22.484375 35.828125 
Q 18.609375 31.296875 18.609375 23.390625 
Q 18.609375 15.53125 22.484375 10.953125 
Q 26.375 6.390625 33.015625 6.390625 
Q 39.65625 6.390625 43.53125 10.953125 
Q 47.40625 15.53125 47.40625 23.390625 
Q 47.40625 31.296875 43.53125 35.828125 
Q 39.65625 40.375 33.015625 40.375 
M 52.59375 71.296875 
L 52.59375 62.3125 
Q 48.875 64.0625 45.09375 64.984375 
Q 41.3125 65.921875 37.59375 65.921875 
Q 27.828125 65.921875 22.671875 59.328125 
Q 17.53125 52.734375 16.796875 39.40625 
Q 19.671875 43.65625 24.015625 45.921875 
Q 28.375 48.1875 33.59375 48.1875 
Q 44.578125 48.1875 50.953125 41.515625 
Q 57.328125 34.859375 57.328125 23.390625 
Q 57.328125 12.15625 50.6875 5.359375 
Q 44.046875 -1.421875 33.015625 -1.421875 
Q 20.359375 -1.421875 13.671875 8.265625 
Q 6.984375 17.96875 6.984375 36.375 
Q 6.984375 53.65625 15.1875 63.9375 
Q 23.390625 74.21875 37.203125 74.21875 
Q 40.921875 74.21875 44.703125 73.484375 
Q 48.484375 72.75 52.59375 71.296875 
" id="BitstreamVeraSans-Roman-36"/>
      </defs>
      <g transform="translate(61.73 68.11125)scale(0.12 -0.12)">
       <use xlink:href="#BitstreamVeraSans-Roman-36"/>
       <use x="63.623046875" xlink:href="#BitstreamVeraSans-Roman-30"/>
      </g>
     </g>
    </g>
    <g id="text_14">
     <!-- y -->
     <defs>
      <path d="M 32.171875 -5.078125 
Q 28.375 -14.84375 24.75 -17.8125 
Q 21.140625 -20.796875 15.09375 -20.796875 
L 7.90625 -20.796875 
L 7.90625 -13.28125 
L 13.1875 -13.28125 
Q 16.890625 -13.28125 18.9375 -11.515625 
Q 21 -9.765625 23.484375 -3.21875 
L 25.09375 0.875 
L 2.984375 54.6875 
L 12.5 54.6875 
L 29.59375 11.921875 
L 46.6875 54.6875 
L 56.203125 54.6875 
z
" id="BitstreamVeraSans-Roman-79"/>
     </defs>
     <g transform="translate(52.9865625 329.326875)rotate(-90.0)scale(0.18 -0.18)">
      <use xlink:href="#BitstreamVeraSans-Roman-79"/>
     </g>
    </g>
   </g>
   <g id="text_15">
    <!-- Data -->
    <defs>
     <path d="M 18.3125 70.21875 
L 18.3125 54.6875 
L 36.8125 54.6875 
L 36.8125 47.703125 
L 18.3125 47.703125 
L 18.3125 18.015625 
Q 18.3125 11.328125 20.140625 9.421875 
Q 21.96875 7.515625 27.59375 7.515625 
L 36.8125 7.515625 
L 36.8125 0 
L 27.59375 0 
Q 17.1875 0 13.234375 3.875 
Q 9.28125 7.765625 9.28125 18.015625 
L 9.28125 47.703125 
L 2.6875 47.703125 
L 2.6875 54.6875 
L 9.28125 54.6875 
L 9.28125 70.21875 
z
" id="BitstreamVeraSans-Roman-74"/>
     <path d="M 34.28125 27.484375 
Q 23.390625 27.484375 19.1875 25 
Q 14.984375 22.515625 14.984375 16.5 
Q 14.984375 11.71875 18.140625 8.90625 
Q 21.296875 6.109375 26.703125 6.109375 
Q 34.1875 6.109375 38.703125 11.40625 
Q 43.21875 16.703125 43.21875 25.484375 
L 43.21875 27.484375 
z
M 52.203125 31.203125 
L 52.203125 0 
L 43.21875 0 
L 43.21875 8.296875 
Q 40.140625 3.328125 35.546875 0.953125 
Q 30.953125 -1.421875 24.3125 -1.421875 
Q 15.921875 -1.421875 10.953125 3.296875 
Q 6 8.015625 6 15.921875 
Q 6 25.140625 12.171875 29.828125 
Q 18.359375 34.515625 30.609375 34.515625 
L 43.21875 34.515625 
L 43.21875 35.40625 
Q 43.21875 41.609375 39.140625 45 
Q 35.0625 48.390625 27.6875 48.390625 
Q 23 48.390625 18.546875 47.265625 
Q 14.109375 46.140625 10.015625 43.890625 
L 10.015625 52.203125 
Q 14.9375 54.109375 19.578125 55.046875 
Q 24.21875 56 28.609375 56 
Q 40.484375 56 46.34375 49.84375 
Q 52.203125 43.703125 52.203125 31.203125 
" id="BitstreamVeraSans-Roman-61"/>
     <path d="M 19.671875 64.796875 
L 19.671875 8.109375 
L 31.59375 8.109375 
Q 46.6875 8.109375 53.6875 14.9375 
Q 60.6875 21.78125 60.6875 36.53125 
Q 60.6875 51.171875 53.6875 57.984375 
Q 46.6875 64.796875 31.59375 64.796875 
z
M 9.8125 72.90625 
L 30.078125 72.90625 
Q 51.265625 72.90625 61.171875 64.09375 
Q 71.09375 55.28125 71.09375 36.53125 
Q 71.09375 17.671875 61.125 8.828125 
Q 51.171875 0 30.078125 0 
L 9.8125 0 
z
" id="BitstreamVeraSans-Roman-44"/>
    </defs>
    <g transform="translate(305.83578125 59.8)scale(0.22 -0.22)">
     <use xlink:href="#BitstreamVeraSans-Roman-44"/>
     <use x="77.001953125" xlink:href="#BitstreamVeraSans-Roman-61"/>
     <use x="138.28125" xlink:href="#BitstreamVeraSans-Roman-74"/>
     <use x="177.490234375" xlink:href="#BitstreamVeraSans-Roman-61"/>
    </g>
   </g>
   <g id="legend_1">
    <g id="patch_7">
     <path d="M 88.2 97.4565 
L 181.638 97.4565 
L 181.638 72 
L 88.2 72 
z
" style="fill:#ffffff;stroke:#000000;stroke-linejoin:miter;"/>
    </g>
    <g id="line2d_38">
     <path d="M 98.28 83.66175 
L 118.44 83.66175 
" style="fill:none;stroke:#0000ff;stroke-linecap:square;"/>
    </g>
    <g id="line2d_39"/>
    <g id="text_16">
     <!-- data1 -->
     <defs>
      <path d="M 45.40625 46.390625 
L 45.40625 75.984375 
L 54.390625 75.984375 
L 54.390625 0 
L 45.40625 0 
L 45.40625 8.203125 
Q 42.578125 3.328125 38.25 0.953125 
Q 33.9375 -1.421875 27.875 -1.421875 
Q 17.96875 -1.421875 11.734375 6.484375 
Q 5.515625 14.40625 5.515625 27.296875 
Q 5.515625 40.1875 11.734375 48.09375 
Q 17.96875 56 27.875 56 
Q 33.9375 56 38.25 53.625 
Q 42.578125 51.265625 45.40625 46.390625 
M 14.796875 27.296875 
Q 14.796875 17.390625 18.875 11.75 
Q 22.953125 6.109375 30.078125 6.109375 
Q 37.203125 6.109375 41.296875 11.75 
Q 45.40625 17.390625 45.40625 27.296875 
Q 45.40625 37.203125 41.296875 42.84375 
Q 37.203125 48.484375 30.078125 48.484375 
Q 22.953125 48.484375 18.875 42.84375 
Q 14.796875 37.203125 14.796875 27.296875 
" id="BitstreamVeraSans-Roman-64"/>
     </defs>
     <g transform="translate(134.28 88.70175)scale(0.144 -0.144)">
      <use xlink:href="#BitstreamVeraSans-Roman-64"/>
      <use x="63.4765625" xlink:href="#BitstreamVeraSans-Roman-61"/>
      <use x="124.755859375" xlink:href="#BitstreamVeraSans-Roman-74"/>
      <use x="163.96484375" xlink:href="#BitstreamVeraSans-Roman-61"/>
      <use x="225.244140625" xlink:href="#BitstreamVeraSans-Roman-31"/>
     </g>
    </g>
   </g>
  </g>
 </g>
 <defs>
  <clipPath id="p0bf5a97320">
   <rect height="518.4" width="502.2" x="81.0" y="64.8"/>
  </clipPath>
 </defs>
</svg>
