<?xml version="1.0" encoding="utf-8" standalone="no"?>
<!DOCTYPE svg PUBLIC "-//W3C//DTD SVG 1.1//EN"
  "http://www.w3.org/Graphics/SVG/1.1/DTD/svg11.dtd">
<!-- Created with matplotlib (http://matplotlib.org/) -->
<svg height="648pt" version="1.1" viewBox="0 0 648 648" width="648pt" xmlns="http://www.w3.org/2000/svg" xmlns:xlink="http://www.w3.org/1999/xlink">
 <defs>
  <style type="text/css">
*{stroke-linecap:butt;stroke-linejoin:round;stroke-miterlimit:100000;}
  </style>
 </defs>
 <g id="figure_1">
  <g id="patch_1">
   <path d="M 0 648 
L 648 648 
L 648 0 
L 0 0 
z
" style="fill:#ffffff;"/>
  </g>
  <g id="axes_1">
   <g id="patch_2">
    <path d="M 81 583.2 
L 583.2 583.2 
L 583.2 64.8 
L 81 64.8 
z
" style="fill:#ffffff;"/>
   </g>
   <g id="line2d_1">
    <path clip-path="url(#p5acc3bae0f)" d="M 328.680788 104.566464 
L 310.014918 105.815808 
L 293.573727 107.463283 
L 279.663791 109.352333 
L 268.473938 111.328474 
L 260.082511 113.251738 
L 254.471263 115.016371 
L 251.540591 116.551872 
L 251.124602 117.827136 
L 253.006011 118.84631 
L 256.926854 119.640499 
L 262.600207 120.262579 
L 269.718055 120.775795 
L 306.225317 122.960333 
L 315.810306 123.750374 
L 325.0235 124.668979 
L 333.639322 125.707853 
L 341.469964 126.847296 
L 348.367932 128.061389 
L 354.226765 129.319027 
L 358.980255 130.591181 
L 362.59961 131.85504 
L 365.091025 133.088832 
L 366.491158 134.279078 
L 366.862619 135.420595 
L 366.289609 136.512346 
L 364.873907 137.558477 
L 362.729345 138.569357 
L 359.978796 139.554317 
L 353.168797 141.496243 
L 337.739103 145.505549 
L 330.790617 147.627878 
L 327.780126 148.713408 
L 325.145267 149.807232 
L 322.91801 150.90624 
L 321.116702 152.005248 
L 319.746951 153.100109 
L 318.802732 154.188749 
L 318.267822 155.268058 
L 318.117212 156.338035 
L 318.318661 157.397645 
L 318.834253 158.447923 
L 319.621954 159.490944 
L 320.637017 160.527744 
L 323.16541 162.589939 
L 331.684115 168.778598 
L 333.948129 170.849088 
L 335.657853 172.918541 
L 336.286808 173.950157 
L 336.763864 174.979699 
L 337.092605 176.007168 
L 337.279741 177.03049 
L 337.334581 178.051738 
L 337.094881 180.082829 
L 336.481996 182.104589 
L 335.616053 184.114944 
L 331.79152 192.091046 
L 331.130446 194.069261 
L 330.663142 196.039181 
L 330.390578 198.001843 
L 330.297822 199.955174 
L 330.43595 202.870656 
L 330.955146 206.730662 
L 332.27491 215.302925 
L 332.576896 219.064435 
L 332.661347 222.795878 
L 332.546369 227.417933 
L 331.960189 242.791603 
L 331.98894 251.594035 
L 332.134144 272.013811 
L 332.09996 357.331046 
L 331.992316 520.038144 
L 331.768551 525.943757 
L 331.428247 529.448141 
L 330.967121 531.948902 
L 330.415437 533.79648 
L 329.748197 535.316429 
L 329.022569 536.519117 
L 328.066129 537.708326 
L 326.803464 538.880947 
L 325.134034 540.030758 
L 323.535866 540.873677 
L 321.561768 541.693786 
L 319.121662 542.47968 
L 316.103825 543.218918 
L 312.369901 543.887654 
L 307.748992 544.453747 
L 302.031612 544.865357 
L 297.486702 545.015693 
L 292.253945 545.031245 
L 286.234576 544.86743 
L 279.31945 544.466189 
L 271.390214 543.753907 
L 262.322156 542.628979 
L 251.989558 540.962842 
L 246.311685 539.876275 
L 240.275074 538.586496 
L 233.869178 537.066547 
L 227.085962 535.283251 
L 219.921745 533.201357 
L 212.377696 530.779392 
L 204.46202 527.972774 
L 196.190953 524.732774 
L 187.591448 521.005478 
L 178.703512 516.733862 
L 169.582054 511.856755 
L 160.300728 506.308838 
L 150.95646 500.02583 
L 141.66576 492.942413 
L 132.580962 484.999488 
L 123.876162 476.142106 
L 115.76061 466.32672 
L 108.47871 455.529485 
L 102.299976 443.74729 
L 97.520706 431.007091 
L 94.452264 417.373171 
L 93.416058 402.95232 
L 94.715082 387.899021 
L 98.622198 372.417523 
L 105.34833 356.76288 
L 115.027398 341.231616 
L 127.681164 326.15136 
L 143.204166 311.863219 
L 161.357022 298.703117 
L 181.757558 286.968614 
L 203.907424 276.905434 
L 227.212684 268.675315 
L 251.027008 262.350835 
L 274.697703 257.902963 
L 297.61175 255.213504 
L 319.23531 254.085466 
L 339.141547 254.265869 
L 357.025023 255.471667 
L 372.701363 257.413594 
L 386.096711 259.817933 
L 397.227807 262.438963 
L 406.180694 265.076582 
L 413.08745 267.573197 
L 418.108111 269.815795 
L 421.413926 271.734912 
L 423.177988 273.294259 
L 423.56669 274.48969 
L 422.737726 275.338829 
L 420.838405 275.876928 
L 418.006165 276.150643 
L 414.370069 276.211814 
L 405.168259 275.919437 
L 388.218841 275.198861 
L 376.02124 274.979059 
L 369.930391 275.020531 
L 363.95237 275.175014 
L 358.157651 275.447693 
L 352.607337 275.834419 
L 347.353321 276.326899 
L 342.437402 276.916838 
L 337.89194 277.588685 
L 333.739988 278.331034 
L 329.995882 279.128333 
L 326.666029 279.967104 
L 323.74977 280.833869 
L 321.24026 281.718259 
L 319.125479 282.60887 
L 317.389072 283.498445 
L 316.01127 284.381798 
L 314.969623 285.25271 
L 314.239759 286.109107 
L 313.796149 286.949952 
L 313.612344 287.773171 
L 313.66156 288.579802 
L 313.917347 289.371917 
L 314.353591 290.150554 
L 315.667263 291.67465 
L 317.413194 293.170752 
L 320.480749 295.392614 
L 325.723901 299.118874 
L 328.471187 301.385318 
L 330.034401 302.905267 
L 331.359476 304.431437 
L 332.443076 305.957606 
L 333.293207 307.481702 
L 333.9262 309.001651 
L 334.364035 310.515379 
L 334.710519 312.77353 
L 334.764489 315.015091 
L 334.52874 317.979302 
L 333.853582 322.378445 
L 332.730229 329.596646 
L 332.29255 333.862042 
L 332.015329 338.7744 
L 331.907388 344.990016 
L 331.988952 357.75095 
L 332.085437 381.860698 
L 332.042036 459.167616 
L 331.867711 475.001626 
L 331.58633 482.5008 
L 331.198422 487.35095 
L 330.702073 490.911322 
L 330.114954 493.633958 
L 329.401646 495.933581 
L 328.599515 497.824704 
L 327.541045 499.68887 
L 326.452493 501.158016 
L 325.087179 502.603315 
L 323.371396 504.01751 
L 321.798941 505.052237 
L 319.928195 506.056896 
L 317.700671 507.02112 
L 315.04646 507.934541 
L 311.88193 508.775386 
L 308.108232 509.518771 
L 303.608185 510.127373 
L 298.245191 510.54624 
L 294.113759 510.685171 
L 289.477951 510.676877 
L 284.282692 510.485069 
L 278.471401 510.062054 
L 271.986493 509.35081 
L 264.772892 508.277722 
L 256.782722 506.754662 
L 247.9815 504.670694 
L 243.272036 503.377805 
L 238.358009 501.893107 
L 233.243437 500.196902 
L 227.936187 498.266381 
L 222.447476 496.077696 
L 216.793708 493.605965 
L 210.995977 490.82423 
L 205.082739 487.704499 
L 199.088815 484.218778 
L 193.05756 480.338035 
L 187.041371 476.035315 
L 181.103024 471.282624 
L 175.315336 466.056115 
L 169.763013 460.334016 
L 164.542644 454.101811 
L 159.758352 447.351206 
L 155.531502 440.081165 
L 151.984296 432.304128 
L 149.250654 424.043942 
L 147.464496 415.337933 
L 146.756394 406.243123 
L 147.253572 396.830016 
L 149.066514 387.190886 
L 152.280594 377.430451 
L 156.959424 367.67209 
L 163.12644 358.048512 
L 170.763228 348.699686 
L 179.808185 339.769728 
L 190.150994 331.393421 
L 201.63614 323.696218 
L 214.067767 316.781798 
L 227.216367 310.731034 
L 240.830842 305.59369 
L 254.649712 301.390502 
L 268.414344 298.10592 
L 281.881172 295.700544 
L 294.832073 294.105946 
L 307.08207 293.233997 
L 318.484253 292.986202 
L 328.931269 293.253696 
L 338.354399 293.930726 
L 346.72018 294.913613 
L 354.02555 296.109043 
L 360.292169 297.433037 
L 365.560916 298.817165 
L 369.886365 300.20544 
L 373.331959 301.554317 
L 375.966166 302.831654 
L 377.859794 304.01879 
L 379.083154 305.103283 
L 379.70471 306.082022 
L 379.790251 306.956045 
L 379.402553 307.734682 
L 378.600372 308.42519 
L 377.439118 309.042086 
L 375.97102 309.595738 
L 372.30496 310.57033 
L 365.613647 311.881882 
L 355.924368 313.720128 
L 351.231309 314.765222 
L 346.841311 315.910886 
L 342.853073 317.149862 
L 339.327763 318.468672 
L 336.294224 319.848653 
L 333.7549 321.271142 
L 331.69178 322.719552 
L 330.072133 324.182477 
L 328.853478 325.647475 
L 327.987903 327.108326 
L 327.425372 328.560883 
L 327.116418 330.004109 
L 327.01397 331.43593 
L 327.153799 333.56448 
L 327.534634 335.673331 
L 328.438192 339.152832 
L 330.110434 345.333197 
L 330.948932 349.402637 
L 331.519929 353.427494 
L 331.910967 358.067174 
L 332.132531 363.938573 
L 332.198605 372.864384 
L 332.261831 447.710976 
L 332.496216 460.747699 
L 332.818196 467.875699 
L 333.263348 473.072141 
L 333.802843 476.885491 
L 334.415376 479.800973 
L 335.135364 482.262336 
L 335.922964 484.28617 
L 336.936588 486.28201 
L 337.956255 487.854835 
L 339.210332 489.402778 
L 340.756003 490.919616 
L 342.664899 492.396019 
L 344.388131 493.470144 
L 346.411629 494.50487 
L 348.789579 495.48983 
L 351.585862 496.410509 
L 354.875105 497.243059 
L 358.744891 497.960525 
L 363.295325 498.51936 
L 368.641244 498.863578 
L 372.709566 498.93719 
L 377.228027 498.851136 
L 382.238141 498.570163 
L 387.781425 498.048653 
L 393.896547 497.231654 
L 400.617322 496.05385 
L 407.968024 494.433331 
L 415.956686 492.27575 
L 420.187052 490.961088 
L 424.568747 489.469133 
L 429.094908 487.782259 
L 433.754989 485.883878 
L 438.535431 483.754291 
L 443.418824 481.374835 
L 448.382903 478.725811 
L 453.400886 475.786483 
L 458.439961 472.535078 
L 463.461124 468.955008 
L 468.419009 465.024499 
L 473.26072 460.726963 
L 477.92666 456.049958 
L 482.349033 450.980006 
L 486.453179 445.51296 
L 490.157573 439.645709 
L 493.375169 433.38551 
L 496.01423 426.74688 
L 497.980845 419.752627 
L 499.18127 412.43593 
L 499.52511 404.843443 
L 498.929333 397.029082 
L 497.321624 389.06231 
L 494.6454 381.02089 
L 490.864169 372.990874 
L 485.964873 365.067648 
L 479.961909 357.348672 
L 472.899136 349.933478 
L 464.850041 342.917453 
L 455.917912 336.387686 
L 446.232148 330.422976 
L 435.944414 325.082419 
L 425.222611 320.410598 
L 414.244017 316.43136 
L 403.187749 313.147814 
L 392.227067 310.545446 
L 381.523511 308.590042 
L 371.220208 307.23287 
L 361.438691 306.414835 
L 352.276555 306.068544 
L 343.806064 306.123494 
L 336.075666 306.50711 
L 329.111257 307.149926 
L 322.919198 307.989734 
L 317.489345 308.9664 
L 312.798278 310.03223 
L 308.812819 311.142643 
L 305.49244 312.266534 
L 302.791943 313.374874 
L 300.663787 314.448998 
L 299.059258 315.47543 
L 297.930145 316.445875 
L 297.229408 317.357222 
L 296.911516 318.209472 
L 296.933612 319.003661 
L 297.254853 319.743936 
L 297.836568 320.437555 
L 298.643269 321.090739 
L 300.799715 322.301722 
L 303.484979 323.42976 
L 309.661871 325.616371 
L 315.937898 327.899405 
L 320.233265 329.730394 
L 322.792192 331.006694 
L 325.073218 332.32032 
L 327.065512 333.66505 
L 328.7711 335.030515 
L 330.201701 336.411533 
L 331.375886 337.799808 
L 332.316691 339.19223 
L 333.049623 340.583616 
L 333.601066 341.970854 
L 334.144607 344.043418 
L 334.420264 346.102502 
L 334.494121 348.823066 
L 334.30213 352.188518 
L 333.604338 358.81367 
L 332.950846 365.953075 
L 332.59638 372.310733 
L 332.363072 381.004301 
L 332.248906 395.352576 
L 332.272121 424.701274 
L 332.465339 443.418624 
L 332.76916 453.44137 
L 333.166023 459.890266 
L 333.687319 464.829581 
L 334.25643 468.350554 
L 334.95119 471.380083 
L 335.751546 473.937869 
L 336.612384 476.037389 
L 337.703313 478.105805 
L 338.785839 479.734618 
L 340.10105 481.3344 
L 341.702449 482.898931 
L 343.656258 484.417843 
L 345.401504 485.518925 
L 347.432166 486.578534 
L 349.796691 487.583194 
L 352.551593 488.518387 
L 355.762325 489.361306 
L 359.503882 490.084992 
L 363.861974 490.646938 
L 368.932185 490.997376 
L 372.759451 491.07721 
L 376.981949 491.003597 
L 381.632656 490.745434 
L 386.743043 490.260211 
L 392.342238 489.503347 
L 398.454012 488.414707 
L 405.092929 486.928973 
L 412.260327 484.965274 
L 419.937458 482.432371 
L 423.953887 480.920717 
L 428.077786 479.225549 
L 432.29727 477.334426 
L 436.597441 475.229722 
L 440.960053 472.896922 
L 445.363342 470.320474 
L 449.780693 467.483789 
L 454.181472 464.371315 
L 458.52952 460.969574 
L 462.783991 457.265088 
L 466.898348 453.246451 
L 470.820697 448.904333 
L 474.493621 444.234586 
L 477.85518 439.235136 
L 480.838583 433.910131 
L 483.374023 428.267866 
L 485.389184 422.324928 
L 486.811917 416.105165 
L 487.570909 409.638643 
L 487.599367 402.964762 
L 486.837027 396.131213 
L 485.233335 389.193984 
L 482.750291 382.21632 
L 479.36563 375.26665 
L 475.074666 368.418586 
L 469.893636 361.748851 
L 463.859368 355.332096 
L 457.030955 349.241933 
L 449.487911 343.544717 
L 441.328835 338.300582 
L 432.668396 333.556186 
L 423.632981 329.346778 
L 414.356175 325.695168 
L 404.973572 322.607578 
L 395.618423 320.075712 
L 386.416111 318.080909 
L 377.480466 316.58999 
L 368.910925 315.564595 
L 360.790519 314.955994 
L 353.184365 314.713382 
L 346.139972 314.781811 
L 339.688259 315.110477 
L 333.84471 315.648576 
L 328.611367 316.347379 
L 323.979024 317.166451 
L 319.929317 318.068467 
L 316.436901 319.02025 
L 313.471393 319.997952 
L 310.998728 320.979802 
L 308.983232 321.950246 
L 307.388245 322.896845 
L 306.176771 323.812339 
L 305.313154 324.692582 
L 304.762408 325.533427 
L 304.49122 326.336947 
L 304.467784 327.103142 
L 304.662638 327.835123 
L 305.047658 328.536 
L 305.59673 329.20992 
L 307.092281 330.494515 
L 308.977373 331.718976 
L 312.225268 333.506419 
L 318.960422 337.123814 
L 321.996021 339.00768 
L 324.649896 340.943386 
L 326.88082 342.919526 
L 328.690531 344.923661 
L 330.108978 346.94231 
L 331.182241 348.965107 
L 331.963485 350.983757 
L 332.506506 352.996186 
L 332.946137 355.660762 
L 333.153832 358.305638 
L 333.202332 362.229926 
L 332.993575 368.66327 
L 332.552526 381.761165 
L 332.388954 394.321997 
L 332.368684 415.208333 
L 332.547063 434.097792 
L 332.853064 444.988339 
L 333.261577 452.140186 
L 333.755665 457.247462 
L 334.361072 461.338675 
L 335.018552 464.464627 
L 335.7638 467.10432 
L 336.734954 469.701504 
L 337.770474 471.831091 
L 339.072361 473.923354 
L 340.354979 475.564608 
L 341.903195 477.168538 
L 343.775849 478.727885 
L 345.436105 479.86007 
L 347.35548 480.949747 
L 349.576058 481.987584 
L 352.14682 482.959066 
L 355.123861 483.84553 
L 358.571632 484.620019 
L 362.562615 485.249357 
L 367.177833 485.687923 
L 372.505338 485.875584 
L 376.498665 485.822707 
L 380.877179 485.592538 
L 385.667163 485.149824 
L 390.892052 484.452058 
L 396.57026 483.449472 
L 402.711998 482.080896 
L 409.315426 480.278938 
L 416.362129 477.9648 
L 420.039572 476.586893 
L 423.809588 475.047245 
L 427.661964 473.332378 
L 431.583979 471.430886 
L 435.560231 469.327219 
L 439.571972 467.008934 
L 443.597105 464.46359 
L 447.60985 461.677709 
L 451.580411 458.639885 
L 455.474804 455.337677 
L 459.254864 451.76279 
L 462.878069 447.906931 
L 466.297047 443.765952 
L 469.461409 439.335706 
L 472.316081 434.620339 
L 474.803813 429.626074 
L 476.865009 424.36224 
L 478.439239 418.848538 
L 479.466907 413.105702 
L 479.890429 407.165875 
L 479.656906 401.06327 
L 478.719801 394.841434 
L 477.041616 388.550131 
L 474.595735 382.244314 
L 471.368765 375.981005 
L 467.362715 369.82345 
L 462.595498 363.834893 
L 457.102267 358.077542 
L 450.935419 352.611533 
L 444.163419 347.489741 
L 436.869801 342.76297 
L 429.14948 338.467507 
L 421.10725 334.633421 
L 412.852923 331.279373 
L 404.497989 328.40951 
L 396.151927 326.02176 
L 387.918526 324.098496 
L 379.8927 322.617946 
L 372.158485 321.547968 
L 364.786859 320.851238 
L 357.835239 320.486285 
L 351.346982 320.410598 
L 345.352137 320.580634 
L 339.86803 320.955955 
L 334.901004 321.495091 
L 330.447708 322.161754 
L 326.49677 322.925875 
L 323.030452 323.756352 
L 320.026158 324.630374 
L 317.457756 325.528243 
L 315.29689 326.43337 
L 313.513913 327.333312 
L 312.078625 328.218739 
L 310.960895 329.084467 
L 310.131596 329.925312 
L 309.562101 330.7392 
L 309.22546 331.525094 
L 309.095892 332.284032 
L 309.148958 333.01705 
L 309.362225 333.727258 
L 309.7141 334.41673 
L 310.757002 335.742797 
L 312.13822 337.018061 
L 314.592973 338.879117 
L 321.49911 343.841242 
L 323.762877 345.753101 
L 325.730614 347.69399 
L 327.386049 349.656653 
L 328.738742 351.632794 
L 329.814488 353.614118 
L 330.64774 355.59648 
L 331.276051 357.572621 
L 331.858527 360.195725 
L 332.221055 362.801203 
L 332.463201 366.029798 
L 332.572086 370.495296 
L 332.500794 379.239667 
L 332.325297 399.48215 
L 332.369817 423.715277 
L 332.59496 440.044877 
L 332.921817 449.254771 
L 333.369587 455.818752 
L 333.883932 460.392077 
L 334.481298 463.981478 
L 335.202073 467.070106 
L 336.02399 469.675584 
L 336.900446 471.815539 
L 338.002491 473.92128 
L 339.088431 475.579123 
L 340.399575 477.205862 
L 341.986092 478.79735 
L 343.909735 480.342182 
L 345.618789 481.461926 
L 347.598076 482.539162 
L 349.892109 483.561446 
L 352.55243 484.515302 
L 355.638281 485.379994 
L 359.217963 486.127526 
L 363.367976 486.720576 
L 368.174198 487.112486 
L 373.729367 487.236902 
L 377.89679 487.128038 
L 382.468986 486.831514 
L 387.472739 486.305856 
L 392.931653 485.506483 
L 398.863472 484.377408 
L 405.276232 482.855386 
L 412.164407 480.865766 
L 419.502721 478.321459 
L 423.325634 476.811878 
L 427.238944 475.127078 
L 431.230597 473.254618 
L 435.285527 471.178944 
L 439.385656 468.887616 
L 443.509387 466.366118 
L 447.631445 463.600973 
L 451.722031 460.578701 
L 455.747332 457.287898 
L 459.669179 453.717158 
L 463.444384 449.857152 
L 467.025237 445.703731 
L 470.359845 441.250675 
L 473.391961 436.501094 
L 476.062326 431.459136 
L 478.308834 426.134131 
L 480.068375 420.542669 
L 481.277673 414.707558 
L 481.875458 408.656794 
L 481.804481 402.426662 
L 481.013851 396.061747 
L 479.46155 389.610778 
L 477.116109 383.130778 
L 473.960284 376.680845 
L 469.9919 370.327334 
L 465.226357 364.135565 
L 459.696465 358.171891 
L 453.454119 352.499558 
L 446.56812 347.177664 
L 439.123507 342.257011 
L 431.218879 337.781146 
L 422.963046 333.781171 
L 414.471179 330.277824 
L 405.860625 327.280435 
L 397.24756 324.783821 
L 388.741966 322.773466 
L 380.445287 321.225523 
L 372.447083 320.107853 
L 364.823352 319.380019 
L 357.635531 318.999514 
L 350.930491 318.920717 
L 344.74029 319.09801 
L 339.083811 319.487846 
L 333.96795 320.047718 
L 329.389258 320.738227 
L 325.335751 321.526195 
L 321.788629 322.382592 
L 318.723953 323.280461 
L 316.114104 324.199066 
L 313.929065 325.122854 
L 312.137383 326.039386 
L 310.707452 326.938291 
L 309.607634 327.812314 
L 308.806792 328.659379 
L 308.275297 329.476378 
L 307.984523 330.263309 
L 307.907519 331.02121 
L 308.01884 331.751117 
L 308.294716 332.456141 
L 308.712881 333.139392 
L 309.895562 334.451981 
L 311.420408 335.713766 
L 314.086756 337.555123 
L 320.597745 341.866138 
L 323.081342 343.769702 
L 325.251448 345.707482 
L 327.082654 347.672218 
L 328.580549 349.654579 
L 329.770662 351.645235 
L 330.689595 353.637965 
L 331.378484 355.626547 
L 332.0099 358.265203 
L 332.39403 360.886234 
L 332.637925 364.134528 
L 332.724846 368.626982 
L 332.594595 377.423194 
L 332.376926 393.705101 
L 332.351664 414.636019 
L 332.521346 434.071872 
L 332.809505 444.963456 
L 333.194168 452.116339 
L 333.712775 457.682918 
L 334.306918 461.76791 
L 334.952931 464.888678 
L 335.685892 467.523187 
L 336.641914 470.117261 
L 337.662183 472.243738 
L 338.94589 474.333926 
L 340.211501 475.973107 
L 341.740148 477.578074 
L 343.590336 479.137421 
L 345.231626 480.270643 
L 347.130059 481.362394 
L 349.327636 482.404378 
L 351.873121 483.381043 
L 354.822541 484.273728 
L 358.240347 485.057549 
L 362.199357 485.699328 
L 366.781095 486.154483 
L 372.074116 486.36288 
L 376.044341 486.326592 
L 380.400592 486.117158 
L 385.16965 485.698291 
L 390.375958 485.028518 
L 396.0391 484.057037 
L 402.170962 482.724749 
L 408.771544 480.964262 
L 415.824775 478.695744 
L 419.509919 477.343757 
L 423.290983 475.830029 
L 427.158592 474.143155 
L 431.100025 472.268621 
L 435.10055 470.193984 
L 439.141921 467.905766 
L 443.202376 465.389453 
L 447.256804 462.633638 
L 451.275743 459.624845 
L 455.225713 456.35063 
L 459.068882 452.802701 
L 462.762731 448.970688 
L 466.260554 444.850445 
L 469.511294 440.438861 
L 472.460213 435.736973 
L 475.049221 430.749965 
L 477.218056 425.488205 
L 478.905448 419.968282 
L 480.050129 414.211968 
L 480.593174 408.248294 
L 480.47951 402.113549 
L 479.660589 395.849203 
L 478.096069 389.505024 
L 475.756654 383.134925 
L 472.626274 376.798003 
L 468.704092 370.558541 
L 464.005508 364.478746 
L 458.563334 358.623936 
L 452.428124 353.054246 
L 445.667341 347.827738 
L 438.363511 342.994176 
L 430.612054 338.59296 
L 422.518264 334.657267 
L 414.19363 331.204723 
L 405.751815 328.244659 
L 397.304978 325.773965 
L 388.959754 323.778125 
L 380.814237 322.23433 
L 372.955644 321.110438 
L 365.457798 320.370163 
L 358.38113 319.970995 
L 351.771174 319.869389 
L 345.660019 320.021798 
L 340.066733 320.384678 
L 334.998799 320.917594 
L 330.453643 321.583219 
L 326.420336 322.347341 
L 322.881282 323.181965 
L 319.813811 324.062208 
L 317.19154 324.966298 
L 314.985694 325.877645 
L 313.166056 326.784845 
L 311.701808 327.676493 
L 310.562483 328.548442 
L 309.71795 329.393434 
L 309.139249 330.210432 
L 308.79859 330.999437 
L 308.669859 331.761485 
L 308.727947 332.495539 
L 308.949584 333.205747 
L 309.313345 333.895219 
L 310.38755 335.219213 
L 311.807437 336.491366 
L 314.327812 338.347238 
L 321.406773 343.300032 
L 323.722634 345.211891 
L 325.732774 347.153818 
L 327.420818 349.11959 
L 328.797014 351.098842 
L 329.888311 353.084314 
L 330.730489 355.069786 
L 331.362504 357.050074 
L 331.944 359.677325 
L 332.301156 362.287987 
L 332.533454 365.521766 
L 332.627241 369.994522 
L 332.532267 378.752371 
L 332.34301 397.292429 
L 332.362446 420.646349 
L 332.573422 438.164122 
L 332.892517 447.92352 
L 333.312185 454.523789 
L 333.85159 459.579226 
L 334.517641 463.62793 
L 335.245563 466.720704 
L 336.074963 469.329293 
L 336.958768 471.472358 
L 338.06935 473.580173 
L 339.163075 475.239053 
L 340.482923 476.868902 
L 342.079149 478.46039 
L 344.013523 480.006259 
L 345.731315 481.124966 
L 347.719927 482.201165 
L 350.023853 483.22345 
L 352.694385 484.175232 
L 355.790783 485.035776 
L 359.380843 485.779162 
L 363.541235 486.367027 
L 368.356664 486.75168 
L 371.976354 486.862618 
L 375.956456 486.82944 
L 380.325596 486.623117 
L 385.111228 486.20736 
L 390.33846 485.540698 
L 396.027549 484.572326 
L 402.19105 483.242112 
L 408.829799 481.481626 
L 415.928228 479.211034 
L 419.638649 477.855936 
L 423.447167 476.339098 
L 427.344071 474.64704 
L 431.316808 472.766285 
L 435.350646 470.68439 
L 439.427003 468.385805 
L 443.524118 465.858086 
L 447.616881 463.088794 
L 451.675327 460.062374 
L 455.66564 456.769498 
L 459.549655 453.197722 
L 463.284182 449.339789 
L 466.822013 445.189478 
L 470.111256 440.744717 
L 473.096333 436.004467 
L 475.718319 430.975987 
L 477.915779 425.667571 
L 479.626272 420.097882 
L 480.787693 414.287654 
L 481.339611 408.267994 
L 481.226114 402.073114 
L 480.397484 395.74656 
L 478.812708 389.339136 
L 476.441822 382.905792 
L 473.26842 376.506662 
L 469.291498 370.206029 
L 464.527127 364.06921 
L 459.008953 358.160486 
L 452.788537 352.543104 
L 445.934846 347.275123 
L 438.532585 342.40631 
L 430.679014 337.978138 
L 422.482106 334.022746 
L 414.05519 330.558797 
L 405.514609 327.594586 
L 396.974196 325.125965 
L 388.542425 323.138419 
L 380.3189 321.608102 
L 372.391841 320.501837 
L 364.83574 319.781261 
L 357.711196 319.403866 
L 351.063909 319.325069 
L 344.925518 319.500288 
L 339.314505 319.884941 
L 334.237648 320.438592 
L 329.691566 321.12288 
L 325.664424 321.90359 
L 322.137792 322.751693 
L 319.088065 323.643341 
L 316.488075 324.556762 
L 314.308226 325.475366 
L 312.517715 326.38775 
L 311.085106 327.282509 
L 309.979094 328.155494 
L 309.169548 329.000486 
L 308.62667 329.816448 
L 308.322671 330.603379 
L 308.230434 331.36128 
L 308.325182 332.093261 
L 308.583313 332.799322 
L 308.982897 333.484646 
L 310.126406 334.800346 
L 311.611412 336.066278 
L 314.219336 337.913856 
L 320.61641 342.230054 
L 323.064669 344.132582 
L 325.207975 346.068288 
L 327.02028 348.03095 
L 328.506173 350.010202 
L 329.689992 351.998784 
L 330.607127 353.988403 
L 331.297576 355.973875 
L 331.934573 358.610458 
L 332.326542 361.228378 
L 332.581315 364.472525 
L 332.682612 368.960832 
L 332.583753 377.127706 
L 332.362138 395.182541 
L 332.354826 417.090125 
L 332.543406 435.848947 
L 332.842913 446.181696 
L 333.257156 453.299328 
L 333.760412 458.380685 
L 334.379369 462.452198 
L 335.053606 465.562598 
L 335.819812 468.188813 
L 336.820596 470.772518 
L 337.889998 472.890701 
L 338.94199 474.556838 
L 340.210262 476.194982 
L 341.742625 477.797875 
L 343.597936 479.356186 
L 345.244248 480.487334 
L 347.148925 481.578048 
L 349.354253 482.617958 
L 351.909446 483.59255 
L 354.870752 484.483162 
L 358.302955 485.263872 
L 362.279709 485.902541 
L 366.882874 486.352512 
L 372.201842 486.554688 
L 376.192156 486.513216 
L 380.57067 486.295488 
L 385.364671 485.868326 
L 390.598432 485.187149 
L 396.291706 484.203226 
L 402.456211 482.854349 
L 409.091612 481.074163 
L 416.181002 478.780762 
L 419.88456 477.413222 
L 423.684038 475.883942 
L 427.569727 474.179443 
L 431.529071 472.28521 
L 435.546504 470.189837 
L 439.603778 467.87881 
L 443.678796 465.337613 
L 447.745946 462.554842 
L 451.775432 459.517018 
L 455.732935 456.211699 
L 459.580457 452.630592 
L 463.27464 448.764365 
L 466.768278 444.606797 
L 470.009477 440.156851 
L 472.943162 435.415565 
L 475.510408 430.388122 
L 477.650617 425.08489 
L 479.301851 419.524531 
L 480.402673 413.728819 
L 480.893992 407.726784 
L 480.720733 401.55575 
L 479.83435 395.259264 
L 478.195504 388.887091 
L 475.775402 382.493146 
L 472.559481 376.138598 
L 468.547907 369.887731 
L 463.757924 363.802752 
L 458.224015 357.950016 
L 451.999078 352.390694 
L 445.152251 347.180774 
L 437.768069 342.370022 
L 429.943793 337.997837 
L 421.786391 334.096358 
L 413.408356 330.682176 
L 404.924357 327.763584 
L 396.446719 325.336435 
L 388.082578 323.384141 
L 379.929361 321.882854 
L 372.073613 320.800435 
L 364.588322 320.099558 
L 357.53258 319.735642 
L 350.951081 319.667213 
L 344.874143 319.847616 
L 339.319845 320.235379 
L 334.294329 320.78903 
L 329.793965 321.471245 
L 325.806848 322.248845 
L 322.314533 323.093837 
L 319.293632 323.980301 
L 316.717212 324.889574 
L 314.555978 325.804032 
L 312.779529 326.712269 
L 311.356796 327.603917 
L 310.256811 328.472755 
L 309.449776 329.315674 
L 308.906563 330.130598 
L 308.599216 330.916493 
L 308.501455 331.674394 
L 308.588503 332.405338 
L 308.837259 333.112435 
L 309.225794 333.79776 
L 310.344194 335.11657 
L 311.800741 336.384576 
L 314.363803 338.235264 
L 321.498893 343.187021 
L 323.820095 345.100954 
L 325.830066 347.04599 
L 327.51406 349.0128 
L 328.88371 350.994125 
L 329.967056 352.98167 
L 330.800693 354.968179 
L 331.424169 356.949504 
L 331.994944 359.578829 
L 332.342603 362.189491 
L 332.565039 365.424307 
L 332.64863 369.898099 
L 332.53228 379.274918 
L 332.347009 397.205338 
L 332.363026 420.031526 
L 332.568184 437.589734 
L 332.878641 447.371942 
L 333.286022 453.987763 
L 333.808551 459.054605 
L 334.452656 463.113677 
L 335.155569 466.213709 
L 335.95554 468.830592 
L 336.807188 470.978842 
L 337.876371 473.09495 
L 338.928531 474.760051 
L 340.197372 476.397158 
L 341.730907 477.997978 
L 343.588177 479.555251 
L 345.236682 480.685363 
L 347.144322 481.77504 
L 349.353583 482.813914 
L 351.913799 483.787469 
L 354.881801 484.677043 
L 358.32254 485.456717 
L 362.310008 486.093312 
L 366.926398 486.54121 
L 372.262106 486.740275 
L 376.265477 486.695693 
L 380.659057 486.474854 
L 385.470133 486.042509 
L 390.723145 485.356147 
L 396.438014 484.36393 
L 402.626122 483.006758 
L 409.28747 481.213094 
L 416.404984 478.905178 
L 420.122938 477.529344 
L 423.937314 475.989696 
L 427.837901 474.273792 
L 431.812145 472.368154 
L 435.844476 470.259302 
L 439.916314 467.932723 
L 444.005226 465.375974 
L 448.085434 462.574541 
L 452.126637 459.517018 
L 456.094687 456.190963 
L 459.950411 452.587046 
L 463.650788 448.695936 
L 467.147606 444.513485 
L 470.388805 440.035546 
L 473.31864 435.265229 
L 475.877851 430.207718 
L 478.00517 424.874419 
L 479.638325 419.282957 
L 480.715544 413.456141 
L 481.1774 407.424038 
L 480.96882 401.222938 
L 480.041257 394.898458 
L 478.355539 388.499328 
L 475.883375 382.08361 
L 472.610705 375.709363 
L 468.538366 369.442944 
L 463.684937 363.347597 
L 458.086412 357.48864 
L 451.796189 351.928282 
L 444.885583 346.721472 
L 437.440133 341.920051 
L 429.558606 337.561344 
L 421.349143 333.676454 
L 412.925407 330.284045 
L 404.402738 327.389299 
L 395.894299 324.987034 
L 387.506889 323.061696 
L 379.338439 321.588403 
L 371.474824 320.532941 
L 363.98903 319.856947 
L 356.939147 319.517914 
L 350.369199 319.470221 
L 344.308783 319.67136 
L 338.775042 320.075712 
L 333.773342 320.644915 
L 329.299281 321.339571 
L 325.340254 322.127539 
L 321.877217 322.979789 
L 318.886231 323.872474 
L 316.339943 324.784858 
L 314.20879 325.702426 
L 312.461636 326.610662 
L 311.067697 327.50231 
L 309.995834 328.371149 
L 309.21575 329.21303 
L 308.698317 330.024845 
L 308.415578 330.808666 
L 308.34142 331.563456 
L 308.450732 332.292326 
L 308.720414 332.99735 
L 309.655678 334.34519 
L 310.992701 335.630822 
L 313.471393 337.493952 
L 322.371281 343.691942 
L 324.598839 345.61728 
L 326.502077 347.572685 
L 328.077478 349.547789 
L 329.344211 351.533261 
L 330.33475 353.521843 
L 331.087883 355.508352 
L 331.791858 358.147008 
L 332.233601 360.768038 
L 332.530801 364.01737 
L 332.665134 368.510861 
L 332.596143 376.068096 
L 332.356067 395.937331 
L 332.358029 418.327027 
L 332.552121 436.499021 
L 332.86349 446.804813 
L 333.295234 453.903782 
L 333.820989 458.971661 
L 334.468877 463.03177 
L 335.175791 466.133875 
L 335.980131 468.750758 
L 336.836282 470.900045 
L 337.91099 473.016154 
L 338.968422 474.681254 
L 340.243474 476.318362 
L 341.784308 477.919181 
L 343.650198 479.475418 
L 345.306136 480.604493 
L 347.222196 481.69417 
L 349.440966 482.73097 
L 352.011895 483.702451 
L 354.991783 484.588915 
L 358.445914 485.365478 
L 362.448281 485.99689 
L 367.081243 486.438566 
L 372.434528 486.628301 
L 376.450621 486.576461 
L 380.857091 486.347328 
L 385.681225 485.905651 
L 390.947294 485.207885 
L 396.67455 484.201152 
L 402.874209 482.827392 
L 409.545434 481.016102 
L 416.669643 478.686413 
L 420.389773 477.299174 
L 424.204987 475.747085 
L 428.105239 474.017702 
L 432.077474 472.097549 
L 436.106122 469.973146 
L 440.172101 467.632051 
L 444.252978 465.058714 
L 448.322472 462.241728 
L 452.350283 459.167616 
L 456.30176 455.823936 
L 460.137731 452.202394 
L 463.814672 448.295731 
L 467.284372 444.095654 
L 470.494602 439.6032 
L 473.389283 434.818368 
L 475.90949 429.748416 
L 477.993787 424.404749 
L 479.580572 418.804992 
L 480.608073 412.972992 
L 481.017366 406.938816 
L 480.754213 400.740826 
L 479.770906 394.422566 
L 478.029109 388.034842 
L 475.501871 381.633638 
L 472.176302 375.280128 
L 468.05458 369.037555 
L 463.156288 362.971238 
L 457.518591 357.146496 
L 451.196563 351.621389 
L 444.261515 346.455014 
L 436.800497 341.694029 
L 428.912275 337.37783 
L 420.705155 333.53545 
L 412.2923 330.184512 
L 403.788883 327.329165 
L 395.306892 324.964224 
L 386.95246 323.074138 
L 378.822344 321.630912 
L 371.001082 320.602406 
L 363.560319 319.950259 
L 356.55714 319.630925 
L 350.034232 319.599821 
L 344.020537 319.812365 
L 338.532178 320.227085 
L 333.57391 320.802509 
L 329.140803 321.501312 
L 325.219877 322.291354 
L 321.791843 323.145677 
L 318.832663 324.037325 
L 316.314917 324.949709 
L 314.208958 325.864166 
L 312.484235 326.771366 
L 311.109547 327.660941 
L 310.05409 328.526669 
L 309.287732 329.366477 
L 308.781682 330.177254 
L 308.507983 330.959002 
L 308.440856 331.712755 
L 308.555357 332.439552 
L 308.828554 333.143539 
L 309.766496 334.490342 
L 311.101344 335.775974 
L 313.570494 337.639104 
L 322.417149 343.841242 
L 324.629541 345.767616 
L 326.519688 347.721984 
L 328.084375 349.696051 
L 329.342771 351.680486 
L 330.327201 353.669069 
L 331.076135 355.654541 
L 331.776926 358.291123 
L 332.217539 360.912154 
L 332.515191 364.159411 
L 332.651874 368.650829 
L 332.587573 376.204954 
L 332.35072 396.647539 
L 332.361735 419.51831 
L 332.560693 437.109696 
L 332.883703 447.390605 
L 333.293903 454.006426 
L 333.820085 459.07223 
L 334.468727 463.130266 
L 335.176628 466.231334 
L 335.982291 468.847181 
L 336.840015 470.99543 
L 337.916899 473.110502 
L 338.976625 474.774566 
L 340.254606 476.410637 
L 341.799206 478.010419 
L 343.669901 479.565619 
L 345.330292 480.694694 
L 347.251692 481.782298 
L 349.47679 482.818061 
L 352.055419 483.788506 
L 355.044514 484.672896 
L 358.509526 485.447386 
L 362.524615 486.075686 
L 367.172811 486.512179 
L 372.54384 486.69673 
L 376.573325 486.640742 
L 380.994527 486.406426 
L 385.834898 485.957491 
L 391.118377 485.250394 
L 396.864214 484.233293 
L 403.083459 482.847091 
L 409.774604 481.02025 
L 416.919069 478.671898 
L 420.649076 477.274291 
L 424.473998 475.710797 
L 428.383291 473.968973 
L 432.363895 472.035341 
L 436.400077 469.897459 
L 440.472584 467.539776 
L 444.558483 464.94985 
L 448.63166 462.114202 
L 452.661145 459.02039 
L 456.611953 455.657011 
L 460.444743 452.014733 
L 464.115323 448.085261 
L 467.575481 443.862374 
L 470.772319 439.346074 
L 473.649757 434.538432 
L 476.148202 429.444634 
L 478.206553 424.07712 
L 479.762201 418.45559 
L 480.753878 412.601818 
L 481.122828 406.547942 
L 480.814645 400.332326 
L 479.782289 393.999552 
L 477.987761 387.600422 
L 475.405114 381.191962 
L 472.022127 374.835341 
L 467.842149 368.594842 
L 462.885937 362.533709 
L 457.192161 356.719334 
L 450.816732 351.209779 
L 443.832637 346.062067 
L 436.327592 341.323891 
L 428.401872 337.033613 
L 420.163951 333.220262 
L 411.728162 329.899392 
L 403.209511 327.075149 
L 394.720155 324.742349 
L 386.365891 322.88233 
L 378.242638 321.469171 
L 370.434935 320.468659 
L 363.012921 319.841395 
L 356.033178 319.543834 
L 349.537388 319.533466 
L 343.553625 319.763635 
L 338.097021 320.191834 
L 333.171646 320.778662 
L 328.77187 321.487834 
L 324.884139 322.285133 
L 321.488715 323.143603 
L 318.561173 324.039398 
L 316.073827 324.952819 
L 313.996862 325.868314 
L 312.299426 326.774477 
L 310.950349 327.663014 
L 309.91883 328.527706 
L 309.174737 329.36544 
L 308.689277 330.174144 
L 308.434662 330.953818 
L 308.384777 331.705498 
L 308.515014 332.430221 
L 308.80244 333.132134 
L 309.76499 334.475827 
L 311.119256 335.759386 
L 313.609498 337.620442 
L 321.673759 343.187021 
L 323.985787 345.103027 
L 325.981279 347.050138 
L 327.648081 349.020058 
L 328.999702 351.003456 
L 330.065504 352.991002 
L 330.88288 354.978547 
L 331.491844 356.960909 
L 332.046276 359.590234 
L 332.380952 362.200896 
L 332.613918 366.078528 
L 332.658875 371.176474 
L 332.365804 420.040858 
L 332.573228 437.599066 
L 332.88711 447.380237 
L 333.298997 453.996058 
L 333.827334 459.062899 
L 334.478587 463.120934 
L 335.189334 466.220966 
L 335.99821 468.836813 
L 336.859349 470.985062 
L 337.940469 473.100134 
L 339.004363 474.764198 
L 340.287333 476.400269 
L 341.837943 477.999014 
L 343.715836 479.554214 
L 345.382604 480.682253 
L 347.311303 481.768819 
L 349.544921 482.803546 
L 352.133093 483.77088 
L 355.133068 484.653197 
L 358.610803 485.423539 
L 362.640289 486.047693 
L 367.304555 486.479002 
L 372.69383 486.656294 
L 376.736206 486.594086 
L 381.171469 486.351475 
L 386.026069 485.89321 
L 391.324613 485.175744 
L 397.085517 484.147238 
L 403.319493 482.745485 
L 410.0247 480.901018 
L 417.181385 478.53193 
L 420.916581 477.122918 
L 424.745689 475.546982 
L 428.658329 473.79168 
L 432.640942 471.84457 
L 436.677626 469.691136 
L 440.748961 467.317901 
L 444.832015 464.711386 
L 448.899667 461.858112 
L 452.921285 458.746675 
L 456.861546 455.364634 
L 460.680442 451.702656 
L 464.333947 447.754522 
L 467.77318 443.512973 
L 470.94541 438.97801 
L 473.794056 434.151706 
L 476.259691 429.040282 
L 478.280711 423.658253 
L 479.795179 418.022208 
L 480.741826 412.15703 
L 481.062062 406.094861 
L 480.702319 399.874061 
L 479.616061 393.54025 
L 477.766123 387.143194 
L 475.127732 380.74199 
L 471.689503 374.396774 
L 467.456125 368.171827 
L 462.44986 362.13143 
L 456.710216 356.340902 
L 450.294444 350.860378 
L 443.276701 345.744806 
L 435.745375 341.040845 
L 427.801241 336.787891 
L 419.553443 333.010829 
L 411.115981 329.727283 
L 402.603858 326.940365 
L 394.128396 324.641779 
L 385.794889 322.814938 
L 377.698421 321.432883 
L 369.922189 320.459328 
L 362.535664 319.856947 
L 355.59392 319.580122 
L 349.137972 319.586342 
L 343.194535 319.831027 
L 337.778292 320.271667 
L 332.89245 320.86679 
L 328.530814 321.581146 
L 324.679426 322.382592 
L 321.318185 323.243136 
L 318.422466 324.139968 
L 315.964431 325.053389 
L 313.914334 325.968883 
L 312.241171 326.87401 
L 310.913856 327.760474 
L 309.901756 328.623091 
L 309.174737 329.458752 
L 308.704176 330.265382 
L 308.46245 331.042982 
L 308.423614 331.792589 
L 308.563225 332.516275 
L 308.858519 333.217152 
L 309.832117 334.557734 
L 311.192744 335.840256 
L 313.685498 337.701312 
L 321.728951 343.269965 
L 324.030768 345.187008 
L 326.016332 347.134118 
L 327.674095 349.104038 
L 329.017932 351.087437 
L 330.077256 353.074982 
L 330.889497 355.062528 
L 331.494539 357.043853 
L 332.045348 359.672141 
L 332.435058 362.93184 
L 332.627015 366.801178 
L 332.643022 372.517056 
L 332.330582 407.538086 
L 332.449327 430.06464 
L 332.71745 443.088922 
L 333.095757 451.243354 
L 333.559658 456.831706 
L 334.161665 461.383258 
L 334.862954 464.953997 
L 335.711253 468.023962 
L 336.680683 470.611814 
L 337.71627 472.733107 
L 339.020416 474.817075 
L 340.307187 476.452109 
L 341.862467 478.050854 
L 343.746202 479.603981 
L 345.418227 480.730982 
L 347.353103 481.816512 
L 349.59397 482.850202 
L 352.190678 483.816499 
L 355.200698 484.696742 
L 358.689983 485.463974 
L 362.733028 486.085018 
L 367.41303 486.511142 
L 372.820385 486.682214 
L 376.876319 486.613786 
L 381.325979 486.364954 
L 386.196314 485.89943 
L 391.511264 485.171597 
L 397.289578 484.131686 
L 403.541298 482.716454 
L 410.264249 480.855398 
L 417.438176 478.466611 
L 421.18124 477.046195 
L 425.017714 475.458854 
L 428.93705 473.690074 
L 432.92569 471.729485 
L 436.96706 469.560499 
L 441.041744 467.171712 
L 445.126471 464.547571 
L 449.193956 461.676672 
L 453.21323 458.546573 
L 457.14847 455.144832 
L 460.959665 451.463155 
L 464.602289 447.492211 
L 468.026959 443.229926 
L 471.180942 438.67319 
L 474.007156 433.825114 
L 476.446007 428.692954 
L 478.435891 423.290189 
L 479.914702 417.635482 
L 480.821173 411.752678 
L 481.097048 405.675994 
L 480.689095 399.442752 
L 479.551109 393.09961 
L 477.647102 386.69737 
L 474.952464 380.29513 
L 471.457487 373.953024 
L 467.167694 367.735334 
L 462.106523 361.707379 
L 456.314818 355.93344 
L 449.851169 350.473651 
L 442.790739 345.382963 
L 435.223087 340.706995 
L 427.249658 336.484109 
L 418.980098 332.740224 
L 410.528909 329.489856 
L 402.01076 326.736115 
L 393.537307 324.470707 
L 385.212839 322.676006 
L 377.132107 321.322982 
L 369.377134 320.377421 
L 362.016556 319.798886 
L 355.10461 319.54487 
L 348.681054 319.569754 
L 342.772085 319.82999 
L 337.391246 320.283072 
L 332.541091 320.888563 
L 328.214813 321.610176 
L 324.397909 322.417843 
L 321.069914 323.282534 
L 318.205867 324.18144 
L 315.777747 325.095898 
L 313.755638 326.010355 
L 312.108422 326.915482 
L 310.805213 327.800909 
L 309.81521 328.661453 
L 309.10828 329.49504 
L 308.655965 330.299597 
L 308.430644 331.075123 
L 308.406539 331.822656 
L 308.559375 332.544269 
L 308.866219 333.243072 
L 309.858734 334.581581 
L 311.23359 335.862029 
L 313.739735 337.721011 
L 321.787524 343.290701 
L 324.084252 345.208781 
L 326.063523 347.156928 
L 327.714539 349.127885 
L 329.05178 351.111283 
L 330.104994 353.098829 
L 330.911813 355.086374 
L 331.51219 357.067699 
L 332.057957 359.695987 
L 332.443065 362.955686 
L 332.631477 366.823987 
L 332.644797 372.539866 
L 332.330868 406.997914 
L 332.444064 429.56905 
L 332.703472 442.618214 
L 333.068923 450.788198 
L 333.516236 456.387955 
L 334.09581 460.948838 
L 334.770063 464.527872 
L 335.584749 467.605094 
L 336.514857 470.199168 
L 337.507656 472.326682 
L 338.757029 474.418944 
L 339.98901 476.060198 
L 341.477279 477.668275 
L 343.278972 479.233843 
L 345.464262 480.743424 
L 347.406052 481.827917 
L 349.654903 482.859533 
L 352.260819 483.823757 
L 355.281552 484.701926 
L 358.783225 485.466048 
L 362.840332 486.081907 
L 367.536404 486.503885 
L 372.962005 486.666662 
L 377.031164 486.59305 
L 381.495053 486.33696 
L 386.380287 485.862106 
L 391.710973 485.124941 
L 397.505356 484.072589 
L 403.773147 482.642842 
L 410.511499 480.76416 
L 417.69932 478.354637 
L 421.448578 476.922816 
L 425.290576 475.323034 
L 429.214432 473.541811 
L 433.206419 471.56567 
L 437.249799 469.38217 
L 441.324985 466.976794 
L 445.408205 464.337101 
L 449.472343 461.448576 
L 453.48559 458.298778 
L 457.412125 454.878374 
L 461.211435 451.176998 
L 464.838826 447.186355 
L 468.244913 442.903334 
L 471.37613 438.326899 
L 474.175561 433.459123 
L 476.583442 428.309338 
L 478.538005 422.888947 
L 479.977142 417.218688 
L 480.840089 411.322406 
L 481.06859 405.235354 
L 480.609747 398.993818 
L 479.418529 392.646528 
L 477.459279 386.244288 
L 474.70873 379.846195 
L 471.157841 373.512384 
L 466.813811 367.308173 
L 461.700913 361.297843 
L 455.861331 355.546714 
L 449.354995 350.112845 
L 442.258072 345.051187 
L 434.660791 340.40736 
L 426.665599 336.218688 
L 418.382312 332.510054 
L 409.925599 329.295974 
L 401.409961 326.577485 
L 392.946552 324.346291 
L 384.638992 322.583731 
L 376.581193 321.260774 
L 368.854177 320.34217 
L 361.525739 319.787482 
L 354.648947 319.554202 
L 348.262554 319.59671 
L 342.391752 319.871462 
L 337.049332 320.335949 
L 332.23717 320.950771 
L 327.947844 321.679642 
L 324.166395 322.491456 
L 320.87203 323.358221 
L 318.039538 324.2592 
L 315.640763 325.173658 
L 313.645657 326.088115 
L 312.023216 326.991168 
L 310.742438 327.874522 
L 309.772523 328.734029 
L 309.083839 329.565542 
L 308.647595 330.368026 
L 308.436503 331.141478 
L 308.424618 331.886938 
L 308.588168 332.607514 
L 308.904052 333.30528 
L 309.910628 334.640678 
L 311.294691 335.92009 
L 313.807365 337.778035 
L 321.843821 343.349798 
L 324.132346 345.267878 
L 326.103096 347.217062 
L 327.746026 349.188019 
L 329.075952 351.171418 
L 330.122889 353.158963 
L 330.924482 355.146509 
L 331.520674 357.127834 
L 332.062296 359.755085 
L 332.444089 363.014784 
L 332.630459 366.882048 
L 332.642923 372.59689 
L 332.330624 407.048717 
L 332.444231 429.615706 
L 332.704207 442.662797 
L 333.070507 450.831744 
L 333.518936 456.430464 
L 334.100028 460.99031 
L 334.776157 464.568307 
L 335.593186 467.644493 
L 336.526056 470.238566 
L 337.521885 472.365043 
L 338.775142 474.456269 
L 340.011023 476.097523 
L 341.504114 477.704563 
L 343.311699 479.269094 
L 344.915575 480.406464 
L 346.771137 481.505472 
L 348.919682 482.554714 
L 351.40892 483.541747 
L 354.294394 484.448947 
L 357.639214 485.25143 
L 361.515528 485.918093 
L 366.004192 486.406426 
L 371.193592 486.657331 
L 375.088822 486.657331 
L 379.365892 486.490406 
L 384.052255 486.122342 
L 389.173356 485.513741 
L 394.750622 484.614835 
L 400.798114 483.368602 
L 407.319516 481.708685 
L 414.303109 479.557325 
L 417.95879 478.269619 
L 421.715246 476.826394 
L 425.56394 475.21417 
L 429.493487 473.419469 
L 433.490162 471.42985 
L 437.537225 469.231834 
L 441.614252 466.809869 
L 445.697807 464.15255 
L 449.760103 461.2464 
L 453.769333 458.077939 
L 457.689172 454.637837 
L 461.47894 450.915725 
L 465.093274 446.904346 
L 468.482621 442.600589 
L 471.593416 438.003418 
L 474.368238 433.114906 
L 476.747159 427.944384 
L 478.668409 422.505331 
L 480.069882 416.817446 
L 480.890644 410.90665 
L 481.07311 404.805082 
L 480.564884 398.554214 
L 479.320934 392.200704 
L 477.306778 385.795354 
L 474.499982 379.398298 
L 470.892679 373.070707 
L 466.493072 366.875827 
L 461.326774 360.88105 
L 455.437307 355.148582 
L 448.885606 349.73856 
L 441.749009 344.703859 
L 434.118917 340.090099 
L 426.098113 335.933568 
L 417.797249 332.259149 
L 409.330994 329.079283 
L 400.813682 326.395008 
L 392.356132 324.198029 
L 384.06163 322.466573 
L 376.022914 321.172646 
L 368.320505 320.280998 
L 361.020861 319.751194 
L 354.176377 319.53865 
L 347.824468 319.599821 
L 341.989707 319.889088 
L 336.683964 320.366016 
L 331.908382 320.989133 
L 327.654961 321.725261 
L 323.908281 322.542259 
L 320.647145 323.413171 
L 317.846108 324.315187 
L 315.476812 325.229645 
L 313.509058 326.144102 
L 311.912062 327.046118 
L 310.654386 327.928435 
L 309.70573 328.785869 
L 309.035963 329.615309 
L 308.616961 330.415718 
L 308.421103 331.187098 
L 308.422944 331.930483 
L 308.598379 332.648986 
L 308.924809 333.344678 
L 309.948125 334.67904 
L 311.344074 335.956378 
L 313.867127 337.813286 
L 321.076459 342.753638 
L 323.45677 344.66135 
L 325.529115 346.60224 
L 327.273356 348.566976 
L 328.697813 350.547264 
L 329.828734 352.53481 
L 330.702091 354.522355 
L 331.357606 356.505754 
L 331.960323 359.138189 
L 332.329643 361.751962 
L 332.568268 364.991962 
L 332.661366 369.471974 
L 332.554961 378.244339 
L 332.353439 396.233856 
L 332.360679 419.136768 
L 332.55502 436.754074 
L 332.870753 447.049498 
L 333.271156 453.67465 
L 333.784128 458.748749 
L 334.415778 462.813005 
L 335.104562 465.918221 
L 335.88791 468.539251 
L 336.911863 471.117773 
L 338.006759 473.230771 
L 339.08443 474.893798 
L 340.384274 476.526758 
L 341.955508 478.12343 
L 343.858695 479.673446 
L 345.548112 480.798374 
L 347.503227 481.880794 
L 349.767563 482.909299 
L 352.391558 483.870413 
L 355.433216 484.743398 
L 358.958995 485.502336 
L 363.044225 486.109901 
L 367.772438 486.52151 
L 373.234365 486.67081 
L 377.330476 486.584755 
L 381.823157 486.315187 
L 386.739025 485.823744 
L 392.101852 485.065843 
L 397.92938 483.988608 
L 404.230651 482.52983 
L 411.001814 480.616934 
L 418.220102 478.166976 
L 421.983086 476.712346 
L 425.837639 475.08768 
L 429.772041 473.279501 
L 433.772566 471.276403 
L 437.821972 469.061798 
L 441.900004 466.624282 
L 445.982555 463.950374 
L 450.041837 461.025562 
L 454.045376 457.838438 
L 457.957012 454.378637 
L 461.735397 450.636826 
L 465.335167 446.605747 
L 468.7061 442.281254 
L 471.79463 437.663347 
L 474.543004 432.755136 
L 476.891291 427.565952 
L 478.777554 422.109274 
L 480.139688 416.4048 
L 480.916926 410.479488 
L 481.052185 404.367552 
L 480.493237 398.10839 
L 479.196054 391.749696 
L 477.126655 385.344346 
L 474.26378 378.9504 
L 470.600399 372.630067 
L 466.14622 366.448666 
L 460.927859 360.471514 
L 454.990181 354.759782 
L 448.395458 349.37568 
L 441.221866 344.368973 
L 433.561642 339.787354 
L 425.518574 335.665037 
L 417.203314 332.024832 
L 408.730698 328.880218 
L 400.215227 326.231194 
L 391.766884 324.067392 
L 383.488452 322.368077 
L 375.471833 321.104218 
L 367.796543 320.239526 
L 360.528203 319.732531 
L 353.717869 319.540723 
L 347.402352 319.618483 
L 341.605005 319.923302 
L 336.337011 320.410598 
L 331.598779 321.043046 
L 327.381764 321.786432 
L 323.670088 322.607578 
L 320.442214 323.480563 
L 317.672464 324.383616 
L 315.332379 325.29911 
L 313.391543 326.212531 
L 311.819155 327.11351 
L 310.584078 327.993754 
L 309.655678 328.849114 
L 309.004324 329.67648 
L 308.601392 330.474816 
L 308.420098 331.245158 
L 308.434662 331.98647 
L 308.620978 332.703936 
L 308.956783 333.397555 
L 309.994997 334.729843 
L 311.40099 336.005107 
L 313.931911 337.860979 
L 321.135216 342.803405 
L 323.508379 344.712154 
L 325.572773 346.653043 
L 327.309129 348.618816 
L 328.726254 350.599104 
L 329.850646 352.58665 
L 330.718454 354.574195 
L 331.369399 356.557594 
L 331.967439 359.188992 
L 332.333466 361.802765 
L 332.569482 365.041728 
L 332.660817 369.521741 
L 332.55388 378.292032 
L 332.353126 396.279475 
L 332.360782 419.179277 
L 332.555618 436.793472 
L 332.872126 447.086822 
L 333.273571 453.710938 
L 333.787944 458.784 
L 334.42142 462.847219 
L 335.112229 465.952435 
L 335.897954 468.572429 
L 336.734 470.724826 
L 337.783146 472.844045 
L 339.104619 474.925939 
L 340.408715 476.557862 
L 341.985154 478.153498 
L 343.894736 479.703514 
L 345.589862 480.827405 
L 347.551639 481.908787 
L 349.82381 482.936256 
L 352.456677 483.895296 
L 355.508881 484.766208 
L 359.04688 485.520998 
L 363.146171 486.125453 
L 367.890455 486.530842 
L 371.456242 486.660442 
L 375.377587 486.649037 
L 379.682446 486.468634 
L 384.398438 486.086054 
L 389.55101 485.457754 
L 395.160752 484.536038 
L 401.241557 483.263885 
L 407.796104 481.571827 
L 414.811001 479.382106 
L 418.481078 478.074701 
L 422.251094 476.607629 
L 426.111673 474.970522 
L 430.051599 473.149901 
L 434.056309 471.131251 
L 438.108561 468.902131 
L 442.188099 466.448026 
L 446.270148 463.756493 
L 450.32692 460.814054 
L 454.325603 457.608269 
L 458.229539 454.128768 
L 461.997211 450.367258 
L 465.582751 446.315443 
L 468.936108 441.970214 
L 472.003043 437.331571 
L 474.725637 432.402624 
L 477.043792 427.193741 
L 478.895404 421.7184 
L 480.218701 415.997338 
L 480.952917 410.05751 
L 481.041137 403.933133 
L 480.431801 397.665677 
L 479.081552 391.300762 
L 476.956912 384.894374 
L 474.03779 378.502502 
L 470.318162 372.190464 
L 465.808909 366.020467 
L 460.538152 360.058867 
L 454.551761 354.368909 
L 447.913179 349.008653 
L 440.701587 344.030976 
L 433.010561 339.479424 
L 424.94389 335.389248 
L 416.613229 331.784294 
L 408.133247 328.673894 
L 399.618279 326.059085 
L 391.178138 323.929498 
L 382.914605 322.261286 
L 374.918911 321.026458 
L 367.269903 320.188723 
L 360.031694 319.705574 
L 353.254673 319.534502 
L 346.974578 319.629888 
L 341.213926 319.948186 
L 335.983027 320.447923 
L 331.281643 321.088666 
L 327.100616 321.838272 
L 323.423641 322.663565 
L 320.228829 323.539661 
L 317.490249 324.444787 
L 315.179208 325.360282 
L 313.265491 326.273702 
L 311.717878 327.173645 
L 310.5054 328.051814 
L 309.59759 328.906138 
L 308.964818 329.73143 
L 308.578626 330.527693 
L 308.411896 331.294925 
L 308.439517 332.0352 
L 308.637383 332.750592 
L 308.983064 333.443174 
L 310.037015 334.772352 
L 311.453888 336.046579 
L 313.993849 337.901414 
L 321.194108 342.84384 
L 323.560809 344.753626 
L 325.61782 346.695552 
L 327.346627 348.661325 
L 328.756604 350.64265 
L 329.874584 352.630195 
L 330.736837 354.617741 
L 331.383145 356.601139 
L 331.976349 359.232538 
L 332.338885 361.845274 
L 332.572029 365.084237 
L 332.661262 369.563213 
L 332.553329 378.333504 
L 332.353008 396.317837 
L 332.361022 419.214528 
L 332.556389 436.825613 
L 332.873741 447.118963 
L 333.276308 453.742042 
L 333.79218 458.814067 
L 334.427546 462.877286 
L 335.120499 465.981466 
L 335.908702 468.601459 
L 336.747426 470.752819 
L 337.800003 472.871002 
L 338.835423 474.539213 
L 340.083691 476.17943 
L 341.591898 477.784397 
L 343.417981 479.345818 
L 345.038413 480.481114 
L 346.913209 481.577011 
L 349.084069 482.622106 
L 351.599422 483.604992 
L 354.515027 484.504934 
L 357.894833 485.299123 
L 361.811659 485.955418 
L 366.346525 486.428198 
L 371.588656 486.660442 
L 375.52289 486.643853 
L 379.841643 486.457229 
L 384.572702 486.066355 
L 389.741009 485.428723 
L 395.367156 484.495603 
L 401.464534 483.208934 
L 408.035318 481.501325 
L 415.065784 479.292941 
L 418.743227 477.974131 
L 422.519771 476.495654 
L 426.386209 474.846106 
L 430.33099 473.012006 
L 434.33955 470.978842 
L 438.394313 468.735206 
L 442.474688 466.264512 
L 446.5559 463.55639 
L 450.609323 460.59529 
L 454.602483 457.370842 
L 458.498048 453.871642 
L 462.254337 450.089395 
L 465.825146 446.016845 
L 469.159922 441.651917 
L 472.204258 436.992538 
L 474.900235 432.043891 
L 477.187421 426.815309 
L 479.003879 421.322342 
L 480.287502 415.585728 
L 480.978027 409.631386 
L 481.018538 403.49664 
L 480.358312 397.219853 
L 478.954496 390.85079 
L 476.774613 384.443366 
L 473.799078 378.055642 
L 470.023706 371.750861 
L 465.45988 365.594342 
L 460.137229 359.650368 
L 454.102961 353.981146 
L 447.421525 348.64681 
L 440.17344 343.698163 
L 432.452785 339.178752 
L 424.364184 335.121754 
L 416.019629 331.551014 
L 407.533955 328.475866 
L 399.021163 325.896307 
L 390.590397 323.798861 
L 382.343269 322.16279 
L 374.370007 320.958029 
L 366.748117 320.146214 
L 359.541212 319.685875 
L 352.79834 319.535539 
L 346.554387 319.647514 
L 340.830931 319.980326 
L 335.63753 320.490432 
L 330.973212 321.140506 
L 326.828306 321.896333 
L 323.186034 322.725773 
L 320.024182 323.604979 
L 317.316605 324.511142 
L 315.034574 325.426637 
L 313.147474 326.339021 
L 311.624302 327.237926 
L 310.434255 328.115059 
L 309.5467 328.966272 
L 308.932007 329.789491 
L 308.561886 330.58368 
L 308.409719 331.349875 
L 308.449895 332.088077 
L 308.658643 332.801395 
L 309.013866 333.492941 
L 310.082715 334.819008 
L 311.509633 336.092198 
L 314.057628 337.945997 
L 321.252681 342.890496 
L 323.612452 344.801318 
L 325.661729 346.743245 
L 327.382802 348.710054 
L 328.78553 350.690342 
L 329.897066 352.677888 
L 330.753808 354.66647 
L 331.395554 356.648832 
L 331.984061 359.28023 
L 332.343261 361.892966 
L 332.573725 365.130893 
L 332.661088 369.609869 
L 332.552457 378.378086 
L 332.352776 396.360346 
L 332.361181 419.25289 
L 332.557059 436.862938 
L 332.875216 447.154214 
L 333.278863 453.776256 
L 333.796181 458.847245 
L 334.433422 462.909427 
L 335.12845 466.013606 
L 335.919097 468.632563 
L 336.760449 470.783923 
L 337.816392 472.902106 
L 338.855176 474.570317 
L 340.107562 476.209498 
L 341.620791 477.813427 
L 343.453035 479.374848 
L 345.078957 480.50807 
L 346.960182 481.602931 
L 349.138474 482.646989 
L 351.662531 483.627802 
L 354.588181 484.526707 
L 357.979705 485.317786 
L 361.91009 485.969933 
L 366.460524 486.43753 
L 371.720232 486.663552 
L 375.667524 486.641779 
L 380.000506 486.448934 
L 384.746463 486.049766 
L 389.930506 485.402803 
L 395.573058 484.458278 
L 401.687176 483.158131 
L 408.274533 481.433933 
L 415.320734 479.206886 
L 419.005375 477.876672 
L 422.788615 476.387827 
L 426.661079 474.7248 
L 430.610882 472.877222 
L 434.62346 470.830579 
L 438.680902 468.570355 
L 442.762114 466.084109 
L 446.842489 463.357325 
L 450.893066 460.378598 
L 454.880702 457.135488 
L 458.767897 453.616589 
L 462.512803 449.813606 
L 466.068881 445.721357 
L 469.385242 441.334656 
L 472.407147 436.654541 
L 475.076507 431.686195 
L 477.332725 426.43895 
L 479.113861 420.928358 
L 480.35781 415.174118 
L 481.004476 409.206298 
L 480.997613 403.060147 
L 480.28633 396.775066 
L 478.828946 390.401856 
L 476.593486 383.993395 
L 473.561872 377.608781 
L 469.730254 371.312294 
L 465.111855 365.168218 
L 459.737311 359.241869 
L 453.655166 353.594419 
L 446.930876 348.284966 
L 439.64613 343.364314 
L 431.896012 338.877043 
L 423.785482 334.854259 
L 415.427033 331.317734 
L 406.9355 328.277837 
L 398.424717 325.732493 
L 390.003493 323.668224 
L 381.772602 322.063258 
L 373.821269 320.88649 
L 366.226499 320.100595 
L 359.05073 319.665139 
L 352.341673 319.533466 
L 346.133711 319.663066 
L 340.447234 320.009357 
L 335.291079 320.530867 
L 330.663623 321.189235 
L 326.554624 321.951283 
L 322.946869 322.78487 
L 319.817845 323.667187 
L 317.141153 324.574387 
L 314.887765 325.489882 
L 313.027448 326.402266 
L 311.528884 327.299098 
L 310.360934 328.174157 
L 309.493634 329.024333 
L 308.897021 329.845478 
L 308.543305 330.637594 
L 308.405367 331.401715 
L 308.458265 332.137843 
L 308.678062 332.850125 
L 309.042826 333.539597 
L 310.126741 334.86359 
L 311.564205 336.134707 
L 314.120403 337.987469 
L 321.311237 342.934042 
L 323.664296 344.844864 
L 325.70604 346.787827 
L 327.419496 348.754637 
L 328.815076 350.735962 
L 329.920201 352.723507 
L 330.771443 354.711053 
L 331.408618 356.694451 
L 331.992385 359.324813 
L 332.348187 361.937549 
L 332.575888 365.175475 
L 332.661269 369.653414 
L 332.551781 378.420595 
L 332.352613 396.399744 
L 332.361388 419.290214 
L 332.557794 436.897152 
L 332.876783 447.186355 
L 333.281539 453.808397 
L 333.800349 458.878349 
L 334.439482 462.940531 
L 335.136636 466.043674 
L 335.929744 468.66263 
L 336.773791 470.812954 
L 337.833149 472.931136 
L 338.875348 474.59831 
L 340.131885 476.237491 
L 341.650203 477.840384 
L 343.488657 479.400768 
L 345.120154 480.53399 
L 347.007857 481.626778 
L 349.193716 482.669798 
L 351.726478 483.649574 
L 354.662339 484.54537 
L 358.065581 485.334374 
L 362.009525 485.982374 
L 366.575528 486.445824 
L 371.853148 486.664589 
L 375.813329 486.636595 
L 380.160373 486.43753 
L 384.921229 486.030067 
L 390.121175 485.373773 
L 395.780132 484.417843 
L 401.910822 483.104218 
L 408.514752 481.36343 
L 415.576521 479.117722 
L 419.268193 477.777139 
L 423.058129 476.275853 
L 426.936452 474.600384 
L 430.89111 472.739328 
L 434.907371 470.677133 
L 438.967156 468.402394 
L 443.049205 465.899558 
L 447.12824 463.156186 
L 451.17547 460.158797 
L 455.157247 456.895987 
L 459.035905 453.357389 
L 462.768925 449.534707 
L 466.309769 445.421722 
L 469.607215 441.014285 
L 472.606186 436.31447 
L 475.248427 431.326426 
L 477.473173 426.059482 
L 479.218486 420.530227 
L 480.422426 414.761472 
L 481.024899 408.779136 
L 480.969992 402.621581 
L 480.207652 396.329242 
L 478.696198 389.950848 
L 476.405329 383.542387 
L 473.317301 377.162957 
L 469.429938 370.874765 
L 464.757134 364.744166 
L 459.331198 358.835443 
L 453.201512 353.209766 
L 446.435204 347.926234 
L 439.114635 343.035648 
L 431.335724 338.579482 
L 423.204269 334.589875 
L 414.832763 331.088602 
L 406.336376 328.082918 
L 397.828438 325.571789 
L 389.417593 323.541734 
L 381.203777 321.967872 
L 373.275378 320.820134 
L 365.708228 320.06016 
L 358.563931 319.646477 
L 351.889358 319.535539 
L 345.717488 319.681728 
L 340.06819 320.041498 
L 334.949416 320.573376 
L 330.358856 321.241075 
L 326.285763 322.008307 
L 322.712459 322.847078 
L 319.616128 323.730432 
L 316.97017 324.638669 
L 314.745475 325.5552 
L 312.91144 326.466547 
L 311.437148 327.361306 
L 310.291295 328.235328 
L 309.443917 329.08343 
L 308.865382 329.902502 
L 308.527569 330.692544 
L 308.40386 331.454592 
L 308.469146 332.189683 
L 308.699824 332.899891 
L 309.073963 333.58729 
L 310.172609 334.910246 
L 311.619949 336.17929 
L 314.184015 338.032051 
L 321.369576 342.978624 
L 323.715754 344.890483 
L 325.749815 346.834483 
L 327.455587 348.801293 
L 328.843986 350.783654 
L 329.942716 352.7712 
L 330.788486 354.758746 
L 331.421131 356.741107 
L 332.000226 359.371469 
L 332.352704 361.984205 
L 332.577723 365.221094 
L 332.661217 369.697997 
L 332.540383 379.081037 
L 332.352409 396.441216 
L 332.361568 419.328576 
L 332.55849 436.932403 
L 332.8783 447.22057 
L 333.284152 453.841574 
L 333.804433 458.911526 
L 334.445441 462.972672 
L 335.144721 466.074778 
L 335.94029 468.693734 
L 336.787016 470.843021 
L 337.849772 472.961203 
L 338.895369 474.627341 
L 340.156075 476.265485 
L 341.679465 477.869414 
L 343.524129 479.427725 
L 345.161201 480.55991 
L 347.055365 481.652698 
L 349.248791 482.694682 
L 351.790258 483.671347 
L 354.73633 484.566106 
L 358.151458 485.352 
L 362.108794 485.995853 
L 366.690532 486.454118 
L 371.985896 486.666662 
L 375.959302 486.633485 
L 380.320407 486.427162 
L 385.096329 486.012442 
L 390.312011 485.345779 
L 395.987373 484.379482 
L 402.134803 483.051341 
L 408.755138 481.293965 
L 415.832476 479.028557 
L 419.531513 477.677606 
L 423.327978 476.163878 
L 427.211993 474.477005 
L 431.171672 472.601434 
L 435.191616 470.524723 
L 439.253744 468.234432 
L 443.336463 465.715008 
L 447.414327 462.95401 
L 451.458041 459.938995 
L 455.433959 456.657523 
L 459.303912 453.099226 
L 463.025047 449.255808 
L 466.550491 445.122086 
L 469.828852 440.693914 
L 472.804722 435.973363 
L 475.419677 430.965619 
L 477.612952 425.680013 
L 479.322106 420.133133 
L 480.485704 414.347789 
L 481.043815 408.351974 
L 480.940697 402.183014 
L 480.126965 395.883418 
L 478.561775 389.500877 
L 476.215162 383.092416 
L 473.070888 376.717133 
L 469.127446 370.438272 
L 464.400572 364.321152 
L 458.923244 358.429018 
L 452.746519 352.82615 
L 445.938194 347.568538 
L 438.582136 342.706982 
L 430.774767 338.282957 
L 422.622554 334.327565 
L 414.238493 330.860506 
L 405.737419 327.890074 
L 397.232829 325.413158 
L 388.832697 323.416282 
L 380.635956 321.873523 
L 372.730658 320.753779 
L 365.191297 320.019725 
L 358.078471 319.628851 
L 351.438383 319.537613 
L 345.302704 319.699354 
L 339.690535 320.073638 
L 334.609041 320.615885 
L 330.055293 321.291878 
L 326.01794 322.065331 
L 322.47897 322.907213 
L 319.415198 323.793677 
L 316.799824 324.70295 
L 314.603519 325.619482 
L 312.795934 326.528755 
L 311.345748 327.423514 
L 310.221824 328.295462 
L 309.394366 329.141491 
L 308.833576 329.95849 
L 308.511666 330.746458 
L 308.402186 331.506432 
L 308.47986 332.23945 
L 308.721418 332.948621 
L 309.104764 333.634982 
L 310.217974 334.954829 
L 311.675359 336.222835 
L 314.247292 338.07456 
L 321.427798 343.023206 
L 323.767163 344.936102 
L 325.793624 346.880102 
L 327.491779 348.847949 
L 328.873013 350.829274 
L 329.965382 352.817856 
L 330.805702 354.804365 
L 331.433825 356.787763 
L 332.008247 359.418125 
L 332.357389 362.029824 
L 332.57971 365.265677 
L 332.661287 369.742579 
L 332.539668 379.124582 
L 332.352233 396.481651 
L 332.361767 419.365901 
L 332.559213 436.967654 
L 332.879855 447.254784 
L 333.286817 453.873715 
L 333.808585 458.94263 
L 334.451501 463.003776 
L 335.152907 466.105882 
L 335.950953 468.723802 
L 336.800374 470.873088 
L 337.866578 472.990234 
L 338.915591 474.656371 
L 340.180465 476.294515 
L 341.708978 477.896371 
L 343.559903 479.454682 
L 345.202549 480.58583 
L 347.103225 481.677581 
L 349.3042 482.717491 
L 351.854539 483.69312 
L 354.810823 484.584768 
L 358.237669 485.368589 
L 362.208899 486.008294 
L 366.806205 486.461376 
L 372.119314 486.667699 
L 376.105945 486.629338 
L 380.481111 486.415757 
L 385.272099 485.992742 
L 390.503684 485.317786 
L 396.195451 484.339046 
L 402.359621 482.997427 
L 408.996362 481.223462 
L 416.089267 478.938355 
L 419.795336 477.576 
L 423.598329 476.050867 
L 427.488035 474.350515 
L 431.452402 472.461466 
L 435.475861 470.371277 
L 439.540166 468.064397 
L 443.623387 465.528384 
L 447.699911 462.74976 
L 451.74011 459.716083 
L 455.709834 456.415949 
L 459.57058 452.837952 
L 463.279662 448.974835 
L 466.789538 444.820378 
L 470.048314 440.371469 
L 473.000747 435.630182 
L 475.588082 430.602739 
L 477.749216 425.297434 
L 479.422044 419.733965 
L 480.544963 413.932032 
L 481.058379 407.923776 
L 480.906882 401.744448 
L 480.041424 395.436557 
L 478.422164 389.050906 
L 476.019974 382.642445 
L 472.819286 376.272346 
L 468.8201 370.001779 
L 464.039156 363.898138 
L 458.510771 358.025702 
L 452.287341 352.444608 
L 445.437668 347.213952 
L 438.046623 342.381427 
L 430.211466 337.989542 
L 422.039333 334.067328 
L 413.643218 330.63552 
L 405.138294 327.700339 
L 396.637722 325.257638 
L 388.248806 323.292902 
L 380.069809 321.781248 
L 372.187948 320.690534 
L 364.676877 319.9824 
L 357.596024 319.613299 
L 350.99042 319.54176 
L 344.891201 319.72009 
L 339.316262 320.106816 
L 334.272082 320.660467 
L 329.755094 321.343718 
L 325.753448 322.122355 
L 322.248694 322.968384 
L 319.217365 323.856922 
L 316.632424 324.767232 
L 314.464577 325.683763 
L 312.682939 326.593037 
L 311.256691 327.485722 
L 310.154697 328.356634 
L 309.346825 329.200589 
L 308.803779 330.015514 
L 308.497604 330.801408 
L 308.402019 331.559309 
L 308.491913 332.290253 
L 308.744185 332.99735 
L 309.136738 333.682675 
L 310.264344 335.000448 
L 311.731438 336.267418 
L 314.310904 338.117069 
L 320.646525 342.437414 
L 323.073976 344.339942 
L 325.200592 346.274611 
L 327.000293 348.236237 
L 328.47733 350.214451 
L 329.655575 352.20096 
L 330.569783 354.189542 
L 331.259396 356.173978 
L 331.897595 358.808486 
L 332.292436 361.424333 
L 332.551906 364.667443 
L 332.660027 369.151603 
L 332.570905 377.31433 
L 332.354771 395.941478 
L 332.356745 418.330138 
L 332.549908 436.502131 
L 332.859783 446.807923 
L 333.289462 453.906893 
L 333.81272 458.974771 
L 334.457528 463.03488 
L 335.161076 466.136986 
L 335.9616 468.753869 
L 336.813716 470.903155 
L 337.883352 473.020301 
L 338.935812 474.685402 
L 340.204872 476.322509 
L 341.73849 477.924365 
L 343.595693 479.481638 
L 345.243947 480.612787 
L 347.151152 481.702464 
L 349.359777 482.741338 
L 351.918988 483.71593 
L 354.885484 484.605504 
L 358.324214 485.385178 
L 362.309004 486.021773 
L 366.922046 486.46967 
L 372.253066 486.668736 
L 376.252922 486.62519 
L 380.642317 486.405389 
L 385.448371 485.97408 
L 390.695692 485.288755 
L 396.404032 484.298611 
L 402.584942 482.942477 
L 409.238087 481.15296 
L 416.346394 478.848154 
L 420.05966 477.474394 
L 423.869015 475.937856 
L 427.76458 474.224026 
L 431.733467 472.321498 
L 435.760609 470.215757 
L 439.826922 467.894362 
L 443.910645 465.34176 
L 447.985663 462.54551 
L 452.022012 459.493171 
L 455.985374 456.173338 
L 459.836914 452.575642 
L 463.533608 448.692826 
L 467.027581 444.517632 
L 470.266771 440.047987 
L 473.195434 435.285965 
L 475.754812 430.238822 
L 477.883638 424.914854 
L 479.519973 419.33376 
L 480.601879 413.516275 
L 481.070264 407.494541 
L 480.870054 401.303808 
L 479.952869 394.989696 
L 478.279372 388.600934 
L 475.821437 382.192474 
L 472.564503 375.827558 
L 468.509573 369.56736 
L 463.674726 363.477197 
L 458.095619 357.623424 
L 451.825484 352.065139 
L 444.934966 346.860403 
L 437.509269 342.057946 
L 429.646826 337.698202 
L 421.455107 333.810202 
L 413.047609 330.412608 
L 404.539504 327.512678 
L 396.043285 325.104192 
L 387.665919 323.172634 
L 379.505169 321.691046 
L 371.647078 320.628326 
L 364.164466 319.945075 
L 357.115586 319.599821 
L 350.544802 319.545907 
L 344.481892 319.740826 
L 338.944149 320.139994 
L 333.937248 320.704013 
L 329.456955 321.394522 
L 325.490897 322.179379 
L 322.020243 323.029555 
L 319.021205 323.920166 
L 316.466564 324.831514 
L 314.326807 325.748045 
L 312.571283 326.656282 
L 311.168806 327.54793 
L 310.088407 328.416768 
L 309.30012 329.25865 
L 308.774651 330.071501 
L 308.484212 330.855322 
L 308.402354 331.611149 
L 308.504468 332.341056 
L 308.767286 333.04608 
L 309.169046 333.730368 
L 310.310881 335.046067 
L 311.787517 336.310963 
L 314.374516 338.160614 
L 320.706438 342.48096 
L 323.127444 344.384525 
L 325.24656 346.32023 
L 327.038561 348.281856 
L 328.508282 350.261107 
L 329.679898 352.247616 
L 330.588395 354.236198 
L 331.273225 356.220634 
L 331.906437 358.854106 
L 332.297686 361.469952 
L 332.554216 364.712026 
L 332.660214 369.196186 
L 332.570161 377.357875 
L 332.354577 395.981914 
L 332.35692 418.367462 
L 332.550604 436.537382 
L 332.86128 446.842138 
L 333.292131 453.939034 
L 333.816871 459.006912 
L 334.463588 463.065984 
L 335.169279 466.167053 
L 335.972314 468.783936 
L 336.827125 470.933222 
L 337.900226 473.049331 
L 338.956135 474.714432 
L 340.229396 476.351539 
L 341.76817 477.952358 
L 343.63165 479.508595 
L 345.285546 480.638707 
L 347.199296 481.727347 
L 349.415521 482.765184 
L 351.983605 483.737702 
L 354.960311 484.624166 
L 358.411095 485.401766 
L 362.409611 486.034214 
L 367.038389 486.477965 
L 372.387488 486.669773 
L 376.400401 486.620006 
L 380.804026 486.393984 
L 385.625146 485.954381 
L 390.888536 485.258688 
L 396.613282 484.257139 
L 402.810764 482.887526 
L 409.480315 481.080384 
L 409.480315 481.080384 
" style="fill:none;stroke:#0000ff;stroke-linecap:square;"/>
   </g>
   <g id="patch_3">
    <path d="M 81 64.8 
L 583.2 64.8 
" style="fill:none;stroke:#000000;stroke-linecap:square;stroke-linejoin:miter;"/>
   </g>
   <g id="patch_4">
    <path d="M 583.2 583.2 
L 583.2 64.8 
" style="fill:none;stroke:#000000;stroke-linecap:square;stroke-linejoin:miter;"/>
   </g>
   <g id="patch_5">
    <path d="M 81 583.2 
L 81 64.8 
" style="fill:none;stroke:#000000;stroke-linecap:square;stroke-linejoin:miter;"/>
   </g>
   <g id="patch_6">
    <path d="M 81 583.2 
L 583.2 583.2 
" style="fill:none;stroke:#000000;stroke-linecap:square;stroke-linejoin:miter;"/>
   </g>
   <g id="matplotlib.axis_1">
    <g id="xtick_1">
     <g id="line2d_2">
      <path clip-path="url(#p5acc3bae0f)" d="M 81 583.2 
L 81 64.8 
" style="fill:none;stroke:#000000;stroke-dasharray:1.000000,3.000000;stroke-dashoffset:0.0;stroke-width:0.5;"/>
     </g>
     <g id="line2d_3">
      <defs>
       <path d="M 0 0 
L 0 -4 
" id="m46f475d4d7" style="stroke:#000000;stroke-width:0.5;"/>
      </defs>
      <g>
       <use style="stroke:#000000;stroke-width:0.5;" x="81.0" xlink:href="#m46f475d4d7" y="583.2"/>
      </g>
     </g>
     <g id="line2d_4">
      <defs>
       <path d="M 0 0 
L 0 4 
" id="med943b33e4" style="stroke:#000000;stroke-width:0.5;"/>
      </defs>
      <g>
       <use style="stroke:#000000;stroke-width:0.5;" x="81.0" xlink:href="#med943b33e4" y="64.8"/>
      </g>
     </g>
     <g id="text_1">
      <!-- 15 -->
      <defs>
       <path d="M 10.796875 72.90625 
L 49.515625 72.90625 
L 49.515625 64.59375 
L 19.828125 64.59375 
L 19.828125 46.734375 
Q 21.96875 47.46875 24.109375 47.828125 
Q 26.265625 48.1875 28.421875 48.1875 
Q 40.625 48.1875 47.75 41.5 
Q 54.890625 34.8125 54.890625 23.390625 
Q 54.890625 11.625 47.5625 5.09375 
Q 40.234375 -1.421875 26.90625 -1.421875 
Q 22.3125 -1.421875 17.546875 -0.640625 
Q 12.796875 0.140625 7.71875 1.703125 
L 7.71875 11.625 
Q 12.109375 9.234375 16.796875 8.0625 
Q 21.484375 6.890625 26.703125 6.890625 
Q 35.15625 6.890625 40.078125 11.328125 
Q 45.015625 15.765625 45.015625 23.390625 
Q 45.015625 31 40.078125 35.4375 
Q 35.15625 39.890625 26.703125 39.890625 
Q 22.75 39.890625 18.8125 39.015625 
Q 14.890625 38.140625 10.796875 36.28125 
z
" id="BitstreamVeraSans-Roman-35"/>
       <path d="M 12.40625 8.296875 
L 28.515625 8.296875 
L 28.515625 63.921875 
L 10.984375 60.40625 
L 10.984375 69.390625 
L 28.421875 72.90625 
L 38.28125 72.90625 
L 38.28125 8.296875 
L 54.390625 8.296875 
L 54.390625 0 
L 12.40625 0 
z
" id="BitstreamVeraSans-Roman-31"/>
       <path d="M 10.59375 35.5 
L 73.1875 35.5 
L 73.1875 27.203125 
L 10.59375 27.203125 
z
" id="BitstreamVeraSans-Roman-2212"/>
      </defs>
      <g transform="translate(68.3371875 596.318125)scale(0.12 -0.12)">
       <use xlink:href="#BitstreamVeraSans-Roman-2212"/>
       <use x="83.7890625" xlink:href="#BitstreamVeraSans-Roman-31"/>
       <use x="147.412109375" xlink:href="#BitstreamVeraSans-Roman-35"/>
      </g>
     </g>
    </g>
    <g id="xtick_2">
     <g id="line2d_5">
      <path clip-path="url(#p5acc3bae0f)" d="M 164.7 583.2 
L 164.7 64.8 
" style="fill:none;stroke:#000000;stroke-dasharray:1.000000,3.000000;stroke-dashoffset:0.0;stroke-width:0.5;"/>
     </g>
     <g id="line2d_6">
      <g>
       <use style="stroke:#000000;stroke-width:0.5;" x="164.7" xlink:href="#m46f475d4d7" y="583.2"/>
      </g>
     </g>
     <g id="line2d_7">
      <g>
       <use style="stroke:#000000;stroke-width:0.5;" x="164.7" xlink:href="#med943b33e4" y="64.8"/>
      </g>
     </g>
     <g id="text_2">
      <!-- 10 -->
      <defs>
       <path d="M 31.78125 66.40625 
Q 24.171875 66.40625 20.328125 58.90625 
Q 16.5 51.421875 16.5 36.375 
Q 16.5 21.390625 20.328125 13.890625 
Q 24.171875 6.390625 31.78125 6.390625 
Q 39.453125 6.390625 43.28125 13.890625 
Q 47.125 21.390625 47.125 36.375 
Q 47.125 51.421875 43.28125 58.90625 
Q 39.453125 66.40625 31.78125 66.40625 
M 31.78125 74.21875 
Q 44.046875 74.21875 50.515625 64.515625 
Q 56.984375 54.828125 56.984375 36.375 
Q 56.984375 17.96875 50.515625 8.265625 
Q 44.046875 -1.421875 31.78125 -1.421875 
Q 19.53125 -1.421875 13.0625 8.265625 
Q 6.59375 17.96875 6.59375 36.375 
Q 6.59375 54.828125 13.0625 64.515625 
Q 19.53125 74.21875 31.78125 74.21875 
" id="BitstreamVeraSans-Roman-30"/>
      </defs>
      <g transform="translate(152.0371875 596.318125)scale(0.12 -0.12)">
       <use xlink:href="#BitstreamVeraSans-Roman-2212"/>
       <use x="83.7890625" xlink:href="#BitstreamVeraSans-Roman-31"/>
       <use x="147.412109375" xlink:href="#BitstreamVeraSans-Roman-30"/>
      </g>
     </g>
    </g>
    <g id="xtick_3">
     <g id="line2d_8">
      <path clip-path="url(#p5acc3bae0f)" d="M 248.4 583.2 
L 248.4 64.8 
" style="fill:none;stroke:#000000;stroke-dasharray:1.000000,3.000000;stroke-dashoffset:0.0;stroke-width:0.5;"/>
     </g>
     <g id="line2d_9">
      <g>
       <use style="stroke:#000000;stroke-width:0.5;" x="248.4" xlink:href="#m46f475d4d7" y="583.2"/>
      </g>
     </g>
     <g id="line2d_10">
      <g>
       <use style="stroke:#000000;stroke-width:0.5;" x="248.4" xlink:href="#med943b33e4" y="64.8"/>
      </g>
     </g>
     <g id="text_3">
      <!-- 5 -->
      <g transform="translate(239.5546875 596.318125)scale(0.12 -0.12)">
       <use xlink:href="#BitstreamVeraSans-Roman-2212"/>
       <use x="83.7890625" xlink:href="#BitstreamVeraSans-Roman-35"/>
      </g>
     </g>
    </g>
    <g id="xtick_4">
     <g id="line2d_11">
      <path clip-path="url(#p5acc3bae0f)" d="M 332.1 583.2 
L 332.1 64.8 
" style="fill:none;stroke:#000000;stroke-dasharray:1.000000,3.000000;stroke-dashoffset:0.0;stroke-width:0.5;"/>
     </g>
     <g id="line2d_12">
      <g>
       <use style="stroke:#000000;stroke-width:0.5;" x="332.1" xlink:href="#m46f475d4d7" y="583.2"/>
      </g>
     </g>
     <g id="line2d_13">
      <g>
       <use style="stroke:#000000;stroke-width:0.5;" x="332.1" xlink:href="#med943b33e4" y="64.8"/>
      </g>
     </g>
     <g id="text_4">
      <!-- 0 -->
      <g transform="translate(328.2825 596.318125)scale(0.12 -0.12)">
       <use xlink:href="#BitstreamVeraSans-Roman-30"/>
      </g>
     </g>
    </g>
    <g id="xtick_5">
     <g id="line2d_14">
      <path clip-path="url(#p5acc3bae0f)" d="M 415.8 583.2 
L 415.8 64.8 
" style="fill:none;stroke:#000000;stroke-dasharray:1.000000,3.000000;stroke-dashoffset:0.0;stroke-width:0.5;"/>
     </g>
     <g id="line2d_15">
      <g>
       <use style="stroke:#000000;stroke-width:0.5;" x="415.8" xlink:href="#m46f475d4d7" y="583.2"/>
      </g>
     </g>
     <g id="line2d_16">
      <g>
       <use style="stroke:#000000;stroke-width:0.5;" x="415.8" xlink:href="#med943b33e4" y="64.8"/>
      </g>
     </g>
     <g id="text_5">
      <!-- 5 -->
      <g transform="translate(411.9825 596.318125)scale(0.12 -0.12)">
       <use xlink:href="#BitstreamVeraSans-Roman-35"/>
      </g>
     </g>
    </g>
    <g id="xtick_6">
     <g id="line2d_17">
      <path clip-path="url(#p5acc3bae0f)" d="M 499.5 583.2 
L 499.5 64.8 
" style="fill:none;stroke:#000000;stroke-dasharray:1.000000,3.000000;stroke-dashoffset:0.0;stroke-width:0.5;"/>
     </g>
     <g id="line2d_18">
      <g>
       <use style="stroke:#000000;stroke-width:0.5;" x="499.5" xlink:href="#m46f475d4d7" y="583.2"/>
      </g>
     </g>
     <g id="line2d_19">
      <g>
       <use style="stroke:#000000;stroke-width:0.5;" x="499.5" xlink:href="#med943b33e4" y="64.8"/>
      </g>
     </g>
     <g id="text_6">
      <!-- 10 -->
      <g transform="translate(491.865 596.318125)scale(0.12 -0.12)">
       <use xlink:href="#BitstreamVeraSans-Roman-31"/>
       <use x="63.623046875" xlink:href="#BitstreamVeraSans-Roman-30"/>
      </g>
     </g>
    </g>
    <g id="xtick_7">
     <g id="line2d_20">
      <path clip-path="url(#p5acc3bae0f)" d="M 583.2 583.2 
L 583.2 64.8 
" style="fill:none;stroke:#000000;stroke-dasharray:1.000000,3.000000;stroke-dashoffset:0.0;stroke-width:0.5;"/>
     </g>
     <g id="line2d_21">
      <g>
       <use style="stroke:#000000;stroke-width:0.5;" x="583.2" xlink:href="#m46f475d4d7" y="583.2"/>
      </g>
     </g>
     <g id="line2d_22">
      <g>
       <use style="stroke:#000000;stroke-width:0.5;" x="583.2" xlink:href="#med943b33e4" y="64.8"/>
      </g>
     </g>
     <g id="text_7">
      <!-- 15 -->
      <g transform="translate(575.565 596.318125)scale(0.12 -0.12)">
       <use xlink:href="#BitstreamVeraSans-Roman-31"/>
       <use x="63.623046875" xlink:href="#BitstreamVeraSans-Roman-35"/>
      </g>
     </g>
    </g>
    <g id="text_8">
     <!-- x -->
     <defs>
      <path d="M 54.890625 54.6875 
L 35.109375 28.078125 
L 55.90625 0 
L 45.3125 0 
L 29.390625 21.484375 
L 13.484375 0 
L 2.875 0 
L 24.125 28.609375 
L 4.6875 54.6875 
L 15.28125 54.6875 
L 29.78125 35.203125 
L 44.28125 54.6875 
z
" id="BitstreamVeraSans-Roman-78"/>
     </defs>
     <g transform="translate(326.773125 617.4909375)scale(0.18 -0.18)">
      <use xlink:href="#BitstreamVeraSans-Roman-78"/>
     </g>
    </g>
   </g>
   <g id="matplotlib.axis_2">
    <g id="ytick_1">
     <g id="line2d_23">
      <path clip-path="url(#p5acc3bae0f)" d="M 81 583.2 
L 583.2 583.2 
" style="fill:none;stroke:#000000;stroke-dasharray:1.000000,3.000000;stroke-dashoffset:0.0;stroke-width:0.5;"/>
     </g>
     <g id="line2d_24">
      <defs>
       <path d="M 0 0 
L 4 0 
" id="m9eef81c3e7" style="stroke:#000000;stroke-width:0.5;"/>
      </defs>
      <g>
       <use style="stroke:#000000;stroke-width:0.5;" x="81.0" xlink:href="#m9eef81c3e7" y="583.2"/>
      </g>
     </g>
     <g id="line2d_25">
      <defs>
       <path d="M 0 0 
L -4 0 
" id="med5d5eae08" style="stroke:#000000;stroke-width:0.5;"/>
      </defs>
      <g>
       <use style="stroke:#000000;stroke-width:0.5;" x="583.2" xlink:href="#med5d5eae08" y="583.2"/>
      </g>
     </g>
     <g id="text_9">
      <!-- 10 -->
      <g transform="translate(61.73 586.51125)scale(0.12 -0.12)">
       <use xlink:href="#BitstreamVeraSans-Roman-31"/>
       <use x="63.623046875" xlink:href="#BitstreamVeraSans-Roman-30"/>
      </g>
     </g>
    </g>
    <g id="ytick_2">
     <g id="line2d_26">
      <path clip-path="url(#p5acc3bae0f)" d="M 81 479.52 
L 583.2 479.52 
" style="fill:none;stroke:#000000;stroke-dasharray:1.000000,3.000000;stroke-dashoffset:0.0;stroke-width:0.5;"/>
     </g>
     <g id="line2d_27">
      <g>
       <use style="stroke:#000000;stroke-width:0.5;" x="81.0" xlink:href="#m9eef81c3e7" y="479.52"/>
      </g>
     </g>
     <g id="line2d_28">
      <g>
       <use style="stroke:#000000;stroke-width:0.5;" x="583.2" xlink:href="#med5d5eae08" y="479.52"/>
      </g>
     </g>
     <g id="text_10">
      <!-- 20 -->
      <defs>
       <path d="M 19.1875 8.296875 
L 53.609375 8.296875 
L 53.609375 0 
L 7.328125 0 
L 7.328125 8.296875 
Q 12.9375 14.109375 22.625 23.890625 
Q 32.328125 33.6875 34.8125 36.53125 
Q 39.546875 41.84375 41.421875 45.53125 
Q 43.3125 49.21875 43.3125 52.78125 
Q 43.3125 58.59375 39.234375 62.25 
Q 35.15625 65.921875 28.609375 65.921875 
Q 23.96875 65.921875 18.8125 64.3125 
Q 13.671875 62.703125 7.8125 59.421875 
L 7.8125 69.390625 
Q 13.765625 71.78125 18.9375 73 
Q 24.125 74.21875 28.421875 74.21875 
Q 39.75 74.21875 46.484375 68.546875 
Q 53.21875 62.890625 53.21875 53.421875 
Q 53.21875 48.921875 51.53125 44.890625 
Q 49.859375 40.875 45.40625 35.40625 
Q 44.1875 33.984375 37.640625 27.21875 
Q 31.109375 20.453125 19.1875 8.296875 
" id="BitstreamVeraSans-Roman-32"/>
      </defs>
      <g transform="translate(61.73 482.83125)scale(0.12 -0.12)">
       <use xlink:href="#BitstreamVeraSans-Roman-32"/>
       <use x="63.623046875" xlink:href="#BitstreamVeraSans-Roman-30"/>
      </g>
     </g>
    </g>
    <g id="ytick_3">
     <g id="line2d_29">
      <path clip-path="url(#p5acc3bae0f)" d="M 81 375.84 
L 583.2 375.84 
" style="fill:none;stroke:#000000;stroke-dasharray:1.000000,3.000000;stroke-dashoffset:0.0;stroke-width:0.5;"/>
     </g>
     <g id="line2d_30">
      <g>
       <use style="stroke:#000000;stroke-width:0.5;" x="81.0" xlink:href="#m9eef81c3e7" y="375.84"/>
      </g>
     </g>
     <g id="line2d_31">
      <g>
       <use style="stroke:#000000;stroke-width:0.5;" x="583.2" xlink:href="#med5d5eae08" y="375.84"/>
      </g>
     </g>
     <g id="text_11">
      <!-- 30 -->
      <defs>
       <path d="M 40.578125 39.3125 
Q 47.65625 37.796875 51.625 33 
Q 55.609375 28.21875 55.609375 21.1875 
Q 55.609375 10.40625 48.1875 4.484375 
Q 40.765625 -1.421875 27.09375 -1.421875 
Q 22.515625 -1.421875 17.65625 -0.515625 
Q 12.796875 0.390625 7.625 2.203125 
L 7.625 11.71875 
Q 11.71875 9.328125 16.59375 8.109375 
Q 21.484375 6.890625 26.8125 6.890625 
Q 36.078125 6.890625 40.9375 10.546875 
Q 45.796875 14.203125 45.796875 21.1875 
Q 45.796875 27.640625 41.28125 31.265625 
Q 36.765625 34.90625 28.71875 34.90625 
L 20.21875 34.90625 
L 20.21875 43.015625 
L 29.109375 43.015625 
Q 36.375 43.015625 40.234375 45.921875 
Q 44.09375 48.828125 44.09375 54.296875 
Q 44.09375 59.90625 40.109375 62.90625 
Q 36.140625 65.921875 28.71875 65.921875 
Q 24.65625 65.921875 20.015625 65.03125 
Q 15.375 64.15625 9.8125 62.3125 
L 9.8125 71.09375 
Q 15.4375 72.65625 20.34375 73.4375 
Q 25.25 74.21875 29.59375 74.21875 
Q 40.828125 74.21875 47.359375 69.109375 
Q 53.90625 64.015625 53.90625 55.328125 
Q 53.90625 49.265625 50.4375 45.09375 
Q 46.96875 40.921875 40.578125 39.3125 
" id="BitstreamVeraSans-Roman-33"/>
      </defs>
      <g transform="translate(61.73 379.15125)scale(0.12 -0.12)">
       <use xlink:href="#BitstreamVeraSans-Roman-33"/>
       <use x="63.623046875" xlink:href="#BitstreamVeraSans-Roman-30"/>
      </g>
     </g>
    </g>
    <g id="ytick_4">
     <g id="line2d_32">
      <path clip-path="url(#p5acc3bae0f)" d="M 81 272.16 
L 583.2 272.16 
" style="fill:none;stroke:#000000;stroke-dasharray:1.000000,3.000000;stroke-dashoffset:0.0;stroke-width:0.5;"/>
     </g>
     <g id="line2d_33">
      <g>
       <use style="stroke:#000000;stroke-width:0.5;" x="81.0" xlink:href="#m9eef81c3e7" y="272.16"/>
      </g>
     </g>
     <g id="line2d_34">
      <g>
       <use style="stroke:#000000;stroke-width:0.5;" x="583.2" xlink:href="#med5d5eae08" y="272.16"/>
      </g>
     </g>
     <g id="text_12">
      <!-- 40 -->
      <defs>
       <path d="M 37.796875 64.3125 
L 12.890625 25.390625 
L 37.796875 25.390625 
z
M 35.203125 72.90625 
L 47.609375 72.90625 
L 47.609375 25.390625 
L 58.015625 25.390625 
L 58.015625 17.1875 
L 47.609375 17.1875 
L 47.609375 0 
L 37.796875 0 
L 37.796875 17.1875 
L 4.890625 17.1875 
L 4.890625 26.703125 
z
" id="BitstreamVeraSans-Roman-34"/>
      </defs>
      <g transform="translate(61.73 275.47125)scale(0.12 -0.12)">
       <use xlink:href="#BitstreamVeraSans-Roman-34"/>
       <use x="63.623046875" xlink:href="#BitstreamVeraSans-Roman-30"/>
      </g>
     </g>
    </g>
    <g id="ytick_5">
     <g id="line2d_35">
      <path clip-path="url(#p5acc3bae0f)" d="M 81 168.48 
L 583.2 168.48 
" style="fill:none;stroke:#000000;stroke-dasharray:1.000000,3.000000;stroke-dashoffset:0.0;stroke-width:0.5;"/>
     </g>
     <g id="line2d_36">
      <g>
       <use style="stroke:#000000;stroke-width:0.5;" x="81.0" xlink:href="#m9eef81c3e7" y="168.48"/>
      </g>
     </g>
     <g id="line2d_37">
      <g>
       <use style="stroke:#000000;stroke-width:0.5;" x="583.2" xlink:href="#med5d5eae08" y="168.48"/>
      </g>
     </g>
     <g id="text_13">
      <!-- 50 -->
      <g transform="translate(61.73 171.79125)scale(0.12 -0.12)">
       <use xlink:href="#BitstreamVeraSans-Roman-35"/>
       <use x="63.623046875" xlink:href="#BitstreamVeraSans-Roman-30"/>
      </g>
     </g>
    </g>
    <g id="ytick_6">
     <g id="line2d_38">
      <path clip-path="url(#p5acc3bae0f)" d="M 81 64.8 
L 583.2 64.8 
" style="fill:none;stroke:#000000;stroke-dasharray:1.000000,3.000000;stroke-dashoffset:0.0;stroke-width:0.5;"/>
     </g>
     <g id="line2d_39">
      <g>
       <use style="stroke:#000000;stroke-width:0.5;" x="81.0" xlink:href="#m9eef81c3e7" y="64.8"/>
      </g>
     </g>
     <g id="line2d_40">
      <g>
       <use style="stroke:#000000;stroke-width:0.5;" x="583.2" xlink:href="#med5d5eae08" y="64.8"/>
      </g>
     </g>
     <g id="text_14">
      <!-- 60 -->
      <defs>
       <path d="M 33.015625 40.375 
Q 26.375 40.375 22.484375 35.828125 
Q 18.609375 31.296875 18.609375 23.390625 
Q 18.609375 15.53125 22.484375 10.953125 
Q 26.375 6.390625 33.015625 6.390625 
Q 39.65625 6.390625 43.53125 10.953125 
Q 47.40625 15.53125 47.40625 23.390625 
Q 47.40625 31.296875 43.53125 35.828125 
Q 39.65625 40.375 33.015625 40.375 
M 52.59375 71.296875 
L 52.59375 62.3125 
Q 48.875 64.0625 45.09375 64.984375 
Q 41.3125 65.921875 37.59375 65.921875 
Q 27.828125 65.921875 22.671875 59.328125 
Q 17.53125 52.734375 16.796875 39.40625 
Q 19.671875 43.65625 24.015625 45.921875 
Q 28.375 48.1875 33.59375 48.1875 
Q 44.578125 48.1875 50.953125 41.515625 
Q 57.328125 34.859375 57.328125 23.390625 
Q 57.328125 12.15625 50.6875 5.359375 
Q 44.046875 -1.421875 33.015625 -1.421875 
Q 20.359375 -1.421875 13.671875 8.265625 
Q 6.984375 17.96875 6.984375 36.375 
Q 6.984375 53.65625 15.1875 63.9375 
Q 23.390625 74.21875 37.203125 74.21875 
Q 40.921875 74.21875 44.703125 73.484375 
Q 48.484375 72.75 52.59375 71.296875 
" id="BitstreamVeraSans-Roman-36"/>
      </defs>
      <g transform="translate(61.73 68.11125)scale(0.12 -0.12)">
       <use xlink:href="#BitstreamVeraSans-Roman-36"/>
       <use x="63.623046875" xlink:href="#BitstreamVeraSans-Roman-30"/>
      </g>
     </g>
    </g>
    <g id="text_15">
     <!-- y -->
     <defs>
      <path d="M 32.171875 -5.078125 
Q 28.375 -14.84375 24.75 -17.8125 
Q 21.140625 -20.796875 15.09375 -20.796875 
L 7.90625 -20.796875 
L 7.90625 -13.28125 
L 13.1875 -13.28125 
Q 16.890625 -13.28125 18.9375 -11.515625 
Q 21 -9.765625 23.484375 -3.21875 
L 25.09375 0.875 
L 2.984375 54.6875 
L 12.5 54.6875 
L 29.59375 11.921875 
L 46.6875 54.6875 
L 56.203125 54.6875 
z
" id="BitstreamVeraSans-Roman-79"/>
     </defs>
     <g transform="translate(52.9865625 329.326875)rotate(-90.0)scale(0.18 -0.18)">
      <use xlink:href="#BitstreamVeraSans-Roman-79"/>
     </g>
    </g>
   </g>
   <g id="text_16">
    <!-- Data -->
    <defs>
     <path d="M 19.671875 64.796875 
L 19.671875 8.109375 
L 31.59375 8.109375 
Q 46.6875 8.109375 53.6875 14.9375 
Q 60.6875 21.78125 60.6875 36.53125 
Q 60.6875 51.171875 53.6875 57.984375 
Q 46.6875 64.796875 31.59375 64.796875 
z
M 9.8125 72.90625 
L 30.078125 72.90625 
Q 51.265625 72.90625 61.171875 64.09375 
Q 71.09375 55.28125 71.09375 36.53125 
Q 71.09375 17.671875 61.125 8.828125 
Q 51.171875 0 30.078125 0 
L 9.8125 0 
z
" id="BitstreamVeraSans-Roman-44"/>
     <path d="M 34.28125 27.484375 
Q 23.390625 27.484375 19.1875 25 
Q 14.984375 22.515625 14.984375 16.5 
Q 14.984375 11.71875 18.140625 8.90625 
Q 21.296875 6.109375 26.703125 6.109375 
Q 34.1875 6.109375 38.703125 11.40625 
Q 43.21875 16.703125 43.21875 25.484375 
L 43.21875 27.484375 
z
M 52.203125 31.203125 
L 52.203125 0 
L 43.21875 0 
L 43.21875 8.296875 
Q 40.140625 3.328125 35.546875 0.953125 
Q 30.953125 -1.421875 24.3125 -1.421875 
Q 15.921875 -1.421875 10.953125 3.296875 
Q 6 8.015625 6 15.921875 
Q 6 25.140625 12.171875 29.828125 
Q 18.359375 34.515625 30.609375 34.515625 
L 43.21875 34.515625 
L 43.21875 35.40625 
Q 43.21875 41.609375 39.140625 45 
Q 35.0625 48.390625 27.6875 48.390625 
Q 23 48.390625 18.546875 47.265625 
Q 14.109375 46.140625 10.015625 43.890625 
L 10.015625 52.203125 
Q 14.9375 54.109375 19.578125 55.046875 
Q 24.21875 56 28.609375 56 
Q 40.484375 56 46.34375 49.84375 
Q 52.203125 43.703125 52.203125 31.203125 
" id="BitstreamVeraSans-Roman-61"/>
     <path d="M 18.3125 70.21875 
L 18.3125 54.6875 
L 36.8125 54.6875 
L 36.8125 47.703125 
L 18.3125 47.703125 
L 18.3125 18.015625 
Q 18.3125 11.328125 20.140625 9.421875 
Q 21.96875 7.515625 27.59375 7.515625 
L 36.8125 7.515625 
L 36.8125 0 
L 27.59375 0 
Q 17.1875 0 13.234375 3.875 
Q 9.28125 7.765625 9.28125 18.015625 
L 9.28125 47.703125 
L 2.6875 47.703125 
L 2.6875 54.6875 
L 9.28125 54.6875 
L 9.28125 70.21875 
z
" id="BitstreamVeraSans-Roman-74"/>
    </defs>
    <g transform="translate(305.83578125 59.8)scale(0.22 -0.22)">
     <use xlink:href="#BitstreamVeraSans-Roman-44"/>
     <use x="77.001953125" xlink:href="#BitstreamVeraSans-Roman-61"/>
     <use x="138.28125" xlink:href="#BitstreamVeraSans-Roman-74"/>
     <use x="177.490234375" xlink:href="#BitstreamVeraSans-Roman-61"/>
    </g>
   </g>
   <g id="legend_1">
    <g id="patch_7">
     <path d="M 88.2 97.4565 
L 181.638 97.4565 
L 181.638 72 
L 88.2 72 
z
" style="fill:#ffffff;stroke:#000000;stroke-linejoin:miter;"/>
    </g>
    <g id="line2d_41">
     <path d="M 98.28 83.66175 
L 118.44 83.66175 
" style="fill:none;stroke:#0000ff;stroke-linecap:square;"/>
    </g>
    <g id="line2d_42"/>
    <g id="text_17">
     <!-- data1 -->
     <defs>
      <path d="M 45.40625 46.390625 
L 45.40625 75.984375 
L 54.390625 75.984375 
L 54.390625 0 
L 45.40625 0 
L 45.40625 8.203125 
Q 42.578125 3.328125 38.25 0.953125 
Q 33.9375 -1.421875 27.875 -1.421875 
Q 17.96875 -1.421875 11.734375 6.484375 
Q 5.515625 14.40625 5.515625 27.296875 
Q 5.515625 40.1875 11.734375 48.09375 
Q 17.96875 56 27.875 56 
Q 33.9375 56 38.25 53.625 
Q 42.578125 51.265625 45.40625 46.390625 
M 14.796875 27.296875 
Q 14.796875 17.390625 18.875 11.75 
Q 22.953125 6.109375 30.078125 6.109375 
Q 37.203125 6.109375 41.296875 11.75 
Q 45.40625 17.390625 45.40625 27.296875 
Q 45.40625 37.203125 41.296875 42.84375 
Q 37.203125 48.484375 30.078125 48.484375 
Q 22.953125 48.484375 18.875 42.84375 
Q 14.796875 37.203125 14.796875 27.296875 
" id="BitstreamVeraSans-Roman-64"/>
     </defs>
     <g transform="translate(134.28 88.70175)scale(0.144 -0.144)">
      <use xlink:href="#BitstreamVeraSans-Roman-64"/>
      <use x="63.4765625" xlink:href="#BitstreamVeraSans-Roman-61"/>
      <use x="124.755859375" xlink:href="#BitstreamVeraSans-Roman-74"/>
      <use x="163.96484375" xlink:href="#BitstreamVeraSans-Roman-61"/>
      <use x="225.244140625" xlink:href="#BitstreamVeraSans-Roman-31"/>
     </g>
    </g>
   </g>
  </g>
 </g>
 <defs>
  <clipPath id="p5acc3bae0f">
   <rect height="518.4" width="502.2" x="81.0" y="64.8"/>
  </clipPath>
 </defs>
</svg>
