<?xml version="1.0" encoding="utf-8" standalone="no"?>
<!DOCTYPE svg PUBLIC "-//W3C//DTD SVG 1.1//EN"
  "http://www.w3.org/Graphics/SVG/1.1/DTD/svg11.dtd">
<!-- Created with matplotlib (http://matplotlib.org/) -->
<svg height="648pt" version="1.1" viewBox="0 0 648 648" width="648pt" xmlns="http://www.w3.org/2000/svg" xmlns:xlink="http://www.w3.org/1999/xlink">
 <defs>
  <style type="text/css">
*{stroke-linecap:butt;stroke-linejoin:round;stroke-miterlimit:100000;}
  </style>
 </defs>
 <g id="figure_1">
  <g id="patch_1">
   <path d="M 0 648 
L 648 648 
L 648 0 
L 0 0 
z
" style="fill:#ffffff;"/>
  </g>
  <g id="axes_1">
   <g id="patch_2">
    <path d="M 81 583.2 
L 583.2 583.2 
L 583.2 64.8 
L 81 64.8 
z
" style="fill:#ffffff;"/>
   </g>
   <g id="line2d_1">
    <path clip-path="url(#pb5453197ca)" d="M 400.880977 310.514187 
L 395.309236 329.211251 
L 388.483501 346.13257 
L 380.701075 360.950861 
L 372.261269 373.442573 
L 363.455527 383.483462 
L 354.55738 391.039661 
L 345.817241 396.155405 
L 337.455461 398.938349 
L 329.660262 399.546432 
L 322.58567 398.176819 
L 316.351226 395.055014 
L 311.042587 390.426221 
L 306.713288 384.548774 
L 303.38638 377.686195 
L 301.056842 370.102867 
L 299.695043 362.056262 
L 299.248754 353.792621 
L 299.647669 345.541075 
L 300.806244 337.509055 
L 302.626886 329.87831 
L 305.004636 322.802258 
L 307.830348 316.404282 
L 310.993036 310.777292 
L 314.384728 305.98439 
L 317.901517 302.060275 
L 321.446781 299.013984 
L 324.932618 296.831347 
L 328.281321 295.478323 
L 331.42623 294.904109 
L 334.312275 295.044422 
L 336.896127 295.82496 
L 339.145966 297.163987 
L 341.041102 298.975104 
L 342.571289 301.17001 
L 343.735823 303.660749 
L 344.542608 306.36144 
L 345.007076 309.190608 
L 345.15104 312.072065 
L 345.001451 314.936467 
L 344.589329 317.722159 
L 343.948572 320.375779 
L 343.114803 322.852617 
L 342.124481 325.116756 
L 341.013849 327.140916 
L 339.818178 328.906155 
L 338.571081 330.401307 
L 337.303847 331.622415 
L 336.045049 332.571951 
L 334.820133 333.258054 
L 333.651242 333.693648 
L 332.557046 333.895668 
L 331.552697 333.884125 
L 330.649903 333.681396 
L 329.857024 333.311397 
L 329.179289 332.798924 
L 328.61895 332.169016 
L 328.175692 331.446367 
L 327.846751 330.654856 
L 327.511114 328.95428 
L 327.555257 327.22818 
L 327.905073 325.605656 
L 328.478401 324.180987 
L 329.193082 323.013996 
L 329.973083 322.133138 
L 330.752941 321.540365 
L 331.480364 321.216831 
L 332.117236 321.129014 
L 332.639358 321.234405 
L 333.0352 321.486589 
L 333.392909 322.03993 
L 333.497603 322.681287 
L 333.342602 323.491648 
L 332.993755 324.11375 
L 332.493507 324.550895 
L 332.086009 324.657151 
L 331.816525 324.518086 
L 331.770205 324.242896 
L 331.956187 323.953124 
L 332.148614 323.921462 
L 332.155298 323.952265 
L 331.997999 324.161501 
L 329.465258 328.509942 
L 320.177772 344.9088 
L 285.137771 406.991174 
L 274.404586 425.581862 
L 261.378355 447.636154 
L 251.271412 464.256922 
L 239.956846 482.229504 
L 233.842729 491.613062 
L 227.430974 501.168384 
L 220.734639 510.801984 
L 213.774649 520.392384 
L 206.581639 529.790976 
L 199.197625 538.81632 
L 191.677514 547.259328 
L 184.091449 554.874624 
L 176.526308 561.387456 
L 169.086717 566.495424 
L 161.89605 569.880576 
L 155.096262 571.21632 
L 148.848894 570.18816 
L 143.324694 566.514432 
L 138.707802 559.968768 
L 135.18738 550.407744 
L 132.945894 537.798528 
L 132.14907 522.234432 
L 132.940872 503.947008 
L 135.423414 483.310541 
L 139.658634 460.826842 
L 145.648206 437.094317 
L 153.336888 412.769952 
L 162.614196 388.521792 
L 173.311558 364.981939 
L 185.220227 342.705082 
L 198.096133 322.137907 
L 211.67696 303.603552 
L 225.695203 287.300045 
L 239.891058 273.31033 
L 254.022464 261.621792 
L 267.87314 252.148032 
L 281.256435 244.752365 
L 294.017839 239.26873 
L 306.034481 235.516896 
L 317.2128 233.316115 
L 327.48654 232.490822 
L 336.812829 232.87703 
L 345.169069 234.322157 
L 352.549751 236.685715 
L 358.963348 239.83776 
L 364.430129 243.65785 
L 368.980396 248.033318 
L 372.651478 252.857549 
L 375.488406 258.030317 
L 377.540228 263.456064 
L 378.861516 269.045107 
L 379.509019 274.712947 
L 379.542834 280.381997 
L 379.024061 285.980717 
L 378.014807 291.44569 
L 376.577008 296.721274 
L 374.771934 301.759776 
L 372.659179 306.522317 
L 370.296495 310.97793 
L 367.738288 315.104118 
L 365.036285 318.885673 
L 362.238194 322.314372 
L 359.387539 325.388242 
L 356.52433 328.110774 
L 353.683719 330.490074 
L 350.896676 332.538186 
L 348.189802 334.270212 
L 345.585895 335.703658 
L 343.10352 336.857806 
L 340.75756 337.753152 
L 338.559464 338.410898 
L 336.517468 338.852488 
L 334.63688 339.099316 
L 332.920449 339.172445 
L 331.368574 339.092248 
L 329.979661 338.878391 
L 328.750343 338.549501 
L 327.675836 338.123203 
L 326.750063 337.615966 
L 325.966012 337.043048 
L 325.315864 336.418531 
L 324.383329 335.064678 
L 323.881413 333.642465 
L 323.737332 332.221306 
L 323.880158 330.853594 
L 324.243566 329.576584 
L 324.767629 328.414608 
L 325.742332 326.914635 
L 326.818547 325.713874 
L 328.235169 324.546409 
L 329.494168 323.796779 
L 330.742984 323.296351 
L 331.75179 323.102684 
L 332.436099 323.170406 
L 332.669948 323.380211 
L 332.593607 323.588409 
L 332.422215 323.681184 
L 332.480445 323.546282 
L 347.050695 300.384806 
L 377.849248 250.553606 
L 388.84793 233.272397 
L 398.656566 218.292883 
L 405.985673 207.439315 
L 413.948389 196.047994 
L 422.512907 184.353235 
L 426.999897 178.496698 
L 431.605573 172.707206 
L 436.311522 167.050598 
L 441.09481 161.603597 
L 445.92748 156.452602 
L 450.775886 151.694381 
L 455.600354 147.434688 
L 460.355184 143.78688 
L 464.987812 140.870016 
L 469.439647 138.808512 
L 473.646074 137.723328 
L 477.536953 137.728512 
L 481.038291 138.932928 
L 484.072918 141.41952 
L 486.562993 145.257408 
L 488.432349 150.477696 
L 489.609004 157.082976 
L 490.028341 165.031603 
L 489.635453 174.243398 
L 488.389662 184.596019 
L 486.265356 195.928934 
L 483.255839 208.049126 
L 479.372996 220.738349 
L 474.649135 233.764358 
L 469.135816 246.890592 
L 462.902175 259.887744 
L 456.032916 272.543443 
L 448.624462 284.671066 
L 440.781939 296.1144 
L 432.615163 306.752331 
L 424.234449 316.498216 
L 415.747771 325.299221 
L 407.257243 333.132774 
L 398.856776 340.002317 
L 390.63074 345.932294 
L 382.652959 350.963539 
L 374.985704 355.148237 
L 367.679531 358.546003 
L 360.77495 361.220947 
L 354.30176 363.238214 
L 348.280348 364.662605 
L 342.72312 365.557018 
L 337.634964 365.981414 
L 333.014525 365.992128 
L 328.855085 365.642381 
L 325.145467 364.980902 
L 321.870889 364.053312 
L 319.013656 362.901082 
L 316.553746 361.562918 
L 314.469432 360.073728 
L 312.737846 358.465478 
L 311.335202 356.767373 
L 310.237393 355.005504 
L 309.419978 353.203718 
L 308.858854 351.382925 
L 308.530247 349.561786 
L 308.410891 347.75689 
L 308.478353 345.982406 
L 308.711039 344.250259 
L 309.088192 342.570816 
L 309.590392 340.952354 
L 310.897116 337.923861 
L 312.498464 335.200706 
L 314.281442 332.798492 
L 316.152154 330.716926 
L 318.03542 328.94367 
L 319.873037 327.458143 
L 322.453274 325.711793 
L 324.744695 324.456693 
L 327.284521 323.379081 
L 329.237962 322.7929 
L 330.952786 322.498385 
L 332.183408 322.488019 
L 332.920436 322.681503 
L 333.129533 322.930377 
L 333.028251 323.11962 
L 332.968511 323.11885 
L 332.980239 323.044993 
L 332.980239 323.044993 
L 333.328279 322.471613 
L 341.117269 310.571228 
L 353.575579 290.930573 
L 372.658174 260.872531 
L 384.037859 243.352858 
L 392.263225 231.013037 
L 401.621053 217.413677 
L 408.492153 207.796493 
L 415.842687 197.928403 
L 423.616408 188.059795 
L 427.634008 183.228826 
L 431.717899 178.535232 
L 435.847991 174.038458 
L 440.000683 169.805203 
L 444.148186 165.908045 
L 448.258525 162.425779 
L 452.295209 159.442042 
L 456.217223 157.043405 
L 459.979371 155.317651 
L 463.532603 154.351354 
L 466.824022 154.22711 
L 469.798385 155.019226 
L 472.39861 156.790771 
L 474.567109 159.589094 
L 476.247638 163.442534 
L 477.386962 168.356794 
L 477.936202 174.312 
L 477.853506 181.261325 
L 477.106065 189.13081 
L 475.670945 197.820058 
L 473.537432 207.205517 
L 470.708204 217.144109 
L 467.198998 227.479104 
L 463.03961 238.045824 
L 458.272393 248.679072 
L 452.951919 259.219354 
L 447.142302 269.518406 
L 440.916026 279.444557 
L 434.350766 288.886176 
L 427.527374 297.753408 
L 420.527209 305.979379 
L 413.430286 313.519248 
L 406.312605 320.34839 
L 399.244977 326.460586 
L 392.292185 331.864836 
L 385.510979 336.582536 
L 378.951075 340.644614 
L 372.653487 344.088864 
L 366.65203 346.957517 
L 360.972817 349.295328 
L 355.635101 351.14809 
L 350.651603 352.561421 
L 346.029538 353.579558 
L 341.771066 354.245011 
L 337.873978 354.598042 
L 334.332396 354.676666 
L 331.13735 354.516134 
L 328.277371 354.148934 
L 325.738951 353.605306 
L 323.50704 352.912723 
L 321.565401 352.096589 
L 319.897009 351.179539 
L 318.484287 350.182483 
L 317.30944 349.12391 
L 316.354607 348.020928 
L 315.602127 346.888051 
L 315.034574 345.738931 
L 314.635158 344.5848 
L 314.387573 343.436198 
L 314.275918 342.301421 
L 314.401635 340.103059 
L 314.902328 338.035438 
L 315.680956 336.128521 
L 316.654153 334.399087 
L 317.751878 332.853546 
L 319.509327 330.874952 
L 321.273489 329.27745 
L 323.472639 327.662738 
L 325.385184 326.525939 
L 327.634304 325.466001 
L 329.761824 324.736678 
L 331.423558 324.39993 
L 331.679791 324.430716 
L 331.666496 324.483688 
L 331.249057 325.126644 
L 327.401718 331.040045 
L 319.522619 343.59673 
L 283.612088 401.243501 
L 272.241778 418.848883 
L 262.182042 433.915834 
L 254.71868 444.700282 
L 246.66674 455.876467 
L 238.077949 467.164627 
L 233.611047 472.730688 
L 229.051741 478.164038 
L 224.421959 483.392275 
L 219.748653 488.33401 
L 215.063797 492.89904 
L 210.405389 496.988352 
L 205.816621 500.496192 
L 201.347041 503.309376 
L 197.051724 505.317312 
L 192.991437 506.404224 
L 189.2318 506.464704 
L 185.842453 505.398528 
L 182.895208 503.126208 
L 180.462719 499.585536 
L 178.616632 494.741779 
L 177.424409 488.59321 
L 176.946984 481.172659 
L 177.236084 472.550976 
L 178.331717 462.836333 
L 180.258658 452.172499 
L 183.026115 440.73383 
L 186.62488 428.718701 
L 191.027835 416.34 
L 196.189614 403.816493 
L 202.048447 391.362106 
L 208.527831 379.177632 
L 215.539715 367.442093 
L 222.987341 356.307725 
L 230.768762 345.895661 
L 238.780694 336.29593 
L 246.921523 327.566782 
L 255.093824 319.738234 
L 263.207367 312.815209 
L 271.180127 306.781811 
L 278.940121 301.605811 
L 286.42558 297.242784 
L 293.58511 293.64025 
L 300.3777 290.740147 
L 306.771878 288.482861 
L 312.745547 286.80791 
L 318.283926 285.656026 
L 323.380101 284.970701 
L 328.03305 284.697504 
L 332.247178 284.78615 
L 336.031305 285.18912 
L 339.397987 285.862694 
L 342.362742 286.766611 
L 344.943447 287.863546 
L 347.159823 289.119802 
L 349.032845 290.504102 
L 350.584475 291.988282 
L 351.83713 293.54711 
L 352.813574 295.157261 
L 353.536407 296.79817 
L 354.027893 298.451693 
L 354.31013 300.10176 
L 354.404209 301.734029 
L 354.330887 303.336749 
L 354.109417 304.899379 
L 353.758882 306.413453 
L 352.739416 309.268904 
L 351.400383 311.863807 
L 349.851598 314.177927 
L 348.184981 316.206495 
L 346.475257 317.956389 
L 344.781287 319.442953 
L 342.363746 321.225644 
L 340.178439 322.545762 
L 337.707699 323.733985 
L 335.761138 324.439268 
L 333.723807 324.921454 
L 332.24449 325.024929 
L 331.512762 324.878004 
L 331.390855 324.707003 
L 331.410605 324.692118 
L 331.406232 324.750581 
L 331.384924 324.79689 
L 330.78251 325.723245 
L 326.067105 332.911071 
L 317.303296 346.719053 
L 288.117491 392.981933 
L 278.268847 408.171571 
L 269.562875 421.25737 
L 263.091694 430.72128 
L 256.083158 440.665402 
L 248.55836 450.92281 
L 240.568526 461.242426 
L 236.426213 466.320154 
L 232.206394 471.272774 
L 227.928654 476.038426 
L 223.6171 480.547469 
L 219.299854 484.723181 
L 215.009726 488.481754 
L 210.784718 491.734195 
L 206.667013 494.387021 
L 202.703985 496.344672 
L 198.947696 497.511936 
L 195.453891 497.798784 
L 192.281661 497.123136 
L 189.492275 495.409824 
L 187.14767 492.606317 
L 185.309284 488.677536 
L 184.035202 483.613632 
L 183.378994 477.432058 
L 183.387364 470.180506 
L 184.097475 461.936909 
L 185.535106 452.808749 
L 187.713148 442.929254 
L 190.630595 432.454291 
L 194.271043 421.554586 
L 198.603355 410.410195 
L 203.581998 399.201523 
L 209.148718 388.103098 
L 215.233875 377.275968 
L 221.759294 366.862867 
L 228.641108 356.984237 
L 235.791599 347.735462 
L 243.12305 339.186649 
L 250.549583 331.383675 
L 257.989342 324.349756 
L 265.366492 318.088443 
L 272.612569 312.586819 
L 279.666972 307.818835 
L 286.477808 303.748531 
L 293.001889 300.333139 
L 299.204393 297.525312 
L 305.058706 295.275629 
L 310.545576 293.533978 
L 315.652331 292.250938 
L 320.372793 291.378643 
L 324.705708 290.871475 
L 328.654456 290.686234 
L 332.226281 290.782656 
L 335.431578 291.123418 
L 338.283338 291.673786 
L 340.796597 292.401965 
L 342.988014 293.278752 
L 344.875332 294.277536 
L 346.477166 295.374298 
L 347.812566 296.547091 
L 348.900766 297.776218 
L 349.761202 299.044224 
L 350.412556 300.335386 
L 350.87391 301.635706 
L 351.16301 302.933261 
L 351.297599 304.217338 
L 351.294251 305.479123 
L 350.93702 307.906134 
L 350.208495 310.168051 
L 349.211126 312.235949 
L 348.032764 314.094966 
L 346.746378 315.741318 
L 344.741111 317.823972 
L 342.773575 319.47893 
L 340.940863 320.761313 
L 338.798461 321.996591 
L 336.661968 322.970067 
L 334.607736 323.65721 
L 332.878852 323.999 
L 331.966404 324.197141 
L 329.833605 327.704348 
L 322.151552 340.803228 
L 280.480536 412.342445 
L 269.648082 430.352525 
L 261.295826 443.927174 
L 251.973153 458.684813 
L 241.654282 474.433805 
L 236.125562 482.574931 
L 230.361143 490.810752 
L 224.375254 499.058496 
L 218.18882 507.216384 
L 211.8308 515.163456 
L 205.338861 522.75456 
L 198.760711 529.820352 
L 192.155776 536.175936 
L 185.595538 541.608768 
L 179.165201 545.890752 
L 172.963031 548.78688 
L 167.100516 550.05696 
L 161.701866 549.46944 
L 156.89916 546.81696 
L 152.833014 541.930176 
L 149.649066 534.696768 
L 147.48291 525.076992 
L 146.465118 513.114048 
L 146.707848 498.947904 
L 148.298148 482.814432 
L 151.292934 465.04057 
L 155.71062 446.029114 
L 161.52777 426.237293 
L 168.681274 406.147392 
L 177.065168 386.237376 
L 186.539339 366.952032 
L 196.934544 348.677568 
L 208.06045 331.725525 
L 219.71601 316.323999 
L 231.698 302.617037 
L 243.809557 290.671718 
L 255.867379 280.48896 
L 267.70574 272.01744 
L 279.18101 265.168512 
L 290.172159 259.828474 
L 300.581593 255.870144 
L 310.33348 253.161331 
L 319.372628 251.571226 
L 327.661908 250.97351 
L 335.180143 251.249472 
L 341.919835 252.288346 
L 347.884916 253.987315 
L 353.088947 256.251168 
L 357.55317 258.991603 
L 361.305608 262.126886 
L 364.378905 265.58064 
L 366.81039 269.281498 
L 368.640239 273.16345 
L 369.910973 277.164806 
L 370.667119 281.229235 
L 370.953707 285.304723 
L 370.816942 289.344614 
L 370.302521 293.307782 
L 369.455645 297.157594 
L 368.320338 300.863117 
L 366.93979 304.398778 
L 365.35468 307.743823 
L 363.60401 310.882389 
L 361.724443 313.803193 
L 359.749793 316.499167 
L 357.711363 318.96701 
L 355.637779 321.206826 
L 353.554654 323.221609 
L 351.484585 325.016866 
L 349.447662 326.600173 
L 347.460976 327.980742 
L 345.53924 329.169139 
L 341.936709 331.015939 
L 338.710191 332.238707 
L 335.898206 332.938408 
L 333.51344 333.213022 
L 331.548462 333.1537 
L 329.9809 332.842245 
L 328.778047 332.350024 
L 327.900821 331.7375 
L 327.30697 331.054474 
L 326.953588 330.340827 
L 326.799011 329.627388 
L 326.855542 328.60588 
L 327.156226 327.684891 
L 327.775405 326.652359 
L 328.675548 325.682719 
L 329.692252 324.923443 
L 330.82276 324.349327 
L 331.883594 324.057509 
L 332.04451 324.056584 
L 331.983533 324.155275 
L 330.100273 327.143457 
L 323.977451 337.294403 
L 307.3705 365.362099 
L 289.480462 395.46697 
L 277.826409 414.706867 
L 267.159514 431.90807 
L 259.0299 444.678509 
L 250.047718 458.36928 
L 240.215144 472.749178 
L 234.993604 480.082982 
L 229.583738 487.427328 
L 224.003291 494.70048 
L 218.27637 501.804288 
L 212.433775 508.626432 
L 206.514679 515.033856 
L 200.566789 520.877952 
L 194.647525 525.99456 
L 188.824516 530.205696 
L 183.175771 533.324736 
L 177.789843 535.158144 
L 172.76483 535.521024 
L 168.207197 534.238848 
L 164.229606 531.16128 
L 160.948566 526.176 
L 158.477742 519.217344 
L 156.927618 510.276672 
L 156.400308 499.41792 
L 156.976164 486.775354 
L 158.718798 472.552531 
L 161.666712 457.021267 
L 165.823421 440.506771 
L 171.164486 423.371232 
L 177.631315 405.993427 
L 185.135188 388.747296 
L 193.559258 371.981722 
L 202.765086 356.002906 
L 212.598329 341.062531 
L 222.895606 327.350765 
L 233.491356 314.995288 
L 244.224542 304.064928 
L 254.943331 294.576998 
L 265.509284 286.506029 
L 275.800702 279.794822 
L 285.712958 274.362854 
L 295.160177 270.115258 
L 304.074227 266.95008 
L 312.403549 264.76295 
L 320.111833 263.451398 
L 327.176297 262.916928 
L 333.586082 263.066573 
L 339.340402 263.813242 
L 344.446955 265.076237 
L 348.920519 266.780736 
L 352.7816 268.857446 
L 356.055275 271.242259 
L 358.77067 273.87625 
L 360.959425 276.704467 
L 362.655187 279.676454 
L 363.893445 282.746074 
L 364.710692 285.871162 
L 365.143253 289.013184 
L 365.228293 292.138099 
L 365.002135 295.215494 
L 364.500437 298.218931 
L 363.757851 301.125773 
L 362.808023 303.917011 
L 361.682761 306.57744 
L 360.412362 309.094739 
L 359.024951 311.460215 
L 357.547311 313.667821 
L 356.003548 315.714171 
L 354.415927 317.598209 
L 352.804367 319.320973 
L 349.580243 322.295193 
L 346.45065 324.675358 
L 343.50441 326.515864 
L 340.803042 327.880138 
L 338.384464 328.835169 
L 336.267038 329.447382 
L 334.45351 329.779763 
L 332.934804 329.889957 
L 331.169197 329.7489 
L 329.944373 329.365596 
L 329.166399 328.850237 
L 328.740801 328.282572 
L 328.580264 327.716842 
L 328.649283 327.02203 
L 328.996036 326.299519 
L 329.64533 325.576363 
L 330.533732 324.962992 
L 331.416524 324.61461 
L 331.471557 324.651608 
L 331.449967 324.72225 
L 330.984075 325.447361 
L 326.279535 332.62901 
L 317.685889 346.203936 
L 286.535561 395.691782 
L 276.238118 411.559488 
L 267.142606 425.183731 
L 260.391532 434.995834 
L 253.093394 445.25376 
L 245.278994 455.758272 
L 241.196945 461.015885 
L 237.013954 466.216819 
L 232.745254 471.30768 
L 228.410264 476.226086 
L 224.032419 480.902573 
L 219.639173 485.259552 
L 215.263337 489.212525 
L 210.941906 492.670253 
L 206.717902 495.537005 
L 202.638364 497.714112 
L 198.756023 499.103424 
L 195.127294 499.606272 
L 191.812774 499.137984 
L 188.874904 497.619072 
L 186.378133 494.986637 
L 184.386073 491.201626 
L 182.959825 486.247104 
L 182.156137 480.135168 
L 182.024896 472.908845 
L 182.606778 464.643302 
L 183.931414 455.444467 
L 186.01454 445.446432 
L 188.857996 434.807654 
L 192.447722 423.703699 
L 196.754087 412.320499 
L 201.73273 400.846579 
L 207.324895 389.464589 
L 213.460439 378.344218 
L 220.05985 367.636493 
L 227.036579 357.469459 
L 234.300568 347.945242 
L 241.760749 339.139302 
L 249.328066 331.101475 
L 256.917312 323.857702 
L 264.449475 317.412985 
L 271.852573 311.754839 
L 279.063495 306.856771 
L 286.028005 302.681837 
L 292.700401 299.185574 
L 299.044192 296.318995 
L 305.03142 294.030605 
L 310.641496 292.26839 
L 315.861413 290.980685 
L 320.684006 290.118067 
L 325.107903 289.633018 
L 329.136417 289.480608 
L 332.776852 289.618848 
L 336.039843 290.009203 
L 338.938709 290.615558 
L 341.488964 291.404736 
L 343.707734 292.346669 
L 345.613382 293.413536 
L 347.225109 294.580454 
L 348.562601 295.824787 
L 349.645864 297.125626 
L 350.494749 298.465171 
L 351.12886 299.826835 
L 351.567783 301.196275 
L 351.830099 302.560877 
L 351.934054 303.909754 
L 351.896891 305.233402 
L 351.735183 306.524045 
L 351.100067 308.981174 
L 350.142372 311.242764 
L 348.960695 313.287022 
L 347.638185 315.10531 
L 346.243224 316.699183 
L 344.131189 318.690495 
L 342.110487 320.248771 
L 339.696194 321.761894 
L 337.680698 322.770426 
L 335.416897 323.633258 
L 333.576699 324.094052 
L 332.213196 324.216867 
L 331.850947 324.307759 
L 328.315103 329.816483 
L 320.63685 342.284832 
L 281.198347 406.793664 
L 271.925392 421.438464 
L 261.139642 437.984064 
L 253.070795 449.931629 
L 244.308074 462.395347 
L 239.680134 468.726739 
L 234.901701 475.056749 
L 229.988009 481.321267 
L 224.958643 487.445299 
L 219.839049 493.341581 
L 214.660195 498.911616 
L 209.459579 504.042048 
L 204.282065 508.612608 
L 199.179545 512.488512 
L 194.211783 515.534976 
L 189.445738 517.60512 
L 184.955735 518.558976 
L 180.822294 518.263488 
L 177.130789 516.595968 
L 173.969942 513.463104 
L 171.42881 508.79232 
L 169.594274 502.552512 
L 168.547522 494.758368 
L 168.360536 485.470022 
L 169.092074 474.798586 
L 170.78432 462.904934 
L 173.459372 449.993491 
L 177.117899 436.305485 
L 181.736465 422.106163 
L 187.268868 407.673043 
L 193.646138 393.281395 
L 200.779889 379.190592 
L 208.565329 365.633568 
L 216.885443 352.807315 
L 225.61619 340.868408 
L 234.630513 329.930271 
L 243.802861 320.064808 
L 253.013879 311.305801 
L 262.152245 303.654182 
L 271.118021 297.084326 
L 279.823658 291.549888 
L 288.19483 286.990214 
L 296.170771 283.335149 
L 303.703101 280.509696 
L 310.75583 278.437306 
L 317.304167 277.041773 
L 323.332827 276.250003 
L 328.835315 275.992186 
L 333.812552 276.202483 
L 338.27167 276.82007 
L 342.225072 277.78775 
L 345.689365 279.053338 
L 348.684636 280.568448 
L 351.233653 282.288672 
L 353.360972 284.173056 
L 355.093227 286.184448 
L 356.457202 288.289152 
L 357.481021 290.456064 
L 358.192471 292.657536 
L 358.619508 294.868858 
L 358.789586 297.068083 
L 358.729657 299.236032 
L 358.465667 301.356115 
L 358.022727 303.414336 
L 357.424774 305.398598 
L 356.694241 307.299848 
L 355.852721 309.110325 
L 354.919801 310.824605 
L 352.852745 313.950781 
L 350.622977 316.665469 
L 348.336946 318.975235 
L 346.079038 320.900918 
L 343.913217 322.473029 
L 341.885384 323.727873 
L 339.165 325.100556 
L 336.870465 325.977661 
L 335.004942 326.479559 
L 333.133976 326.741576 
L 331.863194 326.712355 
L 330.921827 326.470625 
L 330.479277 326.152449 
L 330.341011 325.788774 
L 330.465913 325.419431 
L 330.830991 325.088277 
L 331.07169 325.037572 
L 331.075114 325.075678 
L 330.907082 325.40973 
L 328.982727 328.290157 
L 322.819796 337.726938 
L 310.369973 357.260198 
L 291.506672 386.819712 
L 280.329206 403.934688 
L 272.274588 415.952237 
L 263.131535 429.168499 
L 256.430011 438.500909 
L 249.270145 448.068845 
L 241.706176 457.634707 
L 237.79973 462.318797 
L 233.830174 466.872768 
L 229.816256 471.240288 
L 225.780745 475.358976 
L 221.749753 479.160403 
L 217.753747 482.570784 
L 213.826711 485.51184 
L 210.007647 487.902182 
L 206.338909 489.659213 
L 202.866698 490.701024 
L 199.6409 490.950029 
L 196.713576 490.335034 
L 194.138462 488.79504 
L 191.97013 486.283565 
L 190.261813 482.770886 
L 189.064735 478.247846 
L 188.425435 472.728787 
L 188.384924 466.252589 
L 188.975678 458.88336 
L 190.221302 450.70992 
L 192.134182 441.843552 
L 194.714653 432.414374 
L 197.950495 422.566157 
L 201.816932 412.452 
L 206.276468 402.226906 
L 211.280557 392.042419 
L 216.770942 382.041101 
L 222.680999 372.351859 
L 228.938913 363.085805 
L 235.468517 354.334176 
L 242.192975 346.167475 
L 249.036287 338.635434 
L 255.924797 331.768414 
L 262.789871 325.578922 
L 269.567897 320.064255 
L 276.202294 315.209163 
L 282.643679 310.988402 
L 288.849866 307.369365 
L 294.786038 304.314278 
L 300.424405 301.782067 
L 305.744377 299.730413 
L 310.731055 298.116115 
L 315.375418 296.897357 
L 319.673429 296.033184 
L 323.625375 295.484717 
L 327.235239 295.215322 
L 330.510239 295.190266 
L 333.460155 295.377926 
L 336.096909 295.748582 
L 338.434064 296.275277 
L 340.486489 296.932954 
L 342.269952 297.699149 
L 343.800842 298.553299 
L 345.095915 299.476742 
L 346.172012 300.45289 
L 347.045924 301.46688 
L 347.734223 302.505408 
L 348.253096 303.556723 
L 348.618228 304.61063 
L 348.844687 305.658144 
L 348.939101 307.704925 
L 348.643405 309.649064 
L 348.052216 311.458262 
L 347.247658 313.11303 
L 346.299253 314.604086 
L 344.729928 316.5325 
L 343.113129 318.10949 
L 341.054209 319.728954 
L 338.816791 321.12523 
L 336.736361 322.142676 
L 334.736902 322.878509 
L 333.053674 323.268795 
L 332.862172 323.212974 
L 332.866818 323.177688 
L 333.089044 322.78693 
L 343.52587 306.680947 
L 383.876987 243.167098 
L 392.216688 230.578272 
L 401.729528 216.662342 
L 408.730028 206.795808 
L 416.232562 196.650374 
L 424.181885 186.482822 
L 428.295573 181.498234 
L 432.480908 176.65033 
L 436.7173 172.001837 
L 440.980475 167.621875 
L 445.241475 163.587168 
L 449.467321 159.980659 
L 453.620012 156.890131 
L 457.656696 154.407168 
L 461.530332 152.624909 
L 465.189361 151.635283 
L 468.578207 151.525555 
L 471.638781 152.374694 
L 474.311155 154.249574 
L 476.534561 157.200134 
L 478.249909 161.256096 
L 479.400784 166.42247 
L 479.935962 172.676621 
L 479.811751 179.967744 
L 478.993835 188.214797 
L 477.458609 197.309088 
L 475.195864 207.117389 
L 472.20928 217.485734 
L 468.516938 228.24599 
L 464.151481 239.22311 
L 459.159111 250.241875 
L 453.598418 261.133805 
L 447.538705 271.744416 
L 441.057145 281.937024 
L 434.236264 291.597581 
L 427.161605 300.635539 
L 419.918877 308.984993 
L 412.591612 316.603624 
L 405.258989 323.47046 
L 397.994332 329.583393 
L 390.864096 334.955987 
L 383.926203 339.614277 
L 377.23104 343.593619 
L 370.819787 346.935917 
L 364.725925 349.687238 
L 358.974898 351.895795 
L 353.584953 353.610317 
L 348.567958 354.878669 
L 343.92979 355.747507 
L 339.671268 356.260896 
L 335.788877 356.460998 
L 332.275333 356.386694 
L 329.120347 356.074445 
L 326.31109 355.558118 
L 323.8328 354.868128 
L 321.669155 354.033158 
L 319.802779 353.078957 
L 318.215476 352.028851 
L 316.88863 350.904096 
L 315.803443 349.723526 
L 314.941165 348.504595 
L 314.283116 347.262336 
L 313.811215 346.010227 
L 313.507886 344.759674 
L 313.356055 343.521389 
L 313.339315 342.303667 
L 313.650009 339.958979 
L 314.326138 337.770553 
L 315.26793 335.766678 
L 316.390129 333.962024 
L 317.62139 332.360634 
L 319.549269 330.329059 
L 321.448639 328.708057 
L 323.77791 327.094572 
L 325.771878 325.98231 
L 328.075085 324.978648 
L 330.023135 324.37583 
L 331.624182 324.10645 
L 331.97917 324.124554 
L 331.941194 324.197364 
L 328.507462 329.612665 
L 320.674532 342.484243 
L 281.669578 407.019859 
L 272.158747 422.244922 
L 261.029828 439.565702 
L 252.661167 452.14848 
L 243.533849 465.34055 
L 238.698166 472.067309 
L 233.694245 478.809274 
L 228.537823 485.497843 
L 223.24882 492.052147 
L 217.853852 498.377664 
L 212.385731 504.363456 
L 206.884465 509.887872 
L 201.398098 514.816128 
L 195.983042 518.997888 
L 190.704418 522.277632 
L 185.635881 524.494656 
L 180.859289 525.488256 
L 176.464202 525.106368 
L 172.545536 523.214208 
L 169.202056 519.699456 
L 166.533532 514.48608 
L 164.636388 507.541248 
L 163.601856 498.885696 
L 163.509786 488.591136 
L 164.42379 476.794253 
L 166.39007 463.68599 
L 169.428883 449.507405 
L 173.537548 434.54016 
L 178.685266 419.091149 
L 184.814784 403.477286 
L 191.84391 388.008749 
L 199.668688 372.972902 
L 208.167586 358.62169 
L 217.206851 345.163162 
L 226.645868 332.755897 
L 236.343182 321.508068 
L 246.160188 311.480865 
L 255.966982 302.693414 
L 265.644376 295.129786 
L 275.086741 288.746726 
L 284.203177 283.481165 
L 292.918189 279.25655 
L 301.170841 275.989075 
L 308.914765 273.591821 
L 316.116631 271.977696 
L 322.754627 271.06272 
L 328.81747 270.766195 
L 334.30275 271.012781 
L 339.215622 271.731802 
L 343.567536 272.857766 
L 347.375183 274.330022 
L 350.659471 276.092928 
L 353.444504 278.094643 
L 355.757135 280.287821 
L 357.625989 282.628915 
L 359.081197 285.078182 
L 360.153729 287.599334 
L 360.874553 290.159539 
L 361.275476 292.729421 
L 361.3873 295.282714 
L 361.24049 297.796435 
L 360.865012 300.250541 
L 360.289156 302.628442 
L 359.540543 304.915795 
L 358.645288 307.1013 
L 357.62783 309.176006 
L 356.511105 311.133364 
L 355.316539 312.968966 
L 352.77005 316.266457 
L 350.12446 319.06758 
L 347.489551 321.392033 
L 344.949306 323.27404 
L 342.565178 324.756961 
L 340.378683 325.88886 
L 338.414495 326.719094 
L 335.905906 327.503244 
L 333.913695 327.86462 
L 332.396599 327.929645 
L 331.293594 327.800304 
L 330.347757 327.457797 
L 329.854814 327.036027 
L 329.673621 326.613133 
L 329.715705 326.14374 
L 330.007902 325.642277 
L 330.579601 325.157435 
L 331.132287 324.947013 
L 331.12195 325.079743 
L 330.668979 325.805242 
L 323.72086 336.381103 
L 312.51487 353.975789 
L 291.677755 386.731411 
L 280.443038 403.986701 
L 272.333178 416.127283 
L 263.114125 429.501658 
L 256.348654 438.95952 
L 249.113124 448.668115 
L 241.461605 458.386906 
L 237.506612 463.150656 
L 233.485832 467.784979 
L 229.418012 472.232506 
L 225.326254 476.429299 
L 221.237006 480.305549 
L 217.181239 483.785222 
L 213.193939 486.787795 
L 209.314444 489.229805 
L 205.586446 491.025715 
L 202.057151 492.091718 
L 198.777451 492.346944 
L 195.801079 491.718125 
L 193.183277 490.142534 
L 190.979959 487.571443 
L 189.246029 483.974611 
L 188.033886 479.342534 
L 187.391572 473.690419 
L 187.361273 467.058701 
L 187.9763 459.514253 
L 189.260761 451.149523 
L 191.227041 442.080115 
L 193.875309 432.440986 
L 197.192507 422.381434 
L 201.152522 412.059571 
L 205.716515 401.635584 
L 210.833933 391.26551 
L 216.444177 381.095885 
L 222.478612 371.258035 
L 228.862746 361.865146 
L 235.518235 353.009664 
L 242.366067 344.76192 
L 249.328233 337.171127 
L 256.329403 330.266281 
L 263.299437 324.058212 
L 270.173885 318.542268 
L 276.895163 313.701068 
L 283.413384 309.507281 
L 289.686029 305.926157 
L 295.67828 302.918227 
L 301.362849 300.440621 
L 306.718812 298.449101 
L 311.732107 296.899776 
L 316.394281 295.749274 
L 320.70165 294.95543 
L 324.65517 294.478848 
L 328.259509 294.282029 
L 331.522502 294.329722 
L 334.454565 294.58944 
L 337.068265 295.031462 
L 339.377765 295.627968 
L 341.398534 296.353901 
L 343.146893 297.186278 
L 344.639783 298.104365 
L 345.894446 299.089325 
L 346.928225 300.124224 
L 347.758362 301.194202 
L 348.401831 302.285779 
L 348.875154 303.387206 
L 349.194553 304.487942 
L 349.375345 305.57952 
L 349.37953 307.704649 
L 348.996686 309.715091 
L 348.323471 311.579067 
L 347.44288 313.277916 
L 346.425272 314.803377 
L 344.765752 316.767715 
L 343.075296 318.365251 
L 340.942386 319.994444 
L 339.067071 321.15471 
L 336.836248 322.254685 
L 334.691704 323.036478 
L 332.964968 323.428234 
L 332.692018 323.390213 
L 332.700276 323.345665 
L 332.9865 322.878481 
L 338.100788 315.055734 
L 347.167322 300.686861 
L 377.873019 251.806406 
L 388.294506 235.718035 
L 397.507532 221.8968 
L 404.34917 211.942138 
L 411.747079 201.537504 
L 419.669284 190.889914 
L 423.807412 185.565427 
L 428.047486 180.302458 
L 432.373437 175.157165 
L 436.765176 170.193658 
L 441.198765 165.483994 
L 445.645076 161.108525 
L 450.07063 157.154861 
L 454.436757 153.716659 
L 458.699263 150.892416 
L 462.809101 148.785984 
L 466.712032 147.495168 
L 470.349801 147.120192 
L 473.660136 147.749184 
L 476.57842 149.459904 
L 479.0392 152.315078 
L 480.97719 156.351686 
L 482.330452 161.582688 
L 483.041567 167.99063 
L 483.060818 175.526266 
L 482.348196 184.106822 
L 480.875411 193.618598 
L 478.628568 203.918342 
L 475.608672 214.839994 
L 471.83263 226.200038 
L 467.333755 237.806496 
L 462.160426 249.46583 
L 456.374914 260.9928 
L 450.051212 272.215987 
L 443.272684 282.985056 
L 436.128721 293.174381 
L 428.712064 302.684947 
L 421.115787 311.445441 
L 413.430453 319.410916 
L 405.741938 326.560274 
L 398.129758 332.89329 
L 390.665225 338.426882 
L 383.411113 343.191514 
L 376.420824 347.227603 
L 369.738551 350.582342 
L 363.399448 353.307226 
L 357.430466 355.455302 
L 351.850187 357.080141 
L 346.670496 358.234272 
L 341.897001 358.968154 
L 337.52977 359.329651 
L 333.564244 359.363866 
L 329.991949 359.113133 
L 326.801171 358.61616 
L 323.977601 357.909235 
L 321.504886 357.02519 
L 319.365078 355.994438 
L 317.539096 354.844627 
L 316.007118 353.600467 
L 314.748823 352.284941 
L 313.74392 350.918093 
L 312.971872 349.518413 
L 312.412588 348.101798 
L 312.046484 346.682765 
L 311.854309 345.273408 
L 311.818151 343.884787 
L 311.91993 342.526061 
L 312.143242 341.204607 
L 312.892022 338.698333 
L 313.94999 336.402271 
L 315.218714 334.336222 
L 316.615115 332.506737 
L 318.071562 330.910324 
L 320.254475 328.92753 
L 322.323555 327.387969 
L 324.77399 325.908455 
L 326.801372 324.936998 
L 329.054341 324.12691 
L 330.855985 323.721628 
L 332.111129 323.654222 
L 332.451026 323.580697 
L 340.824972 310.415311 
L 354.150932 288.749837 
L 374.288148 256.090464 
L 384.528508 239.827738 
L 393.717764 225.56569 
L 400.626362 215.106624 
L 408.180956 203.983834 
L 416.374349 192.362861 
L 425.165026 180.50999 
L 429.759151 174.613882 
L 434.464933 168.818515 
L 439.26178 163.196986 
L 444.12341 157.832755 
L 449.018521 152.819309 
L 453.909782 148.260672 
L 458.753501 144.268992 
L 463.499626 140.965056 
L 468.09124 138.471552 
L 472.465235 136.914624 
L 476.552641 136.415232 
L 480.279634 137.089152 
L 483.568709 139.031424 
L 486.340686 142.323264 
L 488.516384 147.011328 
L 490.020473 153.114278 
L 490.78298 160.606886 
L 490.743473 169.425734 
L 489.853408 179.463341 
L 488.080139 190.57127 
L 485.407933 202.564627 
L 481.841309 215.22983 
L 477.404204 228.333427 
L 472.141483 241.633325 
L 466.11659 254.890886 
L 459.409876 267.880608 
L 452.115421 280.400314 
L 444.337682 292.277722 
L 436.186976 303.37511 
L 427.776298 313.59058 
L 419.217136 322.857873 
L 410.615957 331.143137 
L 402.072363 338.441017 
L 393.676249 344.769696 
L 385.506459 350.165549 
L 377.631126 354.678912 
L 370.105994 358.368538 
L 362.975926 361.298707 
L 356.275071 363.536467 
L 350.027368 365.148 
L 344.248452 366.198797 
L 338.945605 366.751066 
L 334.119547 366.863558 
L 329.765172 366.591917 
L 325.872569 365.987117 
L 322.427812 365.097197 
L 319.413742 363.965702 
L 316.810688 362.632896 
L 314.596991 361.13593 
L 312.749732 359.508499 
L 311.244973 357.78119 
L 310.05794 355.981824 
L 309.163856 354.135456 
L 308.538115 352.264378 
L 308.156276 350.388806 
L 307.994233 348.526195 
L 308.028717 346.691578 
L 308.237632 344.898086 
L 308.599384 343.156781 
L 309.093548 341.476992 
L 309.70121 339.865857 
L 311.185546 336.871146 
L 312.923493 334.201455 
L 314.806576 331.866063 
L 316.74552 329.85932 
L 318.670134 328.164601 
L 320.526717 326.757905 
L 323.102853 325.125004 
L 325.362384 323.97293 
L 327.83443 323.012064 
L 329.707821 322.51819 
L 331.323364 322.308164 
L 332.451476 322.363555 
L 333.089548 322.604778 
L 333.22912 322.856892 
L 333.099092 323.068862 
L 333.010728 323.078738 
L 333.025824 322.990077 
L 333.409982 322.363501 
L 341.113636 310.607274 
L 353.446178 291.193747 
L 372.278678 261.563558 
L 383.495985 244.302739 
L 391.602497 232.139866 
L 400.826572 218.721427 
L 407.602255 209.218118 
L 414.855194 199.448698 
L 422.532828 189.651456 
L 426.50456 184.841395 
L 430.545094 180.156096 
L 434.635513 175.652582 
L 438.753051 171.394963 
L 442.871426 167.453914 
L 446.959669 163.905293 
L 450.98296 160.830662 
L 454.901627 158.314522 
L 458.672312 156.44327 
L 462.247139 155.302445 
L 465.574883 154.974298 
L 468.60181 155.534342 
L 471.27184 157.047034 
L 473.528225 159.563174 
L 475.31522 163.115251 
L 476.579425 167.714669 
L 477.271624 173.347949 
L 477.348795 179.976038 
L 476.776287 187.532928 
L 475.528822 195.926342 
L 473.593176 205.040506 
L 470.968009 214.739424 
L 467.665877 224.872243 
L 463.712224 235.278605 
L 459.145886 245.796077 
L 454.017253 256.26551 
L 448.387423 266.537952 
L 442.3252 276.47879 
L 435.906414 285.972768 
L 429.209577 294.925018 
L 422.315375 303.263309 
L 415.302655 310.937098 
L 408.247916 317.916559 
L 401.222473 324.190189 
L 394.291778 329.762465 
L 387.514255 334.650856 
L 380.941126 338.883005 
L 374.615248 342.494093 
L 368.572108 345.524314 
L 362.839662 348.017126 
L 357.439003 350.017286 
L 352.384695 351.569722 
L 347.685442 352.71815 
L 343.34481 353.505427 
L 339.361996 353.971642 
L 335.732279 354.154982 
L 332.447789 354.090874 
L 329.497951 353.81232 
L 326.870089 353.349734 
L 324.549825 352.73111 
L 322.521506 351.98185 
L 320.76861 351.125453 
L 319.273979 350.182829 
L 318.02012 349.172986 
L 316.989472 348.113203 
L 316.164575 347.018515 
L 315.528187 345.902746 
L 315.063535 344.777818 
L 314.754347 343.653926 
L 314.584938 342.540403 
L 314.606365 340.373802 
L 315.017165 338.326312 
L 315.71981 336.429884 
L 316.62993 334.703267 
L 317.676364 333.154529 
L 319.376294 331.163217 
L 321.10249 329.547036 
L 323.274505 327.903379 
L 325.179031 326.737359 
L 327.437307 325.63863 
L 329.597002 324.867511 
L 331.316494 324.493247 
L 331.587254 324.529589 
L 331.57607 324.577522 
L 331.227501 325.127719 
L 327.009132 331.582188 
L 318.698693 344.768659 
L 284.086667 400.031827 
L 273.030399 417.068698 
L 263.270644 431.62727 
L 256.039299 442.044864 
L 248.243314 452.846765 
L 239.930397 463.775501 
L 235.606622 469.177056 
L 231.19195 474.462317 
L 226.706634 479.564755 
L 222.175786 484.409549 
L 217.628532 488.913235 
L 213.099692 492.984403 
L 208.629275 496.52473 
L 204.262981 499.431744 
L 200.051867 501.596928 
L 196.052011 502.915392 
L 192.324348 503.285184 
L 188.933661 502.609536 
L 185.94758 500.80896 
L 183.434404 497.81952 
L 181.462264 493.599917 
L 180.095945 488.139091 
L 179.395376 481.456051 
L 179.412284 473.604538 
L 180.188183 464.673542 
L 181.751531 454.785062 
L 184.116726 444.091853 
L 187.281088 432.770861 
L 191.225869 421.016314 
L 195.914743 409.031251 
L 201.295816 397.018541 
L 207.30263 385.172064 
L 213.85634 373.669114 
L 220.869061 362.664691 
L 228.246379 352.286323 
L 235.891537 342.633197 
L 243.707276 333.77495 
L 251.599684 325.753782 
L 259.479704 318.586902 
L 267.266147 312.270198 
L 274.885861 306.782122 
L 282.275231 302.08775 
L 289.380524 298.142208 
L 296.157379 294.894432 
L 302.57131 292.289472 
L 308.596203 290.271341 
L 314.21398 288.783533 
L 319.414177 287.771443 
L 324.192409 287.183059 
L 328.549798 286.968442 
L 332.492252 287.081453 
L 336.029514 287.478547 
L 339.174575 288.119981 
L 341.942986 288.968774 
L 344.352341 289.991232 
L 346.421706 291.15625 
L 348.17127 292.435834 
L 349.621925 293.80441 
L 350.794897 295.23865 
L 351.711747 296.718336 
L 352.3934 298.224461 
L 352.861115 299.740954 
L 353.135149 301.253299 
L 353.235087 302.748883 
L 353.180347 304.217165 
L 352.988842 305.64864 
L 352.677645 307.03612 
L 351.760795 309.654835 
L 350.547145 312.038646 
L 349.13747 314.169978 
L 347.615837 316.044806 
L 346.05043 317.669368 
L 343.734417 319.668111 
L 341.566503 321.199776 
L 339.030979 322.644697 
L 336.961614 323.566873 
L 335.014049 324.214706 
L 333.277887 324.571788 
L 332.057103 324.614228 
L 331.543196 324.657196 
L 328.761927 328.870126 
L 322.058846 339.421882 
L 306.285581 364.769741 
L 290.854984 389.451974 
L 278.548573 408.713645 
L 269.572585 422.386272 
L 262.869386 432.327802 
L 255.581627 442.82039 
L 247.726382 453.69193 
L 239.353202 464.677862 
L 234.99963 470.100672 
L 230.556164 475.400448 
L 226.04373 480.50928 
L 221.487437 485.35079 
L 216.917919 489.839789 
L 212.370331 493.883309 
L 207.885852 497.380608 
L 203.51102 500.228352 
L 199.29773 502.319232 
L 195.303231 503.542656 
L 191.589797 503.7984 
L 188.222881 502.991424 
L 185.270782 501.040512 
L 182.802971 497.883456 
L 180.88758 493.485005 
L 179.590063 487.834099 
L 178.969678 480.955104 
L 179.077651 472.906944 
L 179.954492 463.78345 
L 181.627488 453.71232 
L 184.108858 442.851667 
L 187.394251 431.383104 
L 191.462071 419.504832 
L 196.273816 407.422483 
L 201.774915 395.340826 
L 207.896231 383.453914 
L 214.557077 371.938176 
L 221.667392 360.946368 
L 229.131423 350.603942 
L 236.851074 341.006077 
L 244.728416 332.219249 
L 252.66937 324.281897 
L 260.585213 317.207785 
L 268.394591 310.989663 
L 276.02552 305.603194 
L 283.415225 301.011206 
L 290.510642 297.167098 
L 297.269082 294.018336 
L 303.656564 291.508934 
L 309.648479 289.582042 
L 315.227921 288.180979 
L 320.385097 287.250797 
L 325.116675 286.739136 
L 329.424647 286.59623 
L 333.315671 286.776115 
L 336.800174 287.235245 
L 339.89175 287.933875 
L 342.606476 288.835546 
L 344.96238 289.906214 
L 346.978981 291.115296 
L 348.676785 292.43497 
L 350.076919 293.839661 
L 351.20101 295.30656 
L 352.070653 296.814931 
L 352.707107 298.346803 
L 353.131634 299.885587 
L 353.364487 301.417286 
L 353.425756 302.929286 
L 353.334355 304.411392 
L 353.108533 305.854272 
L 352.321585 308.594586 
L 351.190463 311.107323 
L 349.823642 313.368169 
L 348.313058 315.368087 
L 346.733957 317.109738 
L 345.146436 318.604424 
L 342.847281 320.422107 
L 340.737187 321.79521 
L 338.313135 323.067848 
L 335.954988 324.001874 
L 334.019793 324.51699 
L 332.460464 324.695107 
L 331.665932 324.583105 
L 331.5959 324.522309 
L 331.54267 324.63719 
L 330.501404 326.202111 
L 325.902065 333.298575 
L 316.272732 348.621408 
L 288.153315 393.559603 
L 278.027791 409.31689 
L 269.037072 422.95392 
L 262.333372 432.84672 
L 255.055154 443.264486 
L 247.223011 454.029235 
L 238.889839 464.87088 
L 234.564055 470.205734 
L 230.153902 475.406842 
L 225.680974 480.405773 
L 221.171051 485.12615 
L 216.654934 489.483302 
L 212.168279 493.385126 
L 207.752267 496.732954 
L 203.453435 499.423104 
L 199.324012 501.351552 
L 195.420578 502.412544 
L 191.804738 502.509312 
L 188.541275 501.548544 
L 185.697149 499.455936 
L 183.340157 496.173254 
L 181.536925 491.669395 
L 180.350226 485.939866 
L 179.837312 479.012486 
L 180.04673 470.94912 
L 181.016311 461.846016 
L 182.77083 451.831738 
L 185.320165 441.063187 
L 188.657618 429.719558 
L 192.760258 417.995597 
L 197.588408 406.091578 
L 203.086996 394.206394 
L 209.187052 382.527706 
L 215.808392 371.225376 
L 222.862628 360.446112 
L 230.255681 350.309491 
L 237.891298 340.906666 
L 245.674393 332.300051 
L 253.512898 324.525604 
L 261.320602 317.595496 
L 269.018993 311.501722 
L 276.537931 306.22009 
L 283.816483 301.713638 
L 290.803927 297.937094 
L 297.458411 294.838963 
L 303.747462 292.364986 
L 309.647308 290.459347 
L 315.141878 289.066925 
L 320.221848 288.134669 
L 324.884123 287.610912 
L 329.130893 287.447962 
L 332.968793 287.600026 
L 336.408156 288.025459 
L 339.462369 288.685382 
L 342.147231 289.543853 
L 344.480452 290.568384 
L 346.4811 291.728563 
L 348.169278 292.997606 
L 349.565679 294.350458 
L 350.691444 295.764998 
L 351.567616 297.221184 
L 352.214951 298.701389 
L 352.654376 300.18937 
L 352.905476 301.671821 
L 352.988005 303.136301 
L 352.920375 304.572787 
L 352.720332 305.972294 
L 351.989464 308.633466 
L 350.917601 311.077567 
L 349.611044 313.280698 
L 348.159368 315.233562 
L 346.636129 316.938217 
L 344.342213 319.054308 
L 342.160388 320.693869 
L 340.178891 321.927817 
L 337.922072 323.068878 
L 335.742624 323.907077 
L 333.739703 324.416139 
L 332.343927 324.550166 
L 331.575301 324.630336 
L 320.892637 341.35776 
L 279.597836 407.37721 
L 270.690314 421.040851 
L 260.462007 436.234982 
L 252.896531 447.048461 
L 244.759552 458.185421 
L 240.494368 463.784659 
L 236.113342 469.341216 
L 231.632044 474.797722 
L 227.070227 480.087475 
L 222.45233 485.13479 
L 217.807148 489.855168 
L 213.169163 494.155296 
L 208.578553 497.933568 
L 204.080683 501.08544 
L 199.727613 503.496 
L 195.576093 505.056384 
L 191.688563 505.657728 
L 188.131648 505.196352 
L 184.974986 503.584128 
L 182.290225 500.750208 
L 180.148509 496.647072 
L 178.618473 491.253811 
L 177.763896 484.584941 
L 177.640857 476.690054 
L 178.294889 467.655725 
L 179.758802 457.604986 
L 182.049838 446.693184 
L 185.169002 435.103142 
L 189.099052 423.037037 
L 193.804834 410.707411 
L 199.23462 398.328192 
L 205.320614 386.104666 
L 211.98213 374.225011 
L 219.128436 362.854598 
L 226.661436 352.129766 
L 234.480188 342.156787 
L 242.483247 333.010328 
L 250.572182 324.736031 
L 258.653585 317.35273 
L 266.642248 310.856435 
L 274.461167 305.224589 
L 282.044052 300.420576 
L 289.33382 296.396928 
L 296.284603 293.099731 
L 302.859572 290.471443 
L 309.03161 288.452794 
L 314.782135 286.984858 
L 320.099747 286.010266 
L 324.980009 285.474413 
L 329.424178 285.325286 
L 333.438383 285.51433 
L 337.032843 285.996614 
L 340.221143 286.73015 
L 343.019552 287.676749 
L 345.446417 288.800986 
L 347.521692 290.070547 
L 349.266368 291.45623 
L 350.702492 292.931251 
L 351.852028 294.47159 
L 352.737407 296.055475 
L 353.380725 297.663552 
L 353.80408 299.278886 
L 354.028563 300.886445 
L 354.074765 302.472922 
L 353.962775 304.027258 
L 353.71134 305.539949 
L 353.33854 307.00315 
L 352.295303 309.757046 
L 350.955601 312.253782 
L 349.424059 314.476335 
L 347.787891 316.421942 
L 346.117624 318.098707 
L 343.665499 320.145644 
L 341.388608 321.696334 
L 339.36213 322.832952 
L 337.102397 323.844495 
L 334.977355 324.536335 
L 333.301401 324.862429 
L 332.02854 324.894691 
L 331.480295 324.715732 
L 331.463395 324.6411 
L 331.435049 324.745606 
L 331.435049 324.745606 
L 330.746397 325.794666 
L 326.299439 332.586363 
L 317.089895 347.13049 
L 287.032237 394.857158 
L 276.868379 410.527008 
L 267.887704 423.997632 
L 261.217985 433.712794 
L 254.00338 443.886566 
L 246.271007 454.329734 
L 238.082134 464.762534 
L 233.847583 469.858579 
L 229.542725 474.797376 
L 225.18999 479.511533 
L 220.815828 483.925709 
L 216.451375 487.957651 
L 212.132957 491.518368 
L 207.901253 494.513856 
L 203.802631 496.846656 
L 199.887815 498.419136 
L 196.212213 499.1328 
L 192.835085 498.901248 
L 189.818035 497.643264 
L 187.224507 495.292838 
L 185.118113 491.805389 
L 183.560121 487.158106 
L 182.608117 481.356346 
L 182.313493 474.435187 
L 182.718769 466.461158 
L 183.855917 457.532237 
L 185.744356 447.774739 
L 188.389276 437.340038 
L 191.780465 426.398688 
L 195.892646 415.132992 
L 200.684806 403.729574 
L 206.10254 392.371603 
L 212.07872 381.231014 
L 218.536677 370.46281 
L 225.391874 360.200045 
L 232.555757 350.550547 
L 239.938097 341.596051 
L 247.44967 333.392717 
L 255.004767 325.972201 
L 262.523371 319.344768 
L 269.931992 313.502452 
L 277.165681 308.422495 
L 284.168191 304.070803 
L 290.891979 300.405197 
L 297.298544 297.378259 
L 303.357755 294.939187 
L 309.047179 293.036832 
L 314.352085 291.619699 
L 319.263668 290.63785 
L 323.779266 290.043936 
L 327.900838 289.792339 
L 331.634611 289.841242 
L 334.990295 290.150726 
L 337.98041 290.684851 
L 340.619773 291.409574 
L 342.924988 292.294483 
L 344.913968 293.311411 
L 346.605528 294.434611 
L 348.019137 295.640928 
L 349.174465 296.909798 
L 350.091482 298.222214 
L 350.78954 299.561414 
L 351.288058 300.91271 
L 351.605783 302.263142 
L 351.760963 303.601306 
L 351.771007 304.917696 
L 351.652487 306.203846 
L 351.0922 308.659196 
L 350.194936 310.926989 
L 349.060968 312.983292 
L 347.774583 314.817667 
L 346.40577 316.430202 
L 344.317488 318.451789 
L 342.30611 320.040444 
L 339.88872 321.591133 
L 337.85938 322.631804 
L 335.566419 323.531653 
L 333.687543 324.023785 
L 332.274746 324.172448 
L 331.888689 324.265469 
L 329.138125 328.551949 
L 322.114891 339.983274 
L 301.838767 373.566989 
L 286.95222 397.998144 
L 275.404466 416.544422 
L 264.989675 432.819936 
L 257.143972 444.718426 
L 248.563717 457.29481 
L 239.274524 470.291962 
L 234.384937 476.82985 
L 229.351052 483.30985 
L 224.192788 489.653683 
L 218.935926 495.770803 
L 213.611936 501.557184 
L 208.259991 506.896704 
L 202.92579 511.659072 
L 197.663906 515.70432 
L 192.536109 518.885568 
L 187.612875 521.05248 
L 182.972212 522.051264 
L 178.698658 521.741952 
L 174.882607 519.993216 
L 171.61747 516.703104 
L 168.99766 511.795584 
L 167.115247 505.239552 
L 166.056107 497.048832 
L 165.896408 487.290298 
L 166.698086 476.085946 
L 168.504835 463.609786 
L 171.339754 450.084038 
L 175.201337 435.768422 
L 180.063637 420.949094 
L 185.875263 405.922752 
L 192.561554 390.982291 
L 200.026422 376.401773 
L 208.157375 362.424845 
L 216.829197 349.255066 
L 225.90981 337.05129 
L 235.264457 325.925804 
L 244.761394 315.94631 
L 254.275405 307.140319 
L 263.691153 299.501107 
L 272.905351 292.995014 
L 281.828441 287.567539 
L 290.385092 283.150253 
L 298.513868 279.666432 
L 306.167229 277.034861 
L 313.310354 275.173632 
L 319.919323 274.002566 
L 325.980894 273.444768 
L 331.490343 273.42697 
L 336.450559 273.881434 
L 340.870739 274.744224 
L 344.765317 275.956934 
L 348.152957 277.465133 
L 351.055706 279.218534 
L 353.498407 281.171693 
L 355.507542 283.281926 
L 357.111401 285.510874 
L 358.338778 287.823283 
L 359.219637 290.187533 
L 359.783105 292.574592 
L 360.059148 294.959405 
L 360.076558 297.318989 
L 359.863625 299.63399 
L 359.447803 301.887302 
L 358.855207 304.065101 
L 358.110779 306.155462 
L 357.238458 308.149281 
L 356.260172 310.039332 
L 355.196513 311.820589 
L 352.888234 315.0454 
L 350.44704 317.816248 
L 347.981255 320.145834 
L 345.575633 322.061374 
L 343.293251 323.599574 
L 341.178186 324.80249 
L 338.376311 326.074568 
L 336.050439 326.836391 
L 334.192852 327.219195 
L 332.375765 327.329268 
L 331.188798 327.165368 
L 330.485712 326.869171 
L 330.082361 326.447073 
L 330.008672 326.053572 
L 330.175653 325.618094 
L 330.586506 325.208375 
L 331.069455 325.001348 
L 331.070701 325.127636 
L 330.681317 325.76586 
L 322.108815 338.846095 
L 308.457261 360.301478 
L 291.881983 386.280403 
L 280.780852 403.305523 
L 272.77344 415.279526 
L 263.67458 428.471597 
L 256.998166 437.805389 
L 249.857552 447.394925 
L 242.304129 457.008653 
L 238.39852 461.728685 
L 234.426285 466.327757 
L 230.405672 470.750227 
L 226.358609 474.934579 
L 222.311045 478.812902 
L 218.29244 482.31193 
L 214.336611 485.35321 
L 210.481891 487.855526 
L 206.770131 489.73559 
L 203.247533 490.910803 
L 199.963312 491.301677 
L 196.969698 490.83529 
L 194.320426 489.448397 
L 192.07057 487.091059 
L 190.274033 483.730272 
L 188.982877 479.353248 
L 188.244643 473.970355 
L 188.10185 467.616326 
L 188.588817 460.351987 
L 189.73082 452.262701 
L 191.542255 443.456986 
L 194.025634 434.063405 
L 197.170745 424.22521 
L 200.95432 414.095328 
L 205.34087 403.830144 
L 210.283355 393.58345 
L 215.724022 383.500397 
L 221.597586 373.713523 
L 227.831729 364.337222 
L 234.350955 355.466707 
L 241.077589 347.176282 
L 247.934628 339.518805 
L 254.847746 332.527559 
L 261.746802 326.217542 
L 268.567348 320.587995 
L 275.251127 315.625092 
L 281.747419 311.304643 
L 288.012532 307.594575 
L 294.010474 304.457357 
L 299.71262 301.852224 
L 305.096873 299.736115 
L 310.147834 298.06583 
L 314.855456 296.799034 
L 319.214971 295.894253 
L 323.226226 295.311917 
L 326.892755 295.014874 
L 330.22142 294.968045 
L 333.221749 295.138944 
L 335.905487 295.497677 
L 338.2861 296.016422 
L 340.378399 296.669952 
L 342.198171 297.43511 
L 343.761821 298.290989 
L 345.086206 299.218752 
L 346.188267 300.201293 
L 347.084945 301.223232 
L 347.792946 302.271264 
L 348.328626 303.333293 
L 348.707854 304.398778 
L 348.945964 305.45856 
L 349.056616 307.531227 
L 348.769223 309.501717 
L 348.179992 311.336715 
L 347.372321 313.015951 
L 346.416985 314.529592 
L 344.832427 316.487693 
L 343.197214 318.08903 
L 341.112632 319.73298 
L 339.263213 320.913533 
L 337.043054 322.045753 
L 334.882673 322.867754 
L 333.105799 323.299654 
L 332.821072 323.258932 
L 332.824204 323.226236 
L 333.028789 322.862639 
L 343.754288 306.277286 
L 382.894852 244.519603 
L 391.137125 232.013894 
L 400.560908 218.134598 
L 407.512863 208.250957 
L 414.981247 198.041414 
L 422.917513 187.74841 
L 427.035051 182.673274 
L 431.232606 177.714086 
L 435.49076 172.931328 
L 439.786579 168.393082 
L 444.092274 164.174515 
L 448.376207 160.358054 
L 452.601383 157.031136 
L 456.726287 154.286554 
L 460.704715 152.218483 
L 464.485612 150.921792 
L 468.013901 150.488064 
L 471.231497 150.999552 
L 474.077799 152.532979 
L 476.49087 155.143123 
L 478.409776 158.868864 
L 479.775928 163.724371 
L 480.534919 169.696685 
L 480.639544 176.743642 
L 480.051133 184.792666 
L 478.74173 193.741978 
L 476.69627 203.463187 
L 473.913747 213.805094 
L 470.407387 224.59991 
L 466.206149 235.67017 
L 461.352386 246.835814 
L 455.902511 257.922317 
L 449.923486 268.766726 
L 443.49181 279.223546 
L 436.690348 289.169222 
L 429.605645 298.504051 
L 422.324917 307.154004 
L 414.934375 315.069091 
L 407.516211 322.222251 
L 400.146761 328.606485 
L 392.89583 334.231799 
L 385.825021 339.121797 
L 378.987568 343.310573 
L 372.428167 346.839494 
L 366.182807 349.754803 
L 360.279446 352.105402 
L 354.738841 353.940883 
L 349.574384 355.310842 
L 344.793741 356.263142 
L 340.398872 356.843405 
L 336.387298 357.095002 
L 332.752485 357.058714 
L 329.484676 356.772211 
L 326.571397 356.270573 
L 323.998041 355.585766 
L 321.748369 354.747341 
L 319.804889 353.782426 
L 318.149219 352.715213 
L 316.762527 351.567821 
L 315.62563 350.36064 
L 314.71936 349.11095 
L 314.024818 347.835341 
L 313.523287 346.54729 
L 313.19669 345.259757 
L 313.027448 343.98311 
L 312.998823 342.726682 
L 313.094911 341.498419 
L 313.600626 339.151294 
L 314.434278 336.98039 
L 315.499511 335.008604 
L 316.715254 333.246061 
L 318.014244 331.69297 
L 320.003726 329.738999 
L 321.927537 328.195308 
L 324.249727 326.676586 
L 326.63906 325.44725 
L 328.735042 324.633818 
L 330.601167 324.143445 
L 331.971889 324.001363 
L 332.08267 324.018113 
L 332.022915 324.110852 
L 330.177528 327.137651 
L 323.169612 339.085716 
L 279.217168 414.631699 
L 268.081553 433.126829 
L 259.499959 447.041376 
L 249.929032 462.130963 
L 239.349184 478.174752 
L 233.688553 486.43632 
L 227.79373 494.76528 
L 221.681453 503.070912 
L 215.37583 511.242624 
L 208.909001 519.148224 
L 202.323317 526.630464 
L 195.671176 533.51136 
L 189.017528 539.590464 
L 182.44055 544.646592 
L 176.031306 548.443008 
L 169.895259 550.736064 
L 164.150928 551.28384 
L 158.928048 549.85824 
L 154.364724 546.262272 
L 150.606594 540.343872 
L 147.797622 532.01664 
L 146.07675 521.273664 
L 145.567854 508.199616 
L 146.376396 492.978701 
L 148.57938 475.891718 
L 152.216982 457.30777 
L 157.290876 437.664557 
L 163.760886 417.443328 
L 171.54214 397.138291 
L 180.512771 377.224819 
L 190.515256 358.133011 
L 201.367129 340.223795 
L 212.86868 323.776742 
L 224.813507 308.984579 
L 236.996712 295.956461 
L 249.223775 284.727226 
L 261.315914 275.270918 
L 273.114936 267.515136 
L 284.485414 261.355162 
L 295.315691 256.66727 
L 305.51688 253.318579 
L 315.022522 251.173958 
L 323.785292 250.10208 
L 331.775611 249.978182 
L 338.978901 250.68528 
L 345.393385 252.114509 
L 351.027918 254.165472 
L 355.90043 256.744858 
L 360.035712 259.766266 
L 363.464734 263.148826 
L 366.223318 266.817715 
L 368.35047 270.702778 
L 369.888541 274.738694 
L 370.881893 278.865331 
L 371.376058 283.027046 
L 371.41774 287.173728 
L 371.053478 291.260102 
L 370.329808 295.246426 
L 369.29243 299.098483 
L 367.985538 302.787245 
L 366.451987 306.288864 
L 364.732454 309.58518 
L 362.865609 312.662229 
L 360.887443 315.510924 
L 358.831102 318.1262 
L 356.727051 320.506658 
L 354.602745 322.654183 
L 352.482791 324.57339 
L 350.388952 326.271231 
L 348.340077 327.756586 
L 346.352135 329.039798 
L 344.438702 330.132344 
L 340.87705 331.795198 
L 337.716856 332.84812 
L 334.989039 333.39505 
L 332.699699 333.535467 
L 330.835795 333.360835 
L 329.370409 332.952526 
L 328.26731 332.380783 
L 327.484732 331.704616 
L 326.978548 330.972169 
L 326.704648 330.221508 
L 326.62073 329.481683 
L 326.766351 328.43683 
L 327.136657 327.507235 
L 327.821608 326.478574 
L 328.768874 325.527231 
L 329.806486 324.79619 
L 331.022167 324.226698 
L 332.004397 324.007455 
L 332.087157 324.013399 
L 332.021866 324.114013 
L 330.165894 327.175304 
L 322.920219 339.584556 
L 280.172018 413.367322 
L 269.1119 431.851392 
L 260.567971 445.807238 
L 251.017299 460.995322 
L 240.432262 477.214157 
L 234.756398 485.598758 
L 228.835962 494.0784 
L 222.686021 502.564608 
L 216.328838 510.950592 
L 209.795216 519.103296 
L 203.124996 526.870656 
L 196.369569 534.07296 
L 189.59171 540.508032 
L 182.868424 545.951232 
L 176.290106 550.16064 
L 169.961884 552.885696 
L 164.001942 553.872384 
L 158.543028 552.878784 
L 153.72693 549.690624 
L 149.699286 544.13856 
L 146.614104 536.115456 
L 144.613674 525.593664 
L 143.83359 512.644032 
L 144.384336 497.434176 
L 146.354634 480.239885 
L 149.79303 461.428358 
L 154.711242 441.445075 
L 161.072442 420.785798 
L 168.799124 399.965126 
L 177.77009 379.483315 
L 187.828151 359.796384 
L 198.787495 341.291059 
L 210.443724 324.269475 
L 222.583237 308.942882 
L 234.993604 295.433741 
L 247.4716 283.785293 
L 259.830239 273.975091 
L 271.903295 265.931078 
L 283.548476 259.545946 
L 294.647598 254.691821 
L 305.107085 251.230291 
L 314.855959 249.021043 
L 323.843932 247.927219 
L 332.039091 247.818874 
L 339.425223 248.574355 
L 345.999574 250.080653 
L 351.770504 252.233395 
L 356.755844 254.935642 
L 360.980852 258.097363 
L 364.477169 261.634925 
L 367.280951 265.46953 
L 369.433046 269.528429 
L 370.976641 273.743194 
L 371.957605 278.050579 
L 372.423312 282.392352 
L 372.421638 286.715808 
L 372.001464 290.973254 
L 371.210666 295.122874 
L 370.097122 299.12855 
L 368.706865 302.960045 
L 367.084424 306.592128 
L 365.272319 310.005878 
L 363.310726 313.186884 
L 361.237309 316.12578 
L 359.086387 318.817521 
L 356.889764 321.261016 
L 354.676066 323.458547 
L 352.470906 325.415362 
L 350.296715 327.139137 
L 348.172961 328.639576 
L 346.116201 329.927904 
L 344.140329 331.016527 
L 342.25656 331.918681 
L 338.798611 333.218828 
L 335.787772 333.939853 
L 333.240335 334.19069 
L 331.149766 334.073013 
L 329.492511 333.678442 
L 328.233194 333.086964 
L 327.329033 332.366406 
L 326.733424 331.572632 
L 326.398959 330.750311 
L 326.279469 329.933866 
L 326.409739 328.773756 
L 326.798492 327.737094 
L 327.540325 326.58787 
L 328.372856 325.707995 
L 329.549293 324.824975 
L 330.737834 324.226346 
L 331.816607 323.932874 
L 332.269113 323.771462 
L 334.329065 320.512982 
L 340.515282 310.302887 
L 357.331532 282.016339 
L 375.275138 251.983181 
L 386.902408 232.906925 
L 397.509039 215.922931 
L 405.571525 203.356742 
L 414.458959 189.926726 
L 424.163974 175.87031 
L 429.307673 168.722784 
L 434.629319 161.580787 
L 440.110832 154.525018 
L 445.727605 147.650688 
L 451.448667 141.072192 
L 457.234848 134.9136 
L 463.039108 129.321792 
L 468.804699 124.454016 
L 474.465163 120.483072 
L 479.944332 117.583488 
L 485.156498 115.94016 
L 490.006746 115.727616 
L 494.392626 117.108288 
L 498.205998 120.222144 
L 501.336378 125.172864 
L 503.673282 132.017472 
L 505.114596 140.757696 
L 505.564902 151.331155 
L 504.945522 163.60704 
L 503.19954 177.388358 
L 500.291802 192.416947 
L 496.220132 208.384704 
L 491.0083 224.948966 
L 484.713056 241.751866 
L 477.419605 258.439507 
L 469.238767 274.68167 
L 460.30262 290.187187 
L 450.757975 304.71552 
L 440.760344 318.083518 
L 430.467421 330.165988 
L 420.033379 340.893343 
L 409.603522 350.244864 
L 399.310765 358.239974 
L 389.272624 364.930099 
L 379.590208 370.388506 
L 370.347385 374.703149 
L 361.610779 377.969933 
L 353.43128 380.287181 
L 345.845365 381.752525 
L 338.876051 382.460314 
L 332.535108 382.499539 
L 326.824456 381.95401 
L 321.737706 380.901658 
L 317.26158 379.414368 
L 313.377147 377.559014 
L 310.060953 375.397286 
L 307.285628 372.986208 
L 305.021543 370.377965 
L 303.236557 367.621459 
L 301.897022 364.760582 
L 300.968622 361.836288 
L 300.416369 358.884691 
L 300.205278 355.939142 
L 300.300696 353.028672 
L 300.668474 350.178682 
L 301.275634 347.411462 
L 302.090035 344.745331 
L 303.081377 342.195322 
L 304.220534 339.77391 
L 305.480387 337.489943 
L 306.83549 335.349884 
L 308.262407 333.357673 
L 309.739712 331.515055 
L 312.768983 328.275919 
L 315.790586 325.611776 
L 318.702024 323.482599 
L 321.428116 321.835974 
L 323.918091 320.612913 
L 326.141799 319.752386 
L 328.086016 319.194622 
L 329.750893 318.883565 
L 331.748807 318.769603 
L 333.204899 318.950594 
L 334.200033 319.310744 
L 334.820786 319.763376 
L 335.150564 320.247026 
L 335.265484 320.87194 
L 335.14129 321.426593 
L 334.736249 322.086292 
L 334.042828 322.716609 
L 333.156135 323.198704 
L 332.85222 323.24066 
L 332.854462 323.191825 
L 333.096301 322.774568 
L 342.298594 308.612385 
L 357.162793 285.022714 
L 373.404946 259.359322 
L 385.194258 241.150694 
L 393.72898 228.322886 
L 403.444373 214.203226 
L 410.576785 204.242861 
L 418.201018 194.059238 
L 426.252289 183.933158 
L 430.405985 179.007494 
L 434.621619 174.249101 
L 438.876592 169.72416 
L 443.144455 165.505594 
L 447.394072 161.673581 
L 451.59012 158.313485 
L 455.691922 155.515507 
L 459.654615 153.372442 
L 463.428815 151.977082 
L 466.960621 151.419802 
L 470.193282 151.783891 
L 473.067373 153.143309 
L 475.522294 155.556634 
L 477.498116 159.064474 
L 478.936417 163.684109 
L 479.783293 169.407072 
L 479.991204 176.196902 
L 479.520475 183.986899 
L 478.342314 192.682368 
L 476.439478 202.161139 
L 473.80862 212.278752 
L 470.460787 222.87312 
L 466.421425 233.771616 
L 461.73004 244.797984 
L 456.439698 255.779251 
L 450.61468 266.553504 
L 444.328308 276.974208 
L 437.661101 286.91591 
L 430.697596 296.275968 
L 423.523501 304.976448 
L 416.224024 312.963679 
L 408.880856 320.206176 
L 401.57033 326.693002 
L 394.362421 332.430428 
L 387.319401 337.43876 
L 380.495675 341.749152 
L 373.936608 345.400762 
L 367.679698 348.437722 
L 361.754408 350.907725 
L 356.182164 352.859328 
L 350.9782 354.340915 
L 346.151171 355.400006 
L 341.704173 356.081875 
L 337.635818 356.430067 
L 333.94058 356.484672 
L 330.609573 356.283706 
L 327.631123 355.862246 
L 324.991359 355.252262 
L 322.67466 354.483648 
L 320.664102 353.583187 
L 318.941824 352.57559 
L 317.489378 351.483149 
L 316.288015 350.32608 
L 315.31882 349.122182 
L 314.563343 347.887872 
L 314.002888 346.637146 
L 313.619542 345.38279 
L 313.396063 344.135693 
L 313.315879 342.905357 
L 313.362751 341.699731 
L 313.77874 339.388531 
L 314.533546 337.242614 
L 315.530798 335.286467 
L 316.688989 333.531838 
L 317.94022 331.980405 
L 319.874711 330.020127 
L 321.76084 328.462923 
L 324.054338 326.920182 
L 326.43279 325.658085 
L 328.537628 324.808507 
L 330.434467 324.27752 
L 331.882519 324.095129 
L 331.983947 324.121904 
L 331.936314 324.20651 
L 329.206776 328.491919 
L 322.02324 340.26874 
L 279.315265 410.90423 
L 269.364841 426.750336 
L 261.814766 438.48 
L 253.498167 451.041523 
L 244.415545 464.24569 
L 239.597773 470.995085 
L 234.607747 477.77351 
L 229.460197 484.514438 
L 224.174374 491.138726 
L 218.775389 497.553408 
L 213.294713 503.653248 
L 207.771518 509.314176 
L 202.252005 514.403136 
L 196.791584 518.77152 
L 191.454035 522.265536 
L 186.311675 524.721024 
L 181.445692 525.975552 
L 176.944808 525.8736 
L 172.903772 524.273472 
L 169.421852 521.059392 
L 166.599655 516.143232 
L 164.535948 509.485248 
L 163.323972 501.092352 
L 163.044414 491.031245 
L 163.769256 479.424787 
L 165.545705 466.456493 
L 168.400544 452.361542 
L 172.335616 437.417971 
L 177.324638 421.932845 
L 183.31488 406.22567 
L 190.22783 390.612499 
L 197.961878 375.388474 
L 206.397499 360.815558 
L 215.401275 347.111827 
L 224.832089 334.445916 
L 234.54698 322.935656 
L 244.405334 312.650168 
L 254.274401 303.61513 
L 264.031645 295.81943 
L 273.56859 289.223136 
L 282.790656 283.765075 
L 291.619332 279.369562 
L 299.991006 275.952787 
L 307.856462 273.426624 
L 315.180212 271.703462 
L 321.938335 270.697766 
L 328.118173 270.327283 
L 333.715892 270.51529 
L 338.735636 271.189728 
L 343.188057 272.283725 
L 347.089281 273.735245 
L 350.459762 275.487437 
L 353.323474 277.487424 
L 355.706915 279.686995 
L 357.639046 282.041222 
L 359.149999 284.509498 
L 360.270574 287.054669 
L 361.032579 289.64304 
L 361.467652 292.244544 
L 361.607263 294.831878 
L 361.482215 297.381542 
L 361.12264 299.873146 
L 360.557665 302.288717 
L 359.815079 304.613914 
L 358.921665 306.836778 
L 357.902199 308.94798 
L 356.780117 310.94064 
L 355.57718 312.80999 
L 353.007423 316.169516 
L 350.331869 319.024362 
L 347.663228 321.393675 
L 345.087829 323.311746 
L 342.669 324.822364 
L 340.449694 325.974361 
L 338.455542 326.818005 
L 335.908718 327.611917 
L 333.887028 327.973571 
L 332.349026 328.032409 
L 331.232828 327.89289 
L 330.279224 327.533916 
L 329.786817 327.095228 
L 329.611448 326.656835 
L 329.664615 326.171336 
L 329.973786 325.653777 
L 330.568409 325.154273 
L 331.142264 324.932073 
L 331.138473 325.057844 
L 330.703906 325.757635 
L 323.659725 336.485111 
L 312.319849 354.300998 
L 291.210541 387.488621 
L 279.830689 404.953862 
L 271.620389 417.2256 
L 262.294702 430.72007 
L 255.457249 440.242214 
L 248.15275 449.992282 
L 240.438958 459.718675 
L 236.457349 464.469466 
L 232.413635 469.077178 
L 228.327903 473.482714 
L 224.223925 477.62041 
L 220.129655 481.418208 
L 216.076734 484.798867 
L 212.101654 487.68048 
L 208.244925 489.978374 
L 204.551244 491.606842 
L 201.069324 492.481728 
L 197.850724 492.523718 
L 194.94985 491.661274 
L 192.422612 489.834259 
L 190.325257 486.998093 
L 188.712191 483.127373 
L 187.635641 478.21847 
L 187.142146 472.292813 
L 187.272049 465.397747 
L 188.056987 457.607405 
L 189.518054 449.0208 
L 191.664792 439.759584 
L 194.494187 429.963725 
L 197.989499 419.78615 
L 202.121266 409.387219 
L 206.847302 398.927462 
L 212.113874 388.561709 
L 217.858037 378.434074 
L 224.008983 368.671738 
L 230.490544 359.383565 
L 237.223706 350.656301 
L 244.128956 342.555091 
L 251.12862 335.123879 
L 258.148037 328.386528 
L 265.118405 322.349499 
L 271.976449 317.00433 
L 278.666422 312.330505 
L 285.140282 308.298286 
L 291.357351 304.871213 
L 297.284818 302.008262 
L 302.896735 299.665958 
L 308.174355 297.799718 
L 313.105122 296.365478 
L 317.681704 295.320038 
L 321.901908 294.621581 
L 325.767743 294.231053 
L 329.284851 294.11113 
L 332.461843 294.227597 
L 335.309862 294.548314 
L 337.842004 295.044077 
L 340.07291 295.687584 
L 342.018383 296.454125 
L 343.695061 297.321408 
L 345.120037 298.269216 
L 346.310703 299.278886 
L 347.284486 300.334349 
L 348.058661 301.420742 
L 348.650168 302.525107 
L 349.075532 303.636038 
L 349.350737 304.743514 
L 349.491186 305.839066 
L 349.425398 307.965767 
L 348.985973 309.970852 
L 348.268162 311.824443 
L 347.353555 313.50945 
L 346.311055 315.018962 
L 344.628283 316.957588 
L 342.92765 318.529515 
L 340.795175 320.127379 
L 338.512274 321.485432 
L 336.421314 322.454987 
L 334.448605 323.132596 
L 332.82067 323.467206 
L 332.662379 323.4207 
L 332.673529 323.369487 
L 333.003419 322.843025 
L 337.583522 315.841473 
L 346.490323 301.724352 
L 378.271933 251.063194 
L 388.833367 234.750182 
L 398.171608 220.743014 
L 405.105651 210.662899 
L 412.601153 200.139552 
L 420.623631 189.389664 
L 424.811644 184.024397 
L 429.1006 178.73015 
L 433.47359 173.565158 
L 437.909522 168.596294 
L 442.383455 163.898035 
L 446.86492 159.55367 
L 451.319099 155.653056 
L 455.705816 152.293133 
L 459.979371 149.57568 
L 464.088874 147.602304 
L 467.978413 146.477376 
L 471.588059 146.299392 
L 474.8542 147.15648 
L 477.710546 149.124672 
L 480.09064 152.262029 
L 481.928692 156.603283 
L 483.162262 162.154829 
L 483.73477 168.891955 
L 483.597502 176.757293 
L 482.711789 185.65943 
L 481.052353 195.475334 
L 478.607978 206.053632 
L 475.383184 217.219795 
L 471.399232 228.784608 
L 466.693283 240.551078 
L 461.318069 252.323597 
L 455.33988 263.915712 
L 448.836557 275.158253 
L 441.894479 285.903821 
L 434.605549 296.031283 
L 427.064513 305.447155 
L 419.365453 314.086101 
L 411.599264 321.909258 
L 403.851825 328.901299 
L 396.201812 335.067235 
L 388.719535 340.428597 
L 381.466093 345.019738 
L 374.493213 348.884064 
L 367.843248 352.071187 
L 361.54951 354.634502 
L 355.636775 356.628269 
L 350.122284 358.106746 
L 345.015965 359.12281 
L 340.321851 359.727264 
L 336.038587 359.968147 
L 332.160311 359.890214 
L 328.677407 359.535629 
L 325.577159 358.942925 
L 322.844337 358.147872 
L 320.461833 357.183302 
L 318.411016 356.07911 
L 316.672232 354.862598 
L 315.225243 353.558477 
L 314.049258 352.189037 
L 313.123536 350.774323 
L 312.427319 349.332134 
L 311.94052 347.878541 
L 311.643218 346.427366 
L 311.516329 344.99088 
L 311.541104 343.579104 
L 311.700301 342.20137 
L 312.355505 339.575293 
L 313.360072 337.156163 
L 314.607872 334.969206 
L 316.009529 333.02505 
L 317.490885 331.322953 
L 318.992647 329.853704 
L 321.186022 328.052506 
L 323.216668 326.675981 
L 325.571316 325.378337 
L 327.889756 324.396056 
L 329.824331 323.817482 
L 331.429426 323.558705 
L 332.377139 323.608636 
L 332.500098 323.536538 
L 332.59804 323.384369 
L 332.59804 323.384369 
" style="fill:none;stroke:#0000ff;stroke-linecap:square;"/>
   </g>
   <g id="patch_3">
    <path d="M 81 583.2 
L 583.2 583.2 
" style="fill:none;stroke:#000000;stroke-linecap:square;stroke-linejoin:miter;"/>
   </g>
   <g id="patch_4">
    <path d="M 81 583.2 
L 81 64.8 
" style="fill:none;stroke:#000000;stroke-linecap:square;stroke-linejoin:miter;"/>
   </g>
   <g id="patch_5">
    <path d="M 583.2 583.2 
L 583.2 64.8 
" style="fill:none;stroke:#000000;stroke-linecap:square;stroke-linejoin:miter;"/>
   </g>
   <g id="patch_6">
    <path d="M 81 64.8 
L 583.2 64.8 
" style="fill:none;stroke:#000000;stroke-linecap:square;stroke-linejoin:miter;"/>
   </g>
   <g id="matplotlib.axis_1">
    <g id="xtick_1">
     <g id="line2d_2">
      <path clip-path="url(#pb5453197ca)" d="M 81 583.2 
L 81 64.8 
" style="fill:none;stroke:#000000;stroke-dasharray:1.000000,3.000000;stroke-dashoffset:0.0;stroke-width:0.5;"/>
     </g>
     <g id="line2d_3">
      <defs>
       <path d="M 0 0 
L 0 -4 
" id="m33593cdf82" style="stroke:#000000;stroke-width:0.5;"/>
      </defs>
      <g>
       <use style="stroke:#000000;stroke-width:0.5;" x="81.0" xlink:href="#m33593cdf82" y="583.2"/>
      </g>
     </g>
     <g id="line2d_4">
      <defs>
       <path d="M 0 0 
L 0 4 
" id="m2ec1d8d8fa" style="stroke:#000000;stroke-width:0.5;"/>
      </defs>
      <g>
       <use style="stroke:#000000;stroke-width:0.5;" x="81.0" xlink:href="#m2ec1d8d8fa" y="64.8"/>
      </g>
     </g>
     <g id="text_1">
      <!-- 15 -->
      <defs>
       <path d="M 10.59375 35.5 
L 73.1875 35.5 
L 73.1875 27.203125 
L 10.59375 27.203125 
z
" id="BitstreamVeraSans-Roman-2212"/>
       <path d="M 10.796875 72.90625 
L 49.515625 72.90625 
L 49.515625 64.59375 
L 19.828125 64.59375 
L 19.828125 46.734375 
Q 21.96875 47.46875 24.109375 47.828125 
Q 26.265625 48.1875 28.421875 48.1875 
Q 40.625 48.1875 47.75 41.5 
Q 54.890625 34.8125 54.890625 23.390625 
Q 54.890625 11.625 47.5625 5.09375 
Q 40.234375 -1.421875 26.90625 -1.421875 
Q 22.3125 -1.421875 17.546875 -0.640625 
Q 12.796875 0.140625 7.71875 1.703125 
L 7.71875 11.625 
Q 12.109375 9.234375 16.796875 8.0625 
Q 21.484375 6.890625 26.703125 6.890625 
Q 35.15625 6.890625 40.078125 11.328125 
Q 45.015625 15.765625 45.015625 23.390625 
Q 45.015625 31 40.078125 35.4375 
Q 35.15625 39.890625 26.703125 39.890625 
Q 22.75 39.890625 18.8125 39.015625 
Q 14.890625 38.140625 10.796875 36.28125 
z
" id="BitstreamVeraSans-Roman-35"/>
       <path d="M 12.40625 8.296875 
L 28.515625 8.296875 
L 28.515625 63.921875 
L 10.984375 60.40625 
L 10.984375 69.390625 
L 28.421875 72.90625 
L 38.28125 72.90625 
L 38.28125 8.296875 
L 54.390625 8.296875 
L 54.390625 0 
L 12.40625 0 
z
" id="BitstreamVeraSans-Roman-31"/>
      </defs>
      <g transform="translate(68.3371875 596.318125)scale(0.12 -0.12)">
       <use xlink:href="#BitstreamVeraSans-Roman-2212"/>
       <use x="83.7890625" xlink:href="#BitstreamVeraSans-Roman-31"/>
       <use x="147.412109375" xlink:href="#BitstreamVeraSans-Roman-35"/>
      </g>
     </g>
    </g>
    <g id="xtick_2">
     <g id="line2d_5">
      <path clip-path="url(#pb5453197ca)" d="M 164.7 583.2 
L 164.7 64.8 
" style="fill:none;stroke:#000000;stroke-dasharray:1.000000,3.000000;stroke-dashoffset:0.0;stroke-width:0.5;"/>
     </g>
     <g id="line2d_6">
      <g>
       <use style="stroke:#000000;stroke-width:0.5;" x="164.7" xlink:href="#m33593cdf82" y="583.2"/>
      </g>
     </g>
     <g id="line2d_7">
      <g>
       <use style="stroke:#000000;stroke-width:0.5;" x="164.7" xlink:href="#m2ec1d8d8fa" y="64.8"/>
      </g>
     </g>
     <g id="text_2">
      <!-- 10 -->
      <defs>
       <path d="M 31.78125 66.40625 
Q 24.171875 66.40625 20.328125 58.90625 
Q 16.5 51.421875 16.5 36.375 
Q 16.5 21.390625 20.328125 13.890625 
Q 24.171875 6.390625 31.78125 6.390625 
Q 39.453125 6.390625 43.28125 13.890625 
Q 47.125 21.390625 47.125 36.375 
Q 47.125 51.421875 43.28125 58.90625 
Q 39.453125 66.40625 31.78125 66.40625 
M 31.78125 74.21875 
Q 44.046875 74.21875 50.515625 64.515625 
Q 56.984375 54.828125 56.984375 36.375 
Q 56.984375 17.96875 50.515625 8.265625 
Q 44.046875 -1.421875 31.78125 -1.421875 
Q 19.53125 -1.421875 13.0625 8.265625 
Q 6.59375 17.96875 6.59375 36.375 
Q 6.59375 54.828125 13.0625 64.515625 
Q 19.53125 74.21875 31.78125 74.21875 
" id="BitstreamVeraSans-Roman-30"/>
      </defs>
      <g transform="translate(152.0371875 596.318125)scale(0.12 -0.12)">
       <use xlink:href="#BitstreamVeraSans-Roman-2212"/>
       <use x="83.7890625" xlink:href="#BitstreamVeraSans-Roman-31"/>
       <use x="147.412109375" xlink:href="#BitstreamVeraSans-Roman-30"/>
      </g>
     </g>
    </g>
    <g id="xtick_3">
     <g id="line2d_8">
      <path clip-path="url(#pb5453197ca)" d="M 248.4 583.2 
L 248.4 64.8 
" style="fill:none;stroke:#000000;stroke-dasharray:1.000000,3.000000;stroke-dashoffset:0.0;stroke-width:0.5;"/>
     </g>
     <g id="line2d_9">
      <g>
       <use style="stroke:#000000;stroke-width:0.5;" x="248.4" xlink:href="#m33593cdf82" y="583.2"/>
      </g>
     </g>
     <g id="line2d_10">
      <g>
       <use style="stroke:#000000;stroke-width:0.5;" x="248.4" xlink:href="#m2ec1d8d8fa" y="64.8"/>
      </g>
     </g>
     <g id="text_3">
      <!-- 5 -->
      <g transform="translate(239.5546875 596.318125)scale(0.12 -0.12)">
       <use xlink:href="#BitstreamVeraSans-Roman-2212"/>
       <use x="83.7890625" xlink:href="#BitstreamVeraSans-Roman-35"/>
      </g>
     </g>
    </g>
    <g id="xtick_4">
     <g id="line2d_11">
      <path clip-path="url(#pb5453197ca)" d="M 332.1 583.2 
L 332.1 64.8 
" style="fill:none;stroke:#000000;stroke-dasharray:1.000000,3.000000;stroke-dashoffset:0.0;stroke-width:0.5;"/>
     </g>
     <g id="line2d_12">
      <g>
       <use style="stroke:#000000;stroke-width:0.5;" x="332.1" xlink:href="#m33593cdf82" y="583.2"/>
      </g>
     </g>
     <g id="line2d_13">
      <g>
       <use style="stroke:#000000;stroke-width:0.5;" x="332.1" xlink:href="#m2ec1d8d8fa" y="64.8"/>
      </g>
     </g>
     <g id="text_4">
      <!-- 0 -->
      <g transform="translate(328.2825 596.318125)scale(0.12 -0.12)">
       <use xlink:href="#BitstreamVeraSans-Roman-30"/>
      </g>
     </g>
    </g>
    <g id="xtick_5">
     <g id="line2d_14">
      <path clip-path="url(#pb5453197ca)" d="M 415.8 583.2 
L 415.8 64.8 
" style="fill:none;stroke:#000000;stroke-dasharray:1.000000,3.000000;stroke-dashoffset:0.0;stroke-width:0.5;"/>
     </g>
     <g id="line2d_15">
      <g>
       <use style="stroke:#000000;stroke-width:0.5;" x="415.8" xlink:href="#m33593cdf82" y="583.2"/>
      </g>
     </g>
     <g id="line2d_16">
      <g>
       <use style="stroke:#000000;stroke-width:0.5;" x="415.8" xlink:href="#m2ec1d8d8fa" y="64.8"/>
      </g>
     </g>
     <g id="text_5">
      <!-- 5 -->
      <g transform="translate(411.9825 596.318125)scale(0.12 -0.12)">
       <use xlink:href="#BitstreamVeraSans-Roman-35"/>
      </g>
     </g>
    </g>
    <g id="xtick_6">
     <g id="line2d_17">
      <path clip-path="url(#pb5453197ca)" d="M 499.5 583.2 
L 499.5 64.8 
" style="fill:none;stroke:#000000;stroke-dasharray:1.000000,3.000000;stroke-dashoffset:0.0;stroke-width:0.5;"/>
     </g>
     <g id="line2d_18">
      <g>
       <use style="stroke:#000000;stroke-width:0.5;" x="499.5" xlink:href="#m33593cdf82" y="583.2"/>
      </g>
     </g>
     <g id="line2d_19">
      <g>
       <use style="stroke:#000000;stroke-width:0.5;" x="499.5" xlink:href="#m2ec1d8d8fa" y="64.8"/>
      </g>
     </g>
     <g id="text_6">
      <!-- 10 -->
      <g transform="translate(491.865 596.318125)scale(0.12 -0.12)">
       <use xlink:href="#BitstreamVeraSans-Roman-31"/>
       <use x="63.623046875" xlink:href="#BitstreamVeraSans-Roman-30"/>
      </g>
     </g>
    </g>
    <g id="xtick_7">
     <g id="line2d_20">
      <path clip-path="url(#pb5453197ca)" d="M 583.2 583.2 
L 583.2 64.8 
" style="fill:none;stroke:#000000;stroke-dasharray:1.000000,3.000000;stroke-dashoffset:0.0;stroke-width:0.5;"/>
     </g>
     <g id="line2d_21">
      <g>
       <use style="stroke:#000000;stroke-width:0.5;" x="583.2" xlink:href="#m33593cdf82" y="583.2"/>
      </g>
     </g>
     <g id="line2d_22">
      <g>
       <use style="stroke:#000000;stroke-width:0.5;" x="583.2" xlink:href="#m2ec1d8d8fa" y="64.8"/>
      </g>
     </g>
     <g id="text_7">
      <!-- 15 -->
      <g transform="translate(575.565 596.318125)scale(0.12 -0.12)">
       <use xlink:href="#BitstreamVeraSans-Roman-31"/>
       <use x="63.623046875" xlink:href="#BitstreamVeraSans-Roman-35"/>
      </g>
     </g>
    </g>
    <g id="text_8">
     <!-- x -->
     <defs>
      <path d="M 54.890625 54.6875 
L 35.109375 28.078125 
L 55.90625 0 
L 45.3125 0 
L 29.390625 21.484375 
L 13.484375 0 
L 2.875 0 
L 24.125 28.609375 
L 4.6875 54.6875 
L 15.28125 54.6875 
L 29.78125 35.203125 
L 44.28125 54.6875 
z
" id="BitstreamVeraSans-Roman-78"/>
     </defs>
     <g transform="translate(326.773125 617.4909375)scale(0.18 -0.18)">
      <use xlink:href="#BitstreamVeraSans-Roman-78"/>
     </g>
    </g>
   </g>
   <g id="matplotlib.axis_2">
    <g id="ytick_1">
     <g id="line2d_23">
      <path clip-path="url(#pb5453197ca)" d="M 81 583.2 
L 583.2 583.2 
" style="fill:none;stroke:#000000;stroke-dasharray:1.000000,3.000000;stroke-dashoffset:0.0;stroke-width:0.5;"/>
     </g>
     <g id="line2d_24">
      <defs>
       <path d="M 0 0 
L 4 0 
" id="m648f1890b4" style="stroke:#000000;stroke-width:0.5;"/>
      </defs>
      <g>
       <use style="stroke:#000000;stroke-width:0.5;" x="81.0" xlink:href="#m648f1890b4" y="583.2"/>
      </g>
     </g>
     <g id="line2d_25">
      <defs>
       <path d="M 0 0 
L -4 0 
" id="m42c0e8ec66" style="stroke:#000000;stroke-width:0.5;"/>
      </defs>
      <g>
       <use style="stroke:#000000;stroke-width:0.5;" x="583.2" xlink:href="#m42c0e8ec66" y="583.2"/>
      </g>
     </g>
     <g id="text_9">
      <!-- 15 -->
      <g transform="translate(51.674375 586.51125)scale(0.12 -0.12)">
       <use xlink:href="#BitstreamVeraSans-Roman-2212"/>
       <use x="83.7890625" xlink:href="#BitstreamVeraSans-Roman-31"/>
       <use x="147.412109375" xlink:href="#BitstreamVeraSans-Roman-35"/>
      </g>
     </g>
    </g>
    <g id="ytick_2">
     <g id="line2d_26">
      <path clip-path="url(#pb5453197ca)" d="M 81 496.8 
L 583.2 496.8 
" style="fill:none;stroke:#000000;stroke-dasharray:1.000000,3.000000;stroke-dashoffset:0.0;stroke-width:0.5;"/>
     </g>
     <g id="line2d_27">
      <g>
       <use style="stroke:#000000;stroke-width:0.5;" x="81.0" xlink:href="#m648f1890b4" y="496.8"/>
      </g>
     </g>
     <g id="line2d_28">
      <g>
       <use style="stroke:#000000;stroke-width:0.5;" x="583.2" xlink:href="#m42c0e8ec66" y="496.8"/>
      </g>
     </g>
     <g id="text_10">
      <!-- 10 -->
      <g transform="translate(51.674375 500.11125)scale(0.12 -0.12)">
       <use xlink:href="#BitstreamVeraSans-Roman-2212"/>
       <use x="83.7890625" xlink:href="#BitstreamVeraSans-Roman-31"/>
       <use x="147.412109375" xlink:href="#BitstreamVeraSans-Roman-30"/>
      </g>
     </g>
    </g>
    <g id="ytick_3">
     <g id="line2d_29">
      <path clip-path="url(#pb5453197ca)" d="M 81 410.4 
L 583.2 410.4 
" style="fill:none;stroke:#000000;stroke-dasharray:1.000000,3.000000;stroke-dashoffset:0.0;stroke-width:0.5;"/>
     </g>
     <g id="line2d_30">
      <g>
       <use style="stroke:#000000;stroke-width:0.5;" x="81.0" xlink:href="#m648f1890b4" y="410.4"/>
      </g>
     </g>
     <g id="line2d_31">
      <g>
       <use style="stroke:#000000;stroke-width:0.5;" x="583.2" xlink:href="#m42c0e8ec66" y="410.4"/>
      </g>
     </g>
     <g id="text_11">
      <!-- 5 -->
      <g transform="translate(59.309375 413.71125)scale(0.12 -0.12)">
       <use xlink:href="#BitstreamVeraSans-Roman-2212"/>
       <use x="83.7890625" xlink:href="#BitstreamVeraSans-Roman-35"/>
      </g>
     </g>
    </g>
    <g id="ytick_4">
     <g id="line2d_32">
      <path clip-path="url(#pb5453197ca)" d="M 81 324 
L 583.2 324 
" style="fill:none;stroke:#000000;stroke-dasharray:1.000000,3.000000;stroke-dashoffset:0.0;stroke-width:0.5;"/>
     </g>
     <g id="line2d_33">
      <g>
       <use style="stroke:#000000;stroke-width:0.5;" x="81.0" xlink:href="#m648f1890b4" y="324.0"/>
      </g>
     </g>
     <g id="line2d_34">
      <g>
       <use style="stroke:#000000;stroke-width:0.5;" x="583.2" xlink:href="#m42c0e8ec66" y="324.0"/>
      </g>
     </g>
     <g id="text_12">
      <!-- 0 -->
      <g transform="translate(69.365 327.31125)scale(0.12 -0.12)">
       <use xlink:href="#BitstreamVeraSans-Roman-30"/>
      </g>
     </g>
    </g>
    <g id="ytick_5">
     <g id="line2d_35">
      <path clip-path="url(#pb5453197ca)" d="M 81 237.6 
L 583.2 237.6 
" style="fill:none;stroke:#000000;stroke-dasharray:1.000000,3.000000;stroke-dashoffset:0.0;stroke-width:0.5;"/>
     </g>
     <g id="line2d_36">
      <g>
       <use style="stroke:#000000;stroke-width:0.5;" x="81.0" xlink:href="#m648f1890b4" y="237.6"/>
      </g>
     </g>
     <g id="line2d_37">
      <g>
       <use style="stroke:#000000;stroke-width:0.5;" x="583.2" xlink:href="#m42c0e8ec66" y="237.6"/>
      </g>
     </g>
     <g id="text_13">
      <!-- 5 -->
      <g transform="translate(69.365 240.91125)scale(0.12 -0.12)">
       <use xlink:href="#BitstreamVeraSans-Roman-35"/>
      </g>
     </g>
    </g>
    <g id="ytick_6">
     <g id="line2d_38">
      <path clip-path="url(#pb5453197ca)" d="M 81 151.2 
L 583.2 151.2 
" style="fill:none;stroke:#000000;stroke-dasharray:1.000000,3.000000;stroke-dashoffset:0.0;stroke-width:0.5;"/>
     </g>
     <g id="line2d_39">
      <g>
       <use style="stroke:#000000;stroke-width:0.5;" x="81.0" xlink:href="#m648f1890b4" y="151.2"/>
      </g>
     </g>
     <g id="line2d_40">
      <g>
       <use style="stroke:#000000;stroke-width:0.5;" x="583.2" xlink:href="#m42c0e8ec66" y="151.2"/>
      </g>
     </g>
     <g id="text_14">
      <!-- 10 -->
      <g transform="translate(61.73 154.51125)scale(0.12 -0.12)">
       <use xlink:href="#BitstreamVeraSans-Roman-31"/>
       <use x="63.623046875" xlink:href="#BitstreamVeraSans-Roman-30"/>
      </g>
     </g>
    </g>
    <g id="ytick_7">
     <g id="line2d_41">
      <path clip-path="url(#pb5453197ca)" d="M 81 64.8 
L 583.2 64.8 
" style="fill:none;stroke:#000000;stroke-dasharray:1.000000,3.000000;stroke-dashoffset:0.0;stroke-width:0.5;"/>
     </g>
     <g id="line2d_42">
      <g>
       <use style="stroke:#000000;stroke-width:0.5;" x="81.0" xlink:href="#m648f1890b4" y="64.8"/>
      </g>
     </g>
     <g id="line2d_43">
      <g>
       <use style="stroke:#000000;stroke-width:0.5;" x="583.2" xlink:href="#m42c0e8ec66" y="64.8"/>
      </g>
     </g>
     <g id="text_15">
      <!-- 15 -->
      <g transform="translate(61.73 68.11125)scale(0.12 -0.12)">
       <use xlink:href="#BitstreamVeraSans-Roman-31"/>
       <use x="63.623046875" xlink:href="#BitstreamVeraSans-Roman-35"/>
      </g>
     </g>
    </g>
    <g id="text_16">
     <!-- y -->
     <defs>
      <path d="M 32.171875 -5.078125 
Q 28.375 -14.84375 24.75 -17.8125 
Q 21.140625 -20.796875 15.09375 -20.796875 
L 7.90625 -20.796875 
L 7.90625 -13.28125 
L 13.1875 -13.28125 
Q 16.890625 -13.28125 18.9375 -11.515625 
Q 21 -9.765625 23.484375 -3.21875 
L 25.09375 0.875 
L 2.984375 54.6875 
L 12.5 54.6875 
L 29.59375 11.921875 
L 46.6875 54.6875 
L 56.203125 54.6875 
z
" id="BitstreamVeraSans-Roman-79"/>
     </defs>
     <g transform="translate(42.9309375 329.326875)rotate(-90.0)scale(0.18 -0.18)">
      <use xlink:href="#BitstreamVeraSans-Roman-79"/>
     </g>
    </g>
   </g>
   <g id="text_17">
    <!-- Data -->
    <defs>
     <path d="M 34.28125 27.484375 
Q 23.390625 27.484375 19.1875 25 
Q 14.984375 22.515625 14.984375 16.5 
Q 14.984375 11.71875 18.140625 8.90625 
Q 21.296875 6.109375 26.703125 6.109375 
Q 34.1875 6.109375 38.703125 11.40625 
Q 43.21875 16.703125 43.21875 25.484375 
L 43.21875 27.484375 
z
M 52.203125 31.203125 
L 52.203125 0 
L 43.21875 0 
L 43.21875 8.296875 
Q 40.140625 3.328125 35.546875 0.953125 
Q 30.953125 -1.421875 24.3125 -1.421875 
Q 15.921875 -1.421875 10.953125 3.296875 
Q 6 8.015625 6 15.921875 
Q 6 25.140625 12.171875 29.828125 
Q 18.359375 34.515625 30.609375 34.515625 
L 43.21875 34.515625 
L 43.21875 35.40625 
Q 43.21875 41.609375 39.140625 45 
Q 35.0625 48.390625 27.6875 48.390625 
Q 23 48.390625 18.546875 47.265625 
Q 14.109375 46.140625 10.015625 43.890625 
L 10.015625 52.203125 
Q 14.9375 54.109375 19.578125 55.046875 
Q 24.21875 56 28.609375 56 
Q 40.484375 56 46.34375 49.84375 
Q 52.203125 43.703125 52.203125 31.203125 
" id="BitstreamVeraSans-Roman-61"/>
     <path d="M 19.671875 64.796875 
L 19.671875 8.109375 
L 31.59375 8.109375 
Q 46.6875 8.109375 53.6875 14.9375 
Q 60.6875 21.78125 60.6875 36.53125 
Q 60.6875 51.171875 53.6875 57.984375 
Q 46.6875 64.796875 31.59375 64.796875 
z
M 9.8125 72.90625 
L 30.078125 72.90625 
Q 51.265625 72.90625 61.171875 64.09375 
Q 71.09375 55.28125 71.09375 36.53125 
Q 71.09375 17.671875 61.125 8.828125 
Q 51.171875 0 30.078125 0 
L 9.8125 0 
z
" id="BitstreamVeraSans-Roman-44"/>
     <path d="M 18.3125 70.21875 
L 18.3125 54.6875 
L 36.8125 54.6875 
L 36.8125 47.703125 
L 18.3125 47.703125 
L 18.3125 18.015625 
Q 18.3125 11.328125 20.140625 9.421875 
Q 21.96875 7.515625 27.59375 7.515625 
L 36.8125 7.515625 
L 36.8125 0 
L 27.59375 0 
Q 17.1875 0 13.234375 3.875 
Q 9.28125 7.765625 9.28125 18.015625 
L 9.28125 47.703125 
L 2.6875 47.703125 
L 2.6875 54.6875 
L 9.28125 54.6875 
L 9.28125 70.21875 
z
" id="BitstreamVeraSans-Roman-74"/>
    </defs>
    <g transform="translate(305.83578125 59.8)scale(0.22 -0.22)">
     <use xlink:href="#BitstreamVeraSans-Roman-44"/>
     <use x="77.001953125" xlink:href="#BitstreamVeraSans-Roman-61"/>
     <use x="138.28125" xlink:href="#BitstreamVeraSans-Roman-74"/>
     <use x="177.490234375" xlink:href="#BitstreamVeraSans-Roman-61"/>
    </g>
   </g>
   <g id="legend_1">
    <g id="patch_7">
     <path d="M 88.2 97.4565 
L 181.638 97.4565 
L 181.638 72 
L 88.2 72 
z
" style="fill:#ffffff;stroke:#000000;stroke-linejoin:miter;"/>
    </g>
    <g id="line2d_44">
     <path d="M 98.28 83.66175 
L 118.44 83.66175 
" style="fill:none;stroke:#0000ff;stroke-linecap:square;"/>
    </g>
    <g id="line2d_45"/>
    <g id="text_18">
     <!-- data1 -->
     <defs>
      <path d="M 45.40625 46.390625 
L 45.40625 75.984375 
L 54.390625 75.984375 
L 54.390625 0 
L 45.40625 0 
L 45.40625 8.203125 
Q 42.578125 3.328125 38.25 0.953125 
Q 33.9375 -1.421875 27.875 -1.421875 
Q 17.96875 -1.421875 11.734375 6.484375 
Q 5.515625 14.40625 5.515625 27.296875 
Q 5.515625 40.1875 11.734375 48.09375 
Q 17.96875 56 27.875 56 
Q 33.9375 56 38.25 53.625 
Q 42.578125 51.265625 45.40625 46.390625 
M 14.796875 27.296875 
Q 14.796875 17.390625 18.875 11.75 
Q 22.953125 6.109375 30.078125 6.109375 
Q 37.203125 6.109375 41.296875 11.75 
Q 45.40625 17.390625 45.40625 27.296875 
Q 45.40625 37.203125 41.296875 42.84375 
Q 37.203125 48.484375 30.078125 48.484375 
Q 22.953125 48.484375 18.875 42.84375 
Q 14.796875 37.203125 14.796875 27.296875 
" id="BitstreamVeraSans-Roman-64"/>
     </defs>
     <g transform="translate(134.28 88.70175)scale(0.144 -0.144)">
      <use xlink:href="#BitstreamVeraSans-Roman-64"/>
      <use x="63.4765625" xlink:href="#BitstreamVeraSans-Roman-61"/>
      <use x="124.755859375" xlink:href="#BitstreamVeraSans-Roman-74"/>
      <use x="163.96484375" xlink:href="#BitstreamVeraSans-Roman-61"/>
      <use x="225.244140625" xlink:href="#BitstreamVeraSans-Roman-31"/>
     </g>
    </g>
   </g>
  </g>
 </g>
 <defs>
  <clipPath id="pb5453197ca">
   <rect height="518.4" width="502.2" x="81.0" y="64.8"/>
  </clipPath>
 </defs>
</svg>
