<?xml version="1.0" encoding="utf-8" standalone="no"?>
<!DOCTYPE svg PUBLIC "-//W3C//DTD SVG 1.1//EN"
  "http://www.w3.org/Graphics/SVG/1.1/DTD/svg11.dtd">
<!-- Created with matplotlib (http://matplotlib.org/) -->
<svg height="648pt" version="1.1" viewBox="0 0 648 648" width="648pt" xmlns="http://www.w3.org/2000/svg" xmlns:xlink="http://www.w3.org/1999/xlink">
 <defs>
  <style type="text/css">
*{stroke-linecap:butt;stroke-linejoin:round;stroke-miterlimit:100000;}
  </style>
 </defs>
 <g id="figure_1">
  <g id="patch_1">
   <path d="M 0 648 
L 648 648 
L 648 0 
L 0 0 
z
" style="fill:#ffffff;"/>
  </g>
  <g id="axes_1">
   <g id="patch_2">
    <path d="M 81 583.2 
L 583.2 583.2 
L 583.2 64.8 
L 81 64.8 
z
" style="fill:#ffffff;"/>
   </g>
   <g id="line2d_1">
    <path clip-path="url(#pce534a43d1)" d="M 332.33436 583.2 
L 339.169695 583.088446 
L 344.463746 582.857156 
L 353.700208 582.150508 
L 369.752612 579.995312 
L 397.295771 573.45935 
L 442.699506 553.978742 
L 508.371363 498.88656 
L 564.416046 365.609376 
L 498.749211 159.20928 
L 277.235403 76.618656 
L 154.928025 137.554848 
L 176.78628 128.024064 
L 280.254044 79.677216 
L 389.061198 78.633504 
L 424.259559 92.515392 
L 391.317917 85.329504 
L 332.24216 79.487136 
L 292.822854 84.5856 
L 291.195392 87.676128 
L 315.017081 87.239808 
L 341.111979 89.006688 
L 352.762433 92.187936 
L 348.05933 94.336704 
L 335.559681 96.214176 
L 325.382422 98.67312 
L 322.662825 101.197728 
L 326.318222 103.488192 
L 331.979356 105.795936 
L 335.712182 108.202176 
L 336.108209 110.582496 
L 334.14844 112.914432 
L 331.764616 115.24896 
L 330.412884 117.5904 
L 330.449855 119.913696 
L 332.320806 124.518816 
L 332.826539 126.80928 
L 332.775049 129.08592 
L 332.007556 133.605504 
L 331.805627 135.849312 
L 331.823022 138.081888 
L 332.211706 144.712224 
L 332.161065 149.077152 
L 332.054959 155.543328 
L 332.094516 174.370752 
L 332.1 281.88864 
L 332.194797 463.775328 
L 332.371915 465.554304 
L 332.652352 466.72416 
L 333.227481 467.879328 
L 333.713744 468.448704 
L 334.412438 469.008576 
L 335.417416 469.552896 
L 336.864338 470.066976 
L 338.949129 470.523168 
L 341.954001 470.860128 
L 346.282965 470.955168 
L 352.505139 470.550816 
L 361.396172 469.118304 
L 373.928657 465.581952 
L 391.068659 457.818048 
L 412.984583 441.915264 
L 436.882356 411.749568 
L 453.028923 361.36368 
L 443.407608 294.77952 
L 397.134314 237.413376 
L 336.040989 216.501984 
L 295.089199 222.873984 
L 282.481301 230.399424 
L 288.983284 230.31216 
L 305.053015 227.147328 
L 322.703671 225.8496 
L 336.09434 227.1456 
L 342.94141 229.37904 
L 343.982722 231.319584 
L 341.34274 232.855776 
L 337.27148 234.328032 
L 333.472688 235.9368 
L 330.861223 237.661344 
L 329.638902 239.409216 
L 329.545761 241.130304 
L 330.132841 242.825472 
L 331.731161 246.194208 
L 332.269344 247.875552 
L 332.545064 249.54912 
L 332.603353 251.214912 
L 332.380757 254.518848 
L 332.051365 259.414272 
L 332.034098 264.23712 
L 332.107517 276.750432 
L 332.1 344.566656 
L 332.010868 430.311744 
L 331.830161 433.340064 
L 331.468734 435.570048 
L 330.977642 437.034528 
L 330.59956 437.757696 
L 330.090689 438.472224 
L 329.404734 439.174656 
L 328.47872 439.857216 
L 327.226969 440.508672 
L 325.533057 441.103104 
L 323.239267 441.600768 
L 320.133411 441.921312 
L 315.934182 441.923904 
L 310.279243 441.346752 
L 302.729586 439.721568 
L 292.825114 436.215456 
L 280.270449 429.411456 
L 265.410351 417.077856 
L 250.194193 396.268416 
L 239.499342 364.59936 
L 241.206822 323.764992 
L 261.418865 283.40064 
L 295.595584 257.229216 
L 328.895428 249.789312 
L 350.038751 252.796896 
L 358.112788 256.824 
L 357.128727 258.557184 
L 343.711199 259.020288 
L 336.833972 259.89984 
L 331.831336 261.339264 
L 328.981748 263.0016 
L 327.95829 264.657888 
L 328.182438 266.24592 
L 329.069499 267.791616 
L 331.145351 270.874368 
L 331.88871 272.426112 
L 332.353719 273.976992 
L 332.576017 275.52096 
L 332.559773 278.58384 
L 332.09451 286.107552 
L 332.06106 291.99312 
L 332.100321 315.734112 
L 332.186731 421.01424 
L 332.410256 425.019744 
L 332.782883 427.37328 
L 333.266803 428.918112 
L 334.108842 430.43616 
L 334.743162 431.178336 
L 335.584013 431.902368 
L 336.700286 432.597024 
L 338.184053 433.243296 
L 340.158025 433.808352 
L 342.784807 434.231712 
L 346.27719 434.41056 
L 350.907055 434.158272 
L 357.005939 433.155168 
L 364.937854 430.84224 
L 375.004118 426.286368 
L 387.19586 418.006656 
L 400.667375 403.906176 
L 412.869663 381.697056 
L 418.819059 350.542944 
L 412.263257 314.05104 
L 390.725489 281.632032 
L 360.748501 262.8072 
L 334.045297 258.291936 
L 317.58709 260.93232 
L 311.177176 264.218112 
L 311.666654 265.972896 
L 315.929746 266.677056 
L 321.542333 267.280128 
L 326.836233 268.264224 
L 330.900152 269.629344 
L 333.467373 271.188 
L 334.695102 272.782944 
L 334.937455 274.347648 
L 334.580893 275.87952 
L 332.704972 280.414656 
L 332.27873 281.922336 
L 332.007886 283.424832 
L 331.823477 286.409952 
L 331.994558 292.289472 
L 332.113187 299.47536 
L 332.099965 364.461984 
L 332.009139 412.867584 
L 331.807465 417.075264 
L 331.494107 419.547168 
L 331.104933 421.171488 
L 330.452098 422.771616 
L 329.972857 423.557856 
L 329.348773 424.332 
L 328.534698 425.087136 
L 327.471105 425.812032 
L 326.079685 426.490272 
L 324.257603 427.091616 
L 321.870772 427.56336 
L 318.746167 427.817376 
L 314.666127 427.704192 
L 309.368001 426.9672 
L 302.563023 425.176128 
L 294.000179 421.629408 
L 283.626317 415.228896 
L 271.923634 404.410752 
L 260.482681 387.336384 
L 252.624758 362.790144 
L 253.178349 332.1 
L 265.891459 300.971808 
L 289.010236 277.744896 
L 314.537062 267.000192 
L 334.325424 265.94352 
L 345.454921 268.632288 
L 349.268879 271.21392 
L 348.317377 272.745792 
L 344.868184 273.671136 
L 340.615471 274.569696 
L 336.672782 275.710176 
L 333.619758 277.087392 
L 331.614583 278.591616 
L 330.548897 280.128672 
L 330.19128 281.654496 
L 330.288774 283.15872 
L 331.036784 286.130016 
L 331.746112 289.077984 
L 332.122522 292.004352 
L 332.233619 294.903072 
L 332.131589 303.42816 
L 332.098011 318.407328 
L 332.018917 405.739584 
L 331.80407 410.985792 
L 331.516102 413.54928 
L 331.17083 415.233216 
L 330.608098 416.894688 
L 329.683606 418.520736 
L 329.014985 419.313024 
L 328.153327 420.082848 
L 327.041172 420.818112 
L 325.603817 421.498944 
L 323.744555 422.09424 
L 321.33911 422.546976 
L 318.230324 422.767296 
L 314.224275 422.603136 
L 309.094469 421.803936 
L 302.603199 419.96016 
L 294.565656 416.423808 
L 284.9959 410.215104 
L 274.395128 399.992256 
L 264.207833 384.252768 
L 257.266257 362.092032 
L 257.532088 334.703232 
L 268.075108 306.72432 
L 287.740674 284.953248 
L 310.362524 273.616704 
L 329.046038 271.206144 
L 340.6487 273.055968 
L 345.733726 275.547744 
L 346.27334 277.3656 
L 344.200676 278.57952 
L 337.726758 280.74384 
L 334.94534 282.049344 
L 332.91133 283.480992 
L 331.629349 284.969664 
L 330.972184 286.46784 
L 330.765152 287.954784 
L 330.839235 289.427904 
L 332.051583 298.099872 
L 332.16582 302.346432 
L 332.073889 404.160192 
L 331.919103 412.042464 
L 331.645126 415.431072 
L 331.368859 417.098592 
L 330.914448 418.745376 
L 330.161081 420.363648 
L 329.612654 421.157664 
L 328.902618 421.935264 
L 327.981818 422.687808 
L 326.785904 423.404064 
L 325.230808 424.05984 
L 323.20721 424.61712 
L 320.574092 425.012832 
L 317.152854 425.137248 
L 312.723701 424.808928 
L 307.033106 423.724608 
L 299.825531 421.38576 
L 290.932239 417.001824 
L 280.472836 409.389984 
L 269.236948 396.985536 
L 259.242079 378.209952 
L 254.114283 352.609632 
L 258.249649 322.717824 
L 273.731972 294.920352 
L 296.926749 276.317568 
L 319.903738 269.053056 
L 336.452107 269.29584 
L 345.196958 271.944864 
L 347.79668 274.228416 
L 346.529545 275.65056 
L 343.317725 276.63984 
L 339.561127 277.644672 
L 336.151164 278.850816 
L 333.530692 280.24272 
L 331.803588 281.73312 
L 330.866438 283.248576 
L 330.523653 284.756256 
L 330.566482 286.246656 
L 331.142648 289.191168 
L 331.728878 292.110624 
L 332.064093 295.007616 
L 332.195932 299.299968 
L 332.099791 363.229056 
L 332.000443 405.80352 
L 331.808681 410.184864 
L 331.528935 412.759584 
L 331.195094 414.45216 
L 330.65307 416.121408 
L 329.765933 417.75696 
L 329.12603 418.555296 
L 328.302883 419.332032 
L 327.242295 420.0768 
L 325.873917 420.77232 
L 324.106717 421.387488 
L 321.823733 421.873056 
L 318.876739 422.147808 
L 315.082116 422.073504 
L 310.222996 421.425504 
L 304.066359 419.83488 
L 296.415175 416.71584 
L 287.231945 411.176736 
L 276.888132 401.968224 
L 266.577966 387.618048 
L 258.782901 367.034112 
L 257.236376 340.831584 
L 265.370008 312.818976 
L 283.151236 289.485792 
L 305.420876 275.92272 
L 325.135181 271.874016 
L 338.246317 273.091392 
L 344.652154 275.586624 
L 346.124354 277.583328 
L 344.61541 278.921664 
L 338.459409 281.087712 
L 335.594634 282.354336 
L 333.413161 283.757472 
L 331.970955 285.23232 
L 331.171558 286.726176 
L 330.854234 288.213984 
L 330.852443 289.687104 
L 331.268714 292.60224 
L 331.897452 296.923968 
L 332.091987 299.77344 
L 332.157167 305.388576 
L 332.099985 334.341216 
L 331.993766 416.41776 
L 331.741691 420.537312 
L 331.337702 422.956512 
L 330.826027 424.54368 
L 329.953848 426.101472 
L 329.30632 426.862656 
L 328.456606 427.603968 
L 327.339864 428.314176 
L 325.870309 428.973408 
L 323.93478 429.549696 
L 321.384977 429.985152 
L 318.029026 430.178688 
L 313.624899 429.958368 
L 307.88174 429.028704 
L 300.485254 426.888576 
L 291.180577 422.717184 
L 279.978169 415.231488 
L 267.580776 402.63696 
L 256.076211 382.953312 
L 249.560249 355.265568 
L 253.412877 322.096608 
L 270.589456 290.896704 
L 296.940811 270.420768 
L 322.721834 263.220192 
L 340.511934 264.283776 
L 349.079884 267.406272 
L 350.710025 269.631936 
L 348.184378 270.768096 
L 343.768115 271.527552 
L 339.084631 272.454624 
L 335.123554 273.696192 
L 332.310657 275.158944 
L 330.661063 276.708096 
L 329.96062 278.260704 
L 329.91471 279.787392 
L 330.242756 281.293344 
L 331.623695 285.764544 
L 332.125243 288.723744 
L 332.275803 291.655296 
L 332.187341 297.431136 
L 332.093909 307.26432 
L 331.968517 410.78016 
L 331.773827 414.195552 
L 331.439618 416.709792 
L 331.03136 418.36176 
L 330.355759 419.986944 
L 329.864566 420.786144 
L 329.229157 421.57152 
L 328.405783 422.337024 
L 327.337135 423.07056 
L 325.948293 423.755712 
L 324.141586 424.36224 
L 321.790504 424.83744 
L 318.733445 425.094912 
L 314.768408 424.991232 
L 309.654757 424.279296 
L 303.131263 422.558208 
L 294.975953 419.175648 
L 285.149741 413.127648 
L 274.093222 402.99984 
L 263.222015 387.135936 
L 255.465452 364.398912 
L 255.122198 335.803104 
L 265.769675 306.163584 
L 286.457804 282.946176 
L 310.511845 270.985824 
L 330.270276 268.664256 
L 342.284449 270.779328 
L 347.258154 273.384288 
L 347.401281 275.151168 
L 344.833281 276.262272 
L 341.17986 277.222176 
L 337.5463 278.335872 
L 334.557984 279.656064 
L 332.449504 281.114496 
L 331.191629 282.624768 
L 330.617171 284.138496 
L 330.516287 285.635808 
L 330.694418 287.117568 
L 331.850135 292.966848 
L 332.114691 295.8552 
L 332.194447 300.135456 
L 332.099523 328.3632 
L 332.008821 405.438048 
L 331.834539 409.828896 
L 331.581132 412.409664 
L 331.279352 414.10656 
L 330.790212 415.780992 
L 329.990927 417.425184 
L 329.41503 418.229568 
L 328.674745 419.015808 
L 327.721519 419.776128 
L 326.492309 420.494976 
L 324.905349 421.14816 
L 322.855251 421.6968 
L 320.207486 422.07264 
L 316.79353 422.166816 
L 312.409575 421.794432 
L 306.825613 420.657408 
L 299.819505 418.269312 
L 291.264862 413.878464 
L 281.320466 406.384992 
L 270.77527 394.370208 
L 261.525834 376.464672 
L 256.857885 352.362528 
L 260.652257 324.41472 
L 274.732104 298.286496 
L 295.998181 280.301472 
L 317.533605 272.641248 
L 333.62601 272.232576 
L 342.687046 274.54032 
L 345.979971 276.831648 
L 345.504137 278.41104 
L 343.011969 279.537696 
L 339.801915 280.598688 
L 336.724609 281.794464 
L 334.236443 283.148352 
L 332.488943 284.600736 
L 331.437292 286.092 
L 330.938746 287.583264 
L 330.823876 289.062432 
L 331.162744 291.985344 
L 331.833643 296.315712 
L 332.064723 299.170368 
L 332.160108 303.401376 
L 332.019219 415.224576 
L 331.831734 419.373504 
L 331.534353 421.812576 
L 331.160158 423.414432 
L 330.525678 424.993824 
L 330.056347 425.77056 
L 329.441947 426.5352 
L 328.636293 427.281696 
L 327.578208 427.99968 
L 326.186746 428.671872 
L 324.355072 429.268896 
L 321.943005 429.738048 
L 318.768766 429.9912 
L 314.601511 429.871968 
L 309.16076 429.115968 
L 302.13473 427.274784 
L 293.247381 423.60192 
L 282.432336 416.924928 
L 270.20452 405.552096 
L 258.301543 387.492768 
L 250.379505 361.464768 
L 251.715022 329.077728 
L 266.165492 296.813376 
L 291.233224 273.703104 
L 317.821784 264.00384 
L 337.494892 263.907072 
L 347.835516 266.949216 
L 350.692281 269.439264 
L 348.86285 270.759456 
L 340.032408 272.4192 
L 335.891685 273.597696 
L 332.837136 275.02416 
L 330.956892 276.562944 
L 330.074552 278.116416 
L 329.906466 279.648288 
L 330.166815 281.157696 
L 331.8661 287.112384 
L 332.210782 290.059488 
L 332.275475 292.977216 
L 332.097194 315.301248 
L 332.099938 345.609504 
L 332.099938 345.609504 
" style="fill:none;stroke:#0000ff;stroke-linecap:square;"/>
   </g>
   <g id="patch_3">
    <path d="M 81 583.2 
L 81 64.8 
" style="fill:none;stroke:#000000;stroke-linecap:square;stroke-linejoin:miter;"/>
   </g>
   <g id="patch_4">
    <path d="M 81 64.8 
L 583.2 64.8 
" style="fill:none;stroke:#000000;stroke-linecap:square;stroke-linejoin:miter;"/>
   </g>
   <g id="patch_5">
    <path d="M 81 583.2 
L 583.2 583.2 
" style="fill:none;stroke:#000000;stroke-linecap:square;stroke-linejoin:miter;"/>
   </g>
   <g id="patch_6">
    <path d="M 583.2 583.2 
L 583.2 64.8 
" style="fill:none;stroke:#000000;stroke-linecap:square;stroke-linejoin:miter;"/>
   </g>
   <g id="matplotlib.axis_1">
    <g id="xtick_1">
     <g id="line2d_2">
      <path clip-path="url(#pce534a43d1)" d="M 81 583.2 
L 81 64.8 
" style="fill:none;stroke:#000000;stroke-dasharray:1.000000,3.000000;stroke-dashoffset:0.0;stroke-width:0.5;"/>
     </g>
     <g id="line2d_3">
      <defs>
       <path d="M 0 0 
L 0 -4 
" id="mf25795d271" style="stroke:#000000;stroke-width:0.5;"/>
      </defs>
      <g>
       <use style="stroke:#000000;stroke-width:0.5;" x="81.0" xlink:href="#mf25795d271" y="583.2"/>
      </g>
     </g>
     <g id="line2d_4">
      <defs>
       <path d="M 0 0 
L 0 4 
" id="m0cef6118a4" style="stroke:#000000;stroke-width:0.5;"/>
      </defs>
      <g>
       <use style="stroke:#000000;stroke-width:0.5;" x="81.0" xlink:href="#m0cef6118a4" y="64.8"/>
      </g>
     </g>
     <g id="text_1">
      <!-- −30 -->
      <defs>
       <path d="M 31.78125 66.40625 
Q 24.171875 66.40625 20.328125 58.90625 
Q 16.5 51.421875 16.5 36.375 
Q 16.5 21.390625 20.328125 13.890625 
Q 24.171875 6.390625 31.78125 6.390625 
Q 39.453125 6.390625 43.28125 13.890625 
Q 47.125 21.390625 47.125 36.375 
Q 47.125 51.421875 43.28125 58.90625 
Q 39.453125 66.40625 31.78125 66.40625 
M 31.78125 74.21875 
Q 44.046875 74.21875 50.515625 64.515625 
Q 56.984375 54.828125 56.984375 36.375 
Q 56.984375 17.96875 50.515625 8.265625 
Q 44.046875 -1.421875 31.78125 -1.421875 
Q 19.53125 -1.421875 13.0625 8.265625 
Q 6.59375 17.96875 6.59375 36.375 
Q 6.59375 54.828125 13.0625 64.515625 
Q 19.53125 74.21875 31.78125 74.21875 
" id="BitstreamVeraSans-Roman-30"/>
       <path d="M 10.59375 35.5 
L 73.1875 35.5 
L 73.1875 27.203125 
L 10.59375 27.203125 
z
" id="BitstreamVeraSans-Roman-2212"/>
       <path d="M 40.578125 39.3125 
Q 47.65625 37.796875 51.625 33 
Q 55.609375 28.21875 55.609375 21.1875 
Q 55.609375 10.40625 48.1875 4.484375 
Q 40.765625 -1.421875 27.09375 -1.421875 
Q 22.515625 -1.421875 17.65625 -0.515625 
Q 12.796875 0.390625 7.625 2.203125 
L 7.625 11.71875 
Q 11.71875 9.328125 16.59375 8.109375 
Q 21.484375 6.890625 26.8125 6.890625 
Q 36.078125 6.890625 40.9375 10.546875 
Q 45.796875 14.203125 45.796875 21.1875 
Q 45.796875 27.640625 41.28125 31.265625 
Q 36.765625 34.90625 28.71875 34.90625 
L 20.21875 34.90625 
L 20.21875 43.015625 
L 29.109375 43.015625 
Q 36.375 43.015625 40.234375 45.921875 
Q 44.09375 48.828125 44.09375 54.296875 
Q 44.09375 59.90625 40.109375 62.90625 
Q 36.140625 65.921875 28.71875 65.921875 
Q 24.65625 65.921875 20.015625 65.03125 
Q 15.375 64.15625 9.8125 62.3125 
L 9.8125 71.09375 
Q 15.4375 72.65625 20.34375 73.4375 
Q 25.25 74.21875 29.59375 74.21875 
Q 40.828125 74.21875 47.359375 69.109375 
Q 53.90625 64.015625 53.90625 55.328125 
Q 53.90625 49.265625 50.4375 45.09375 
Q 46.96875 40.921875 40.578125 39.3125 
" id="BitstreamVeraSans-Roman-33"/>
      </defs>
      <g transform="translate(68.3371875 596.318125)scale(0.12 -0.12)">
       <use xlink:href="#BitstreamVeraSans-Roman-2212"/>
       <use x="83.7890625" xlink:href="#BitstreamVeraSans-Roman-33"/>
       <use x="147.412109375" xlink:href="#BitstreamVeraSans-Roman-30"/>
      </g>
     </g>
    </g>
    <g id="xtick_2">
     <g id="line2d_5">
      <path clip-path="url(#pce534a43d1)" d="M 164.7 583.2 
L 164.7 64.8 
" style="fill:none;stroke:#000000;stroke-dasharray:1.000000,3.000000;stroke-dashoffset:0.0;stroke-width:0.5;"/>
     </g>
     <g id="line2d_6">
      <g>
       <use style="stroke:#000000;stroke-width:0.5;" x="164.7" xlink:href="#mf25795d271" y="583.2"/>
      </g>
     </g>
     <g id="line2d_7">
      <g>
       <use style="stroke:#000000;stroke-width:0.5;" x="164.7" xlink:href="#m0cef6118a4" y="64.8"/>
      </g>
     </g>
     <g id="text_2">
      <!-- −20 -->
      <defs>
       <path d="M 19.1875 8.296875 
L 53.609375 8.296875 
L 53.609375 0 
L 7.328125 0 
L 7.328125 8.296875 
Q 12.9375 14.109375 22.625 23.890625 
Q 32.328125 33.6875 34.8125 36.53125 
Q 39.546875 41.84375 41.421875 45.53125 
Q 43.3125 49.21875 43.3125 52.78125 
Q 43.3125 58.59375 39.234375 62.25 
Q 35.15625 65.921875 28.609375 65.921875 
Q 23.96875 65.921875 18.8125 64.3125 
Q 13.671875 62.703125 7.8125 59.421875 
L 7.8125 69.390625 
Q 13.765625 71.78125 18.9375 73 
Q 24.125 74.21875 28.421875 74.21875 
Q 39.75 74.21875 46.484375 68.546875 
Q 53.21875 62.890625 53.21875 53.421875 
Q 53.21875 48.921875 51.53125 44.890625 
Q 49.859375 40.875 45.40625 35.40625 
Q 44.1875 33.984375 37.640625 27.21875 
Q 31.109375 20.453125 19.1875 8.296875 
" id="BitstreamVeraSans-Roman-32"/>
      </defs>
      <g transform="translate(152.0371875 596.318125)scale(0.12 -0.12)">
       <use xlink:href="#BitstreamVeraSans-Roman-2212"/>
       <use x="83.7890625" xlink:href="#BitstreamVeraSans-Roman-32"/>
       <use x="147.412109375" xlink:href="#BitstreamVeraSans-Roman-30"/>
      </g>
     </g>
    </g>
    <g id="xtick_3">
     <g id="line2d_8">
      <path clip-path="url(#pce534a43d1)" d="M 248.4 583.2 
L 248.4 64.8 
" style="fill:none;stroke:#000000;stroke-dasharray:1.000000,3.000000;stroke-dashoffset:0.0;stroke-width:0.5;"/>
     </g>
     <g id="line2d_9">
      <g>
       <use style="stroke:#000000;stroke-width:0.5;" x="248.4" xlink:href="#mf25795d271" y="583.2"/>
      </g>
     </g>
     <g id="line2d_10">
      <g>
       <use style="stroke:#000000;stroke-width:0.5;" x="248.4" xlink:href="#m0cef6118a4" y="64.8"/>
      </g>
     </g>
     <g id="text_3">
      <!-- −10 -->
      <defs>
       <path d="M 12.40625 8.296875 
L 28.515625 8.296875 
L 28.515625 63.921875 
L 10.984375 60.40625 
L 10.984375 69.390625 
L 28.421875 72.90625 
L 38.28125 72.90625 
L 38.28125 8.296875 
L 54.390625 8.296875 
L 54.390625 0 
L 12.40625 0 
z
" id="BitstreamVeraSans-Roman-31"/>
      </defs>
      <g transform="translate(235.7371875 596.318125)scale(0.12 -0.12)">
       <use xlink:href="#BitstreamVeraSans-Roman-2212"/>
       <use x="83.7890625" xlink:href="#BitstreamVeraSans-Roman-31"/>
       <use x="147.412109375" xlink:href="#BitstreamVeraSans-Roman-30"/>
      </g>
     </g>
    </g>
    <g id="xtick_4">
     <g id="line2d_11">
      <path clip-path="url(#pce534a43d1)" d="M 332.1 583.2 
L 332.1 64.8 
" style="fill:none;stroke:#000000;stroke-dasharray:1.000000,3.000000;stroke-dashoffset:0.0;stroke-width:0.5;"/>
     </g>
     <g id="line2d_12">
      <g>
       <use style="stroke:#000000;stroke-width:0.5;" x="332.1" xlink:href="#mf25795d271" y="583.2"/>
      </g>
     </g>
     <g id="line2d_13">
      <g>
       <use style="stroke:#000000;stroke-width:0.5;" x="332.1" xlink:href="#m0cef6118a4" y="64.8"/>
      </g>
     </g>
     <g id="text_4">
      <!-- 0 -->
      <g transform="translate(328.2825 596.318125)scale(0.12 -0.12)">
       <use xlink:href="#BitstreamVeraSans-Roman-30"/>
      </g>
     </g>
    </g>
    <g id="xtick_5">
     <g id="line2d_14">
      <path clip-path="url(#pce534a43d1)" d="M 415.8 583.2 
L 415.8 64.8 
" style="fill:none;stroke:#000000;stroke-dasharray:1.000000,3.000000;stroke-dashoffset:0.0;stroke-width:0.5;"/>
     </g>
     <g id="line2d_15">
      <g>
       <use style="stroke:#000000;stroke-width:0.5;" x="415.8" xlink:href="#mf25795d271" y="583.2"/>
      </g>
     </g>
     <g id="line2d_16">
      <g>
       <use style="stroke:#000000;stroke-width:0.5;" x="415.8" xlink:href="#m0cef6118a4" y="64.8"/>
      </g>
     </g>
     <g id="text_5">
      <!-- 10 -->
      <g transform="translate(408.165 596.318125)scale(0.12 -0.12)">
       <use xlink:href="#BitstreamVeraSans-Roman-31"/>
       <use x="63.623046875" xlink:href="#BitstreamVeraSans-Roman-30"/>
      </g>
     </g>
    </g>
    <g id="xtick_6">
     <g id="line2d_17">
      <path clip-path="url(#pce534a43d1)" d="M 499.5 583.2 
L 499.5 64.8 
" style="fill:none;stroke:#000000;stroke-dasharray:1.000000,3.000000;stroke-dashoffset:0.0;stroke-width:0.5;"/>
     </g>
     <g id="line2d_18">
      <g>
       <use style="stroke:#000000;stroke-width:0.5;" x="499.5" xlink:href="#mf25795d271" y="583.2"/>
      </g>
     </g>
     <g id="line2d_19">
      <g>
       <use style="stroke:#000000;stroke-width:0.5;" x="499.5" xlink:href="#m0cef6118a4" y="64.8"/>
      </g>
     </g>
     <g id="text_6">
      <!-- 20 -->
      <g transform="translate(491.865 596.318125)scale(0.12 -0.12)">
       <use xlink:href="#BitstreamVeraSans-Roman-32"/>
       <use x="63.623046875" xlink:href="#BitstreamVeraSans-Roman-30"/>
      </g>
     </g>
    </g>
    <g id="xtick_7">
     <g id="line2d_20">
      <path clip-path="url(#pce534a43d1)" d="M 583.2 583.2 
L 583.2 64.8 
" style="fill:none;stroke:#000000;stroke-dasharray:1.000000,3.000000;stroke-dashoffset:0.0;stroke-width:0.5;"/>
     </g>
     <g id="line2d_21">
      <g>
       <use style="stroke:#000000;stroke-width:0.5;" x="583.2" xlink:href="#mf25795d271" y="583.2"/>
      </g>
     </g>
     <g id="line2d_22">
      <g>
       <use style="stroke:#000000;stroke-width:0.5;" x="583.2" xlink:href="#m0cef6118a4" y="64.8"/>
      </g>
     </g>
     <g id="text_7">
      <!-- 30 -->
      <g transform="translate(575.565 596.318125)scale(0.12 -0.12)">
       <use xlink:href="#BitstreamVeraSans-Roman-33"/>
       <use x="63.623046875" xlink:href="#BitstreamVeraSans-Roman-30"/>
      </g>
     </g>
    </g>
    <g id="text_8">
     <!-- x -->
     <defs>
      <path d="M 54.890625 54.6875 
L 35.109375 28.078125 
L 55.90625 0 
L 45.3125 0 
L 29.390625 21.484375 
L 13.484375 0 
L 2.875 0 
L 24.125 28.609375 
L 4.6875 54.6875 
L 15.28125 54.6875 
L 29.78125 35.203125 
L 44.28125 54.6875 
z
" id="BitstreamVeraSans-Roman-78"/>
     </defs>
     <g transform="translate(326.773125 617.4909375)scale(0.18 -0.18)">
      <use xlink:href="#BitstreamVeraSans-Roman-78"/>
     </g>
    </g>
   </g>
   <g id="matplotlib.axis_2">
    <g id="ytick_1">
     <g id="line2d_23">
      <path clip-path="url(#pce534a43d1)" d="M 81 583.2 
L 583.2 583.2 
" style="fill:none;stroke:#000000;stroke-dasharray:1.000000,3.000000;stroke-dashoffset:0.0;stroke-width:0.5;"/>
     </g>
     <g id="line2d_24">
      <defs>
       <path d="M 0 0 
L 4 0 
" id="m6229a8750e" style="stroke:#000000;stroke-width:0.5;"/>
      </defs>
      <g>
       <use style="stroke:#000000;stroke-width:0.5;" x="81.0" xlink:href="#m6229a8750e" y="583.2"/>
      </g>
     </g>
     <g id="line2d_25">
      <defs>
       <path d="M 0 0 
L -4 0 
" id="m0e11a7952d" style="stroke:#000000;stroke-width:0.5;"/>
      </defs>
      <g>
       <use style="stroke:#000000;stroke-width:0.5;" x="583.2" xlink:href="#m0e11a7952d" y="583.2"/>
      </g>
     </g>
     <g id="text_9">
      <!-- 0 -->
      <g transform="translate(69.365 586.51125)scale(0.12 -0.12)">
       <use xlink:href="#BitstreamVeraSans-Roman-30"/>
      </g>
     </g>
    </g>
    <g id="ytick_2">
     <g id="line2d_26">
      <path clip-path="url(#pce534a43d1)" d="M 81 496.8 
L 583.2 496.8 
" style="fill:none;stroke:#000000;stroke-dasharray:1.000000,3.000000;stroke-dashoffset:0.0;stroke-width:0.5;"/>
     </g>
     <g id="line2d_27">
      <g>
       <use style="stroke:#000000;stroke-width:0.5;" x="81.0" xlink:href="#m6229a8750e" y="496.8"/>
      </g>
     </g>
     <g id="line2d_28">
      <g>
       <use style="stroke:#000000;stroke-width:0.5;" x="583.2" xlink:href="#m0e11a7952d" y="496.8"/>
      </g>
     </g>
     <g id="text_10">
      <!-- 10 -->
      <g transform="translate(61.73 500.11125)scale(0.12 -0.12)">
       <use xlink:href="#BitstreamVeraSans-Roman-31"/>
       <use x="63.623046875" xlink:href="#BitstreamVeraSans-Roman-30"/>
      </g>
     </g>
    </g>
    <g id="ytick_3">
     <g id="line2d_29">
      <path clip-path="url(#pce534a43d1)" d="M 81 410.4 
L 583.2 410.4 
" style="fill:none;stroke:#000000;stroke-dasharray:1.000000,3.000000;stroke-dashoffset:0.0;stroke-width:0.5;"/>
     </g>
     <g id="line2d_30">
      <g>
       <use style="stroke:#000000;stroke-width:0.5;" x="81.0" xlink:href="#m6229a8750e" y="410.4"/>
      </g>
     </g>
     <g id="line2d_31">
      <g>
       <use style="stroke:#000000;stroke-width:0.5;" x="583.2" xlink:href="#m0e11a7952d" y="410.4"/>
      </g>
     </g>
     <g id="text_11">
      <!-- 20 -->
      <g transform="translate(61.73 413.71125)scale(0.12 -0.12)">
       <use xlink:href="#BitstreamVeraSans-Roman-32"/>
       <use x="63.623046875" xlink:href="#BitstreamVeraSans-Roman-30"/>
      </g>
     </g>
    </g>
    <g id="ytick_4">
     <g id="line2d_32">
      <path clip-path="url(#pce534a43d1)" d="M 81 324 
L 583.2 324 
" style="fill:none;stroke:#000000;stroke-dasharray:1.000000,3.000000;stroke-dashoffset:0.0;stroke-width:0.5;"/>
     </g>
     <g id="line2d_33">
      <g>
       <use style="stroke:#000000;stroke-width:0.5;" x="81.0" xlink:href="#m6229a8750e" y="324.0"/>
      </g>
     </g>
     <g id="line2d_34">
      <g>
       <use style="stroke:#000000;stroke-width:0.5;" x="583.2" xlink:href="#m0e11a7952d" y="324.0"/>
      </g>
     </g>
     <g id="text_12">
      <!-- 30 -->
      <g transform="translate(61.73 327.31125)scale(0.12 -0.12)">
       <use xlink:href="#BitstreamVeraSans-Roman-33"/>
       <use x="63.623046875" xlink:href="#BitstreamVeraSans-Roman-30"/>
      </g>
     </g>
    </g>
    <g id="ytick_5">
     <g id="line2d_35">
      <path clip-path="url(#pce534a43d1)" d="M 81 237.6 
L 583.2 237.6 
" style="fill:none;stroke:#000000;stroke-dasharray:1.000000,3.000000;stroke-dashoffset:0.0;stroke-width:0.5;"/>
     </g>
     <g id="line2d_36">
      <g>
       <use style="stroke:#000000;stroke-width:0.5;" x="81.0" xlink:href="#m6229a8750e" y="237.6"/>
      </g>
     </g>
     <g id="line2d_37">
      <g>
       <use style="stroke:#000000;stroke-width:0.5;" x="583.2" xlink:href="#m0e11a7952d" y="237.6"/>
      </g>
     </g>
     <g id="text_13">
      <!-- 40 -->
      <defs>
       <path d="M 37.796875 64.3125 
L 12.890625 25.390625 
L 37.796875 25.390625 
z
M 35.203125 72.90625 
L 47.609375 72.90625 
L 47.609375 25.390625 
L 58.015625 25.390625 
L 58.015625 17.1875 
L 47.609375 17.1875 
L 47.609375 0 
L 37.796875 0 
L 37.796875 17.1875 
L 4.890625 17.1875 
L 4.890625 26.703125 
z
" id="BitstreamVeraSans-Roman-34"/>
      </defs>
      <g transform="translate(61.73 240.91125)scale(0.12 -0.12)">
       <use xlink:href="#BitstreamVeraSans-Roman-34"/>
       <use x="63.623046875" xlink:href="#BitstreamVeraSans-Roman-30"/>
      </g>
     </g>
    </g>
    <g id="ytick_6">
     <g id="line2d_38">
      <path clip-path="url(#pce534a43d1)" d="M 81 151.2 
L 583.2 151.2 
" style="fill:none;stroke:#000000;stroke-dasharray:1.000000,3.000000;stroke-dashoffset:0.0;stroke-width:0.5;"/>
     </g>
     <g id="line2d_39">
      <g>
       <use style="stroke:#000000;stroke-width:0.5;" x="81.0" xlink:href="#m6229a8750e" y="151.2"/>
      </g>
     </g>
     <g id="line2d_40">
      <g>
       <use style="stroke:#000000;stroke-width:0.5;" x="583.2" xlink:href="#m0e11a7952d" y="151.2"/>
      </g>
     </g>
     <g id="text_14">
      <!-- 50 -->
      <defs>
       <path d="M 10.796875 72.90625 
L 49.515625 72.90625 
L 49.515625 64.59375 
L 19.828125 64.59375 
L 19.828125 46.734375 
Q 21.96875 47.46875 24.109375 47.828125 
Q 26.265625 48.1875 28.421875 48.1875 
Q 40.625 48.1875 47.75 41.5 
Q 54.890625 34.8125 54.890625 23.390625 
Q 54.890625 11.625 47.5625 5.09375 
Q 40.234375 -1.421875 26.90625 -1.421875 
Q 22.3125 -1.421875 17.546875 -0.640625 
Q 12.796875 0.140625 7.71875 1.703125 
L 7.71875 11.625 
Q 12.109375 9.234375 16.796875 8.0625 
Q 21.484375 6.890625 26.703125 6.890625 
Q 35.15625 6.890625 40.078125 11.328125 
Q 45.015625 15.765625 45.015625 23.390625 
Q 45.015625 31 40.078125 35.4375 
Q 35.15625 39.890625 26.703125 39.890625 
Q 22.75 39.890625 18.8125 39.015625 
Q 14.890625 38.140625 10.796875 36.28125 
z
" id="BitstreamVeraSans-Roman-35"/>
      </defs>
      <g transform="translate(61.73 154.51125)scale(0.12 -0.12)">
       <use xlink:href="#BitstreamVeraSans-Roman-35"/>
       <use x="63.623046875" xlink:href="#BitstreamVeraSans-Roman-30"/>
      </g>
     </g>
    </g>
    <g id="ytick_7">
     <g id="line2d_41">
      <path clip-path="url(#pce534a43d1)" d="M 81 64.8 
L 583.2 64.8 
" style="fill:none;stroke:#000000;stroke-dasharray:1.000000,3.000000;stroke-dashoffset:0.0;stroke-width:0.5;"/>
     </g>
     <g id="line2d_42">
      <g>
       <use style="stroke:#000000;stroke-width:0.5;" x="81.0" xlink:href="#m6229a8750e" y="64.8"/>
      </g>
     </g>
     <g id="line2d_43">
      <g>
       <use style="stroke:#000000;stroke-width:0.5;" x="583.2" xlink:href="#m0e11a7952d" y="64.8"/>
      </g>
     </g>
     <g id="text_15">
      <!-- 60 -->
      <defs>
       <path d="M 33.015625 40.375 
Q 26.375 40.375 22.484375 35.828125 
Q 18.609375 31.296875 18.609375 23.390625 
Q 18.609375 15.53125 22.484375 10.953125 
Q 26.375 6.390625 33.015625 6.390625 
Q 39.65625 6.390625 43.53125 10.953125 
Q 47.40625 15.53125 47.40625 23.390625 
Q 47.40625 31.296875 43.53125 35.828125 
Q 39.65625 40.375 33.015625 40.375 
M 52.59375 71.296875 
L 52.59375 62.3125 
Q 48.875 64.0625 45.09375 64.984375 
Q 41.3125 65.921875 37.59375 65.921875 
Q 27.828125 65.921875 22.671875 59.328125 
Q 17.53125 52.734375 16.796875 39.40625 
Q 19.671875 43.65625 24.015625 45.921875 
Q 28.375 48.1875 33.59375 48.1875 
Q 44.578125 48.1875 50.953125 41.515625 
Q 57.328125 34.859375 57.328125 23.390625 
Q 57.328125 12.15625 50.6875 5.359375 
Q 44.046875 -1.421875 33.015625 -1.421875 
Q 20.359375 -1.421875 13.671875 8.265625 
Q 6.984375 17.96875 6.984375 36.375 
Q 6.984375 53.65625 15.1875 63.9375 
Q 23.390625 74.21875 37.203125 74.21875 
Q 40.921875 74.21875 44.703125 73.484375 
Q 48.484375 72.75 52.59375 71.296875 
" id="BitstreamVeraSans-Roman-36"/>
      </defs>
      <g transform="translate(61.73 68.11125)scale(0.12 -0.12)">
       <use xlink:href="#BitstreamVeraSans-Roman-36"/>
       <use x="63.623046875" xlink:href="#BitstreamVeraSans-Roman-30"/>
      </g>
     </g>
    </g>
    <g id="text_16">
     <!-- y -->
     <defs>
      <path d="M 32.171875 -5.078125 
Q 28.375 -14.84375 24.75 -17.8125 
Q 21.140625 -20.796875 15.09375 -20.796875 
L 7.90625 -20.796875 
L 7.90625 -13.28125 
L 13.1875 -13.28125 
Q 16.890625 -13.28125 18.9375 -11.515625 
Q 21 -9.765625 23.484375 -3.21875 
L 25.09375 0.875 
L 2.984375 54.6875 
L 12.5 54.6875 
L 29.59375 11.921875 
L 46.6875 54.6875 
L 56.203125 54.6875 
z
" id="BitstreamVeraSans-Roman-79"/>
     </defs>
     <g transform="translate(52.9865625 329.326875)rotate(-90.0)scale(0.18 -0.18)">
      <use xlink:href="#BitstreamVeraSans-Roman-79"/>
     </g>
    </g>
   </g>
   <g id="text_17">
    <!-- Data -->
    <defs>
     <path d="M 18.3125 70.21875 
L 18.3125 54.6875 
L 36.8125 54.6875 
L 36.8125 47.703125 
L 18.3125 47.703125 
L 18.3125 18.015625 
Q 18.3125 11.328125 20.140625 9.421875 
Q 21.96875 7.515625 27.59375 7.515625 
L 36.8125 7.515625 
L 36.8125 0 
L 27.59375 0 
Q 17.1875 0 13.234375 3.875 
Q 9.28125 7.765625 9.28125 18.015625 
L 9.28125 47.703125 
L 2.6875 47.703125 
L 2.6875 54.6875 
L 9.28125 54.6875 
L 9.28125 70.21875 
z
" id="BitstreamVeraSans-Roman-74"/>
     <path d="M 19.671875 64.796875 
L 19.671875 8.109375 
L 31.59375 8.109375 
Q 46.6875 8.109375 53.6875 14.9375 
Q 60.6875 21.78125 60.6875 36.53125 
Q 60.6875 51.171875 53.6875 57.984375 
Q 46.6875 64.796875 31.59375 64.796875 
z
M 9.8125 72.90625 
L 30.078125 72.90625 
Q 51.265625 72.90625 61.171875 64.09375 
Q 71.09375 55.28125 71.09375 36.53125 
Q 71.09375 17.671875 61.125 8.828125 
Q 51.171875 0 30.078125 0 
L 9.8125 0 
z
" id="BitstreamVeraSans-Roman-44"/>
     <path d="M 34.28125 27.484375 
Q 23.390625 27.484375 19.1875 25 
Q 14.984375 22.515625 14.984375 16.5 
Q 14.984375 11.71875 18.140625 8.90625 
Q 21.296875 6.109375 26.703125 6.109375 
Q 34.1875 6.109375 38.703125 11.40625 
Q 43.21875 16.703125 43.21875 25.484375 
L 43.21875 27.484375 
z
M 52.203125 31.203125 
L 52.203125 0 
L 43.21875 0 
L 43.21875 8.296875 
Q 40.140625 3.328125 35.546875 0.953125 
Q 30.953125 -1.421875 24.3125 -1.421875 
Q 15.921875 -1.421875 10.953125 3.296875 
Q 6 8.015625 6 15.921875 
Q 6 25.140625 12.171875 29.828125 
Q 18.359375 34.515625 30.609375 34.515625 
L 43.21875 34.515625 
L 43.21875 35.40625 
Q 43.21875 41.609375 39.140625 45 
Q 35.0625 48.390625 27.6875 48.390625 
Q 23 48.390625 18.546875 47.265625 
Q 14.109375 46.140625 10.015625 43.890625 
L 10.015625 52.203125 
Q 14.9375 54.109375 19.578125 55.046875 
Q 24.21875 56 28.609375 56 
Q 40.484375 56 46.34375 49.84375 
Q 52.203125 43.703125 52.203125 31.203125 
" id="BitstreamVeraSans-Roman-61"/>
    </defs>
    <g transform="translate(305.83578125 59.8)scale(0.22 -0.22)">
     <use xlink:href="#BitstreamVeraSans-Roman-44"/>
     <use x="77.001953125" xlink:href="#BitstreamVeraSans-Roman-61"/>
     <use x="138.28125" xlink:href="#BitstreamVeraSans-Roman-74"/>
     <use x="177.490234375" xlink:href="#BitstreamVeraSans-Roman-61"/>
    </g>
   </g>
   <g id="legend_1">
    <g id="patch_7">
     <path d="M 88.2 97.4565 
L 181.638 97.4565 
L 181.638 72 
L 88.2 72 
z
" style="fill:#ffffff;stroke:#000000;stroke-linejoin:miter;"/>
    </g>
    <g id="line2d_44">
     <path d="M 98.28 83.66175 
L 118.44 83.66175 
" style="fill:none;stroke:#0000ff;stroke-linecap:square;"/>
    </g>
    <g id="line2d_45"/>
    <g id="text_18">
     <!-- data1 -->
     <defs>
      <path d="M 45.40625 46.390625 
L 45.40625 75.984375 
L 54.390625 75.984375 
L 54.390625 0 
L 45.40625 0 
L 45.40625 8.203125 
Q 42.578125 3.328125 38.25 0.953125 
Q 33.9375 -1.421875 27.875 -1.421875 
Q 17.96875 -1.421875 11.734375 6.484375 
Q 5.515625 14.40625 5.515625 27.296875 
Q 5.515625 40.1875 11.734375 48.09375 
Q 17.96875 56 27.875 56 
Q 33.9375 56 38.25 53.625 
Q 42.578125 51.265625 45.40625 46.390625 
M 14.796875 27.296875 
Q 14.796875 17.390625 18.875 11.75 
Q 22.953125 6.109375 30.078125 6.109375 
Q 37.203125 6.109375 41.296875 11.75 
Q 45.40625 17.390625 45.40625 27.296875 
Q 45.40625 37.203125 41.296875 42.84375 
Q 37.203125 48.484375 30.078125 48.484375 
Q 22.953125 48.484375 18.875 42.84375 
Q 14.796875 37.203125 14.796875 27.296875 
" id="BitstreamVeraSans-Roman-64"/>
     </defs>
     <g transform="translate(134.28 88.70175)scale(0.144 -0.144)">
      <use xlink:href="#BitstreamVeraSans-Roman-64"/>
      <use x="63.4765625" xlink:href="#BitstreamVeraSans-Roman-61"/>
      <use x="124.755859375" xlink:href="#BitstreamVeraSans-Roman-74"/>
      <use x="163.96484375" xlink:href="#BitstreamVeraSans-Roman-61"/>
      <use x="225.244140625" xlink:href="#BitstreamVeraSans-Roman-31"/>
     </g>
    </g>
   </g>
  </g>
 </g>
 <defs>
  <clipPath id="pce534a43d1">
   <rect height="518.4" width="502.2" x="81.0" y="64.8"/>
  </clipPath>
 </defs>
</svg>
