<?xml version="1.0" encoding="utf-8" standalone="no"?>
<!DOCTYPE svg PUBLIC "-//W3C//DTD SVG 1.1//EN"
  "http://www.w3.org/Graphics/SVG/1.1/DTD/svg11.dtd">
<!-- Created with matplotlib (http://matplotlib.org/) -->
<svg height="648pt" version="1.1" viewBox="0 0 648 648" width="648pt" xmlns="http://www.w3.org/2000/svg" xmlns:xlink="http://www.w3.org/1999/xlink">
 <defs>
  <style type="text/css">
*{stroke-linecap:butt;stroke-linejoin:round;stroke-miterlimit:100000;}
  </style>
 </defs>
 <g id="figure_1">
  <g id="patch_1">
   <path d="M 0 648 
L 648 648 
L 648 0 
L 0 0 
z
" style="fill:#ffffff;"/>
  </g>
  <g id="axes_1">
   <g id="patch_2">
    <path d="M 81 583.2 
L 583.2 583.2 
L 583.2 64.8 
L 81 64.8 
z
" style="fill:#ffffff;"/>
   </g>
   <g id="line2d_1">
    <path clip-path="url(#p2059d8b5c1)" d="M 305.2044 323.75808 
L 305.156346 322.782261 
L 305.653456 321.652884 
L 308.523741 316.702155 
L 327.26705 285.115507 
L 344.381134 256.609037 
L 373.628815 209.35152 
L 421.275096 139.657824 
L 488.011896 74.011104 
L 542.193696 122.157504 
L 504.652572 334.740125 
L 379.337155 461.636928 
L 271.771718 468.34416 
L 213.02492 447.423264 
L 192.235068 414.94896 
L 198.603076 378.755827 
L 219.669138 352.537747 
L 242.469018 341.027194 
L 259.35845 339.754349 
L 268.643236 343.583856 
L 271.414264 350.156822 
L 268.990535 359.342698 
L 261.906836 372.190637 
L 249.78172 390.24504 
L 231.594602 414.731232 
L 206.51998 444.42 
L 176.16132 470.69856 
L 148.867308 472.607136 
L 141.814188 430.18128 
L 167.825916 363.393648 
L 214.909733 318.497331 
L 258.638742 304.65841 
L 287.778283 304.700141 
L 304.212709 306.618566 
L 313.332005 306.376387 
L 319.5373 303.107184 
L 325.706548 296.411443 
L 333.84654 285.386198 
L 345.794436 268.373779 
L 363.662154 243.187402 
L 389.748766 208.611936 
L 424.96794 169.675776 
L 463.6764 148.855968 
L 485.621424 185.817024 
L 463.872816 277.766496 
L 403.958682 348.71809 
L 343.448158 369.82777 
L 302.812968 369.817142 
L 279.560729 368.673811 
L 265.449467 372.143376 
L 254.001204 381.10919 
L 241.222446 395.489261 
L 224.898379 414.643104 
L 204.439644 435.869856 
L 181.918764 451.708704 
L 163.876392 449.407008 
L 160.627716 420.665184 
L 178.244892 377.924573 
L 209.712967 345.547469 
L 240.877156 332.186106 
L 263.082877 331.076203 
L 275.404298 334.881734 
L 280.190822 340.474579 
L 279.732146 347.573981 
L 275.177527 357.201446 
L 266.499958 371.023546 
L 252.696488 391.108867 
L 232.084526 419.270688 
L 203.190282 454.427712 
L 167.613876 485.526528 
L 136.262088 483.525504 
L 132.404076 422.845056 
L 170.5032 340.358026 
L 229.104248 295.90151 
L 277.765643 286.867526 
L 307.9791 288.32328 
L 325.130245 288.325094 
L 336.274063 283.758163 
L 346.471848 273.973277 
L 358.977632 258.483658 
L 375.977437 236.920032 
L 398.65891 210.701952 
L 425.873016 186.880608 
L 451.04328 181.974816 
L 460.431072 213.253344 
L 442.103004 269.854848 
L 402.653743 314.421869 
L 362.287688 331.885011 
L 333.553813 333.572774 
L 317.043486 330.93608 
L 304.73965 327.509706 
L 302.704292 327.512048 
L 301.287742 328.407636 
L 299.77025 330.220774 
L 297.649281 333.259574 
L 289.221271 346.113216 
L 267.573326 379.624579 
L 246.161304 412.197984 
L 212.794913 459.888192 
L 165.193272 515.258496 
L 113.066028 534.5784 
L 95.528088 444.205728 
L 153.215244 297.859939 
L 247.812872 235.011456 
L 319.809604 231.963264 
L 360.465818 238.940064 
L 381.102556 244.080086 
L 391.099572 247.141411 
L 395.681087 249.079363 
L 397.509318 250.44673 
L 397.959178 251.424259 
L 397.797134 252.012211 
L 397.489453 252.17136 
L 397.325066 251.902656 
L 397.45787 251.28049 
L 397.921345 250.453642 
L 398.642616 249.624374 
L 399.466112 249.010416 
L 400.190731 248.793898 
L 400.620168 249.066749 
L 400.618717 249.792595 
L 400.157251 250.803734 
L 399.331076 251.842522 
L 398.339845 252.635242 
L 397.43555 252.967709 
L 396.855454 252.738749 
L 396.762268 251.980157 
L 397.205096 250.848749 
L 398.105485 249.599664 
L 399.267241 248.541178 
L 400.411364 247.968691 
L 401.234749 248.082653 
L 401.49009 248.911747 
L 401.064448 250.277904 
L 400.028242 251.834141 
L 398.627104 253.168243 
L 397.216033 253.925712 
L 396.159851 253.901606 
L 395.739342 253.077178 
L 396.087534 251.613043 
L 397.161014 249.820243 
L 398.742833 248.114707 
L 400.472633 246.946666 
L 401.911715 246.690749 
L 402.645596 247.513622 
L 402.41079 249.274282 
L 401.200153 251.530358 
L 399.290454 253.673424 
L 397.16771 255.130646 
L 395.380325 255.528518 
L 394.388536 254.758954 
L 394.460741 252.965981 
L 395.627742 250.505395 
L 397.677834 247.903891 
L 400.177897 245.798842 
L 402.529532 244.819498 
L 404.085013 245.388701 
L 404.328301 247.50887 
L 403.07414 250.669728 
L 400.58055 253.9944 
L 397.489007 256.565837 
L 394.611178 257.734051 
L 392.679047 257.243904 
L 392.172048 255.200458 
L 393.249323 251.987846 
L 395.74615 248.223658 
L 399.187782 244.735776 
L 402.819469 242.480304 
L 405.700758 242.304739 
L 406.924452 244.565914 
L 405.947952 248.809104 
L 402.881965 253.822118 
L 398.521753 258.136848 
L 394.054405 260.629315 
L 390.63208 260.803498 
L 389.060417 258.711754 
L 389.69743 254.7612 
L 392.477386 249.618586 
L 396.943841 244.242778 
L 402.241604 239.922 
L 407.131582 238.107082 
L 410.169557 239.876381 
L 410.164423 245.185402 
L 406.783055 252.527414 
L 400.870152 259.557437 
L 394.133195 264.279629 
L 388.39729 265.765536 
L 384.993155 264.025699 
L 384.571418 259.541107 
L 387.21154 252.992678 
L 392.547247 245.323814 
L 399.756272 237.985862 
L 407.433794 233.063136 
L 413.564652 232.831584 
L 415.937268 238.484045 
L 413.152513 248.732899 
L 405.667836 259.988141 
L 395.796704 268.531027 
L 386.488037 272.484605 
L 380.002068 271.836086 
L 377.449776 267.348643 
L 379.064182 259.796246 
L 384.592846 249.920726 
L 393.421968 238.889606 
L 404.349282 228.935808 
L 415.161425 223.62912 
L 422.517204 226.746432 
L 422.952444 239.220346 
L 415.134864 256.737773 
L 401.438084 272.203114 
L 386.615261 281.069136 
L 374.846148 283.002077 
L 368.198248 279.595066 
L 367.047652 272.206051 
L 371.081322 261.436291 
L 379.891919 247.629398 
L 392.937959 231.865632 
L 408.905352 217.305504 
L 424.643184 210.134304 
L 434.578932 217.517184 
L 432.695124 240.435821 
L 417.58002 268.663824 
L 395.083469 289.264954 
L 373.706935 298.023235 
L 358.695954 298.002586 
L 351.151682 292.907578 
L 350.215805 284.408928 
L 354.935257 272.47657 
L 364.980931 256.331606 
L 380.55047 235.528128 
L 401.599346 211.797504 
L 426.093984 192.229632 
L 447.323652 191.172096 
L 453.415896 220.758048 
L 435.740688 269.269315 
L 401.013446 307.047888 
L 365.846947 322.521091 
L 340.64923 324.087092 
L 326.347132 320.837328 
L 319.922543 316.622019 
L 318.433576 312.028416 
L 320.190606 306.35928 
L 324.698353 298.405642 
L 332.401097 286.521149 
L 344.56293 268.47409 
L 363.244324 241.554528 
L 390.982392 204.109632 
L 428.919696 161.646624 
L 470.627964 140.563296 
L 492.326352 187.27632 
L 463.728852 292.021978 
L 395.66803 363.62615 
L 331.663198 380.712182 
L 267.385169 378.283478 
L 252.982296 382.610304 
L 240.927041 392.215306 
L 227.66193 406.120867 
L 211.824774 422.21952 
L 194.233266 435.953664 
L 178.5384 439.67664 
L 171.104724 426.385728 
L 177.571944 398.532701 
L 197.01445 369.880128 
L 221.351396 352.257552 
L 242.08623 346.642762 
L 255.321767 348.626246 
L 261.015487 354.790109 
L 260.386621 364.058496 
L 254.321384 376.883539 
L 242.932381 394.275082 
L 225.818186 416.687328 
L 202.999 441.876384 
L 176.994972 461.157408 
L 155.895876 457.865568 
L 153.117036 420.75072 
L 176.2506 368.11247 
L 214.864535 332.207127 
L 250.811899 319.884085 
L 275.154984 319.813799 
L 288.549439 323.026609 
L 294.696278 326.264993 
L 296.708649 329.152404 
L 296.355681 332.235156 
L 294.325041 336.301373 
L 290.566498 342.329328 
L 274.758804 366.379027 
L 259.473622 389.35391 
L 235.699362 424.023552 
L 200.29549 470.974176 
L 153.754272 515.828736 
L 111.551616 509.37552 
L 112.781448 406.442362 
L 177.276204 290.658586 
L 259.385011 250.089379 
L 317.656505 249.429024 
L 350.557301 253.365581 
L 368.742298 253.320653 
L 380.507058 249.225466 
L 390.265474 242.744515 
L 399.60684 236.081952 
L 408.196692 231.869088 
L 414.426316 232.63632 
L 416.277648 239.438419 
L 412.625984 250.538573 
L 404.324842 261.989597 
L 394.019028 270.13081 
L 384.745403 273.40727 
L 378.650146 272.061504 
L 376.68353 266.938934 
L 378.966643 258.803683 
L 385.186558 248.404838 
L 394.669991 237.014208 
L 406.092139 227.107584 
L 417.017556 222.556032 
L 423.855288 227.17152 
L 423.118728 241.285478 
L 413.892644 259.645133 
L 399.18767 274.842374 
L 384.081829 282.843101 
L 372.625531 283.889923 
L 366.591208 279.770976 
L 366.148379 271.78105 
L 370.91381 260.409946 
L 380.485519 245.958422 
L 394.315661 229.62096 
L 410.969282 214.92864 
L 426.96558 208.661184 
L 436.269672 218.208384 
L 432.741996 243.486778 
L 415.701792 272.596838 
L 392.014804 292.483354 
L 370.461384 300.118003 
L 355.874818 299.311027 
L 348.902719 293.803114 
L 348.47239 285.069802 
L 353.60811 272.900707 
L 364.052419 256.376794 
L 380.11378 234.936288 
L 401.860825 210.279456 
L 427.27806 189.815616 
L 449.344728 188.889408 
L 455.409072 220.567104 
L 436.347792 271.787443 
L 399.7094 310.59815 
L 363.245886 325.766154 
L 337.490615 326.999203 
L 322.935966 323.866962 
L 316.187514 320.246559 
L 314.079836 316.743584 
L 314.756244 312.796253 
L 317.518456 307.473062 
L 322.508538 299.557613 
L 330.55501 287.350675 
L 343.208441 268.419571 
L 362.849818 239.65943 
L 392.442901 198.97488 
L 433.461816 152.484768 
L 478.5192 131.536224 
L 499.422996 190.696896 
L 462.274704 309.538627 
L 385.283761 380.011565 
L 318.070206 392.45688 
L 276.815927 389.322288 
L 253.932347 388.287562 
L 239.801332 392.245891 
L 228.328405 400.349779 
L 216.63306 410.731776 
L 204.217002 420.525216 
L 192.597768 425.638368 
L 184.950936 421.929216 
L 184.757868 408.480538 
L 193.243374 390.060922 
L 207.703051 374.198227 
L 223.063898 365.414371 
L 235.048734 363.762662 
L 241.668623 367.459978 
L 242.655502 375.117437 
L 238.378766 386.188646 
L 229.242521 400.408618 
L 215.748072 416.748672 
L 199.181498 431.979264 
L 182.769156 439.584192 
L 172.365804 431.84448 
L 174.399156 407.624918 
L 190.370232 377.970278 
L 213.972851 356.680627 
L 236.192969 347.88744 
L 251.662849 348.040195 
L 259.426415 353.165702 
L 260.510162 361.552118 
L 255.961012 373.288435 
L 246.116887 389.282717 
L 230.690866 410.239642 
L 209.489209 434.905632 
L 184.113936 456.751008 
L 160.863192 461.092608 
L 152.064648 433.124064 
L 168.251112 382.068403 
L 204.005966 340.225315 
L 241.562045 322.509099 
L 268.935851 320.251536 
L 284.769659 323.137246 
L 292.349084 326.667954 
L 295.013267 329.974284 
L 294.815534 333.513504 
L 292.61659 338.132534 
L 288.424001 344.917613 
L 281.582698 355.364928 
L 270.767318 371.651242 
L 253.848758 396.771955 
L 227.901424 433.714176 
L 190.335636 480.808224 
L 144.021636 517.497984 
L 109.387692 490.472064 
L 125.133336 377.97071 
L 195.843654 280.80553 
L 271.718932 253.71913 
L 322.251523 255.148272 
L 350.479739 257.853542 
L 366.748452 255.925699 
L 378.447145 249.65712 
L 389.38082 240.743491 
L 400.721166 231.666912 
L 411.626272 225.853056 
L 419.65578 227.004768 
L 421.754976 236.78352 
L 416.234124 252.372499 
L 404.524606 267.608707 
L 390.660314 277.507123 
L 378.798685 280.804406 
L 371.402395 278.605526 
L 369.215705 272.257114 
L 372.096212 262.52087 
L 379.656554 249.850483 
L 391.350672 235.227456 
L 405.996498 221.32224 
L 420.893424 213.383808 
L 431.232048 217.872288 
L 431.46864 236.8224 
L 419.447088 262.651075 
L 399.408304 283.484534 
L 378.990302 293.70505 
L 363.777437 294.963898 
L 355.563788 290.617027 
L 353.927174 282.535949 
L 358.033385 270.983318 
L 367.47229 255.457843 
L 382.246679 235.793376 
L 402.059362 213.912576 
L 424.72242 196.545312 
L 443.915388 196.324992 
L 449.152776 223.11504 
L 433.17612 266.499245 
L 401.835715 301.188672 
L 369.591239 316.301069 
L 346.070981 318.16762 
L 332.702528 314.673552 
L 327.148085 309.383712 
L 326.952562 302.786726 
L 330.786914 293.971162 
L 338.520794 281.355293 
L 351.029034 262.892304 
L 369.960858 236.48112 
L 397.113138 201.907296 
L 432.214128 166.840992 
L 467.259876 156.67344 
L 480.632904 204.704064 
L 451.289916 291.46729 
L 392.690876 348.480403 
L 338.75627 363.362285 
L 303.744104 362.641882 
L 283.80577 361.94904 
L 271.431896 365.709082 
L 260.915382 374.756458 
L 248.621749 389.424499 
L 232.242106 409.874256 
L 210.604316 434.62224 
L 184.792464 457.137216 
L 160.812972 462.547584 
L 151.085916 435.116448 
L 166.771296 383.159117 
L 202.904474 339.88153 
L 241.308155 321.396284 
L 269.438386 318.920388 
L 285.795151 321.690917 
L 293.767353 324.983249 
L 296.837402 327.832116 
L 297.18796 330.608866 
L 295.81182 334.022314 
L 292.88722 338.92871 
L 280.228766 358.30728 
L 267.9098 376.96536 
L 248.542848 405.827194 
L 218.847092 447.714432 
L 176.632272 497.805696 
L 128.299428 524.703744 
L 103.00194 466.208352 
L 140.15916 336.505104 
L 222.75778 258.825283 
L 295.148593 246.190838 
L 363.045118 252.694858 
L 376.944563 250.762176 
L 386.962114 245.791843 
L 395.855071 239.735894 
L 404.135233 234.886176 
L 410.851433 233.611776 
L 414.32197 237.478176 
L 413.15575 246.017866 
L 407.345407 256.467082 
L 398.623198 265.305715 
L 389.650669 270.246154 
L 382.776332 270.790301 
L 379.36606 267.467357 
L 379.872054 261.021744 
L 384.172783 252.193478 
L 391.757231 242.017373 
L 401.606154 232.358112 
L 411.860966 226.236672 
L 419.6502 227.137824 
L 421.741584 236.664288 
L 416.336796 252.065693 
L 404.767224 267.246605 
L 390.985294 277.201786 
L 379.129356 280.59791 
L 371.684185 278.49433 
L 369.420826 272.230416 
L 372.212053 262.578154 
L 379.673294 250.001165 
L 391.257598 235.477152 
L 405.790819 221.64192 
L 420.603264 213.674112 
L 430.945236 217.967328 
L 431.320212 236.607264 
L 419.535252 262.207411 
L 399.709735 283.011926 
L 379.399093 293.324803 
L 364.195602 294.682493 
L 355.943117 290.399213 
L 354.256841 282.355546 
L 358.316068 270.836352 
L 367.705868 255.364186 
L 382.413632 235.79856 
L 402.120184 214.081056 
L 424.62198 196.912512 
L 443.630808 196.78464 
L 448.775568 223.363008 
L 432.921672 266.315904 
L 401.862164 300.715891 
L 369.877493 315.770547 
L 346.516934 317.652468 
L 333.24044 314.138218 
L 327.765902 308.761891 
L 327.680528 302.003165 
L 331.685518 292.93704 
L 339.676859 279.963216 
L 352.553044 261.033494 
L 371.961511 234.137952 
L 399.594787 199.442304 
L 434.787624 165.599424 
L 468.689472 159.07968 
L 479.176524 210.964608 
L 447.169644 296.364874 
L 388.664906 349.280381 
L 336.5159 362.237357 
L 284.12941 360.741859 
L 272.217002 364.681526 
L 261.891101 373.858243 
L 249.64155 388.67472 
L 233.182001 409.419187 
L 211.275479 434.776032 
L 184.887324 458.294976 
L 160.003872 464.685984 
L 149.452092 437.009472 
L 165.199968 383.177866 
L 202.419461 338.178931 
L 242.091029 319.154144 
L 271.097543 316.652138 
L 287.992444 319.300013 
L 296.412954 322.170108 
L 300.056772 324.21328 
L 301.283992 325.673404 
L 301.283602 327.018764 
L 300.51441 328.691123 
L 296.535837 334.998029 
L 258.90223 393.373843 
L 232.077272 433.5336 
L 191.35566 488.227392 
L 138.063312 536.15952 
L 95.0058 508.366368 
L 113.147496 367.038605 
L 200.199737 251.587469 
L 289.430856 227.25792 
L 345.674466 232.874784 
L 375.135973 240.019632 
L 389.216545 245.231366 
L 395.104561 249.158938 
L 396.718744 252.184579 
L 396.290646 254.237702 
L 395.21538 255.134794 
L 394.393334 254.807597 
L 394.347913 253.381219 
L 395.276537 251.172403 
L 397.08814 248.662829 
L 399.443458 246.453149 
L 401.812837 245.168813 
L 403.577791 245.289859 
L 404.192819 246.943382 
L 403.379813 249.77281 
L 401.267671 253.0116 
L 398.383927 255.76007 
L 395.485229 257.300755 
L 393.317399 257.276131 
L 392.421809 255.694838 
L 393.041747 252.859277 
L 395.103445 249.309446 
L 398.227687 245.796077 
L 401.75302 243.220838 
L 404.807958 242.45257 
L 406.487203 243.991613 
L 406.1466 247.626288 
L 403.706466 252.368266 
L 399.761741 256.82521 
L 395.382334 259.783978 
L 391.719956 260.587152 
L 389.663503 259.146778 
L 389.68348 255.772685 
L 391.827427 251.047382 
L 395.754073 245.824243 
L 400.737683 241.269149 
L 405.672746 238.76303 
L 409.1954 239.488272 
L 410.051149 243.739843 
L 407.656771 250.442755 
L 402.515024 257.485046 
L 396.087311 262.771603 
L 390.158561 265.097491 
L 386.178347 264.241786 
L 384.962688 260.568662 
L 386.733334 254.696486 
L 391.246326 247.4712 
L 397.821686 240.16271 
L 405.249894 234.631296 
L 411.726712 233.074368 
L 415.120691 237.015072 
L 413.799124 245.906237 
L 407.680207 256.795661 
L 398.562599 265.961491 
L 389.228152 271.036973 
L 382.107848 271.561421 
L 378.586534 268.125811 
L 379.102237 261.502387 
L 383.51903 252.42313 
L 391.325339 241.905744 
L 401.505268 231.8328 
L 412.173335 225.334656 
L 420.356628 226.115712 
L 422.643312 235.97136 
L 417.0834 252.062323 
L 405.041872 267.92303 
L 390.68375 278.268307 
L 378.352062 281.774765 
L 370.606464 279.639648 
L 368.196685 273.29184 
L 370.95566 263.506781 
L 378.490223 250.68623 
L 390.290472 235.71216 
L 405.252461 221.155488 
L 420.747228 212.315904 
L 431.904996 216.071712 
L 432.843552 235.115136 
L 420.951456 261.96601 
L 400.367952 283.991789 
L 379.09197 294.954307 
L 363.087749 296.541734 
L 354.27771 292.378118 
L 352.190455 284.5044 
L 355.906177 273.2184 
L 364.971668 257.940115 
L 379.438488 238.271846 
L 399.212446 215.67168 
L 422.519436 196.267104 
L 443.495772 192.805056 
L 451.407096 217.385856 
L 437.3667 262.224086 
L 405.747742 300.456346 
L 371.636755 318.016187 
L 346.10089 320.848655 
L 331.197268 317.779727 
L 324.504058 313.028064 
L 323.26407 307.38096 
L 325.848503 300.107549 
L 331.855708 289.808928 
L 341.906515 274.582051 
L 357.486322 252.088502 
L 380.690752 220.394304 
L 413.108654 181.603296 
L 451.960632 151.362432 
L 482.164056 166.633632 
L 475.848612 247.216838 
L 424.575108 332.066339 
L 360.818809 366.552605 
L 313.65579 370.103904 
L 285.888114 368.26583 
L 269.778877 370.066406 
L 258.070363 377.264909 
L 246.061645 389.948602 
L 231.026893 407.78087 
L 211.77634 429.043392 
L 189.287712 448.150752 
L 168.476544 453.580128 
L 158.999472 433.349568 
L 169.814628 392.020992 
L 198.511675 353.65127 
L 231.530879 334.156234 
L 257.366056 329.970525 
L 272.920752 332.675338 
L 280.023088 337.716173 
L 281.24946 344.064672 
L 278.201552 352.406074 
L 271.258693 364.204685 
L 259.747711 381.418934 
L 242.167028 406.179706 
L 216.695333 439.272288 
L 182.98566 475.120512 
L 147.07836 492.200064 
L 128.0115 456.04512 
L 149.135148 372.223814 
L 204.426475 307.175846 
L 260.531143 286.507498 
L 298.718286 285.954106 
L 320.679972 287.209238 
L 333.810047 284.48928 
L 344.185945 276.621091 
L 355.750384 263.216995 
L 371.039918 243.917914 
L 391.574988 219.454272 
L 417.08898 194.662656 
L 443.077272 182.628864 
L 458.223624 201.53664 
L 449.075772 251.55697 
L 415.638738 301.132339 
L 375.162646 325.878206 
L 343.34582 331.044443 
L 323.952754 328.939885 
L 313.987487 325.863916 
L 309.587155 323.471583 
L 308.099326 321.65945 
L 308.137449 319.925255 
L 309.159303 317.738627 
L 311.131811 314.520365 
L 341.389138 267.833606 
L 362.84926 235.331136 
L 396.146124 188.021952 
L 443.373012 133.649568 
L 494.621964 115.648128 
L 511.302816 205.196544 
L 454.25736 348.458112 
L 361.258736 410.365699 
L 290.315956 413.716032 
L 250.081477 407.199917 
L 229.38894 402.816499 
L 218.874434 400.854182 
L 210.357457 399.827923 
L 208.771063 399.376915 
L 208.144429 398.608387 
L 208.251119 397.56649 
L 208.893154 396.452362 
L 209.828585 395.529696 
L 210.778189 395.032205 
L 211.474127 395.09545 
L 211.716634 395.72401 
L 211.41643 396.791482 
L 210.614695 398.062166 
L 209.478384 399.231418 
L 208.272992 399.985603 
L 207.308099 400.082717 
L 206.861364 399.436445 
L 207.095054 398.168266 
L 207.992988 396.591898 
L 209.350937 395.122925 
L 210.828298 394.152048 
L 212.044849 393.937949 
L 212.681304 394.55424 
L 212.554638 395.88696 
L 211.656593 397.659715 
L 210.159367 399.473424 
L 208.393186 400.869302 
L 206.791614 401.428483 
L 205.798151 400.905245 
L 205.739784 399.347453 
L 206.707021 397.127923 
L 208.496527 394.841002 
L 210.659335 393.103066 
L 212.636552 392.364518 
L 213.919394 392.812934 
L 214.171499 394.370467 
L 213.290417 396.73247 
L 211.42201 399.40871 
L 208.946164 401.773565 
L 206.433043 403.164346 
L 204.545999 403.062307 
L 203.873609 401.321174 
L 204.721434 398.31575 
L 206.958344 394.866058 
L 210.023104 391.936406 
L 213.108062 390.290486 
L 215.419968 390.302842 
L 216.385866 391.960598 
L 215.748965 394.946755 
L 213.583813 398.700835 
L 210.283801 402.439536 
L 206.539956 405.209088 
L 203.273201 406.073261 
L 201.45267 404.474861 
L 201.779993 400.621162 
L 204.354047 395.567798 
L 208.544069 390.813638 
L 213.20482 387.657533 
L 217.107248 386.788781 
L 219.310232 388.28713 
L 219.321058 391.823136 
L 217.088723 396.796752 
L 212.962424 402.33119 
L 207.689994 407.21063 
L 202.426603 409.961088 
L 198.621936 409.282243 
L 197.637401 404.807501 
L 200.129875 397.666368 
L 205.580308 390.140928 
L 212.422615 384.494947 
L 218.741854 382.002653 
L 222.997943 382.867258 
L 224.338594 386.685014 
L 222.537704 392.818032 
L 217.842134 400.418726 
L 210.935768 408.199824 
L 203.053126 414.217152 
L 196.080692 416.090304 
L 192.30984 412.077024 
L 193.557193 402.655104 
L 199.984126 390.994301 
L 209.681161 381.160598 
L 219.645367 375.710486 
L 227.26854 375.081754 
L 231.096978 378.588816 
L 230.694995 385.409405 
L 226.209568 394.82951 
L 218.138432 405.886032 
L 207.46445 416.716704 
L 196.07355 424.053792 
L 187.067988 423.808416 
L 184.178664 413.707392 
L 189.719604 396.54887 
L 202.401605 379.394064 
L 217.747721 368.146253 
L 231.017742 364.236394 
L 239.45247 366.257635 
L 242.298828 372.602592 
L 239.782471 382.464202 
L 232.31498 395.544816 
L 220.335948 411.172416 
L 204.785269 427.004352 
L 188.115912 437.70672 
L 175.270752 435.602016 
L 172.791 416.555136 
L 184.288032 387.645696 
L 205.931848 363.071981 
L 228.988966 350.505792 
L 246.656696 348.222672 
L 256.719222 352.005869 
L 259.753514 359.42953 
L 256.876132 370.092586 
L 248.658354 384.69384 
L 234.993827 404.045626 
L 215.615268 427.620384 
L 191.449404 450.759168 
L 167.167476 461.287008 
L 153.398268 443.144736 
L 162.174492 396.941213 
L 193.25777 350.865994 
L 231.101888 327.05367 
L 261.223733 321.681784 
L 279.699782 323.833175 
L 288.952092 327.610691 
L 292.387586 331.464856 
L 292.322524 335.691907 
L 289.795788 341.202845 
L 284.862175 349.238045 
L 276.800861 361.494922 
L 264.137832 380.347402 
L 244.589195 408.743885 
L 215.362717 448.48512 
L 175.254012 493.20144 
L 131.742288 512.52048 
L 111.910968 455.489568 
L 147.51918 342.060883 
L 221.424494 273.323981 
L 286.651235 260.196451 
L 327.084919 262.828454 
L 349.689053 263.541859 
L 363.858012 259.057613 
L 375.737944 249.91753 
L 388.393272 237.723466 
L 402.539242 225.271584 
L 416.69838 217.228608 
L 427.174272 219.33072 
L 429.217668 234.245088 
L 420.32538 256.879469 
L 403.236407 277.099315 
L 384.398327 288.471542 
L 369.402523 291.117456 
L 360.67172 287.746646 
L 358.303903 280.301299 
L 361.667416 269.336966 
L 370.307153 254.671085 
L 384.032837 236.441376 
L 402.296958 216.7128 
L 422.81406 201.674016 
L 439.801812 202.029984 
L 444.304872 225.472032 
L 430.3917 263.221402 
L 402.883304 294.496387 
L 373.937501 309.174192 
L 352.308863 311.438218 
L 339.939565 307.818058 
L 335.237188 301.550861 
L 336.268706 293.084352 
L 342.036529 281.441866 
L 352.642547 265.004525 
L 369.0473 242.11967 
L 392.455735 212.618304 
L 422.619876 181.961856 
L 453.874572 168.00912 
L 470.60676 197.004096 
L 454.456008 265.335178 
L 408.864506 323.432491 
L 359.69098 345.847277 
L 324.443236 348.103613 
L 303.856924 346.236163 
L 292.337255 346.407235 
L 284.646341 350.104205 
L 277.231525 357.840461 
L 267.661379 370.517674 
L 253.868288 389.676701 
L 233.752612 416.900736 
L 205.624501 451.325952 
L 170.658324 482.994144 
L 138.710592 484.590816 
L 132.035796 428.937984 
L 166.706568 346.782384 
L 224.202218 299.124576 
L 273.693582 288.228845 
L 304.963645 289.414253 
L 322.698816 289.797437 
L 333.923544 285.839971 
L 343.815433 276.792336 
L 355.727617 262.12248 
L 371.955596 241.25567 
L 393.950059 214.958016 
L 421.225992 188.923968 
L 448.368228 178.517952 
L 462.226716 203.736384 
L 448.524468 260.522179 
L 410.098133 310.907808 
L 367.347632 332.849693 
L 335.569979 336.111034 
L 316.792498 333.805709 
L 306.998973 331.710785 
L 301.966281 331.21002 
L 298.871591 332.35024 
L 296.062217 335.14249 
L 292.477871 339.972768 
L 287.170175 347.759395 
L 266.011931 379.590192 
L 245.790457 409.527619 
L 215.018096 452.346336 
L 171.980784 501.537312 
L 124.725996 522.23616 
L 104.56992 454.207392 
L 147.68658 326.428091 
L 230.332072 257.547168 
L 299.32173 248.066064 
L 340.556044 252.226829 
L 363.044783 253.878624 
L 376.503408 251.141213 
L 386.69963 245.316038 
L 396.150253 238.429958 
L 405.158382 232.975008 
L 412.512152 231.639264 
L 416.21292 236.227104 
L 414.636124 246.111869 
L 407.833434 257.941325 
L 397.902038 267.632554 
L 387.921985 272.77128 
L 380.46465 273.06288 
L 376.905503 269.25169 
L 377.619185 262.16041 
L 382.42535 252.499075 
L 390.801712 241.263446 
L 401.71954 230.409792 
L 413.203961 223.343136 
L 422.036208 224.220096 
L 424.434492 235.112544 
L 418.231764 252.782208 
L 405.01319 269.907206 
L 389.466418 280.758269 
L 376.312014 284.21496 
L 368.166776 281.82721 
L 365.665486 275.190739 
L 368.533048 265.056538 
L 376.354757 251.69089 
L 388.692472 235.79856 
L 404.56679 219.861216 
L 421.397856 209.473344 
L 434.030976 212.49648 
L 435.805416 232.728768 
L 423.364248 262.254067 
L 401.052172 286.567459 
L 377.848634 298.527379 
L 360.394618 300.339619 
L 350.655062 296.29705 
L 347.916956 288.728928 
L 351.038074 277.938605 
L 359.476261 263.161008 
L 373.384188 243.54216 
L 393.070428 219.612384 
L 417.606804 196.163424 
L 442.192284 185.762592 
L 455.882256 204.876 
L 446.412996 252.386842 
L 414.392166 298.928448 
L 375.964268 322.426241 
L 345.693103 327.467638 
L 327.244061 325.247556 
L 317.987622 321.6315 
L 314.419301 318.128455 
L 314.173246 314.464464 
L 316.153922 309.814589 
L 320.212926 303.089386 
L 326.919863 292.810637 
L 337.532018 276.85489 
L 354.101605 252.314957 
L 379.461924 216.268704 
L 416.166048 170.12592 
L 461.68434 133.011936 
L 496.898604 155.79216 
L 484.269948 263.406038 
L 416.587896 361.848902 
L 341.200868 391.545965 
L 290.016421 390.916886 
L 261.205207 388.263974 
L 244.58116 390.254544 
L 232.579138 396.87745 
L 209.036002 416.933568 
L 196.893587 424.31472 
L 187.350336 424.363104 
L 183.985596 414.505728 
L 189.180576 397.289059 
L 201.764704 379.789171 
L 217.259694 368.13623 
L 230.811282 363.923885 
L 239.544317 365.754528 
L 242.651261 371.968589 
L 240.351408 381.725395 
L 233.060134 394.73879 
L 221.200625 410.403456 
L 205.653406 426.503232 
L 188.76654 437.81904 
L 175.397976 436.571424 
L 172.190592 418.09824 
L 183.134088 388.955952 
L 204.733264 363.591418 
L 228.185446 350.31528 
L 246.389303 347.629018 
L 256.930927 351.192931 
L 260.351356 358.42945 
L 257.809889 368.859398 
L 249.927581 383.173286 
L 236.61437 402.25801 
L 217.541149 425.816352 
L 193.421041 449.662752 
L 168.517836 462.11472 
L 153.1494 446.491008 
L 159.959232 401.000285 
L 190.171584 353.039213 
L 228.661866 327.131922 
L 260.017895 320.772139 
L 279.555149 322.622101 
L 289.542791 326.241924 
L 293.516331 329.821191 
L 293.965041 333.538646 
L 292.084704 338.203469 
L 288.085853 344.90543 
L 281.436725 355.115923 
L 270.908939 370.937405 
L 254.482088 395.241984 
L 229.360259 430.926048 
L 193.005778 476.68176 
L 147.813804 513.946944 
L 112.383036 492.849792 
L 123.766236 387.264326 
L 190.190556 288.373219 
L 265.349362 257.590195 
L 316.79752 257.871859 
L 345.849901 260.508614 
L 362.613784 258.51528 
L 374.721602 251.781696 
L 398.718169 230.941152 
L 411.343031 222.896448 
L 421.517268 222.273504 
L 425.45898 232.055712 
L 420.480504 249.886685 
L 407.59528 268.339133 
L 391.443746 280.761552 
L 377.182494 285.385507 
L 367.875389 283.731552 
L 364.36144 277.604669 
L 366.384301 267.892704 
L 373.50706 254.823062 
L 385.348378 238.843037 
L 401.155067 221.940864 
L 418.765212 209.208096 
L 433.394856 208.840032 
L 438.029604 226.689408 
L 427.837176 257.010883 
L 405.785351 284.404867 
L 381.082579 299.159136 
L 361.55403 302.545152 
L 349.959906 299.34265 
L 345.732833 292.487414 
L 347.560618 282.601354 
L 354.695875 268.975901 
L 367.203222 250.514813 
L 385.584412 226.928736 
L 409.677401 201.198816 
L 436.27302 183.674304 
L 455.928012 192.443904 
L 454.501764 235.800288 
L 426.677652 289.225296 
L 386.166406 321.428071 
L 351.055818 330.725834 
L 328.324795 329.74573 
L 316.128589 326.636142 
L 310.49838 324.011745 
L 308.389732 322.062903 
L 308.101101 320.330471 
L 308.897958 318.278618 
L 310.633104 315.343843 
L 325.741925 292.011696 
L 337.803095 273.399322 
L 357.107774 243.98712 
L 387.341888 200.123136 
L 431.484264 145.46736 
L 483.88158 112.753728 
L 513.158724 174.578976 
L 473.065308 319.829446 
L 382.052272 403.496122 
L 303.885809 414.414144 
L 257.520845 408.289075 
L 233.339692 403.348205 
L 221.009454 401.094374 
L 214.50362 400.396608 
L 210.870259 400.229942 
L 208.81827 399.953981 
L 207.84177 399.268742 
L 207.731844 398.157811 
L 208.319976 396.819907 
L 209.369351 395.570045 
L 210.568046 394.724534 
L 211.583606 394.504646 
L 212.136026 394.982438 
L 212.05958 396.07056 
L 211.336859 397.539792 
L 210.105464 399.05568 
L 208.638371 400.234522 
L 207.295376 400.728902 
L 206.444315 400.334227 
L 206.358494 399.081946 
L 207.120499 397.264954 
L 208.575094 395.360957 
L 210.363372 393.879629 
L 212.025989 393.210288 
L 213.132838 393.531782 
L 213.389183 394.795642 
L 212.695031 396.751565 
L 211.164325 398.984746 
L 209.112671 400.968058 
L 207.016042 402.152429 
L 205.423844 402.114154 
L 204.821986 400.730544 
L 205.46748 398.290867 
L 207.268592 395.442691 
L 209.784838 392.969578 
L 212.361682 391.52281 
L 214.334658 391.452739 
L 215.20391 392.78209 
L 214.729834 395.25529 
L 212.960862 398.391005 
L 210.226439 401.517216 
L 207.110455 403.836538 
L 204.380608 404.589773 
L 202.8316 403.335763 
L 203.03527 400.233226 
L 205.085585 396.101232 
L 208.498536 392.129942 
L 212.363132 389.403504 
L 215.663926 388.55808 
L 217.585231 389.727936 
L 217.67027 392.663722 
L 215.848624 396.840557 
L 212.41525 401.478422 
L 208.019214 405.533174 
L 203.643378 407.800742 
L 200.481527 407.269037 
L 199.62455 403.674797 
L 201.595183 397.892304 
L 206.00383 391.687402 
L 211.630032 386.888746 
L 216.924894 384.640704 
L 220.571424 385.24585 
L 221.779717 388.438589 
L 220.300794 393.658013 
L 216.338659 400.097923 
L 210.52017 406.578269 
L 203.950501 411.448896 
L 198.229774 412.8408 
L 195.196932 409.50049 
L 196.241396 401.883552 
L 201.459031 392.415062 
L 209.374708 384.238598 
L 217.625854 379.51511 
L 224.046425 378.845251 
L 227.307488 381.83953 
L 226.92046 387.81815 
L 222.969708 396.034704 
L 215.952858 405.442195 
L 206.870962 414.254304 
L 197.489866 419.719104 
L 190.43496 418.799808 
L 188.57124 410.190653 
L 193.448048 396.33097 
L 203.89604 382.522349 
L 216.440662 373.258368 
L 227.352686 369.95616 
L 234.271552 371.861107 
L 236.358918 377.813203 
L 233.65273 387.03649 
L 226.517472 398.945174 
L 215.565606 412.407072 
L 202.071827 424.757952 
L 188.696232 431.217216 
L 179.824032 426.397824 
L 180.168876 409.125946 
L 191.28312 386.194608 
L 209.330849 367.633901 
L 227.690053 358.348752 
L 241.408595 357.248448 
L 248.707458 361.619597 
L 249.766988 369.840211 
L 245.225426 381.587674 
L 235.462658 397.074182 
L 220.67231 415.898496 
L 201.641832 435.277152 
L 181.28934 447.907104 
L 166.272444 442.736928 
L 165.61512 414.731232 
L 183.318228 376.740979 
L 212.165154 348.939965 
L 239.952661 337.617504 
L 259.496388 337.113187 
L 269.980204 341.475782 
L 273.265819 348.212131 
L 271.128902 357.287501 
L 264.314718 369.868723 
L 252.5013 387.641549 
L 234.603673 412.108992 
L 209.544116 442.641888 
L 178.372116 471.534048 
L 148.753476 477.728064 
L 138.313296 437.406912 
L 162.620892 366.740784 
L 211.364312 316.734011 
L 258.089224 300.81456 
L 289.602497 300.49272 
L 307.554372 302.194368 
L 317.770225 301.316198 
L 325.093975 296.812166 
L 332.74103 288.151085 
L 342.99216 274.285958 
L 357.901362 253.56551 
L 379.570064 224.578656 
L 409.42206 189.295488 
L 445.11732 160.739424 
L 474.186888 169.493472 
L 472.926924 235.857312 
L 430.812432 315.123437 
L 372.642271 353.688336 
L 326.574684 360.32377 
L 298.545585 358.682774 
L 282.600043 359.093261 
L 271.926954 364.133232 
L 261.75919 374.388394 
L 249.01168 390.407731 
L 231.565586 412.598016 
L 208.285492 439.401024 
L 180.511488 463.20768 
L 155.343456 466.53408 
L 147.200004 432.22464 
L 167.710968 373.877597 
L 208.70879 330.204133 
L 249.294362 314.140896 
L 277.589538 313.065562 
L 293.68459 315.665122 
L 301.883675 317.602063 
L 306.049982 318.027842 
L 308.625531 317.022561 
L 311.002857 314.601408 
L 314.073118 310.423536 
L 318.648629 303.672845 
L 354.851557 248.983891 
L 382.483271 209.132064 
L 422.844192 158.296032 
L 472.334328 121.25376 
L 506.44152 160.392096 
L 481.77792 289.407341 
L 401.114891 384.761059 
L 322.395599 405.094262 
L 272.686615 401.310461 
L 245.700842 397.73592 
L 230.728252 398.125238 
L 220.920732 401.454662 
L 213.01655 405.929059 
L 206.080276 409.615747 
L 200.573708 410.685984 
L 197.61363 407.981059 
L 198.170068 401.752397 
L 202.296254 393.83375 
L 208.833894 386.747914 
L 215.858779 382.408301 
L 221.499378 381.534192 
L 224.503985 383.947517 
L 224.335692 389.086762 
L 221.013695 396.225475 
L 214.991982 404.33809 
L 207.206766 411.809184 
L 199.232834 416.338272 
L 193.283662 415.548576 
L 191.667024 408.502224 
L 195.608513 397.103472 
L 204.218118 385.464442 
L 214.76588 377.301974 
L 224.163158 374.120467 
L 230.267678 375.608707 
L 232.160303 380.888698 
L 229.747288 389.196144 
L 223.354282 399.790598 
L 213.660929 411.38928 
L 202.010893 421.460064 
L 190.895868 426.017664 
L 184.00122 421.141248 
L 184.901832 406.551226 
L 194.479902 387.75335 
L 209.570566 372.368448 
L 224.94514 364.40591 
L 236.513707 363.485232 
L 242.545352 367.731706 
L 242.922002 375.840346 
L 238.051444 387.35159 
L 228.330414 402.007709 
L 214.281871 418.64688 
L 197.320234 433.707264 
L 180.96012 440.236512 
L 171.387072 430.537248 
L 174.962736 404.599536 
L 192.423672 374.754125 
L 216.671227 354.50041 
L 238.664239 346.820314 
L 253.506481 347.662368 
L 260.6202 353.153174 
L 261.16146 361.793347 
L 256.154191 373.819277 
L 245.861881 390.216182 
L 229.928749 411.692544 
L 208.149563 436.834944 
L 182.277 458.607744 
L 159.055272 461.528064 
L 151.364916 430.933824 
L 169.466436 378.309139 
L 206.624437 337.153018 
L 244.424473 320.688772 
L 271.410804 319.057825 
L 286.832027 321.992721 
L 294.225694 325.249439 
L 296.977382 328.063055 
L 297.14659 330.859935 
L 295.637166 334.361866 
L 292.56849 339.44063 
L 279.3969 359.579002 
L 266.58868 378.966816 
L 246.473672 408.868819 
L 215.744166 451.865952 
L 172.526508 501.790464 
L 124.593192 523.935648 
L 103.360176 456.42096 
L 146.239128 326.451375 
L 229.943369 255.914726 
L 300.022656 246.291494 
L 341.863772 250.665062 
L 364.573145 252.642326 
L 377.952311 250.403011 
L 387.789628 245.284762 
L 396.61105 239.271235 
L 404.778272 234.670176 
L 411.25297 233.813088 
L 414.345182 238.123411 
L 412.75544 246.920141 
L 406.631502 257.309482 
L 397.822021 265.832928 
L 388.992341 270.37152 
L 382.409392 270.551837 
L 379.346306 266.940403 
L 380.193016 260.277754 
L 384.792052 251.313322 
L 392.597021 241.133933 
L 402.529644 231.697152 
L 412.64663 226.101024 
L 420.015132 227.752992 
L 421.464816 237.929443 
L 415.440871 253.489219 
L 403.556141 268.285824 
L 389.862263 277.62575 
L 378.377172 280.470902 
L 371.407864 277.961069 
L 369.614675 271.389226 
L 372.833554 261.479837 
L 380.670664 248.710262 
L 392.545685 234.1656 
L 407.183587 220.688928 
L 421.739352 213.651648 
L 431.320212 219.286656 
L 430.57584 238.903517 
L 417.85902 264.373373 
L 397.78151 284.217811 
L 377.863924 293.551776 
L 363.333492 294.270106 
L 355.75016 289.59647 
L 354.641861 281.235629 
L 359.214671 269.368675 
L 369.102431 253.513325 
L 384.294539 233.66016 
L 404.354862 212.111136 
L 426.760236 196.157376 
L 444.750156 198.529056 
L 447.893928 227.47824 
L 430.108236 270.375926 
L 398.495416 302.746982 
L 367.27141 316.033168 
L 345.066023 317.094437 
L 332.760337 313.282598 
L 327.978612 307.71455 
L 328.421329 300.663533 
L 332.935661 291.107693 
L 341.545489 277.38288 
L 355.25209 257.415322 
L 375.745756 229.35312 
L 404.543131 194.146848 
L 440.17344 162.573696 
L 471.95154 163.522368 
L 476.61084 223.479648 
L 439.031772 306.689501 
L 380.20864 352.160438 
L 331.028975 361.56577 
L 300.41147 360.137664 
L 283.02881 360.099907 
L 271.764241 364.64904 
L 261.498827 374.437987 
L 248.950188 389.927779 
L 231.934871 411.4368 
L 209.302168 437.45616 
L 182.275884 460.839456 
L 157.495104 465.16032 
L 148.58496 433.698624 
L 167.094936 377.738294 
L 206.23127 333.9684 
L 246.091331 316.853821 
L 274.420544 315.241027 
L 290.663478 317.937234 
L 298.787188 320.422962 
L 302.525609 321.803859 
L 304.229187 322.279024 
L 305.137423 322.139091 
L 305.862684 321.51441 
L 306.740172 320.35551 
L 310.06997 315.313517 
L 318.65287 301.874688 
L 341.587562 265.718534 
L 364.765097 229.944096 
L 401.272135 177.4224 
L 453.246264 118.660032 
L 507.298608 109.66752 
L 515.350548 228.784608 
L 440.453556 380.167344 
L 339.575972 428.446368 
L 269.775864 425.391264 
L 232.512624 415.628928 
L 215.63145 406.172707 
L 210.560681 397.232986 
L 212.024426 389.695882 
L 216.305402 384.794496 
L 220.669074 383.175187 
L 223.337876 384.759331 
L 223.415215 389.05367 
L 220.683136 395.362598 
L 215.434588 402.726989 
L 208.45278 409.704307 
L 201.1018 414.280224 
L 195.318464 414.320832 
L 193.186346 408.779827 
L 195.975788 398.954333 
L 203.199545 388.245485 
L 212.644811 380.140819 
L 221.517792 376.41888 
L 227.667622 377.125114 
L 230.019592 381.555878 
L 228.338449 388.958544 
L 222.875183 398.567434 
L 214.261114 409.174157 
L 203.723842 418.548384 
L 193.463114 423.258048 
L 186.695244 419.846112 
L 186.627168 407.686954 
L 194.358035 391.00657 
L 207.527058 376.4232 
L 221.638655 368.120938 
L 232.770532 366.430781 
L 238.959533 369.911923 
L 239.818072 377.306294 
L 235.62392 388.007626 
L 226.78866 401.574672 
L 213.925644 416.760768 
L 198.481543 430.262496 
L 183.709944 436.037472 
L 175.031928 427.680864 
L 177.87438 405.191203 
L 192.990265 378.656122 
L 214.537882 359.73841 
L 234.630122 351.924048 
L 248.526666 352.358035 
L 255.239518 357.733757 
L 255.522089 366.592003 
L 250.199996 378.98833 
L 239.550566 395.561837 
L 223.472689 416.364192 
L 202.366004 438.866208 
L 178.97364 454.977216 
L 160.74378 450.742752 
L 158.953716 418.079232 
L 179.402184 372.55775 
L 213.300014 340.356902 
L 245.433672 328.303411 
L 267.607811 327.977994 
L 279.679471 331.809912 
L 284.444233 336.866688 
L 284.363658 342.975773 
L 280.666238 351.125453 
L 273.409672 362.882333 
L 261.682186 380.31215 
L 243.760676 405.769478 
L 217.538024 440.411904 
L 182.31048 478.862496 
L 144.084132 498.15216 
L 123.395724 459.37152 
L 146.388672 367.977427 
L 206.211852 299.201731 
L 265.734716 279.133085 
L 305.491748 279.269856 
L 328.22536 280.331971 
L 342.07425 276.79104 
L 353.399418 267.770966 
L 366.141571 253.287821 
L 382.531147 233.8632 
L 403.239755 212.048064 
L 426.310488 195.254496 
L 445.202136 196.669728 
L 449.217504 225.578304 
L 431.638272 269.739504 
L 399.385202 303.501686 
L 367.210811 317.45247 
L 344.222996 318.715759 
L 331.371922 315.062525 
L 326.152278 309.812947 
L 326.113218 303.327245 
L 329.97335 294.653549 
L 337.641833 282.20184 
L 350.021956 263.907504 
L 368.80033 237.592224 
L 395.866454 202.812768 
L 431.177364 166.789152 
L 467.09694 154.69056 
L 481.98438 201.45456 
L 453.523032 289.950106 
L 394.194352 349.357709 
L 338.928469 365.059354 
L 302.925327 364.383533 
L 282.410546 363.662957 
L 269.690044 367.491427 
L 258.911492 376.686547 
L 246.383165 391.482893 
L 229.838576 411.826464 
L 208.286942 435.825792 
L 183.173148 456.439104 
L 160.881048 458.998272 
L 153.50094 430.013664 
L 170.561232 380.137363 
L 205.882297 340.412803 
L 242.234546 323.918406 
L 268.47617 322.046237 
L 283.507463 325.114698 
L 290.491837 328.972873 
L 292.567597 332.901274 
L 291.602257 337.478486 
L 288.271444 343.734365 
L 282.35218 353.047248 
L 272.86897 367.331933 
L 258.069247 389.211955 
L 235.416233 421.574976 
L 202.280407 464.558976 
L 159.372216 505.3752 
L 120.135888 502.644096 
L 117.798984 416.433312 
L 172.013148 309.623213 
L 247.023302 264.95977 
L 303.397561 261.034445 
L 336.29404 263.88841 
L 354.965054 262.802707 
L 367.802514 256.502419 
L 379.766927 245.979072 
L 393.046992 233.157312 
L 407.608448 221.441472 
L 421.166844 216.170208 
L 429.362748 222.763392 
L 427.684284 241.570598 
L 415.233295 264.804336 
L 396.536054 282.519878 
L 378.34146 290.688998 
L 365.256472 290.944742 
L 358.70611 286.012426 
L 358.35111 277.344346 
L 363.546202 265.128682 
L 373.956808 249.118502 
L 389.401578 229.83696 
L 408.97912 210.45312 
L 429.428592 198.929088 
L 443.576124 206.591904 
L 442.29384 237.112704 
L 422.552916 275.492275 
L 392.807387 301.823107 
L 365.337828 311.656896 
L 346.604652 311.385427 
L 336.87715 306.747043 
L 334.129111 299.924035 
L 336.620916 290.775398 
L 343.697472 278.049283 
L 355.769802 260.004298 
L 374.003233 235.092672 
L 399.533742 203.97744 
L 431.271108 174.708576 
L 461.212272 169.24464 
L 471.059856 211.877856 
L 445.16196 284.342746 
L 395.048203 334.020067 
L 347.893409 349.095571 
L 316.456024 349.115875 
L 298.588506 347.583658 
L 288.258275 348.930461 
L 280.558991 354.164227 
L 272.23497 363.86375 
L 260.951094 379.129594 
L 244.617095 401.517043 
L 221.264014 431.781408 
L 190.181628 465.86016 
L 155.712852 486.800928 
L 133.21764 463.78656 
L 144.968004 391.047005 
L 192.299796 322.563695 
L 246.998639 294.946358 
L 287.059021 291.794746 
L 310.687899 293.491123 
L 324.214344 292.527677 
L 333.719986 287.115494 
L 343.342361 276.684854 
L 373.375706 237.534336 
L 397.31413 208.85472 
L 426.867372 181.443456 
L 455.243904 174.012192 
L 466.709688 208.479744 
L 446.438664 273.409949 
L 401.843974 323.213421 
L 356.92542 341.15377 
L 325.613585 342.387475 
L 307.625941 340.275168 
L 297.838711 339.795302 
L 291.686069 342.070733 
L 286.147249 347.426842 
L 279.206399 356.56079 
L 253.995289 392.615078 
L 231.407114 423.853344 
L 199.358942 463.47984 
L 159.630012 497.730528 
L 125.90784 489.556224 
L 127.093032 410.906304 
L 176.77512 318.704268 
L 243.524308 278.553946 
L 294.284485 273.789158 
L 324.381074 275.844614 
L 341.701394 274.374864 
L 353.968355 267.441955 
L 366.150611 255.14663 
L 380.985822 238.204109 
L 399.434864 218.839104 
L 420.14124 202.905216 
L 438.077592 200.84976 
L 444.599496 221.513184 
L 432.9585 258.533338 
L 406.556507 291.4596 
L 377.225906 308.102227 
L 354.516088 311.491008 
L 341.086032 308.344406 
L 335.574889 302.326042 
L 335.997072 294.141629 
L 341.2233 282.935635 
L 351.231476 267.141024 
L 366.897996 245.06928 
L 389.447222 216.247968 
L 418.937076 185.1768 
L 450.590184 168.024672 
L 469.985148 191.239488 
L 458.0406 256.984618 
L 414.761674 318.472309 
L 364.848239 344.516717 
L 327.802842 348.069226 
L 305.825778 346.21223 
L 293.594194 346.001933 
L 285.713125 349.21368 
L 278.462585 356.368723 
L 269.333482 368.29175 
L 256.25385 386.461757 
L 237.125833 412.563456 
L 210.104683 446.383008 
L 175.671396 479.823264 
L 142.048548 487.916352 
L 130.251312 440.01792 
L 159.550776 356.832346 
L 216.236322 302.527872 
L 268.199068 288.096221 
L 301.998712 288.71761 
L 321.235517 289.521648 
L 333.066791 286.164576 
L 342.992495 277.745846 
L 354.578584 263.772893 
L 370.224569 243.680227 
L 391.480351 218.013984 
L 418.144716 191.722464 
L 445.512384 178.910208 
L 461.340612 199.68336 
L 450.935028 253.928304 
L 414.721609 306.150106 
L 371.905488 330.841981 
L 338.9557 335.391667 
L 319.097596 333.271843 
L 308.693362 330.911836 
L 303.487223 329.966214 
L 300.560244 330.502032 
L 298.224077 332.429927 
L 295.469487 335.955341 
L 291.494452 341.720726 
L 275.69524 365.61672 
L 260.403361 388.755072 
L 236.4588 423.984672 
L 200.500834 472.234752 
L 152.746524 519.111072 
L 108.94464 513.075168 
L 110.209068 405.296093 
L 177.633324 285.102547 
L 262.58436 244.778285 
L 322.133562 244.986163 
L 355.405093 249.557414 
L 373.422132 250.452778 
L 384.456917 247.894214 
L 392.82435 243.556416 
L 400.11529 239.353229 
L 406.244585 237.20256 
L 410.220781 238.586256 
L 410.917946 243.798422 
L 407.901175 251.478605 
L 401.940619 259.163539 
L 394.803688 264.600346 
L 388.480097 266.663578 
L 384.470644 265.296125 
L 383.54269 260.979494 
L 385.843435 254.386483 
L 391.060624 246.411763 
L 398.434705 238.44577 
L 406.617329 232.591392 
L 413.573134 231.351552 
L 416.900376 236.37312 
L 414.841021 246.77257 
L 407.518722 258.912893 
L 397.19003 268.60127 
L 387.034765 273.518381 
L 379.61437 273.51095 
L 376.237577 269.397014 
L 377.217648 262.006704 
L 382.340758 252.039254 
L 391.065646 240.508224 
L 402.328987 229.455936 
L 414.069642 222.453216 
L 422.924544 223.812288 
L 424.991376 235.52208 
L 418.158108 253.92191 
L 404.282992 271.304381 
L 388.324192 281.979533 
L 375.067674 285.104362 
L 367.036045 282.408854 
L 364.752151 275.512838 
L 367.882754 265.118832 
L 376.008239 251.436701 
L 388.712002 235.147968 
L 405.021672 218.801088 
L 422.287308 208.23696 
L 435.143628 211.687776 
L 436.655808 233.006976 
L 423.446832 263.605882 
L 400.26249 288.302458 
L 376.489681 300.099686 
L 358.82262 301.660502 
L 349.064204 297.49248 
L 346.348418 289.93127 
L 349.458822 279.221299 
L 357.84545 264.51671 
L 371.709184 244.831334 
L 391.479458 220.455648 
L 416.45286 195.856704 
L 442.090728 183.596544 
L 457.349796 201.390624 
L 448.986492 250.004966 
L 416.556648 299.184624 
L 376.645586 324.367978 
L 344.91726 329.918737 
L 325.44652 327.885261 
L 315.459324 324.633772 
L 311.184732 321.872072 
L 310.014851 319.472087 
L 310.619623 316.833604 
L 312.560112 313.247088 
L 315.983732 307.839485 
L 330.320538 285.924211 
L 344.308147 264.66359 
L 366.333188 231.918336 
L 399.868207 185.598432 
L 446.063688 135.438048 
L 493.466904 125.381088 
L 504.50526 216.044928 
L 447.25446 346.628419 
L 360.219964 401.526374 
L 294.50956 404.867722 
L 256.921664 399.864384 
L 236.774182 397.984234 
L 224.984534 399.67439 
L 216.578711 403.379827 
L 209.528158 407.278454 
L 203.602421 409.570906 
L 199.554354 408.822422 
L 198.387911 404.579664 
L 200.604622 397.831651 
L 205.681975 390.675917 
L 212.141383 385.243949 
L 218.164658 382.783709 
L 222.264284 383.53945 
L 223.593998 387.152698 
L 221.912633 393.007594 
L 217.450084 400.267181 
L 210.871487 407.675894 
L 203.37152 413.378208 
L 196.750069 415.146816 
L 193.163357 411.378912 
L 194.307815 402.526714 
L 200.339683 391.516502 
L 209.495905 382.137523 
L 218.968848 376.851312 
L 226.271171 376.168147 
L 229.970488 379.499645 
L 229.604328 386.06423 
L 225.296122 395.133725 
L 217.543158 405.716515 
L 207.334994 415.969344 
L 196.524079 422.777664 
L 188.072388 422.363808 
L 185.454252 412.744032 
L 190.759716 396.590515 
L 202.751359 380.41177 
L 217.268845 369.699811 
L 229.870048 365.918256 
L 237.895315 367.878067 
L 240.547936 374.106902 
L 237.987832 383.803402 
L 230.608728 396.581184 
L 218.900772 411.624288 
L 203.91066 426.4704 
L 188.176176 435.899232 
L 176.513976 432.887328 
L 174.935952 414.26208 
L 186.38946 387.126864 
L 206.988923 364.391568 
L 228.643675 352.818029 
L 245.132575 350.878608 
L 254.373502 354.840134 
L 256.81185 362.53751 
L 253.403363 373.614422 
L 244.637294 388.660032 
L 230.4603 408.169498 
L 210.881419 430.93296 
L 187.450776 451.240416 
L 165.69324 456.553152 
L 156.26862 433.790208 
L 168.839244 388.861862 
L 200.113247 348.841987 
L 234.977422 329.739509 
L 261.564001 326.225932 
L 277.323707 329.050918 
L 284.62882 333.604915 
L 286.362079 338.914022 
L 284.299265 345.613392 
L 278.975052 355.014403 
L 269.896727 368.923421 
L 255.696073 389.652077 
L 234.293202 419.499648 
L 203.670274 458.024544 
L 164.908692 493.778592 
L 129.666528 493.006176 
L 125.183556 423.10944 
L 169.101504 329.128868 
L 235.061122 282.615005 
L 287.923363 275.223226 
L 319.944082 277.204464 
L 338.217242 276.408115 
L 350.651491 270.258854 
L 362.533655 258.647299 
L 376.896463 242.033357 
L 395.072867 222.081696 
L 416.305548 203.790816 
L 436.302036 197.351424 
L 446.475492 213.878016 
L 438.323112 250.990272 
L 412.835569 288.044467 
L 381.72919 308.671171 
L 356.320548 314.098128 
L 340.541647 311.828832 
L 333.25506 306.504173 
L 332.198431 299.34792 
L 335.881343 289.738944 
L 343.980155 276.198422 
L 357.196943 256.849402 
L 376.916216 230.151456 
L 404.296495 197.352288 
L 437.637888 168.640704 
L 437.637888 168.640704 
" style="fill:none;stroke:#0000ff;stroke-linecap:square;"/>
   </g>
   <g id="patch_3">
    <path d="M 81 583.2 
L 81 64.8 
" style="fill:none;stroke:#000000;stroke-linecap:square;stroke-linejoin:miter;"/>
   </g>
   <g id="patch_4">
    <path d="M 81 583.2 
L 583.2 583.2 
" style="fill:none;stroke:#000000;stroke-linecap:square;stroke-linejoin:miter;"/>
   </g>
   <g id="patch_5">
    <path d="M 81 64.8 
L 583.2 64.8 
" style="fill:none;stroke:#000000;stroke-linecap:square;stroke-linejoin:miter;"/>
   </g>
   <g id="patch_6">
    <path d="M 583.2 583.2 
L 583.2 64.8 
" style="fill:none;stroke:#000000;stroke-linecap:square;stroke-linejoin:miter;"/>
   </g>
   <g id="matplotlib.axis_1">
    <g id="xtick_1">
     <g id="line2d_2">
      <path clip-path="url(#p2059d8b5c1)" d="M 81 583.2 
L 81 64.8 
" style="fill:none;stroke:#000000;stroke-dasharray:1.000000,3.000000;stroke-dashoffset:0.0;stroke-width:0.5;"/>
     </g>
     <g id="line2d_3">
      <defs>
       <path d="M 0 0 
L 0 -4 
" id="m18c841f33e" style="stroke:#000000;stroke-width:0.5;"/>
      </defs>
      <g>
       <use style="stroke:#000000;stroke-width:0.5;" x="81.0" xlink:href="#m18c841f33e" y="583.2"/>
      </g>
     </g>
     <g id="line2d_4">
      <defs>
       <path d="M 0 0 
L 0 4 
" id="mc85779ab42" style="stroke:#000000;stroke-width:0.5;"/>
      </defs>
      <g>
       <use style="stroke:#000000;stroke-width:0.5;" x="81.0" xlink:href="#mc85779ab42" y="64.8"/>
      </g>
     </g>
     <g id="text_1">
      <!-- 20 -->
      <defs>
       <path d="M 19.1875 8.296875 
L 53.609375 8.296875 
L 53.609375 0 
L 7.328125 0 
L 7.328125 8.296875 
Q 12.9375 14.109375 22.625 23.890625 
Q 32.328125 33.6875 34.8125 36.53125 
Q 39.546875 41.84375 41.421875 45.53125 
Q 43.3125 49.21875 43.3125 52.78125 
Q 43.3125 58.59375 39.234375 62.25 
Q 35.15625 65.921875 28.609375 65.921875 
Q 23.96875 65.921875 18.8125 64.3125 
Q 13.671875 62.703125 7.8125 59.421875 
L 7.8125 69.390625 
Q 13.765625 71.78125 18.9375 73 
Q 24.125 74.21875 28.421875 74.21875 
Q 39.75 74.21875 46.484375 68.546875 
Q 53.21875 62.890625 53.21875 53.421875 
Q 53.21875 48.921875 51.53125 44.890625 
Q 49.859375 40.875 45.40625 35.40625 
Q 44.1875 33.984375 37.640625 27.21875 
Q 31.109375 20.453125 19.1875 8.296875 
" id="BitstreamVeraSans-Roman-32"/>
       <path d="M 31.78125 66.40625 
Q 24.171875 66.40625 20.328125 58.90625 
Q 16.5 51.421875 16.5 36.375 
Q 16.5 21.390625 20.328125 13.890625 
Q 24.171875 6.390625 31.78125 6.390625 
Q 39.453125 6.390625 43.28125 13.890625 
Q 47.125 21.390625 47.125 36.375 
Q 47.125 51.421875 43.28125 58.90625 
Q 39.453125 66.40625 31.78125 66.40625 
M 31.78125 74.21875 
Q 44.046875 74.21875 50.515625 64.515625 
Q 56.984375 54.828125 56.984375 36.375 
Q 56.984375 17.96875 50.515625 8.265625 
Q 44.046875 -1.421875 31.78125 -1.421875 
Q 19.53125 -1.421875 13.0625 8.265625 
Q 6.59375 17.96875 6.59375 36.375 
Q 6.59375 54.828125 13.0625 64.515625 
Q 19.53125 74.21875 31.78125 74.21875 
" id="BitstreamVeraSans-Roman-30"/>
       <path d="M 10.59375 35.5 
L 73.1875 35.5 
L 73.1875 27.203125 
L 10.59375 27.203125 
z
" id="BitstreamVeraSans-Roman-2212"/>
      </defs>
      <g transform="translate(68.3371875 596.318125)scale(0.12 -0.12)">
       <use xlink:href="#BitstreamVeraSans-Roman-2212"/>
       <use x="83.7890625" xlink:href="#BitstreamVeraSans-Roman-32"/>
       <use x="147.412109375" xlink:href="#BitstreamVeraSans-Roman-30"/>
      </g>
     </g>
    </g>
    <g id="xtick_2">
     <g id="line2d_5">
      <path clip-path="url(#p2059d8b5c1)" d="M 136.8 583.2 
L 136.8 64.8 
" style="fill:none;stroke:#000000;stroke-dasharray:1.000000,3.000000;stroke-dashoffset:0.0;stroke-width:0.5;"/>
     </g>
     <g id="line2d_6">
      <g>
       <use style="stroke:#000000;stroke-width:0.5;" x="136.8" xlink:href="#m18c841f33e" y="583.2"/>
      </g>
     </g>
     <g id="line2d_7">
      <g>
       <use style="stroke:#000000;stroke-width:0.5;" x="136.8" xlink:href="#mc85779ab42" y="64.8"/>
      </g>
     </g>
     <g id="text_2">
      <!-- 15 -->
      <defs>
       <path d="M 10.796875 72.90625 
L 49.515625 72.90625 
L 49.515625 64.59375 
L 19.828125 64.59375 
L 19.828125 46.734375 
Q 21.96875 47.46875 24.109375 47.828125 
Q 26.265625 48.1875 28.421875 48.1875 
Q 40.625 48.1875 47.75 41.5 
Q 54.890625 34.8125 54.890625 23.390625 
Q 54.890625 11.625 47.5625 5.09375 
Q 40.234375 -1.421875 26.90625 -1.421875 
Q 22.3125 -1.421875 17.546875 -0.640625 
Q 12.796875 0.140625 7.71875 1.703125 
L 7.71875 11.625 
Q 12.109375 9.234375 16.796875 8.0625 
Q 21.484375 6.890625 26.703125 6.890625 
Q 35.15625 6.890625 40.078125 11.328125 
Q 45.015625 15.765625 45.015625 23.390625 
Q 45.015625 31 40.078125 35.4375 
Q 35.15625 39.890625 26.703125 39.890625 
Q 22.75 39.890625 18.8125 39.015625 
Q 14.890625 38.140625 10.796875 36.28125 
z
" id="BitstreamVeraSans-Roman-35"/>
       <path d="M 12.40625 8.296875 
L 28.515625 8.296875 
L 28.515625 63.921875 
L 10.984375 60.40625 
L 10.984375 69.390625 
L 28.421875 72.90625 
L 38.28125 72.90625 
L 38.28125 8.296875 
L 54.390625 8.296875 
L 54.390625 0 
L 12.40625 0 
z
" id="BitstreamVeraSans-Roman-31"/>
      </defs>
      <g transform="translate(124.1371875 596.318125)scale(0.12 -0.12)">
       <use xlink:href="#BitstreamVeraSans-Roman-2212"/>
       <use x="83.7890625" xlink:href="#BitstreamVeraSans-Roman-31"/>
       <use x="147.412109375" xlink:href="#BitstreamVeraSans-Roman-35"/>
      </g>
     </g>
    </g>
    <g id="xtick_3">
     <g id="line2d_8">
      <path clip-path="url(#p2059d8b5c1)" d="M 192.6 583.2 
L 192.6 64.8 
" style="fill:none;stroke:#000000;stroke-dasharray:1.000000,3.000000;stroke-dashoffset:0.0;stroke-width:0.5;"/>
     </g>
     <g id="line2d_9">
      <g>
       <use style="stroke:#000000;stroke-width:0.5;" x="192.6" xlink:href="#m18c841f33e" y="583.2"/>
      </g>
     </g>
     <g id="line2d_10">
      <g>
       <use style="stroke:#000000;stroke-width:0.5;" x="192.6" xlink:href="#mc85779ab42" y="64.8"/>
      </g>
     </g>
     <g id="text_3">
      <!-- 10 -->
      <g transform="translate(179.9371875 596.318125)scale(0.12 -0.12)">
       <use xlink:href="#BitstreamVeraSans-Roman-2212"/>
       <use x="83.7890625" xlink:href="#BitstreamVeraSans-Roman-31"/>
       <use x="147.412109375" xlink:href="#BitstreamVeraSans-Roman-30"/>
      </g>
     </g>
    </g>
    <g id="xtick_4">
     <g id="line2d_11">
      <path clip-path="url(#p2059d8b5c1)" d="M 248.4 583.2 
L 248.4 64.8 
" style="fill:none;stroke:#000000;stroke-dasharray:1.000000,3.000000;stroke-dashoffset:0.0;stroke-width:0.5;"/>
     </g>
     <g id="line2d_12">
      <g>
       <use style="stroke:#000000;stroke-width:0.5;" x="248.4" xlink:href="#m18c841f33e" y="583.2"/>
      </g>
     </g>
     <g id="line2d_13">
      <g>
       <use style="stroke:#000000;stroke-width:0.5;" x="248.4" xlink:href="#mc85779ab42" y="64.8"/>
      </g>
     </g>
     <g id="text_4">
      <!-- 5 -->
      <g transform="translate(239.5546875 596.318125)scale(0.12 -0.12)">
       <use xlink:href="#BitstreamVeraSans-Roman-2212"/>
       <use x="83.7890625" xlink:href="#BitstreamVeraSans-Roman-35"/>
      </g>
     </g>
    </g>
    <g id="xtick_5">
     <g id="line2d_14">
      <path clip-path="url(#p2059d8b5c1)" d="M 304.2 583.2 
L 304.2 64.8 
" style="fill:none;stroke:#000000;stroke-dasharray:1.000000,3.000000;stroke-dashoffset:0.0;stroke-width:0.5;"/>
     </g>
     <g id="line2d_15">
      <g>
       <use style="stroke:#000000;stroke-width:0.5;" x="304.2" xlink:href="#m18c841f33e" y="583.2"/>
      </g>
     </g>
     <g id="line2d_16">
      <g>
       <use style="stroke:#000000;stroke-width:0.5;" x="304.2" xlink:href="#mc85779ab42" y="64.8"/>
      </g>
     </g>
     <g id="text_5">
      <!-- 0 -->
      <g transform="translate(300.3825 596.318125)scale(0.12 -0.12)">
       <use xlink:href="#BitstreamVeraSans-Roman-30"/>
      </g>
     </g>
    </g>
    <g id="xtick_6">
     <g id="line2d_17">
      <path clip-path="url(#p2059d8b5c1)" d="M 360 583.2 
L 360 64.8 
" style="fill:none;stroke:#000000;stroke-dasharray:1.000000,3.000000;stroke-dashoffset:0.0;stroke-width:0.5;"/>
     </g>
     <g id="line2d_18">
      <g>
       <use style="stroke:#000000;stroke-width:0.5;" x="360.0" xlink:href="#m18c841f33e" y="583.2"/>
      </g>
     </g>
     <g id="line2d_19">
      <g>
       <use style="stroke:#000000;stroke-width:0.5;" x="360.0" xlink:href="#mc85779ab42" y="64.8"/>
      </g>
     </g>
     <g id="text_6">
      <!-- 5 -->
      <g transform="translate(356.1825 596.318125)scale(0.12 -0.12)">
       <use xlink:href="#BitstreamVeraSans-Roman-35"/>
      </g>
     </g>
    </g>
    <g id="xtick_7">
     <g id="line2d_20">
      <path clip-path="url(#p2059d8b5c1)" d="M 415.8 583.2 
L 415.8 64.8 
" style="fill:none;stroke:#000000;stroke-dasharray:1.000000,3.000000;stroke-dashoffset:0.0;stroke-width:0.5;"/>
     </g>
     <g id="line2d_21">
      <g>
       <use style="stroke:#000000;stroke-width:0.5;" x="415.8" xlink:href="#m18c841f33e" y="583.2"/>
      </g>
     </g>
     <g id="line2d_22">
      <g>
       <use style="stroke:#000000;stroke-width:0.5;" x="415.8" xlink:href="#mc85779ab42" y="64.8"/>
      </g>
     </g>
     <g id="text_7">
      <!-- 10 -->
      <g transform="translate(408.165 596.318125)scale(0.12 -0.12)">
       <use xlink:href="#BitstreamVeraSans-Roman-31"/>
       <use x="63.623046875" xlink:href="#BitstreamVeraSans-Roman-30"/>
      </g>
     </g>
    </g>
    <g id="xtick_8">
     <g id="line2d_23">
      <path clip-path="url(#p2059d8b5c1)" d="M 471.6 583.2 
L 471.6 64.8 
" style="fill:none;stroke:#000000;stroke-dasharray:1.000000,3.000000;stroke-dashoffset:0.0;stroke-width:0.5;"/>
     </g>
     <g id="line2d_24">
      <g>
       <use style="stroke:#000000;stroke-width:0.5;" x="471.6" xlink:href="#m18c841f33e" y="583.2"/>
      </g>
     </g>
     <g id="line2d_25">
      <g>
       <use style="stroke:#000000;stroke-width:0.5;" x="471.6" xlink:href="#mc85779ab42" y="64.8"/>
      </g>
     </g>
     <g id="text_8">
      <!-- 15 -->
      <g transform="translate(463.965 596.318125)scale(0.12 -0.12)">
       <use xlink:href="#BitstreamVeraSans-Roman-31"/>
       <use x="63.623046875" xlink:href="#BitstreamVeraSans-Roman-35"/>
      </g>
     </g>
    </g>
    <g id="xtick_9">
     <g id="line2d_26">
      <path clip-path="url(#p2059d8b5c1)" d="M 527.4 583.2 
L 527.4 64.8 
" style="fill:none;stroke:#000000;stroke-dasharray:1.000000,3.000000;stroke-dashoffset:0.0;stroke-width:0.5;"/>
     </g>
     <g id="line2d_27">
      <g>
       <use style="stroke:#000000;stroke-width:0.5;" x="527.4" xlink:href="#m18c841f33e" y="583.2"/>
      </g>
     </g>
     <g id="line2d_28">
      <g>
       <use style="stroke:#000000;stroke-width:0.5;" x="527.4" xlink:href="#mc85779ab42" y="64.8"/>
      </g>
     </g>
     <g id="text_9">
      <!-- 20 -->
      <g transform="translate(519.765 596.318125)scale(0.12 -0.12)">
       <use xlink:href="#BitstreamVeraSans-Roman-32"/>
       <use x="63.623046875" xlink:href="#BitstreamVeraSans-Roman-30"/>
      </g>
     </g>
    </g>
    <g id="xtick_10">
     <g id="line2d_29">
      <path clip-path="url(#p2059d8b5c1)" d="M 583.2 583.2 
L 583.2 64.8 
" style="fill:none;stroke:#000000;stroke-dasharray:1.000000,3.000000;stroke-dashoffset:0.0;stroke-width:0.5;"/>
     </g>
     <g id="line2d_30">
      <g>
       <use style="stroke:#000000;stroke-width:0.5;" x="583.2" xlink:href="#m18c841f33e" y="583.2"/>
      </g>
     </g>
     <g id="line2d_31">
      <g>
       <use style="stroke:#000000;stroke-width:0.5;" x="583.2" xlink:href="#mc85779ab42" y="64.8"/>
      </g>
     </g>
     <g id="text_10">
      <!-- 25 -->
      <g transform="translate(575.565 596.318125)scale(0.12 -0.12)">
       <use xlink:href="#BitstreamVeraSans-Roman-32"/>
       <use x="63.623046875" xlink:href="#BitstreamVeraSans-Roman-35"/>
      </g>
     </g>
    </g>
    <g id="text_11">
     <!-- x -->
     <defs>
      <path d="M 54.890625 54.6875 
L 35.109375 28.078125 
L 55.90625 0 
L 45.3125 0 
L 29.390625 21.484375 
L 13.484375 0 
L 2.875 0 
L 24.125 28.609375 
L 4.6875 54.6875 
L 15.28125 54.6875 
L 29.78125 35.203125 
L 44.28125 54.6875 
z
" id="BitstreamVeraSans-Roman-78"/>
     </defs>
     <g transform="translate(326.773125 617.4909375)scale(0.18 -0.18)">
      <use xlink:href="#BitstreamVeraSans-Roman-78"/>
     </g>
    </g>
   </g>
   <g id="matplotlib.axis_2">
    <g id="ytick_1">
     <g id="line2d_32">
      <path clip-path="url(#p2059d8b5c1)" d="M 81 583.2 
L 583.2 583.2 
" style="fill:none;stroke:#000000;stroke-dasharray:1.000000,3.000000;stroke-dashoffset:0.0;stroke-width:0.5;"/>
     </g>
     <g id="line2d_33">
      <defs>
       <path d="M 0 0 
L 4 0 
" id="me17a213176" style="stroke:#000000;stroke-width:0.5;"/>
      </defs>
      <g>
       <use style="stroke:#000000;stroke-width:0.5;" x="81.0" xlink:href="#me17a213176" y="583.2"/>
      </g>
     </g>
     <g id="line2d_34">
      <defs>
       <path d="M 0 0 
L -4 0 
" id="m37ac4eea7a" style="stroke:#000000;stroke-width:0.5;"/>
      </defs>
      <g>
       <use style="stroke:#000000;stroke-width:0.5;" x="583.2" xlink:href="#m37ac4eea7a" y="583.2"/>
      </g>
     </g>
     <g id="text_12">
      <!-- 30 -->
      <defs>
       <path d="M 40.578125 39.3125 
Q 47.65625 37.796875 51.625 33 
Q 55.609375 28.21875 55.609375 21.1875 
Q 55.609375 10.40625 48.1875 4.484375 
Q 40.765625 -1.421875 27.09375 -1.421875 
Q 22.515625 -1.421875 17.65625 -0.515625 
Q 12.796875 0.390625 7.625 2.203125 
L 7.625 11.71875 
Q 11.71875 9.328125 16.59375 8.109375 
Q 21.484375 6.890625 26.8125 6.890625 
Q 36.078125 6.890625 40.9375 10.546875 
Q 45.796875 14.203125 45.796875 21.1875 
Q 45.796875 27.640625 41.28125 31.265625 
Q 36.765625 34.90625 28.71875 34.90625 
L 20.21875 34.90625 
L 20.21875 43.015625 
L 29.109375 43.015625 
Q 36.375 43.015625 40.234375 45.921875 
Q 44.09375 48.828125 44.09375 54.296875 
Q 44.09375 59.90625 40.109375 62.90625 
Q 36.140625 65.921875 28.71875 65.921875 
Q 24.65625 65.921875 20.015625 65.03125 
Q 15.375 64.15625 9.8125 62.3125 
L 9.8125 71.09375 
Q 15.4375 72.65625 20.34375 73.4375 
Q 25.25 74.21875 29.59375 74.21875 
Q 40.828125 74.21875 47.359375 69.109375 
Q 53.90625 64.015625 53.90625 55.328125 
Q 53.90625 49.265625 50.4375 45.09375 
Q 46.96875 40.921875 40.578125 39.3125 
" id="BitstreamVeraSans-Roman-33"/>
      </defs>
      <g transform="translate(51.674375 586.51125)scale(0.12 -0.12)">
       <use xlink:href="#BitstreamVeraSans-Roman-2212"/>
       <use x="83.7890625" xlink:href="#BitstreamVeraSans-Roman-33"/>
       <use x="147.412109375" xlink:href="#BitstreamVeraSans-Roman-30"/>
      </g>
     </g>
    </g>
    <g id="ytick_2">
     <g id="line2d_35">
      <path clip-path="url(#p2059d8b5c1)" d="M 81 496.8 
L 583.2 496.8 
" style="fill:none;stroke:#000000;stroke-dasharray:1.000000,3.000000;stroke-dashoffset:0.0;stroke-width:0.5;"/>
     </g>
     <g id="line2d_36">
      <g>
       <use style="stroke:#000000;stroke-width:0.5;" x="81.0" xlink:href="#me17a213176" y="496.8"/>
      </g>
     </g>
     <g id="line2d_37">
      <g>
       <use style="stroke:#000000;stroke-width:0.5;" x="583.2" xlink:href="#m37ac4eea7a" y="496.8"/>
      </g>
     </g>
     <g id="text_13">
      <!-- 20 -->
      <g transform="translate(51.674375 500.11125)scale(0.12 -0.12)">
       <use xlink:href="#BitstreamVeraSans-Roman-2212"/>
       <use x="83.7890625" xlink:href="#BitstreamVeraSans-Roman-32"/>
       <use x="147.412109375" xlink:href="#BitstreamVeraSans-Roman-30"/>
      </g>
     </g>
    </g>
    <g id="ytick_3">
     <g id="line2d_38">
      <path clip-path="url(#p2059d8b5c1)" d="M 81 410.4 
L 583.2 410.4 
" style="fill:none;stroke:#000000;stroke-dasharray:1.000000,3.000000;stroke-dashoffset:0.0;stroke-width:0.5;"/>
     </g>
     <g id="line2d_39">
      <g>
       <use style="stroke:#000000;stroke-width:0.5;" x="81.0" xlink:href="#me17a213176" y="410.4"/>
      </g>
     </g>
     <g id="line2d_40">
      <g>
       <use style="stroke:#000000;stroke-width:0.5;" x="583.2" xlink:href="#m37ac4eea7a" y="410.4"/>
      </g>
     </g>
     <g id="text_14">
      <!-- 10 -->
      <g transform="translate(51.674375 413.71125)scale(0.12 -0.12)">
       <use xlink:href="#BitstreamVeraSans-Roman-2212"/>
       <use x="83.7890625" xlink:href="#BitstreamVeraSans-Roman-31"/>
       <use x="147.412109375" xlink:href="#BitstreamVeraSans-Roman-30"/>
      </g>
     </g>
    </g>
    <g id="ytick_4">
     <g id="line2d_41">
      <path clip-path="url(#p2059d8b5c1)" d="M 81 324 
L 583.2 324 
" style="fill:none;stroke:#000000;stroke-dasharray:1.000000,3.000000;stroke-dashoffset:0.0;stroke-width:0.5;"/>
     </g>
     <g id="line2d_42">
      <g>
       <use style="stroke:#000000;stroke-width:0.5;" x="81.0" xlink:href="#me17a213176" y="324.0"/>
      </g>
     </g>
     <g id="line2d_43">
      <g>
       <use style="stroke:#000000;stroke-width:0.5;" x="583.2" xlink:href="#m37ac4eea7a" y="324.0"/>
      </g>
     </g>
     <g id="text_15">
      <!-- 0 -->
      <g transform="translate(69.365 327.31125)scale(0.12 -0.12)">
       <use xlink:href="#BitstreamVeraSans-Roman-30"/>
      </g>
     </g>
    </g>
    <g id="ytick_5">
     <g id="line2d_44">
      <path clip-path="url(#p2059d8b5c1)" d="M 81 237.6 
L 583.2 237.6 
" style="fill:none;stroke:#000000;stroke-dasharray:1.000000,3.000000;stroke-dashoffset:0.0;stroke-width:0.5;"/>
     </g>
     <g id="line2d_45">
      <g>
       <use style="stroke:#000000;stroke-width:0.5;" x="81.0" xlink:href="#me17a213176" y="237.6"/>
      </g>
     </g>
     <g id="line2d_46">
      <g>
       <use style="stroke:#000000;stroke-width:0.5;" x="583.2" xlink:href="#m37ac4eea7a" y="237.6"/>
      </g>
     </g>
     <g id="text_16">
      <!-- 10 -->
      <g transform="translate(61.73 240.91125)scale(0.12 -0.12)">
       <use xlink:href="#BitstreamVeraSans-Roman-31"/>
       <use x="63.623046875" xlink:href="#BitstreamVeraSans-Roman-30"/>
      </g>
     </g>
    </g>
    <g id="ytick_6">
     <g id="line2d_47">
      <path clip-path="url(#p2059d8b5c1)" d="M 81 151.2 
L 583.2 151.2 
" style="fill:none;stroke:#000000;stroke-dasharray:1.000000,3.000000;stroke-dashoffset:0.0;stroke-width:0.5;"/>
     </g>
     <g id="line2d_48">
      <g>
       <use style="stroke:#000000;stroke-width:0.5;" x="81.0" xlink:href="#me17a213176" y="151.2"/>
      </g>
     </g>
     <g id="line2d_49">
      <g>
       <use style="stroke:#000000;stroke-width:0.5;" x="583.2" xlink:href="#m37ac4eea7a" y="151.2"/>
      </g>
     </g>
     <g id="text_17">
      <!-- 20 -->
      <g transform="translate(61.73 154.51125)scale(0.12 -0.12)">
       <use xlink:href="#BitstreamVeraSans-Roman-32"/>
       <use x="63.623046875" xlink:href="#BitstreamVeraSans-Roman-30"/>
      </g>
     </g>
    </g>
    <g id="ytick_7">
     <g id="line2d_50">
      <path clip-path="url(#p2059d8b5c1)" d="M 81 64.8 
L 583.2 64.8 
" style="fill:none;stroke:#000000;stroke-dasharray:1.000000,3.000000;stroke-dashoffset:0.0;stroke-width:0.5;"/>
     </g>
     <g id="line2d_51">
      <g>
       <use style="stroke:#000000;stroke-width:0.5;" x="81.0" xlink:href="#me17a213176" y="64.8"/>
      </g>
     </g>
     <g id="line2d_52">
      <g>
       <use style="stroke:#000000;stroke-width:0.5;" x="583.2" xlink:href="#m37ac4eea7a" y="64.8"/>
      </g>
     </g>
     <g id="text_18">
      <!-- 30 -->
      <g transform="translate(61.73 68.11125)scale(0.12 -0.12)">
       <use xlink:href="#BitstreamVeraSans-Roman-33"/>
       <use x="63.623046875" xlink:href="#BitstreamVeraSans-Roman-30"/>
      </g>
     </g>
    </g>
    <g id="text_19">
     <!-- y -->
     <defs>
      <path d="M 32.171875 -5.078125 
Q 28.375 -14.84375 24.75 -17.8125 
Q 21.140625 -20.796875 15.09375 -20.796875 
L 7.90625 -20.796875 
L 7.90625 -13.28125 
L 13.1875 -13.28125 
Q 16.890625 -13.28125 18.9375 -11.515625 
Q 21 -9.765625 23.484375 -3.21875 
L 25.09375 0.875 
L 2.984375 54.6875 
L 12.5 54.6875 
L 29.59375 11.921875 
L 46.6875 54.6875 
L 56.203125 54.6875 
z
" id="BitstreamVeraSans-Roman-79"/>
     </defs>
     <g transform="translate(42.9309375 329.326875)rotate(-90.0)scale(0.18 -0.18)">
      <use xlink:href="#BitstreamVeraSans-Roman-79"/>
     </g>
    </g>
   </g>
   <g id="text_20">
    <!-- Data -->
    <defs>
     <path d="M 19.671875 64.796875 
L 19.671875 8.109375 
L 31.59375 8.109375 
Q 46.6875 8.109375 53.6875 14.9375 
Q 60.6875 21.78125 60.6875 36.53125 
Q 60.6875 51.171875 53.6875 57.984375 
Q 46.6875 64.796875 31.59375 64.796875 
z
M 9.8125 72.90625 
L 30.078125 72.90625 
Q 51.265625 72.90625 61.171875 64.09375 
Q 71.09375 55.28125 71.09375 36.53125 
Q 71.09375 17.671875 61.125 8.828125 
Q 51.171875 0 30.078125 0 
L 9.8125 0 
z
" id="BitstreamVeraSans-Roman-44"/>
     <path d="M 18.3125 70.21875 
L 18.3125 54.6875 
L 36.8125 54.6875 
L 36.8125 47.703125 
L 18.3125 47.703125 
L 18.3125 18.015625 
Q 18.3125 11.328125 20.140625 9.421875 
Q 21.96875 7.515625 27.59375 7.515625 
L 36.8125 7.515625 
L 36.8125 0 
L 27.59375 0 
Q 17.1875 0 13.234375 3.875 
Q 9.28125 7.765625 9.28125 18.015625 
L 9.28125 47.703125 
L 2.6875 47.703125 
L 2.6875 54.6875 
L 9.28125 54.6875 
L 9.28125 70.21875 
z
" id="BitstreamVeraSans-Roman-74"/>
     <path d="M 34.28125 27.484375 
Q 23.390625 27.484375 19.1875 25 
Q 14.984375 22.515625 14.984375 16.5 
Q 14.984375 11.71875 18.140625 8.90625 
Q 21.296875 6.109375 26.703125 6.109375 
Q 34.1875 6.109375 38.703125 11.40625 
Q 43.21875 16.703125 43.21875 25.484375 
L 43.21875 27.484375 
z
M 52.203125 31.203125 
L 52.203125 0 
L 43.21875 0 
L 43.21875 8.296875 
Q 40.140625 3.328125 35.546875 0.953125 
Q 30.953125 -1.421875 24.3125 -1.421875 
Q 15.921875 -1.421875 10.953125 3.296875 
Q 6 8.015625 6 15.921875 
Q 6 25.140625 12.171875 29.828125 
Q 18.359375 34.515625 30.609375 34.515625 
L 43.21875 34.515625 
L 43.21875 35.40625 
Q 43.21875 41.609375 39.140625 45 
Q 35.0625 48.390625 27.6875 48.390625 
Q 23 48.390625 18.546875 47.265625 
Q 14.109375 46.140625 10.015625 43.890625 
L 10.015625 52.203125 
Q 14.9375 54.109375 19.578125 55.046875 
Q 24.21875 56 28.609375 56 
Q 40.484375 56 46.34375 49.84375 
Q 52.203125 43.703125 52.203125 31.203125 
" id="BitstreamVeraSans-Roman-61"/>
    </defs>
    <g transform="translate(305.83578125 59.8)scale(0.22 -0.22)">
     <use xlink:href="#BitstreamVeraSans-Roman-44"/>
     <use x="77.001953125" xlink:href="#BitstreamVeraSans-Roman-61"/>
     <use x="138.28125" xlink:href="#BitstreamVeraSans-Roman-74"/>
     <use x="177.490234375" xlink:href="#BitstreamVeraSans-Roman-61"/>
    </g>
   </g>
   <g id="legend_1">
    <g id="patch_7">
     <path d="M 88.2 97.4565 
L 181.638 97.4565 
L 181.638 72 
L 88.2 72 
z
" style="fill:#ffffff;stroke:#000000;stroke-linejoin:miter;"/>
    </g>
    <g id="line2d_53">
     <path d="M 98.28 83.66175 
L 118.44 83.66175 
" style="fill:none;stroke:#0000ff;stroke-linecap:square;"/>
    </g>
    <g id="line2d_54"/>
    <g id="text_21">
     <!-- data1 -->
     <defs>
      <path d="M 45.40625 46.390625 
L 45.40625 75.984375 
L 54.390625 75.984375 
L 54.390625 0 
L 45.40625 0 
L 45.40625 8.203125 
Q 42.578125 3.328125 38.25 0.953125 
Q 33.9375 -1.421875 27.875 -1.421875 
Q 17.96875 -1.421875 11.734375 6.484375 
Q 5.515625 14.40625 5.515625 27.296875 
Q 5.515625 40.1875 11.734375 48.09375 
Q 17.96875 56 27.875 56 
Q 33.9375 56 38.25 53.625 
Q 42.578125 51.265625 45.40625 46.390625 
M 14.796875 27.296875 
Q 14.796875 17.390625 18.875 11.75 
Q 22.953125 6.109375 30.078125 6.109375 
Q 37.203125 6.109375 41.296875 11.75 
Q 45.40625 17.390625 45.40625 27.296875 
Q 45.40625 37.203125 41.296875 42.84375 
Q 37.203125 48.484375 30.078125 48.484375 
Q 22.953125 48.484375 18.875 42.84375 
Q 14.796875 37.203125 14.796875 27.296875 
" id="BitstreamVeraSans-Roman-64"/>
     </defs>
     <g transform="translate(134.28 88.70175)scale(0.144 -0.144)">
      <use xlink:href="#BitstreamVeraSans-Roman-64"/>
      <use x="63.4765625" xlink:href="#BitstreamVeraSans-Roman-61"/>
      <use x="124.755859375" xlink:href="#BitstreamVeraSans-Roman-74"/>
      <use x="163.96484375" xlink:href="#BitstreamVeraSans-Roman-61"/>
      <use x="225.244140625" xlink:href="#BitstreamVeraSans-Roman-31"/>
     </g>
    </g>
   </g>
  </g>
 </g>
 <defs>
  <clipPath id="p2059d8b5c1">
   <rect height="518.4" width="502.2" x="81.0" y="64.8"/>
  </clipPath>
 </defs>
</svg>
