<?xml version="1.0" encoding="utf-8" standalone="no"?>
<!DOCTYPE svg PUBLIC "-//W3C//DTD SVG 1.1//EN"
  "http://www.w3.org/Graphics/SVG/1.1/DTD/svg11.dtd">
<!-- Created with matplotlib (http://matplotlib.org/) -->
<svg height="648pt" version="1.1" viewBox="0 0 648 648" width="648pt" xmlns="http://www.w3.org/2000/svg" xmlns:xlink="http://www.w3.org/1999/xlink">
 <defs>
  <style type="text/css">
*{stroke-linecap:butt;stroke-linejoin:round;stroke-miterlimit:100000;}
  </style>
 </defs>
 <g id="figure_1">
  <g id="patch_1">
   <path d="M 0 648 
L 648 648 
L 648 0 
L 0 0 
z
" style="fill:#ffffff;"/>
  </g>
  <g id="axes_1">
   <g id="patch_2">
    <path d="M 81 583.2 
L 583.2 583.2 
L 583.2 64.8 
L 81 64.8 
z
" style="fill:#ffffff;"/>
   </g>
   <g id="line2d_1">
    <path clip-path="url(#pc48508fb1a)" d="M 305.2044 583.2 
L 305.156346 583.197447 
L 305.156346 583.197447 
L 305.156346 583.197447 
L 308.523741 583.098354 
L 311.755956 582.888437 
L 317.407302 582.247155 
L 327.26705 580.291145 
L 344.381134 574.357133 
L 373.628815 556.651181 
L 421.275096 506.41416 
L 488.011896 383.792256 
L 542.193696 190.463616 
L 504.652572 119.75472 
L 379.337155 222.041952 
L 271.771718 283.855968 
L 213.02492 287.169408 
L 192.235068 276.647616 
L 198.603076 279.579168 
L 219.669138 300.036096 
L 242.469018 328.498848 
L 259.35845 357.020352 
L 268.643236 382.694976 
L 271.414264 404.86176 
L 268.990535 423.188064 
L 261.906836 436.932576 
L 249.78172 444.388896 
L 231.594602 442.04832 
L 206.51998 423.723744 
L 176.16132 381.893184 
L 148.867308 317.6928 
L 141.814188 259.39872 
L 167.825916 248.245344 
L 214.909733 280.790496 
L 258.638742 322.676352 
L 287.778283 358.327584 
L 304.212709 387.459072 
L 313.332005 411.89904 
L 319.5373 432.609984 
L 325.706548 449.870112 
L 333.84654 463.38048 
L 345.794436 471.928032 
L 363.662154 472.454208 
L 389.748766 458.353728 
L 424.96794 418.14576 
L 463.6764 342.168192 
L 485.621424 252.332064 
L 463.872816 216.981504 
L 403.958682 254.371968 
L 343.448158 306.817632 
L 302.812968 345.8592 
L 279.560729 373.574592 
L 265.449467 394.071264 
L 254.001204 408.457728 
L 241.222446 415.805184 
L 224.898379 413.585568 
L 204.439644 397.974816 
L 181.918764 366.015456 
L 163.876392 322.109568 
L 160.627716 284.808096 
L 178.244892 275.895072 
L 209.712967 295.525152 
L 240.877156 326.661984 
L 263.082877 357.468768 
L 275.404298 384.754752 
L 280.190822 408.387744 
L 279.732146 428.537088 
L 275.177527 445.061088 
L 266.499958 457.221888 
L 252.696488 463.097088 
L 232.084526 458.436672 
L 203.190282 435.177792 
L 167.613876 382.738176 
L 136.262088 302.527008 
L 132.404076 236.09232 
L 170.5032 235.941984 
L 229.104248 281.552544 
L 277.765643 327.134592 
L 307.9791 361.492416 
L 325.130245 387.782208 
L 336.274063 408.405888 
L 346.471848 423.734112 
L 358.977632 432.641088 
L 375.977437 432.30672 
L 398.65891 417.745728 
L 425.873016 382.9896 
L 451.04328 328.478112 
L 460.431072 275.0112 
L 442.103004 257.170464 
L 402.653743 280.235808 
L 362.287688 318.082464 
L 333.553813 353.352672 
L 317.043486 383.213376 
L 308.711463 408.724704 
L 304.73965 430.827552 
L 302.704292 450.082656 
L 301.287742 466.876224 
L 299.77025 481.503744 
L 297.649281 494.194176 
L 294.388686 505.074182 
L 289.221271 514.083283 
L 280.931735 520.724333 
L 267.573326 523.420013 
L 246.161304 517.898362 
L 212.794913 493.682688 
L 165.193272 429.892704 
L 113.066028 308.251872 
L 95.528088 184.949568 
L 153.215244 186.230016 
L 247.812872 262.518624 
L 319.809604 312.341184 
L 360.465818 333.644832 
L 381.102556 342.065376 
L 391.099572 345.333888 
L 395.681087 346.647168 
L 397.509318 347.38416 
L 397.959178 348.13152 
L 397.797134 349.06464 
L 397.489453 350.121312 
L 397.325066 351.117504 
L 397.45787 351.835488 
L 397.921345 352.093824 
L 398.642616 351.802656 
L 399.466112 350.998272 
L 400.190731 349.854336 
L 400.620168 348.64992 
L 400.618717 347.707296 
L 400.157251 347.296896 
L 399.331076 347.558688 
L 398.339845 348.454656 
L 397.43555 349.78176 
L 396.855454 351.22032 
L 396.762268 352.416096 
L 397.205096 353.055456 
L 398.105485 352.93968 
L 399.267241 352.0368 
L 400.411364 350.515296 
L 401.234749 348.731136 
L 401.49009 347.14656 
L 401.064448 346.212576 
L 400.028242 346.219488 
L 398.627104 347.207904 
L 397.216033 348.954912 
L 396.159851 351.044064 
L 395.739342 352.96992 
L 396.087534 354.254688 
L 397.161014 354.53808 
L 398.742833 353.667168 
L 400.472633 351.757728 
L 401.911715 349.219296 
L 402.645596 346.692096 
L 402.41079 344.886336 
L 401.200153 344.350656 
L 399.290454 345.287232 
L 397.16771 347.486112 
L 395.380325 350.415936 
L 394.388536 353.378592 
L 394.460741 355.668192 
L 395.627742 356.700672 
L 397.677834 356.1192 
L 400.177897 353.906496 
L 402.529532 350.463456 
L 404.085013 346.610016 
L 404.328301 343.41408 
L 403.07414 341.848512 
L 400.58055 342.431712 
L 397.489007 345.041856 
L 394.611178 349.016256 
L 392.679047 353.3976 
L 392.172048 357.18192 
L 393.249323 359.483616 
L 395.74615 359.65296 
L 399.187782 357.412608 
L 402.819469 353.024352 
L 405.700758 347.4144 
L 406.924452 342.086976 
L 405.947952 338.684544 
L 402.881965 338.327712 
L 398.521753 341.151264 
L 394.054405 346.353408 
L 390.63208 352.616544 
L 389.060417 358.533216 
L 389.69743 362.837664 
L 392.477386 364.502592 
L 396.943841 362.848032 
L 402.241604 357.771168 
L 407.131582 350.072928 
L 410.169557 341.644608 
L 410.164423 335.08944 
L 406.783055 332.660736 
L 400.870152 335.149056 
L 394.133195 341.662752 
L 388.39729 350.340768 
L 384.993155 359.188992 
L 384.571418 366.471648 
L 387.21154 370.744128 
L 392.547247 370.82448 
L 399.756272 365.965344 
L 407.433794 356.363712 
L 413.564652 343.85472 
L 415.937268 332.109504 
L 413.152513 325.381536 
L 405.667836 326.12112 
L 395.796704 333.67248 
L 386.488037 345.307968 
L 380.002068 358.046784 
L 377.449776 369.529344 
L 379.064182 377.929152 
L 384.592846 381.631392 
L 393.421968 379.109376 
L 404.349282 369.3168 
L 415.161425 352.832544 
L 422.517204 333.415872 
L 422.952444 318.02976 
L 415.134864 313.16544 
L 401.438084 320.093856 
L 386.615261 334.914048 
L 374.846148 352.634688 
L 368.198248 369.741888 
L 367.047652 384.092928 
L 371.081322 394.01424 
L 379.891919 397.63008 
L 392.937959 392.630976 
L 408.905352 376.861248 
L 424.643184 350.593056 
L 434.578932 320.311584 
L 432.695124 299.085696 
L 417.58002 297.286848 
L 395.083469 312.904512 
L 373.706935 336.498624 
L 358.695954 360.899712 
L 351.151682 383.017248 
L 350.215805 401.6088 
L 354.935257 415.6272 
L 364.980931 423.401472 
L 380.55047 422.000064 
L 401.599346 406.941408 
L 426.093984 373.836384 
L 447.323652 325.315008 
L 453.415896 280.892448 
L 435.740688 267.745824 
L 401.013446 288.401472 
L 365.846947 322.32816 
L 340.64923 355.250016 
L 326.347132 383.94432 
L 319.922543 408.748896 
L 318.433576 430.22448 
L 320.190606 448.672608 
L 324.698353 464.120928 
L 332.401097 476.160768 
L 344.56293 483.45984 
L 363.244324 482.668416 
L 390.982392 466.360416 
L 428.919696 421.210368 
L 470.627964 335.846304 
L 492.326352 237.791808 
L 463.728852 207.711648 
L 395.66803 254.95344 
L 331.663198 309.375072 
L 290.57855 346.10976 
L 267.385169 370.494432 
L 252.982296 387.174816 
L 240.927041 397.084896 
L 227.66193 399.112704 
L 211.824774 391.091328 
L 194.233266 371.17008 
L 178.5384 341.065728 
L 171.104724 310.182048 
L 177.571944 293.38416 
L 197.01445 298.281312 
L 221.351396 318.635424 
L 242.08623 344.149344 
L 255.321767 368.896896 
L 261.015487 390.747456 
L 260.386621 408.805056 
L 254.321384 422.057088 
L 242.932381 428.661504 
L 225.818186 425.285856 
L 202.999 406.832544 
L 176.994972 368.669664 
L 155.895876 315.392832 
L 153.117036 271.365984 
L 176.2506 264.740832 
L 214.864535 291.469536 
L 250.811899 327.659904 
L 275.154984 360.798624 
L 288.549439 389.211264 
L 294.696278 413.719488 
L 296.708649 435.021408 
L 296.355681 453.549888 
L 294.325041 469.580544 
L 290.566498 483.23952 
L 284.454835 494.381664 
L 274.758804 502.271798 
L 259.473622 504.774979 
L 235.699362 496.52784 
L 200.29549 465.658848 
L 153.754272 392.97312 
L 111.551616 275.769792 
L 112.781448 189.141696 
L 177.276204 214.849152 
L 259.385011 281.847168 
L 317.656505 325.826496 
L 368.742298 362.803104 
L 380.507058 369.315072 
L 390.265474 369.929376 
L 399.60684 364.751424 
L 408.196692 354.50352 
L 414.426316 341.53056 
L 416.277648 329.951232 
L 412.625984 324.128736 
L 404.324842 326.156544 
L 394.019028 334.8648 
L 384.745403 347.245056 
L 378.650146 360.300096 
L 376.68353 371.74032 
L 378.966643 379.781568 
L 385.186558 382.7952 
L 394.669991 379.226016 
L 406.092139 368.08992 
L 417.017556 350.285472 
L 423.855288 330.224256 
L 423.118728 315.456768 
L 413.892644 312.277248 
L 399.18767 321.020064 
L 384.081829 337.083552 
L 372.625531 355.408992 
L 366.591208 372.682944 
L 366.148379 386.905248 
L 370.91381 396.429984 
L 380.485519 399.308832 
L 394.315661 393.101856 
L 410.969282 375.596352 
L 426.96558 347.428224 
L 436.269672 316.166976 
L 432.741996 295.965792 
L 415.701792 296.627616 
L 392.014804 314.414784 
L 370.461384 339.153696 
L 355.874818 363.998016 
L 348.902719 386.258976 
L 348.47239 404.88336 
L 353.60811 418.892256 
L 364.052419 426.6 
L 380.11378 424.973088 
L 401.860825 409.2552 
L 427.27806 374.640768 
L 449.344728 323.714016 
L 455.409072 277.394976 
L 436.347792 264.72528 
L 399.7094 287.305056 
L 363.245886 322.616736 
L 337.490615 356.12784 
L 322.935966 385.055424 
L 316.187514 410.004288 
L 314.079836 431.661312 
L 314.756244 450.443808 
L 317.518456 466.57296 
L 322.508538 480.04704 
L 330.55501 490.428 
L 343.208441 496.300608 
L 362.849818 494.010144 
L 392.442901 475.180992 
L 433.461816 424.255968 
L 478.5192 327.818016 
L 499.422996 221.0112 
L 462.274704 198.96192 
L 385.283761 256.753152 
L 318.070206 311.604192 
L 276.815927 344.551104 
L 253.932347 364.363488 
L 239.801332 376.290144 
L 228.328405 381.465504 
L 216.63306 379.354752 
L 204.217002 369.289152 
L 192.597768 352.095552 
L 184.950936 331.913376 
L 184.757868 316.222272 
L 193.243374 311.781312 
L 207.703051 319.586688 
L 223.063898 335.278656 
L 235.048734 353.65248 
L 241.668623 371.211552 
L 242.655502 385.877952 
L 238.378766 396.008352 
L 229.242521 399.702816 
L 215.748072 394.5456 
L 199.181498 378.189216 
L 182.769156 350.755488 
L 172.365804 318.986208 
L 174.399156 296.825472 
L 190.370232 295.288416 
L 213.972851 311.90832 
L 236.192969 336.477888 
L 251.662849 361.594368 
L 259.426415 384.26832 
L 260.510162 403.393824 
L 255.961012 418.042944 
L 246.116887 426.654432 
L 230.690866 426.376224 
L 209.489209 412.604928 
L 184.113936 380.213568 
L 160.863192 330.18624 
L 152.064648 281.172384 
L 168.251112 263.462112 
L 204.005966 283.104288 
L 241.562045 318.214656 
L 268.935851 352.359072 
L 284.769659 381.877632 
L 292.349084 407.296512 
L 295.013267 429.35616 
L 294.815534 448.518816 
L 292.61659 465.054912 
L 288.424001 479.049984 
L 281.582698 490.25952 
L 270.767318 497.709706 
L 253.848758 498.7332 
L 227.901424 486.900288 
L 190.335636 448.907616 
L 144.021636 366.958944 
L 109.387692 251.747136 
L 125.133336 190.873152 
L 195.843654 232.720128 
L 271.718932 295.019712 
L 322.251523 334.31184 
L 350.479739 356.920992 
L 366.748452 370.3752 
L 378.447145 377.074656 
L 389.38082 377.05824 
L 400.721166 369.853344 
L 411.626272 355.93344 
L 419.65578 338.252544 
L 421.754976 322.727328 
L 416.234124 315.726336 
L 404.524606 319.735296 
L 390.660314 332.176032 
L 378.798685 348.479712 
L 371.402395 364.944096 
L 369.215705 379.189728 
L 372.096212 389.461824 
L 379.656554 393.977088 
L 391.350672 390.645504 
L 405.996498 377.497152 
L 420.893424 354.480192 
L 431.232048 326.61792 
L 431.46864 304.991136 
L 419.447088 299.955744 
L 399.408304 311.893632 
L 378.990302 333.072864 
L 363.777437 356.247072 
L 355.563788 377.746848 
L 353.927174 395.956512 
L 358.033385 409.671648 
L 367.47229 417.193632 
L 382.246679 415.747296 
L 402.059362 401.338368 
L 424.72242 370.480608 
L 443.915388 326.343168 
L 449.152776 286.471296 
L 433.17612 274.161024 
L 401.835715 292.140864 
L 369.591239 323.345952 
L 346.070981 354.717792 
L 332.702528 382.550688 
L 327.148085 406.68048 
L 326.952562 427.35168 
L 330.786914 444.53232 
L 338.520794 457.67808 
L 351.029034 465.2424 
L 369.960858 463.650912 
L 397.113138 445.709088 
L 432.214128 400.41648 
L 467.259876 323.110944 
L 480.632904 244.917216 
L 451.289916 227.100672 
L 392.690876 268.258176 
L 338.75627 316.830528 
L 303.744104 353.634336 
L 283.80577 381.116448 
L 271.431896 402.361344 
L 260.915382 418.107744 
L 248.621749 427.419072 
L 232.242106 427.709376 
L 210.604316 414.448704 
L 184.792464 382.326912 
L 160.812972 331.807104 
L 151.085916 281.233728 
L 166.771296 261.957024 
L 202.904474 281.286432 
L 241.308155 316.847808 
L 269.438386 351.42336 
L 285.795151 381.210624 
L 293.767353 406.810944 
L 296.837402 429.028704 
L 297.18796 448.370208 
L 295.81182 465.161184 
L 292.88722 479.601216 
L 288.010411 491.695488 
L 280.228766 501.052694 
L 267.9098 506.353594 
L 248.542848 504.083434 
L 218.847092 485.860032 
L 176.632272 435.107808 
L 128.299428 334.6488 
L 103.00194 216.79488 
L 140.15916 188.815104 
L 222.75778 251.055072 
L 295.148593 308.05056 
L 339.139951 339.293664 
L 363.045118 356.040576 
L 376.944563 364.9104 
L 386.962114 367.916256 
L 395.855071 365.47632 
L 404.135233 358.05024 
L 410.851433 347.169888 
L 414.32197 335.91888 
L 413.15575 328.234464 
L 407.345407 326.983392 
L 398.623198 332.391168 
L 389.650669 342.39888 
L 382.776332 354.223584 
L 379.36606 365.44608 
L 379.872054 374.175936 
L 384.172783 378.813888 
L 391.757231 377.899776 
L 401.606154 370.363104 
L 411.860966 356.38704 
L 419.6502 338.733792 
L 421.741584 323.17056 
L 416.336796 316.00368 
L 404.767224 319.776768 
L 390.985294 332.011872 
L 379.129356 348.180768 
L 371.684185 364.574304 
L 369.420826 378.793152 
L 372.212053 389.078208 
L 379.673294 393.649632 
L 391.257598 390.434688 
L 405.790819 377.4816 
L 420.603264 354.72384 
L 430.945236 327.085344 
L 431.320212 305.485344 
L 419.535252 300.238272 
L 399.709735 311.887584 
L 379.399093 332.85168 
L 364.195602 355.904064 
L 355.943117 377.333856 
L 354.256841 395.497728 
L 358.316068 409.173984 
L 367.705868 416.661408 
L 382.413632 415.19952 
L 402.120184 400.833792 
L 424.62198 370.155744 
L 443.630808 326.38896 
L 448.775568 286.922304 
L 432.921672 274.724352 
L 401.862164 292.505472 
L 369.877493 323.475552 
L 346.516934 354.698784 
L 333.24044 382.439232 
L 327.765902 406.492992 
L 327.680528 427.071744 
L 331.685518 444.111552 
L 339.676859 457.010208 
L 352.553044 464.111424 
L 371.961511 461.64816 
L 399.594787 442.18656 
L 434.787624 394.857504 
L 468.689472 316.767456 
L 479.176524 242.20512 
L 447.169644 229.96656 
L 388.664906 272.530656 
L 336.5159 320.095584 
L 303.114985 356.139936 
L 284.12941 383.327424 
L 272.217002 404.504064 
L 261.891101 420.297984 
L 249.64155 429.74064 
L 233.182001 430.214112 
L 211.275479 417.056256 
L 184.887324 384.59232 
L 160.003872 332.738496 
L 149.452092 280.001664 
L 165.199968 259.448832 
L 202.419461 279.271584 
L 242.091029 315.794592 
L 271.097543 350.951616 
L 287.992444 381.012768 
L 296.412954 406.759968 
L 300.056772 429.090048 
L 301.283992 448.559424 
L 301.283602 465.552576 
L 300.51441 480.374496 
L 299.014394 493.27056 
L 296.535837 504.412445 
L 292.545612 513.847584 
L 286.117787 521.349005 
L 275.719457 526.02264 
L 258.90223 525.284352 
L 232.077272 512.389584 
L 191.35566 471.81312 
L 138.063312 378.687744 
L 95.0058 237.985344 
L 113.147496 164.252448 
L 200.199737 222.195744 
L 289.430856 291.06 
L 345.674466 323.64576 
L 375.135973 335.880864 
L 389.216545 340.236288 
L 395.104561 342.179424 
L 396.718744 343.97568 
L 396.290646 346.38192 
L 395.21538 349.339392 
L 394.393334 352.376352 
L 394.347913 354.880224 
L 395.276537 356.27904 
L 397.08814 356.17536 
L 399.443458 354.463776 
L 401.812837 351.419904 
L 403.577791 347.734944 
L 404.192819 344.392128 
L 403.379813 342.385056 
L 401.267671 342.357408 
L 398.383927 344.367072 
L 395.485229 347.90688 
L 393.317399 352.111104 
L 392.421809 356.003424 
L 393.041747 358.682688 
L 395.103445 359.448192 
L 398.227687 357.921504 
L 401.75302 354.20544 
L 404.807958 349.015392 
L 406.487203 343.672416 
L 406.1466 339.764544 
L 403.706466 338.557536 
L 399.761741 340.462656 
L 395.382334 344.93904 
L 391.719956 350.81856 
L 389.663503 356.73696 
L 389.68348 361.41552 
L 391.827427 363.784608 
L 395.754073 363.084768 
L 400.737683 359.049024 
L 405.672746 352.197504 
L 409.1954 344.076768 
L 410.051149 337.062816 
L 407.656771 333.507456 
L 402.515024 334.616832 
L 396.087311 339.955488 
L 390.158561 347.92416 
L 386.178347 356.582304 
L 384.962688 364.160448 
L 386.733334 369.172512 
L 391.246326 370.397664 
L 397.821686 366.983136 
L 405.249894 358.845984 
L 411.726712 347.309856 
L 415.120691 335.47392 
L 413.799124 327.423168 
L 407.680207 326.140128 
L 398.562599 331.807968 
L 389.228152 342.218304 
L 382.107848 354.462048 
L 378.586534 366.058656 
L 379.102237 375.093504 
L 383.51903 379.945728 
L 391.325339 379.105056 
L 401.505268 371.417184 
L 412.173335 356.980608 
L 420.356628 338.58432 
L 422.643312 322.255584 
L 417.0834 314.692128 
L 405.041872 318.601728 
L 390.68375 331.321536 
L 378.352062 348.0624 
L 370.606464 364.99248 
L 368.196685 379.699488 
L 370.95566 390.442464 
L 378.490223 395.437248 
L 390.290472 392.543712 
L 405.252461 379.62864 
L 420.747228 356.33088 
L 431.904996 327.418848 
L 432.843552 304.262784 
L 420.951456 298.124064 
L 400.367952 309.90816 
L 379.09197 331.553952 
L 363.087749 355.351968 
L 354.27771 377.47296 
L 352.190455 396.328032 
L 355.906177 410.800032 
L 364.971668 419.302656 
L 379.438488 419.155776 
L 399.212446 406.29168 
L 422.519436 376.586496 
L 443.495772 331.668 
L 451.407096 287.957376 
L 437.3667 271.043712 
L 405.747742 287.169408 
L 371.636755 318.910176 
L 346.10089 351.323136 
L 331.197268 380.028672 
L 324.504058 404.907552 
L 323.26407 426.35808 
L 325.848503 444.54096 
L 331.855708 459.235008 
L 341.906515 469.52784 
L 357.486322 473.056416 
L 380.690752 464.540832 
L 413.108654 433.994976 
L 451.960632 369.391104 
L 482.164056 278.360064 
L 475.848612 219.154464 
L 424.575108 238.475232 
L 360.818809 291.59136 
L 313.65579 335.187072 
L 285.888114 365.935104 
L 258.070363 405.011232 
L 246.061645 414.938592 
L 231.026893 416.307168 
L 211.77634 405.586656 
L 189.287712 378.96336 
L 168.476544 337.303872 
L 158.999472 294.463296 
L 169.814628 274.392576 
L 198.511675 286.265664 
L 231.530879 315.729792 
L 257.366056 347.524128 
L 272.920752 376.187328 
L 280.023088 401.112864 
L 281.24946 422.531424 
L 278.201552 440.472384 
L 271.258693 454.50288 
L 259.747711 463.313088 
L 242.167028 463.807296 
L 216.695333 449.604 
L 182.98566 410.286816 
L 147.07836 338.599008 
L 128.0115 256.929408 
L 149.135148 225.653472 
L 204.426475 259.516224 
L 260.531143 308.995776 
L 298.718286 347.94576 
L 320.679972 376.974432 
L 333.810047 399.478176 
L 344.185945 416.582784 
L 355.750384 427.682592 
L 371.039918 430.596864 
L 391.574988 421.177536 
L 417.08898 393.75504 
L 443.077272 345.964608 
L 458.223624 290.963232 
L 449.075772 260.747424 
L 415.638738 272.480544 
L 375.162646 307.125216 
L 343.34582 343.166976 
L 323.952754 374.347008 
L 313.987487 400.991904 
L 309.587155 424.05552 
L 308.099326 444.148704 
L 308.137449 461.676672 
L 309.159303 476.947872 
L 311.131811 490.197312 
L 314.379962 501.555715 
L 319.592095 510.962515 
L 327.952944 517.911581 
L 341.389138 520.804771 
L 362.84926 515.342909 
L 396.146124 491.077728 
L 443.373012 427.475232 
L 494.621964 307.325664 
L 511.302816 186.869376 
L 454.25736 188.422848 
L 361.258736 263.365344 
L 290.315956 313.263936 
L 250.081477 335.47392 
L 229.38894 344.845728 
L 218.874434 348.627456 
L 213.360502 349.727328 
L 210.357457 349.464672 
L 208.771063 348.611904 
L 208.144429 347.726304 
L 208.251119 347.217408 
L 208.893154 347.324544 
L 209.828585 348.08832 
L 210.778189 349.354944 
L 211.474127 350.832384 
L 211.716634 352.16208 
L 211.41643 353.005344 
L 210.614695 353.12112 
L 209.478384 352.422144 
L 208.272992 351.0216 
L 207.308099 349.230528 
L 206.861364 347.503392 
L 207.095054 346.318848 
L 207.992988 346.034592 
L 209.350937 346.768992 
L 210.828298 348.367392 
L 212.044849 350.450496 
L 212.681304 352.517184 
L 212.554638 354.060288 
L 211.656593 354.670272 
L 210.159367 354.121632 
L 208.393186 352.4472 
L 206.791614 349.981344 
L 205.798151 347.321952 
L 205.739784 345.197376 
L 206.707021 344.2392 
L 208.496527 344.768832 
L 210.659335 346.68864 
L 212.636552 349.534656 
L 213.919394 352.623456 
L 214.171499 355.225824 
L 213.290417 356.697216 
L 211.42201 356.59872 
L 208.946164 354.799008 
L 206.433043 351.577152 
L 204.545999 347.65632 
L 203.873609 344.08368 
L 204.721434 341.926272 
L 206.958344 341.87616 
L 210.023104 343.999008 
L 213.108062 347.748768 
L 215.419968 352.207008 
L 216.385866 356.342112 
L 215.748965 359.206272 
L 213.583813 360.057312 
L 210.283801 358.484832 
L 206.539956 354.574368 
L 203.273201 349.068096 
L 201.45267 343.36224 
L 201.779993 339.164928 
L 204.354047 337.844736 
L 208.544069 339.846624 
L 213.20482 344.586528 
L 217.107248 350.815104 
L 219.310232 357.0912 
L 219.321058 362.074752 
L 217.088723 364.645152 
L 212.962424 363.988512 
L 207.689994 359.7912 
L 202.426603 352.55952 
L 198.621936 343.903104 
L 197.637401 336.365568 
L 200.129875 332.500032 
L 205.580308 333.62496 
L 212.422615 339.268608 
L 218.741854 347.702976 
L 222.997943 356.868288 
L 224.338594 364.915584 
L 222.537704 370.305216 
L 217.842134 371.754144 
L 210.935768 368.32752 
L 203.053126 359.85168 
L 196.080692 347.627808 
L 192.30984 334.91232 
L 193.557193 326.136672 
L 199.984126 324.602208 
L 209.681161 330.537888 
L 219.645367 341.537472 
L 227.26854 354.474144 
L 231.096978 366.75072 
L 230.694995 376.408512 
L 226.209568 381.787776 
L 218.138432 381.298752 
L 207.46445 373.618656 
L 196.07355 358.628256 
L 187.067988 339.025824 
L 184.178664 321.179904 
L 189.719604 312.532128 
L 202.401605 316.293984 
L 217.747721 329.619456 
L 231.017742 347.264064 
L 239.45247 365.128992 
L 242.298828 380.754432 
L 239.782471 392.427936 
L 232.31498 398.388672 
L 220.335948 396.415296 
L 204.785269 384.062688 
L 188.115912 360.33552 
L 175.270752 329.375808 
L 172.791 303.015168 
L 184.288032 294.421824 
L 205.931848 305.77392 
L 228.988966 328.351968 
L 246.656696 353.418336 
L 256.719222 376.776576 
L 259.753514 396.898272 
L 256.876132 412.85376 
L 248.658354 423.30384 
L 234.993827 425.837088 
L 215.615268 416.42208 
L 191.449404 389.939616 
L 167.167476 344.844864 
L 153.398268 293.896512 
L 162.174492 265.961664 
L 193.25777 276.361632 
L 231.101888 308.683872 
L 261.223733 343.356192 
L 279.699782 373.9392 
L 288.952092 400.287744 
L 292.387586 423.11808 
L 292.322524 442.902816 
L 289.795788 459.887328 
L 284.862175 474.06816 
L 276.800861 485.000352 
L 264.137832 491.250528 
L 244.589195 489.17952 
L 215.362717 470.592288 
L 175.254012 420.649632 
L 131.742288 327.371328 
L 111.910968 225.16272 
L 147.51918 203.252544 
L 221.424494 258.092352 
L 286.651235 312.315264 
L 327.084919 346.348224 
L 349.689053 367.769376 
L 363.858012 381.39552 
L 375.737944 388.120896 
L 388.393272 387.042624 
L 402.539242 376.822368 
L 416.69838 357.411744 
L 427.174272 332.680608 
L 429.217668 311.673312 
L 420.32538 304.05024 
L 403.236407 312.119136 
L 384.398327 330.258816 
L 369.402523 351.638496 
L 360.67172 372.12912 
L 358.303903 389.699424 
L 361.667416 402.946272 
L 370.307153 410.151168 
L 384.032837 408.741984 
L 402.296958 395.294688 
L 422.81406 367.250976 
L 439.801812 328.113504 
L 444.304872 293.08176 
L 430.3917 281.500704 
L 402.883304 296.4168 
L 373.937501 324.364608 
L 352.308863 353.693088 
L 339.939565 380.2464 
L 335.237188 403.28496 
L 336.268706 422.633376 
L 342.036529 437.790528 
L 352.642547 447.450048 
L 369.0473 448.74432 
L 392.455735 436.16448 
L 422.619876 401.493888 
L 453.874572 340.268256 
L 470.60676 271.251936 
L 454.456008 240.96528 
L 408.864506 265.199616 
L 359.69098 308.937024 
L 324.443236 347.543136 
L 303.856924 378.416448 
L 292.337255 403.78176 
L 284.646341 424.931616 
L 277.231525 442.153728 
L 267.661379 454.922784 
L 253.868288 461.50992 
L 233.752612 457.952832 
L 205.624501 436.625856 
L 170.658324 387.138528 
L 138.710592 309.241152 
L 132.035796 240.47712 
L 166.706568 234.767808 
L 224.202218 278.106048 
L 273.693582 324.178848 
L 304.963645 359.38944 
L 322.698816 386.403264 
L 333.923544 407.745792 
L 343.815433 423.957024 
L 355.727617 434.118528 
L 371.955596 435.6936 
L 393.950059 423.937152 
L 421.225992 392.432256 
L 448.368228 339.120864 
L 462.226716 280.897632 
L 448.524468 254.306304 
L 410.098133 272.74752 
L 367.347632 310.916448 
L 335.569979 347.589792 
L 316.792498 378.477792 
L 306.998973 404.665632 
L 301.966281 427.250592 
L 298.871591 446.84784 
L 296.062217 463.82544 
L 292.477871 478.387296 
L 287.170175 490.523904 
L 278.938447 499.782787 
L 266.011931 504.698861 
L 245.790457 501.425856 
L 215.018096 480.956832 
L 171.980784 426.181824 
L 124.725996 322.23744 
L 104.56992 209.952864 
L 147.68658 194.141664 
L 230.332072 258.291936 
L 299.32173 312.455232 
L 340.556044 342.309024 
L 363.044783 358.757856 
L 376.503408 367.592256 
L 386.69963 370.395072 
L 396.150253 367.354656 
L 405.158382 358.826976 
L 412.512152 346.466592 
L 416.21292 333.808128 
L 414.636124 325.414368 
L 407.833434 324.480384 
L 397.902038 330.996672 
L 387.921985 342.389376 
L 380.46465 355.504032 
L 376.905503 367.780608 
L 377.619185 377.288928 
L 382.42535 382.373568 
L 390.801712 381.431808 
L 401.71954 373.15728 
L 413.203961 357.538752 
L 422.036208 337.5432 
L 424.434492 319.849344 
L 418.231764 311.923008 
L 405.01319 316.579104 
L 389.466418 330.5664 
L 376.312014 348.54192 
L 368.166776 366.496704 
L 365.665486 382.059072 
L 368.533048 393.54768 
L 376.354757 399.178368 
L 388.692472 396.677088 
L 404.56679 383.560704 
L 421.397856 358.941888 
L 434.030976 327.389472 
L 435.805416 301.321728 
L 423.364248 293.869728 
L 401.052172 306.39168 
L 377.848634 329.622912 
L 360.394618 354.919104 
L 350.655062 378.317088 
L 347.916956 398.406816 
L 351.038074 414.295776 
L 359.476261 424.641312 
L 373.384188 426.987936 
L 393.070428 417.204864 
L 417.606804 390.02688 
L 442.192284 343.901376 
L 455.882256 292.146912 
L 446.412996 264.515328 
L 414.392166 276.014304 
L 375.964268 309.122784 
L 345.693103 344.07072 
L 327.244061 374.707296 
L 317.987622 401.056704 
L 314.419301 423.892224 
L 314.173246 443.721888 
L 316.153922 460.839456 
L 320.212926 475.343424 
L 326.919863 487.008288 
L 337.532018 494.900064 
L 354.101605 496.461312 
L 379.461924 485.53776 
L 416.166048 449.404416 
L 461.68434 370.731168 
L 496.898604 257.950656 
L 484.269948 193.597344 
L 416.587896 230.808096 
L 341.200868 292.974624 
L 290.016421 333.652608 
L 261.205207 357.598368 
L 244.58116 372.251808 
L 232.579138 380.020896 
L 221.182434 380.822688 
L 209.036002 373.896 
L 196.893587 359.284896 
L 187.350336 339.674688 
L 183.985596 321.441696 
L 189.180576 312.234048 
L 201.764704 315.578592 
L 217.259694 328.774464 
L 230.811282 346.5072 
L 239.544317 364.569984 
L 242.651261 380.45376 
L 240.351408 392.444352 
L 233.060134 398.79648 
L 221.200625 397.293984 
L 205.653406 385.438176 
L 188.76654 362.026368 
L 175.397976 330.83424 
L 172.190592 303.517152 
L 183.134088 293.741856 
L 204.733264 304.422624 
L 228.185446 326.938464 
L 246.389303 352.227744 
L 256.930927 375.884928 
L 260.351356 396.340128 
L 257.809889 412.697376 
L 249.927581 423.686592 
L 236.61437 426.996576 
L 217.541149 418.688352 
L 193.421041 393.522624 
L 168.517836 349.17696 
L 153.1494 296.95248 
L 159.959232 265.716288 
L 190.171584 273.606336 
L 228.661866 305.54064 
L 260.017895 340.70544 
L 279.555149 371.785248 
L 289.542791 398.51568 
L 293.516331 421.66656 
L 293.965041 441.768384 
L 292.084704 459.121824 
L 288.085853 473.833152 
L 281.436725 485.682912 
L 270.908939 493.755264 
L 254.482088 495.535104 
L 229.360259 484.979616 
L 193.005778 449.593632 
L 147.813804 372.242304 
L 112.383036 260.481312 
L 123.766236 194.786208 
L 190.190556 230.058144 
L 265.349362 292.108032 
L 316.79752 333.332928 
L 345.849901 357.815232 
L 362.613784 372.955104 
L 374.721602 381.172608 
L 386.277448 382.345056 
L 398.718169 375.598944 
L 411.343031 360.792576 
L 421.517268 340.454016 
L 425.45898 321.090048 
L 420.480504 310.88016 
L 407.59528 313.854912 
L 391.443746 327.303936 
L 377.182494 345.594816 
L 367.875389 364.291776 
L 364.36144 380.828736 
L 366.384301 393.514848 
L 373.50706 400.638528 
L 385.348378 399.968928 
L 401.155067 388.83024 
L 418.765212 365.550624 
L 433.394856 333.239616 
L 438.029604 303.5016 
L 427.837176 291.36672 
L 405.785351 301.17744 
L 381.082579 324.115776 
L 361.55403 350.247456 
L 349.959906 374.76432 
L 345.732833 396.093888 
L 347.560618 413.466336 
L 354.695875 425.804256 
L 367.203222 431.05392 
L 385.584412 425.503584 
L 409.677401 403.636608 
L 436.27302 361.180512 
L 455.928012 305.52336 
L 454.501764 265.04928 
L 426.677652 265.659264 
L 386.166406 296.623296 
L 351.055818 333.449568 
L 328.324795 366.067296 
L 316.128589 393.879456 
L 310.49838 417.875328 
L 308.389732 438.75648 
L 308.101101 456.971328 
L 308.897958 472.849056 
L 310.633104 486.641952 
L 313.546422 498.513226 
L 318.232361 508.459766 
L 325.741925 516.11377 
L 337.803095 520.220189 
L 357.107774 517.321901 
L 387.341888 498.802406 
L 431.484264 446.521248 
L 483.88158 338.884992 
L 513.158724 207.376416 
L 473.065308 176.730336 
L 382.052272 246.92256 
L 303.885809 305.011008 
L 257.520845 332.170848 
L 233.339692 343.769184 
L 221.009454 348.59376 
L 214.50362 350.163648 
L 210.870259 350.008992 
L 208.81827 348.996384 
L 207.84177 347.774688 
L 207.731844 346.868352 
L 208.319976 346.638528 
L 209.369351 347.226912 
L 210.568046 348.534144 
L 211.583606 350.26128 
L 212.136026 351.997056 
L 212.05958 353.313792 
L 211.336859 353.860704 
L 210.105464 353.443392 
L 208.638371 352.086048 
L 207.295376 350.059104 
L 206.444315 347.852448 
L 206.358494 346.061376 
L 207.120499 345.210336 
L 208.575094 345.580992 
L 210.363372 347.118912 
L 212.025989 349.458624 
L 213.132838 352.040256 
L 213.389183 354.24432 
L 212.695031 355.520448 
L 211.164325 355.48848 
L 209.112671 354.03696 
L 207.016042 351.396576 
L 205.423844 348.160032 
L 204.821986 345.180096 
L 205.46748 343.326816 
L 207.268592 343.185984 
L 209.784838 344.850912 
L 212.361682 347.912928 
L 214.334658 351.624672 
L 215.20391 355.116096 
L 214.729834 357.5664 
L 212.960862 358.334496 
L 210.226439 357.07392 
L 207.110455 353.866752 
L 204.380608 349.335936 
L 202.8316 344.618496 
L 203.03527 341.088192 
L 205.085585 339.869088 
L 208.498536 341.378496 
L 212.363132 345.210336 
L 215.663926 350.377056 
L 217.585231 355.663872 
L 217.67027 359.902656 
L 215.848624 362.10672 
L 212.41525 361.584864 
L 208.019214 358.1064 
L 203.643378 352.139616 
L 200.481527 345.024576 
L 199.62455 338.798592 
L 201.595183 335.494656 
L 206.00383 336.2256 
L 211.630032 340.73136 
L 216.924894 347.696064 
L 220.571424 355.408992 
L 221.779717 362.238912 
L 220.300794 366.795648 
L 216.338659 367.953408 
L 210.52017 364.972608 
L 203.950501 357.837696 
L 198.229774 347.754816 
L 195.196932 337.398048 
L 196.241396 330.228576 
L 201.459031 328.830624 
L 209.374708 333.527328 
L 217.625854 342.575136 
L 224.046425 353.460672 
L 227.307488 363.89088 
L 226.92046 372.02544 
L 222.969708 376.317792 
L 215.952858 375.414048 
L 206.870962 368.401824 
L 197.489866 355.5792 
L 190.43496 339.551136 
L 188.57124 325.472256 
L 193.448048 318.884256 
L 203.89604 322.113888 
L 216.440662 333.150624 
L 227.352686 348.017472 
L 234.271552 363.248928 
L 236.358918 376.468128 
L 233.65273 385.885728 
L 226.517472 389.756448 
L 215.565606 386.178624 
L 202.071827 373.578912 
L 188.696232 352.368576 
L 179.824032 327.497472 
L 180.168876 308.723616 
L 191.28312 304.655904 
L 209.330849 315.525888 
L 227.690053 334.848384 
L 241.408595 356.263488 
L 248.707458 376.2288 
L 249.766988 392.957568 
L 245.225426 405.037152 
L 235.462658 410.596128 
L 220.67231 406.847232 
L 201.641832 390.317184 
L 181.28934 359.218368 
L 166.272444 319.336128 
L 165.61512 288.134496 
L 183.318228 282.945312 
L 212.165154 302.040576 
L 239.952661 330.9552 
L 259.496388 359.8128 
L 269.980204 385.592832 
L 273.265819 407.820096 
L 271.128902 426.285504 
L 264.314718 440.349696 
L 252.5013 448.429824 
L 234.603673 447.156288 
L 209.544116 430.3152 
L 178.372116 389.584512 
L 148.753476 323.752896 
L 138.313296 259.45056 
L 162.620892 242.745984 
L 211.364312 274.95936 
L 258.089224 318.534336 
L 289.602497 355.210272 
L 307.554372 384.655392 
L 317.770225 409.011552 
L 325.093975 429.306048 
L 332.74103 445.653792 
L 342.99216 457.335072 
L 357.901362 462.272832 
L 379.570064 455.861952 
L 409.42206 429.611904 
L 445.11732 373.402656 
L 474.186888 292.379328 
L 472.926924 232.881696 
L 430.812432 240.983424 
L 372.642271 288.023904 
L 326.574684 332.107776 
L 298.545585 365.318208 
L 282.600043 390.972096 
L 271.926954 411.165504 
L 261.75919 426.101472 
L 249.01168 434.53152 
L 231.565586 433.4688 
L 208.285492 417.680928 
L 180.511488 381.03696 
L 155.343456 324.611712 
L 147.200004 271.184544 
L 167.710968 256.03776 
L 208.70879 281.608704 
L 249.294362 320.220864 
L 277.589538 355.404672 
L 293.68459 385.022592 
L 301.883675 410.291136 
L 306.049982 432.158976 
L 308.625531 451.17216 
L 311.002857 467.680608 
L 314.073118 481.90896 
L 318.648629 493.910784 
L 325.779757 503.403725 
L 337.047005 509.323248 
L 354.851557 508.731667 
L 382.483271 494.391168 
L 422.844192 451.024416 
L 472.334328 358.483968 
L 506.44152 233.445024 
L 481.77792 181.027008 
L 401.114891 236.423232 
L 322.395599 298.992384 
L 272.686615 333.440928 
L 245.700842 350.945568 
L 230.728252 359.897472 
L 220.920732 363.240288 
L 213.01655 361.865664 
L 206.080276 356.420736 
L 200.573708 348.217056 
L 197.61363 339.578784 
L 198.170068 333.379584 
L 202.296254 331.835616 
L 208.833894 335.423808 
L 215.858779 342.902592 
L 221.499378 352.211328 
L 224.503985 361.306656 
L 224.335692 368.464896 
L 221.013695 372.247488 
L 214.991982 371.475072 
L 207.206766 365.45904 
L 199.232834 354.6072 
L 193.283662 341.18928 
L 191.667024 329.380992 
L 195.608513 323.600832 
L 204.218118 325.88352 
L 214.76588 334.918368 
L 224.163158 347.584608 
L 230.267678 360.846144 
L 232.160303 372.411648 
L 229.747288 380.500416 
L 223.354282 383.46912 
L 213.660929 379.73232 
L 202.010893 368.273088 
L 190.895868 350.015904 
L 184.00122 329.522688 
L 184.901832 314.585856 
L 194.479902 311.61024 
L 209.570566 320.77728 
L 224.94514 337.257216 
L 236.513707 355.899744 
L 242.545352 373.3992 
L 242.922002 387.790848 
L 238.051444 397.440864 
L 228.330414 400.387968 
L 214.281871 394.133472 
L 197.320234 376.355808 
L 180.96012 347.59584 
L 171.387072 315.547488 
L 174.962736 294.829632 
L 192.423672 295.590816 
L 216.671227 313.855776 
L 238.664239 339.06816 
L 253.506481 364.270176 
L 260.6202 386.820576 
L 261.16146 405.736992 
L 256.154191 420.10272 
L 245.861881 428.301216 
L 229.928749 427.355136 
L 208.149563 412.458912 
L 182.277 378.386208 
L 159.055272 326.710368 
L 151.364916 277.737984 
L 169.466436 262.34064 
L 206.624437 284.26464 
L 244.424473 320.203584 
L 271.410804 354.372192 
L 286.832027 383.734368 
L 294.225694 408.994272 
L 296.977382 430.930368 
L 297.14659 450.024768 
L 295.637166 466.59456 
L 292.56849 480.82464 
L 287.489909 492.697728 
L 279.3969 501.771456 
L 266.58868 506.60329 
L 246.473672 503.391715 
L 215.744166 483.162624 
L 172.526508 428.63472 
L 124.593192 324.08208 
L 103.360176 209.411136 
L 146.239128 192.026592 
L 229.943369 256.948416 
L 300.022656 311.563584 
L 341.863772 341.114112 
L 364.573145 356.995296 
L 377.952311 365.301792 
L 387.789628 367.821216 
L 396.61105 364.932 
L 404.778272 357.158592 
L 411.25297 346.155552 
L 414.345182 335.117088 
L 412.75544 327.947616 
L 406.631502 327.309984 
L 397.822021 333.191232 
L 388.992341 343.419264 
L 382.409392 355.228416 
L 379.346306 366.25824 
L 380.193016 374.655456 
L 384.792052 378.838944 
L 392.597021 377.371008 
L 402.529644 369.257184 
L 412.64663 354.861216 
L 420.015132 337.215744 
L 421.464816 322.249536 
L 415.440871 316.060704 
L 403.556141 320.709024 
L 389.862263 333.410688 
L 378.377172 349.657344 
L 371.407864 365.877216 
L 369.614675 379.760832 
L 372.833554 389.566368 
L 380.670664 393.493248 
L 392.545685 389.460096 
L 407.183587 375.605856 
L 421.739352 352.204416 
L 431.320212 324.755136 
L 430.57584 304.445952 
L 417.85902 300.916512 
L 397.78151 313.703712 
L 377.863924 335.004768 
L 363.333492 357.92928 
L 355.75016 379.041984 
L 354.641861 396.77904 
L 359.214671 409.896288 
L 369.102431 416.606976 
L 384.294539 414.031392 
L 404.354862 398.170944 
L 426.760236 365.979168 
L 444.750156 321.871104 
L 447.893928 284.516064 
L 430.108236 275.747328 
L 398.495416 295.56144 
L 367.27141 326.79936 
L 345.066023 357.640704 
L 332.760337 384.93792 
L 327.978612 408.580416 
L 328.421329 428.745312 
L 332.935661 445.302144 
L 341.545489 457.5312 
L 355.25209 463.542048 
L 375.745756 459.13392 
L 404.543131 436.293216 
L 440.17344 384.32448 
L 471.95154 304.043328 
L 476.61084 236.365344 
L 439.031772 234.944928 
L 380.20864 280.452672 
L 331.028975 326.32416 
L 300.41147 360.842688 
L 283.02881 387.17568 
L 271.764241 407.78208 
L 261.498827 423.052416 
L 248.950188 431.855712 
L 231.934871 431.36496 
L 209.302168 416.627712 
L 182.275884 381.820608 
L 157.495104 327.692736 
L 148.58496 275.161536 
L 167.094936 258.109632 
L 206.23127 281.199168 
L 246.091331 318.73824 
L 274.420544 353.783808 
L 290.663478 383.531328 
L 298.787188 408.983904 
L 302.525609 431.053056 
L 304.229187 450.293472 
L 305.862684 481.756896 
L 306.740172 494.555328 
L 308.034743 505.704211 
L 310.06997 515.367187 
L 313.340219 523.618474 
L 318.65287 530.340048 
L 327.34238 534.94249 
L 341.587562 535.60967 
L 364.765097 527.355965 
L 401.272135 497.72664 
L 453.246264 422.013888 
L 507.298608 283.0464 
L 515.350548 162.63936 
L 440.453556 190.787616 
L 339.575972 271.61568 
L 269.775864 312.658272 
L 232.512624 325.536192 
L 215.63145 328.414176 
L 210.560681 330.200064 
L 212.024426 334.41984 
L 216.305402 341.472672 
L 220.669074 350.155008 
L 223.337876 358.799328 
L 223.415215 365.82624 
L 220.683136 369.873216 
L 215.434588 369.82656 
L 208.45278 365.015808 
L 201.1018 355.70448 
L 195.318464 343.727712 
L 193.186346 332.612352 
L 195.975788 326.352672 
L 203.199545 327.203712 
L 212.644811 334.520064 
L 221.517792 345.72528 
L 227.667622 357.975072 
L 230.019592 368.97552 
L 228.338449 376.931232 
L 222.875183 380.25936 
L 214.261114 377.508384 
L 203.723842 367.77024 
L 193.463114 351.78192 
L 186.695244 333.315648 
L 186.627168 319.000032 
L 194.358035 314.784576 
L 207.527058 321.692256 
L 221.638655 336.028608 
L 232.770532 353.10384 
L 238.959533 369.547488 
L 239.818072 383.233248 
L 235.62392 392.462496 
L 226.78866 395.36208 
L 213.925644 389.716704 
L 198.481543 373.660992 
L 183.709944 347.976864 
L 175.031928 319.471776 
L 177.87438 300.549312 
L 192.990265 300.152736 
L 214.537882 315.759168 
L 234.630122 338.59296 
L 248.526666 362.097216 
L 255.239518 383.33088 
L 255.522089 400.976352 
L 250.199996 413.843904 
L 239.550566 420.0768 
L 223.472689 416.582784 
L 202.366004 399.020256 
L 178.97364 364.147488 
L 160.74378 317.255616 
L 158.953716 279.373536 
L 179.402184 273.229632 
L 213.300014 296.136864 
L 245.433672 328.984416 
L 267.607811 360.366624 
L 279.679471 387.842688 
L 284.444233 411.625152 
L 284.363658 432.052704 
L 280.666238 449.171136 
L 273.409672 462.571776 
L 261.682186 470.95776 
L 243.760676 471.177216 
L 217.538024 456.519456 
L 182.31048 415.530432 
L 144.084132 339.214176 
L 123.395724 250.952256 
L 146.388672 218.370816 
L 206.211852 256.501728 
L 265.734716 308.354688 
L 305.491748 347.035968 
L 328.22536 374.717664 
L 342.07425 395.337888 
L 353.399418 409.93344 
L 366.141571 417.559968 
L 382.531147 415.658304 
L 403.239755 400.263552 
L 426.310488 368.060544 
L 445.202136 323.001216 
L 449.217504 283.879296 
L 431.638272 273.830112 
L 399.385202 293.637312 
L 367.210811 325.450656 
L 344.222996 356.812128 
L 331.371922 384.494688 
L 326.152278 408.476736 
L 326.113218 429.030432 
L 329.97335 446.14368 
L 337.641833 459.300672 
L 350.021956 467.005824 
L 368.80033 465.75648 
L 395.866454 448.40736 
L 431.177364 403.727328 
L 467.09694 326.018304 
L 481.98438 245.219616 
L 453.523032 224.738496 
L 394.194352 265.857984 
L 338.928469 315.211392 
L 302.925327 352.30896 
L 282.410546 379.7064 
L 269.690044 400.669632 
L 258.911492 415.971072 
L 246.383165 424.623168 
L 229.838576 423.985536 
L 208.286942 409.618944 
L 183.173148 376.814592 
L 160.881048 327.455136 
L 153.50094 280.77408 
L 170.561232 265.54608 
L 205.882297 285.851808 
L 242.234546 320.407488 
L 268.47617 353.935008 
L 283.507463 383.036256 
L 290.491837 408.150144 
L 292.567597 429.931584 
L 291.602257 448.767648 
L 288.271444 464.826816 
L 282.35218 477.983808 
L 272.86897 487.52928 
L 258.069247 491.440608 
L 235.416233 484.792128 
L 202.280407 457.117344 
L 159.372216 392.216256 
L 120.135888 287.9064 
L 117.798984 205.140384 
L 172.013148 218.7 
L 247.023302 279.731232 
L 303.397561 326.408832 
L 336.29404 355.165344 
L 354.965054 373.638528 
L 367.802514 384.954336 
L 379.766927 389.168064 
L 393.046992 385.05024 
L 407.608448 371.413728 
L 421.166844 349.216704 
L 429.362748 324.22896 
L 427.684284 306.740736 
L 415.233295 304.760448 
L 396.536054 317.318688 
L 378.34146 337.445568 
L 365.256472 359.03088 
L 358.70611 378.843264 
L 358.35111 395.23248 
L 363.546202 406.785888 
L 373.956808 411.545664 
L 389.401578 406.58112 
L 408.97912 388.3464 
L 429.428592 355.415904 
L 443.576124 314.818272 
L 442.29384 285.309216 
L 422.552916 283.23648 
L 392.807387 304.48224 
L 365.337828 334.063008 
L 346.604652 362.886912 
L 336.87715 388.45872 
L 334.129111 410.457888 
L 336.620916 428.702976 
L 343.697472 442.548576 
L 355.769802 450.378144 
L 374.003233 448.723584 
L 399.533742 431.160192 
L 431.271108 389.079072 
L 461.212272 321.444288 
L 471.059856 256.472352 
L 445.16196 241.44048 
L 395.048203 275.480352 
L 347.893409 319.561632 
L 316.456024 356.086368 
L 298.588506 385.226496 
L 288.258275 409.212 
L 280.558991 429.015744 
L 272.23497 444.62304 
L 260.951094 455.056704 
L 244.617095 457.758432 
L 221.264014 447.372288 
L 190.181628 414.92736 
L 155.712852 352.682208 
L 133.21764 274.798656 
L 144.968004 232.664832 
L 192.299796 254.159424 
L 246.998639 301.135104 
L 287.059021 341.956512 
L 310.687899 373.313664 
L 324.214344 398.208096 
L 333.719986 418.173408 
L 343.342361 433.234656 
L 355.857631 442.142496 
L 373.375706 441.88848 
L 397.31413 426.887712 
L 426.867372 389.71584 
L 455.243904 329.076864 
L 466.709688 267.730272 
L 446.438664 247.57488 
L 401.843974 274.63968 
L 356.92542 316.224864 
L 325.613585 352.957824 
L 307.625941 383.053536 
L 297.838711 408.285792 
L 291.686069 429.758784 
L 286.147249 447.89328 
L 279.206399 462.61584 
L 269.140637 473.171328 
L 253.995289 477.428256 
L 231.407114 470.444544 
L 199.358942 442.422432 
L 159.630012 380.096064 
L 125.90784 286.397856 
L 127.093032 217.336608 
L 176.77512 230.694048 
L 243.524308 285.286752 
L 294.284485 330.711552 
L 324.381074 361.846656 
L 353.968355 399.784032 
L 366.150611 408.718656 
L 380.985822 408.964032 
L 399.434864 397.3968 
L 420.14124 371.277216 
L 438.077592 333.045216 
L 444.599496 296.466048 
L 432.9585 281.422944 
L 406.556507 293.644224 
L 377.225906 320.746176 
L 354.516088 350.216352 
L 341.086032 377.158464 
L 335.574889 400.617792 
L 335.997072 420.412896 
L 341.2233 436.102272 
L 351.231476 446.498784 
L 366.897996 448.966368 
L 389.447222 438.355584 
L 418.937076 406.657152 
L 450.590184 348.270624 
L 469.985148 278.196768 
L 458.0406 241.537248 
L 414.761674 260.813952 
L 364.848239 304.05888 
L 327.802842 343.583424 
L 305.825778 375.229152 
L 293.594194 401.154336 
L 285.713125 422.788032 
L 278.462585 440.520768 
L 269.333482 453.947328 
L 256.25385 461.552256 
L 237.125833 459.765504 
L 210.104683 441.506592 
L 175.671396 396.345312 
L 142.048548 320.947488 
L 130.251312 246.699648 
L 159.550776 231.000768 
L 216.236322 270.948672 
L 268.199068 318.333024 
L 301.998712 354.981312 
L 321.235517 382.86864 
L 333.066791 404.829792 
L 342.992495 421.634592 
L 354.578584 432.529632 
L 370.224569 435.191616 
L 391.480351 425.17008 
L 418.144716 396.196704 
L 445.512384 345.330432 
L 461.340612 286.733088 
L 450.935028 255.690432 
L 414.721609 269.92224 
L 371.905488 306.974016 
L 338.9557 344.01456 
L 319.097596 375.428736 
L 308.693362 402.052896 
L 303.487223 425.01024 
L 300.560244 444.953952 
L 298.224077 462.288384 
L 295.469487 477.278784 
L 291.494452 490.04784 
L 285.3598 500.457226 
L 275.69524 507.780922 
L 260.403361 509.895043 
L 236.4588 501.381706 
L 200.500834 470.02032 
L 152.746524 395.48736 
L 108.94464 273.800736 
L 110.209068 183.848832 
L 177.633324 212.2632 
L 262.58436 281.327904 
L 322.133562 324.471744 
L 355.405093 346.359456 
L 373.422132 357.68736 
L 384.456917 362.77632 
L 392.82435 362.922336 
L 400.11529 358.718112 
L 406.244585 351.183168 
L 410.220781 342.315072 
L 410.917946 334.933056 
L 407.901175 331.647264 
L 401.940619 333.5904 
L 394.803688 340.015104 
L 388.480097 349.005024 
L 384.470644 358.437312 
L 383.54269 366.469056 
L 385.843435 371.568384 
L 391.060624 372.455712 
L 398.434705 368.217792 
L 406.617329 358.795872 
L 413.573134 345.769344 
L 416.900376 332.785152 
L 414.841021 324.514944 
L 407.518722 324.068256 
L 397.19003 331.183296 
L 387.034765 343.071936 
L 379.61437 356.50368 
L 376.237577 368.928 
L 377.217648 378.435456 
L 382.340758 383.361984 
L 391.065646 382.072896 
L 402.328987 373.232448 
L 414.069642 356.885568 
L 422.924544 336.235104 
L 424.991376 318.343392 
L 418.158108 310.864608 
L 404.282992 316.34064 
L 388.324192 331.0848 
L 375.067674 349.569216 
L 367.036045 367.819488 
L 364.752151 383.535648 
L 367.882754 395.074368 
L 376.008239 400.6368 
L 388.712002 397.881504 
L 405.021672 384.210432 
L 422.287308 358.674912 
L 435.143628 326.075328 
L 436.655808 299.481408 
L 423.446832 292.473504 
L 400.26249 305.957952 
L 376.489681 330.002208 
L 358.82262 355.802112 
L 349.064204 379.524096 
L 346.348418 399.88512 
L 349.458822 416.075616 
L 357.84545 426.817728 
L 371.709184 429.707808 
L 391.479458 420.579648 
L 416.45286 393.849216 
L 442.090728 347.119776 
L 457.349796 292.902048 
L 448.986492 262.227456 
L 416.556648 272.698272 
L 376.645586 306.532512 
L 344.91726 342.347904 
L 325.44652 373.527936 
L 315.459324 400.22208 
L 311.184732 423.335808 
L 310.014851 443.46096 
L 310.619623 460.984608 
L 312.560112 476.173728 
L 315.983732 489.174336 
L 321.514852 499.908931 
L 330.320538 507.806237 
L 344.308147 511.115616 
L 366.333188 505.271174 
L 399.868207 479.62368 
L 446.063688 414.700128 
L 493.466904 298.537056 
L 504.50526 191.489184 
L 447.25446 199.140768 
L 360.219964 269.402976 
L 294.50956 318.034944 
L 256.921664 342.591552 
L 236.774182 355.070304 
L 224.984534 360.916992 
L 216.578711 361.87776 
L 209.528158 358.658496 
L 203.602421 352.176768 
L 199.554354 344.151072 
L 198.387911 337.061088 
L 200.604622 333.354528 
L 205.681975 334.330848 
L 212.141383 339.609888 
L 218.164658 347.603616 
L 222.264284 356.35248 
L 223.593998 364.068864 
L 221.912633 369.246816 
L 217.450084 370.64736 
L 210.871487 367.388352 
L 203.37152 359.338464 
L 196.750069 347.761728 
L 193.163357 335.729664 
L 194.307815 327.379104 
L 200.339683 325.8144 
L 209.495905 331.324992 
L 218.968848 341.724096 
L 226.271171 354.064608 
L 229.970488 365.825376 
L 229.604328 375.071904 
L 225.296122 380.169504 
L 217.543158 379.590624 
L 207.334994 372.132576 
L 196.524079 357.797088 
L 188.072388 339.25392 
L 185.454252 322.50096 
L 190.759716 314.40528 
L 202.751359 317.938176 
L 217.268845 330.5448 
L 229.870048 347.372928 
L 237.895315 364.493952 
L 240.547936 379.452384 
L 237.987832 390.501216 
L 230.608728 395.86752 
L 218.900772 393.40944 
L 203.91066 380.921184 
L 188.176176 357.839424 
L 176.513976 328.623264 
L 174.935952 304.565184 
L 186.38946 297.413856 
L 206.988923 308.663136 
L 228.643675 330.284736 
L 245.132575 354.299616 
L 254.373502 376.70832 
L 256.81185 395.895168 
L 253.403363 410.773248 
L 244.637294 419.819328 
L 230.4603 420.434496 
L 210.881419 408.582144 
L 187.450776 379.898208 
L 165.69324 335.1672 
L 156.26862 289.790784 
L 168.839244 270.096768 
L 200.113247 284.605056 
L 234.977422 316.277568 
L 261.564001 349.13376 
L 277.323707 378.266112 
L 284.62882 403.504416 
L 286.362079 425.303136 
L 284.299265 443.88864 
L 278.975052 459.149472 
L 269.896727 470.3832 
L 255.696073 475.663968 
L 234.293202 470.510208 
L 203.670274 445.912128 
L 164.908692 388.875168 
L 129.666528 298.62864 
L 125.183556 223.3872 
L 169.101504 226.608192 
L 235.061122 279.013248 
L 287.923363 326.243808 
L 319.944082 359.085312 
L 338.217242 382.649184 
L 350.651491 399.676032 
L 362.533655 410.193504 
L 376.896463 412.478784 
L 395.072867 403.406784 
L 416.305548 379.569024 
L 436.302036 341.496864 
L 446.475492 300.884544 
L 438.323112 279.249984 
L 412.835569 287.24976 
L 381.72919 313.850592 
L 356.320548 344.40768 
L 340.541647 372.610368 
L 333.25506 397.268928 
L 332.198431 418.347072 
L 335.881343 435.665088 
L 343.980155 448.479936 
L 357.196943 454.937472 
L 376.916216 451.06416 
L 404.296495 429.579936 
L 437.637888 381.338496 
L 437.637888 381.338496 
" style="fill:none;stroke:#0000ff;stroke-linecap:square;"/>
   </g>
   <g id="patch_3">
    <path d="M 583.2 583.2 
L 583.2 64.8 
" style="fill:none;stroke:#000000;stroke-linecap:square;stroke-linejoin:miter;"/>
   </g>
   <g id="patch_4">
    <path d="M 81 64.8 
L 583.2 64.8 
" style="fill:none;stroke:#000000;stroke-linecap:square;stroke-linejoin:miter;"/>
   </g>
   <g id="patch_5">
    <path d="M 81 583.2 
L 81 64.8 
" style="fill:none;stroke:#000000;stroke-linecap:square;stroke-linejoin:miter;"/>
   </g>
   <g id="patch_6">
    <path d="M 81 583.2 
L 583.2 583.2 
" style="fill:none;stroke:#000000;stroke-linecap:square;stroke-linejoin:miter;"/>
   </g>
   <g id="matplotlib.axis_1">
    <g id="xtick_1">
     <g id="line2d_2">
      <path clip-path="url(#pc48508fb1a)" d="M 81 583.2 
L 81 64.8 
" style="fill:none;stroke:#000000;stroke-dasharray:1.000000,3.000000;stroke-dashoffset:0.0;stroke-width:0.5;"/>
     </g>
     <g id="line2d_3">
      <defs>
       <path d="M 0 0 
L 0 -4 
" id="m1e4315da7b" style="stroke:#000000;stroke-width:0.5;"/>
      </defs>
      <g>
       <use style="stroke:#000000;stroke-width:0.5;" x="81.0" xlink:href="#m1e4315da7b" y="583.2"/>
      </g>
     </g>
     <g id="line2d_4">
      <defs>
       <path d="M 0 0 
L 0 4 
" id="m59c0758993" style="stroke:#000000;stroke-width:0.5;"/>
      </defs>
      <g>
       <use style="stroke:#000000;stroke-width:0.5;" x="81.0" xlink:href="#m59c0758993" y="64.8"/>
      </g>
     </g>
     <g id="text_1">
      <!-- 20 -->
      <defs>
       <path d="M 19.1875 8.296875 
L 53.609375 8.296875 
L 53.609375 0 
L 7.328125 0 
L 7.328125 8.296875 
Q 12.9375 14.109375 22.625 23.890625 
Q 32.328125 33.6875 34.8125 36.53125 
Q 39.546875 41.84375 41.421875 45.53125 
Q 43.3125 49.21875 43.3125 52.78125 
Q 43.3125 58.59375 39.234375 62.25 
Q 35.15625 65.921875 28.609375 65.921875 
Q 23.96875 65.921875 18.8125 64.3125 
Q 13.671875 62.703125 7.8125 59.421875 
L 7.8125 69.390625 
Q 13.765625 71.78125 18.9375 73 
Q 24.125 74.21875 28.421875 74.21875 
Q 39.75 74.21875 46.484375 68.546875 
Q 53.21875 62.890625 53.21875 53.421875 
Q 53.21875 48.921875 51.53125 44.890625 
Q 49.859375 40.875 45.40625 35.40625 
Q 44.1875 33.984375 37.640625 27.21875 
Q 31.109375 20.453125 19.1875 8.296875 
" id="BitstreamVeraSans-Roman-32"/>
       <path d="M 10.59375 35.5 
L 73.1875 35.5 
L 73.1875 27.203125 
L 10.59375 27.203125 
z
" id="BitstreamVeraSans-Roman-2212"/>
       <path d="M 31.78125 66.40625 
Q 24.171875 66.40625 20.328125 58.90625 
Q 16.5 51.421875 16.5 36.375 
Q 16.5 21.390625 20.328125 13.890625 
Q 24.171875 6.390625 31.78125 6.390625 
Q 39.453125 6.390625 43.28125 13.890625 
Q 47.125 21.390625 47.125 36.375 
Q 47.125 51.421875 43.28125 58.90625 
Q 39.453125 66.40625 31.78125 66.40625 
M 31.78125 74.21875 
Q 44.046875 74.21875 50.515625 64.515625 
Q 56.984375 54.828125 56.984375 36.375 
Q 56.984375 17.96875 50.515625 8.265625 
Q 44.046875 -1.421875 31.78125 -1.421875 
Q 19.53125 -1.421875 13.0625 8.265625 
Q 6.59375 17.96875 6.59375 36.375 
Q 6.59375 54.828125 13.0625 64.515625 
Q 19.53125 74.21875 31.78125 74.21875 
" id="BitstreamVeraSans-Roman-30"/>
      </defs>
      <g transform="translate(68.3371875 596.318125)scale(0.12 -0.12)">
       <use xlink:href="#BitstreamVeraSans-Roman-2212"/>
       <use x="83.7890625" xlink:href="#BitstreamVeraSans-Roman-32"/>
       <use x="147.412109375" xlink:href="#BitstreamVeraSans-Roman-30"/>
      </g>
     </g>
    </g>
    <g id="xtick_2">
     <g id="line2d_5">
      <path clip-path="url(#pc48508fb1a)" d="M 136.8 583.2 
L 136.8 64.8 
" style="fill:none;stroke:#000000;stroke-dasharray:1.000000,3.000000;stroke-dashoffset:0.0;stroke-width:0.5;"/>
     </g>
     <g id="line2d_6">
      <g>
       <use style="stroke:#000000;stroke-width:0.5;" x="136.8" xlink:href="#m1e4315da7b" y="583.2"/>
      </g>
     </g>
     <g id="line2d_7">
      <g>
       <use style="stroke:#000000;stroke-width:0.5;" x="136.8" xlink:href="#m59c0758993" y="64.8"/>
      </g>
     </g>
     <g id="text_2">
      <!-- 15 -->
      <defs>
       <path d="M 10.796875 72.90625 
L 49.515625 72.90625 
L 49.515625 64.59375 
L 19.828125 64.59375 
L 19.828125 46.734375 
Q 21.96875 47.46875 24.109375 47.828125 
Q 26.265625 48.1875 28.421875 48.1875 
Q 40.625 48.1875 47.75 41.5 
Q 54.890625 34.8125 54.890625 23.390625 
Q 54.890625 11.625 47.5625 5.09375 
Q 40.234375 -1.421875 26.90625 -1.421875 
Q 22.3125 -1.421875 17.546875 -0.640625 
Q 12.796875 0.140625 7.71875 1.703125 
L 7.71875 11.625 
Q 12.109375 9.234375 16.796875 8.0625 
Q 21.484375 6.890625 26.703125 6.890625 
Q 35.15625 6.890625 40.078125 11.328125 
Q 45.015625 15.765625 45.015625 23.390625 
Q 45.015625 31 40.078125 35.4375 
Q 35.15625 39.890625 26.703125 39.890625 
Q 22.75 39.890625 18.8125 39.015625 
Q 14.890625 38.140625 10.796875 36.28125 
z
" id="BitstreamVeraSans-Roman-35"/>
       <path d="M 12.40625 8.296875 
L 28.515625 8.296875 
L 28.515625 63.921875 
L 10.984375 60.40625 
L 10.984375 69.390625 
L 28.421875 72.90625 
L 38.28125 72.90625 
L 38.28125 8.296875 
L 54.390625 8.296875 
L 54.390625 0 
L 12.40625 0 
z
" id="BitstreamVeraSans-Roman-31"/>
      </defs>
      <g transform="translate(124.1371875 596.318125)scale(0.12 -0.12)">
       <use xlink:href="#BitstreamVeraSans-Roman-2212"/>
       <use x="83.7890625" xlink:href="#BitstreamVeraSans-Roman-31"/>
       <use x="147.412109375" xlink:href="#BitstreamVeraSans-Roman-35"/>
      </g>
     </g>
    </g>
    <g id="xtick_3">
     <g id="line2d_8">
      <path clip-path="url(#pc48508fb1a)" d="M 192.6 583.2 
L 192.6 64.8 
" style="fill:none;stroke:#000000;stroke-dasharray:1.000000,3.000000;stroke-dashoffset:0.0;stroke-width:0.5;"/>
     </g>
     <g id="line2d_9">
      <g>
       <use style="stroke:#000000;stroke-width:0.5;" x="192.6" xlink:href="#m1e4315da7b" y="583.2"/>
      </g>
     </g>
     <g id="line2d_10">
      <g>
       <use style="stroke:#000000;stroke-width:0.5;" x="192.6" xlink:href="#m59c0758993" y="64.8"/>
      </g>
     </g>
     <g id="text_3">
      <!-- 10 -->
      <g transform="translate(179.9371875 596.318125)scale(0.12 -0.12)">
       <use xlink:href="#BitstreamVeraSans-Roman-2212"/>
       <use x="83.7890625" xlink:href="#BitstreamVeraSans-Roman-31"/>
       <use x="147.412109375" xlink:href="#BitstreamVeraSans-Roman-30"/>
      </g>
     </g>
    </g>
    <g id="xtick_4">
     <g id="line2d_11">
      <path clip-path="url(#pc48508fb1a)" d="M 248.4 583.2 
L 248.4 64.8 
" style="fill:none;stroke:#000000;stroke-dasharray:1.000000,3.000000;stroke-dashoffset:0.0;stroke-width:0.5;"/>
     </g>
     <g id="line2d_12">
      <g>
       <use style="stroke:#000000;stroke-width:0.5;" x="248.4" xlink:href="#m1e4315da7b" y="583.2"/>
      </g>
     </g>
     <g id="line2d_13">
      <g>
       <use style="stroke:#000000;stroke-width:0.5;" x="248.4" xlink:href="#m59c0758993" y="64.8"/>
      </g>
     </g>
     <g id="text_4">
      <!-- 5 -->
      <g transform="translate(239.5546875 596.318125)scale(0.12 -0.12)">
       <use xlink:href="#BitstreamVeraSans-Roman-2212"/>
       <use x="83.7890625" xlink:href="#BitstreamVeraSans-Roman-35"/>
      </g>
     </g>
    </g>
    <g id="xtick_5">
     <g id="line2d_14">
      <path clip-path="url(#pc48508fb1a)" d="M 304.2 583.2 
L 304.2 64.8 
" style="fill:none;stroke:#000000;stroke-dasharray:1.000000,3.000000;stroke-dashoffset:0.0;stroke-width:0.5;"/>
     </g>
     <g id="line2d_15">
      <g>
       <use style="stroke:#000000;stroke-width:0.5;" x="304.2" xlink:href="#m1e4315da7b" y="583.2"/>
      </g>
     </g>
     <g id="line2d_16">
      <g>
       <use style="stroke:#000000;stroke-width:0.5;" x="304.2" xlink:href="#m59c0758993" y="64.8"/>
      </g>
     </g>
     <g id="text_5">
      <!-- 0 -->
      <g transform="translate(300.3825 596.318125)scale(0.12 -0.12)">
       <use xlink:href="#BitstreamVeraSans-Roman-30"/>
      </g>
     </g>
    </g>
    <g id="xtick_6">
     <g id="line2d_17">
      <path clip-path="url(#pc48508fb1a)" d="M 360 583.2 
L 360 64.8 
" style="fill:none;stroke:#000000;stroke-dasharray:1.000000,3.000000;stroke-dashoffset:0.0;stroke-width:0.5;"/>
     </g>
     <g id="line2d_18">
      <g>
       <use style="stroke:#000000;stroke-width:0.5;" x="360.0" xlink:href="#m1e4315da7b" y="583.2"/>
      </g>
     </g>
     <g id="line2d_19">
      <g>
       <use style="stroke:#000000;stroke-width:0.5;" x="360.0" xlink:href="#m59c0758993" y="64.8"/>
      </g>
     </g>
     <g id="text_6">
      <!-- 5 -->
      <g transform="translate(356.1825 596.318125)scale(0.12 -0.12)">
       <use xlink:href="#BitstreamVeraSans-Roman-35"/>
      </g>
     </g>
    </g>
    <g id="xtick_7">
     <g id="line2d_20">
      <path clip-path="url(#pc48508fb1a)" d="M 415.8 583.2 
L 415.8 64.8 
" style="fill:none;stroke:#000000;stroke-dasharray:1.000000,3.000000;stroke-dashoffset:0.0;stroke-width:0.5;"/>
     </g>
     <g id="line2d_21">
      <g>
       <use style="stroke:#000000;stroke-width:0.5;" x="415.8" xlink:href="#m1e4315da7b" y="583.2"/>
      </g>
     </g>
     <g id="line2d_22">
      <g>
       <use style="stroke:#000000;stroke-width:0.5;" x="415.8" xlink:href="#m59c0758993" y="64.8"/>
      </g>
     </g>
     <g id="text_7">
      <!-- 10 -->
      <g transform="translate(408.165 596.318125)scale(0.12 -0.12)">
       <use xlink:href="#BitstreamVeraSans-Roman-31"/>
       <use x="63.623046875" xlink:href="#BitstreamVeraSans-Roman-30"/>
      </g>
     </g>
    </g>
    <g id="xtick_8">
     <g id="line2d_23">
      <path clip-path="url(#pc48508fb1a)" d="M 471.6 583.2 
L 471.6 64.8 
" style="fill:none;stroke:#000000;stroke-dasharray:1.000000,3.000000;stroke-dashoffset:0.0;stroke-width:0.5;"/>
     </g>
     <g id="line2d_24">
      <g>
       <use style="stroke:#000000;stroke-width:0.5;" x="471.6" xlink:href="#m1e4315da7b" y="583.2"/>
      </g>
     </g>
     <g id="line2d_25">
      <g>
       <use style="stroke:#000000;stroke-width:0.5;" x="471.6" xlink:href="#m59c0758993" y="64.8"/>
      </g>
     </g>
     <g id="text_8">
      <!-- 15 -->
      <g transform="translate(463.965 596.318125)scale(0.12 -0.12)">
       <use xlink:href="#BitstreamVeraSans-Roman-31"/>
       <use x="63.623046875" xlink:href="#BitstreamVeraSans-Roman-35"/>
      </g>
     </g>
    </g>
    <g id="xtick_9">
     <g id="line2d_26">
      <path clip-path="url(#pc48508fb1a)" d="M 527.4 583.2 
L 527.4 64.8 
" style="fill:none;stroke:#000000;stroke-dasharray:1.000000,3.000000;stroke-dashoffset:0.0;stroke-width:0.5;"/>
     </g>
     <g id="line2d_27">
      <g>
       <use style="stroke:#000000;stroke-width:0.5;" x="527.4" xlink:href="#m1e4315da7b" y="583.2"/>
      </g>
     </g>
     <g id="line2d_28">
      <g>
       <use style="stroke:#000000;stroke-width:0.5;" x="527.4" xlink:href="#m59c0758993" y="64.8"/>
      </g>
     </g>
     <g id="text_9">
      <!-- 20 -->
      <g transform="translate(519.765 596.318125)scale(0.12 -0.12)">
       <use xlink:href="#BitstreamVeraSans-Roman-32"/>
       <use x="63.623046875" xlink:href="#BitstreamVeraSans-Roman-30"/>
      </g>
     </g>
    </g>
    <g id="xtick_10">
     <g id="line2d_29">
      <path clip-path="url(#pc48508fb1a)" d="M 583.2 583.2 
L 583.2 64.8 
" style="fill:none;stroke:#000000;stroke-dasharray:1.000000,3.000000;stroke-dashoffset:0.0;stroke-width:0.5;"/>
     </g>
     <g id="line2d_30">
      <g>
       <use style="stroke:#000000;stroke-width:0.5;" x="583.2" xlink:href="#m1e4315da7b" y="583.2"/>
      </g>
     </g>
     <g id="line2d_31">
      <g>
       <use style="stroke:#000000;stroke-width:0.5;" x="583.2" xlink:href="#m59c0758993" y="64.8"/>
      </g>
     </g>
     <g id="text_10">
      <!-- 25 -->
      <g transform="translate(575.565 596.318125)scale(0.12 -0.12)">
       <use xlink:href="#BitstreamVeraSans-Roman-32"/>
       <use x="63.623046875" xlink:href="#BitstreamVeraSans-Roman-35"/>
      </g>
     </g>
    </g>
    <g id="text_11">
     <!-- x -->
     <defs>
      <path d="M 54.890625 54.6875 
L 35.109375 28.078125 
L 55.90625 0 
L 45.3125 0 
L 29.390625 21.484375 
L 13.484375 0 
L 2.875 0 
L 24.125 28.609375 
L 4.6875 54.6875 
L 15.28125 54.6875 
L 29.78125 35.203125 
L 44.28125 54.6875 
z
" id="BitstreamVeraSans-Roman-78"/>
     </defs>
     <g transform="translate(326.773125 617.4909375)scale(0.18 -0.18)">
      <use xlink:href="#BitstreamVeraSans-Roman-78"/>
     </g>
    </g>
   </g>
   <g id="matplotlib.axis_2">
    <g id="ytick_1">
     <g id="line2d_32">
      <path clip-path="url(#pc48508fb1a)" d="M 81 583.2 
L 583.2 583.2 
" style="fill:none;stroke:#000000;stroke-dasharray:1.000000,3.000000;stroke-dashoffset:0.0;stroke-width:0.5;"/>
     </g>
     <g id="line2d_33">
      <defs>
       <path d="M 0 0 
L 4 0 
" id="m8d087ad7a6" style="stroke:#000000;stroke-width:0.5;"/>
      </defs>
      <g>
       <use style="stroke:#000000;stroke-width:0.5;" x="81.0" xlink:href="#m8d087ad7a6" y="583.2"/>
      </g>
     </g>
     <g id="line2d_34">
      <defs>
       <path d="M 0 0 
L -4 0 
" id="m47222ab3f2" style="stroke:#000000;stroke-width:0.5;"/>
      </defs>
      <g>
       <use style="stroke:#000000;stroke-width:0.5;" x="583.2" xlink:href="#m47222ab3f2" y="583.2"/>
      </g>
     </g>
     <g id="text_12">
      <!-- 0 -->
      <g transform="translate(69.365 586.51125)scale(0.12 -0.12)">
       <use xlink:href="#BitstreamVeraSans-Roman-30"/>
      </g>
     </g>
    </g>
    <g id="ytick_2">
     <g id="line2d_35">
      <path clip-path="url(#pc48508fb1a)" d="M 81 496.8 
L 583.2 496.8 
" style="fill:none;stroke:#000000;stroke-dasharray:1.000000,3.000000;stroke-dashoffset:0.0;stroke-width:0.5;"/>
     </g>
     <g id="line2d_36">
      <g>
       <use style="stroke:#000000;stroke-width:0.5;" x="81.0" xlink:href="#m8d087ad7a6" y="496.8"/>
      </g>
     </g>
     <g id="line2d_37">
      <g>
       <use style="stroke:#000000;stroke-width:0.5;" x="583.2" xlink:href="#m47222ab3f2" y="496.8"/>
      </g>
     </g>
     <g id="text_13">
      <!-- 10 -->
      <g transform="translate(61.73 500.11125)scale(0.12 -0.12)">
       <use xlink:href="#BitstreamVeraSans-Roman-31"/>
       <use x="63.623046875" xlink:href="#BitstreamVeraSans-Roman-30"/>
      </g>
     </g>
    </g>
    <g id="ytick_3">
     <g id="line2d_38">
      <path clip-path="url(#pc48508fb1a)" d="M 81 410.4 
L 583.2 410.4 
" style="fill:none;stroke:#000000;stroke-dasharray:1.000000,3.000000;stroke-dashoffset:0.0;stroke-width:0.5;"/>
     </g>
     <g id="line2d_39">
      <g>
       <use style="stroke:#000000;stroke-width:0.5;" x="81.0" xlink:href="#m8d087ad7a6" y="410.4"/>
      </g>
     </g>
     <g id="line2d_40">
      <g>
       <use style="stroke:#000000;stroke-width:0.5;" x="583.2" xlink:href="#m47222ab3f2" y="410.4"/>
      </g>
     </g>
     <g id="text_14">
      <!-- 20 -->
      <g transform="translate(61.73 413.71125)scale(0.12 -0.12)">
       <use xlink:href="#BitstreamVeraSans-Roman-32"/>
       <use x="63.623046875" xlink:href="#BitstreamVeraSans-Roman-30"/>
      </g>
     </g>
    </g>
    <g id="ytick_4">
     <g id="line2d_41">
      <path clip-path="url(#pc48508fb1a)" d="M 81 324 
L 583.2 324 
" style="fill:none;stroke:#000000;stroke-dasharray:1.000000,3.000000;stroke-dashoffset:0.0;stroke-width:0.5;"/>
     </g>
     <g id="line2d_42">
      <g>
       <use style="stroke:#000000;stroke-width:0.5;" x="81.0" xlink:href="#m8d087ad7a6" y="324.0"/>
      </g>
     </g>
     <g id="line2d_43">
      <g>
       <use style="stroke:#000000;stroke-width:0.5;" x="583.2" xlink:href="#m47222ab3f2" y="324.0"/>
      </g>
     </g>
     <g id="text_15">
      <!-- 30 -->
      <defs>
       <path d="M 40.578125 39.3125 
Q 47.65625 37.796875 51.625 33 
Q 55.609375 28.21875 55.609375 21.1875 
Q 55.609375 10.40625 48.1875 4.484375 
Q 40.765625 -1.421875 27.09375 -1.421875 
Q 22.515625 -1.421875 17.65625 -0.515625 
Q 12.796875 0.390625 7.625 2.203125 
L 7.625 11.71875 
Q 11.71875 9.328125 16.59375 8.109375 
Q 21.484375 6.890625 26.8125 6.890625 
Q 36.078125 6.890625 40.9375 10.546875 
Q 45.796875 14.203125 45.796875 21.1875 
Q 45.796875 27.640625 41.28125 31.265625 
Q 36.765625 34.90625 28.71875 34.90625 
L 20.21875 34.90625 
L 20.21875 43.015625 
L 29.109375 43.015625 
Q 36.375 43.015625 40.234375 45.921875 
Q 44.09375 48.828125 44.09375 54.296875 
Q 44.09375 59.90625 40.109375 62.90625 
Q 36.140625 65.921875 28.71875 65.921875 
Q 24.65625 65.921875 20.015625 65.03125 
Q 15.375 64.15625 9.8125 62.3125 
L 9.8125 71.09375 
Q 15.4375 72.65625 20.34375 73.4375 
Q 25.25 74.21875 29.59375 74.21875 
Q 40.828125 74.21875 47.359375 69.109375 
Q 53.90625 64.015625 53.90625 55.328125 
Q 53.90625 49.265625 50.4375 45.09375 
Q 46.96875 40.921875 40.578125 39.3125 
" id="BitstreamVeraSans-Roman-33"/>
      </defs>
      <g transform="translate(61.73 327.31125)scale(0.12 -0.12)">
       <use xlink:href="#BitstreamVeraSans-Roman-33"/>
       <use x="63.623046875" xlink:href="#BitstreamVeraSans-Roman-30"/>
      </g>
     </g>
    </g>
    <g id="ytick_5">
     <g id="line2d_44">
      <path clip-path="url(#pc48508fb1a)" d="M 81 237.6 
L 583.2 237.6 
" style="fill:none;stroke:#000000;stroke-dasharray:1.000000,3.000000;stroke-dashoffset:0.0;stroke-width:0.5;"/>
     </g>
     <g id="line2d_45">
      <g>
       <use style="stroke:#000000;stroke-width:0.5;" x="81.0" xlink:href="#m8d087ad7a6" y="237.6"/>
      </g>
     </g>
     <g id="line2d_46">
      <g>
       <use style="stroke:#000000;stroke-width:0.5;" x="583.2" xlink:href="#m47222ab3f2" y="237.6"/>
      </g>
     </g>
     <g id="text_16">
      <!-- 40 -->
      <defs>
       <path d="M 37.796875 64.3125 
L 12.890625 25.390625 
L 37.796875 25.390625 
z
M 35.203125 72.90625 
L 47.609375 72.90625 
L 47.609375 25.390625 
L 58.015625 25.390625 
L 58.015625 17.1875 
L 47.609375 17.1875 
L 47.609375 0 
L 37.796875 0 
L 37.796875 17.1875 
L 4.890625 17.1875 
L 4.890625 26.703125 
z
" id="BitstreamVeraSans-Roman-34"/>
      </defs>
      <g transform="translate(61.73 240.91125)scale(0.12 -0.12)">
       <use xlink:href="#BitstreamVeraSans-Roman-34"/>
       <use x="63.623046875" xlink:href="#BitstreamVeraSans-Roman-30"/>
      </g>
     </g>
    </g>
    <g id="ytick_6">
     <g id="line2d_47">
      <path clip-path="url(#pc48508fb1a)" d="M 81 151.2 
L 583.2 151.2 
" style="fill:none;stroke:#000000;stroke-dasharray:1.000000,3.000000;stroke-dashoffset:0.0;stroke-width:0.5;"/>
     </g>
     <g id="line2d_48">
      <g>
       <use style="stroke:#000000;stroke-width:0.5;" x="81.0" xlink:href="#m8d087ad7a6" y="151.2"/>
      </g>
     </g>
     <g id="line2d_49">
      <g>
       <use style="stroke:#000000;stroke-width:0.5;" x="583.2" xlink:href="#m47222ab3f2" y="151.2"/>
      </g>
     </g>
     <g id="text_17">
      <!-- 50 -->
      <g transform="translate(61.73 154.51125)scale(0.12 -0.12)">
       <use xlink:href="#BitstreamVeraSans-Roman-35"/>
       <use x="63.623046875" xlink:href="#BitstreamVeraSans-Roman-30"/>
      </g>
     </g>
    </g>
    <g id="ytick_7">
     <g id="line2d_50">
      <path clip-path="url(#pc48508fb1a)" d="M 81 64.8 
L 583.2 64.8 
" style="fill:none;stroke:#000000;stroke-dasharray:1.000000,3.000000;stroke-dashoffset:0.0;stroke-width:0.5;"/>
     </g>
     <g id="line2d_51">
      <g>
       <use style="stroke:#000000;stroke-width:0.5;" x="81.0" xlink:href="#m8d087ad7a6" y="64.8"/>
      </g>
     </g>
     <g id="line2d_52">
      <g>
       <use style="stroke:#000000;stroke-width:0.5;" x="583.2" xlink:href="#m47222ab3f2" y="64.8"/>
      </g>
     </g>
     <g id="text_18">
      <!-- 60 -->
      <defs>
       <path d="M 33.015625 40.375 
Q 26.375 40.375 22.484375 35.828125 
Q 18.609375 31.296875 18.609375 23.390625 
Q 18.609375 15.53125 22.484375 10.953125 
Q 26.375 6.390625 33.015625 6.390625 
Q 39.65625 6.390625 43.53125 10.953125 
Q 47.40625 15.53125 47.40625 23.390625 
Q 47.40625 31.296875 43.53125 35.828125 
Q 39.65625 40.375 33.015625 40.375 
M 52.59375 71.296875 
L 52.59375 62.3125 
Q 48.875 64.0625 45.09375 64.984375 
Q 41.3125 65.921875 37.59375 65.921875 
Q 27.828125 65.921875 22.671875 59.328125 
Q 17.53125 52.734375 16.796875 39.40625 
Q 19.671875 43.65625 24.015625 45.921875 
Q 28.375 48.1875 33.59375 48.1875 
Q 44.578125 48.1875 50.953125 41.515625 
Q 57.328125 34.859375 57.328125 23.390625 
Q 57.328125 12.15625 50.6875 5.359375 
Q 44.046875 -1.421875 33.015625 -1.421875 
Q 20.359375 -1.421875 13.671875 8.265625 
Q 6.984375 17.96875 6.984375 36.375 
Q 6.984375 53.65625 15.1875 63.9375 
Q 23.390625 74.21875 37.203125 74.21875 
Q 40.921875 74.21875 44.703125 73.484375 
Q 48.484375 72.75 52.59375 71.296875 
" id="BitstreamVeraSans-Roman-36"/>
      </defs>
      <g transform="translate(61.73 68.11125)scale(0.12 -0.12)">
       <use xlink:href="#BitstreamVeraSans-Roman-36"/>
       <use x="63.623046875" xlink:href="#BitstreamVeraSans-Roman-30"/>
      </g>
     </g>
    </g>
    <g id="text_19">
     <!-- y -->
     <defs>
      <path d="M 32.171875 -5.078125 
Q 28.375 -14.84375 24.75 -17.8125 
Q 21.140625 -20.796875 15.09375 -20.796875 
L 7.90625 -20.796875 
L 7.90625 -13.28125 
L 13.1875 -13.28125 
Q 16.890625 -13.28125 18.9375 -11.515625 
Q 21 -9.765625 23.484375 -3.21875 
L 25.09375 0.875 
L 2.984375 54.6875 
L 12.5 54.6875 
L 29.59375 11.921875 
L 46.6875 54.6875 
L 56.203125 54.6875 
z
" id="BitstreamVeraSans-Roman-79"/>
     </defs>
     <g transform="translate(52.9865625 329.326875)rotate(-90.0)scale(0.18 -0.18)">
      <use xlink:href="#BitstreamVeraSans-Roman-79"/>
     </g>
    </g>
   </g>
   <g id="text_20">
    <!-- Data -->
    <defs>
     <path d="M 34.28125 27.484375 
Q 23.390625 27.484375 19.1875 25 
Q 14.984375 22.515625 14.984375 16.5 
Q 14.984375 11.71875 18.140625 8.90625 
Q 21.296875 6.109375 26.703125 6.109375 
Q 34.1875 6.109375 38.703125 11.40625 
Q 43.21875 16.703125 43.21875 25.484375 
L 43.21875 27.484375 
z
M 52.203125 31.203125 
L 52.203125 0 
L 43.21875 0 
L 43.21875 8.296875 
Q 40.140625 3.328125 35.546875 0.953125 
Q 30.953125 -1.421875 24.3125 -1.421875 
Q 15.921875 -1.421875 10.953125 3.296875 
Q 6 8.015625 6 15.921875 
Q 6 25.140625 12.171875 29.828125 
Q 18.359375 34.515625 30.609375 34.515625 
L 43.21875 34.515625 
L 43.21875 35.40625 
Q 43.21875 41.609375 39.140625 45 
Q 35.0625 48.390625 27.6875 48.390625 
Q 23 48.390625 18.546875 47.265625 
Q 14.109375 46.140625 10.015625 43.890625 
L 10.015625 52.203125 
Q 14.9375 54.109375 19.578125 55.046875 
Q 24.21875 56 28.609375 56 
Q 40.484375 56 46.34375 49.84375 
Q 52.203125 43.703125 52.203125 31.203125 
" id="BitstreamVeraSans-Roman-61"/>
     <path d="M 19.671875 64.796875 
L 19.671875 8.109375 
L 31.59375 8.109375 
Q 46.6875 8.109375 53.6875 14.9375 
Q 60.6875 21.78125 60.6875 36.53125 
Q 60.6875 51.171875 53.6875 57.984375 
Q 46.6875 64.796875 31.59375 64.796875 
z
M 9.8125 72.90625 
L 30.078125 72.90625 
Q 51.265625 72.90625 61.171875 64.09375 
Q 71.09375 55.28125 71.09375 36.53125 
Q 71.09375 17.671875 61.125 8.828125 
Q 51.171875 0 30.078125 0 
L 9.8125 0 
z
" id="BitstreamVeraSans-Roman-44"/>
     <path d="M 18.3125 70.21875 
L 18.3125 54.6875 
L 36.8125 54.6875 
L 36.8125 47.703125 
L 18.3125 47.703125 
L 18.3125 18.015625 
Q 18.3125 11.328125 20.140625 9.421875 
Q 21.96875 7.515625 27.59375 7.515625 
L 36.8125 7.515625 
L 36.8125 0 
L 27.59375 0 
Q 17.1875 0 13.234375 3.875 
Q 9.28125 7.765625 9.28125 18.015625 
L 9.28125 47.703125 
L 2.6875 47.703125 
L 2.6875 54.6875 
L 9.28125 54.6875 
L 9.28125 70.21875 
z
" id="BitstreamVeraSans-Roman-74"/>
    </defs>
    <g transform="translate(305.83578125 59.8)scale(0.22 -0.22)">
     <use xlink:href="#BitstreamVeraSans-Roman-44"/>
     <use x="77.001953125" xlink:href="#BitstreamVeraSans-Roman-61"/>
     <use x="138.28125" xlink:href="#BitstreamVeraSans-Roman-74"/>
     <use x="177.490234375" xlink:href="#BitstreamVeraSans-Roman-61"/>
    </g>
   </g>
   <g id="legend_1">
    <g id="patch_7">
     <path d="M 88.2 97.4565 
L 181.638 97.4565 
L 181.638 72 
L 88.2 72 
z
" style="fill:#ffffff;stroke:#000000;stroke-linejoin:miter;"/>
    </g>
    <g id="line2d_53">
     <path d="M 98.28 83.66175 
L 118.44 83.66175 
" style="fill:none;stroke:#0000ff;stroke-linecap:square;"/>
    </g>
    <g id="line2d_54"/>
    <g id="text_21">
     <!-- data1 -->
     <defs>
      <path d="M 45.40625 46.390625 
L 45.40625 75.984375 
L 54.390625 75.984375 
L 54.390625 0 
L 45.40625 0 
L 45.40625 8.203125 
Q 42.578125 3.328125 38.25 0.953125 
Q 33.9375 -1.421875 27.875 -1.421875 
Q 17.96875 -1.421875 11.734375 6.484375 
Q 5.515625 14.40625 5.515625 27.296875 
Q 5.515625 40.1875 11.734375 48.09375 
Q 17.96875 56 27.875 56 
Q 33.9375 56 38.25 53.625 
Q 42.578125 51.265625 45.40625 46.390625 
M 14.796875 27.296875 
Q 14.796875 17.390625 18.875 11.75 
Q 22.953125 6.109375 30.078125 6.109375 
Q 37.203125 6.109375 41.296875 11.75 
Q 45.40625 17.390625 45.40625 27.296875 
Q 45.40625 37.203125 41.296875 42.84375 
Q 37.203125 48.484375 30.078125 48.484375 
Q 22.953125 48.484375 18.875 42.84375 
Q 14.796875 37.203125 14.796875 27.296875 
" id="BitstreamVeraSans-Roman-64"/>
     </defs>
     <g transform="translate(134.28 88.70175)scale(0.144 -0.144)">
      <use xlink:href="#BitstreamVeraSans-Roman-64"/>
      <use x="63.4765625" xlink:href="#BitstreamVeraSans-Roman-61"/>
      <use x="124.755859375" xlink:href="#BitstreamVeraSans-Roman-74"/>
      <use x="163.96484375" xlink:href="#BitstreamVeraSans-Roman-61"/>
      <use x="225.244140625" xlink:href="#BitstreamVeraSans-Roman-31"/>
     </g>
    </g>
   </g>
  </g>
 </g>
 <defs>
  <clipPath id="pc48508fb1a">
   <rect height="518.4" width="502.2" x="81.0" y="64.8"/>
  </clipPath>
 </defs>
</svg>
