<?xml version="1.0" encoding="utf-8" standalone="no"?>
<!DOCTYPE svg PUBLIC "-//W3C//DTD SVG 1.1//EN"
  "http://www.w3.org/Graphics/SVG/1.1/DTD/svg11.dtd">
<!-- Created with matplotlib (http://matplotlib.org/) -->
<svg height="648pt" version="1.1" viewBox="0 0 648 648" width="648pt" xmlns="http://www.w3.org/2000/svg" xmlns:xlink="http://www.w3.org/1999/xlink">
 <defs>
  <style type="text/css">
*{stroke-linecap:butt;stroke-linejoin:round;stroke-miterlimit:100000;}
  </style>
 </defs>
 <g id="figure_1">
  <g id="patch_1">
   <path d="M 0 648 
L 648 648 
L 648 0 
L 0 0 
z
" style="fill:#ffffff;"/>
  </g>
  <g id="axes_1">
   <g id="patch_2">
    <path d="M 81 583.2 
L 583.2 583.2 
L 583.2 64.8 
L 81 64.8 
z
" style="fill:#ffffff;"/>
   </g>
   <g id="line2d_1">
    <path clip-path="url(#p9b91746e71)" d="M 332.33436 583.2 
L 339.169787 583.098354 
L 344.464248 582.888437 
L 353.703305 582.247155 
L 369.769352 580.291145 
L 397.384996 574.357133 
L 443.165715 556.651181 
L 510.681483 506.41416 
L 574.276743 383.792256 
L 527.634918 190.463616 
L 321.695504 119.75472 
L 198.764226 222.041952 
L 192.266595 283.855968 
L 212.533713 287.169408 
L 243.993195 276.647616 
L 279.055292 279.579168 
L 304.454057 300.036096 
L 315.604906 328.498848 
L 316.837975 357.020352 
L 313.12814 382.694976 
L 306.760578 404.86176 
L 297.861762 423.188064 
L 285.415321 436.932576 
L 267.925117 444.388896 
L 244.204119 442.04832 
L 215.443125 423.723744 
L 189.98577 381.893184 
L 188.136837 317.6928 
L 229.236885 259.39872 
L 293.937404 248.245344 
L 337.430711 280.790496 
L 350.837166 322.676352 
L 350.796739 358.327584 
L 348.938264 387.459072 
L 349.172875 411.89904 
L 352.339916 432.609984 
L 358.826414 449.870112 
L 369.50712 463.38048 
L 385.987901 471.928032 
L 410.387205 472.454208 
L 443.882187 458.353728 
L 481.601592 418.14576 
L 501.770781 342.168192 
L 465.964758 252.332064 
L 376.888707 216.981504 
L 308.154351 254.371968 
L 287.704348 306.817632 
L 287.714643 345.8592 
L 288.822245 373.574592 
L 285.461105 394.071264 
L 276.775472 408.457728 
L 262.844779 415.805184 
L 244.289493 413.585568 
L 223.726077 397.974816 
L 208.382193 366.015456 
L 210.611961 322.109568 
L 238.455603 284.808096 
L 279.86057 275.895072 
L 311.22589 295.525152 
L 324.16971 326.661984 
L 325.244928 357.468768 
L 321.55832 384.754752 
L 316.140251 408.387744 
L 309.262706 428.537088 
L 299.936099 445.061088 
L 286.54594 457.221888 
L 267.088285 463.097088 
L 239.806521 458.436672 
L 205.748154 435.177792 
L 175.621176 382.738176 
L 177.559668 302.527008 
L 236.343852 236.09232 
L 316.253163 235.941984 
L 359.320412 281.552544 
L 368.072084 327.134592 
L 366.661823 361.492416 
L 366.660065 387.782208 
L 371.084279 408.405888 
L 380.563388 423.734112 
L 395.568957 432.641088 
L 416.458719 432.30672 
L 441.857484 417.745728 
L 464.934411 382.9896 
L 469.686897 328.478112 
L 439.385823 275.0112 
L 384.553116 257.170464 
L 341.378815 280.235808 
L 324.461396 318.082464 
L 322.826375 353.352672 
L 327.642063 408.724704 
L 328.699972 430.827552 
L 328.697704 450.082656 
L 327.830103 466.876224 
L 326.073625 481.503744 
L 323.129787 494.194176 
L 318.366002 505.074182 
L 310.677822 514.083283 
L 298.244354 520.724333 
L 278.213689 523.420013 
L 246.658203 517.898362 
L 200.458314 493.682688 
L 146.818332 429.892704 
L 128.102175 308.251872 
L 215.650701 184.949568 
L 357.423184 186.230016 
L 418.307652 262.518624 
L 421.260588 312.341184 
L 414.501813 333.644832 
L 409.522416 342.065376 
L 406.556758 345.333888 
L 404.679367 346.647168 
L 403.354731 347.38416 
L 402.407749 348.13152 
L 401.83817 349.06464 
L 401.683995 350.121312 
L 401.944302 351.117504 
L 402.547026 351.835488 
L 403.348035 352.093824 
L 404.151387 351.802656 
L 404.74616 350.998272 
L 404.955912 349.854336 
L 404.691587 348.64992 
L 403.988423 347.707296 
L 403.008882 347.296896 
L 402.002557 347.558688 
L 401.23461 348.454656 
L 400.912532 349.78176 
L 401.134337 351.22032 
L 401.869223 352.416096 
L 402.965275 353.055456 
L 404.175326 352.93968 
L 405.200734 352.0368 
L 405.75533 350.515296 
L 405.64493 348.731136 
L 404.841745 347.14656 
L 403.518281 346.212576 
L 402.010676 346.219488 
L 400.718264 347.207904 
L 399.984467 348.954912 
L 400.007819 351.044064 
L 400.806484 352.96992 
L 402.224864 354.254688 
L 403.961639 354.53808 
L 405.613877 353.667168 
L 406.745418 351.757728 
L 406.993337 349.219296 
L 406.196178 346.692096 
L 404.49054 344.886336 
L 402.304965 344.350656 
L 400.228871 345.287232 
L 398.817186 347.486112 
L 398.431748 350.415936 
L 399.177264 353.378592 
L 400.914206 355.668192 
L 403.297898 356.700672 
L 405.818105 356.1192 
L 407.857372 353.906496 
L 408.806112 350.463456 
L 408.254696 346.610016 
L 406.200782 343.41408 
L 403.138701 341.848512 
L 399.917925 342.431712 
L 397.426846 345.041856 
L 396.295138 349.016256 
L 396.769968 353.3976 
L 398.749557 357.18192 
L 401.861774 359.483616 
L 405.508332 359.65296 
L 408.887217 357.412608 
L 411.072206 353.024352 
L 411.242284 347.4144 
L 409.051771 342.086976 
L 404.941181 338.684544 
L 400.084823 338.327712 
L 395.904929 341.151264 
L 393.490351 346.353408 
L 393.321612 352.616544 
L 395.347989 358.533216 
L 399.175088 362.837664 
L 404.156995 364.502592 
L 409.364809 362.848032 
L 413.550563 357.771168 
L 415.308765 350.072928 
L 413.594756 341.644608 
L 408.451642 335.08944 
L 401.339067 332.660736 
L 394.528733 335.149056 
L 389.95411 341.662752 
L 388.514637 350.340768 
L 390.200104 359.188992 
L 394.544552 366.471648 
L 400.888343 370.744128 
L 408.317555 370.82448 
L 415.426196 365.965344 
L 420.195087 356.363712 
L 420.419403 343.85472 
L 414.943582 332.109504 
L 405.015004 325.381536 
L 394.111489 326.12112 
L 385.835567 333.67248 
L 382.005539 345.307968 
L 382.633791 358.046784 
L 386.981002 369.529344 
L 394.297386 377.929152 
L 403.864296 381.631392 
L 414.550694 379.109376 
L 424.193436 369.3168 
L 429.33429 352.832544 
L 426.314394 333.415872 
L 414.23029 318.02976 
L 397.260283 313.16544 
L 382.278234 320.093856 
L 373.689275 334.914048 
L 371.816738 352.634688 
L 375.11728 369.741888 
L 382.275388 384.092928 
L 392.708593 394.01424 
L 406.08402 397.63008 
L 421.355169 392.630976 
L 435.460293 376.861248 
L 442.407393 350.593056 
L 435.255228 320.311584 
L 413.052799 299.085696 
L 385.706921 297.286848 
L 365.749576 312.904512 
L 357.264991 336.498624 
L 357.284995 360.899712 
L 362.220784 383.017248 
L 370.453851 401.6088 
L 382.013323 415.6272 
L 397.653756 423.401472 
L 417.807126 422.000064 
L 440.796168 406.941408 
L 459.752544 373.836384 
L 460.777032 325.315008 
L 432.115641 280.892448 
L 385.120351 267.745824 
L 348.522358 288.401472 
L 333.532693 322.32816 
L 332.01563 355.250016 
L 335.163838 383.94432 
L 339.247419 408.748896 
L 343.697472 430.22448 
L 349.189448 448.672608 
L 356.894535 464.120928 
L 368.407637 476.160768 
L 385.890726 483.45984 
L 411.969051 482.668416 
L 448.243794 466.360416 
L 489.379833 421.210368 
L 509.804307 335.846304 
L 464.551065 237.791808 
L 363.078709 207.711648 
L 293.712167 254.95344 
L 277.160073 309.375072 
L 278.681488 346.10976 
L 279.51288 370.494432 
L 275.321268 387.174816 
L 266.016423 397.084896 
L 252.54541 399.112704 
L 236.94984 391.091328 
L 223.644888 371.17008 
L 220.038255 341.065728 
L 232.913826 310.182048 
L 259.896446 293.38416 
L 287.653626 298.281312 
L 304.725497 318.635424 
L 310.164825 344.149344 
L 308.243324 368.896896 
L 302.272082 390.747456 
L 293.293332 408.805056 
L 280.869071 422.057088 
L 264.021015 428.661504 
L 242.309151 425.285856 
L 217.907253 406.832544 
L 199.228761 368.669664 
L 202.417731 315.392832 
L 238.37274 271.365984 
L 289.366044 264.740832 
L 324.149345 291.469536 
L 336.087292 327.659904 
L 336.155382 360.798624 
L 333.042973 389.211264 
L 327.108609 435.021408 
L 324.122193 453.549888 
L 320.183045 469.580544 
L 314.343464 483.23952 
L 305.285366 494.381664 
L 291.045317 502.271798 
L 268.788399 504.774979 
L 235.202184 496.52784 
L 189.718767 465.658848 
L 146.265912 392.97312 
L 152.517465 275.769792 
L 252.233962 189.141696 
L 364.399495 214.849152 
L 403.700914 281.847168 
L 404.340633 325.826496 
L 400.527094 349.572672 
L 400.570618 362.803104 
L 404.53783 369.315072 
L 410.816251 369.929376 
L 417.270609 364.751424 
L 421.351821 354.50352 
L 420.608565 341.53056 
L 414.019031 329.951232 
L 403.265758 324.128736 
L 392.172578 326.156544 
L 384.285778 334.8648 
L 381.111707 347.245056 
L 382.415418 360.300096 
L 387.377907 371.74032 
L 395.258932 379.781568 
L 405.332813 382.7952 
L 416.367486 379.226016 
L 425.964528 368.08992 
L 430.373844 350.285472 
L 425.90259 330.224256 
L 412.229693 315.456768 
L 394.443778 312.277248 
L 379.72145 321.020064 
L 371.970746 337.083552 
L 370.956637 355.408992 
L 374.946867 372.682944 
L 382.687108 386.905248 
L 393.702865 396.429984 
L 407.702778 399.308832 
L 423.529695 393.101856 
L 437.76288 375.596352 
L 443.834478 347.428224 
L 434.585628 316.166976 
L 410.097184 295.965792 
L 381.896813 296.627616 
L 362.631751 314.414784 
L 355.235684 339.153696 
L 356.017442 363.998016 
L 361.353234 386.258976 
L 369.81363 404.88336 
L 381.60244 418.892256 
L 397.609981 426.6 
L 418.380471 424.973088 
L 442.266777 409.2552 
L 462.091122 374.640768 
L 462.988386 323.714016 
L 432.300618 277.394976 
L 382.680914 264.72528 
L 345.083042 287.305056 
L 330.389038 322.616736 
L 329.194522 356.12784 
L 332.22888 385.055424 
L 335.736146 410.004288 
L 339.129653 431.661312 
L 342.95363 450.443808 
L 348.110471 466.57296 
L 355.778563 480.04704 
L 367.604033 490.428 
L 385.94354 496.300608 
L 413.804927 494.010144 
L 453.218085 475.180992 
L 498.255381 424.255968 
L 518.549283 327.818016 
L 461.237382 221.0112 
L 346.109455 198.96192 
L 277.838797 256.753152 
L 265.782398 311.604192 
L 268.819033 344.551104 
L 269.821425 364.363488 
L 265.986793 376.290144 
L 258.136151 381.465504 
L 248.078592 379.354752 
L 238.591197 369.289152 
L 233.637831 352.095552 
L 237.231072 331.913376 
L 250.259479 316.222272 
L 268.103482 311.781312 
L 283.470467 319.586688 
L 291.979828 335.278656 
L 293.579921 353.65248 
L 289.998147 371.211552 
L 282.579983 385.877952 
L 271.854749 396.008352 
L 258.079152 399.702816 
L 242.249724 394.5456 
L 227.495088 378.189216 
L 220.127814 350.755488 
L 227.62566 318.986208 
L 251.08836 296.825472 
L 279.816293 295.288416 
L 300.440642 311.90832 
L 308.959043 336.477888 
L 308.811061 361.594368 
L 303.845726 384.26832 
L 295.721385 403.393824 
L 284.351828 418.042944 
L 268.857368 426.654432 
L 248.555347 426.376224 
L 224.660169 412.604928 
L 203.497461 380.213568 
L 199.291536 330.18624 
L 226.386063 281.172384 
L 275.846234 263.462112 
L 316.381726 283.104288 
L 333.54431 318.214656 
L 335.731325 352.359072 
L 332.935793 381.877632 
L 329.515419 407.296512 
L 326.312413 429.35616 
L 322.883793 448.518816 
L 318.409107 465.054912 
L 311.836063 479.049984 
L 301.715226 490.25952 
L 285.93786 497.709706 
L 261.602168 498.7332 
L 225.814392 486.900288 
L 180.192033 448.907616 
L 144.648828 366.958944 
L 170.830188 251.747136 
L 279.815874 190.873152 
L 373.944643 232.720128 
L 400.184593 295.019712 
L 398.800112 334.31184 
L 396.179381 356.920992 
L 398.046979 370.3752 
L 404.119665 377.074656 
L 412.754743 377.05824 
L 421.547679 369.853344 
L 427.179852 355.93344 
L 426.064131 338.252544 
L 416.590965 322.727328 
L 401.489141 315.726336 
L 386.729065 319.735296 
L 377.139974 332.176032 
L 373.945731 348.479712 
L 376.075896 364.944096 
L 382.225921 379.189728 
L 391.657907 389.461824 
L 403.932344 393.977088 
L 418.098402 390.645504 
L 431.56908 377.497152 
L 439.259436 354.480192 
L 434.911221 326.61792 
L 416.5533 304.991136 
L 391.531771 299.955744 
L 371.349357 311.893632 
L 361.448233 333.072864 
L 360.228724 356.247072 
L 364.439755 377.746848 
L 372.2683 395.956512 
L 383.45991 409.671648 
L 398.500214 417.193632 
L 417.550167 415.747296 
L 438.747192 401.338368 
L 455.571729 370.480608 
L 455.785164 326.343168 
L 429.832305 286.471296 
L 387.803857 274.161024 
L 354.198474 292.140864 
L 339.55834 323.345952 
L 337.750118 354.717792 
L 341.134996 382.550688 
L 346.259529 406.68048 
L 352.650359 427.35168 
L 361.190437 444.53232 
L 373.41206 457.67808 
L 391.298081 465.2424 
L 416.883915 463.650912 
L 450.377307 445.709088 
L 484.347789 400.41648 
L 494.197605 323.110944 
L 447.667938 244.917216 
L 363.616063 227.100672 
L 308.384609 268.258176 
L 293.967787 316.830528 
L 294.665677 353.634336 
L 295.336868 381.116448 
L 291.694327 402.361344 
L 282.929682 418.107744 
L 268.720016 427.419072 
L 248.909315 427.709376 
L 224.934705 414.448704 
L 203.123322 382.326912 
L 197.882028 331.807104 
L 224.455941 281.233728 
L 274.789606 261.957024 
L 316.714768 281.286432 
L 334.62235 316.847808 
L 337.020874 351.42336 
L 334.336924 381.210624 
L 328.387637 429.028704 
L 325.697661 448.370208 
L 322.390884 465.161184 
L 317.637812 479.601216 
L 310.337163 491.695488 
L 298.864823 501.052694 
L 280.789807 506.353594 
L 252.829906 504.083434 
L 212.251644 485.860032 
L 163.725732 435.107808 
L 137.668248 334.6488 
L 194.335659 216.79488 
L 319.985681 188.815104 
L 395.238007 251.055072 
L 407.477625 308.05056 
L 401.176857 356.040576 
L 403.049142 364.9104 
L 407.864152 367.916256 
L 413.730852 365.47632 
L 418.429017 358.05024 
L 419.663592 347.169888 
L 415.918017 335.91888 
L 407.645193 328.234464 
L 397.522515 326.983392 
L 388.960088 332.391168 
L 384.174039 342.39888 
L 383.646896 354.223584 
L 386.865998 365.44608 
L 393.110186 374.175936 
L 401.662568 378.813888 
L 411.52067 377.899776 
L 420.878079 370.363104 
L 426.808224 356.38704 
L 425.935233 338.733792 
L 416.706471 323.17056 
L 401.78636 316.00368 
L 387.079852 319.776768 
L 377.43577 332.011872 
L 374.145774 348.180768 
L 376.183618 364.574304 
L 382.251785 378.793152 
L 391.602414 389.078208 
L 403.786372 393.649632 
L 417.856509 390.434688 
L 431.25939 377.4816 
L 438.978204 354.72384 
L 434.819151 327.085344 
L 416.761713 305.485344 
L 391.96157 300.238272 
L 371.807196 311.887584 
L 361.816597 332.85168 
L 360.501335 355.904064 
L 364.650763 377.333856 
L 372.443065 395.497728 
L 383.602284 409.173984 
L 398.590945 416.661408 
L 417.545145 415.19952 
L 438.583977 400.833792 
L 455.216004 370.155744 
L 455.33988 326.38896 
L 429.592086 286.922304 
L 387.981468 274.724352 
L 354.65648 292.505472 
L 340.072283 323.475552 
L 338.249171 354.698784 
L 341.653602 382.439232 
L 346.861918 406.492992 
L 353.409434 427.071744 
L 362.192243 444.111552 
L 374.760635 457.010208 
L 393.098802 464.111424 
L 419.153859 461.64816 
L 452.765268 442.18656 
L 485.550558 394.857504 
L 491.86656 316.767456 
L 441.603036 242.20512 
L 358.871529 229.96656 
L 307.609631 272.530656 
L 295.057561 320.095584 
L 296.005212 356.139936 
L 296.506324 383.327424 
L 292.689771 404.504064 
L 283.799827 420.297984 
L 269.446365 429.74064 
L 249.350162 430.214112 
L 224.785719 417.056256 
L 202.001742 384.59232 
L 195.810453 332.738496 
L 222.622074 280.001664 
L 274.771443 259.448832 
L 318.36416 279.271584 
L 336.794423 315.794592 
L 339.218241 350.951616 
L 336.653113 381.012768 
L 333.872707 406.759968 
L 331.893385 429.090048 
L 329.175572 465.552576 
L 327.555475 480.374496 
L 325.174377 493.27056 
L 321.44566 504.412445 
L 315.469396 513.847584 
L 305.795601 521.349005 
L 290.101684 526.02264 
L 264.894089 525.284352 
L 225.989325 512.389584 
L 173.004714 471.81312 
L 126.570465 378.687744 
L 153.495081 237.985344 
L 290.406352 164.252448 
L 402.24964 222.195744 
L 425.81889 291.06 
L 420.377553 323.64576 
L 413.455982 335.880864 
L 408.407114 340.236288 
L 404.602279 342.179424 
L 401.671189 343.97568 
L 399.682226 346.38192 
L 398.813169 349.339392 
L 399.130141 352.376352 
L 400.511944 354.880224 
L 402.651734 356.27904 
L 405.082885 356.17536 
L 407.223512 354.463776 
L 408.467713 351.419904 
L 408.350449 347.734944 
L 406.748598 344.392128 
L 404.007591 342.385056 
L 400.870013 342.357408 
L 398.207432 344.367072 
L 396.714893 347.90688 
L 396.738748 352.111104 
L 398.270625 356.003424 
L 401.017576 358.682688 
L 404.456474 359.448192 
L 407.860051 357.921504 
L 410.354813 354.20544 
L 411.099073 349.015392 
L 409.608125 343.672416 
L 406.087034 339.764544 
L 401.493243 338.557536 
L 397.175578 340.462656 
L 394.309272 344.93904 
L 393.531197 350.81856 
L 394.926559 356.73696 
L 398.195212 361.41552 
L 402.772848 363.784608 
L 407.832764 363.084768 
L 412.245512 359.049024 
L 414.673314 352.197504 
L 413.970737 344.076768 
L 409.852027 337.062816 
L 403.358581 333.507456 
L 396.536361 334.616832 
L 391.415009 339.955488 
L 389.161805 347.92416 
L 389.99077 356.582304 
L 393.549108 364.160448 
L 399.237779 369.172512 
L 406.237275 370.397664 
L 413.317374 366.983136 
L 418.675932 358.845984 
L 420.184206 347.309856 
L 416.366649 335.47392 
L 407.753333 327.423168 
L 397.204204 326.140128 
L 388.324805 331.807968 
L 383.407933 342.218304 
L 382.899874 354.462048 
L 386.22812 366.058656 
L 392.644562 375.093504 
L 401.440093 379.945728 
L 411.628811 379.105056 
L 421.386975 371.417184 
L 427.682052 356.980608 
L 426.925404 338.58432 
L 417.377745 322.255584 
L 401.789624 314.692128 
L 386.424564 318.601728 
L 376.402577 331.321536 
L 373.005697 348.0624 
L 375.074091 364.99248 
L 381.22353 379.699488 
L 390.702806 390.442464 
L 403.122714 395.437248 
L 417.628845 392.543712 
L 431.730621 379.62864 
L 440.293968 356.33088 
L 436.655529 327.418848 
L 418.207212 304.262784 
L 392.195428 298.124064 
L 370.857955 309.90816 
L 360.238015 331.553952 
L 358.700195 355.351968 
L 362.733698 377.47296 
L 370.361363 396.328032 
L 381.294675 410.800032 
L 396.095513 419.302656 
L 415.149149 419.155776 
L 437.04306 406.29168 
L 455.841243 376.586496 
L 459.195102 331.668 
L 435.382452 287.957376 
L 391.945416 271.043712 
L 354.907915 287.169408 
L 337.896819 318.910176 
L 335.152865 351.323136 
L 338.125889 380.028672 
L 342.729063 404.907552 
L 348.199695 426.35808 
L 355.245812 444.54096 
L 365.222601 459.235008 
L 379.973638 469.52784 
L 401.764263 473.056416 
L 432.468018 464.540832 
L 470.046807 433.994976 
L 499.342644 369.391104 
L 484.548669 278.360064 
L 406.483688 219.154464 
L 324.285735 238.475232 
L 290.877164 291.59136 
L 287.436843 335.187072 
L 289.217477 365.935104 
L 287.473169 388.554624 
L 280.49962 405.011232 
L 268.212292 414.938592 
L 250.937282 416.307168 
L 230.339214 405.586656 
L 211.828959 378.96336 
L 206.569251 337.303872 
L 226.167606 294.463296 
L 266.204664 274.392576 
L 303.375332 286.265664 
L 322.261149 315.729792 
L 326.316054 347.524128 
L 323.695767 376.187328 
L 318.812458 401.112864 
L 312.662349 422.531424 
L 304.581616 440.472384 
L 293.151712 454.50288 
L 276.475407 463.313088 
L 252.48841 463.807296 
L 220.429971 449.604 
L 185.702004 410.286816 
L 169.156188 338.599008 
L 204.18129 256.929408 
L 285.38318 225.653472 
L 348.398399 259.516224 
L 368.420862 308.995776 
L 368.95696 347.94576 
L 367.74105 376.974432 
L 370.37601 399.478176 
L 377.998318 416.582784 
L 390.983536 427.682592 
L 409.679521 430.596864 
L 433.378674 421.177536 
L 457.395552 393.75504 
L 469.053288 345.964608 
L 450.73638 290.963232 
L 402.279186 260.747424 
L 354.253046 272.480544 
L 330.280488 307.125216 
L 325.275696 343.166976 
L 327.314486 374.347008 
L 330.294332 400.991904 
L 332.611904 424.05552 
L 334.367408 444.148704 
L 336.047409 461.676672 
L 338.165706 476.947872 
L 341.283397 490.197312 
L 346.153397 501.555715 
L 353.928039 510.962515 
L 366.43759 517.911581 
L 386.511194 520.804771 
L 417.997962 515.342909 
L 463.828734 491.077728 
L 516.501981 427.475232 
L 533.940876 307.325664 
L 447.190848 186.869376 
L 308.406204 188.422848 
L 248.433229 263.365344 
L 245.187594 313.263936 
L 251.500081 335.47392 
L 255.746516 344.845728 
L 257.647511 348.627456 
L 258.326569 349.727328 
L 258.641699 349.464672 
L 259.078613 348.611904 
L 259.823125 347.726304 
L 260.832463 347.217408 
L 261.911775 347.324544 
L 262.805607 348.08832 
L 263.287552 349.354944 
L 263.226283 350.832384 
L 262.617366 352.16208 
L 261.583252 353.005344 
L 260.352276 353.12112 
L 259.219564 352.422144 
L 258.488947 351.0216 
L 258.394868 349.230528 
L 259.020944 347.503392 
L 260.249493 346.318848 
L 261.776599 346.034592 
L 263.199667 346.768992 
L 264.140203 348.367392 
L 264.347612 350.450496 
L 263.75058 352.517184 
L 262.459508 354.060288 
L 260.742151 354.670272 
L 258.98512 354.121632 
L 257.632863 352.4472 
L 257.091157 349.981344 
L 257.598044 347.321952 
L 259.107155 345.197376 
L 261.257324 344.2392 
L 263.47278 344.768832 
L 265.156405 346.68864 
L 265.871873 349.534656 
L 265.43747 352.623456 
L 263.92861 355.225824 
L 261.640419 356.697216 
L 259.047812 356.59872 
L 256.756859 354.799008 
L 255.40954 351.577152 
L 255.50839 347.65632 
L 257.195112 344.08368 
L 260.106617 341.926272 
L 263.448507 341.87616 
L 266.286606 343.999008 
L 267.881091 347.748768 
L 267.869122 352.207008 
L 266.26317 356.342112 
L 263.370331 359.206272 
L 259.733566 360.057312 
L 256.111699 358.484832 
L 253.428696 354.574368 
L 252.591529 349.068096 
L 254.139979 343.36224 
L 257.87325 339.164928 
L 262.768695 337.844736 
L 267.374288 339.846624 
L 270.431765 344.586528 
L 271.273369 350.815104 
L 269.821843 357.0912 
L 266.396337 362.074752 
L 261.578147 364.645152 
L 256.216659 363.988512 
L 251.489702 359.7912 
L 248.825196 352.55952 
L 249.482827 343.903104 
L 253.817734 336.365568 
L 260.735706 332.500032 
L 268.025976 333.62496 
L 273.49552 339.268608 
L 275.90993 347.702976 
L 275.072344 356.868288 
L 271.373892 364.915584 
L 265.432531 370.305216 
L 258.069359 371.754144 
L 250.531421 368.32752 
L 244.702134 359.85168 
L 242.887518 347.627808 
L 246.775383 334.91232 
L 255.902868 326.136672 
L 267.199271 324.602208 
L 276.72567 330.537888 
L 282.005466 341.537472 
L 282.614551 354.474144 
L 279.217084 366.75072 
L 272.609639 376.408512 
L 263.483912 381.787776 
L 252.772907 381.298752 
L 242.280693 373.618656 
L 235.172889 358.628256 
L 235.410597 339.025824 
L 245.195964 321.179904 
L 261.818282 312.532128 
L 278.437001 316.293984 
L 289.333318 329.619456 
L 293.120994 347.264064 
L 291.162916 365.128992 
L 285.016239 380.754432 
L 275.462805 392.427936 
L 262.790959 398.388672 
L 247.651722 396.415296 
L 232.314534 384.062688 
L 221.946615 360.33552 
L 223.985547 329.375808 
L 242.437212 303.015168 
L 270.443232 294.421824 
L 294.249019 305.77392 
L 306.422514 328.351968 
L 308.634287 353.418336 
L 304.969315 376.776576 
L 297.777643 396.898272 
L 287.447808 412.85376 
L 273.302842 423.30384 
L 254.5558 425.837088 
L 231.717753 416.42208 
L 209.302056 389.939616 
L 199.103211 344.844864 
L 216.678537 293.896512 
L 261.4382 265.961664 
L 306.073569 276.361632 
L 329.141757 308.683872 
L 334.345771 343.356192 
L 332.261612 373.9392 
L 328.602144 400.287744 
L 324.86842 423.11808 
L 320.773465 442.902816 
L 315.434744 459.887328 
L 307.650644 474.06816 
L 295.776795 485.000352 
L 277.513455 491.250528 
L 250.004362 489.17952 
L 211.50504 470.592288 
L 168.186105 420.649632 
L 149.470785 327.371328 
L 204.719481 225.16272 
L 314.603519 203.252544 
L 381.192394 258.092352 
L 393.909688 312.315264 
L 391.359935 346.348224 
L 390.668824 367.769376 
L 395.012938 381.39552 
L 403.867393 388.120896 
L 415.680393 387.042624 
L 427.743153 376.822368 
L 435.534786 357.411744 
L 433.498365 332.680608 
L 419.050071 311.673312 
L 397.123015 304.05024 
L 377.535038 312.119136 
L 366.518193 330.258816 
L 363.954965 351.638496 
L 367.220436 372.12912 
L 374.433116 389.699424 
L 385.054814 402.946272 
L 399.262387 410.151168 
L 416.922417 408.741984 
L 436.034475 395.294688 
L 450.603297 367.250976 
L 450.258453 328.113504 
L 427.548969 293.08176 
L 390.979267 281.500704 
L 360.681625 296.4168 
L 346.462502 324.364608 
L 344.269227 353.693088 
L 347.776257 380.2464 
L 353.847604 403.28496 
L 362.049534 422.633376 
L 373.328193 437.790528 
L 389.251867 447.450048 
L 411.421569 448.74432 
L 440.001018 436.16448 
L 469.699452 401.493888 
L 483.216165 340.268256 
L 455.127282 271.251936 
L 388.931547 240.96528 
L 332.649774 265.199616 
L 310.935451 308.937024 
L 308.749625 347.543136 
L 310.558717 378.416448 
L 310.392991 403.78176 
L 306.811552 424.931616 
L 299.317054 442.153728 
L 287.036004 454.922784 
L 268.475696 461.50992 
L 242.102412 457.952832 
L 208.752984 436.625856 
L 178.074423 387.138528 
L 176.527647 309.241152 
L 230.441328 240.47712 
L 310.029566 234.767808 
L 356.198067 278.106048 
L 366.753307 324.178848 
L 365.604943 359.38944 
L 365.233733 386.403264 
L 369.067528 407.745792 
L 377.832425 423.957024 
L 392.043848 434.118528 
L 412.258569 435.6936 
L 437.734422 423.937152 
L 462.954906 392.432256 
L 473.035734 339.120864 
L 448.605378 280.897632 
L 393.594139 254.306304 
L 344.783061 272.74752 
L 323.52686 310.916448 
L 320.367436 347.589792 
L 322.60072 378.477792 
L 324.630177 404.665632 
L 325.115294 427.250592 
L 324.010705 446.84784 
L 321.305713 463.82544 
L 316.626381 478.387296 
L 309.083086 490.523904 
L 297.106704 499.782787 
L 278.247002 504.698861 
L 249.245119 501.425856 
L 207.764487 480.956832 
L 160.110729 426.181824 
L 140.05872 322.23744 
L 205.961589 209.952864 
L 329.747787 194.141664 
L 396.476181 258.291936 
L 405.661001 312.455232 
L 401.63026 342.309024 
L 400.030083 358.757856 
L 402.68195 367.592256 
L 408.325088 370.395072 
L 414.995978 367.354656 
L 420.280461 358.826976 
L 421.574463 346.466592 
L 417.129993 333.808128 
L 407.554127 325.414368 
L 396.094342 324.480384 
L 386.705964 330.996672 
L 381.727823 342.389376 
L 381.445335 355.504032 
L 385.137426 367.780608 
L 392.007103 377.288928 
L 401.366521 382.373568 
L 412.251036 381.431808 
L 422.765514 373.15728 
L 429.611337 357.538752 
L 428.761782 337.5432 
L 418.209723 319.849344 
L 401.092236 311.923008 
L 384.502394 316.579104 
L 373.990427 330.5664 
L 370.641758 348.54192 
L 372.954891 366.496704 
L 379.383971 382.059072 
L 389.201479 393.54768 
L 402.149451 399.178368 
L 417.545145 396.677088 
L 432.984447 383.560704 
L 443.047698 358.941888 
L 440.119035 327.389472 
L 420.519006 301.321728 
L 391.916372 293.869728 
L 368.362774 306.39168 
L 356.776601 329.622912 
L 355.020994 354.919104 
L 358.937233 378.317088 
L 366.268851 398.406816 
L 376.721977 414.295776 
L 391.037774 424.641312 
L 410.043533 426.987936 
L 433.225503 417.204864 
L 455.941683 390.02688 
L 466.017489 343.901376 
L 447.501375 292.146912 
L 401.475247 264.515328 
L 356.388066 276.014304 
L 333.624579 309.122784 
L 328.740726 344.07072 
L 330.891431 374.707296 
L 334.394485 401.056704 
L 337.788059 423.892224 
L 341.337551 443.721888 
L 345.842117 460.839456 
L 352.357158 475.343424 
L 362.314696 487.008288 
L 377.771826 494.900064 
L 401.544886 496.461312 
L 436.464693 485.53776 
L 481.165515 449.404416 
L 517.119687 370.731168 
L 495.051345 257.950656 
L 390.8004 193.597344 
L 295.433876 230.808096 
L 266.664847 292.974624 
L 267.274266 333.652608 
L 269.844275 357.598368 
L 267.91591 372.251808 
L 261.499971 380.020896 
L 252.100963 380.822688 
L 242.070606 373.896 
L 234.920115 359.284896 
L 234.873243 339.674688 
L 244.422576 321.441696 
L 261.101224 312.234048 
L 278.05424 315.578592 
L 289.343027 328.774464 
L 293.423737 346.5072 
L 291.650301 364.569984 
L 285.63043 380.45376 
L 276.178523 392.444352 
L 263.571797 398.79648 
L 248.396652 397.293984 
L 232.799994 385.438176 
L 221.837805 362.026368 
L 223.046433 330.83424 
L 240.94233 303.517152 
L 269.173922 293.741856 
L 293.745814 304.422624 
L 306.607073 326.938464 
L 309.209389 352.227744 
L 305.756848 375.884928 
L 298.746471 396.340128 
L 288.642458 412.697376 
L 274.775879 423.686592 
L 256.287553 426.996576 
L 233.465409 418.688352 
L 210.364209 393.522624 
L 198.301365 349.17696 
L 213.436836 296.95248 
L 257.505974 265.716288 
L 303.968263 273.606336 
L 329.06595 305.54064 
L 335.22699 340.70544 
L 333.434839 371.785248 
L 329.928136 398.51568 
L 326.460721 421.66656 
L 322.859436 441.768384 
L 318.34039 459.121824 
L 311.847864 473.833152 
L 301.956449 485.682912 
L 286.629389 493.755264 
L 263.084328 495.535104 
L 228.515391 484.979616 
L 184.189545 449.593632 
L 148.088898 372.242304 
L 168.526764 260.481312 
L 270.812684 194.786208 
L 366.613444 230.058144 
L 396.434498 292.108032 
L 396.161636 333.332928 
L 393.60728 357.815232 
L 395.538323 372.955104 
L 402.061482 381.172608 
L 411.736532 382.345056 
L 422.250759 375.598944 
L 430.044066 360.792576 
L 430.647543 340.454016 
L 421.171029 321.090048 
L 403.897274 310.88016 
L 386.021465 313.854912 
L 373.987247 327.303936 
L 369.50779 345.594816 
L 371.110059 364.291776 
L 377.045477 380.828736 
L 386.453943 393.514848 
L 399.115158 400.638528 
L 414.595808 399.968928 
L 430.969788 388.83024 
L 443.304657 365.550624 
L 443.661219 333.239616 
L 426.369636 303.5016 
L 396.995707 291.36672 
L 370.457785 301.17744 
L 356.164587 324.115776 
L 352.884384 350.247456 
L 355.986808 374.76432 
L 362.627817 396.093888 
L 372.204939 413.466336 
L 385.404596 425.804256 
L 403.288775 431.05392 
L 426.137787 425.503584 
L 451.063647 403.636608 
L 468.040518 361.180512 
L 459.544968 305.52336 
L 417.543471 265.04928 
L 365.787995 265.659264 
L 334.591556 296.623296 
L 325.584348 333.449568 
L 326.533824 366.067296 
L 332.088622 417.875328 
L 335.654856 456.971328 
L 337.642589 472.849056 
L 340.485652 486.641952 
L 344.880153 498.513226 
L 351.86609 508.459766 
L 363.08867 516.11377 
L 381.119407 520.220189 
L 409.612478 517.321901 
L 452.105712 498.802406 
L 505.053495 446.521248 
L 536.744826 338.884992 
L 476.851617 207.376416 
L 336.140224 176.730336 
L 255.088132 246.92256 
L 244.511298 305.011008 
L 250.444958 332.170848 
L 255.231427 343.769184 
L 258.090786 350.163648 
L 258.252243 350.008992 
L 258.519581 348.996384 
L 259.183406 347.774688 
L 260.25962 346.868352 
L 261.555715 346.638528 
L 262.766519 347.226912 
L 263.585607 348.534144 
L 263.798624 350.26128 
L 263.335763 351.997056 
L 262.281645 353.313792 
L 260.858327 353.860704 
L 259.38981 353.443392 
L 258.247807 352.086048 
L 257.768876 350.059104 
L 258.151217 347.852448 
L 259.364365 346.061376 
L 261.124576 345.210336 
L 262.969073 345.580992 
L 264.40411 347.118912 
L 265.052533 349.458624 
L 264.741086 352.040256 
L 263.516722 354.24432 
L 261.621922 355.520448 
L 259.458528 355.48848 
L 257.537194 354.03696 
L 256.389835 351.396576 
L 256.426914 348.160032 
L 257.767286 345.180096 
L 260.130722 343.326816 
L 262.889893 343.185984 
L 265.285722 344.850912 
L 266.687278 347.912928 
L 266.755159 351.624672 
L 265.467351 355.116096 
L 263.071438 357.5664 
L 260.033714 358.334496 
L 257.005197 357.07392 
L 254.758354 353.866752 
L 254.028658 349.335936 
L 255.243479 344.618496 
L 258.249063 341.088192 
L 262.251932 339.869088 
L 266.099118 341.378496 
L 268.740356 345.210336 
L 269.55936 350.377056 
L 268.426062 355.663872 
L 265.58202 359.902656 
L 261.535711 362.10672 
L 257.042778 361.584864 
L 253.114737 358.1064 
L 250.918031 352.139616 
L 251.433121 345.024576 
L 254.915041 338.798592 
L 260.516831 335.494656 
L 266.52783 336.2256 
L 271.176528 340.73136 
L 273.354318 347.696064 
L 272.768083 355.408992 
L 269.675117 362.238912 
L 264.6188 366.795648 
L 258.380137 367.953408 
L 252.102302 364.972608 
L 247.383882 357.837696 
L 246.035475 347.754816 
L 249.271401 337.398048 
L 256.650309 330.228576 
L 265.822908 328.830624 
L 273.743858 333.527328 
L 278.319737 342.575136 
L 278.968663 353.460672 
L 276.067956 363.89088 
L 270.276167 372.02544 
L 262.316381 376.317792 
L 253.202873 375.414048 
L 244.666143 368.401824 
L 239.372118 355.5792 
L 240.262686 339.551136 
L 248.602805 325.472256 
L 262.029373 318.884256 
L 275.406475 322.113888 
L 284.380956 333.150624 
L 287.57997 348.017472 
L 285.734552 363.248928 
L 279.968459 376.468128 
L 271.033401 385.885728 
L 259.496862 389.756448 
L 246.455649 386.178624 
L 234.490734 373.578912 
L 228.233322 352.368576 
L 232.902108 327.497472 
L 249.63424 308.723616 
L 271.848973 304.655904 
L 289.829659 315.525888 
L 298.824647 334.848384 
L 299.890566 356.263488 
L 295.656016 376.2288 
L 287.692295 392.957568 
L 276.311941 405.037152 
L 261.309386 410.596128 
L 243.073332 406.847232 
L 224.300259 390.317184 
L 212.064993 359.218368 
L 217.073601 319.336128 
L 244.204119 288.134496 
L 281.007176 282.945312 
L 307.939409 302.040576 
L 318.908043 330.9552 
L 319.3966 359.8128 
L 315.170336 385.592832 
L 308.644498 407.820096 
L 299.852734 426.285504 
L 287.664674 440.349696 
L 270.44725 448.429824 
L 246.744414 447.156288 
L 217.165671 430.3152 
L 189.176391 389.584512 
L 183.175938 323.752896 
L 222.237054 259.45056 
L 290.694865 242.745984 
L 339.138927 274.95936 
L 354.560895 318.534336 
L 354.872678 355.210272 
L 353.224206 384.655392 
L 354.074933 409.011552 
L 358.438214 429.306048 
L 366.828637 445.653792 
L 380.260478 457.335072 
L 400.333412 462.272832 
L 428.414427 455.861952 
L 462.594996 429.611904 
L 490.258683 373.402656 
L 481.778199 292.379328 
L 417.488229 232.881696 
L 340.699171 240.983424 
L 303.339425 288.023904 
L 296.911348 332.107776 
L 298.501062 365.318208 
L 298.103404 390.972096 
L 293.220932 411.165504 
L 283.286244 426.101472 
L 267.76751 434.53152 
L 246.270672 433.4688 
L 220.305258 417.680928 
L 197.24256 381.03696 
L 194.02011 324.611712 
L 227.25738 271.184544 
L 283.781078 256.03776 
L 326.089746 281.608704 
L 341.651007 320.220864 
L 342.692737 355.404672 
L 340.174413 385.022592 
L 338.298002 410.291136 
L 337.885528 432.158976 
L 338.859394 451.17216 
L 341.204886 467.680608 
L 345.2522 481.90896 
L 351.791932 493.910784 
L 362.229238 503.403725 
L 378.815146 509.323248 
L 404.771855 508.731667 
L 443.378313 494.391168 
L 492.625719 451.024416 
L 528.51042 358.483968 
L 490.595157 233.445024 
L 365.611639 181.027008 
L 273.237724 236.423232 
L 253.539933 298.992384 
L 257.205491 333.440928 
L 260.668328 350.945568 
L 260.291175 359.897472 
L 257.065796 363.240288 
L 252.731224 361.865664 
L 249.159745 356.420736 
L 248.122953 348.217056 
L 250.743349 339.578784 
L 256.777366 333.379584 
L 264.448554 331.835616 
L 271.312959 335.423808 
L 275.516959 342.902592 
L 276.363752 352.211328 
L 274.025843 361.306656 
L 269.0472 368.464896 
L 262.131571 372.247488 
L 254.272476 371.475072 
L 247.034853 365.45904 
L 242.647299 354.6072 
L 243.412317 341.18928 
L 250.238471 329.380992 
L 261.281012 323.600832 
L 272.556322 325.88352 
L 280.463712 334.918368 
L 283.545797 347.584608 
L 282.104065 360.846144 
L 276.989074 372.411648 
L 268.941236 380.500416 
L 258.677858 383.46912 
L 247.441635 379.73232 
L 237.685563 368.273088 
L 233.270388 350.015904 
L 237.994416 329.522688 
L 252.1285 314.585856 
L 270.338942 311.61024 
L 285.243066 320.77728 
L 292.956774 337.257216 
L 293.848681 355.899744 
L 289.73491 373.3992 
L 281.879665 387.790848 
L 270.728147 397.440864 
L 256.530032 400.387968 
L 240.410835 394.133472 
L 225.821088 376.355808 
L 219.495879 347.59584 
L 228.892041 315.547488 
L 254.0192 294.829632 
L 282.931942 295.590816 
L 302.552728 313.855776 
L 309.992821 339.06816 
L 309.177081 364.270176 
L 303.857862 386.820576 
L 295.487695 405.736992 
L 283.837576 420.10272 
L 267.953073 428.301216 
L 247.147848 427.355136 
L 222.791148 412.458912 
L 201.698748 378.386208 
L 198.869688 326.710368 
L 228.507858 277.737984 
L 279.488021 262.34064 
L 319.358014 284.26464 
L 335.307752 320.203584 
L 336.887732 354.372192 
L 334.044552 383.734368 
L 328.163915 430.930368 
L 325.454438 450.024768 
L 322.061943 466.59456 
L 317.141889 480.82464 
L 309.559674 492.697728 
L 297.632842 501.771456 
L 278.850897 506.60329 
L 249.883331 503.391715 
L 208.229859 483.162624 
L 159.865488 428.63472 
L 138.412341 324.08208 
L 203.817195 209.411136 
L 329.72523 192.026592 
L 398.057609 256.948416 
L 407.380115 311.563584 
L 403.143221 341.114112 
L 401.227746 356.995296 
L 403.397083 365.301792 
L 408.355387 367.821216 
L 414.180991 364.932 
L 418.638267 357.158592 
L 419.468571 346.155552 
L 415.292945 335.117088 
L 406.771114 327.947616 
L 396.70644 327.309984 
L 388.449351 333.191232 
L 384.05259 343.419264 
L 383.877908 355.228416 
L 387.376484 366.25824 
L 393.830926 374.655456 
L 402.51522 378.838944 
L 412.376503 377.371008 
L 421.518384 369.257184 
L 426.939633 354.861216 
L 425.339289 337.215744 
L 415.480852 322.249536 
L 400.407319 316.060704 
L 386.073108 320.709024 
L 377.025054 333.410688 
L 374.268813 349.657344 
L 376.700215 365.877216 
L 383.066688 379.760832 
L 392.666408 389.566368 
L 405.036933 393.493248 
L 419.127075 389.460096 
L 432.182601 375.605856 
L 438.999966 352.204416 
L 433.541052 324.755136 
L 414.537218 304.445952 
L 389.863295 300.916512 
L 370.638995 313.703712 
L 361.596717 335.004768 
L 360.900835 357.92928 
L 365.428419 379.041984 
L 373.527985 396.77904 
L 385.024096 409.896288 
L 400.383967 416.606976 
L 419.61672 414.031392 
L 440.492337 398.170944 
L 455.947542 365.979168 
L 453.649977 321.871104 
L 425.605455 284.516064 
L 384.048321 275.747328 
L 352.688861 295.56144 
L 339.817868 326.79936 
L 338.789764 357.640704 
L 342.482483 384.93792 
L 347.876529 408.580416 
L 354.707203 428.745312 
L 363.964423 445.302144 
L 377.260335 457.5312 
L 396.603907 463.542048 
L 423.789165 459.13392 
L 457.895241 436.293216 
L 488.481732 384.32448 
L 487.562706 304.043328 
L 429.479091 236.365344 
L 348.869546 234.944928 
L 304.819575 280.452672 
L 295.708161 326.32416 
L 297.091638 360.842688 
L 297.128215 387.17568 
L 292.721243 407.78208 
L 283.2382 423.052416 
L 268.232464 431.855712 
L 247.3956 431.36496 
L 222.189345 416.627712 
L 199.536777 381.820608 
L 195.35094 327.692736 
L 225.829458 275.161536 
L 280.041027 258.109632 
L 322.443113 281.199168 
L 339.02286 318.73824 
L 340.585255 353.783808 
L 337.973304 383.531328 
L 335.565255 408.983904 
L 334.227512 431.053056 
L 333.767195 450.293472 
L 333.902756 467.09136 
L 334.507915 481.756896 
L 335.6306 494.555328 
L 337.489962 505.704211 
L 340.515031 515.367187 
L 345.44789 523.618474 
L 353.533896 530.340048 
L 366.824535 534.94249 
L 388.56017 535.60967 
L 423.216657 527.355965 
L 474.09705 497.72664 
L 531.023094 422.013888 
L 539.73459 283.0464 
L 424.339911 162.63936 
L 277.687885 190.787616 
L 230.917581 271.61568 
L 233.877213 312.658272 
L 243.334476 325.536192 
L 252.49519 328.414176 
L 261.155545 330.200064 
L 268.457115 334.41984 
L 273.205332 341.472672 
L 274.774037 350.155008 
L 273.239398 358.799328 
L 269.079257 365.82624 
L 262.967483 369.873216 
L 255.83323 369.82656 
L 249.073952 365.015808 
L 244.641033 355.70448 
L 244.601694 343.727712 
L 249.969542 332.612352 
L 259.48799 326.352672 
L 269.862187 327.203712 
L 277.713581 334.520064 
L 281.31921 345.72528 
L 280.635046 357.975072 
L 276.342743 368.97552 
L 269.171411 376.931232 
L 259.862799 380.25936 
L 249.587536 377.508384 
L 240.506253 367.77024 
L 235.943766 351.78192 
L 239.249079 333.315648 
L 251.028264 319.000032 
L 267.187386 314.784576 
L 281.315025 321.692256 
L 289.357842 336.028608 
L 290.995181 353.10384 
L 287.622824 369.547488 
L 280.459527 383.233248 
L 270.092613 392.462496 
L 256.949537 395.36208 
L 242.238006 389.716704 
L 229.158207 373.660992 
L 223.563699 347.976864 
L 231.659163 319.471776 
L 253.446022 300.549312 
L 279.151882 300.152736 
L 297.478416 315.759168 
L 305.048579 338.59296 
L 304.628153 362.097216 
L 299.420423 383.33088 
L 290.838997 400.976352 
L 278.830056 413.843904 
L 262.774471 420.0768 
L 242.622189 416.582784 
L 220.823361 399.020256 
L 205.215822 364.147488 
L 209.317959 317.255616 
L 240.960744 279.373536 
L 285.059679 273.229632 
L 316.254251 296.136864 
L 327.93107 328.984416 
L 328.246318 360.366624 
L 324.534148 387.842688 
L 319.635396 411.625152 
L 313.71722 432.052704 
L 305.822218 449.171136 
L 294.43274 462.571776 
L 277.547604 470.95776 
L 252.885818 471.177216 
L 219.325968 456.519456 
L 182.076957 415.530432 
L 163.390095 339.214176 
L 200.95884 250.952256 
L 289.496867 218.370816 
L 356.123323 256.501728 
L 375.564824 308.354688 
L 375.432327 347.035968 
L 374.403403 374.717664 
L 377.83368 395.337888 
L 386.571876 409.93344 
L 400.602424 417.559968 
L 419.420025 415.658304 
L 440.553438 400.263552 
L 456.822207 368.060544 
L 455.451201 323.001216 
L 427.446018 283.879296 
L 384.664856 273.830112 
L 351.957741 293.637312 
L 338.44292 325.450656 
L 337.219109 356.812128 
L 340.758179 384.494688 
L 345.843707 408.476736 
L 352.126732 429.030432 
L 360.529375 446.14368 
L 372.591968 459.300672 
L 390.314606 467.005824 
L 415.807533 465.75648 
L 449.500131 448.40736 
L 484.398009 403.727328 
L 496.11852 326.018304 
L 450.815895 245.219616 
L 365.085835 224.738496 
L 307.53472 265.857984 
L 292.323751 315.211392 
L 292.978453 352.30896 
L 293.676511 379.7064 
L 289.96768 400.669632 
L 281.059907 415.971072 
L 266.725948 424.623168 
L 247.018113 423.985536 
L 223.768764 409.618944 
L 203.799618 376.814592 
L 201.320424 327.455136 
L 229.399263 280.77408 
L 277.716929 265.54608 
L 316.200097 285.851808 
L 332.179044 320.407488 
L 333.992708 353.935008 
L 331.020136 383.036256 
L 327.282529 408.150144 
L 323.476891 429.931584 
L 319.042716 448.767648 
L 312.982334 464.826816 
L 303.960479 477.983808 
L 290.12219 487.52928 
L 268.925918 491.440608 
L 237.574242 484.792128 
L 195.933492 457.117344 
L 156.392775 392.216256 
L 159.038532 287.9064 
L 242.555229 205.140384 
L 346.027513 218.7 
L 389.295223 279.731232 
L 393.097882 326.408832 
L 390.333103 355.165344 
L 391.384877 373.638528 
L 397.488281 384.954336 
L 407.682774 389.168064 
L 420.103854 385.05024 
L 431.453574 371.413728 
L 436.560111 349.216704 
L 430.172964 324.22896 
L 411.953483 306.740736 
L 389.4458 304.760448 
L 372.283868 317.318688 
L 364.370033 337.445568 
L 364.122281 359.03088 
L 368.900463 378.843264 
L 377.297665 395.23248 
L 389.13159 406.785888 
L 404.641451 411.545664 
L 423.320445 406.58112 
L 442.09854 388.3464 
L 453.262446 355.415904 
L 445.839093 314.818272 
L 416.272068 285.309216 
L 379.091858 283.23648 
L 353.583865 304.48224 
L 344.057382 334.063008 
L 344.320367 362.886912 
L 348.813802 388.45872 
L 355.423591 410.457888 
L 364.286333 428.702976 
L 376.614757 442.548576 
L 394.095837 450.378144 
L 418.228974 448.723584 
L 448.371855 431.160192 
L 476.726067 389.079072 
L 482.019255 321.444288 
L 440.718327 256.472352 
L 370.517965 241.44048 
L 322.39306 275.480352 
L 307.788665 319.561632 
L 307.768996 356.086368 
L 309.253332 385.226496 
L 307.948616 409.212 
L 302.878405 429.015744 
L 293.481992 444.62304 
L 278.693206 455.056704 
L 257.005364 457.758432 
L 227.686761 447.372288 
L 194.67297 414.92736 
L 174.386601 352.682208 
L 196.68177 274.798656 
L 267.148214 232.664832 
L 333.49142 254.159424 
L 360.245715 301.135104 
L 363.29884 341.956512 
L 361.655474 373.313664 
L 362.588813 398.208096 
L 367.831865 418.173408 
L 377.936547 433.234656 
L 393.674324 442.142496 
L 415.863612 441.88848 
L 443.64699 426.887712 
L 470.201652 389.71584 
L 477.400689 329.076864 
L 444.010248 267.730272 
L 381.109112 247.57488 
L 332.861998 274.63968 
L 315.482286 316.224864 
L 314.287133 352.957824 
L 316.333431 383.053536 
L 316.798301 408.285792 
L 314.593978 429.758784 
L 309.405247 447.89328 
L 300.556734 462.61584 
L 286.66312 473.171328 
L 265.629143 477.428256 
L 235.367073 470.444544 
L 196.978905 442.422432 
L 163.798551 380.096064 
L 171.717408 286.397856 
L 247.909518 217.336608 
L 337.230241 230.694048 
L 376.125865 285.286752 
L 380.741753 330.711552 
L 378.75053 361.846656 
L 380.174351 384.077376 
L 386.890606 399.784032 
L 398.801702 408.718656 
L 415.21477 408.964032 
L 433.974618 397.3968 
L 449.410572 371.277216 
L 451.401795 333.045216 
L 431.384103 296.466048 
L 395.520829 281.422944 
L 363.623513 293.644224 
L 347.500967 320.746176 
L 344.218086 350.216352 
L 347.266356 377.158464 
L 353.096647 400.617792 
L 361.025297 420.412896 
L 371.881103 436.102272 
L 387.182133 446.498784 
L 408.564135 448.966368 
L 436.484781 438.355584 
L 466.584975 406.657152 
L 483.201099 348.270624 
L 460.711746 278.196768 
L 397.021152 241.537248 
L 337.45495 260.813952 
L 312.224431 304.05888 
L 308.782938 343.583424 
L 310.581902 375.229152 
L 310.785628 401.154336 
L 307.674248 422.788032 
L 300.742799 440.520768 
L 289.192367 453.947328 
L 271.590173 461.552256 
L 246.304152 459.765504 
L 213.541461 441.506592 
L 181.146213 396.345312 
L 173.306034 320.947488 
L 219.70764 246.699648 
L 300.293665 231.000768 
L 352.901124 270.948672 
L 366.881786 318.333024 
L 366.279816 354.981312 
L 365.500904 382.86864 
L 368.753067 404.829792 
L 376.908711 421.634592 
L 390.44501 432.529632 
L 409.90978 435.191616 
L 434.773953 425.17008 
L 460.243863 396.196704 
L 472.655736 345.330432 
L 452.531745 286.733088 
L 399.981956 255.690432 
L 349.392085 269.92224 
L 325.47183 306.974016 
L 321.064322 344.01456 
L 323.117902 375.428736 
L 325.404159 402.052896 
L 326.32023 425.01024 
L 325.801157 444.953952 
L 323.933508 462.288384 
L 320.518264 477.278784 
L 314.933046 490.04784 
L 306.001587 500.457226 
L 291.783803 507.780922 
L 269.368524 509.895043 
L 235.239849 501.381706 
L 188.497584 470.02032 
L 143.086149 395.48736 
L 148.933431 273.800736 
L 253.34441 183.848832 
L 369.781907 212.2632 
L 408.846037 281.327904 
L 408.644654 324.471744 
L 404.216255 346.359456 
L 403.348872 357.68736 
L 405.82748 362.77632 
L 410.029722 362.922336 
L 414.10156 358.718112 
L 416.18502 351.183168 
L 414.844565 342.315072 
L 409.795278 334.933056 
L 402.355102 331.647264 
L 394.910321 333.5904 
L 389.643415 340.015104 
L 387.644659 349.005024 
L 388.969379 358.437312 
L 393.151115 366.469056 
L 399.538094 371.568384 
L 407.263604 372.455712 
L 414.980661 368.217792 
L 420.652089 358.795872 
L 421.853184 345.769344 
L 416.98854 332.785152 
L 406.914073 324.514944 
L 395.153135 324.068256 
L 385.767519 331.183296 
L 381.004069 343.071936 
L 381.011267 356.50368 
L 384.996642 368.928 
L 392.156006 378.435456 
L 401.811972 383.361984 
L 412.982658 382.072896 
L 423.689562 373.232448 
L 430.473447 356.885568 
L 429.156846 336.235104 
L 417.812985 318.343392 
L 399.988149 310.864608 
L 383.148881 316.34064 
L 372.807328 331.0848 
L 369.78015 349.569216 
L 372.391422 367.819488 
L 379.071938 383.535648 
L 389.141132 395.074368 
L 402.395696 400.6368 
L 418.175406 397.881504 
L 434.011446 384.210432 
L 444.245445 358.674912 
L 440.902467 326.075328 
L 420.249492 299.481408 
L 390.606802 292.473504 
L 366.681994 305.957952 
L 355.253429 330.002208 
L 353.741388 355.802112 
L 357.77916 379.524096 
L 365.104082 399.88512 
L 375.479366 416.075616 
L 389.724437 426.817728 
L 408.794645 429.707808 
L 432.408591 420.579648 
L 456.238818 393.849216 
L 468.115848 347.119776 
L 450.877833 292.902048 
L 403.782689 262.227456 
L 356.139896 272.698272 
L 331.743522 306.532512 
L 326.366224 342.347904 
L 328.336153 373.527936 
L 336.486416 443.46096 
L 339.042446 460.984608 
L 342.516884 476.173728 
L 347.755499 489.174336 
L 355.964042 499.908931 
L 368.98592 507.806237 
L 389.582147 511.115616 
L 421.304112 505.271174 
L 466.176519 479.62368 
L 514.769391 414.700128 
L 524.512071 298.537056 
L 436.681476 191.489184 
L 310.178719 199.140768 
L 256.996325 269.402976 
L 253.759395 318.034944 
L 258.606378 342.591552 
L 260.427774 355.070304 
L 258.790434 360.916992 
L 255.200792 361.87776 
L 251.423997 358.658496 
L 249.203185 352.176768 
L 249.928278 344.151072 
L 254.038451 337.061088 
L 260.575588 333.354528 
L 267.507706 334.330848 
L 272.769925 339.609888 
L 275.153282 347.603616 
L 274.421158 356.35248 
L 270.920824 364.068864 
L 265.248894 369.246816 
L 258.216169 370.64736 
L 251.038977 367.388352 
L 245.514861 359.338464 
L 243.801522 347.761728 
L 247.451679 335.729664 
L 256.027246 327.379104 
L 266.693388 325.8144 
L 275.779274 331.324992 
L 280.900292 341.724096 
L 281.562107 354.064608 
L 278.334719 365.825376 
L 271.975277 375.071904 
L 263.189204 380.169504 
L 252.937126 379.590624 
L 243.004698 372.132576 
L 236.409138 357.797088 
L 236.810061 339.25392 
L 246.129219 322.50096 
L 261.777938 314.40528 
L 277.451098 317.938176 
L 287.828308 330.5448 
L 291.49169 347.372928 
L 289.593122 364.493952 
L 283.558938 379.452384 
L 274.165455 390.501216 
L 261.786978 395.86752 
L 247.213971 393.40944 
L 232.8318 380.921184 
L 223.697619 357.839424 
L 226.615401 328.623264 
L 244.65861 304.565184 
L 270.945851 297.413856 
L 292.970668 308.663136 
L 304.182535 330.284736 
L 306.061349 354.299616 
L 302.22362 376.70832 
L 294.766787 395.895168 
L 284.036028 410.773248 
L 269.460594 419.819328 
L 250.560799 420.434496 
L 228.508695 408.582144 
L 208.835847 379.898208 
L 203.689134 335.1672 
L 225.740736 289.790784 
L 269.265071 270.096768 
L 308.034325 284.605056 
L 326.539851 316.277568 
L 329.943629 349.13376 
L 327.206923 378.266112 
L 322.795238 403.504416 
L 317.652041 425.303136 
L 311.162027 443.88864 
L 302.054797 459.149472 
L 288.580436 470.3832 
L 268.499551 475.663968 
L 239.584716 470.510208 
L 202.263723 445.912128 
L 167.626989 388.875168 
L 168.375267 298.62864 
L 236.08773 223.3872 
L 327.131409 226.608192 
L 372.191714 279.013248 
L 379.3525 326.243808 
L 377.433176 359.085312 
L 378.204638 382.649184 
L 384.161735 399.676032 
L 395.410429 410.193504 
L 411.505186 412.478784 
L 430.833357 403.406784 
L 448.552647 379.569024 
L 454.790808 341.496864 
L 438.780672 300.884544 
L 402.828174 279.249984 
L 366.931922 287.24976 
L 346.949803 313.850592 
L 341.692439 344.40768 
L 343.890819 372.610368 
L 349.049083 397.268928 
L 355.981703 418.347072 
L 365.290398 435.665088 
L 378.407778 448.479936 
L 397.152142 454.937472 
L 423.015777 451.06416 
L 454.789971 429.579936 
L 482.604318 381.338496 
L 482.604318 381.338496 
" style="fill:none;stroke:#0000ff;stroke-linecap:square;"/>
   </g>
   <g id="patch_3">
    <path d="M 583.2 583.2 
L 583.2 64.8 
" style="fill:none;stroke:#000000;stroke-linecap:square;stroke-linejoin:miter;"/>
   </g>
   <g id="patch_4">
    <path d="M 81 64.8 
L 583.2 64.8 
" style="fill:none;stroke:#000000;stroke-linecap:square;stroke-linejoin:miter;"/>
   </g>
   <g id="patch_5">
    <path d="M 81 583.2 
L 583.2 583.2 
" style="fill:none;stroke:#000000;stroke-linecap:square;stroke-linejoin:miter;"/>
   </g>
   <g id="patch_6">
    <path d="M 81 583.2 
L 81 64.8 
" style="fill:none;stroke:#000000;stroke-linecap:square;stroke-linejoin:miter;"/>
   </g>
   <g id="matplotlib.axis_1">
    <g id="xtick_1">
     <g id="line2d_2">
      <path clip-path="url(#p9b91746e71)" d="M 81 583.2 
L 81 64.8 
" style="fill:none;stroke:#000000;stroke-dasharray:1.000000,3.000000;stroke-dashoffset:0.0;stroke-width:0.5;"/>
     </g>
     <g id="line2d_3">
      <defs>
       <path d="M 0 0 
L 0 -4 
" id="mac56f81c5b" style="stroke:#000000;stroke-width:0.5;"/>
      </defs>
      <g>
       <use style="stroke:#000000;stroke-width:0.5;" x="81.0" xlink:href="#mac56f81c5b" y="583.2"/>
      </g>
     </g>
     <g id="line2d_4">
      <defs>
       <path d="M 0 0 
L 0 4 
" id="m6ae5918980" style="stroke:#000000;stroke-width:0.5;"/>
      </defs>
      <g>
       <use style="stroke:#000000;stroke-width:0.5;" x="81.0" xlink:href="#m6ae5918980" y="64.8"/>
      </g>
     </g>
     <g id="text_1">
      <!-- 30 -->
      <defs>
       <path d="M 10.59375 35.5 
L 73.1875 35.5 
L 73.1875 27.203125 
L 10.59375 27.203125 
z
" id="BitstreamVeraSans-Roman-2212"/>
       <path d="M 31.78125 66.40625 
Q 24.171875 66.40625 20.328125 58.90625 
Q 16.5 51.421875 16.5 36.375 
Q 16.5 21.390625 20.328125 13.890625 
Q 24.171875 6.390625 31.78125 6.390625 
Q 39.453125 6.390625 43.28125 13.890625 
Q 47.125 21.390625 47.125 36.375 
Q 47.125 51.421875 43.28125 58.90625 
Q 39.453125 66.40625 31.78125 66.40625 
M 31.78125 74.21875 
Q 44.046875 74.21875 50.515625 64.515625 
Q 56.984375 54.828125 56.984375 36.375 
Q 56.984375 17.96875 50.515625 8.265625 
Q 44.046875 -1.421875 31.78125 -1.421875 
Q 19.53125 -1.421875 13.0625 8.265625 
Q 6.59375 17.96875 6.59375 36.375 
Q 6.59375 54.828125 13.0625 64.515625 
Q 19.53125 74.21875 31.78125 74.21875 
" id="BitstreamVeraSans-Roman-30"/>
       <path d="M 40.578125 39.3125 
Q 47.65625 37.796875 51.625 33 
Q 55.609375 28.21875 55.609375 21.1875 
Q 55.609375 10.40625 48.1875 4.484375 
Q 40.765625 -1.421875 27.09375 -1.421875 
Q 22.515625 -1.421875 17.65625 -0.515625 
Q 12.796875 0.390625 7.625 2.203125 
L 7.625 11.71875 
Q 11.71875 9.328125 16.59375 8.109375 
Q 21.484375 6.890625 26.8125 6.890625 
Q 36.078125 6.890625 40.9375 10.546875 
Q 45.796875 14.203125 45.796875 21.1875 
Q 45.796875 27.640625 41.28125 31.265625 
Q 36.765625 34.90625 28.71875 34.90625 
L 20.21875 34.90625 
L 20.21875 43.015625 
L 29.109375 43.015625 
Q 36.375 43.015625 40.234375 45.921875 
Q 44.09375 48.828125 44.09375 54.296875 
Q 44.09375 59.90625 40.109375 62.90625 
Q 36.140625 65.921875 28.71875 65.921875 
Q 24.65625 65.921875 20.015625 65.03125 
Q 15.375 64.15625 9.8125 62.3125 
L 9.8125 71.09375 
Q 15.4375 72.65625 20.34375 73.4375 
Q 25.25 74.21875 29.59375 74.21875 
Q 40.828125 74.21875 47.359375 69.109375 
Q 53.90625 64.015625 53.90625 55.328125 
Q 53.90625 49.265625 50.4375 45.09375 
Q 46.96875 40.921875 40.578125 39.3125 
" id="BitstreamVeraSans-Roman-33"/>
      </defs>
      <g transform="translate(68.3371875 596.318125)scale(0.12 -0.12)">
       <use xlink:href="#BitstreamVeraSans-Roman-2212"/>
       <use x="83.7890625" xlink:href="#BitstreamVeraSans-Roman-33"/>
       <use x="147.412109375" xlink:href="#BitstreamVeraSans-Roman-30"/>
      </g>
     </g>
    </g>
    <g id="xtick_2">
     <g id="line2d_5">
      <path clip-path="url(#p9b91746e71)" d="M 164.7 583.2 
L 164.7 64.8 
" style="fill:none;stroke:#000000;stroke-dasharray:1.000000,3.000000;stroke-dashoffset:0.0;stroke-width:0.5;"/>
     </g>
     <g id="line2d_6">
      <g>
       <use style="stroke:#000000;stroke-width:0.5;" x="164.7" xlink:href="#mac56f81c5b" y="583.2"/>
      </g>
     </g>
     <g id="line2d_7">
      <g>
       <use style="stroke:#000000;stroke-width:0.5;" x="164.7" xlink:href="#m6ae5918980" y="64.8"/>
      </g>
     </g>
     <g id="text_2">
      <!-- 20 -->
      <defs>
       <path d="M 19.1875 8.296875 
L 53.609375 8.296875 
L 53.609375 0 
L 7.328125 0 
L 7.328125 8.296875 
Q 12.9375 14.109375 22.625 23.890625 
Q 32.328125 33.6875 34.8125 36.53125 
Q 39.546875 41.84375 41.421875 45.53125 
Q 43.3125 49.21875 43.3125 52.78125 
Q 43.3125 58.59375 39.234375 62.25 
Q 35.15625 65.921875 28.609375 65.921875 
Q 23.96875 65.921875 18.8125 64.3125 
Q 13.671875 62.703125 7.8125 59.421875 
L 7.8125 69.390625 
Q 13.765625 71.78125 18.9375 73 
Q 24.125 74.21875 28.421875 74.21875 
Q 39.75 74.21875 46.484375 68.546875 
Q 53.21875 62.890625 53.21875 53.421875 
Q 53.21875 48.921875 51.53125 44.890625 
Q 49.859375 40.875 45.40625 35.40625 
Q 44.1875 33.984375 37.640625 27.21875 
Q 31.109375 20.453125 19.1875 8.296875 
" id="BitstreamVeraSans-Roman-32"/>
      </defs>
      <g transform="translate(152.0371875 596.318125)scale(0.12 -0.12)">
       <use xlink:href="#BitstreamVeraSans-Roman-2212"/>
       <use x="83.7890625" xlink:href="#BitstreamVeraSans-Roman-32"/>
       <use x="147.412109375" xlink:href="#BitstreamVeraSans-Roman-30"/>
      </g>
     </g>
    </g>
    <g id="xtick_3">
     <g id="line2d_8">
      <path clip-path="url(#p9b91746e71)" d="M 248.4 583.2 
L 248.4 64.8 
" style="fill:none;stroke:#000000;stroke-dasharray:1.000000,3.000000;stroke-dashoffset:0.0;stroke-width:0.5;"/>
     </g>
     <g id="line2d_9">
      <g>
       <use style="stroke:#000000;stroke-width:0.5;" x="248.4" xlink:href="#mac56f81c5b" y="583.2"/>
      </g>
     </g>
     <g id="line2d_10">
      <g>
       <use style="stroke:#000000;stroke-width:0.5;" x="248.4" xlink:href="#m6ae5918980" y="64.8"/>
      </g>
     </g>
     <g id="text_3">
      <!-- 10 -->
      <defs>
       <path d="M 12.40625 8.296875 
L 28.515625 8.296875 
L 28.515625 63.921875 
L 10.984375 60.40625 
L 10.984375 69.390625 
L 28.421875 72.90625 
L 38.28125 72.90625 
L 38.28125 8.296875 
L 54.390625 8.296875 
L 54.390625 0 
L 12.40625 0 
z
" id="BitstreamVeraSans-Roman-31"/>
      </defs>
      <g transform="translate(235.7371875 596.318125)scale(0.12 -0.12)">
       <use xlink:href="#BitstreamVeraSans-Roman-2212"/>
       <use x="83.7890625" xlink:href="#BitstreamVeraSans-Roman-31"/>
       <use x="147.412109375" xlink:href="#BitstreamVeraSans-Roman-30"/>
      </g>
     </g>
    </g>
    <g id="xtick_4">
     <g id="line2d_11">
      <path clip-path="url(#p9b91746e71)" d="M 332.1 583.2 
L 332.1 64.8 
" style="fill:none;stroke:#000000;stroke-dasharray:1.000000,3.000000;stroke-dashoffset:0.0;stroke-width:0.5;"/>
     </g>
     <g id="line2d_12">
      <g>
       <use style="stroke:#000000;stroke-width:0.5;" x="332.1" xlink:href="#mac56f81c5b" y="583.2"/>
      </g>
     </g>
     <g id="line2d_13">
      <g>
       <use style="stroke:#000000;stroke-width:0.5;" x="332.1" xlink:href="#m6ae5918980" y="64.8"/>
      </g>
     </g>
     <g id="text_4">
      <!-- 0 -->
      <g transform="translate(328.2825 596.318125)scale(0.12 -0.12)">
       <use xlink:href="#BitstreamVeraSans-Roman-30"/>
      </g>
     </g>
    </g>
    <g id="xtick_5">
     <g id="line2d_14">
      <path clip-path="url(#p9b91746e71)" d="M 415.8 583.2 
L 415.8 64.8 
" style="fill:none;stroke:#000000;stroke-dasharray:1.000000,3.000000;stroke-dashoffset:0.0;stroke-width:0.5;"/>
     </g>
     <g id="line2d_15">
      <g>
       <use style="stroke:#000000;stroke-width:0.5;" x="415.8" xlink:href="#mac56f81c5b" y="583.2"/>
      </g>
     </g>
     <g id="line2d_16">
      <g>
       <use style="stroke:#000000;stroke-width:0.5;" x="415.8" xlink:href="#m6ae5918980" y="64.8"/>
      </g>
     </g>
     <g id="text_5">
      <!-- 10 -->
      <g transform="translate(408.165 596.318125)scale(0.12 -0.12)">
       <use xlink:href="#BitstreamVeraSans-Roman-31"/>
       <use x="63.623046875" xlink:href="#BitstreamVeraSans-Roman-30"/>
      </g>
     </g>
    </g>
    <g id="xtick_6">
     <g id="line2d_17">
      <path clip-path="url(#p9b91746e71)" d="M 499.5 583.2 
L 499.5 64.8 
" style="fill:none;stroke:#000000;stroke-dasharray:1.000000,3.000000;stroke-dashoffset:0.0;stroke-width:0.5;"/>
     </g>
     <g id="line2d_18">
      <g>
       <use style="stroke:#000000;stroke-width:0.5;" x="499.5" xlink:href="#mac56f81c5b" y="583.2"/>
      </g>
     </g>
     <g id="line2d_19">
      <g>
       <use style="stroke:#000000;stroke-width:0.5;" x="499.5" xlink:href="#m6ae5918980" y="64.8"/>
      </g>
     </g>
     <g id="text_6">
      <!-- 20 -->
      <g transform="translate(491.865 596.318125)scale(0.12 -0.12)">
       <use xlink:href="#BitstreamVeraSans-Roman-32"/>
       <use x="63.623046875" xlink:href="#BitstreamVeraSans-Roman-30"/>
      </g>
     </g>
    </g>
    <g id="xtick_7">
     <g id="line2d_20">
      <path clip-path="url(#p9b91746e71)" d="M 583.2 583.2 
L 583.2 64.8 
" style="fill:none;stroke:#000000;stroke-dasharray:1.000000,3.000000;stroke-dashoffset:0.0;stroke-width:0.5;"/>
     </g>
     <g id="line2d_21">
      <g>
       <use style="stroke:#000000;stroke-width:0.5;" x="583.2" xlink:href="#mac56f81c5b" y="583.2"/>
      </g>
     </g>
     <g id="line2d_22">
      <g>
       <use style="stroke:#000000;stroke-width:0.5;" x="583.2" xlink:href="#m6ae5918980" y="64.8"/>
      </g>
     </g>
     <g id="text_7">
      <!-- 30 -->
      <g transform="translate(575.565 596.318125)scale(0.12 -0.12)">
       <use xlink:href="#BitstreamVeraSans-Roman-33"/>
       <use x="63.623046875" xlink:href="#BitstreamVeraSans-Roman-30"/>
      </g>
     </g>
    </g>
    <g id="text_8">
     <!-- x -->
     <defs>
      <path d="M 54.890625 54.6875 
L 35.109375 28.078125 
L 55.90625 0 
L 45.3125 0 
L 29.390625 21.484375 
L 13.484375 0 
L 2.875 0 
L 24.125 28.609375 
L 4.6875 54.6875 
L 15.28125 54.6875 
L 29.78125 35.203125 
L 44.28125 54.6875 
z
" id="BitstreamVeraSans-Roman-78"/>
     </defs>
     <g transform="translate(326.773125 617.4909375)scale(0.18 -0.18)">
      <use xlink:href="#BitstreamVeraSans-Roman-78"/>
     </g>
    </g>
   </g>
   <g id="matplotlib.axis_2">
    <g id="ytick_1">
     <g id="line2d_23">
      <path clip-path="url(#p9b91746e71)" d="M 81 583.2 
L 583.2 583.2 
" style="fill:none;stroke:#000000;stroke-dasharray:1.000000,3.000000;stroke-dashoffset:0.0;stroke-width:0.5;"/>
     </g>
     <g id="line2d_24">
      <defs>
       <path d="M 0 0 
L 4 0 
" id="ma8674873e7" style="stroke:#000000;stroke-width:0.5;"/>
      </defs>
      <g>
       <use style="stroke:#000000;stroke-width:0.5;" x="81.0" xlink:href="#ma8674873e7" y="583.2"/>
      </g>
     </g>
     <g id="line2d_25">
      <defs>
       <path d="M 0 0 
L -4 0 
" id="m92ba45ad8a" style="stroke:#000000;stroke-width:0.5;"/>
      </defs>
      <g>
       <use style="stroke:#000000;stroke-width:0.5;" x="583.2" xlink:href="#m92ba45ad8a" y="583.2"/>
      </g>
     </g>
     <g id="text_9">
      <!-- 0 -->
      <g transform="translate(69.365 586.51125)scale(0.12 -0.12)">
       <use xlink:href="#BitstreamVeraSans-Roman-30"/>
      </g>
     </g>
    </g>
    <g id="ytick_2">
     <g id="line2d_26">
      <path clip-path="url(#p9b91746e71)" d="M 81 496.8 
L 583.2 496.8 
" style="fill:none;stroke:#000000;stroke-dasharray:1.000000,3.000000;stroke-dashoffset:0.0;stroke-width:0.5;"/>
     </g>
     <g id="line2d_27">
      <g>
       <use style="stroke:#000000;stroke-width:0.5;" x="81.0" xlink:href="#ma8674873e7" y="496.8"/>
      </g>
     </g>
     <g id="line2d_28">
      <g>
       <use style="stroke:#000000;stroke-width:0.5;" x="583.2" xlink:href="#m92ba45ad8a" y="496.8"/>
      </g>
     </g>
     <g id="text_10">
      <!-- 10 -->
      <g transform="translate(61.73 500.11125)scale(0.12 -0.12)">
       <use xlink:href="#BitstreamVeraSans-Roman-31"/>
       <use x="63.623046875" xlink:href="#BitstreamVeraSans-Roman-30"/>
      </g>
     </g>
    </g>
    <g id="ytick_3">
     <g id="line2d_29">
      <path clip-path="url(#p9b91746e71)" d="M 81 410.4 
L 583.2 410.4 
" style="fill:none;stroke:#000000;stroke-dasharray:1.000000,3.000000;stroke-dashoffset:0.0;stroke-width:0.5;"/>
     </g>
     <g id="line2d_30">
      <g>
       <use style="stroke:#000000;stroke-width:0.5;" x="81.0" xlink:href="#ma8674873e7" y="410.4"/>
      </g>
     </g>
     <g id="line2d_31">
      <g>
       <use style="stroke:#000000;stroke-width:0.5;" x="583.2" xlink:href="#m92ba45ad8a" y="410.4"/>
      </g>
     </g>
     <g id="text_11">
      <!-- 20 -->
      <g transform="translate(61.73 413.71125)scale(0.12 -0.12)">
       <use xlink:href="#BitstreamVeraSans-Roman-32"/>
       <use x="63.623046875" xlink:href="#BitstreamVeraSans-Roman-30"/>
      </g>
     </g>
    </g>
    <g id="ytick_4">
     <g id="line2d_32">
      <path clip-path="url(#p9b91746e71)" d="M 81 324 
L 583.2 324 
" style="fill:none;stroke:#000000;stroke-dasharray:1.000000,3.000000;stroke-dashoffset:0.0;stroke-width:0.5;"/>
     </g>
     <g id="line2d_33">
      <g>
       <use style="stroke:#000000;stroke-width:0.5;" x="81.0" xlink:href="#ma8674873e7" y="324.0"/>
      </g>
     </g>
     <g id="line2d_34">
      <g>
       <use style="stroke:#000000;stroke-width:0.5;" x="583.2" xlink:href="#m92ba45ad8a" y="324.0"/>
      </g>
     </g>
     <g id="text_12">
      <!-- 30 -->
      <g transform="translate(61.73 327.31125)scale(0.12 -0.12)">
       <use xlink:href="#BitstreamVeraSans-Roman-33"/>
       <use x="63.623046875" xlink:href="#BitstreamVeraSans-Roman-30"/>
      </g>
     </g>
    </g>
    <g id="ytick_5">
     <g id="line2d_35">
      <path clip-path="url(#p9b91746e71)" d="M 81 237.6 
L 583.2 237.6 
" style="fill:none;stroke:#000000;stroke-dasharray:1.000000,3.000000;stroke-dashoffset:0.0;stroke-width:0.5;"/>
     </g>
     <g id="line2d_36">
      <g>
       <use style="stroke:#000000;stroke-width:0.5;" x="81.0" xlink:href="#ma8674873e7" y="237.6"/>
      </g>
     </g>
     <g id="line2d_37">
      <g>
       <use style="stroke:#000000;stroke-width:0.5;" x="583.2" xlink:href="#m92ba45ad8a" y="237.6"/>
      </g>
     </g>
     <g id="text_13">
      <!-- 40 -->
      <defs>
       <path d="M 37.796875 64.3125 
L 12.890625 25.390625 
L 37.796875 25.390625 
z
M 35.203125 72.90625 
L 47.609375 72.90625 
L 47.609375 25.390625 
L 58.015625 25.390625 
L 58.015625 17.1875 
L 47.609375 17.1875 
L 47.609375 0 
L 37.796875 0 
L 37.796875 17.1875 
L 4.890625 17.1875 
L 4.890625 26.703125 
z
" id="BitstreamVeraSans-Roman-34"/>
      </defs>
      <g transform="translate(61.73 240.91125)scale(0.12 -0.12)">
       <use xlink:href="#BitstreamVeraSans-Roman-34"/>
       <use x="63.623046875" xlink:href="#BitstreamVeraSans-Roman-30"/>
      </g>
     </g>
    </g>
    <g id="ytick_6">
     <g id="line2d_38">
      <path clip-path="url(#p9b91746e71)" d="M 81 151.2 
L 583.2 151.2 
" style="fill:none;stroke:#000000;stroke-dasharray:1.000000,3.000000;stroke-dashoffset:0.0;stroke-width:0.5;"/>
     </g>
     <g id="line2d_39">
      <g>
       <use style="stroke:#000000;stroke-width:0.5;" x="81.0" xlink:href="#ma8674873e7" y="151.2"/>
      </g>
     </g>
     <g id="line2d_40">
      <g>
       <use style="stroke:#000000;stroke-width:0.5;" x="583.2" xlink:href="#m92ba45ad8a" y="151.2"/>
      </g>
     </g>
     <g id="text_14">
      <!-- 50 -->
      <defs>
       <path d="M 10.796875 72.90625 
L 49.515625 72.90625 
L 49.515625 64.59375 
L 19.828125 64.59375 
L 19.828125 46.734375 
Q 21.96875 47.46875 24.109375 47.828125 
Q 26.265625 48.1875 28.421875 48.1875 
Q 40.625 48.1875 47.75 41.5 
Q 54.890625 34.8125 54.890625 23.390625 
Q 54.890625 11.625 47.5625 5.09375 
Q 40.234375 -1.421875 26.90625 -1.421875 
Q 22.3125 -1.421875 17.546875 -0.640625 
Q 12.796875 0.140625 7.71875 1.703125 
L 7.71875 11.625 
Q 12.109375 9.234375 16.796875 8.0625 
Q 21.484375 6.890625 26.703125 6.890625 
Q 35.15625 6.890625 40.078125 11.328125 
Q 45.015625 15.765625 45.015625 23.390625 
Q 45.015625 31 40.078125 35.4375 
Q 35.15625 39.890625 26.703125 39.890625 
Q 22.75 39.890625 18.8125 39.015625 
Q 14.890625 38.140625 10.796875 36.28125 
z
" id="BitstreamVeraSans-Roman-35"/>
      </defs>
      <g transform="translate(61.73 154.51125)scale(0.12 -0.12)">
       <use xlink:href="#BitstreamVeraSans-Roman-35"/>
       <use x="63.623046875" xlink:href="#BitstreamVeraSans-Roman-30"/>
      </g>
     </g>
    </g>
    <g id="ytick_7">
     <g id="line2d_41">
      <path clip-path="url(#p9b91746e71)" d="M 81 64.8 
L 583.2 64.8 
" style="fill:none;stroke:#000000;stroke-dasharray:1.000000,3.000000;stroke-dashoffset:0.0;stroke-width:0.5;"/>
     </g>
     <g id="line2d_42">
      <g>
       <use style="stroke:#000000;stroke-width:0.5;" x="81.0" xlink:href="#ma8674873e7" y="64.8"/>
      </g>
     </g>
     <g id="line2d_43">
      <g>
       <use style="stroke:#000000;stroke-width:0.5;" x="583.2" xlink:href="#m92ba45ad8a" y="64.8"/>
      </g>
     </g>
     <g id="text_15">
      <!-- 60 -->
      <defs>
       <path d="M 33.015625 40.375 
Q 26.375 40.375 22.484375 35.828125 
Q 18.609375 31.296875 18.609375 23.390625 
Q 18.609375 15.53125 22.484375 10.953125 
Q 26.375 6.390625 33.015625 6.390625 
Q 39.65625 6.390625 43.53125 10.953125 
Q 47.40625 15.53125 47.40625 23.390625 
Q 47.40625 31.296875 43.53125 35.828125 
Q 39.65625 40.375 33.015625 40.375 
M 52.59375 71.296875 
L 52.59375 62.3125 
Q 48.875 64.0625 45.09375 64.984375 
Q 41.3125 65.921875 37.59375 65.921875 
Q 27.828125 65.921875 22.671875 59.328125 
Q 17.53125 52.734375 16.796875 39.40625 
Q 19.671875 43.65625 24.015625 45.921875 
Q 28.375 48.1875 33.59375 48.1875 
Q 44.578125 48.1875 50.953125 41.515625 
Q 57.328125 34.859375 57.328125 23.390625 
Q 57.328125 12.15625 50.6875 5.359375 
Q 44.046875 -1.421875 33.015625 -1.421875 
Q 20.359375 -1.421875 13.671875 8.265625 
Q 6.984375 17.96875 6.984375 36.375 
Q 6.984375 53.65625 15.1875 63.9375 
Q 23.390625 74.21875 37.203125 74.21875 
Q 40.921875 74.21875 44.703125 73.484375 
Q 48.484375 72.75 52.59375 71.296875 
" id="BitstreamVeraSans-Roman-36"/>
      </defs>
      <g transform="translate(61.73 68.11125)scale(0.12 -0.12)">
       <use xlink:href="#BitstreamVeraSans-Roman-36"/>
       <use x="63.623046875" xlink:href="#BitstreamVeraSans-Roman-30"/>
      </g>
     </g>
    </g>
    <g id="text_16">
     <!-- y -->
     <defs>
      <path d="M 32.171875 -5.078125 
Q 28.375 -14.84375 24.75 -17.8125 
Q 21.140625 -20.796875 15.09375 -20.796875 
L 7.90625 -20.796875 
L 7.90625 -13.28125 
L 13.1875 -13.28125 
Q 16.890625 -13.28125 18.9375 -11.515625 
Q 21 -9.765625 23.484375 -3.21875 
L 25.09375 0.875 
L 2.984375 54.6875 
L 12.5 54.6875 
L 29.59375 11.921875 
L 46.6875 54.6875 
L 56.203125 54.6875 
z
" id="BitstreamVeraSans-Roman-79"/>
     </defs>
     <g transform="translate(52.9865625 329.326875)rotate(-90.0)scale(0.18 -0.18)">
      <use xlink:href="#BitstreamVeraSans-Roman-79"/>
     </g>
    </g>
   </g>
   <g id="text_17">
    <!-- Data -->
    <defs>
     <path d="M 34.28125 27.484375 
Q 23.390625 27.484375 19.1875 25 
Q 14.984375 22.515625 14.984375 16.5 
Q 14.984375 11.71875 18.140625 8.90625 
Q 21.296875 6.109375 26.703125 6.109375 
Q 34.1875 6.109375 38.703125 11.40625 
Q 43.21875 16.703125 43.21875 25.484375 
L 43.21875 27.484375 
z
M 52.203125 31.203125 
L 52.203125 0 
L 43.21875 0 
L 43.21875 8.296875 
Q 40.140625 3.328125 35.546875 0.953125 
Q 30.953125 -1.421875 24.3125 -1.421875 
Q 15.921875 -1.421875 10.953125 3.296875 
Q 6 8.015625 6 15.921875 
Q 6 25.140625 12.171875 29.828125 
Q 18.359375 34.515625 30.609375 34.515625 
L 43.21875 34.515625 
L 43.21875 35.40625 
Q 43.21875 41.609375 39.140625 45 
Q 35.0625 48.390625 27.6875 48.390625 
Q 23 48.390625 18.546875 47.265625 
Q 14.109375 46.140625 10.015625 43.890625 
L 10.015625 52.203125 
Q 14.9375 54.109375 19.578125 55.046875 
Q 24.21875 56 28.609375 56 
Q 40.484375 56 46.34375 49.84375 
Q 52.203125 43.703125 52.203125 31.203125 
" id="BitstreamVeraSans-Roman-61"/>
     <path d="M 18.3125 70.21875 
L 18.3125 54.6875 
L 36.8125 54.6875 
L 36.8125 47.703125 
L 18.3125 47.703125 
L 18.3125 18.015625 
Q 18.3125 11.328125 20.140625 9.421875 
Q 21.96875 7.515625 27.59375 7.515625 
L 36.8125 7.515625 
L 36.8125 0 
L 27.59375 0 
Q 17.1875 0 13.234375 3.875 
Q 9.28125 7.765625 9.28125 18.015625 
L 9.28125 47.703125 
L 2.6875 47.703125 
L 2.6875 54.6875 
L 9.28125 54.6875 
L 9.28125 70.21875 
z
" id="BitstreamVeraSans-Roman-74"/>
     <path d="M 19.671875 64.796875 
L 19.671875 8.109375 
L 31.59375 8.109375 
Q 46.6875 8.109375 53.6875 14.9375 
Q 60.6875 21.78125 60.6875 36.53125 
Q 60.6875 51.171875 53.6875 57.984375 
Q 46.6875 64.796875 31.59375 64.796875 
z
M 9.8125 72.90625 
L 30.078125 72.90625 
Q 51.265625 72.90625 61.171875 64.09375 
Q 71.09375 55.28125 71.09375 36.53125 
Q 71.09375 17.671875 61.125 8.828125 
Q 51.171875 0 30.078125 0 
L 9.8125 0 
z
" id="BitstreamVeraSans-Roman-44"/>
    </defs>
    <g transform="translate(305.83578125 59.8)scale(0.22 -0.22)">
     <use xlink:href="#BitstreamVeraSans-Roman-44"/>
     <use x="77.001953125" xlink:href="#BitstreamVeraSans-Roman-61"/>
     <use x="138.28125" xlink:href="#BitstreamVeraSans-Roman-74"/>
     <use x="177.490234375" xlink:href="#BitstreamVeraSans-Roman-61"/>
    </g>
   </g>
   <g id="legend_1">
    <g id="patch_7">
     <path d="M 88.2 97.4565 
L 181.638 97.4565 
L 181.638 72 
L 88.2 72 
z
" style="fill:#ffffff;stroke:#000000;stroke-linejoin:miter;"/>
    </g>
    <g id="line2d_44">
     <path d="M 98.28 83.66175 
L 118.44 83.66175 
" style="fill:none;stroke:#0000ff;stroke-linecap:square;"/>
    </g>
    <g id="line2d_45"/>
    <g id="text_18">
     <!-- data1 -->
     <defs>
      <path d="M 45.40625 46.390625 
L 45.40625 75.984375 
L 54.390625 75.984375 
L 54.390625 0 
L 45.40625 0 
L 45.40625 8.203125 
Q 42.578125 3.328125 38.25 0.953125 
Q 33.9375 -1.421875 27.875 -1.421875 
Q 17.96875 -1.421875 11.734375 6.484375 
Q 5.515625 14.40625 5.515625 27.296875 
Q 5.515625 40.1875 11.734375 48.09375 
Q 17.96875 56 27.875 56 
Q 33.9375 56 38.25 53.625 
Q 42.578125 51.265625 45.40625 46.390625 
M 14.796875 27.296875 
Q 14.796875 17.390625 18.875 11.75 
Q 22.953125 6.109375 30.078125 6.109375 
Q 37.203125 6.109375 41.296875 11.75 
Q 45.40625 17.390625 45.40625 27.296875 
Q 45.40625 37.203125 41.296875 42.84375 
Q 37.203125 48.484375 30.078125 48.484375 
Q 22.953125 48.484375 18.875 42.84375 
Q 14.796875 37.203125 14.796875 27.296875 
" id="BitstreamVeraSans-Roman-64"/>
     </defs>
     <g transform="translate(134.28 88.70175)scale(0.144 -0.144)">
      <use xlink:href="#BitstreamVeraSans-Roman-64"/>
      <use x="63.4765625" xlink:href="#BitstreamVeraSans-Roman-61"/>
      <use x="124.755859375" xlink:href="#BitstreamVeraSans-Roman-74"/>
      <use x="163.96484375" xlink:href="#BitstreamVeraSans-Roman-61"/>
      <use x="225.244140625" xlink:href="#BitstreamVeraSans-Roman-31"/>
     </g>
    </g>
   </g>
  </g>
 </g>
 <defs>
  <clipPath id="p9b91746e71">
   <rect height="518.4" width="502.2" x="81.0" y="64.8"/>
  </clipPath>
 </defs>
</svg>
