<?xml version="1.0" encoding="utf-8" standalone="no"?>
<!DOCTYPE svg PUBLIC "-//W3C//DTD SVG 1.1//EN"
  "http://www.w3.org/Graphics/SVG/1.1/DTD/svg11.dtd">
<!-- Created with matplotlib (http://matplotlib.org/) -->
<svg height="648pt" version="1.1" viewBox="0 0 648 648" width="648pt" xmlns="http://www.w3.org/2000/svg" xmlns:xlink="http://www.w3.org/1999/xlink">
 <defs>
  <style type="text/css">
*{stroke-linecap:butt;stroke-linejoin:round;stroke-miterlimit:100000;}
  </style>
 </defs>
 <g id="figure_1">
  <g id="patch_1">
   <path d="M 0 648 
L 648 648 
L 648 0 
L 0 0 
z
" style="fill:#ffffff;"/>
  </g>
  <g id="axes_1">
   <g id="patch_2">
    <path d="M 81 583.2 
L 583.2 583.2 
L 583.2 64.8 
L 81 64.8 
z
" style="fill:#ffffff;"/>
   </g>
   <g id="line2d_1">
    <path clip-path="url(#p3b5e2d78ad)" d="M 357.437798 345.58151 
L 347.373107 365.022202 
L 336.054925 381.590611 
L 323.942464 394.996262 
L 311.483083 405.088301 
L 299.096179 411.843053 
L 287.162823 415.345709 
L 276.01561 415.772006 
L 265.933543 413.370605 
L 257.138816 408.448224 
L 249.795848 401.356858 
L 244.011509 392.481504 
L 239.837423 382.229626 
L 237.272386 371.019398 
L 236.267183 359.267962 
L 236.728604 347.378458 
L 238.526078 335.728956 
L 241.497897 324.66044 
L 245.459251 314.468145 
L 250.20946 305.394624 
L 255.539409 297.626054 
L 261.239379 291.290688 
L 267.105939 286.46041 
L 272.947308 283.154054 
L 278.588923 281.342074 
L 283.877016 280.95241 
L 288.681596 281.877062 
L 292.898228 283.97831 
L 296.448922 287.095622 
L 299.282154 291.051706 
L 301.37217 295.659763 
L 302.717483 300.728851 
L 303.339006 306.070272 
L 303.277537 311.502689 
L 302.590527 316.857433 
L 301.349812 321.982076 
L 299.63741 326.743995 
L 297.542674 331.032839 
L 295.158851 334.761846 
L 292.579893 337.868548 
L 289.897683 340.314342 
L 287.199383 342.083693 
L 284.565203 343.182182 
L 282.066759 343.634918 
L 279.765537 343.4832 
L 277.712061 342.783014 
L 275.945322 341.60089 
L 274.492698 340.011769 
L 273.37006 338.096074 
L 272.58239 335.936575 
L 272.124524 333.615992 
L 271.9822 331.214625 
L 272.133282 328.808125 
L 272.549024 326.465787 
L 273.195475 324.24907 
L 274.034973 322.210466 
L 275.027501 320.3928 
L 276.13208 318.828822 
L 277.308031 317.541168 
L 278.516064 316.542591 
L 279.719375 315.836548 
L 280.884445 315.417836 
L 281.981678 315.273583 
L 282.985957 315.384296 
L 283.876936 315.724988 
L 284.639207 316.266405 
L 285.262317 316.976216 
L 285.740612 317.820171 
L 286.072948 318.763313 
L 286.262418 319.770962 
L 286.315792 320.809663 
L 286.243094 321.848052 
L 285.77207 323.812846 
L 284.971664 325.478663 
L 283.978654 326.721652 
L 282.927364 327.483078 
L 281.935975 327.764189 
L 281.096857 327.615875 
L 280.471309 327.124708 
L 280.088442 326.397807 
L 279.947623 325.548312 
L 280.023584 324.682581 
L 280.273201 323.890548 
L 280.642939 323.239359 
L 281.299395 322.610396 
L 281.729466 322.437964 
L 282.104996 322.447097 
L 282.397889 322.606351 
L 282.652478 323.036049 
L 282.688295 323.562111 
L 282.47676 324.190852 
L 282.124451 324.563262 
L 281.794664 324.632037 
L 281.59237 324.468352 
L 281.556792 324.130914 
L 281.726538 323.818591 
L 281.94879 323.766293 
L 282.01148 323.926834 
L 281.874493 324.094958 
L 281.830834 324.021619 
L 281.84959 323.982739 
L 281.892863 323.970205 
L 281.880721 324.012031 
L 281.880721 324.012031 
L 281.873394 324.005682 
L 281.880696 323.99608 
L 281.880696 323.99608 
L 281.946125 323.902444 
L 289.999871 311.772067 
L 325.037059 259.013549 
L 339.474707 237.644064 
L 353.229965 217.646957 
L 364.034496 202.258253 
L 376.281346 185.230368 
L 382.973262 176.142989 
L 390.052273 166.719168 
L 397.518983 157.012474 
L 405.367364 147.096 
L 413.583758 137.06496 
L 422.14446 127.044288 
L 431.014116 117.186048 
L 440.142906 107.675136 
L 449.464341 98.734464 
L 458.893045 90.621504 
L 468.321951 83.631744 
L 477.620485 78.090048 
L 486.632966 74.340288 
L 495.18041 72.743616 
L 503.058924 73.645632 
L 510.04553 77.366016 
L 515.899174 84.16224 
L 520.378798 94.203648 
L 523.243346 107.54208 
L 524.269843 124.091136 
L 523.27147 143.600256 
L 520.103592 165.664051 
L 514.687867 189.73561 
L 507.014251 215.153107 
L 497.155061 241.189574 
L 485.25493 267.104736 
L 471.530607 292.199616 
L 456.262321 315.863764 
L 439.770073 337.60895 
L 422.398975 357.08567 
L 404.500768 374.083661 
L 386.416546 388.518509 
L 368.462695 400.409395 
L 350.921652 409.852397 
L 334.037287 416.994912 
L 318.010879 422.014234 
L 303.003536 425.099059 
L 289.138477 426.438605 
L 276.50413 426.21552 
L 265.159151 424.602778 
L 255.136243 421.763501 
L 246.445572 417.851654 
L 239.078699 413.015155 
L 233.010918 407.396218 
L 228.202855 401.134118 
L 224.603889 394.36537 
L 222.151345 387.223546 
L 220.774514 379.838938 
L 220.393846 372.336998 
L 220.923366 364.836614 
L 222.271672 357.448205 
L 224.344151 350.272685 
L 227.043577 343.398874 
L 230.27212 336.902769 
L 233.932957 330.847476 
L 237.931674 325.282276 
L 242.177474 320.24319 
L 246.58438 315.753621 
L 251.072641 311.82529 
L 255.568537 308.459388 
L 260.006378 305.647949 
L 264.327166 303.374938 
L 268.480119 301.617734 
L 272.422027 300.348691 
L 276.117295 299.535494 
L 279.537538 299.143066 
L 282.661421 299.133389 
L 285.474024 299.46793 
L 287.966463 300.106771 
L 290.135405 301.009997 
L 291.982456 302.138381 
L 293.513624 303.453389 
L 294.738791 304.918214 
L 295.671175 306.497088 
L 296.326787 308.156867 
L 296.723867 309.866498 
L 296.882502 311.597332 
L 296.824066 313.323396 
L 296.570816 315.021468 
L 296.145493 316.671068 
L 295.570916 318.254521 
L 294.869744 319.756931 
L 294.064035 321.166063 
L 293.175081 322.472273 
L 291.227388 324.749492 
L 289.173852 326.557475 
L 287.138637 327.895897 
L 285.220896 328.788876 
L 283.494418 329.278677 
L 282.008918 329.419734 
L 280.792136 329.273268 
L 279.85284 328.902733 
L 279.18415 328.370095 
L 278.767023 327.732998 
L 278.573656 327.042662 
L 278.570643 326.342667 
L 278.843659 325.349438 
L 279.341419 324.496145 
L 279.952956 323.828521 
L 280.790379 323.247285 
L 281.517868 322.987587 
L 282.157058 323.002604 
L 282.474528 323.237304 
L 282.530048 323.544186 
L 282.350802 323.913782 
L 281.988856 324.157367 
L 281.771416 324.109315 
L 281.769566 324.099996 
L 281.873072 323.977157 
L 281.895323 323.986705 
L 281.875177 324.006227 
L 281.875177 324.006227 
L 279.194395 327.690179 
L 260.627097 353.592 
L 240.756248 381.158611 
L 226.508633 400.565606 
L 215.844115 414.789293 
L 203.363441 431.002944 
L 193.970694 442.82592 
L 183.711149 455.288602 
L 178.265694 461.681856 
L 172.621569 468.124358 
L 166.793036 474.560122 
L 160.799178 480.922272 
L 154.664906 487.131322 
L 148.42256 493.095859 
L 142.11091 498.711168 
L 135.777565 503.860608 
L 129.478973 508.415616 
L 123.280821 512.234496 
L 117.258438 515.175552 
L 111.496597 517.084992 
L 106.088707 517.817664 
L 101.136613 517.235328 
L 96.747184 515.21184 
L 93.032109 511.650432 
L 90.102676 506.480256 
L 88.067159 499.675392 
L 87.025998 491.25865 
L 87.06758 481.298976 
L 88.262816 469.922342 
L 90.661123 457.305869 
L 94.286203 443.671949 
L 99.133638 429.279782 
L 105.16948 414.412589 
L 112.330048 399.363955 
L 120.524144 384.421939 
L 129.635659 369.856454 
L 139.5292 355.907002 
L 150.055111 342.774374 
L 161.055099 330.61589 
L 172.36846 319.543782 
L 183.837704 309.627585 
L 195.312773 300.898195 
L 206.65506 293.353402 
L 217.740221 286.965158 
L 228.459379 281.685082 
L 238.72053 277.451136 
L 248.447943 274.192301 
L 257.581153 271.833235 
L 266.075485 270.296179 
L 273.899018 269.504237 
L 281.032248 269.382413 
L 287.466332 269.858131 
L 293.201697 270.861926 
L 298.246819 272.327789 
L 302.617043 274.192474 
L 306.333524 276.396019 
L 309.422054 278.881747 
L 311.912765 281.595226 
L 313.839204 284.485997 
L 315.236727 287.505677 
L 316.143499 290.60951 
L 316.598894 293.756198 
L 316.642686 296.907379 
L 316.316055 300.028493 
L 315.659177 303.088435 
L 314.712229 306.060077 
L 313.514382 308.919658 
L 312.104204 311.647306 
L 310.517654 314.226639 
L 308.790086 316.644682 
L 306.954042 318.89179 
L 305.04046 320.961295 
L 303.077661 322.849352 
L 301.091721 324.554662 
L 299.106083 326.078179 
L 297.141878 327.422857 
L 295.217789 328.59337 
L 291.552513 330.437681 
L 288.212662 331.673322 
L 285.266636 332.374925 
L 282.752944 332.623377 
L 280.684714 332.501017 
L 279.054502 332.087869 
L 277.838877 331.458826 
L 277.002694 330.681675 
L 276.503005 329.815947 
L 276.292342 328.912186 
L 276.32165 328.011915 
L 276.542558 327.147794 
L 277.133688 325.970888 
L 277.915272 324.980794 
L 279.061232 323.985139 
L 280.15147 323.348202 
L 281.264654 322.974009 
L 282.023626 322.935336 
L 282.443987 323.091746 
L 282.602887 323.380325 
L 282.502244 323.703358 
L 282.15895 324.011334 
L 281.817595 324.069849 
L 281.815715 324.066142 
L 281.900585 323.973985 
L 284.975963 319.852714 
L 302.229345 296.341114 
L 321.927638 269.632627 
L 334.860895 252.415354 
L 347.93296 235.423757 
L 359.543824 220.793126 
L 368.188092 210.253709 
L 377.547493 199.252224 
L 387.575623 188.030074 
L 392.812565 182.441549 
L 398.175458 176.940461 
L 403.641604 171.59161 
L 409.182879 166.469645 
L 414.765535 161.658202 
L 420.349195 157.249728 
L 425.887055 153.345312 
L 431.324877 150.052608 
L 436.601794 147.483072 
L 441.649908 145.749888 
L 446.394493 144.967104 
L 450.755598 145.240128 
L 454.648853 146.664 
L 457.987278 149.31648 
L 460.683489 153.253037 
L 462.652314 158.501664 
L 463.814405 165.057178 
L 464.098047 172.878797 
L 463.443982 181.887725 
L 461.808216 191.967322 
L 459.164233 202.966733 
L 455.505807 214.705382 
L 450.848806 226.980576 
L 445.230393 239.575968 
L 438.709627 252.27193 
L 431.365053 264.854707 
L 423.292288 277.125235 
L 414.600211 288.907085 
L 405.407741 300.051302 
L 395.839023 310.439244 
L 386.019607 319.983903 
L 376.072431 328.628569 
L 366.115211 336.34421 
L 356.256624 343.12585 
L 346.595501 348.988262 
L 337.219025 353.962138 
L 328.202124 358.089466 
L 319.607072 361.420186 
L 311.484288 364.009594 
L 303.872744 365.915232 
L 296.800744 367.195507 
L 290.28721 367.908307 
L 284.342146 368.11031 
L 278.968124 367.855776 
L 274.161065 367.197408 
L 269.911248 366.184973 
L 266.204128 364.865645 
L 263.021084 363.284698 
L 260.340039 361.484467 
L 258.136587 359.50487 
L 256.383507 357.38375 
L 255.052275 355.156186 
L 254.113161 352.854662 
L 253.53543 350.509594 
L 253.288147 348.148627 
L 253.339974 345.796474 
L 253.660177 343.47577 
L 254.218221 341.206456 
L 254.983976 339.005762 
L 255.929317 336.88853 
L 257.026122 334.867133 
L 258.248075 332.951697 
L 259.570669 331.150067 
L 260.970401 329.4681 
L 262.425696 327.909721 
L 265.424995 325.170888 
L 268.43008 322.933313 
L 271.330023 321.177036 
L 274.040357 319.867557 
L 276.500855 318.96053 
L 278.672971 318.405756 
L 280.53674 318.150461 
L 282.087678 318.142028 
L 283.333682 318.329862 
L 284.292127 318.667029 
L 284.987192 319.111091 
L 285.447569 319.624808 
L 285.704394 320.176351 
L 285.777675 321.018232 
L 285.569101 321.819437 
L 285.173347 322.535821 
L 284.491601 323.318788 
L 283.589738 324.002636 
L 282.658908 324.439365 
L 281.859152 324.569322 
L 281.512054 324.421337 
L 281.514611 324.217687 
L 281.757431 324.00064 
L 281.902293 323.977566 
L 281.8031 324.095608 
L 281.8031 324.095608 
L 278.163379 328.866359 
L 260.014212 353.079994 
L 240.49189 378.94919 
L 228.025277 395.1288 
L 215.6352 410.796403 
L 204.781051 424.074701 
L 196.78221 433.526861 
L 188.194389 443.296454 
L 179.071022 453.164026 
L 174.336481 458.041997 
L 169.508532 462.820608 
L 164.607863 467.4456 
L 159.659385 471.85511 
L 154.693431 475.980883 
L 149.74435 479.748442 
L 144.852119 483.077434 
L 140.062135 485.883187 
L 135.425021 488.07792 
L 130.996421 489.573677 
L 126.836798 490.283885 
L 123.010637 490.127155 
L 119.585231 489.031085 
L 116.629885 486.935021 
L 114.2137 483.795245 
L 112.404173 479.588083 
L 111.264581 474.312845 
L 110.852375 467.99545 
L 111.215566 460.688602 
L 112.391919 452.472826 
L 114.405741 443.454048 
L 117.266674 433.761869 
L 120.96829 423.543514 
L 125.487487 412.959514 
L 130.785095 402.176966 
L 136.806674 391.362451 
L 143.483121 380.675808 
L 150.734086 370.264435 
L 158.470577 360.25897 
L 166.596374 350.76983 
L 175.012644 341.8848 
L 183.620352 333.669767 
L 192.322272 326.168675 
L 201.0258 319.405576 
L 209.64536 313.386935 
L 218.102609 308.104456 
L 226.328243 303.537888 
L 234.2622 299.65801 
L 241.853656 296.42855 
L 249.061431 293.809248 
L 255.852983 291.756557 
L 262.203985 290.226413 
L 268.097784 289.173715 
L 273.524557 288.554573 
L 278.480628 288.326131 
L 282.967653 288.447091 
L 286.991914 288.877709 
L 290.563701 289.580314 
L 293.696625 290.518963 
L 296.407119 291.660134 
L 298.713925 292.971686 
L 300.637572 294.423898 
L 302.200016 295.988602 
L 303.42438 297.639878 
L 304.334366 299.353709 
L 304.954081 301.107802 
L 305.307831 302.882112 
L 305.419922 304.658323 
L 305.31446 306.419674 
L 305.014747 308.151994 
L 304.543482 309.842289 
L 303.922964 311.479586 
L 303.174284 313.054537 
L 302.31733 314.559418 
L 300.353266 317.335519 
L 298.168556 319.77447 
L 295.880573 321.862136 
L 293.586623 323.600087 
L 291.364469 325.002152 
L 289.273429 326.091174 
L 287.356089 326.896163 
L 284.863289 327.643125 
L 282.864059 327.940583 
L 281.353413 327.901375 
L 280.293183 327.627832 
L 279.624881 327.207635 
L 279.280111 326.711837 
L 279.188449 326.195027 
L 279.345658 325.539254 
L 279.803041 324.847638 
L 280.477295 324.256363 
L 281.266675 323.840729 
L 281.922934 323.722786 
L 282.079709 323.844758 
L 282.077785 323.854453 
L 281.920232 323.998121 
L 281.731051 324.181984 
L 277.803181 329.237603 
L 259.962988 352.63417 
L 241.651169 376.492493 
L 230.181925 391.138502 
L 218.895884 405.202176 
L 209.074861 417.071117 
L 201.865278 425.514298 
L 194.141241 434.257459 
L 185.943127 443.13264 
L 177.344258 451.905005 
L 172.928915 456.158304 
L 168.460541 460.262131 
L 163.962034 464.164474 
L 159.45971 467.807962 
L 154.984104 471.130387 
L 150.569766 474.065741 
L 146.255667 476.544384 
L 142.084796 478.495469 
L 138.104158 479.84711 
L 134.364576 480.530016 
L 130.919484 480.478349 
L 127.824927 479.633702 
L 125.137956 477.946656 
L 122.915822 475.380922 
L 121.214368 471.914899 
L 120.085824 467.545306 
L 119.578 462.288211 
L 119.732275 456.180422 
L 120.580993 449.28 
L 122.147054 441.665568 
L 124.441706 433.433894 
L 127.463946 424.697472 
L 131.19951 415.580544 
L 135.621281 406.214438 
L 140.689684 396.733421 
L 146.353496 387.268819 
L 152.551045 377.945395 
L 159.212829 368.87737 
L 166.262512 360.164966 
L 173.620143 351.892339 
L 181.203564 344.127226 
L 188.931418 336.9201 
L 196.724357 330.304954 
L 204.50705 324.300852 
L 212.209392 318.913511 
L 219.767703 314.137267 
L 227.125536 309.957166 
L 234.233474 306.351072 
L 241.049734 303.29113 
L 247.540167 300.745958 
L 253.677452 298.681344 
L 259.4409 297.062381 
L 264.816389 295.852954 
L 269.794838 295.017811 
L 274.372532 294.521875 
L 278.550113 294.33145 
L 282.332074 294.414221 
L 285.726229 294.738912 
L 288.743206 295.27632 
L 291.396007 295.998278 
L 293.699598 296.878867 
L 295.670472 297.89303 
L 297.326366 299.017958 
L 298.685882 300.232051 
L 299.768304 301.515437 
L 300.593318 302.849626 
L 301.180731 304.217683 
L 301.55033 305.604576 
L 301.721761 306.996324 
L 301.714268 308.380401 
L 301.546614 309.745849 
L 301.236998 311.082993 
L 300.802896 312.383468 
L 299.627266 314.847043 
L 298.142984 317.093201 
L 296.458525 319.094986 
L 294.666836 320.839419 
L 292.845356 322.324996 
L 291.0566 323.559189 
L 288.537565 324.971666 
L 286.310388 325.918045 
L 284.434229 326.476414 
L 282.927115 326.727181 
L 281.777203 326.746639 
L 280.742826 326.528963 
L 280.180881 326.152345 
L 279.975346 325.714831 
L 280.016225 325.28272 
L 280.272273 324.808884 
L 280.848678 324.269869 
L 281.560956 323.914242 
L 281.980203 323.907289 
L 281.883816 323.99976 
L 281.770035 324.135467 
L 277.91941 329.135167 
L 259.646602 353.295302 
L 240.47582 378.46103 
L 228.368581 394.020461 
L 216.410797 408.991507 
L 205.985326 421.620768 
L 198.32758 430.585114 
L 190.12585 439.834579 
L 181.43096 449.167853 
L 176.925222 453.781786 
L 172.333507 458.304998 
L 167.675301 462.68807 
L 162.973302 466.875878 
L 158.254631 470.807597 
L 153.550825 474.416352 
L 148.897842 477.630605 
L 144.33646 480.374842 
L 139.912278 482.570957 
L 135.675117 484.139462 
L 131.679413 485.002771 
L 127.982819 485.087098 
L 124.646202 484.325222 
L 121.731835 482.660467 
L 119.302392 480.049286 
L 117.419343 476.465242 
L 116.141345 471.901248 
L 115.52163 466.372512 
L 115.606803 459.917395 
L 116.433625 452.598451 
L 118.028612 444.501734 
L 120.405424 435.733862 
L 123.563861 426.419597 
L 127.489257 416.697178 
L 132.152284 406.712794 
L 137.509754 396.615744 
L 143.505017 386.552045 
L 150.070981 376.659418 
L 157.130105 367.063488 
L 164.599024 357.87312 
L 172.389352 349.179379 
L 180.411294 341.054116 
L 188.575659 333.549308 
L 196.796071 326.698877 
L 204.990569 320.519929 
L 213.084225 315.015005 
L 221.008137 310.174324 
L 228.702645 305.978342 
L 236.115318 302.399827 
L 243.202967 299.40624 
L 249.929634 296.96112 
L 256.268001 295.025933 
L 262.197376 293.560934 
L 267.70418 292.526726 
L 272.780538 291.883738 
L 277.423999 291.593952 
L 281.636793 291.620563 
L 285.425231 291.928147 
L 288.79905 292.483354 
L 291.77095 293.253869 
L 294.356094 294.209971 
L 296.57158 295.323149 
L 298.436108 296.566618 
L 299.969626 297.916013 
L 301.192925 299.347834 
L 302.127499 300.840826 
L 302.795023 302.375462 
L 303.217273 303.933773 
L 303.416345 305.499514 
L 303.413332 307.058083 
L 303.229526 308.596383 
L 302.885218 310.103061 
L 302.400294 311.568163 
L 301.793375 312.983257 
L 300.285309 315.636307 
L 298.492917 318.020671 
L 296.531183 320.112864 
L 294.497514 321.904627 
L 292.47186 323.399862 
L 290.517539 324.611947 
L 288.68242 325.561077 
L 286.224392 326.546709 
L 284.174009 327.090234 
L 282.549292 327.287347 
L 281.333661 327.228353 
L 280.487646 326.993363 
L 279.958625 326.649784 
L 279.6885 326.251567 
L 279.631631 325.704707 
L 279.808063 325.197665 
L 280.292017 324.58376 
L 280.999627 324.074131 
L 281.72384 323.811392 
L 282.021874 323.870818 
L 282.022681 323.883992 
L 281.89716 323.999233 
L 281.753227 324.153874 
L 277.932346 329.057113 
L 260.934443 351.299635 
L 243.574394 373.901875 
L 230.202013 390.966394 
L 218.998935 404.892346 
L 209.26188 416.630822 
L 202.119592 424.974125 
L 194.472693 433.608595 
L 186.36156 442.36921 
L 177.85851 451.02528 
L 173.493991 455.221901 
L 169.078046 459.271296 
L 164.632973 463.122662 
L 160.184686 466.720186 
L 155.762916 470.00304 
L 151.401811 472.906944 
L 147.139137 475.364333 
L 143.01708 477.305568 
L 139.08164 478.661184 
L 135.382033 479.36327 
L 131.970889 479.347718 
L 128.902648 478.557158 
L 126.233154 476.943206 
L 124.018251 474.46992 
L 122.312177 471.115526 
L 121.16676 466.875878 
L 120.628803 461.765146 
L 120.738684 455.818234 
L 121.528946 449.090266 
L 123.022288 441.655891 
L 125.230562 433.60825 
L 128.153567 425.055514 
L 131.778446 416.117779 
L 136.080091 406.922227 
L 141.020333 397.599494 
L 146.550358 388.277798 
L 152.611109 379.079482 
L 159.134887 370.117037 
L 166.048374 361.489651 
L 173.273224 353.281651 
L 180.73009 345.560947 
L 188.338621 338.378982 
L 196.021076 331.771265 
L 203.70353 325.758516 
L 211.316882 320.348252 
L 218.797654 315.536723 
L 226.089798 311.310829 
L 233.143901 307.650096 
L 239.918177 304.52855 
L 246.377875 301.915987 
L 252.495474 299.779834 
L 258.249481 298.085875 
L 263.62503 296.799552 
L 268.612579 295.885786 
L 273.207589 295.311053 
L 277.409938 295.04183 
L 281.223325 295.046496 
L 284.654856 295.294291 
L 287.714399 295.756531 
L 290.414266 296.405395 
L 292.7687 297.215309 
L 294.793551 298.161734 
L 296.505892 299.221862 
L 297.923763 300.374438 
L 299.065867 301.599763 
L 299.951305 302.879866 
L 300.599384 304.197638 
L 301.029469 305.538048 
L 301.260722 306.887357 
L 301.312006 308.233054 
L 301.201703 309.564132 
L 300.94771 310.870898 
L 300.567183 312.1449 
L 299.491672 314.566779 
L 298.096862 316.785272 
L 296.490223 318.772057 
L 294.764202 320.512499 
L 292.996257 322.003382 
L 291.249204 323.25049 
L 288.772112 324.692999 
L 286.565024 325.677701 
L 284.690874 326.278351 
L 283.171767 326.571903 
L 281.681863 326.611958 
L 280.735681 326.389357 
L 280.230279 326.026063 
L 280.0547 325.611493 
L 280.142671 325.110072 
L 280.485198 324.612514 
L 281.099471 324.136035 
L 281.76991 323.880967 
L 281.971385 323.917479 
L 281.938871 323.971935 
L 281.603525 324.35437 
L 275.903177 331.933887 
L 235.538591 385.912685 
L 224.462269 400.303642 
L 214.614528 412.809178 
L 203.335317 426.706272 
L 195.00402 436.614106 
L 186.044571 446.859418 
L 176.514824 457.200979 
L 171.566748 462.305491 
L 166.52004 467.297338 
L 161.397801 472.115866 
L 156.227551 476.692819 
L 151.042236 480.952339 
L 145.880222 484.811309 
L 140.785906 488.180909 
L 135.809304 490.967309 
L 131.006465 493.074259 
L 126.438855 494.404646 
L 122.17357 494.865158 
L 118.281118 494.368186 
L 114.835625 492.837696 
L 111.91262 490.212346 
L 109.587233 486.450835 
L 107.93158 481.535712 
L 107.012956 475.476653 
L 106.890419 468.313747 
L 107.612984 460.11767 
L 109.216007 450.98951 
L 111.719775 441.058349 
L 115.127905 430.476941 
L 119.42513 419.416186 
L 124.578505 408.057869 
L 130.536807 396.586714 
L 137.232941 385.183642 
L 144.585149 374.018342 
L 152.500022 363.243226 
L 160.875914 352.988755 
L 169.60636 343.361376 
L 178.583085 334.442062 
L 187.698818 326.286887 
L 196.851112 318.928579 
L 205.943543 312.379269 
L 214.888127 306.633427 
L 223.606118 301.671648 
L 232.029217 297.462931 
L 240.09917 293.968915 
L 247.768366 291.145363 
L 254.998841 288.944755 
L 261.76227 287.318189 
L 268.038243 286.216416 
L 273.814768 285.590534 
L 279.086382 285.39337 
L 283.853756 285.579302 
L 288.122788 286.104269 
L 291.903892 286.926797 
L 295.211261 288.00697 
L 298.06231 289.307635 
L 300.477069 290.793542 
L 302.477633 292.431168 
L 304.087686 294.189581 
L 305.332338 296.039923 
L 306.237504 297.955238 
L 306.829497 299.910989 
L 307.134834 301.884538 
L 307.180233 303.855494 
L 306.992009 305.805542 
L 306.596074 307.718473 
L 306.017138 309.580116 
L 305.279708 311.378291 
L 304.407085 313.102714 
L 303.421166 314.744988 
L 302.342842 316.29839 
L 299.986399 319.119713 
L 297.477388 321.543164 
L 294.933223 323.565095 
L 292.448779 325.19758 
L 290.097458 326.464508 
L 287.932956 327.398043 
L 285.99127 328.035502 
L 284.293212 328.416785 
L 282.846667 328.582345 
L 281.140864 328.511566 
L 279.953386 328.165396 
L 279.21824 327.648914 
L 278.856435 327.047535 
L 278.785685 326.426751 
L 278.927506 325.833512 
L 279.327679 325.136532 
L 279.982859 324.462404 
L 280.882462 323.890057 
L 281.691121 323.637053 
L 282.0987 323.696404 
L 282.118487 323.857271 
L 281.892951 324.012576 
L 281.770505 324.134854 
L 277.946067 329.09957 
L 259.816144 353.067898 
L 240.798232 378.036461 
L 228.7838 393.485299 
L 216.912596 408.363379 
L 206.556227 420.929568 
L 198.944683 429.860563 
L 190.787147 439.088602 
L 182.132032 448.418246 
L 177.643167 453.039091 
L 173.066116 457.576128 
L 168.41936 461.980973 
L 163.724995 466.199712 
L 159.00994 470.172038 
L 154.304326 473.832288 
L 149.64391 477.109786 
L 145.068466 479.929363 
L 140.622992 482.213261 
L 136.356301 483.882682 
L 132.322229 484.859174 
L 128.578227 485.068435 
L 125.184159 484.442208 
L 122.202296 482.921914 
L 119.695514 480.461933 
L 117.725283 477.033062 
L 116.350662 472.624762 
L 115.625886 467.248954 
L 115.598567 460.940026 
L 116.307472 453.757075 
L 117.780525 445.78201 
L 120.033194 437.118682 
L 123.067888 427.888915 
L 126.871952 418.22905 
L 131.41867 408.284064 
L 136.666861 398.203258 
L 142.562087 388.132819 
L 149.038458 378.212198 
L 156.020444 368.569094 
L 163.425082 359.314963 
L 171.16539 350.543635 
L 179.150972 342.329933 
L 187.293041 334.729048 
L 195.504613 327.777494 
L 203.702928 321.49497 
L 211.811851 315.886159 
L 219.761878 310.943128 
L 227.491539 306.64777 
L 234.947602 302.974042 
L 242.085069 299.889907 
L 248.867381 297.359942 
L 255.26561 295.34544 
L 261.258061 293.807347 
L 266.830191 292.705747 
L 271.973141 292.001242 
L 276.683676 291.655814 
L 280.96331 291.632141 
L 284.817729 291.89497 
L 288.256172 292.410259 
L 291.290846 293.146042 
L 293.936536 294.071731 
L 296.210056 295.158816 
L 298.129826 296.380685 
L 299.715593 297.711936 
L 300.988027 299.129242 
L 301.968402 300.611347 
L 302.678513 302.138035 
L 303.140135 303.691162 
L 303.374964 305.254483 
L 303.404694 306.812776 
L 303.250217 308.353029 
L 302.932224 309.863508 
L 302.470401 311.334071 
L 301.883711 312.756025 
L 300.407705 315.426217 
L 298.637309 317.831005 
L 296.688773 319.945507 
L 294.660789 321.760322 
L 292.634653 323.278444 
L 290.674908 324.512501 
L 288.830649 325.482163 
L 286.35412 326.495128 
L 284.282163 327.061325 
L 282.635126 327.276305 
L 281.398109 327.230652 
L 280.532772 327.004957 
L 279.987134 326.667254 
L 279.703385 326.272147 
L 279.632896 325.726262 
L 279.80045 325.217748 
L 280.278105 324.59936 
L 280.985588 324.083058 
L 281.715972 323.813462 
L 282.022 323.876498 
L 282.022158 323.883033 
L 281.90118 323.997935 
L 281.748623 324.159578 
L 277.952113 329.031625 
L 261.041914 351.15984 
L 241.808056 376.179379 
L 230.459541 390.643603 
L 219.305277 404.51927 
L 209.60659 416.224742 
L 202.489613 424.551283 
L 194.866417 433.175904 
L 186.776176 441.936346 
L 178.289398 450.605894 
L 173.930503 454.815475 
L 169.518174 458.882669 
L 165.074306 462.75719 
L 160.624413 466.383571 
L 156.197821 469.701504 
L 151.828279 472.647226 
L 147.553151 475.152998 
L 143.41442 477.149875 
L 139.457285 478.567699 
L 135.730961 479.33856 
L 132.287878 479.39783 
L 129.182072 478.687277 
L 126.469389 477.157478 
L 124.205873 474.77111 
L 122.446164 471.505018 
L 121.24209 467.352806 
L 120.641257 462.327091 
L 120.684447 456.460531 
L 121.405606 449.806176 
L 122.828037 442.436947 
L 124.964999 434.444256 
L 127.817294 425.935066 
L 131.373673 417.028262 
L 135.60963 407.850682 
L 140.489005 398.532787 
L 145.963788 389.203488 
L 151.975524 379.98599 
L 158.45752 370.993478 
L 165.336857 362.327213 
L 172.535592 354.072557 
L 179.974179 346.299322 
L 187.572465 339.060781 
L 195.252308 332.39376 
L 202.939383 326.32041 
L 210.563582 320.849528 
L 218.061428 315.978382 
L 225.375871 311.694687 
L 232.45669 307.978623 
L 239.2615 304.804685 
L 245.754946 302.142874 
L 251.908302 299.961101 
L 257.700074 298.224979 
L 263.114333 296.899949 
L 268.141295 295.951104 
L 272.775837 295.344576 
L 277.017438 295.047014 
L 280.869489 295.026278 
L 284.338731 295.251955 
L 287.434834 295.694669 
L 290.169835 296.326944 
L 292.557857 297.122515 
L 294.614587 298.057018 
L 296.357 299.107469 
L 297.803055 300.252442 
L 298.971413 301.472064 
L 299.881158 302.748019 
L 300.551595 304.063373 
L 301.002069 305.402746 
L 301.251803 306.75221 
L 301.31968 308.099272 
L 301.224161 309.432735 
L 300.983186 310.742749 
L 300.614029 312.020744 
L 299.556496 314.45242 
L 298.173979 316.682369 
L 296.574713 318.68151 
L 294.851906 320.434618 
L 293.083761 321.937995 
L 291.333835 323.197021 
L 288.848768 324.655759 
L 286.631013 325.654258 
L 284.745051 326.266065 
L 283.214108 326.568205 
L 281.70972 326.616088 
L 280.751488 326.397911 
L 280.23686 326.036465 
L 280.054794 325.622003 
L 280.101348 325.215112 
L 280.412029 324.692726 
L 280.962619 324.219129 
L 281.67869 323.897685 
L 281.971437 323.917065 
L 281.962207 323.948931 
L 265.332369 346.140346 
L 242.475178 376.731821 
L 230.297632 392.718758 
L 218.098189 408.369082 
L 207.330017 421.780435 
L 199.344033 431.423539 
L 190.718446 441.490522 
L 181.491626 451.784218 
L 176.675528 456.930374 
L 171.74292 462.017261 
L 166.712081 466.992346 
L 161.605912 471.795322 
L 156.452135 476.358106 
L 151.283292 480.60553 
L 146.13755 484.455168 
L 141.058902 487.818893 
L 136.097166 490.603565 
L 131.307785 492.71328 
L 126.752027 494.051962 
L 122.496384 494.526643 
L 118.610963 494.050234 
L 115.169487 492.547046 
L 112.246884 489.956083 
L 109.917881 486.235699 
L 108.254193 481.367923 
L 107.322713 475.362259 
L 107.182699 468.257414 
L 107.882364 460.122854 
L 109.457866 451.058458 
L 111.929494 441.191578 
L 115.301064 430.673414 
L 119.558112 419.672794 
L 124.668299 408.370118 
L 130.581603 396.949075 
L 137.230932 385.589376 
L 144.536134 374.459846 
L 152.404604 363.712378 
L 160.735499 353.477606 
L 169.423158 343.862323 
L 178.359907 334.947727 
L 187.439281 326.790599 
L 196.558831 319.424429 
L 205.622939 312.862159 
L 214.543417 307.099158 
L 223.241722 302.116608 
L 231.649554 297.88439 
L 239.708659 294.364627 
L 247.370825 291.513773 
L 254.598286 289.284653 
L 261.362117 287.629056 
L 267.642007 286.497734 
L 273.425443 285.842477 
L 278.706699 285.615936 
L 283.486174 285.772838 
L 287.76946 286.269466 
L 291.566695 287.064173 
L 294.891801 288.117734 
L 297.761934 289.392826 
L 300.196821 290.85385 
L 302.218296 292.468147 
L 303.850045 294.204787 
L 305.116794 296.034566 
L 306.044056 297.930874 
L 306.658146 299.869344 
L 306.985581 301.826995 
L 307.052675 303.783782 
L 306.885542 305.721389 
L 306.509897 307.623416 
L 305.950647 309.475763 
L 305.232099 311.26623 
L 304.377154 312.984467 
L 303.407908 314.621971 
L 302.345454 316.172004 
L 300.016531 318.990355 
L 297.53036 321.415292 
L 295.004133 323.442357 
L 292.532887 325.082868 
L 290.190345 326.359964 
L 288.030624 327.305128 
L 286.090204 327.955064 
L 284.390357 328.349134 
L 282.939566 328.527325 
L 281.22387 328.474449 
L 280.02374 328.144193 
L 279.274647 327.641103 
L 278.89874 327.050352 
L 278.814672 326.437482 
L 278.944601 325.849651 
L 279.331717 325.156447 
L 279.975489 324.48289 
L 280.86747 323.906676 
L 281.676237 323.646208 
L 282.104154 323.711122 
L 282.101856 323.878448 
L 281.87195 324.010495 
L 281.879843 324.000126 
" style="fill:none;stroke:#0000ff;stroke-linecap:square;"/>
   </g>
   <g id="patch_3">
    <path d="M 583.2 583.2 
L 583.2 64.8 
" style="fill:none;stroke:#000000;stroke-linecap:square;stroke-linejoin:miter;"/>
   </g>
   <g id="patch_4">
    <path d="M 81 583.2 
L 583.2 583.2 
" style="fill:none;stroke:#000000;stroke-linecap:square;stroke-linejoin:miter;"/>
   </g>
   <g id="patch_5">
    <path d="M 81 583.2 
L 81 64.8 
" style="fill:none;stroke:#000000;stroke-linecap:square;stroke-linejoin:miter;"/>
   </g>
   <g id="patch_6">
    <path d="M 81 64.8 
L 583.2 64.8 
" style="fill:none;stroke:#000000;stroke-linecap:square;stroke-linejoin:miter;"/>
   </g>
   <g id="matplotlib.axis_1">
    <g id="xtick_1">
     <g id="line2d_2">
      <path clip-path="url(#p3b5e2d78ad)" d="M 81 583.2 
L 81 64.8 
" style="fill:none;stroke:#000000;stroke-dasharray:1.000000,3.000000;stroke-dashoffset:0.0;stroke-width:0.5;"/>
     </g>
     <g id="line2d_3">
      <defs>
       <path d="M 0 0 
L 0 -4 
" id="m2f37f43db5" style="stroke:#000000;stroke-width:0.5;"/>
      </defs>
      <g>
       <use style="stroke:#000000;stroke-width:0.5;" x="81.0" xlink:href="#m2f37f43db5" y="583.2"/>
      </g>
     </g>
     <g id="line2d_4">
      <defs>
       <path d="M 0 0 
L 0 4 
" id="m762c21a65b" style="stroke:#000000;stroke-width:0.5;"/>
      </defs>
      <g>
       <use style="stroke:#000000;stroke-width:0.5;" x="81.0" xlink:href="#m762c21a65b" y="64.8"/>
      </g>
     </g>
     <g id="text_1">
      <!-- −10 -->
      <defs>
       <path d="M 10.59375 35.5 
L 73.1875 35.5 
L 73.1875 27.203125 
L 10.59375 27.203125 
z
" id="BitstreamVeraSans-Roman-2212"/>
       <path d="M 12.40625 8.296875 
L 28.515625 8.296875 
L 28.515625 63.921875 
L 10.984375 60.40625 
L 10.984375 69.390625 
L 28.421875 72.90625 
L 38.28125 72.90625 
L 38.28125 8.296875 
L 54.390625 8.296875 
L 54.390625 0 
L 12.40625 0 
z
" id="BitstreamVeraSans-Roman-31"/>
       <path d="M 31.78125 66.40625 
Q 24.171875 66.40625 20.328125 58.90625 
Q 16.5 51.421875 16.5 36.375 
Q 16.5 21.390625 20.328125 13.890625 
Q 24.171875 6.390625 31.78125 6.390625 
Q 39.453125 6.390625 43.28125 13.890625 
Q 47.125 21.390625 47.125 36.375 
Q 47.125 51.421875 43.28125 58.90625 
Q 39.453125 66.40625 31.78125 66.40625 
M 31.78125 74.21875 
Q 44.046875 74.21875 50.515625 64.515625 
Q 56.984375 54.828125 56.984375 36.375 
Q 56.984375 17.96875 50.515625 8.265625 
Q 44.046875 -1.421875 31.78125 -1.421875 
Q 19.53125 -1.421875 13.0625 8.265625 
Q 6.59375 17.96875 6.59375 36.375 
Q 6.59375 54.828125 13.0625 64.515625 
Q 19.53125 74.21875 31.78125 74.21875 
" id="BitstreamVeraSans-Roman-30"/>
      </defs>
      <g transform="translate(68.3371875 596.318125)scale(0.12 -0.12)">
       <use xlink:href="#BitstreamVeraSans-Roman-2212"/>
       <use x="83.7890625" xlink:href="#BitstreamVeraSans-Roman-31"/>
       <use x="147.412109375" xlink:href="#BitstreamVeraSans-Roman-30"/>
      </g>
     </g>
    </g>
    <g id="xtick_2">
     <g id="line2d_5">
      <path clip-path="url(#p3b5e2d78ad)" d="M 181.44 583.2 
L 181.44 64.8 
" style="fill:none;stroke:#000000;stroke-dasharray:1.000000,3.000000;stroke-dashoffset:0.0;stroke-width:0.5;"/>
     </g>
     <g id="line2d_6">
      <g>
       <use style="stroke:#000000;stroke-width:0.5;" x="181.44" xlink:href="#m2f37f43db5" y="583.2"/>
      </g>
     </g>
     <g id="line2d_7">
      <g>
       <use style="stroke:#000000;stroke-width:0.5;" x="181.44" xlink:href="#m762c21a65b" y="64.8"/>
      </g>
     </g>
     <g id="text_2">
      <!-- −5 -->
      <defs>
       <path d="M 10.796875 72.90625 
L 49.515625 72.90625 
L 49.515625 64.59375 
L 19.828125 64.59375 
L 19.828125 46.734375 
Q 21.96875 47.46875 24.109375 47.828125 
Q 26.265625 48.1875 28.421875 48.1875 
Q 40.625 48.1875 47.75 41.5 
Q 54.890625 34.8125 54.890625 23.390625 
Q 54.890625 11.625 47.5625 5.09375 
Q 40.234375 -1.421875 26.90625 -1.421875 
Q 22.3125 -1.421875 17.546875 -0.640625 
Q 12.796875 0.140625 7.71875 1.703125 
L 7.71875 11.625 
Q 12.109375 9.234375 16.796875 8.0625 
Q 21.484375 6.890625 26.703125 6.890625 
Q 35.15625 6.890625 40.078125 11.328125 
Q 45.015625 15.765625 45.015625 23.390625 
Q 45.015625 31 40.078125 35.4375 
Q 35.15625 39.890625 26.703125 39.890625 
Q 22.75 39.890625 18.8125 39.015625 
Q 14.890625 38.140625 10.796875 36.28125 
z
" id="BitstreamVeraSans-Roman-35"/>
      </defs>
      <g transform="translate(172.5946875 596.318125)scale(0.12 -0.12)">
       <use xlink:href="#BitstreamVeraSans-Roman-2212"/>
       <use x="83.7890625" xlink:href="#BitstreamVeraSans-Roman-35"/>
      </g>
     </g>
    </g>
    <g id="xtick_3">
     <g id="line2d_8">
      <path clip-path="url(#p3b5e2d78ad)" d="M 281.88 583.2 
L 281.88 64.8 
" style="fill:none;stroke:#000000;stroke-dasharray:1.000000,3.000000;stroke-dashoffset:0.0;stroke-width:0.5;"/>
     </g>
     <g id="line2d_9">
      <g>
       <use style="stroke:#000000;stroke-width:0.5;" x="281.88" xlink:href="#m2f37f43db5" y="583.2"/>
      </g>
     </g>
     <g id="line2d_10">
      <g>
       <use style="stroke:#000000;stroke-width:0.5;" x="281.88" xlink:href="#m762c21a65b" y="64.8"/>
      </g>
     </g>
     <g id="text_3">
      <!-- 0 -->
      <g transform="translate(278.0625 596.318125)scale(0.12 -0.12)">
       <use xlink:href="#BitstreamVeraSans-Roman-30"/>
      </g>
     </g>
    </g>
    <g id="xtick_4">
     <g id="line2d_11">
      <path clip-path="url(#p3b5e2d78ad)" d="M 382.32 583.2 
L 382.32 64.8 
" style="fill:none;stroke:#000000;stroke-dasharray:1.000000,3.000000;stroke-dashoffset:0.0;stroke-width:0.5;"/>
     </g>
     <g id="line2d_12">
      <g>
       <use style="stroke:#000000;stroke-width:0.5;" x="382.32" xlink:href="#m2f37f43db5" y="583.2"/>
      </g>
     </g>
     <g id="line2d_13">
      <g>
       <use style="stroke:#000000;stroke-width:0.5;" x="382.32" xlink:href="#m762c21a65b" y="64.8"/>
      </g>
     </g>
     <g id="text_4">
      <!-- 5 -->
      <g transform="translate(378.5025 596.318125)scale(0.12 -0.12)">
       <use xlink:href="#BitstreamVeraSans-Roman-35"/>
      </g>
     </g>
    </g>
    <g id="xtick_5">
     <g id="line2d_14">
      <path clip-path="url(#p3b5e2d78ad)" d="M 482.76 583.2 
L 482.76 64.8 
" style="fill:none;stroke:#000000;stroke-dasharray:1.000000,3.000000;stroke-dashoffset:0.0;stroke-width:0.5;"/>
     </g>
     <g id="line2d_15">
      <g>
       <use style="stroke:#000000;stroke-width:0.5;" x="482.76" xlink:href="#m2f37f43db5" y="583.2"/>
      </g>
     </g>
     <g id="line2d_16">
      <g>
       <use style="stroke:#000000;stroke-width:0.5;" x="482.76" xlink:href="#m762c21a65b" y="64.8"/>
      </g>
     </g>
     <g id="text_5">
      <!-- 10 -->
      <g transform="translate(475.125 596.318125)scale(0.12 -0.12)">
       <use xlink:href="#BitstreamVeraSans-Roman-31"/>
       <use x="63.623046875" xlink:href="#BitstreamVeraSans-Roman-30"/>
      </g>
     </g>
    </g>
    <g id="xtick_6">
     <g id="line2d_17">
      <path clip-path="url(#p3b5e2d78ad)" d="M 583.2 583.2 
L 583.2 64.8 
" style="fill:none;stroke:#000000;stroke-dasharray:1.000000,3.000000;stroke-dashoffset:0.0;stroke-width:0.5;"/>
     </g>
     <g id="line2d_18">
      <g>
       <use style="stroke:#000000;stroke-width:0.5;" x="583.2" xlink:href="#m2f37f43db5" y="583.2"/>
      </g>
     </g>
     <g id="line2d_19">
      <g>
       <use style="stroke:#000000;stroke-width:0.5;" x="583.2" xlink:href="#m762c21a65b" y="64.8"/>
      </g>
     </g>
     <g id="text_6">
      <!-- 15 -->
      <g transform="translate(575.565 596.318125)scale(0.12 -0.12)">
       <use xlink:href="#BitstreamVeraSans-Roman-31"/>
       <use x="63.623046875" xlink:href="#BitstreamVeraSans-Roman-35"/>
      </g>
     </g>
    </g>
    <g id="text_7">
     <!-- x -->
     <defs>
      <path d="M 54.890625 54.6875 
L 35.109375 28.078125 
L 55.90625 0 
L 45.3125 0 
L 29.390625 21.484375 
L 13.484375 0 
L 2.875 0 
L 24.125 28.609375 
L 4.6875 54.6875 
L 15.28125 54.6875 
L 29.78125 35.203125 
L 44.28125 54.6875 
z
" id="BitstreamVeraSans-Roman-78"/>
     </defs>
     <g transform="translate(326.773125 617.4909375)scale(0.18 -0.18)">
      <use xlink:href="#BitstreamVeraSans-Roman-78"/>
     </g>
    </g>
   </g>
   <g id="matplotlib.axis_2">
    <g id="ytick_1">
     <g id="line2d_20">
      <path clip-path="url(#p3b5e2d78ad)" d="M 81 583.2 
L 583.2 583.2 
" style="fill:none;stroke:#000000;stroke-dasharray:1.000000,3.000000;stroke-dashoffset:0.0;stroke-width:0.5;"/>
     </g>
     <g id="line2d_21">
      <defs>
       <path d="M 0 0 
L 4 0 
" id="m959bd8cfef" style="stroke:#000000;stroke-width:0.5;"/>
      </defs>
      <g>
       <use style="stroke:#000000;stroke-width:0.5;" x="81.0" xlink:href="#m959bd8cfef" y="583.2"/>
      </g>
     </g>
     <g id="line2d_22">
      <defs>
       <path d="M 0 0 
L -4 0 
" id="m0224d10646" style="stroke:#000000;stroke-width:0.5;"/>
      </defs>
      <g>
       <use style="stroke:#000000;stroke-width:0.5;" x="583.2" xlink:href="#m0224d10646" y="583.2"/>
      </g>
     </g>
     <g id="text_8">
      <!-- −15 -->
      <g transform="translate(51.674375 586.51125)scale(0.12 -0.12)">
       <use xlink:href="#BitstreamVeraSans-Roman-2212"/>
       <use x="83.7890625" xlink:href="#BitstreamVeraSans-Roman-31"/>
       <use x="147.412109375" xlink:href="#BitstreamVeraSans-Roman-35"/>
      </g>
     </g>
    </g>
    <g id="ytick_2">
     <g id="line2d_23">
      <path clip-path="url(#p3b5e2d78ad)" d="M 81 496.8 
L 583.2 496.8 
" style="fill:none;stroke:#000000;stroke-dasharray:1.000000,3.000000;stroke-dashoffset:0.0;stroke-width:0.5;"/>
     </g>
     <g id="line2d_24">
      <g>
       <use style="stroke:#000000;stroke-width:0.5;" x="81.0" xlink:href="#m959bd8cfef" y="496.8"/>
      </g>
     </g>
     <g id="line2d_25">
      <g>
       <use style="stroke:#000000;stroke-width:0.5;" x="583.2" xlink:href="#m0224d10646" y="496.8"/>
      </g>
     </g>
     <g id="text_9">
      <!-- −10 -->
      <g transform="translate(51.674375 500.11125)scale(0.12 -0.12)">
       <use xlink:href="#BitstreamVeraSans-Roman-2212"/>
       <use x="83.7890625" xlink:href="#BitstreamVeraSans-Roman-31"/>
       <use x="147.412109375" xlink:href="#BitstreamVeraSans-Roman-30"/>
      </g>
     </g>
    </g>
    <g id="ytick_3">
     <g id="line2d_26">
      <path clip-path="url(#p3b5e2d78ad)" d="M 81 410.4 
L 583.2 410.4 
" style="fill:none;stroke:#000000;stroke-dasharray:1.000000,3.000000;stroke-dashoffset:0.0;stroke-width:0.5;"/>
     </g>
     <g id="line2d_27">
      <g>
       <use style="stroke:#000000;stroke-width:0.5;" x="81.0" xlink:href="#m959bd8cfef" y="410.4"/>
      </g>
     </g>
     <g id="line2d_28">
      <g>
       <use style="stroke:#000000;stroke-width:0.5;" x="583.2" xlink:href="#m0224d10646" y="410.4"/>
      </g>
     </g>
     <g id="text_10">
      <!-- −5 -->
      <g transform="translate(59.309375 413.71125)scale(0.12 -0.12)">
       <use xlink:href="#BitstreamVeraSans-Roman-2212"/>
       <use x="83.7890625" xlink:href="#BitstreamVeraSans-Roman-35"/>
      </g>
     </g>
    </g>
    <g id="ytick_4">
     <g id="line2d_29">
      <path clip-path="url(#p3b5e2d78ad)" d="M 81 324 
L 583.2 324 
" style="fill:none;stroke:#000000;stroke-dasharray:1.000000,3.000000;stroke-dashoffset:0.0;stroke-width:0.5;"/>
     </g>
     <g id="line2d_30">
      <g>
       <use style="stroke:#000000;stroke-width:0.5;" x="81.0" xlink:href="#m959bd8cfef" y="324.0"/>
      </g>
     </g>
     <g id="line2d_31">
      <g>
       <use style="stroke:#000000;stroke-width:0.5;" x="583.2" xlink:href="#m0224d10646" y="324.0"/>
      </g>
     </g>
     <g id="text_11">
      <!-- 0 -->
      <g transform="translate(69.365 327.31125)scale(0.12 -0.12)">
       <use xlink:href="#BitstreamVeraSans-Roman-30"/>
      </g>
     </g>
    </g>
    <g id="ytick_5">
     <g id="line2d_32">
      <path clip-path="url(#p3b5e2d78ad)" d="M 81 237.6 
L 583.2 237.6 
" style="fill:none;stroke:#000000;stroke-dasharray:1.000000,3.000000;stroke-dashoffset:0.0;stroke-width:0.5;"/>
     </g>
     <g id="line2d_33">
      <g>
       <use style="stroke:#000000;stroke-width:0.5;" x="81.0" xlink:href="#m959bd8cfef" y="237.6"/>
      </g>
     </g>
     <g id="line2d_34">
      <g>
       <use style="stroke:#000000;stroke-width:0.5;" x="583.2" xlink:href="#m0224d10646" y="237.6"/>
      </g>
     </g>
     <g id="text_12">
      <!-- 5 -->
      <g transform="translate(69.365 240.91125)scale(0.12 -0.12)">
       <use xlink:href="#BitstreamVeraSans-Roman-35"/>
      </g>
     </g>
    </g>
    <g id="ytick_6">
     <g id="line2d_35">
      <path clip-path="url(#p3b5e2d78ad)" d="M 81 151.2 
L 583.2 151.2 
" style="fill:none;stroke:#000000;stroke-dasharray:1.000000,3.000000;stroke-dashoffset:0.0;stroke-width:0.5;"/>
     </g>
     <g id="line2d_36">
      <g>
       <use style="stroke:#000000;stroke-width:0.5;" x="81.0" xlink:href="#m959bd8cfef" y="151.2"/>
      </g>
     </g>
     <g id="line2d_37">
      <g>
       <use style="stroke:#000000;stroke-width:0.5;" x="583.2" xlink:href="#m0224d10646" y="151.2"/>
      </g>
     </g>
     <g id="text_13">
      <!-- 10 -->
      <g transform="translate(61.73 154.51125)scale(0.12 -0.12)">
       <use xlink:href="#BitstreamVeraSans-Roman-31"/>
       <use x="63.623046875" xlink:href="#BitstreamVeraSans-Roman-30"/>
      </g>
     </g>
    </g>
    <g id="ytick_7">
     <g id="line2d_38">
      <path clip-path="url(#p3b5e2d78ad)" d="M 81 64.8 
L 583.2 64.8 
" style="fill:none;stroke:#000000;stroke-dasharray:1.000000,3.000000;stroke-dashoffset:0.0;stroke-width:0.5;"/>
     </g>
     <g id="line2d_39">
      <g>
       <use style="stroke:#000000;stroke-width:0.5;" x="81.0" xlink:href="#m959bd8cfef" y="64.8"/>
      </g>
     </g>
     <g id="line2d_40">
      <g>
       <use style="stroke:#000000;stroke-width:0.5;" x="583.2" xlink:href="#m0224d10646" y="64.8"/>
      </g>
     </g>
     <g id="text_14">
      <!-- 15 -->
      <g transform="translate(61.73 68.11125)scale(0.12 -0.12)">
       <use xlink:href="#BitstreamVeraSans-Roman-31"/>
       <use x="63.623046875" xlink:href="#BitstreamVeraSans-Roman-35"/>
      </g>
     </g>
    </g>
    <g id="text_15">
     <!-- y -->
     <defs>
      <path d="M 32.171875 -5.078125 
Q 28.375 -14.84375 24.75 -17.8125 
Q 21.140625 -20.796875 15.09375 -20.796875 
L 7.90625 -20.796875 
L 7.90625 -13.28125 
L 13.1875 -13.28125 
Q 16.890625 -13.28125 18.9375 -11.515625 
Q 21 -9.765625 23.484375 -3.21875 
L 25.09375 0.875 
L 2.984375 54.6875 
L 12.5 54.6875 
L 29.59375 11.921875 
L 46.6875 54.6875 
L 56.203125 54.6875 
z
" id="BitstreamVeraSans-Roman-79"/>
     </defs>
     <g transform="translate(42.9309375 329.326875)rotate(-90.0)scale(0.18 -0.18)">
      <use xlink:href="#BitstreamVeraSans-Roman-79"/>
     </g>
    </g>
   </g>
   <g id="text_16">
    <!-- Data -->
    <defs>
     <path d="M 34.28125 27.484375 
Q 23.390625 27.484375 19.1875 25 
Q 14.984375 22.515625 14.984375 16.5 
Q 14.984375 11.71875 18.140625 8.90625 
Q 21.296875 6.109375 26.703125 6.109375 
Q 34.1875 6.109375 38.703125 11.40625 
Q 43.21875 16.703125 43.21875 25.484375 
L 43.21875 27.484375 
z
M 52.203125 31.203125 
L 52.203125 0 
L 43.21875 0 
L 43.21875 8.296875 
Q 40.140625 3.328125 35.546875 0.953125 
Q 30.953125 -1.421875 24.3125 -1.421875 
Q 15.921875 -1.421875 10.953125 3.296875 
Q 6 8.015625 6 15.921875 
Q 6 25.140625 12.171875 29.828125 
Q 18.359375 34.515625 30.609375 34.515625 
L 43.21875 34.515625 
L 43.21875 35.40625 
Q 43.21875 41.609375 39.140625 45 
Q 35.0625 48.390625 27.6875 48.390625 
Q 23 48.390625 18.546875 47.265625 
Q 14.109375 46.140625 10.015625 43.890625 
L 10.015625 52.203125 
Q 14.9375 54.109375 19.578125 55.046875 
Q 24.21875 56 28.609375 56 
Q 40.484375 56 46.34375 49.84375 
Q 52.203125 43.703125 52.203125 31.203125 
" id="BitstreamVeraSans-Roman-61"/>
     <path d="M 18.3125 70.21875 
L 18.3125 54.6875 
L 36.8125 54.6875 
L 36.8125 47.703125 
L 18.3125 47.703125 
L 18.3125 18.015625 
Q 18.3125 11.328125 20.140625 9.421875 
Q 21.96875 7.515625 27.59375 7.515625 
L 36.8125 7.515625 
L 36.8125 0 
L 27.59375 0 
Q 17.1875 0 13.234375 3.875 
Q 9.28125 7.765625 9.28125 18.015625 
L 9.28125 47.703125 
L 2.6875 47.703125 
L 2.6875 54.6875 
L 9.28125 54.6875 
L 9.28125 70.21875 
z
" id="BitstreamVeraSans-Roman-74"/>
     <path d="M 19.671875 64.796875 
L 19.671875 8.109375 
L 31.59375 8.109375 
Q 46.6875 8.109375 53.6875 14.9375 
Q 60.6875 21.78125 60.6875 36.53125 
Q 60.6875 51.171875 53.6875 57.984375 
Q 46.6875 64.796875 31.59375 64.796875 
z
M 9.8125 72.90625 
L 30.078125 72.90625 
Q 51.265625 72.90625 61.171875 64.09375 
Q 71.09375 55.28125 71.09375 36.53125 
Q 71.09375 17.671875 61.125 8.828125 
Q 51.171875 0 30.078125 0 
L 9.8125 0 
z
" id="BitstreamVeraSans-Roman-44"/>
    </defs>
    <g transform="translate(305.83578125 59.8)scale(0.22 -0.22)">
     <use xlink:href="#BitstreamVeraSans-Roman-44"/>
     <use x="77.001953125" xlink:href="#BitstreamVeraSans-Roman-61"/>
     <use x="138.28125" xlink:href="#BitstreamVeraSans-Roman-74"/>
     <use x="177.490234375" xlink:href="#BitstreamVeraSans-Roman-61"/>
    </g>
   </g>
   <g id="legend_1">
    <g id="patch_7">
     <path d="M 88.2 97.4565 
L 181.638 97.4565 
L 181.638 72 
L 88.2 72 
z
" style="fill:#ffffff;stroke:#000000;stroke-linejoin:miter;"/>
    </g>
    <g id="line2d_41">
     <path d="M 98.28 83.66175 
L 118.44 83.66175 
" style="fill:none;stroke:#0000ff;stroke-linecap:square;"/>
    </g>
    <g id="line2d_42"/>
    <g id="text_17">
     <!-- data1 -->
     <defs>
      <path d="M 45.40625 46.390625 
L 45.40625 75.984375 
L 54.390625 75.984375 
L 54.390625 0 
L 45.40625 0 
L 45.40625 8.203125 
Q 42.578125 3.328125 38.25 0.953125 
Q 33.9375 -1.421875 27.875 -1.421875 
Q 17.96875 -1.421875 11.734375 6.484375 
Q 5.515625 14.40625 5.515625 27.296875 
Q 5.515625 40.1875 11.734375 48.09375 
Q 17.96875 56 27.875 56 
Q 33.9375 56 38.25 53.625 
Q 42.578125 51.265625 45.40625 46.390625 
M 14.796875 27.296875 
Q 14.796875 17.390625 18.875 11.75 
Q 22.953125 6.109375 30.078125 6.109375 
Q 37.203125 6.109375 41.296875 11.75 
Q 45.40625 17.390625 45.40625 27.296875 
Q 45.40625 37.203125 41.296875 42.84375 
Q 37.203125 48.484375 30.078125 48.484375 
Q 22.953125 48.484375 18.875 42.84375 
Q 14.796875 37.203125 14.796875 27.296875 
" id="BitstreamVeraSans-Roman-64"/>
     </defs>
     <g transform="translate(134.28 88.70175)scale(0.144 -0.144)">
      <use xlink:href="#BitstreamVeraSans-Roman-64"/>
      <use x="63.4765625" xlink:href="#BitstreamVeraSans-Roman-61"/>
      <use x="124.755859375" xlink:href="#BitstreamVeraSans-Roman-74"/>
      <use x="163.96484375" xlink:href="#BitstreamVeraSans-Roman-61"/>
      <use x="225.244140625" xlink:href="#BitstreamVeraSans-Roman-31"/>
     </g>
    </g>
   </g>
  </g>
 </g>
 <defs>
  <clipPath id="p3b5e2d78ad">
   <rect height="518.4" width="502.2" x="81.0" y="64.8"/>
  </clipPath>
 </defs>
</svg>
