<?xml version="1.0" encoding="utf-8" standalone="no"?>
<!DOCTYPE svg PUBLIC "-//W3C//DTD SVG 1.1//EN"
  "http://www.w3.org/Graphics/SVG/1.1/DTD/svg11.dtd">
<!-- Created with matplotlib (http://matplotlib.org/) -->
<svg height="648pt" version="1.1" viewBox="0 0 648 648" width="648pt" xmlns="http://www.w3.org/2000/svg" xmlns:xlink="http://www.w3.org/1999/xlink">
 <defs>
  <style type="text/css">
*{stroke-linecap:butt;stroke-linejoin:round;stroke-miterlimit:100000;}
  </style>
 </defs>
 <g id="figure_1">
  <g id="patch_1">
   <path d="M 0 648 
L 648 648 
L 648 0 
L 0 0 
z
" style="fill:#ffffff;"/>
  </g>
  <g id="axes_1">
   <g id="patch_2">
    <path d="M 81 583.2 
L 583.2 583.2 
L 583.2 64.8 
L 81 64.8 
z
" style="fill:#ffffff;"/>
   </g>
   <g id="line2d_1">
    <path clip-path="url(#pa43ff62b15)" d="M 357.437798 83.02176 
L 347.373107 84.112474 
L 311.483083 88.54272 
L 299.096179 89.858419 
L 287.162823 90.906624 
L 276.01561 91.646899 
L 265.933543 92.081318 
L 257.138816 92.251354 
L 249.795848 92.221286 
L 239.837423 91.894694 
L 236.267183 91.72777 
L 236.728604 91.841818 
L 250.20946 93.848026 
L 267.105939 96.210893 
L 283.877016 98.296934 
L 296.448922 99.81792 
L 301.37217 100.659802 
L 302.717483 101.080742 
L 303.339006 101.522419 
L 303.277537 101.99209 
L 302.590527 102.497011 
L 301.349812 103.037184 
L 297.542674 104.207731 
L 289.897683 106.073971 
L 279.765537 108.477274 
L 275.945322 109.598054 
L 274.492698 110.144448 
L 273.37006 110.685658 
L 272.58239 111.22583 
L 272.124524 111.768077 
L 271.9822 112.315507 
L 272.133282 112.869158 
L 272.549024 113.42903 
L 273.195475 113.995123 
L 275.027501 115.143898 
L 278.516064 116.882611 
L 281.981678 118.605773 
L 283.876936 119.738995 
L 285.262317 120.86185 
L 286.072948 121.978483 
L 286.262418 122.537318 
L 286.315792 123.096154 
L 286.243094 123.654989 
L 285.77207 124.776806 
L 284.971664 125.900698 
L 282.927364 128.14848 
L 281.49279 129.823949 
L 280.754827 130.936435 
L 280.248931 132.045811 
L 279.988851 133.152077 
L 279.960869 134.256269 
L 280.129875 135.360461 
L 280.642939 137.01312 
L 282.26302 141.397747 
L 282.592973 143.032781 
L 282.69865 144.661594 
L 282.549858 146.827469 
L 281.550852 154.870963 
L 281.596924 157.526208 
L 282.01148 166.97353 
L 281.885804 193.331059 
L 281.879613 225.79223 
L 282.03198 543.857587 
L 282.285012 545.84617 
L 282.644487 547.108992 
L 283.136484 548.08151 
L 283.807265 548.906803 
L 284.636355 549.583834 
L 285.82679 550.245312 
L 287.537886 550.879834 
L 289.433229 551.350541 
L 291.970303 551.763187 
L 295.367847 552.072154 
L 298.653279 552.189312 
L 302.743397 552.15095 
L 307.833093 551.868941 
L 311.8979 551.484288 
L 316.595479 550.879834 
L 322.019842 549.981965 
L 328.276048 548.693222 
L 335.479203 546.887117 
L 343.754053 544.393613 
L 348.333916 542.824934 
L 353.229965 540.998093 
L 358.458469 538.877837 
L 364.034496 536.421658 
L 369.971505 533.584973 
L 376.281346 530.315942 
L 382.973262 526.559616 
L 390.052273 522.255859 
L 397.518983 517.338317 
L 405.367364 511.740634 
L 413.583758 505.390234 
L 422.14446 498.218688 
L 431.014116 490.155494 
L 440.142906 481.139482 
L 449.464341 471.119846 
L 458.893045 460.060301 
L 468.321951 447.947366 
L 477.620485 434.800742 
L 486.632966 420.676416 
L 495.18041 405.67392 
L 503.058924 389.947738 
L 510.04553 373.705229 
L 515.899174 357.210778 
L 520.378798 340.775424 
L 523.243346 324.75168 
L 524.269843 309.509683 
L 523.27147 295.41335 
L 520.103592 282.797568 
L 514.687867 271.936051 
L 507.014251 263.014387 
L 497.155061 256.11863 
L 485.25493 251.224934 
L 471.530607 248.204736 
L 456.262321 246.842381 
L 439.770073 246.857933 
L 422.398975 247.940352 
L 404.500768 249.76823 
L 386.416546 252.038822 
L 334.037287 259.097357 
L 318.010879 260.973965 
L 303.003536 262.457626 
L 289.138477 263.519309 
L 276.50413 264.165235 
L 265.159151 264.423398 
L 255.136243 264.343565 
L 246.445572 263.985869 
L 239.078699 263.414592 
L 233.010918 262.700237 
L 228.202855 261.907085 
L 224.603889 261.09527 
L 222.151345 260.31767 
L 220.774514 259.616794 
L 220.393846 259.024781 
L 220.923366 258.564442 
L 222.271672 258.249254 
L 224.344151 258.08233 
L 227.043577 258.05952 
L 233.932957 258.400627 
L 242.177474 259.142976 
L 255.568537 260.668109 
L 276.117295 263.299507 
L 287.966463 265.018522 
L 291.982456 265.761907 
L 294.738791 266.466931 
L 296.326787 267.161587 
L 296.723867 267.513062 
L 296.882502 267.869722 
L 296.824066 268.233638 
L 296.570816 268.603776 
L 295.570916 269.369971 
L 294.064035 270.16416 
L 290.205532 271.814746 
L 285.220896 273.913229 
L 282.719331 275.161536 
L 280.792136 276.396365 
L 279.85284 277.213363 
L 279.18415 278.026214 
L 278.767023 278.835955 
L 278.573656 279.644659 
L 278.570643 280.453363 
L 278.843659 281.665382 
L 279.537619 283.280717 
L 281.671774 287.699558 
L 282.157058 289.294157 
L 282.43473 290.881498 
L 282.535445 292.856602 
L 282.419716 295.215322 
L 281.793969 303.741965 
L 281.790197 308.692685 
L 281.89124 323.528256 
L 281.879999 386.732621 
L 281.769254 502.677965 
L 281.531323 506.507904 
L 281.198507 508.659264 
L 280.745715 510.253862 
L 280.187417 511.481434 
L 279.488122 512.521344 
L 278.683156 513.376704 
L 277.59995 514.215475 
L 276.140155 515.029363 
L 274.169904 515.799706 
L 272.105983 516.363725 
L 269.47801 516.854131 
L 266.130204 517.225306 
L 263.029843 517.383936 
L 259.312337 517.390157 
L 254.85702 517.17865 
L 249.52245 516.656102 
L 245.397581 516.07031 
L 240.756248 515.236723 
L 235.5406 514.086912 
L 229.690572 512.54208 
L 223.144898 510.498547 
L 215.844115 507.833971 
L 211.893408 506.221747 
L 207.73479 504.395942 
L 203.363441 502.333747 
L 198.775944 500.008205 
L 193.970694 497.395469 
L 188.948292 494.464435 
L 183.711149 491.18711 
L 178.265694 487.533427 
L 172.621569 483.472282 
L 166.793036 478.971533 
L 160.799178 474.004224 
L 154.664906 468.542362 
L 148.42256 462.562099 
L 142.11091 456.045811 
L 135.777565 448.98313 
L 129.478973 441.371981 
L 123.280821 433.222733 
L 117.258438 424.559232 
L 111.496597 415.421914 
L 106.088707 405.866765 
L 101.136613 395.971546 
L 96.747184 385.830605 
L 93.032109 375.55799 
L 90.102676 365.284339 
L 88.067159 355.153766 
L 87.025998 345.315571 
L 87.06758 335.9232 
L 88.262816 327.120768 
L 90.661123 319.042022 
L 94.286203 311.795827 
L 99.133638 305.466163 
L 105.16948 300.100723 
L 112.330048 295.715059 
L 120.524144 292.289472 
L 129.635659 289.772122 
L 139.5292 288.084211 
L 150.055111 287.126208 
L 161.055099 286.787174 
L 172.36846 286.947878 
L 183.837704 287.494272 
L 195.312773 288.314381 
L 206.65506 289.309709 
L 228.459379 291.502541 
L 257.581153 294.457421 
L 273.899018 295.87369 
L 287.466332 296.799552 
L 298.246819 297.308621 
L 309.422054 297.568858 
L 316.598894 297.680832 
L 316.642686 297.756518 
L 315.659177 298.006387 
L 291.552513 302.64192 
L 286.68736 303.843571 
L 282.752944 305.016192 
L 279.815998 306.159782 
L 278.396841 306.908352 
L 277.375909 307.650701 
L 276.713688 308.389939 
L 276.364599 309.127104 
L 276.280048 309.865306 
L 276.411102 310.605581 
L 276.909124 311.718067 
L 277.915272 313.205875 
L 280.636503 316.924877 
L 281.44546 318.403354 
L 282.023626 319.87561 
L 282.384044 321.340608 
L 282.583343 323.164339 
L 282.56992 325.340582 
L 282.252178 329.297011 
L 281.910921 334.270541 
L 281.814455 339.175642 
L 281.883003 360.088934 
L 281.968931 490.496602 
L 282.187684 495.347789 
L 282.510765 498.010291 
L 282.943573 499.887936 
L 283.504661 501.37367 
L 284.243373 502.658266 
L 285.148478 503.742758 
L 286.171299 504.629222 
L 287.524607 505.492877 
L 289.317984 506.317133 
L 291.166542 506.931955 
L 293.486646 507.48457 
L 296.40041 507.941798 
L 300.060966 508.248691 
L 303.409716 508.332672 
L 307.381716 508.233139 
L 312.08954 507.878554 
L 317.66175 507.166272 
L 321.927638 506.42496 
L 326.688092 505.408896 
L 331.990922 504.050688 
L 337.88454 502.269466 
L 344.41535 499.966733 
L 351.624532 497.024294 
L 355.494083 495.271066 
L 359.543824 493.304256 
L 363.77516 491.104166 
L 368.188092 488.647987 
L 372.780209 485.913946 
L 377.547493 482.878195 
L 382.482713 479.517926 
L 387.575623 475.808256 
L 392.812565 471.727411 
L 398.175458 467.251546 
L 403.641604 462.363034 
L 409.182879 457.04425 
L 414.765535 451.284826 
L 420.349195 445.076467 
L 425.887055 438.422285 
L 431.324877 431.330573 
L 436.601794 423.82103 
L 441.649908 415.926835 
L 446.394493 407.691533 
L 450.755598 399.173184 
L 454.648853 390.444365 
L 457.987278 381.589056 
L 460.683489 372.70679 
L 462.652314 363.901248 
L 463.814405 355.28855 
L 464.098047 346.982746 
L 463.443982 339.097882 
L 461.808216 331.738675 
L 459.164233 324.998438 
L 455.505807 318.951821 
L 450.848806 313.651699 
L 445.230393 309.128141 
L 438.709627 305.38633 
L 431.365053 302.40864 
L 423.292288 300.151526 
L 414.600211 298.559002 
L 405.407741 297.556416 
L 395.839023 297.061862 
L 386.019607 296.990323 
L 376.072431 297.254707 
L 366.115211 297.775181 
L 356.256624 298.473984 
L 337.219025 300.158784 
L 290.28721 304.676122 
L 274.161065 305.926502 
L 254.113161 307.308557 
L 253.288147 307.604045 
L 253.339974 307.776154 
L 254.218221 308.184653 
L 257.026122 308.957069 
L 272.713203 312.849216 
L 277.624598 314.379533 
L 280.53674 315.511718 
L 282.7479 316.627315 
L 284.292127 317.73047 
L 284.987192 318.460378 
L 285.447569 319.187174 
L 285.704394 319.912934 
L 285.777675 321.000538 
L 285.569101 322.088141 
L 285.01423 323.537587 
L 282.409275 329.303232 
L 281.930756 331.088602 
L 281.607303 333.217152 
L 281.48686 335.685773 
L 281.580685 339.52919 
L 281.878361 348.786778 
L 281.893272 359.76649 
L 281.879938 419.625101 
L 281.770737 481.045133 
L 281.53948 486.1296 
L 281.187741 489.118694 
L 280.756723 491.084467 
L 280.215189 492.639667 
L 279.520504 493.984397 
L 278.688097 495.121766 
L 277.764812 496.05385 
L 276.563771 496.965197 
L 274.998695 497.844403 
L 272.955906 498.67177 
L 270.878686 499.275187 
L 268.303304 499.798771 
L 265.10873 500.202086 
L 261.145568 500.420851 
L 257.560463 500.40841 
L 253.350018 500.18135 
L 248.411182 499.657766 
L 244.657338 499.09271 
L 240.49189 498.307853 
L 235.876471 497.251354 
L 230.772512 495.863078 
L 225.142047 494.070451 
L 218.950724 491.785344 
L 212.169618 488.90615 
L 204.781051 485.314675 
L 200.857262 483.212045 
L 196.78221 480.880282 
L 192.559512 478.302797 
L 188.194389 475.459891 
L 183.694878 472.332902 
L 179.071022 468.904205 
L 174.336481 465.155136 
L 169.508532 461.071181 
L 164.607863 456.637824 
L 159.659385 451.843661 
L 154.693431 446.681434 
L 149.74435 441.148032 
L 144.852119 435.246566 
L 140.062135 428.987405 
L 135.425021 422.388173 
L 130.996421 415.475827 
L 126.836798 408.284582 
L 123.010637 400.863168 
L 119.585231 393.265498 
L 116.629885 385.56 
L 114.2137 377.819251 
L 112.404173 370.125158 
L 111.264581 362.566886 
L 110.852375 355.23049 
L 111.215566 348.20617 
L 112.391919 341.577907 
L 114.405741 335.419315 
L 117.266674 329.794675 
L 120.96829 324.755827 
L 125.487487 320.333875 
L 130.785095 316.544371 
L 136.806674 313.386278 
L 143.483121 310.840934 
L 150.734086 308.874125 
L 158.470577 307.44023 
L 166.596374 306.483264 
L 175.012644 305.942054 
L 183.620352 305.751283 
L 192.322272 305.848742 
L 201.0258 306.172224 
L 209.64536 306.663667 
L 226.328243 307.95552 
L 249.061431 310.105843 
L 282.967653 313.36969 
L 300.637572 315.037901 
L 303.42438 315.445363 
L 304.954081 315.852826 
L 305.307831 316.066406 
L 305.419922 316.289318 
L 305.31446 316.523635 
L 304.543482 317.031667 
L 302.31733 317.892211 
L 297.030912 319.54487 
L 290.299524 321.718003 
L 286.471815 323.194406 
L 284.141447 324.296525 
L 282.307559 325.388275 
L 280.952539 326.471731 
L 280.030128 327.546893 
L 279.477515 328.617907 
L 279.224849 329.685811 
L 279.20245 330.750605 
L 279.420144 332.166874 
L 280.02404 334.286093 
L 281.266675 338.49239 
L 281.726613 340.923686 
L 281.996912 343.682611 
L 282.080571 347.098867 
L 281.953401 354.828211 
L 281.875384 366.254784 
L 281.704276 475.201728 
L 281.431087 479.809267 
L 281.044309 482.687424 
L 280.562541 484.716442 
L 279.971148 486.320371 
L 279.226998 487.70761 
L 278.349916 488.879194 
L 277.390493 489.837197 
L 276.158114 490.773427 
L 274.572227 491.674406 
L 272.97957 492.357658 
L 271.026393 492.992179 
L 268.629192 493.553088 
L 265.685376 494.005133 
L 262.069476 494.298547 
L 258.826007 494.365939 
L 255.044441 494.251891 
L 250.639544 493.894195 
L 245.516301 493.204723 
L 241.651169 492.50592 
L 237.389098 491.566579 
L 232.698148 490.336934 
L 227.546781 488.754778 
L 221.906673 486.74857 
L 215.754522 484.23433 
L 209.074861 481.116672 
L 201.865278 477.28777 
L 198.065833 475.071091 
L 194.141241 472.633574 
L 190.097727 469.95863 
L 185.943127 467.030707 
L 181.687685 463.837363 
L 177.344258 460.363046 
L 172.928915 456.595315 
L 168.460541 452.524838 
L 163.962034 448.143322 
L 159.45971 443.445581 
L 154.984104 438.430579 
L 150.569766 433.102464 
L 146.255667 427.470566 
L 142.084796 421.550438 
L 138.104158 415.36489 
L 134.364576 408.943987 
L 130.919484 402.325056 
L 127.824927 395.553715 
L 125.137956 388.683878 
L 122.915822 381.774643 
L 121.214368 374.892365 
L 120.085824 368.106509 
L 119.578 361.487578 
L 119.732275 355.109184 
L 120.580993 349.039757 
L 122.147054 343.341504 
L 124.441706 338.07145 
L 127.463946 333.274176 
L 131.19951 328.983898 
L 135.621281 325.219277 
L 140.689684 321.989645 
L 146.353496 319.287744 
L 152.551045 317.093875 
L 159.212829 315.380045 
L 166.262512 314.106854 
L 173.620143 313.230758 
L 181.203564 312.703027 
L 188.931418 312.471821 
L 196.724357 312.487373 
L 204.50705 312.700954 
L 212.209392 313.069018 
L 227.125536 314.104781 
L 241.049734 315.330278 
L 264.816389 317.697293 
L 291.396007 320.519462 
L 297.326366 321.335424 
L 299.768304 321.831014 
L 301.180731 322.322458 
L 301.55033 322.573363 
L 301.721761 322.829453 
L 301.714268 323.0928 
L 301.546614 323.364442 
L 300.802896 323.932608 
L 298.916573 324.849139 
L 294.666836 326.51735 
L 289.34914 328.643827 
L 286.310388 330.082906 
L 284.434229 331.159104 
L 282.927115 332.230118 
L 281.777203 333.294912 
L 280.952678 334.353485 
L 280.41003 335.406874 
L 280.100583 336.457152 
L 279.966463 337.852685 
L 280.098881 339.590362 
L 280.627738 342.356544 
L 281.418344 346.467456 
L 281.771848 349.518758 
L 281.952472 353.210803 
L 281.965771 359.166182 
L 281.879977 382.248461 
L 281.760315 477.130176 
L 281.523344 482.311066 
L 281.173393 485.356147 
L 280.697972 487.55831 
L 280.149804 489.141504 
L 279.454033 490.511117 
L 278.627893 491.668186 
L 277.507043 492.804518 
L 276.270285 493.72727 
L 274.669151 494.615808 
L 273.052549 495.288691 
L 271.060563 495.911808 
L 268.604122 496.459238 
L 265.573245 496.895731 
L 261.832899 497.163226 
L 258.464222 497.204698 
L 254.523157 497.053325 
L 249.916778 496.638605 
L 244.541631 495.867226 
L 240.47582 495.093773 
L 235.98354 494.05801 
L 231.029438 492.702912 
L 225.579965 490.961088 
L 219.604187 488.751667 
L 213.077596 485.979264 
L 205.985326 482.538125 
L 202.22646 480.529843 
L 198.32758 478.307981 
L 194.292302 475.856986 
L 190.12585 473.159232 
L 185.835455 470.198131 
L 181.43096 466.958131 
L 176.925222 463.422643 
L 172.333507 459.577152 
L 167.675301 455.410253 
L 162.973302 450.910541 
L 158.254631 446.072832 
L 153.550825 440.891942 
L 148.897842 435.373056 
L 144.33646 429.522394 
L 139.912278 423.355507 
L 135.675117 416.895206 
L 131.679413 410.171558 
L 127.982819 403.224998 
L 124.646202 396.104256 
L 121.731835 388.865318 
L 119.302392 381.574541 
L 117.419343 374.301389 
L 116.141345 367.124659 
L 115.52163 360.123149 
L 115.606803 353.375654 
L 116.433625 346.958899 
L 118.028612 340.944422 
L 120.405424 335.392358 
L 123.563861 330.355584 
L 127.489257 325.868314 
L 132.152284 321.954394 
L 137.509754 318.621082 
L 143.505017 315.85801 
L 150.070981 313.643405 
L 157.130105 311.943053 
L 164.599024 310.713408 
L 172.389352 309.903667 
L 180.411294 309.456806 
L 188.575659 309.317875 
L 196.796071 309.428813 
L 204.990569 309.737779 
L 213.084225 310.195008 
L 228.702645 311.383181 
L 249.929634 313.373837 
L 296.57158 318.077798 
L 301.192925 318.781786 
L 302.795023 319.234867 
L 303.217273 319.468147 
L 303.416345 319.707648 
L 303.413332 319.955443 
L 303.229526 320.213606 
L 302.400294 320.761037 
L 300.285309 321.660979 
L 294.497514 323.682739 
L 289.582643 325.482624 
L 286.224392 326.938291 
L 284.174009 328.025894 
L 282.549292 329.10624 
L 281.333661 330.179328 
L 280.487646 331.246195 
L 279.958625 332.307878 
L 279.6885 333.366451 
L 279.619437 334.420877 
L 279.748121 335.824704 
L 280.202391 337.92215 
L 281.425971 343.118592 
L 281.795724 345.858854 
L 281.983089 348.916378 
L 282.012859 353.617229 
L 281.878187 377.70935 
L 281.776188 471.43296 
L 281.551403 477.384192 
L 281.222407 480.710246 
L 280.805238 482.96425 
L 280.259889 484.785907 
L 279.639164 486.186624 
L 278.910532 487.37376 
L 277.932346 488.541197 
L 276.863183 489.495053 
L 275.490831 490.420915 
L 273.726241 491.305306 
L 271.453625 492.123341 
L 269.170242 492.704986 
L 266.369834 493.188134 
L 262.934244 493.525094 
L 258.719942 493.644326 
L 254.94601 493.528205 
L 250.55417 493.167398 
L 245.450814 492.47689 
L 241.603962 491.779123 
L 237.364791 490.841856 
L 232.701764 489.615322 
L 227.584948 488.039386 
L 221.986222 486.043546 
L 215.883287 483.545894 
L 209.26188 480.452083 
L 202.119592 476.657395 
L 198.357511 474.46249 
L 194.472693 472.048819 
L 190.471364 469.401869 
L 186.36156 466.507123 
L 182.152923 463.351104 
L 177.85851 459.918259 
L 173.493991 456.199258 
L 169.078046 452.181658 
L 164.632973 447.858202 
L 160.184686 443.225779 
L 155.762916 438.28128 
L 151.401811 433.029888 
L 147.139137 427.480934 
L 143.01708 421.648934 
L 139.08164 415.555661 
L 135.382033 409.230144 
L 131.970889 402.709709 
L 128.902648 396.037901 
L 126.233154 389.26656 
L 124.018251 382.453747 
L 122.312177 375.663744 
L 121.16676 368.962906 
L 120.628803 362.422771 
L 120.738684 356.11177 
L 121.528946 350.09833 
L 123.022288 344.443622 
L 125.230562 339.203635 
L 128.153567 334.42295 
L 131.778446 330.135782 
L 136.080091 326.36183 
L 141.020333 323.111462 
L 146.550358 320.378458 
L 152.611109 318.147264 
L 159.134887 316.388851 
L 166.048374 315.069005 
L 173.273224 314.144179 
L 180.73009 313.566682 
L 188.338621 313.288819 
L 196.021076 313.260826 
L 203.70353 313.435008 
L 211.316882 313.766784 
L 226.089798 314.74967 
L 239.918177 315.94199 
L 263.62503 318.296563 
L 290.414266 321.17161 
L 296.505892 322.011418 
L 299.065867 322.51945 
L 300.599384 323.019187 
L 301.260722 323.53033 
L 301.312006 323.793677 
L 301.201703 324.065318 
L 300.567183 324.633485 
L 299.491672 325.233792 
L 296.490223 326.522534 
L 288.772112 329.677517 
L 285.901477 331.111411 
L 284.144922 332.184499 
L 282.743605 333.251366 
L 281.681863 334.312013 
L 280.926595 335.367475 
L 280.434847 336.41879 
L 280.159722 337.465958 
L 280.049895 338.858381 
L 280.187359 340.590874 
L 280.692976 343.348762 
L 281.484538 347.788339 
L 281.817469 351.163123 
L 281.959552 355.170355 
L 281.938871 362.716186 
L 281.880377 383.430413 
L 281.761333 485.133235 
L 281.528504 489.722112 
L 281.183541 492.463411 
L 280.73324 494.396006 
L 280.160708 495.92425 
L 279.418979 497.24617 
L 278.522672 498.361766 
L 277.521466 499.275187 
L 276.210664 500.164762 
L 274.491674 501.017011 
L 272.736183 501.656717 
L 270.550971 502.239398 
L 267.829006 502.733952 
L 264.437027 503.096832 
L 260.21007 503.254426 
L 256.371655 503.173555 
L 251.849846 502.849037 
L 246.529941 502.189632 
L 242.477388 501.501197 
L 237.973257 500.559782 
L 232.975362 499.306291 
L 227.442324 497.669184 
L 221.333764 495.56137 
L 214.614528 492.882278 
L 207.2577 489.512678 
L 203.335317 487.528243 
L 199.250222 485.317786 
L 195.00402 482.86368 
L 190.600128 480.14519 
L 186.044571 477.142618 
L 181.345787 473.835226 
L 176.514824 470.204352 
L 171.566748 466.229261 
L 166.52004 461.892326 
L 161.397801 457.18007 
L 156.227551 452.079014 
L 151.042236 446.583974 
L 145.880222 440.689766 
L 140.785906 434.403648 
L 135.809304 427.738061 
L 131.006465 420.711667 
L 126.438855 413.358682 
L 122.17357 405.720576 
L 118.281118 397.851264 
L 114.835625 389.816064 
L 111.91262 381.688589 
L 109.587233 373.55593 
L 107.93158 365.509325 
L 107.012956 357.645197 
L 106.890419 350.063078 
L 107.612984 342.857318 
L 109.216007 336.116045 
L 111.719775 329.918054 
L 115.127905 324.325555 
L 119.42513 319.384166 
L 124.578505 315.121882 
L 130.536807 311.544922 
L 137.232941 308.638771 
L 144.585149 306.373363 
L 152.500022 304.703078 
L 160.875914 303.568819 
L 169.60636 302.90423 
L 178.583085 302.63881 
L 187.698818 302.701018 
L 196.851112 303.021389 
L 205.943543 303.533568 
L 223.606118 304.910438 
L 247.768366 307.213171 
L 273.814768 309.720154 
L 295.211261 311.522112 
L 304.087686 312.33289 
L 306.237504 312.688512 
L 307.134834 313.066944 
L 307.180233 313.274304 
L 306.992009 313.496179 
L 306.017138 313.985549 
L 303.421166 314.837798 
L 288.989203 319.089715 
L 285.111014 320.58167 
L 282.846667 321.688973 
L 281.140864 322.78487 
L 279.953386 323.871437 
L 279.21824 324.951782 
L 278.856435 326.027981 
L 278.785685 327.102106 
L 278.927506 328.174157 
L 279.450798 329.957453 
L 281.389658 335.623565 
L 281.807837 337.726195 
L 282.062261 340.162675 
L 282.140435 343.269965 
L 281.994272 349.740634 
L 281.875725 358.725542 
L 281.879758 392.335488 
L 281.770505 476.637696 
L 281.540732 482.035277 
L 281.209105 485.085542 
L 280.759212 487.290816 
L 280.160586 489.074112 
L 279.469661 490.443725 
L 278.649408 491.60183 
L 277.536733 492.7392 
L 276.309156 493.662989 
L 274.720135 494.552563 
L 272.659849 495.389261 
L 270.577185 495.997862 
L 268.008714 496.525594 
L 264.839591 496.932019 
L 260.92902 497.153894 
L 257.407593 497.146637 
L 253.28875 496.928909 
L 248.477071 496.423987 
L 242.86589 495.530266 
L 238.62471 494.652096 
L 233.942198 493.488806 
L 228.7838 491.980262 
L 223.116774 490.050778 
L 216.912596 487.615334 
L 210.150171 484.575437 
L 206.556227 482.793178 
L 202.820663 480.816 
L 198.944683 478.629389 
L 194.931904 476.214682 
L 190.787147 473.557363 
L 186.517443 470.639808 
L 182.132032 467.44439 
L 177.643167 463.957632 
L 173.066116 460.162944 
L 168.41936 456.047885 
L 163.724995 451.603123 
L 159.00994 446.819328 
L 154.304326 441.695462 
L 149.64391 436.231526 
L 145.068466 430.434778 
L 140.622992 424.318694 
L 136.356301 417.906086 
L 132.322229 411.225984 
L 128.578227 404.315712 
L 125.184159 397.222963 
L 122.202296 390.003725 
L 119.695514 382.721242 
L 117.725283 375.446016 
L 116.350662 368.253734 
L 115.625886 361.22423 
L 115.598567 354.436301 
L 116.307472 347.967706 
L 117.780525 341.889984 
L 120.033194 336.265344 
L 123.067888 331.147699 
L 126.871952 326.575411 
L 131.41867 322.573363 
L 136.666861 319.14985 
L 142.562087 316.29865 
L 149.038458 314.001101 
L 156.020444 312.222989 
L 163.425082 310.921805 
L 171.16539 310.048819 
L 179.150972 309.548045 
L 187.293041 309.362458 
L 195.504613 309.437107 
L 203.702928 309.717043 
L 211.811851 310.152499 
L 227.491539 311.317862 
L 248.867381 313.305408 
L 296.210056 318.074688 
L 300.988027 318.782822 
L 302.678513 319.236941 
L 303.374964 319.706611 
L 303.404694 319.95337 
L 303.250217 320.210496 
L 302.470401 320.754816 
L 300.407705 321.649574 
L 295.679231 323.313638 
L 289.735834 325.461888 
L 286.35412 326.917555 
L 284.282163 328.006195 
L 282.635126 329.086541 
L 281.398109 330.159629 
L 280.532772 331.226496 
L 279.987134 332.288179 
L 279.703385 333.346752 
L 279.623635 334.402214 
L 279.742335 335.805005 
L 280.189054 337.902451 
L 281.414726 343.09993 
L 281.788936 345.840192 
L 281.98027 348.897715 
L 282.013008 353.598566 
L 281.878248 378.309658 
L 281.776662 471.421555 
L 281.552955 477.372787 
L 281.225569 480.698842 
L 280.810471 482.952845 
L 280.26785 484.774502 
L 279.650272 486.176256 
L 278.925316 487.362355 
L 277.952113 488.530829 
L 276.888413 489.484685 
L 275.523112 490.411584 
L 273.767622 491.297011 
L 272.005944 491.959526 
L 269.847188 492.561907 
L 267.199951 493.07616 
L 263.952384 493.458739 
L 259.968411 493.647437 
L 256.399577 493.604928 
L 252.244575 493.342618 
L 247.413612 492.784819 
L 241.808056 491.82889 
L 237.589174 490.904064 
L 232.948043 489.694118 
L 227.854328 488.137882 
L 222.280109 486.164851 
L 216.202485 483.694157 
L 209.60659 480.632486 
L 202.489613 476.87616 
L 198.739585 474.70199 
L 194.866417 472.310093 
L 190.876137 469.688026 
L 186.776176 466.818163 
L 182.576378 463.688064 
L 178.289398 460.28425 
L 173.930503 456.593242 
L 169.518174 452.605709 
L 165.074306 448.313357 
L 160.624413 443.711002 
L 156.197821 438.797606 
L 151.828279 433.575245 
L 147.553151 428.054285 
L 143.41442 422.249242 
L 139.457285 416.179814 
L 135.730961 409.875034 
L 132.287878 403.371187 
L 129.182072 396.711821 
L 126.469389 389.946701 
L 124.205873 383.133888 
L 122.446164 376.337664 
L 121.24209 369.623347 
L 120.641257 363.062477 
L 120.684447 356.724518 
L 121.405606 350.676864 
L 122.828037 344.983795 
L 124.964999 339.699226 
L 127.817294 334.869811 
L 131.373673 330.530803 
L 135.60963 326.705011 
L 140.489005 323.401766 
L 145.963788 320.617958 
L 151.975524 318.336998 
L 158.45752 316.534003 
L 165.336857 315.171648 
L 172.535592 314.209498 
L 179.974179 313.599859 
L 187.572465 313.294003 
L 195.252308 313.2432 
L 202.939383 313.399757 
L 210.563582 313.719091 
L 225.375871 314.684352 
L 239.2615 315.872525 
L 263.114333 318.234355 
L 290.169835 321.133248 
L 296.357 321.976166 
L 298.971413 322.485235 
L 300.551595 322.984973 
L 301.251803 323.495078 
L 301.31968 323.758426 
L 301.224161 324.02903 
L 300.614029 324.595123 
L 299.556496 325.193357 
L 297.395268 326.149286 
L 288.075661 329.99063 
L 285.334674 331.425562 
L 283.684899 332.496576 
L 282.38816 333.56137 
L 281.422628 334.620979 
L 280.751488 335.675405 
L 280.33003 336.724646 
L 280.111049 337.771814 
L 280.055439 339.162163 
L 280.232503 340.893619 
L 280.894848 344.335795 
L 281.525206 348.084864 
L 281.836466 351.457574 
L 281.963239 355.460659 
L 281.931374 363.647232 
L 281.88024 384.60407 
L 281.765454 484.704 
L 281.542198 489.303245 
L 281.212397 492.049728 
L 280.782727 493.98647 
L 280.237225 495.518861 
L 279.531371 496.843891 
L 278.679279 497.964672 
L 277.728293 498.88224 
L 276.484182 499.778035 
L 274.853881 500.639616 
L 273.190012 501.290726 
L 271.119963 501.889997 
L 268.542713 502.411507 
L 265.332369 502.811712 
L 261.332989 503.02944 
L 257.701481 503.012851 
L 253.423339 502.779571 
L 248.388885 502.243546 
L 244.552077 501.663974 
L 240.285586 500.857344 
L 235.547832 499.769741 
L 230.297632 498.335846 
L 224.493606 496.478938 
L 218.098189 494.104666 
L 211.079844 491.104166 
L 207.330017 489.329165 
L 203.41808 487.349914 
L 199.344033 485.146714 
L 195.109683 482.699866 
L 190.718446 479.990707 
L 186.176349 476.998502 
L 181.491626 473.702515 
L 176.675528 470.084083 
L 171.74292 466.124544 
L 166.712081 461.805235 
L 161.605912 457.110605 
L 156.452135 452.031322 
L 151.283292 446.558054 
L 146.13755 440.689766 
L 141.058902 434.430605 
L 136.097166 427.793011 
L 131.307785 420.797722 
L 126.752027 413.47584 
L 122.496384 405.869875 
L 118.610963 398.032704 
L 115.169487 390.028608 
L 112.246884 381.933274 
L 109.917881 373.829645 
L 108.254193 365.809997 
L 107.322713 357.969715 
L 107.182699 350.407296 
L 107.882364 343.216051 
L 109.457866 336.485146 
L 111.929494 330.292339 
L 115.301064 324.69984 
L 119.558112 319.754304 
L 124.668299 315.483725 
L 130.581603 311.893286 
L 137.230932 308.971584 
L 144.536134 306.68855 
L 152.404604 304.998566 
L 160.735499 303.844608 
L 169.423158 303.161357 
L 178.359907 302.877274 
L 187.439281 302.922893 
L 196.558831 303.228749 
L 205.622939 303.728486 
L 223.241722 305.087731 
L 247.370825 307.379059 
L 278.706699 310.367117 
L 305.116794 312.716506 
L 306.658146 313.082496 
L 306.985581 313.278451 
L 307.052675 313.485811 
L 306.885542 313.70665 
L 305.950647 314.196019 
L 303.407908 315.046195 
L 288.030624 319.663066 
L 285.209405 320.779699 
L 282.939566 321.887002 
L 281.22387 322.982899 
L 280.02374 324.068429 
L 279.274647 325.148774 
L 278.89874 326.223936 
L 278.814672 327.297024 
L 278.944601 328.369075 
L 279.331717 329.795712 
L 281.609188 336.866688 
L 281.968127 339.309389 
L 282.123842 342.079718 
L 282.093801 346.194778 
L 281.875536 359.232538 
L 281.879794 396.00887 
L 281.879843 402.909811 
L 281.879843 402.909811 
" style="fill:none;stroke:#0000ff;stroke-linecap:square;"/>
   </g>
   <g id="patch_3">
    <path d="M 81 64.8 
L 583.2 64.8 
" style="fill:none;stroke:#000000;stroke-linecap:square;stroke-linejoin:miter;"/>
   </g>
   <g id="patch_4">
    <path d="M 81 583.2 
L 583.2 583.2 
" style="fill:none;stroke:#000000;stroke-linecap:square;stroke-linejoin:miter;"/>
   </g>
   <g id="patch_5">
    <path d="M 81 583.2 
L 81 64.8 
" style="fill:none;stroke:#000000;stroke-linecap:square;stroke-linejoin:miter;"/>
   </g>
   <g id="patch_6">
    <path d="M 583.2 583.2 
L 583.2 64.8 
" style="fill:none;stroke:#000000;stroke-linecap:square;stroke-linejoin:miter;"/>
   </g>
   <g id="matplotlib.axis_1">
    <g id="xtick_1">
     <g id="line2d_2">
      <path clip-path="url(#pa43ff62b15)" d="M 81 583.2 
L 81 64.8 
" style="fill:none;stroke:#000000;stroke-dasharray:1.000000,3.000000;stroke-dashoffset:0.0;stroke-width:0.5;"/>
     </g>
     <g id="line2d_3">
      <defs>
       <path d="M 0 0 
L 0 -4 
" id="m9bb28d52b6" style="stroke:#000000;stroke-width:0.5;"/>
      </defs>
      <g>
       <use style="stroke:#000000;stroke-width:0.5;" x="81.0" xlink:href="#m9bb28d52b6" y="583.2"/>
      </g>
     </g>
     <g id="line2d_4">
      <defs>
       <path d="M 0 0 
L 0 4 
" id="me268521702" style="stroke:#000000;stroke-width:0.5;"/>
      </defs>
      <g>
       <use style="stroke:#000000;stroke-width:0.5;" x="81.0" xlink:href="#me268521702" y="64.8"/>
      </g>
     </g>
     <g id="text_1">
      <!-- −10 -->
      <defs>
       <path d="M 31.78125 66.40625 
Q 24.171875 66.40625 20.328125 58.90625 
Q 16.5 51.421875 16.5 36.375 
Q 16.5 21.390625 20.328125 13.890625 
Q 24.171875 6.390625 31.78125 6.390625 
Q 39.453125 6.390625 43.28125 13.890625 
Q 47.125 21.390625 47.125 36.375 
Q 47.125 51.421875 43.28125 58.90625 
Q 39.453125 66.40625 31.78125 66.40625 
M 31.78125 74.21875 
Q 44.046875 74.21875 50.515625 64.515625 
Q 56.984375 54.828125 56.984375 36.375 
Q 56.984375 17.96875 50.515625 8.265625 
Q 44.046875 -1.421875 31.78125 -1.421875 
Q 19.53125 -1.421875 13.0625 8.265625 
Q 6.59375 17.96875 6.59375 36.375 
Q 6.59375 54.828125 13.0625 64.515625 
Q 19.53125 74.21875 31.78125 74.21875 
" id="BitstreamVeraSans-Roman-30"/>
       <path d="M 12.40625 8.296875 
L 28.515625 8.296875 
L 28.515625 63.921875 
L 10.984375 60.40625 
L 10.984375 69.390625 
L 28.421875 72.90625 
L 38.28125 72.90625 
L 38.28125 8.296875 
L 54.390625 8.296875 
L 54.390625 0 
L 12.40625 0 
z
" id="BitstreamVeraSans-Roman-31"/>
       <path d="M 10.59375 35.5 
L 73.1875 35.5 
L 73.1875 27.203125 
L 10.59375 27.203125 
z
" id="BitstreamVeraSans-Roman-2212"/>
      </defs>
      <g transform="translate(68.3371875 596.318125)scale(0.12 -0.12)">
       <use xlink:href="#BitstreamVeraSans-Roman-2212"/>
       <use x="83.7890625" xlink:href="#BitstreamVeraSans-Roman-31"/>
       <use x="147.412109375" xlink:href="#BitstreamVeraSans-Roman-30"/>
      </g>
     </g>
    </g>
    <g id="xtick_2">
     <g id="line2d_5">
      <path clip-path="url(#pa43ff62b15)" d="M 181.44 583.2 
L 181.44 64.8 
" style="fill:none;stroke:#000000;stroke-dasharray:1.000000,3.000000;stroke-dashoffset:0.0;stroke-width:0.5;"/>
     </g>
     <g id="line2d_6">
      <g>
       <use style="stroke:#000000;stroke-width:0.5;" x="181.44" xlink:href="#m9bb28d52b6" y="583.2"/>
      </g>
     </g>
     <g id="line2d_7">
      <g>
       <use style="stroke:#000000;stroke-width:0.5;" x="181.44" xlink:href="#me268521702" y="64.8"/>
      </g>
     </g>
     <g id="text_2">
      <!-- −5 -->
      <defs>
       <path d="M 10.796875 72.90625 
L 49.515625 72.90625 
L 49.515625 64.59375 
L 19.828125 64.59375 
L 19.828125 46.734375 
Q 21.96875 47.46875 24.109375 47.828125 
Q 26.265625 48.1875 28.421875 48.1875 
Q 40.625 48.1875 47.75 41.5 
Q 54.890625 34.8125 54.890625 23.390625 
Q 54.890625 11.625 47.5625 5.09375 
Q 40.234375 -1.421875 26.90625 -1.421875 
Q 22.3125 -1.421875 17.546875 -0.640625 
Q 12.796875 0.140625 7.71875 1.703125 
L 7.71875 11.625 
Q 12.109375 9.234375 16.796875 8.0625 
Q 21.484375 6.890625 26.703125 6.890625 
Q 35.15625 6.890625 40.078125 11.328125 
Q 45.015625 15.765625 45.015625 23.390625 
Q 45.015625 31 40.078125 35.4375 
Q 35.15625 39.890625 26.703125 39.890625 
Q 22.75 39.890625 18.8125 39.015625 
Q 14.890625 38.140625 10.796875 36.28125 
z
" id="BitstreamVeraSans-Roman-35"/>
      </defs>
      <g transform="translate(172.5946875 596.318125)scale(0.12 -0.12)">
       <use xlink:href="#BitstreamVeraSans-Roman-2212"/>
       <use x="83.7890625" xlink:href="#BitstreamVeraSans-Roman-35"/>
      </g>
     </g>
    </g>
    <g id="xtick_3">
     <g id="line2d_8">
      <path clip-path="url(#pa43ff62b15)" d="M 281.88 583.2 
L 281.88 64.8 
" style="fill:none;stroke:#000000;stroke-dasharray:1.000000,3.000000;stroke-dashoffset:0.0;stroke-width:0.5;"/>
     </g>
     <g id="line2d_9">
      <g>
       <use style="stroke:#000000;stroke-width:0.5;" x="281.88" xlink:href="#m9bb28d52b6" y="583.2"/>
      </g>
     </g>
     <g id="line2d_10">
      <g>
       <use style="stroke:#000000;stroke-width:0.5;" x="281.88" xlink:href="#me268521702" y="64.8"/>
      </g>
     </g>
     <g id="text_3">
      <!-- 0 -->
      <g transform="translate(278.0625 596.318125)scale(0.12 -0.12)">
       <use xlink:href="#BitstreamVeraSans-Roman-30"/>
      </g>
     </g>
    </g>
    <g id="xtick_4">
     <g id="line2d_11">
      <path clip-path="url(#pa43ff62b15)" d="M 382.32 583.2 
L 382.32 64.8 
" style="fill:none;stroke:#000000;stroke-dasharray:1.000000,3.000000;stroke-dashoffset:0.0;stroke-width:0.5;"/>
     </g>
     <g id="line2d_12">
      <g>
       <use style="stroke:#000000;stroke-width:0.5;" x="382.32" xlink:href="#m9bb28d52b6" y="583.2"/>
      </g>
     </g>
     <g id="line2d_13">
      <g>
       <use style="stroke:#000000;stroke-width:0.5;" x="382.32" xlink:href="#me268521702" y="64.8"/>
      </g>
     </g>
     <g id="text_4">
      <!-- 5 -->
      <g transform="translate(378.5025 596.318125)scale(0.12 -0.12)">
       <use xlink:href="#BitstreamVeraSans-Roman-35"/>
      </g>
     </g>
    </g>
    <g id="xtick_5">
     <g id="line2d_14">
      <path clip-path="url(#pa43ff62b15)" d="M 482.76 583.2 
L 482.76 64.8 
" style="fill:none;stroke:#000000;stroke-dasharray:1.000000,3.000000;stroke-dashoffset:0.0;stroke-width:0.5;"/>
     </g>
     <g id="line2d_15">
      <g>
       <use style="stroke:#000000;stroke-width:0.5;" x="482.76" xlink:href="#m9bb28d52b6" y="583.2"/>
      </g>
     </g>
     <g id="line2d_16">
      <g>
       <use style="stroke:#000000;stroke-width:0.5;" x="482.76" xlink:href="#me268521702" y="64.8"/>
      </g>
     </g>
     <g id="text_5">
      <!-- 10 -->
      <g transform="translate(475.125 596.318125)scale(0.12 -0.12)">
       <use xlink:href="#BitstreamVeraSans-Roman-31"/>
       <use x="63.623046875" xlink:href="#BitstreamVeraSans-Roman-30"/>
      </g>
     </g>
    </g>
    <g id="xtick_6">
     <g id="line2d_17">
      <path clip-path="url(#pa43ff62b15)" d="M 583.2 583.2 
L 583.2 64.8 
" style="fill:none;stroke:#000000;stroke-dasharray:1.000000,3.000000;stroke-dashoffset:0.0;stroke-width:0.5;"/>
     </g>
     <g id="line2d_18">
      <g>
       <use style="stroke:#000000;stroke-width:0.5;" x="583.2" xlink:href="#m9bb28d52b6" y="583.2"/>
      </g>
     </g>
     <g id="line2d_19">
      <g>
       <use style="stroke:#000000;stroke-width:0.5;" x="583.2" xlink:href="#me268521702" y="64.8"/>
      </g>
     </g>
     <g id="text_6">
      <!-- 15 -->
      <g transform="translate(575.565 596.318125)scale(0.12 -0.12)">
       <use xlink:href="#BitstreamVeraSans-Roman-31"/>
       <use x="63.623046875" xlink:href="#BitstreamVeraSans-Roman-35"/>
      </g>
     </g>
    </g>
    <g id="text_7">
     <!-- x -->
     <defs>
      <path d="M 54.890625 54.6875 
L 35.109375 28.078125 
L 55.90625 0 
L 45.3125 0 
L 29.390625 21.484375 
L 13.484375 0 
L 2.875 0 
L 24.125 28.609375 
L 4.6875 54.6875 
L 15.28125 54.6875 
L 29.78125 35.203125 
L 44.28125 54.6875 
z
" id="BitstreamVeraSans-Roman-78"/>
     </defs>
     <g transform="translate(326.773125 617.4909375)scale(0.18 -0.18)">
      <use xlink:href="#BitstreamVeraSans-Roman-78"/>
     </g>
    </g>
   </g>
   <g id="matplotlib.axis_2">
    <g id="ytick_1">
     <g id="line2d_20">
      <path clip-path="url(#pa43ff62b15)" d="M 81 583.2 
L 583.2 583.2 
" style="fill:none;stroke:#000000;stroke-dasharray:1.000000,3.000000;stroke-dashoffset:0.0;stroke-width:0.5;"/>
     </g>
     <g id="line2d_21">
      <defs>
       <path d="M 0 0 
L 4 0 
" id="md148fe0b70" style="stroke:#000000;stroke-width:0.5;"/>
      </defs>
      <g>
       <use style="stroke:#000000;stroke-width:0.5;" x="81.0" xlink:href="#md148fe0b70" y="583.2"/>
      </g>
     </g>
     <g id="line2d_22">
      <defs>
       <path d="M 0 0 
L -4 0 
" id="me7699de584" style="stroke:#000000;stroke-width:0.5;"/>
      </defs>
      <g>
       <use style="stroke:#000000;stroke-width:0.5;" x="583.2" xlink:href="#me7699de584" y="583.2"/>
      </g>
     </g>
     <g id="text_8">
      <!-- 10 -->
      <g transform="translate(61.73 586.51125)scale(0.12 -0.12)">
       <use xlink:href="#BitstreamVeraSans-Roman-31"/>
       <use x="63.623046875" xlink:href="#BitstreamVeraSans-Roman-30"/>
      </g>
     </g>
    </g>
    <g id="ytick_2">
     <g id="line2d_23">
      <path clip-path="url(#pa43ff62b15)" d="M 81 479.52 
L 583.2 479.52 
" style="fill:none;stroke:#000000;stroke-dasharray:1.000000,3.000000;stroke-dashoffset:0.0;stroke-width:0.5;"/>
     </g>
     <g id="line2d_24">
      <g>
       <use style="stroke:#000000;stroke-width:0.5;" x="81.0" xlink:href="#md148fe0b70" y="479.52"/>
      </g>
     </g>
     <g id="line2d_25">
      <g>
       <use style="stroke:#000000;stroke-width:0.5;" x="583.2" xlink:href="#me7699de584" y="479.52"/>
      </g>
     </g>
     <g id="text_9">
      <!-- 20 -->
      <defs>
       <path d="M 19.1875 8.296875 
L 53.609375 8.296875 
L 53.609375 0 
L 7.328125 0 
L 7.328125 8.296875 
Q 12.9375 14.109375 22.625 23.890625 
Q 32.328125 33.6875 34.8125 36.53125 
Q 39.546875 41.84375 41.421875 45.53125 
Q 43.3125 49.21875 43.3125 52.78125 
Q 43.3125 58.59375 39.234375 62.25 
Q 35.15625 65.921875 28.609375 65.921875 
Q 23.96875 65.921875 18.8125 64.3125 
Q 13.671875 62.703125 7.8125 59.421875 
L 7.8125 69.390625 
Q 13.765625 71.78125 18.9375 73 
Q 24.125 74.21875 28.421875 74.21875 
Q 39.75 74.21875 46.484375 68.546875 
Q 53.21875 62.890625 53.21875 53.421875 
Q 53.21875 48.921875 51.53125 44.890625 
Q 49.859375 40.875 45.40625 35.40625 
Q 44.1875 33.984375 37.640625 27.21875 
Q 31.109375 20.453125 19.1875 8.296875 
" id="BitstreamVeraSans-Roman-32"/>
      </defs>
      <g transform="translate(61.73 482.83125)scale(0.12 -0.12)">
       <use xlink:href="#BitstreamVeraSans-Roman-32"/>
       <use x="63.623046875" xlink:href="#BitstreamVeraSans-Roman-30"/>
      </g>
     </g>
    </g>
    <g id="ytick_3">
     <g id="line2d_26">
      <path clip-path="url(#pa43ff62b15)" d="M 81 375.84 
L 583.2 375.84 
" style="fill:none;stroke:#000000;stroke-dasharray:1.000000,3.000000;stroke-dashoffset:0.0;stroke-width:0.5;"/>
     </g>
     <g id="line2d_27">
      <g>
       <use style="stroke:#000000;stroke-width:0.5;" x="81.0" xlink:href="#md148fe0b70" y="375.84"/>
      </g>
     </g>
     <g id="line2d_28">
      <g>
       <use style="stroke:#000000;stroke-width:0.5;" x="583.2" xlink:href="#me7699de584" y="375.84"/>
      </g>
     </g>
     <g id="text_10">
      <!-- 30 -->
      <defs>
       <path d="M 40.578125 39.3125 
Q 47.65625 37.796875 51.625 33 
Q 55.609375 28.21875 55.609375 21.1875 
Q 55.609375 10.40625 48.1875 4.484375 
Q 40.765625 -1.421875 27.09375 -1.421875 
Q 22.515625 -1.421875 17.65625 -0.515625 
Q 12.796875 0.390625 7.625 2.203125 
L 7.625 11.71875 
Q 11.71875 9.328125 16.59375 8.109375 
Q 21.484375 6.890625 26.8125 6.890625 
Q 36.078125 6.890625 40.9375 10.546875 
Q 45.796875 14.203125 45.796875 21.1875 
Q 45.796875 27.640625 41.28125 31.265625 
Q 36.765625 34.90625 28.71875 34.90625 
L 20.21875 34.90625 
L 20.21875 43.015625 
L 29.109375 43.015625 
Q 36.375 43.015625 40.234375 45.921875 
Q 44.09375 48.828125 44.09375 54.296875 
Q 44.09375 59.90625 40.109375 62.90625 
Q 36.140625 65.921875 28.71875 65.921875 
Q 24.65625 65.921875 20.015625 65.03125 
Q 15.375 64.15625 9.8125 62.3125 
L 9.8125 71.09375 
Q 15.4375 72.65625 20.34375 73.4375 
Q 25.25 74.21875 29.59375 74.21875 
Q 40.828125 74.21875 47.359375 69.109375 
Q 53.90625 64.015625 53.90625 55.328125 
Q 53.90625 49.265625 50.4375 45.09375 
Q 46.96875 40.921875 40.578125 39.3125 
" id="BitstreamVeraSans-Roman-33"/>
      </defs>
      <g transform="translate(61.73 379.15125)scale(0.12 -0.12)">
       <use xlink:href="#BitstreamVeraSans-Roman-33"/>
       <use x="63.623046875" xlink:href="#BitstreamVeraSans-Roman-30"/>
      </g>
     </g>
    </g>
    <g id="ytick_4">
     <g id="line2d_29">
      <path clip-path="url(#pa43ff62b15)" d="M 81 272.16 
L 583.2 272.16 
" style="fill:none;stroke:#000000;stroke-dasharray:1.000000,3.000000;stroke-dashoffset:0.0;stroke-width:0.5;"/>
     </g>
     <g id="line2d_30">
      <g>
       <use style="stroke:#000000;stroke-width:0.5;" x="81.0" xlink:href="#md148fe0b70" y="272.16"/>
      </g>
     </g>
     <g id="line2d_31">
      <g>
       <use style="stroke:#000000;stroke-width:0.5;" x="583.2" xlink:href="#me7699de584" y="272.16"/>
      </g>
     </g>
     <g id="text_11">
      <!-- 40 -->
      <defs>
       <path d="M 37.796875 64.3125 
L 12.890625 25.390625 
L 37.796875 25.390625 
z
M 35.203125 72.90625 
L 47.609375 72.90625 
L 47.609375 25.390625 
L 58.015625 25.390625 
L 58.015625 17.1875 
L 47.609375 17.1875 
L 47.609375 0 
L 37.796875 0 
L 37.796875 17.1875 
L 4.890625 17.1875 
L 4.890625 26.703125 
z
" id="BitstreamVeraSans-Roman-34"/>
      </defs>
      <g transform="translate(61.73 275.47125)scale(0.12 -0.12)">
       <use xlink:href="#BitstreamVeraSans-Roman-34"/>
       <use x="63.623046875" xlink:href="#BitstreamVeraSans-Roman-30"/>
      </g>
     </g>
    </g>
    <g id="ytick_5">
     <g id="line2d_32">
      <path clip-path="url(#pa43ff62b15)" d="M 81 168.48 
L 583.2 168.48 
" style="fill:none;stroke:#000000;stroke-dasharray:1.000000,3.000000;stroke-dashoffset:0.0;stroke-width:0.5;"/>
     </g>
     <g id="line2d_33">
      <g>
       <use style="stroke:#000000;stroke-width:0.5;" x="81.0" xlink:href="#md148fe0b70" y="168.48"/>
      </g>
     </g>
     <g id="line2d_34">
      <g>
       <use style="stroke:#000000;stroke-width:0.5;" x="583.2" xlink:href="#me7699de584" y="168.48"/>
      </g>
     </g>
     <g id="text_12">
      <!-- 50 -->
      <g transform="translate(61.73 171.79125)scale(0.12 -0.12)">
       <use xlink:href="#BitstreamVeraSans-Roman-35"/>
       <use x="63.623046875" xlink:href="#BitstreamVeraSans-Roman-30"/>
      </g>
     </g>
    </g>
    <g id="ytick_6">
     <g id="line2d_35">
      <path clip-path="url(#pa43ff62b15)" d="M 81 64.8 
L 583.2 64.8 
" style="fill:none;stroke:#000000;stroke-dasharray:1.000000,3.000000;stroke-dashoffset:0.0;stroke-width:0.5;"/>
     </g>
     <g id="line2d_36">
      <g>
       <use style="stroke:#000000;stroke-width:0.5;" x="81.0" xlink:href="#md148fe0b70" y="64.8"/>
      </g>
     </g>
     <g id="line2d_37">
      <g>
       <use style="stroke:#000000;stroke-width:0.5;" x="583.2" xlink:href="#me7699de584" y="64.8"/>
      </g>
     </g>
     <g id="text_13">
      <!-- 60 -->
      <defs>
       <path d="M 33.015625 40.375 
Q 26.375 40.375 22.484375 35.828125 
Q 18.609375 31.296875 18.609375 23.390625 
Q 18.609375 15.53125 22.484375 10.953125 
Q 26.375 6.390625 33.015625 6.390625 
Q 39.65625 6.390625 43.53125 10.953125 
Q 47.40625 15.53125 47.40625 23.390625 
Q 47.40625 31.296875 43.53125 35.828125 
Q 39.65625 40.375 33.015625 40.375 
M 52.59375 71.296875 
L 52.59375 62.3125 
Q 48.875 64.0625 45.09375 64.984375 
Q 41.3125 65.921875 37.59375 65.921875 
Q 27.828125 65.921875 22.671875 59.328125 
Q 17.53125 52.734375 16.796875 39.40625 
Q 19.671875 43.65625 24.015625 45.921875 
Q 28.375 48.1875 33.59375 48.1875 
Q 44.578125 48.1875 50.953125 41.515625 
Q 57.328125 34.859375 57.328125 23.390625 
Q 57.328125 12.15625 50.6875 5.359375 
Q 44.046875 -1.421875 33.015625 -1.421875 
Q 20.359375 -1.421875 13.671875 8.265625 
Q 6.984375 17.96875 6.984375 36.375 
Q 6.984375 53.65625 15.1875 63.9375 
Q 23.390625 74.21875 37.203125 74.21875 
Q 40.921875 74.21875 44.703125 73.484375 
Q 48.484375 72.75 52.59375 71.296875 
" id="BitstreamVeraSans-Roman-36"/>
      </defs>
      <g transform="translate(61.73 68.11125)scale(0.12 -0.12)">
       <use xlink:href="#BitstreamVeraSans-Roman-36"/>
       <use x="63.623046875" xlink:href="#BitstreamVeraSans-Roman-30"/>
      </g>
     </g>
    </g>
    <g id="text_14">
     <!-- y -->
     <defs>
      <path d="M 32.171875 -5.078125 
Q 28.375 -14.84375 24.75 -17.8125 
Q 21.140625 -20.796875 15.09375 -20.796875 
L 7.90625 -20.796875 
L 7.90625 -13.28125 
L 13.1875 -13.28125 
Q 16.890625 -13.28125 18.9375 -11.515625 
Q 21 -9.765625 23.484375 -3.21875 
L 25.09375 0.875 
L 2.984375 54.6875 
L 12.5 54.6875 
L 29.59375 11.921875 
L 46.6875 54.6875 
L 56.203125 54.6875 
z
" id="BitstreamVeraSans-Roman-79"/>
     </defs>
     <g transform="translate(52.9865625 329.326875)rotate(-90.0)scale(0.18 -0.18)">
      <use xlink:href="#BitstreamVeraSans-Roman-79"/>
     </g>
    </g>
   </g>
   <g id="text_15">
    <!-- Data -->
    <defs>
     <path d="M 34.28125 27.484375 
Q 23.390625 27.484375 19.1875 25 
Q 14.984375 22.515625 14.984375 16.5 
Q 14.984375 11.71875 18.140625 8.90625 
Q 21.296875 6.109375 26.703125 6.109375 
Q 34.1875 6.109375 38.703125 11.40625 
Q 43.21875 16.703125 43.21875 25.484375 
L 43.21875 27.484375 
z
M 52.203125 31.203125 
L 52.203125 0 
L 43.21875 0 
L 43.21875 8.296875 
Q 40.140625 3.328125 35.546875 0.953125 
Q 30.953125 -1.421875 24.3125 -1.421875 
Q 15.921875 -1.421875 10.953125 3.296875 
Q 6 8.015625 6 15.921875 
Q 6 25.140625 12.171875 29.828125 
Q 18.359375 34.515625 30.609375 34.515625 
L 43.21875 34.515625 
L 43.21875 35.40625 
Q 43.21875 41.609375 39.140625 45 
Q 35.0625 48.390625 27.6875 48.390625 
Q 23 48.390625 18.546875 47.265625 
Q 14.109375 46.140625 10.015625 43.890625 
L 10.015625 52.203125 
Q 14.9375 54.109375 19.578125 55.046875 
Q 24.21875 56 28.609375 56 
Q 40.484375 56 46.34375 49.84375 
Q 52.203125 43.703125 52.203125 31.203125 
" id="BitstreamVeraSans-Roman-61"/>
     <path d="M 19.671875 64.796875 
L 19.671875 8.109375 
L 31.59375 8.109375 
Q 46.6875 8.109375 53.6875 14.9375 
Q 60.6875 21.78125 60.6875 36.53125 
Q 60.6875 51.171875 53.6875 57.984375 
Q 46.6875 64.796875 31.59375 64.796875 
z
M 9.8125 72.90625 
L 30.078125 72.90625 
Q 51.265625 72.90625 61.171875 64.09375 
Q 71.09375 55.28125 71.09375 36.53125 
Q 71.09375 17.671875 61.125 8.828125 
Q 51.171875 0 30.078125 0 
L 9.8125 0 
z
" id="BitstreamVeraSans-Roman-44"/>
     <path d="M 18.3125 70.21875 
L 18.3125 54.6875 
L 36.8125 54.6875 
L 36.8125 47.703125 
L 18.3125 47.703125 
L 18.3125 18.015625 
Q 18.3125 11.328125 20.140625 9.421875 
Q 21.96875 7.515625 27.59375 7.515625 
L 36.8125 7.515625 
L 36.8125 0 
L 27.59375 0 
Q 17.1875 0 13.234375 3.875 
Q 9.28125 7.765625 9.28125 18.015625 
L 9.28125 47.703125 
L 2.6875 47.703125 
L 2.6875 54.6875 
L 9.28125 54.6875 
L 9.28125 70.21875 
z
" id="BitstreamVeraSans-Roman-74"/>
    </defs>
    <g transform="translate(305.83578125 59.8)scale(0.22 -0.22)">
     <use xlink:href="#BitstreamVeraSans-Roman-44"/>
     <use x="77.001953125" xlink:href="#BitstreamVeraSans-Roman-61"/>
     <use x="138.28125" xlink:href="#BitstreamVeraSans-Roman-74"/>
     <use x="177.490234375" xlink:href="#BitstreamVeraSans-Roman-61"/>
    </g>
   </g>
   <g id="legend_1">
    <g id="patch_7">
     <path d="M 88.2 97.4565 
L 181.638 97.4565 
L 181.638 72 
L 88.2 72 
z
" style="fill:#ffffff;stroke:#000000;stroke-linejoin:miter;"/>
    </g>
    <g id="line2d_38">
     <path d="M 98.28 83.66175 
L 118.44 83.66175 
" style="fill:none;stroke:#0000ff;stroke-linecap:square;"/>
    </g>
    <g id="line2d_39"/>
    <g id="text_16">
     <!-- data1 -->
     <defs>
      <path d="M 45.40625 46.390625 
L 45.40625 75.984375 
L 54.390625 75.984375 
L 54.390625 0 
L 45.40625 0 
L 45.40625 8.203125 
Q 42.578125 3.328125 38.25 0.953125 
Q 33.9375 -1.421875 27.875 -1.421875 
Q 17.96875 -1.421875 11.734375 6.484375 
Q 5.515625 14.40625 5.515625 27.296875 
Q 5.515625 40.1875 11.734375 48.09375 
Q 17.96875 56 27.875 56 
Q 33.9375 56 38.25 53.625 
Q 42.578125 51.265625 45.40625 46.390625 
M 14.796875 27.296875 
Q 14.796875 17.390625 18.875 11.75 
Q 22.953125 6.109375 30.078125 6.109375 
Q 37.203125 6.109375 41.296875 11.75 
Q 45.40625 17.390625 45.40625 27.296875 
Q 45.40625 37.203125 41.296875 42.84375 
Q 37.203125 48.484375 30.078125 48.484375 
Q 22.953125 48.484375 18.875 42.84375 
Q 14.796875 37.203125 14.796875 27.296875 
" id="BitstreamVeraSans-Roman-64"/>
     </defs>
     <g transform="translate(134.28 88.70175)scale(0.144 -0.144)">
      <use xlink:href="#BitstreamVeraSans-Roman-64"/>
      <use x="63.4765625" xlink:href="#BitstreamVeraSans-Roman-61"/>
      <use x="124.755859375" xlink:href="#BitstreamVeraSans-Roman-74"/>
      <use x="163.96484375" xlink:href="#BitstreamVeraSans-Roman-61"/>
      <use x="225.244140625" xlink:href="#BitstreamVeraSans-Roman-31"/>
     </g>
    </g>
   </g>
  </g>
 </g>
 <defs>
  <clipPath id="pa43ff62b15">
   <rect height="518.4" width="502.2" x="81.0" y="64.8"/>
  </clipPath>
 </defs>
</svg>
