<?xml version="1.0" encoding="utf-8" standalone="no"?>
<!DOCTYPE svg PUBLIC "-//W3C//DTD SVG 1.1//EN"
  "http://www.w3.org/Graphics/SVG/1.1/DTD/svg11.dtd">
<!-- Created with matplotlib (http://matplotlib.org/) -->
<svg height="648pt" version="1.1" viewBox="0 0 648 648" width="648pt" xmlns="http://www.w3.org/2000/svg" xmlns:xlink="http://www.w3.org/1999/xlink">
 <defs>
  <style type="text/css">
*{stroke-linecap:butt;stroke-linejoin:round;stroke-miterlimit:100000;}
  </style>
 </defs>
 <g id="figure_1">
  <g id="patch_1">
   <path d="M 0 648 
L 648 648 
L 648 0 
L 0 0 
z
" style="fill:#ffffff;"/>
  </g>
  <g id="axes_1">
   <g id="patch_2">
    <path d="M 81 583.2 
L 583.2 583.2 
L 583.2 64.8 
L 81 64.8 
z
" style="fill:#ffffff;"/>
   </g>
   <g id="line2d_1">
    <path clip-path="url(#p9653c9b9e0)" d="M 225.777086 323.75808 
L 225.715302 322.782261 
L 226.354444 321.652884 
L 230.044781 316.70225 
L 254.137611 285.132787 
L 276.116466 256.701139 
L 313.588765 209.832768 
L 374.178621 142.042464 
L 456.915353 84.189888 
L 515.953985 151.975008 
L 447.459645 380.634422 
L 268.832127 506.8872 
L 127.034952 484.32384 
L 86.710444 377.518406 
L 143.396915 265.201344 
L 232.401147 228.867552 
L 286.56323 262.871827 
L 284.42515 323.853254 
L 245.630774 364.54415 
L 206.81344 366.224112 
L 191.905131 341.633981 
L 201.8639 314.697312 
L 222.134945 302.671037 
L 236.915824 307.525853 
L 239.278948 320.428716 
L 232.128495 330.934274 
L 222.975384 333.7416 
L 217.844564 329.968287 
L 218.282482 324.124535 
L 222.082903 320.271296 
L 225.912097 319.862494 
L 227.616013 321.885481 
L 227.0033 324.346203 
L 225.233832 325.741539 
L 223.682019 325.703376 
L 223.105445 324.774156 
L 223.46186 323.772072 
L 224.227855 323.250025 
L 224.855635 323.303175 
L 225.070464 323.692427 
L 224.911972 324.095426 
L 224.59609 324.303869 
L 224.338591 324.285912 
L 224.245994 324.134656 
L 224.4279 323.884691 
L 224.579816 323.936965 
L 224.474289 324.046494 
L 224.552462 323.930956 
L 224.552462 323.930956 
L 234.11989 313.828128 
L 253.15703 293.75879 
L 265.62479 280.822032 
L 283.167497 263.129126 
L 307.084988 240.506237 
L 337.530647 215.837568 
L 370.737833 199.170144 
L 394.841998 209.101824 
L 390.777048 256.867805 
L 349.044515 319.931882 
L 286.330496 362.204698 
L 229.670341 375.219302 
L 193.913357 368.507578 
L 180.838938 351.919469 
L 185.316841 333.699437 
L 199.274557 319.876811 
L 214.914371 312.808867 
L 227.052875 311.733965 
L 233.670565 314.459107 
L 235.160047 318.661698 
L 233.188596 322.583031 
L 229.695609 325.278737 
L 226.235781 326.540488 
L 223.708669 326.636634 
L 222.38979 326.030616 
L 222.121888 325.171333 
L 222.541225 324.380737 
L 223.26114 323.825193 
L 223.981742 323.540579 
L 224.529252 323.48041 
L 224.845469 323.563702 
L 224.952432 323.710186 
L 224.795533 323.976966 
L 224.418441 324.068028 
L 224.454225 323.995248 
L 224.410752 324.070078 
L 224.410752 324.070078 
L 219.294789 329.030225 
L 193.302825 354.317846 
L 182.53207 364.541818 
L 168.402458 377.501472 
L 150.475496 392.840928 
L 129.158971 408.54793 
L 106.898884 419.587776 
L 89.594364 417.825216 
L 86.187726 396.961171 
L 103.378606 361.681978 
L 138.182214 327.307945 
L 178.671587 305.482579 
L 213.196775 297.14809 
L 236.176299 298.163894 
L 247.313717 304.242998 
L 249.082896 312.014246 
L 244.941181 319.11332 
L 238.208372 324.277331 
L 231.394652 327.218841 
L 225.96742 328.275314 
L 222.467502 328.043935 
L 220.795491 327.128259 
L 220.515465 326.005957 
L 221.095491 324.985444 
L 222.060691 324.218106 
L 223.065537 323.738097 
L 224.500361 323.461629 
L 224.988102 323.640077 
L 224.91036 323.87127 
L 224.518857 324.046617 
L 224.438896 324.0312 
L 224.515243 323.973623 
L 224.515243 323.973623 
L 228.301932 320.4036 
L 260.27923 290.102861 
L 271.6664 279.711878 
L 286.134351 267.126854 
L 303.723261 253.220774 
L 323.392282 240.624864 
L 341.996066 234.483552 
L 353.608796 241.250832 
L 351.11731 263.483366 
L 331.260752 294.427354 
L 298.871148 321.991952 
L 264.013589 338.981069 
L 235.143388 345.597754 
L 215.936606 345.092486 
L 206.273933 340.691875 
L 204.099981 334.898237 
L 206.732944 329.433566 
L 211.654734 325.238553 
L 216.950017 322.588518 
L 221.446142 321.321185 
L 224.634056 321.071014 
L 226.47919 321.439078 
L 227.217424 322.088175 
L 227.188454 322.780023 
L 226.72445 323.375513 
L 226.090674 323.815504 
L 224.949958 324.239454 
L 224.234653 324.221972 
L 224.271918 324.063282 
L 224.501909 323.9893 
L 224.35201 324.117966 
L 224.35201 324.117966 
L 219.308965 328.778214 
L 191.626051 354.489782 
L 181.798858 363.328848 
L 169.415036 374.03735 
L 154.353484 386.117539 
L 137.185275 397.927555 
L 119.875015 406.03896 
L 106.449918 405.46751 
L 102.582547 392.344301 
L 112.776777 368.479757 
L 136.336127 342.129485 
L 166.732714 321.702788 
L 195.895468 310.214275 
L 218.517541 306.277286 
L 232.926161 307.259482 
L 239.874557 310.819939 
L 241.224614 315.209837 
L 239.083807 319.279709 
L 235.307794 322.431218 
L 231.260335 324.501076 
L 227.765582 325.601139 
L 225.188613 325.970292 
L 223.571331 325.869653 
L 222.769654 325.523863 
L 222.563178 325.097513 
L 222.728674 324.693843 
L 223.483782 324.128181 
L 224.376152 323.862071 
L 224.62699 323.927226 
L 224.588864 323.967392 
L 224.049239 324.38225 
L 217.109099 330.705737 
L 198.511643 347.747645 
L 191.070905 354.44831 
L 181.647624 362.74513 
L 169.954256 372.623587 
L 155.959376 383.56632 
L 140.258596 394.082237 
L 124.631997 401.247734 
L 112.527112 400.973328 
L 108.665911 390.090211 
L 116.856793 369.790272 
L 136.866306 346.438685 
L 163.660255 327.152477 
L 190.452481 315.175536 
L 212.297421 309.926477 
L 227.233021 309.369456 
L 235.518833 311.508979 
L 238.53595 314.802288 
L 238.002069 318.191734 
L 235.513998 321.062875 
L 232.318112 323.162498 
L 229.241118 324.485833 
L 226.727707 325.164197 
L 224.932407 325.377907 
L 223.823341 325.301435 
L 223.272058 325.076172 
L 223.118902 324.802167 
L 223.213487 324.541005 
L 223.696925 324.161069 
L 224.427232 323.932057 
L 224.557713 323.960075 
L 224.438062 324.040729 
L 220.859615 327.300523 
L 188.163884 357.315581 
L 177.721998 366.495754 
L 164.805414 377.292557 
L 149.518016 388.890893 
L 132.822018 399.208176 
L 117.19958 404.501386 
L 107.013817 400.232621 
L 107.449009 384.250867 
L 121.36411 360.307872 
L 146.278108 336.58969 
L 175.345875 319.507502 
L 201.664024 310.48056 
L 221.302857 307.796976 
L 233.39721 309.104986 
L 238.948213 312.420413 
L 239.735376 316.298192 
L 237.632363 319.818154 
L 234.227103 322.523156 
L 230.655385 324.305974 
L 227.588851 325.273355 
L 225.317155 325.627197 
L 223.866427 325.582986 
L 223.113304 325.324892 
L 222.873968 324.988235 
L 222.962943 324.659152 
L 223.546902 324.176341 
L 224.313366 323.913362 
L 224.587053 323.935409 
L 224.473197 324.010174 
L 222.364665 325.894959 
L 209.524602 337.649818 
L 192.689137 352.937952 
L 183.748111 360.835949 
L 172.615629 370.315411 
L 159.193831 380.992896 
L 143.91289 391.635648 
L 128.242241 399.682166 
L 115.216177 401.278579 
L 109.306288 392.882573 
L 114.681119 374.527757 
L 132.150792 351.539741 
L 157.670444 331.189491 
L 184.63557 317.655415 
L 207.606772 311.042938 
L 224.016661 309.523248 
L 233.709679 311.080867 
L 237.856703 314.098819 
L 238.105507 317.435449 
L 236.069187 320.392636 
L 233.05801 322.644479 
L 229.980227 324.133208 
L 227.358198 324.958392 
L 225.408405 325.285952 
L 224.141455 325.287801 
L 223.453462 325.10948 
L 223.195403 324.858101 
L 223.218111 324.602789 
L 223.63784 324.209082 
L 224.387741 323.94255 
L 224.550989 323.95874 
L 224.436683 324.043145 
L 220.436189 327.760923 
L 189.55383 356.634576 
L 178.894563 366.239405 
L 165.464444 377.803181 
L 149.224874 390.60049 
L 131.030168 402.47617 
L 113.456325 409.202323 
L 101.419452 405.225418 
L 101.15429 387.494755 
L 116.383434 360.293357 
L 144.290257 333.680688 
L 176.634376 315.316714 
L 205.284886 306.472378 
L 225.89554 304.789651 
L 237.769335 307.396771 
L 242.306783 311.955494 
L 241.726527 316.790058 
L 238.279957 320.878912 
L 233.809445 323.782548 
L 229.563717 325.485354 
L 226.209437 326.208393 
L 223.95776 326.255783 
L 222.726981 325.917156 
L 222.288934 325.420036 
L 222.37679 324.916756 
L 222.75057 324.49167 
L 223.689209 323.973943 
L 224.531427 323.81821 
L 224.667957 323.909842 
L 224.645247 323.940025 
L 223.257561 325.103112 
L 212.925286 334.642061 
L 199.357779 347.169283 
L 191.957646 353.903213 
L 182.511982 362.321597 
L 170.683019 372.464784 
L 156.369602 383.877965 
L 140.089282 395.099856 
L 123.587851 403.10663 
L 110.430211 403.460957 
L 105.713262 392.470013 
L 113.76568 371.114525 
L 134.586031 346.284547 
L 162.789009 325.888747 
L 190.962573 313.487021 
L 213.735851 308.352874 
L 229.040123 308.20513 
L 237.225423 310.855968 
L 239.83926 314.627242 
L 238.774079 318.378012 
L 235.770521 321.462726 
L 232.167609 323.639222 
L 228.830907 324.937673 
L 226.201545 325.530662 
L 224.404922 325.6348 
L 223.370121 325.450924 
L 222.930989 325.136074 
L 222.897801 324.796869 
L 223.10009 324.494987 
L 223.726985 324.090519 
L 224.499193 323.902506 
L 224.586814 323.944734 
L 224.481289 324.003488 
L 224.481289 324.003488 
L 222.965569 325.352039 
L 211.022378 336.276144 
L 195.862897 350.08969 
L 187.756815 357.321802 
L 177.573203 366.1524 
L 165.099703 376.417584 
L 150.492427 387.302947 
L 134.712729 396.850752 
L 120.093544 401.66928 
L 110.604403 397.752509 
L 110.877169 383.218474 
L 123.492146 361.266394 
L 146.382566 339.036278 
L 173.545416 322.424764 
L 198.682104 313.071437 
L 217.982741 309.672288 
L 230.407025 310.163472 
L 236.693866 312.736032 
L 238.3712 316.049636 
L 237.111783 319.22621 
L 234.373932 321.79464 
L 231.238453 323.59851 
L 228.382585 324.684086 
L 226.139358 325.198714 
L 224.593643 325.317289 
L 223.679635 325.198956 
L 223.26031 324.96749 
L 223.182457 324.707425 
L 223.5332 324.274949 
L 224.200186 323.978619 
L 224.549079 323.954652 
L 224.438274 324.041686 
L 220.631559 327.575439 
L 191.391308 354.931891 
L 181.265665 364.10593 
L 168.441486 375.269846 
L 152.779733 387.892109 
L 134.894382 400.179053 
L 116.934132 408.35664 
L 103.319203 406.978042 
L 100.201689 392.061427 
L 112.191642 366.185059 
L 137.953928 338.738803 
L 170.016385 318.431079 
L 199.836303 307.756886 
L 222.21907 304.807968 
L 235.829953 306.696413 
L 241.745754 310.965437 
L 242.078498 315.811708 
L 239.103895 320.086002 
L 234.761286 323.239086 
L 230.421675 325.179982 
L 226.863861 326.090785 
L 224.382791 326.264293 
L 222.948294 325.995546 
L 222.356243 325.525176 
L 222.344305 325.020298 
L 222.665512 324.578223 
L 223.592147 324.015596 
L 224.49329 323.818864 
L 224.667472 323.902848 
L 224.649558 323.933702 
L 224.479107 324.004546 
L 224.485599 324.000064 
" style="fill:none;stroke:#0000ff;stroke-linecap:square;"/>
   </g>
   <g id="patch_3">
    <path d="M 81 64.8 
L 583.2 64.8 
" style="fill:none;stroke:#000000;stroke-linecap:square;stroke-linejoin:miter;"/>
   </g>
   <g id="patch_4">
    <path d="M 583.2 583.2 
L 583.2 64.8 
" style="fill:none;stroke:#000000;stroke-linecap:square;stroke-linejoin:miter;"/>
   </g>
   <g id="patch_5">
    <path d="M 81 583.2 
L 81 64.8 
" style="fill:none;stroke:#000000;stroke-linecap:square;stroke-linejoin:miter;"/>
   </g>
   <g id="patch_6">
    <path d="M 81 583.2 
L 583.2 583.2 
" style="fill:none;stroke:#000000;stroke-linecap:square;stroke-linejoin:miter;"/>
   </g>
   <g id="matplotlib.axis_1">
    <g id="xtick_1">
     <g id="line2d_2">
      <path clip-path="url(#p9653c9b9e0)" d="M 81 583.2 
L 81 64.8 
" style="fill:none;stroke:#000000;stroke-dasharray:1.000000,3.000000;stroke-dashoffset:0.0;stroke-width:0.5;"/>
     </g>
     <g id="line2d_3">
      <defs>
       <path d="M 0 0 
L 0 -4 
" id="me70750f16f" style="stroke:#000000;stroke-width:0.5;"/>
      </defs>
      <g>
       <use style="stroke:#000000;stroke-width:0.5;" x="81.0" xlink:href="#me70750f16f" y="583.2"/>
      </g>
     </g>
     <g id="line2d_4">
      <defs>
       <path d="M 0 0 
L 0 4 
" id="mdf483554c8" style="stroke:#000000;stroke-width:0.5;"/>
      </defs>
      <g>
       <use style="stroke:#000000;stroke-width:0.5;" x="81.0" xlink:href="#mdf483554c8" y="64.8"/>
      </g>
     </g>
     <g id="text_1">
      <!-- −10 -->
      <defs>
       <path d="M 10.59375 35.5 
L 73.1875 35.5 
L 73.1875 27.203125 
L 10.59375 27.203125 
z
" id="BitstreamVeraSans-Roman-2212"/>
       <path d="M 31.78125 66.40625 
Q 24.171875 66.40625 20.328125 58.90625 
Q 16.5 51.421875 16.5 36.375 
Q 16.5 21.390625 20.328125 13.890625 
Q 24.171875 6.390625 31.78125 6.390625 
Q 39.453125 6.390625 43.28125 13.890625 
Q 47.125 21.390625 47.125 36.375 
Q 47.125 51.421875 43.28125 58.90625 
Q 39.453125 66.40625 31.78125 66.40625 
M 31.78125 74.21875 
Q 44.046875 74.21875 50.515625 64.515625 
Q 56.984375 54.828125 56.984375 36.375 
Q 56.984375 17.96875 50.515625 8.265625 
Q 44.046875 -1.421875 31.78125 -1.421875 
Q 19.53125 -1.421875 13.0625 8.265625 
Q 6.59375 17.96875 6.59375 36.375 
Q 6.59375 54.828125 13.0625 64.515625 
Q 19.53125 74.21875 31.78125 74.21875 
" id="BitstreamVeraSans-Roman-30"/>
       <path d="M 12.40625 8.296875 
L 28.515625 8.296875 
L 28.515625 63.921875 
L 10.984375 60.40625 
L 10.984375 69.390625 
L 28.421875 72.90625 
L 38.28125 72.90625 
L 38.28125 8.296875 
L 54.390625 8.296875 
L 54.390625 0 
L 12.40625 0 
z
" id="BitstreamVeraSans-Roman-31"/>
      </defs>
      <g transform="translate(68.3371875 596.318125)scale(0.12 -0.12)">
       <use xlink:href="#BitstreamVeraSans-Roman-2212"/>
       <use x="83.7890625" xlink:href="#BitstreamVeraSans-Roman-31"/>
       <use x="147.412109375" xlink:href="#BitstreamVeraSans-Roman-30"/>
      </g>
     </g>
    </g>
    <g id="xtick_2">
     <g id="line2d_5">
      <path clip-path="url(#p9653c9b9e0)" d="M 152.742857 583.2 
L 152.742857 64.8 
" style="fill:none;stroke:#000000;stroke-dasharray:1.000000,3.000000;stroke-dashoffset:0.0;stroke-width:0.5;"/>
     </g>
     <g id="line2d_6">
      <g>
       <use style="stroke:#000000;stroke-width:0.5;" x="152.742857143" xlink:href="#me70750f16f" y="583.2"/>
      </g>
     </g>
     <g id="line2d_7">
      <g>
       <use style="stroke:#000000;stroke-width:0.5;" x="152.742857143" xlink:href="#mdf483554c8" y="64.8"/>
      </g>
     </g>
     <g id="text_2">
      <!-- −5 -->
      <defs>
       <path d="M 10.796875 72.90625 
L 49.515625 72.90625 
L 49.515625 64.59375 
L 19.828125 64.59375 
L 19.828125 46.734375 
Q 21.96875 47.46875 24.109375 47.828125 
Q 26.265625 48.1875 28.421875 48.1875 
Q 40.625 48.1875 47.75 41.5 
Q 54.890625 34.8125 54.890625 23.390625 
Q 54.890625 11.625 47.5625 5.09375 
Q 40.234375 -1.421875 26.90625 -1.421875 
Q 22.3125 -1.421875 17.546875 -0.640625 
Q 12.796875 0.140625 7.71875 1.703125 
L 7.71875 11.625 
Q 12.109375 9.234375 16.796875 8.0625 
Q 21.484375 6.890625 26.703125 6.890625 
Q 35.15625 6.890625 40.078125 11.328125 
Q 45.015625 15.765625 45.015625 23.390625 
Q 45.015625 31 40.078125 35.4375 
Q 35.15625 39.890625 26.703125 39.890625 
Q 22.75 39.890625 18.8125 39.015625 
Q 14.890625 38.140625 10.796875 36.28125 
z
" id="BitstreamVeraSans-Roman-35"/>
      </defs>
      <g transform="translate(143.897544643 596.318125)scale(0.12 -0.12)">
       <use xlink:href="#BitstreamVeraSans-Roman-2212"/>
       <use x="83.7890625" xlink:href="#BitstreamVeraSans-Roman-35"/>
      </g>
     </g>
    </g>
    <g id="xtick_3">
     <g id="line2d_8">
      <path clip-path="url(#p9653c9b9e0)" d="M 224.485714 583.2 
L 224.485714 64.8 
" style="fill:none;stroke:#000000;stroke-dasharray:1.000000,3.000000;stroke-dashoffset:0.0;stroke-width:0.5;"/>
     </g>
     <g id="line2d_9">
      <g>
       <use style="stroke:#000000;stroke-width:0.5;" x="224.485714286" xlink:href="#me70750f16f" y="583.2"/>
      </g>
     </g>
     <g id="line2d_10">
      <g>
       <use style="stroke:#000000;stroke-width:0.5;" x="224.485714286" xlink:href="#mdf483554c8" y="64.8"/>
      </g>
     </g>
     <g id="text_3">
      <!-- 0 -->
      <g transform="translate(220.668214286 596.318125)scale(0.12 -0.12)">
       <use xlink:href="#BitstreamVeraSans-Roman-30"/>
      </g>
     </g>
    </g>
    <g id="xtick_4">
     <g id="line2d_11">
      <path clip-path="url(#p9653c9b9e0)" d="M 296.228571 583.2 
L 296.228571 64.8 
" style="fill:none;stroke:#000000;stroke-dasharray:1.000000,3.000000;stroke-dashoffset:0.0;stroke-width:0.5;"/>
     </g>
     <g id="line2d_12">
      <g>
       <use style="stroke:#000000;stroke-width:0.5;" x="296.228571429" xlink:href="#me70750f16f" y="583.2"/>
      </g>
     </g>
     <g id="line2d_13">
      <g>
       <use style="stroke:#000000;stroke-width:0.5;" x="296.228571429" xlink:href="#mdf483554c8" y="64.8"/>
      </g>
     </g>
     <g id="text_4">
      <!-- 5 -->
      <g transform="translate(292.411071429 596.318125)scale(0.12 -0.12)">
       <use xlink:href="#BitstreamVeraSans-Roman-35"/>
      </g>
     </g>
    </g>
    <g id="xtick_5">
     <g id="line2d_14">
      <path clip-path="url(#p9653c9b9e0)" d="M 367.971429 583.2 
L 367.971429 64.8 
" style="fill:none;stroke:#000000;stroke-dasharray:1.000000,3.000000;stroke-dashoffset:0.0;stroke-width:0.5;"/>
     </g>
     <g id="line2d_15">
      <g>
       <use style="stroke:#000000;stroke-width:0.5;" x="367.971428571" xlink:href="#me70750f16f" y="583.2"/>
      </g>
     </g>
     <g id="line2d_16">
      <g>
       <use style="stroke:#000000;stroke-width:0.5;" x="367.971428571" xlink:href="#mdf483554c8" y="64.8"/>
      </g>
     </g>
     <g id="text_5">
      <!-- 10 -->
      <g transform="translate(360.336428571 596.318125)scale(0.12 -0.12)">
       <use xlink:href="#BitstreamVeraSans-Roman-31"/>
       <use x="63.623046875" xlink:href="#BitstreamVeraSans-Roman-30"/>
      </g>
     </g>
    </g>
    <g id="xtick_6">
     <g id="line2d_17">
      <path clip-path="url(#p9653c9b9e0)" d="M 439.714286 583.2 
L 439.714286 64.8 
" style="fill:none;stroke:#000000;stroke-dasharray:1.000000,3.000000;stroke-dashoffset:0.0;stroke-width:0.5;"/>
     </g>
     <g id="line2d_18">
      <g>
       <use style="stroke:#000000;stroke-width:0.5;" x="439.714285714" xlink:href="#me70750f16f" y="583.2"/>
      </g>
     </g>
     <g id="line2d_19">
      <g>
       <use style="stroke:#000000;stroke-width:0.5;" x="439.714285714" xlink:href="#mdf483554c8" y="64.8"/>
      </g>
     </g>
     <g id="text_6">
      <!-- 15 -->
      <g transform="translate(432.079285714 596.318125)scale(0.12 -0.12)">
       <use xlink:href="#BitstreamVeraSans-Roman-31"/>
       <use x="63.623046875" xlink:href="#BitstreamVeraSans-Roman-35"/>
      </g>
     </g>
    </g>
    <g id="xtick_7">
     <g id="line2d_20">
      <path clip-path="url(#p9653c9b9e0)" d="M 511.457143 583.2 
L 511.457143 64.8 
" style="fill:none;stroke:#000000;stroke-dasharray:1.000000,3.000000;stroke-dashoffset:0.0;stroke-width:0.5;"/>
     </g>
     <g id="line2d_21">
      <g>
       <use style="stroke:#000000;stroke-width:0.5;" x="511.457142857" xlink:href="#me70750f16f" y="583.2"/>
      </g>
     </g>
     <g id="line2d_22">
      <g>
       <use style="stroke:#000000;stroke-width:0.5;" x="511.457142857" xlink:href="#mdf483554c8" y="64.8"/>
      </g>
     </g>
     <g id="text_7">
      <!-- 20 -->
      <defs>
       <path d="M 19.1875 8.296875 
L 53.609375 8.296875 
L 53.609375 0 
L 7.328125 0 
L 7.328125 8.296875 
Q 12.9375 14.109375 22.625 23.890625 
Q 32.328125 33.6875 34.8125 36.53125 
Q 39.546875 41.84375 41.421875 45.53125 
Q 43.3125 49.21875 43.3125 52.78125 
Q 43.3125 58.59375 39.234375 62.25 
Q 35.15625 65.921875 28.609375 65.921875 
Q 23.96875 65.921875 18.8125 64.3125 
Q 13.671875 62.703125 7.8125 59.421875 
L 7.8125 69.390625 
Q 13.765625 71.78125 18.9375 73 
Q 24.125 74.21875 28.421875 74.21875 
Q 39.75 74.21875 46.484375 68.546875 
Q 53.21875 62.890625 53.21875 53.421875 
Q 53.21875 48.921875 51.53125 44.890625 
Q 49.859375 40.875 45.40625 35.40625 
Q 44.1875 33.984375 37.640625 27.21875 
Q 31.109375 20.453125 19.1875 8.296875 
" id="BitstreamVeraSans-Roman-32"/>
      </defs>
      <g transform="translate(503.822142857 596.318125)scale(0.12 -0.12)">
       <use xlink:href="#BitstreamVeraSans-Roman-32"/>
       <use x="63.623046875" xlink:href="#BitstreamVeraSans-Roman-30"/>
      </g>
     </g>
    </g>
    <g id="xtick_8">
     <g id="line2d_23">
      <path clip-path="url(#p9653c9b9e0)" d="M 583.2 583.2 
L 583.2 64.8 
" style="fill:none;stroke:#000000;stroke-dasharray:1.000000,3.000000;stroke-dashoffset:0.0;stroke-width:0.5;"/>
     </g>
     <g id="line2d_24">
      <g>
       <use style="stroke:#000000;stroke-width:0.5;" x="583.2" xlink:href="#me70750f16f" y="583.2"/>
      </g>
     </g>
     <g id="line2d_25">
      <g>
       <use style="stroke:#000000;stroke-width:0.5;" x="583.2" xlink:href="#mdf483554c8" y="64.8"/>
      </g>
     </g>
     <g id="text_8">
      <!-- 25 -->
      <g transform="translate(575.565 596.318125)scale(0.12 -0.12)">
       <use xlink:href="#BitstreamVeraSans-Roman-32"/>
       <use x="63.623046875" xlink:href="#BitstreamVeraSans-Roman-35"/>
      </g>
     </g>
    </g>
    <g id="text_9">
     <!-- x -->
     <defs>
      <path d="M 54.890625 54.6875 
L 35.109375 28.078125 
L 55.90625 0 
L 45.3125 0 
L 29.390625 21.484375 
L 13.484375 0 
L 2.875 0 
L 24.125 28.609375 
L 4.6875 54.6875 
L 15.28125 54.6875 
L 29.78125 35.203125 
L 44.28125 54.6875 
z
" id="BitstreamVeraSans-Roman-78"/>
     </defs>
     <g transform="translate(326.773125 617.4909375)scale(0.18 -0.18)">
      <use xlink:href="#BitstreamVeraSans-Roman-78"/>
     </g>
    </g>
   </g>
   <g id="matplotlib.axis_2">
    <g id="ytick_1">
     <g id="line2d_26">
      <path clip-path="url(#p9653c9b9e0)" d="M 81 583.2 
L 583.2 583.2 
" style="fill:none;stroke:#000000;stroke-dasharray:1.000000,3.000000;stroke-dashoffset:0.0;stroke-width:0.5;"/>
     </g>
     <g id="line2d_27">
      <defs>
       <path d="M 0 0 
L 4 0 
" id="m7aa032bd42" style="stroke:#000000;stroke-width:0.5;"/>
      </defs>
      <g>
       <use style="stroke:#000000;stroke-width:0.5;" x="81.0" xlink:href="#m7aa032bd42" y="583.2"/>
      </g>
     </g>
     <g id="line2d_28">
      <defs>
       <path d="M 0 0 
L -4 0 
" id="m1be445b079" style="stroke:#000000;stroke-width:0.5;"/>
      </defs>
      <g>
       <use style="stroke:#000000;stroke-width:0.5;" x="583.2" xlink:href="#m1be445b079" y="583.2"/>
      </g>
     </g>
     <g id="text_10">
      <!-- −30 -->
      <defs>
       <path d="M 40.578125 39.3125 
Q 47.65625 37.796875 51.625 33 
Q 55.609375 28.21875 55.609375 21.1875 
Q 55.609375 10.40625 48.1875 4.484375 
Q 40.765625 -1.421875 27.09375 -1.421875 
Q 22.515625 -1.421875 17.65625 -0.515625 
Q 12.796875 0.390625 7.625 2.203125 
L 7.625 11.71875 
Q 11.71875 9.328125 16.59375 8.109375 
Q 21.484375 6.890625 26.8125 6.890625 
Q 36.078125 6.890625 40.9375 10.546875 
Q 45.796875 14.203125 45.796875 21.1875 
Q 45.796875 27.640625 41.28125 31.265625 
Q 36.765625 34.90625 28.71875 34.90625 
L 20.21875 34.90625 
L 20.21875 43.015625 
L 29.109375 43.015625 
Q 36.375 43.015625 40.234375 45.921875 
Q 44.09375 48.828125 44.09375 54.296875 
Q 44.09375 59.90625 40.109375 62.90625 
Q 36.140625 65.921875 28.71875 65.921875 
Q 24.65625 65.921875 20.015625 65.03125 
Q 15.375 64.15625 9.8125 62.3125 
L 9.8125 71.09375 
Q 15.4375 72.65625 20.34375 73.4375 
Q 25.25 74.21875 29.59375 74.21875 
Q 40.828125 74.21875 47.359375 69.109375 
Q 53.90625 64.015625 53.90625 55.328125 
Q 53.90625 49.265625 50.4375 45.09375 
Q 46.96875 40.921875 40.578125 39.3125 
" id="BitstreamVeraSans-Roman-33"/>
      </defs>
      <g transform="translate(51.674375 586.51125)scale(0.12 -0.12)">
       <use xlink:href="#BitstreamVeraSans-Roman-2212"/>
       <use x="83.7890625" xlink:href="#BitstreamVeraSans-Roman-33"/>
       <use x="147.412109375" xlink:href="#BitstreamVeraSans-Roman-30"/>
      </g>
     </g>
    </g>
    <g id="ytick_2">
     <g id="line2d_29">
      <path clip-path="url(#p9653c9b9e0)" d="M 81 496.8 
L 583.2 496.8 
" style="fill:none;stroke:#000000;stroke-dasharray:1.000000,3.000000;stroke-dashoffset:0.0;stroke-width:0.5;"/>
     </g>
     <g id="line2d_30">
      <g>
       <use style="stroke:#000000;stroke-width:0.5;" x="81.0" xlink:href="#m7aa032bd42" y="496.8"/>
      </g>
     </g>
     <g id="line2d_31">
      <g>
       <use style="stroke:#000000;stroke-width:0.5;" x="583.2" xlink:href="#m1be445b079" y="496.8"/>
      </g>
     </g>
     <g id="text_11">
      <!-- −20 -->
      <g transform="translate(51.674375 500.11125)scale(0.12 -0.12)">
       <use xlink:href="#BitstreamVeraSans-Roman-2212"/>
       <use x="83.7890625" xlink:href="#BitstreamVeraSans-Roman-32"/>
       <use x="147.412109375" xlink:href="#BitstreamVeraSans-Roman-30"/>
      </g>
     </g>
    </g>
    <g id="ytick_3">
     <g id="line2d_32">
      <path clip-path="url(#p9653c9b9e0)" d="M 81 410.4 
L 583.2 410.4 
" style="fill:none;stroke:#000000;stroke-dasharray:1.000000,3.000000;stroke-dashoffset:0.0;stroke-width:0.5;"/>
     </g>
     <g id="line2d_33">
      <g>
       <use style="stroke:#000000;stroke-width:0.5;" x="81.0" xlink:href="#m7aa032bd42" y="410.4"/>
      </g>
     </g>
     <g id="line2d_34">
      <g>
       <use style="stroke:#000000;stroke-width:0.5;" x="583.2" xlink:href="#m1be445b079" y="410.4"/>
      </g>
     </g>
     <g id="text_12">
      <!-- −10 -->
      <g transform="translate(51.674375 413.71125)scale(0.12 -0.12)">
       <use xlink:href="#BitstreamVeraSans-Roman-2212"/>
       <use x="83.7890625" xlink:href="#BitstreamVeraSans-Roman-31"/>
       <use x="147.412109375" xlink:href="#BitstreamVeraSans-Roman-30"/>
      </g>
     </g>
    </g>
    <g id="ytick_4">
     <g id="line2d_35">
      <path clip-path="url(#p9653c9b9e0)" d="M 81 324 
L 583.2 324 
" style="fill:none;stroke:#000000;stroke-dasharray:1.000000,3.000000;stroke-dashoffset:0.0;stroke-width:0.5;"/>
     </g>
     <g id="line2d_36">
      <g>
       <use style="stroke:#000000;stroke-width:0.5;" x="81.0" xlink:href="#m7aa032bd42" y="324.0"/>
      </g>
     </g>
     <g id="line2d_37">
      <g>
       <use style="stroke:#000000;stroke-width:0.5;" x="583.2" xlink:href="#m1be445b079" y="324.0"/>
      </g>
     </g>
     <g id="text_13">
      <!-- 0 -->
      <g transform="translate(69.365 327.31125)scale(0.12 -0.12)">
       <use xlink:href="#BitstreamVeraSans-Roman-30"/>
      </g>
     </g>
    </g>
    <g id="ytick_5">
     <g id="line2d_38">
      <path clip-path="url(#p9653c9b9e0)" d="M 81 237.6 
L 583.2 237.6 
" style="fill:none;stroke:#000000;stroke-dasharray:1.000000,3.000000;stroke-dashoffset:0.0;stroke-width:0.5;"/>
     </g>
     <g id="line2d_39">
      <g>
       <use style="stroke:#000000;stroke-width:0.5;" x="81.0" xlink:href="#m7aa032bd42" y="237.6"/>
      </g>
     </g>
     <g id="line2d_40">
      <g>
       <use style="stroke:#000000;stroke-width:0.5;" x="583.2" xlink:href="#m1be445b079" y="237.6"/>
      </g>
     </g>
     <g id="text_14">
      <!-- 10 -->
      <g transform="translate(61.73 240.91125)scale(0.12 -0.12)">
       <use xlink:href="#BitstreamVeraSans-Roman-31"/>
       <use x="63.623046875" xlink:href="#BitstreamVeraSans-Roman-30"/>
      </g>
     </g>
    </g>
    <g id="ytick_6">
     <g id="line2d_41">
      <path clip-path="url(#p9653c9b9e0)" d="M 81 151.2 
L 583.2 151.2 
" style="fill:none;stroke:#000000;stroke-dasharray:1.000000,3.000000;stroke-dashoffset:0.0;stroke-width:0.5;"/>
     </g>
     <g id="line2d_42">
      <g>
       <use style="stroke:#000000;stroke-width:0.5;" x="81.0" xlink:href="#m7aa032bd42" y="151.2"/>
      </g>
     </g>
     <g id="line2d_43">
      <g>
       <use style="stroke:#000000;stroke-width:0.5;" x="583.2" xlink:href="#m1be445b079" y="151.2"/>
      </g>
     </g>
     <g id="text_15">
      <!-- 20 -->
      <g transform="translate(61.73 154.51125)scale(0.12 -0.12)">
       <use xlink:href="#BitstreamVeraSans-Roman-32"/>
       <use x="63.623046875" xlink:href="#BitstreamVeraSans-Roman-30"/>
      </g>
     </g>
    </g>
    <g id="ytick_7">
     <g id="line2d_44">
      <path clip-path="url(#p9653c9b9e0)" d="M 81 64.8 
L 583.2 64.8 
" style="fill:none;stroke:#000000;stroke-dasharray:1.000000,3.000000;stroke-dashoffset:0.0;stroke-width:0.5;"/>
     </g>
     <g id="line2d_45">
      <g>
       <use style="stroke:#000000;stroke-width:0.5;" x="81.0" xlink:href="#m7aa032bd42" y="64.8"/>
      </g>
     </g>
     <g id="line2d_46">
      <g>
       <use style="stroke:#000000;stroke-width:0.5;" x="583.2" xlink:href="#m1be445b079" y="64.8"/>
      </g>
     </g>
     <g id="text_16">
      <!-- 30 -->
      <g transform="translate(61.73 68.11125)scale(0.12 -0.12)">
       <use xlink:href="#BitstreamVeraSans-Roman-33"/>
       <use x="63.623046875" xlink:href="#BitstreamVeraSans-Roman-30"/>
      </g>
     </g>
    </g>
    <g id="text_17">
     <!-- y -->
     <defs>
      <path d="M 32.171875 -5.078125 
Q 28.375 -14.84375 24.75 -17.8125 
Q 21.140625 -20.796875 15.09375 -20.796875 
L 7.90625 -20.796875 
L 7.90625 -13.28125 
L 13.1875 -13.28125 
Q 16.890625 -13.28125 18.9375 -11.515625 
Q 21 -9.765625 23.484375 -3.21875 
L 25.09375 0.875 
L 2.984375 54.6875 
L 12.5 54.6875 
L 29.59375 11.921875 
L 46.6875 54.6875 
L 56.203125 54.6875 
z
" id="BitstreamVeraSans-Roman-79"/>
     </defs>
     <g transform="translate(42.9309375 329.326875)rotate(-90.0)scale(0.18 -0.18)">
      <use xlink:href="#BitstreamVeraSans-Roman-79"/>
     </g>
    </g>
   </g>
   <g id="text_18">
    <!-- Data -->
    <defs>
     <path d="M 18.3125 70.21875 
L 18.3125 54.6875 
L 36.8125 54.6875 
L 36.8125 47.703125 
L 18.3125 47.703125 
L 18.3125 18.015625 
Q 18.3125 11.328125 20.140625 9.421875 
Q 21.96875 7.515625 27.59375 7.515625 
L 36.8125 7.515625 
L 36.8125 0 
L 27.59375 0 
Q 17.1875 0 13.234375 3.875 
Q 9.28125 7.765625 9.28125 18.015625 
L 9.28125 47.703125 
L 2.6875 47.703125 
L 2.6875 54.6875 
L 9.28125 54.6875 
L 9.28125 70.21875 
z
" id="BitstreamVeraSans-Roman-74"/>
     <path d="M 34.28125 27.484375 
Q 23.390625 27.484375 19.1875 25 
Q 14.984375 22.515625 14.984375 16.5 
Q 14.984375 11.71875 18.140625 8.90625 
Q 21.296875 6.109375 26.703125 6.109375 
Q 34.1875 6.109375 38.703125 11.40625 
Q 43.21875 16.703125 43.21875 25.484375 
L 43.21875 27.484375 
z
M 52.203125 31.203125 
L 52.203125 0 
L 43.21875 0 
L 43.21875 8.296875 
Q 40.140625 3.328125 35.546875 0.953125 
Q 30.953125 -1.421875 24.3125 -1.421875 
Q 15.921875 -1.421875 10.953125 3.296875 
Q 6 8.015625 6 15.921875 
Q 6 25.140625 12.171875 29.828125 
Q 18.359375 34.515625 30.609375 34.515625 
L 43.21875 34.515625 
L 43.21875 35.40625 
Q 43.21875 41.609375 39.140625 45 
Q 35.0625 48.390625 27.6875 48.390625 
Q 23 48.390625 18.546875 47.265625 
Q 14.109375 46.140625 10.015625 43.890625 
L 10.015625 52.203125 
Q 14.9375 54.109375 19.578125 55.046875 
Q 24.21875 56 28.609375 56 
Q 40.484375 56 46.34375 49.84375 
Q 52.203125 43.703125 52.203125 31.203125 
" id="BitstreamVeraSans-Roman-61"/>
     <path d="M 19.671875 64.796875 
L 19.671875 8.109375 
L 31.59375 8.109375 
Q 46.6875 8.109375 53.6875 14.9375 
Q 60.6875 21.78125 60.6875 36.53125 
Q 60.6875 51.171875 53.6875 57.984375 
Q 46.6875 64.796875 31.59375 64.796875 
z
M 9.8125 72.90625 
L 30.078125 72.90625 
Q 51.265625 72.90625 61.171875 64.09375 
Q 71.09375 55.28125 71.09375 36.53125 
Q 71.09375 17.671875 61.125 8.828125 
Q 51.171875 0 30.078125 0 
L 9.8125 0 
z
" id="BitstreamVeraSans-Roman-44"/>
    </defs>
    <g transform="translate(305.83578125 59.8)scale(0.22 -0.22)">
     <use xlink:href="#BitstreamVeraSans-Roman-44"/>
     <use x="77.001953125" xlink:href="#BitstreamVeraSans-Roman-61"/>
     <use x="138.28125" xlink:href="#BitstreamVeraSans-Roman-74"/>
     <use x="177.490234375" xlink:href="#BitstreamVeraSans-Roman-61"/>
    </g>
   </g>
   <g id="legend_1">
    <g id="patch_7">
     <path d="M 88.2 97.4565 
L 181.638 97.4565 
L 181.638 72 
L 88.2 72 
z
" style="fill:#ffffff;stroke:#000000;stroke-linejoin:miter;"/>
    </g>
    <g id="line2d_47">
     <path d="M 98.28 83.66175 
L 118.44 83.66175 
" style="fill:none;stroke:#0000ff;stroke-linecap:square;"/>
    </g>
    <g id="line2d_48"/>
    <g id="text_19">
     <!-- data1 -->
     <defs>
      <path d="M 45.40625 46.390625 
L 45.40625 75.984375 
L 54.390625 75.984375 
L 54.390625 0 
L 45.40625 0 
L 45.40625 8.203125 
Q 42.578125 3.328125 38.25 0.953125 
Q 33.9375 -1.421875 27.875 -1.421875 
Q 17.96875 -1.421875 11.734375 6.484375 
Q 5.515625 14.40625 5.515625 27.296875 
Q 5.515625 40.1875 11.734375 48.09375 
Q 17.96875 56 27.875 56 
Q 33.9375 56 38.25 53.625 
Q 42.578125 51.265625 45.40625 46.390625 
M 14.796875 27.296875 
Q 14.796875 17.390625 18.875 11.75 
Q 22.953125 6.109375 30.078125 6.109375 
Q 37.203125 6.109375 41.296875 11.75 
Q 45.40625 17.390625 45.40625 27.296875 
Q 45.40625 37.203125 41.296875 42.84375 
Q 37.203125 48.484375 30.078125 48.484375 
Q 22.953125 48.484375 18.875 42.84375 
Q 14.796875 37.203125 14.796875 27.296875 
" id="BitstreamVeraSans-Roman-64"/>
     </defs>
     <g transform="translate(134.28 88.70175)scale(0.144 -0.144)">
      <use xlink:href="#BitstreamVeraSans-Roman-64"/>
      <use x="63.4765625" xlink:href="#BitstreamVeraSans-Roman-61"/>
      <use x="124.755859375" xlink:href="#BitstreamVeraSans-Roman-74"/>
      <use x="163.96484375" xlink:href="#BitstreamVeraSans-Roman-61"/>
      <use x="225.244140625" xlink:href="#BitstreamVeraSans-Roman-31"/>
     </g>
    </g>
   </g>
  </g>
 </g>
 <defs>
  <clipPath id="p9653c9b9e0">
   <rect height="518.4" width="502.2" x="81.0" y="64.8"/>
  </clipPath>
 </defs>
</svg>
