<?xml version="1.0" encoding="utf-8" standalone="no"?>
<!DOCTYPE svg PUBLIC "-//W3C//DTD SVG 1.1//EN"
  "http://www.w3.org/Graphics/SVG/1.1/DTD/svg11.dtd">
<!-- Created with matplotlib (http://matplotlib.org/) -->
<svg height="648pt" version="1.1" viewBox="0 0 648 648" width="648pt" xmlns="http://www.w3.org/2000/svg" xmlns:xlink="http://www.w3.org/1999/xlink">
 <defs>
  <style type="text/css">
*{stroke-linecap:butt;stroke-linejoin:round;stroke-miterlimit:100000;}
  </style>
 </defs>
 <g id="figure_1">
  <g id="patch_1">
   <path d="M 0 648 
L 648 648 
L 648 0 
L 0 0 
z
" style="fill:#ffffff;"/>
  </g>
  <g id="axes_1">
   <g id="patch_2">
    <path d="M 81 583.2 
L 583.2 583.2 
L 583.2 64.8 
L 81 64.8 
z
" style="fill:#ffffff;"/>
   </g>
   <g id="line2d_1">
    <path clip-path="url(#pc8640773d2)" d="M 225.777086 583.2 
L 225.715302 583.197353 
L 225.715302 583.197353 
L 225.715302 583.197353 
L 230.044781 583.088446 
L 234.200328 582.857156 
L 241.465383 582.150508 
L 254.137611 579.995312 
L 276.116466 573.45935 
L 313.588765 553.978742 
L 374.178621 498.88656 
L 456.915353 365.609376 
L 515.953985 159.20928 
L 447.459645 76.618656 
L 268.832127 137.554848 
L 127.034952 128.024064 
L 86.710444 79.677216 
L 143.396915 78.633504 
L 232.401147 92.515392 
L 286.56323 85.329504 
L 284.42515 79.487136 
L 245.630774 84.5856 
L 206.81344 87.676128 
L 191.905131 87.239808 
L 201.8639 89.006688 
L 222.134945 92.187936 
L 236.915824 94.336704 
L 239.278948 96.214176 
L 232.128495 98.67312 
L 222.975384 101.197728 
L 217.844564 103.488192 
L 218.282482 105.795936 
L 225.912097 110.582496 
L 227.616013 112.914432 
L 227.0033 115.24896 
L 225.233832 117.5904 
L 223.682019 119.913696 
L 223.105445 122.220576 
L 223.46186 124.518816 
L 224.227855 126.80928 
L 224.855635 129.08592 
L 225.070464 131.351328 
L 224.911972 133.605504 
L 224.338591 138.081888 
L 224.245994 140.302368 
L 224.4279 144.712224 
L 224.579816 149.077152 
L 224.48152 178.440192 
L 224.485714 298.021248 
L 224.580163 463.775328 
L 224.75536 465.554304 
L 225.031776 466.72416 
L 225.597003 467.879328 
L 226.073929 468.448704 
L 226.758241 469.008576 
L 227.741233 469.552896 
L 229.154754 470.066976 
L 231.189295 470.523168 
L 234.11989 470.860128 
L 238.342402 470.955168 
L 244.422767 470.550816 
L 253.15703 469.118304 
L 265.62479 465.581952 
L 283.167497 457.818048 
L 307.084988 441.915264 
L 337.530647 411.749568 
L 370.737833 361.36368 
L 394.841998 294.77952 
L 390.777048 237.413376 
L 349.044515 216.501984 
L 286.330496 222.873984 
L 229.670341 230.399424 
L 193.913357 230.31216 
L 180.838938 227.147328 
L 185.316841 225.8496 
L 199.274557 227.1456 
L 214.914371 229.37904 
L 227.052875 231.319584 
L 233.670565 232.855776 
L 235.160047 234.328032 
L 233.188596 235.9368 
L 226.235781 239.409216 
L 223.708669 241.130304 
L 222.38979 242.825472 
L 222.121888 244.511136 
L 222.541225 246.194208 
L 223.981742 249.54912 
L 224.529252 251.214912 
L 224.845469 252.8712 
L 224.952432 254.518848 
L 224.795533 257.790816 
L 224.461502 262.637856 
L 224.414845 267.41232 
L 224.48973 282.820896 
L 224.485714 365.115168 
L 224.38755 430.311744 
L 224.191527 433.340064 
L 223.802496 435.570048 
L 223.276727 437.034528 
L 222.873207 437.757696 
L 222.331262 438.472224 
L 221.60224 439.174656 
L 220.620037 439.857216 
L 219.294789 440.508672 
L 217.504273 441.103104 
L 215.082478 441.600768 
L 211.804619 441.921312 
L 207.368443 441.923904 
L 201.373179 441.346752 
L 193.302825 439.721568 
L 182.53207 436.215456 
L 168.402458 429.411456 
L 150.475496 417.077856 
L 129.158971 396.268416 
L 106.898884 364.59936 
L 89.594364 323.764992 
L 86.187726 283.40064 
L 103.378606 257.229216 
L 138.182214 249.789312 
L 178.671587 252.796896 
L 213.196775 256.824 
L 236.176299 258.557184 
L 247.313717 258.796512 
L 249.082896 259.020288 
L 238.208372 261.339264 
L 231.394652 263.0016 
L 225.96742 264.657888 
L 222.467502 266.24592 
L 220.795491 267.791616 
L 220.515465 269.329536 
L 221.095491 270.874368 
L 223.906675 275.52096 
L 224.500361 277.057152 
L 224.845746 278.58384 
L 224.988102 280.103616 
L 224.91036 283.11984 
L 224.518857 289.065024 
L 224.439637 294.89184 
L 224.485745 330.054912 
L 224.584416 421.01424 
L 224.755079 424.227456 
L 225.070176 426.593088 
L 225.475136 428.149152 
L 226.173838 429.681888 
L 226.697116 430.43616 
L 227.388057 431.178336 
L 228.301932 431.902368 
L 229.512636 432.597024 
L 231.118958 433.243296 
L 233.252878 433.808352 
L 236.090265 434.231712 
L 239.864083 434.41056 
L 244.879195 434.158272 
L 251.525597 433.155168 
L 260.27923 430.84224 
L 271.6664 426.286368 
L 286.134351 418.006656 
L 303.723261 403.906176 
L 323.392282 381.697056 
L 341.996066 350.542944 
L 353.608796 314.05104 
L 351.11731 281.632032 
L 331.260752 262.8072 
L 298.871148 258.291936 
L 264.013589 260.93232 
L 235.143388 264.218112 
L 215.936606 265.972896 
L 206.273933 266.677056 
L 204.099981 267.280128 
L 206.732944 268.264224 
L 216.950017 271.188 
L 221.446142 272.782944 
L 224.634056 274.347648 
L 226.47919 275.87952 
L 227.217424 277.394112 
L 227.188454 278.904384 
L 226.72445 280.414656 
L 224.949958 284.92128 
L 224.578668 286.409952 
L 224.348668 287.890848 
L 224.203808 290.830176 
L 224.379553 296.622432 
L 224.499174 303.701184 
L 224.485676 353.241216 
L 224.379052 412.867584 
L 224.147869 417.075264 
L 223.792454 419.547168 
L 223.353972 421.171488 
L 222.62238 422.771616 
L 222.087322 423.557856 
L 221.39232 424.332 
L 220.487915 425.087136 
L 219.308965 425.812032 
L 217.769722 426.490272 
L 215.757306 427.091616 
L 213.123626 427.56336 
L 209.675406 427.817376 
L 205.163641 427.704192 
L 199.273839 426.9672 
L 191.626051 425.176128 
L 181.798858 421.629408 
L 169.415036 415.228896 
L 154.353484 404.410752 
L 137.185275 387.336384 
L 119.875015 362.790144 
L 106.449918 332.1 
L 102.582547 300.971808 
L 112.776777 277.744896 
L 136.336127 267.000192 
L 166.732714 265.94352 
L 195.895468 268.632288 
L 218.517541 271.21392 
L 232.926161 272.745792 
L 239.874557 273.671136 
L 241.224614 274.569696 
L 239.083807 275.710176 
L 231.260335 278.591616 
L 227.765582 280.128672 
L 225.188613 281.654496 
L 223.571331 283.15872 
L 222.769654 284.648256 
L 222.563178 286.130016 
L 222.728674 287.605728 
L 224.376152 294.903072 
L 224.593697 297.77328 
L 224.611738 302.025024 
L 224.482588 315.74448 
L 224.337393 407.506464 
L 224.135697 410.985792 
L 223.802117 413.54928 
L 223.405027 415.233216 
L 222.76159 416.894688 
L 222.300656 417.712896 
L 221.710414 418.520736 
L 220.953096 419.313024 
L 219.979588 420.082848 
L 218.725997 420.818112 
L 217.109099 421.498944 
L 215.020851 422.09424 
L 212.32134 422.546976 
L 208.830705 422.767296 
L 204.32138 422.603136 
L 198.511643 421.803936 
L 191.070905 419.96016 
L 181.647624 416.423808 
L 169.954256 410.215104 
L 155.959376 399.992256 
L 140.258596 384.252768 
L 124.631997 362.092032 
L 112.527112 334.703232 
L 108.665911 306.72432 
L 116.856793 284.953248 
L 136.866306 273.616704 
L 163.660255 271.206144 
L 190.452481 273.055968 
L 212.297421 275.547744 
L 227.233021 277.3656 
L 235.518833 278.57952 
L 238.53595 279.611136 
L 238.002069 280.74384 
L 235.513998 282.049344 
L 229.241118 284.969664 
L 226.727707 286.46784 
L 224.932407 287.954784 
L 223.823341 289.427904 
L 223.272058 290.889792 
L 223.118902 292.343904 
L 223.213487 293.791968 
L 224.427232 302.346432 
L 224.554768 306.52992 
L 224.486641 325.24416 
L 224.348526 410.321376 
L 224.151672 413.745408 
L 223.818381 416.267424 
L 223.415111 417.924576 
L 222.75288 419.559264 
L 222.273982 420.363648 
L 221.656721 421.157664 
L 220.859615 421.935264 
L 219.828383 422.687808 
L 218.492015 423.404064 
L 216.757545 424.05984 
L 214.503614 424.61712 
L 211.572359 425.012832 
L 207.760159 425.137248 
L 202.808753 424.808928 
L 196.399964 423.724608 
L 188.163884 421.38576 
L 177.721998 417.001824 
L 164.805414 409.389984 
L 149.518016 396.985536 
L 132.822018 378.209952 
L 117.19958 352.609632 
L 107.013817 322.717824 
L 107.449009 294.920352 
L 121.36411 276.317568 
L 146.278108 269.053056 
L 175.345875 269.29584 
L 201.664024 271.944864 
L 233.39721 275.65056 
L 238.948213 276.63984 
L 239.735376 277.644672 
L 237.632363 278.850816 
L 230.655385 281.73312 
L 227.588851 283.248576 
L 225.317155 284.756256 
L 223.866427 286.246656 
L 223.113304 287.723232 
L 222.873968 289.191168 
L 222.962943 290.65392 
L 224.447851 299.299968 
L 224.587053 303.529248 
L 224.303585 407.569536 
L 224.055607 411.048 
L 223.64527 413.608896 
L 223.156639 415.29024 
L 222.364665 416.9448 
L 221.797251 417.75696 
L 221.070582 418.555296 
L 220.138212 419.332032 
L 218.939748 420.0768 
L 217.396745 420.77232 
L 215.407316 421.387488 
L 212.839739 421.873056 
L 209.524602 422.147808 
L 205.24715 422.073504 
L 199.740742 421.425504 
L 192.689137 419.83488 
L 183.748111 416.71584 
L 172.615629 411.176736 
L 159.193831 401.968224 
L 143.91289 387.618048 
L 128.242241 367.034112 
L 115.216177 340.831584 
L 109.306288 312.818976 
L 114.681119 289.485792 
L 132.150792 275.92272 
L 157.670444 271.874016 
L 184.63557 273.091392 
L 207.606772 275.586624 
L 224.016661 277.583328 
L 233.709679 278.921664 
L 237.856703 279.982656 
L 238.105507 281.087712 
L 236.069187 282.354336 
L 229.980227 285.23232 
L 227.358198 286.726176 
L 225.408405 288.213984 
L 224.141455 289.687104 
L 223.453462 291.148992 
L 223.195403 292.60224 
L 223.218111 294.04944 
L 223.63784 296.923968 
L 224.265162 301.187808 
L 224.469202 303.995808 
L 224.550989 308.15424 
L 224.330038 417.250656 
L 224.077236 420.537312 
L 223.624318 422.956512 
L 223.054299 424.54368 
L 222.634835 425.327328 
L 222.087623 426.101472 
L 221.372476 426.862656 
L 220.436189 427.603968 
L 219.208338 428.314176 
L 217.595674 428.973408 
L 215.474811 429.549696 
L 212.683053 429.985152 
L 209.007193 430.178688 
L 204.171294 429.958368 
L 197.826786 429.028704 
L 189.55383 426.888576 
L 178.894563 422.717184 
L 165.464444 415.231488 
L 149.224874 402.63696 
L 131.030168 382.953312 
L 113.456325 355.265568 
L 101.419452 322.096608 
L 101.15429 290.896704 
L 116.383434 270.420768 
L 144.290257 263.220192 
L 176.634376 264.283776 
L 225.89554 269.631936 
L 237.769335 270.768096 
L 242.306783 271.527552 
L 241.726527 272.454624 
L 238.279957 273.696192 
L 233.809445 275.158944 
L 229.563717 276.708096 
L 226.209437 278.260704 
L 223.95776 279.787392 
L 222.726981 281.293344 
L 222.288934 282.788064 
L 222.37679 284.278464 
L 223.227728 287.247168 
L 224.071177 290.193408 
L 224.531427 293.110272 
L 224.668651 295.99776 
L 224.579837 301.6872 
L 224.479507 311.374368 
L 224.33007 410.78016 
L 224.104814 414.195552 
L 223.721987 416.709792 
L 223.257561 418.36176 
L 222.493272 419.986944 
L 221.939747 420.786144 
L 221.225561 421.57152 
L 220.302403 422.337024 
L 219.107023 423.07056 
L 217.556646 423.755712 
L 215.543068 424.36224 
L 212.925286 424.83744 
L 209.520728 425.094912 
L 205.095629 424.991232 
L 199.357779 424.279296 
L 191.957646 422.558208 
L 182.511982 419.175648 
L 170.683019 413.127648 
L 156.369602 402.99984 
L 140.089282 387.135936 
L 123.587851 364.398912 
L 110.430211 335.803104 
L 105.713262 306.163584 
L 113.76568 282.946176 
L 134.586031 270.985824 
L 162.789009 268.664256 
L 190.962573 270.779328 
L 229.040123 275.151168 
L 237.225423 276.262272 
L 239.83926 277.222176 
L 238.774079 278.335872 
L 235.770521 279.656064 
L 232.167609 281.114496 
L 228.830907 282.624768 
L 226.201545 284.138496 
L 224.404922 285.635808 
L 223.370121 287.117568 
L 222.930989 288.58896 
L 222.897801 290.05344 
L 223.406156 292.966848 
L 224.011056 295.8552 
L 224.395757 298.715904 
L 224.557335 301.548096 
L 224.56398 307.127808 
L 224.484477 323.212896 
L 224.375356 405.438048 
L 224.170257 409.828896 
L 223.875505 412.409664 
L 223.527045 414.10656 
L 222.965569 415.780992 
L 222.053316 417.425184 
L 221.398619 418.229568 
L 220.559242 419.015808 
L 219.48109 419.776128 
L 218.093871 420.494976 
L 216.306268 421.14816 
L 213.999965 421.6968 
L 211.022378 422.07264 
L 207.178611 422.166816 
L 202.224336 421.794432 
L 195.862897 420.657408 
L 187.756815 418.269312 
L 177.573203 413.878464 
L 165.099703 406.384992 
L 150.492427 394.370208 
L 134.712729 376.464672 
L 120.093544 352.362528 
L 110.604403 324.41472 
L 110.877169 298.286496 
L 123.492146 280.301472 
L 146.382566 272.641248 
L 173.545416 272.232576 
L 198.682104 274.54032 
L 230.407025 278.41104 
L 236.693866 279.537696 
L 238.3712 280.598688 
L 237.111783 281.794464 
L 228.382585 286.092 
L 226.139358 287.583264 
L 224.593643 289.062432 
L 223.679635 290.529504 
L 223.26031 291.985344 
L 223.182457 293.435136 
L 223.5332 296.315712 
L 224.200186 300.588192 
L 224.439714 303.401376 
L 224.549079 307.569312 
L 224.485695 339.971904 
L 224.391756 415.224576 
L 224.178566 419.373504 
L 223.843875 421.812576 
L 223.425441 423.414432 
L 222.719663 424.993824 
L 222.199485 425.77056 
L 221.520209 426.5352 
L 220.631559 427.281696 
L 219.467058 427.99968 
L 217.938676 428.671872 
L 215.929977 429.268896 
L 213.287343 429.738048 
L 209.809278 429.9912 
L 205.234093 429.871968 
L 199.229789 429.115968 
L 191.391308 427.274784 
L 181.265665 423.60192 
L 168.441486 416.924928 
L 152.779733 405.552096 
L 134.894382 387.492768 
L 116.934132 361.464768 
L 103.319203 329.077728 
L 100.201689 296.813376 
L 112.191642 273.703104 
L 137.953928 264.00384 
L 170.016385 263.907072 
L 199.836303 266.949216 
L 222.21907 269.439264 
L 235.829953 270.759456 
L 241.745754 271.547424 
L 242.078498 272.4192 
L 239.103895 273.597696 
L 230.421675 276.562944 
L 226.863861 278.116416 
L 224.382791 279.648288 
L 222.948294 281.157696 
L 222.356243 282.65328 
L 222.344305 284.14368 
L 222.665512 285.62976 
L 223.991351 290.059488 
L 224.49329 292.977216 
L 224.659887 295.866432 
L 224.58683 301.559328 
L 224.480325 311.250816 
L 224.485599 345.609504 
L 224.485599 345.609504 
" style="fill:none;stroke:#0000ff;stroke-linecap:square;"/>
   </g>
   <g id="patch_3">
    <path d="M 81 583.2 
L 81 64.8 
" style="fill:none;stroke:#000000;stroke-linecap:square;stroke-linejoin:miter;"/>
   </g>
   <g id="patch_4">
    <path d="M 583.2 583.2 
L 583.2 64.8 
" style="fill:none;stroke:#000000;stroke-linecap:square;stroke-linejoin:miter;"/>
   </g>
   <g id="patch_5">
    <path d="M 81 64.8 
L 583.2 64.8 
" style="fill:none;stroke:#000000;stroke-linecap:square;stroke-linejoin:miter;"/>
   </g>
   <g id="patch_6">
    <path d="M 81 583.2 
L 583.2 583.2 
" style="fill:none;stroke:#000000;stroke-linecap:square;stroke-linejoin:miter;"/>
   </g>
   <g id="matplotlib.axis_1">
    <g id="xtick_1">
     <g id="line2d_2">
      <path clip-path="url(#pc8640773d2)" d="M 81 583.2 
L 81 64.8 
" style="fill:none;stroke:#000000;stroke-dasharray:1.000000,3.000000;stroke-dashoffset:0.0;stroke-width:0.5;"/>
     </g>
     <g id="line2d_3">
      <defs>
       <path d="M 0 0 
L 0 -4 
" id="m9587ed8047" style="stroke:#000000;stroke-width:0.5;"/>
      </defs>
      <g>
       <use style="stroke:#000000;stroke-width:0.5;" x="81.0" xlink:href="#m9587ed8047" y="583.2"/>
      </g>
     </g>
     <g id="line2d_4">
      <defs>
       <path d="M 0 0 
L 0 4 
" id="mf5235f3a70" style="stroke:#000000;stroke-width:0.5;"/>
      </defs>
      <g>
       <use style="stroke:#000000;stroke-width:0.5;" x="81.0" xlink:href="#mf5235f3a70" y="64.8"/>
      </g>
     </g>
     <g id="text_1">
      <!-- −10 -->
      <defs>
       <path d="M 10.59375 35.5 
L 73.1875 35.5 
L 73.1875 27.203125 
L 10.59375 27.203125 
z
" id="BitstreamVeraSans-Roman-2212"/>
       <path d="M 31.78125 66.40625 
Q 24.171875 66.40625 20.328125 58.90625 
Q 16.5 51.421875 16.5 36.375 
Q 16.5 21.390625 20.328125 13.890625 
Q 24.171875 6.390625 31.78125 6.390625 
Q 39.453125 6.390625 43.28125 13.890625 
Q 47.125 21.390625 47.125 36.375 
Q 47.125 51.421875 43.28125 58.90625 
Q 39.453125 66.40625 31.78125 66.40625 
M 31.78125 74.21875 
Q 44.046875 74.21875 50.515625 64.515625 
Q 56.984375 54.828125 56.984375 36.375 
Q 56.984375 17.96875 50.515625 8.265625 
Q 44.046875 -1.421875 31.78125 -1.421875 
Q 19.53125 -1.421875 13.0625 8.265625 
Q 6.59375 17.96875 6.59375 36.375 
Q 6.59375 54.828125 13.0625 64.515625 
Q 19.53125 74.21875 31.78125 74.21875 
" id="BitstreamVeraSans-Roman-30"/>
       <path d="M 12.40625 8.296875 
L 28.515625 8.296875 
L 28.515625 63.921875 
L 10.984375 60.40625 
L 10.984375 69.390625 
L 28.421875 72.90625 
L 38.28125 72.90625 
L 38.28125 8.296875 
L 54.390625 8.296875 
L 54.390625 0 
L 12.40625 0 
z
" id="BitstreamVeraSans-Roman-31"/>
      </defs>
      <g transform="translate(68.3371875 596.318125)scale(0.12 -0.12)">
       <use xlink:href="#BitstreamVeraSans-Roman-2212"/>
       <use x="83.7890625" xlink:href="#BitstreamVeraSans-Roman-31"/>
       <use x="147.412109375" xlink:href="#BitstreamVeraSans-Roman-30"/>
      </g>
     </g>
    </g>
    <g id="xtick_2">
     <g id="line2d_5">
      <path clip-path="url(#pc8640773d2)" d="M 152.742857 583.2 
L 152.742857 64.8 
" style="fill:none;stroke:#000000;stroke-dasharray:1.000000,3.000000;stroke-dashoffset:0.0;stroke-width:0.5;"/>
     </g>
     <g id="line2d_6">
      <g>
       <use style="stroke:#000000;stroke-width:0.5;" x="152.742857143" xlink:href="#m9587ed8047" y="583.2"/>
      </g>
     </g>
     <g id="line2d_7">
      <g>
       <use style="stroke:#000000;stroke-width:0.5;" x="152.742857143" xlink:href="#mf5235f3a70" y="64.8"/>
      </g>
     </g>
     <g id="text_2">
      <!-- −5 -->
      <defs>
       <path d="M 10.796875 72.90625 
L 49.515625 72.90625 
L 49.515625 64.59375 
L 19.828125 64.59375 
L 19.828125 46.734375 
Q 21.96875 47.46875 24.109375 47.828125 
Q 26.265625 48.1875 28.421875 48.1875 
Q 40.625 48.1875 47.75 41.5 
Q 54.890625 34.8125 54.890625 23.390625 
Q 54.890625 11.625 47.5625 5.09375 
Q 40.234375 -1.421875 26.90625 -1.421875 
Q 22.3125 -1.421875 17.546875 -0.640625 
Q 12.796875 0.140625 7.71875 1.703125 
L 7.71875 11.625 
Q 12.109375 9.234375 16.796875 8.0625 
Q 21.484375 6.890625 26.703125 6.890625 
Q 35.15625 6.890625 40.078125 11.328125 
Q 45.015625 15.765625 45.015625 23.390625 
Q 45.015625 31 40.078125 35.4375 
Q 35.15625 39.890625 26.703125 39.890625 
Q 22.75 39.890625 18.8125 39.015625 
Q 14.890625 38.140625 10.796875 36.28125 
z
" id="BitstreamVeraSans-Roman-35"/>
      </defs>
      <g transform="translate(143.897544643 596.318125)scale(0.12 -0.12)">
       <use xlink:href="#BitstreamVeraSans-Roman-2212"/>
       <use x="83.7890625" xlink:href="#BitstreamVeraSans-Roman-35"/>
      </g>
     </g>
    </g>
    <g id="xtick_3">
     <g id="line2d_8">
      <path clip-path="url(#pc8640773d2)" d="M 224.485714 583.2 
L 224.485714 64.8 
" style="fill:none;stroke:#000000;stroke-dasharray:1.000000,3.000000;stroke-dashoffset:0.0;stroke-width:0.5;"/>
     </g>
     <g id="line2d_9">
      <g>
       <use style="stroke:#000000;stroke-width:0.5;" x="224.485714286" xlink:href="#m9587ed8047" y="583.2"/>
      </g>
     </g>
     <g id="line2d_10">
      <g>
       <use style="stroke:#000000;stroke-width:0.5;" x="224.485714286" xlink:href="#mf5235f3a70" y="64.8"/>
      </g>
     </g>
     <g id="text_3">
      <!-- 0 -->
      <g transform="translate(220.668214286 596.318125)scale(0.12 -0.12)">
       <use xlink:href="#BitstreamVeraSans-Roman-30"/>
      </g>
     </g>
    </g>
    <g id="xtick_4">
     <g id="line2d_11">
      <path clip-path="url(#pc8640773d2)" d="M 296.228571 583.2 
L 296.228571 64.8 
" style="fill:none;stroke:#000000;stroke-dasharray:1.000000,3.000000;stroke-dashoffset:0.0;stroke-width:0.5;"/>
     </g>
     <g id="line2d_12">
      <g>
       <use style="stroke:#000000;stroke-width:0.5;" x="296.228571429" xlink:href="#m9587ed8047" y="583.2"/>
      </g>
     </g>
     <g id="line2d_13">
      <g>
       <use style="stroke:#000000;stroke-width:0.5;" x="296.228571429" xlink:href="#mf5235f3a70" y="64.8"/>
      </g>
     </g>
     <g id="text_4">
      <!-- 5 -->
      <g transform="translate(292.411071429 596.318125)scale(0.12 -0.12)">
       <use xlink:href="#BitstreamVeraSans-Roman-35"/>
      </g>
     </g>
    </g>
    <g id="xtick_5">
     <g id="line2d_14">
      <path clip-path="url(#pc8640773d2)" d="M 367.971429 583.2 
L 367.971429 64.8 
" style="fill:none;stroke:#000000;stroke-dasharray:1.000000,3.000000;stroke-dashoffset:0.0;stroke-width:0.5;"/>
     </g>
     <g id="line2d_15">
      <g>
       <use style="stroke:#000000;stroke-width:0.5;" x="367.971428571" xlink:href="#m9587ed8047" y="583.2"/>
      </g>
     </g>
     <g id="line2d_16">
      <g>
       <use style="stroke:#000000;stroke-width:0.5;" x="367.971428571" xlink:href="#mf5235f3a70" y="64.8"/>
      </g>
     </g>
     <g id="text_5">
      <!-- 10 -->
      <g transform="translate(360.336428571 596.318125)scale(0.12 -0.12)">
       <use xlink:href="#BitstreamVeraSans-Roman-31"/>
       <use x="63.623046875" xlink:href="#BitstreamVeraSans-Roman-30"/>
      </g>
     </g>
    </g>
    <g id="xtick_6">
     <g id="line2d_17">
      <path clip-path="url(#pc8640773d2)" d="M 439.714286 583.2 
L 439.714286 64.8 
" style="fill:none;stroke:#000000;stroke-dasharray:1.000000,3.000000;stroke-dashoffset:0.0;stroke-width:0.5;"/>
     </g>
     <g id="line2d_18">
      <g>
       <use style="stroke:#000000;stroke-width:0.5;" x="439.714285714" xlink:href="#m9587ed8047" y="583.2"/>
      </g>
     </g>
     <g id="line2d_19">
      <g>
       <use style="stroke:#000000;stroke-width:0.5;" x="439.714285714" xlink:href="#mf5235f3a70" y="64.8"/>
      </g>
     </g>
     <g id="text_6">
      <!-- 15 -->
      <g transform="translate(432.079285714 596.318125)scale(0.12 -0.12)">
       <use xlink:href="#BitstreamVeraSans-Roman-31"/>
       <use x="63.623046875" xlink:href="#BitstreamVeraSans-Roman-35"/>
      </g>
     </g>
    </g>
    <g id="xtick_7">
     <g id="line2d_20">
      <path clip-path="url(#pc8640773d2)" d="M 511.457143 583.2 
L 511.457143 64.8 
" style="fill:none;stroke:#000000;stroke-dasharray:1.000000,3.000000;stroke-dashoffset:0.0;stroke-width:0.5;"/>
     </g>
     <g id="line2d_21">
      <g>
       <use style="stroke:#000000;stroke-width:0.5;" x="511.457142857" xlink:href="#m9587ed8047" y="583.2"/>
      </g>
     </g>
     <g id="line2d_22">
      <g>
       <use style="stroke:#000000;stroke-width:0.5;" x="511.457142857" xlink:href="#mf5235f3a70" y="64.8"/>
      </g>
     </g>
     <g id="text_7">
      <!-- 20 -->
      <defs>
       <path d="M 19.1875 8.296875 
L 53.609375 8.296875 
L 53.609375 0 
L 7.328125 0 
L 7.328125 8.296875 
Q 12.9375 14.109375 22.625 23.890625 
Q 32.328125 33.6875 34.8125 36.53125 
Q 39.546875 41.84375 41.421875 45.53125 
Q 43.3125 49.21875 43.3125 52.78125 
Q 43.3125 58.59375 39.234375 62.25 
Q 35.15625 65.921875 28.609375 65.921875 
Q 23.96875 65.921875 18.8125 64.3125 
Q 13.671875 62.703125 7.8125 59.421875 
L 7.8125 69.390625 
Q 13.765625 71.78125 18.9375 73 
Q 24.125 74.21875 28.421875 74.21875 
Q 39.75 74.21875 46.484375 68.546875 
Q 53.21875 62.890625 53.21875 53.421875 
Q 53.21875 48.921875 51.53125 44.890625 
Q 49.859375 40.875 45.40625 35.40625 
Q 44.1875 33.984375 37.640625 27.21875 
Q 31.109375 20.453125 19.1875 8.296875 
" id="BitstreamVeraSans-Roman-32"/>
      </defs>
      <g transform="translate(503.822142857 596.318125)scale(0.12 -0.12)">
       <use xlink:href="#BitstreamVeraSans-Roman-32"/>
       <use x="63.623046875" xlink:href="#BitstreamVeraSans-Roman-30"/>
      </g>
     </g>
    </g>
    <g id="xtick_8">
     <g id="line2d_23">
      <path clip-path="url(#pc8640773d2)" d="M 583.2 583.2 
L 583.2 64.8 
" style="fill:none;stroke:#000000;stroke-dasharray:1.000000,3.000000;stroke-dashoffset:0.0;stroke-width:0.5;"/>
     </g>
     <g id="line2d_24">
      <g>
       <use style="stroke:#000000;stroke-width:0.5;" x="583.2" xlink:href="#m9587ed8047" y="583.2"/>
      </g>
     </g>
     <g id="line2d_25">
      <g>
       <use style="stroke:#000000;stroke-width:0.5;" x="583.2" xlink:href="#mf5235f3a70" y="64.8"/>
      </g>
     </g>
     <g id="text_8">
      <!-- 25 -->
      <g transform="translate(575.565 596.318125)scale(0.12 -0.12)">
       <use xlink:href="#BitstreamVeraSans-Roman-32"/>
       <use x="63.623046875" xlink:href="#BitstreamVeraSans-Roman-35"/>
      </g>
     </g>
    </g>
    <g id="text_9">
     <!-- x -->
     <defs>
      <path d="M 54.890625 54.6875 
L 35.109375 28.078125 
L 55.90625 0 
L 45.3125 0 
L 29.390625 21.484375 
L 13.484375 0 
L 2.875 0 
L 24.125 28.609375 
L 4.6875 54.6875 
L 15.28125 54.6875 
L 29.78125 35.203125 
L 44.28125 54.6875 
z
" id="BitstreamVeraSans-Roman-78"/>
     </defs>
     <g transform="translate(326.773125 617.4909375)scale(0.18 -0.18)">
      <use xlink:href="#BitstreamVeraSans-Roman-78"/>
     </g>
    </g>
   </g>
   <g id="matplotlib.axis_2">
    <g id="ytick_1">
     <g id="line2d_26">
      <path clip-path="url(#pc8640773d2)" d="M 81 583.2 
L 583.2 583.2 
" style="fill:none;stroke:#000000;stroke-dasharray:1.000000,3.000000;stroke-dashoffset:0.0;stroke-width:0.5;"/>
     </g>
     <g id="line2d_27">
      <defs>
       <path d="M 0 0 
L 4 0 
" id="m061acad6aa" style="stroke:#000000;stroke-width:0.5;"/>
      </defs>
      <g>
       <use style="stroke:#000000;stroke-width:0.5;" x="81.0" xlink:href="#m061acad6aa" y="583.2"/>
      </g>
     </g>
     <g id="line2d_28">
      <defs>
       <path d="M 0 0 
L -4 0 
" id="m505128d1c3" style="stroke:#000000;stroke-width:0.5;"/>
      </defs>
      <g>
       <use style="stroke:#000000;stroke-width:0.5;" x="583.2" xlink:href="#m505128d1c3" y="583.2"/>
      </g>
     </g>
     <g id="text_10">
      <!-- 0 -->
      <g transform="translate(69.365 586.51125)scale(0.12 -0.12)">
       <use xlink:href="#BitstreamVeraSans-Roman-30"/>
      </g>
     </g>
    </g>
    <g id="ytick_2">
     <g id="line2d_29">
      <path clip-path="url(#pc8640773d2)" d="M 81 496.8 
L 583.2 496.8 
" style="fill:none;stroke:#000000;stroke-dasharray:1.000000,3.000000;stroke-dashoffset:0.0;stroke-width:0.5;"/>
     </g>
     <g id="line2d_30">
      <g>
       <use style="stroke:#000000;stroke-width:0.5;" x="81.0" xlink:href="#m061acad6aa" y="496.8"/>
      </g>
     </g>
     <g id="line2d_31">
      <g>
       <use style="stroke:#000000;stroke-width:0.5;" x="583.2" xlink:href="#m505128d1c3" y="496.8"/>
      </g>
     </g>
     <g id="text_11">
      <!-- 10 -->
      <g transform="translate(61.73 500.11125)scale(0.12 -0.12)">
       <use xlink:href="#BitstreamVeraSans-Roman-31"/>
       <use x="63.623046875" xlink:href="#BitstreamVeraSans-Roman-30"/>
      </g>
     </g>
    </g>
    <g id="ytick_3">
     <g id="line2d_32">
      <path clip-path="url(#pc8640773d2)" d="M 81 410.4 
L 583.2 410.4 
" style="fill:none;stroke:#000000;stroke-dasharray:1.000000,3.000000;stroke-dashoffset:0.0;stroke-width:0.5;"/>
     </g>
     <g id="line2d_33">
      <g>
       <use style="stroke:#000000;stroke-width:0.5;" x="81.0" xlink:href="#m061acad6aa" y="410.4"/>
      </g>
     </g>
     <g id="line2d_34">
      <g>
       <use style="stroke:#000000;stroke-width:0.5;" x="583.2" xlink:href="#m505128d1c3" y="410.4"/>
      </g>
     </g>
     <g id="text_12">
      <!-- 20 -->
      <g transform="translate(61.73 413.71125)scale(0.12 -0.12)">
       <use xlink:href="#BitstreamVeraSans-Roman-32"/>
       <use x="63.623046875" xlink:href="#BitstreamVeraSans-Roman-30"/>
      </g>
     </g>
    </g>
    <g id="ytick_4">
     <g id="line2d_35">
      <path clip-path="url(#pc8640773d2)" d="M 81 324 
L 583.2 324 
" style="fill:none;stroke:#000000;stroke-dasharray:1.000000,3.000000;stroke-dashoffset:0.0;stroke-width:0.5;"/>
     </g>
     <g id="line2d_36">
      <g>
       <use style="stroke:#000000;stroke-width:0.5;" x="81.0" xlink:href="#m061acad6aa" y="324.0"/>
      </g>
     </g>
     <g id="line2d_37">
      <g>
       <use style="stroke:#000000;stroke-width:0.5;" x="583.2" xlink:href="#m505128d1c3" y="324.0"/>
      </g>
     </g>
     <g id="text_13">
      <!-- 30 -->
      <defs>
       <path d="M 40.578125 39.3125 
Q 47.65625 37.796875 51.625 33 
Q 55.609375 28.21875 55.609375 21.1875 
Q 55.609375 10.40625 48.1875 4.484375 
Q 40.765625 -1.421875 27.09375 -1.421875 
Q 22.515625 -1.421875 17.65625 -0.515625 
Q 12.796875 0.390625 7.625 2.203125 
L 7.625 11.71875 
Q 11.71875 9.328125 16.59375 8.109375 
Q 21.484375 6.890625 26.8125 6.890625 
Q 36.078125 6.890625 40.9375 10.546875 
Q 45.796875 14.203125 45.796875 21.1875 
Q 45.796875 27.640625 41.28125 31.265625 
Q 36.765625 34.90625 28.71875 34.90625 
L 20.21875 34.90625 
L 20.21875 43.015625 
L 29.109375 43.015625 
Q 36.375 43.015625 40.234375 45.921875 
Q 44.09375 48.828125 44.09375 54.296875 
Q 44.09375 59.90625 40.109375 62.90625 
Q 36.140625 65.921875 28.71875 65.921875 
Q 24.65625 65.921875 20.015625 65.03125 
Q 15.375 64.15625 9.8125 62.3125 
L 9.8125 71.09375 
Q 15.4375 72.65625 20.34375 73.4375 
Q 25.25 74.21875 29.59375 74.21875 
Q 40.828125 74.21875 47.359375 69.109375 
Q 53.90625 64.015625 53.90625 55.328125 
Q 53.90625 49.265625 50.4375 45.09375 
Q 46.96875 40.921875 40.578125 39.3125 
" id="BitstreamVeraSans-Roman-33"/>
      </defs>
      <g transform="translate(61.73 327.31125)scale(0.12 -0.12)">
       <use xlink:href="#BitstreamVeraSans-Roman-33"/>
       <use x="63.623046875" xlink:href="#BitstreamVeraSans-Roman-30"/>
      </g>
     </g>
    </g>
    <g id="ytick_5">
     <g id="line2d_38">
      <path clip-path="url(#pc8640773d2)" d="M 81 237.6 
L 583.2 237.6 
" style="fill:none;stroke:#000000;stroke-dasharray:1.000000,3.000000;stroke-dashoffset:0.0;stroke-width:0.5;"/>
     </g>
     <g id="line2d_39">
      <g>
       <use style="stroke:#000000;stroke-width:0.5;" x="81.0" xlink:href="#m061acad6aa" y="237.6"/>
      </g>
     </g>
     <g id="line2d_40">
      <g>
       <use style="stroke:#000000;stroke-width:0.5;" x="583.2" xlink:href="#m505128d1c3" y="237.6"/>
      </g>
     </g>
     <g id="text_14">
      <!-- 40 -->
      <defs>
       <path d="M 37.796875 64.3125 
L 12.890625 25.390625 
L 37.796875 25.390625 
z
M 35.203125 72.90625 
L 47.609375 72.90625 
L 47.609375 25.390625 
L 58.015625 25.390625 
L 58.015625 17.1875 
L 47.609375 17.1875 
L 47.609375 0 
L 37.796875 0 
L 37.796875 17.1875 
L 4.890625 17.1875 
L 4.890625 26.703125 
z
" id="BitstreamVeraSans-Roman-34"/>
      </defs>
      <g transform="translate(61.73 240.91125)scale(0.12 -0.12)">
       <use xlink:href="#BitstreamVeraSans-Roman-34"/>
       <use x="63.623046875" xlink:href="#BitstreamVeraSans-Roman-30"/>
      </g>
     </g>
    </g>
    <g id="ytick_6">
     <g id="line2d_41">
      <path clip-path="url(#pc8640773d2)" d="M 81 151.2 
L 583.2 151.2 
" style="fill:none;stroke:#000000;stroke-dasharray:1.000000,3.000000;stroke-dashoffset:0.0;stroke-width:0.5;"/>
     </g>
     <g id="line2d_42">
      <g>
       <use style="stroke:#000000;stroke-width:0.5;" x="81.0" xlink:href="#m061acad6aa" y="151.2"/>
      </g>
     </g>
     <g id="line2d_43">
      <g>
       <use style="stroke:#000000;stroke-width:0.5;" x="583.2" xlink:href="#m505128d1c3" y="151.2"/>
      </g>
     </g>
     <g id="text_15">
      <!-- 50 -->
      <g transform="translate(61.73 154.51125)scale(0.12 -0.12)">
       <use xlink:href="#BitstreamVeraSans-Roman-35"/>
       <use x="63.623046875" xlink:href="#BitstreamVeraSans-Roman-30"/>
      </g>
     </g>
    </g>
    <g id="ytick_7">
     <g id="line2d_44">
      <path clip-path="url(#pc8640773d2)" d="M 81 64.8 
L 583.2 64.8 
" style="fill:none;stroke:#000000;stroke-dasharray:1.000000,3.000000;stroke-dashoffset:0.0;stroke-width:0.5;"/>
     </g>
     <g id="line2d_45">
      <g>
       <use style="stroke:#000000;stroke-width:0.5;" x="81.0" xlink:href="#m061acad6aa" y="64.8"/>
      </g>
     </g>
     <g id="line2d_46">
      <g>
       <use style="stroke:#000000;stroke-width:0.5;" x="583.2" xlink:href="#m505128d1c3" y="64.8"/>
      </g>
     </g>
     <g id="text_16">
      <!-- 60 -->
      <defs>
       <path d="M 33.015625 40.375 
Q 26.375 40.375 22.484375 35.828125 
Q 18.609375 31.296875 18.609375 23.390625 
Q 18.609375 15.53125 22.484375 10.953125 
Q 26.375 6.390625 33.015625 6.390625 
Q 39.65625 6.390625 43.53125 10.953125 
Q 47.40625 15.53125 47.40625 23.390625 
Q 47.40625 31.296875 43.53125 35.828125 
Q 39.65625 40.375 33.015625 40.375 
M 52.59375 71.296875 
L 52.59375 62.3125 
Q 48.875 64.0625 45.09375 64.984375 
Q 41.3125 65.921875 37.59375 65.921875 
Q 27.828125 65.921875 22.671875 59.328125 
Q 17.53125 52.734375 16.796875 39.40625 
Q 19.671875 43.65625 24.015625 45.921875 
Q 28.375 48.1875 33.59375 48.1875 
Q 44.578125 48.1875 50.953125 41.515625 
Q 57.328125 34.859375 57.328125 23.390625 
Q 57.328125 12.15625 50.6875 5.359375 
Q 44.046875 -1.421875 33.015625 -1.421875 
Q 20.359375 -1.421875 13.671875 8.265625 
Q 6.984375 17.96875 6.984375 36.375 
Q 6.984375 53.65625 15.1875 63.9375 
Q 23.390625 74.21875 37.203125 74.21875 
Q 40.921875 74.21875 44.703125 73.484375 
Q 48.484375 72.75 52.59375 71.296875 
" id="BitstreamVeraSans-Roman-36"/>
      </defs>
      <g transform="translate(61.73 68.11125)scale(0.12 -0.12)">
       <use xlink:href="#BitstreamVeraSans-Roman-36"/>
       <use x="63.623046875" xlink:href="#BitstreamVeraSans-Roman-30"/>
      </g>
     </g>
    </g>
    <g id="text_17">
     <!-- y -->
     <defs>
      <path d="M 32.171875 -5.078125 
Q 28.375 -14.84375 24.75 -17.8125 
Q 21.140625 -20.796875 15.09375 -20.796875 
L 7.90625 -20.796875 
L 7.90625 -13.28125 
L 13.1875 -13.28125 
Q 16.890625 -13.28125 18.9375 -11.515625 
Q 21 -9.765625 23.484375 -3.21875 
L 25.09375 0.875 
L 2.984375 54.6875 
L 12.5 54.6875 
L 29.59375 11.921875 
L 46.6875 54.6875 
L 56.203125 54.6875 
z
" id="BitstreamVeraSans-Roman-79"/>
     </defs>
     <g transform="translate(52.9865625 329.326875)rotate(-90.0)scale(0.18 -0.18)">
      <use xlink:href="#BitstreamVeraSans-Roman-79"/>
     </g>
    </g>
   </g>
   <g id="text_18">
    <!-- Data -->
    <defs>
     <path d="M 19.671875 64.796875 
L 19.671875 8.109375 
L 31.59375 8.109375 
Q 46.6875 8.109375 53.6875 14.9375 
Q 60.6875 21.78125 60.6875 36.53125 
Q 60.6875 51.171875 53.6875 57.984375 
Q 46.6875 64.796875 31.59375 64.796875 
z
M 9.8125 72.90625 
L 30.078125 72.90625 
Q 51.265625 72.90625 61.171875 64.09375 
Q 71.09375 55.28125 71.09375 36.53125 
Q 71.09375 17.671875 61.125 8.828125 
Q 51.171875 0 30.078125 0 
L 9.8125 0 
z
" id="BitstreamVeraSans-Roman-44"/>
     <path d="M 34.28125 27.484375 
Q 23.390625 27.484375 19.1875 25 
Q 14.984375 22.515625 14.984375 16.5 
Q 14.984375 11.71875 18.140625 8.90625 
Q 21.296875 6.109375 26.703125 6.109375 
Q 34.1875 6.109375 38.703125 11.40625 
Q 43.21875 16.703125 43.21875 25.484375 
L 43.21875 27.484375 
z
M 52.203125 31.203125 
L 52.203125 0 
L 43.21875 0 
L 43.21875 8.296875 
Q 40.140625 3.328125 35.546875 0.953125 
Q 30.953125 -1.421875 24.3125 -1.421875 
Q 15.921875 -1.421875 10.953125 3.296875 
Q 6 8.015625 6 15.921875 
Q 6 25.140625 12.171875 29.828125 
Q 18.359375 34.515625 30.609375 34.515625 
L 43.21875 34.515625 
L 43.21875 35.40625 
Q 43.21875 41.609375 39.140625 45 
Q 35.0625 48.390625 27.6875 48.390625 
Q 23 48.390625 18.546875 47.265625 
Q 14.109375 46.140625 10.015625 43.890625 
L 10.015625 52.203125 
Q 14.9375 54.109375 19.578125 55.046875 
Q 24.21875 56 28.609375 56 
Q 40.484375 56 46.34375 49.84375 
Q 52.203125 43.703125 52.203125 31.203125 
" id="BitstreamVeraSans-Roman-61"/>
     <path d="M 18.3125 70.21875 
L 18.3125 54.6875 
L 36.8125 54.6875 
L 36.8125 47.703125 
L 18.3125 47.703125 
L 18.3125 18.015625 
Q 18.3125 11.328125 20.140625 9.421875 
Q 21.96875 7.515625 27.59375 7.515625 
L 36.8125 7.515625 
L 36.8125 0 
L 27.59375 0 
Q 17.1875 0 13.234375 3.875 
Q 9.28125 7.765625 9.28125 18.015625 
L 9.28125 47.703125 
L 2.6875 47.703125 
L 2.6875 54.6875 
L 9.28125 54.6875 
L 9.28125 70.21875 
z
" id="BitstreamVeraSans-Roman-74"/>
    </defs>
    <g transform="translate(305.83578125 59.8)scale(0.22 -0.22)">
     <use xlink:href="#BitstreamVeraSans-Roman-44"/>
     <use x="77.001953125" xlink:href="#BitstreamVeraSans-Roman-61"/>
     <use x="138.28125" xlink:href="#BitstreamVeraSans-Roman-74"/>
     <use x="177.490234375" xlink:href="#BitstreamVeraSans-Roman-61"/>
    </g>
   </g>
   <g id="legend_1">
    <g id="patch_7">
     <path d="M 88.2 97.4565 
L 181.638 97.4565 
L 181.638 72 
L 88.2 72 
z
" style="fill:#ffffff;stroke:#000000;stroke-linejoin:miter;"/>
    </g>
    <g id="line2d_47">
     <path d="M 98.28 83.66175 
L 118.44 83.66175 
" style="fill:none;stroke:#0000ff;stroke-linecap:square;"/>
    </g>
    <g id="line2d_48"/>
    <g id="text_19">
     <!-- data1 -->
     <defs>
      <path d="M 45.40625 46.390625 
L 45.40625 75.984375 
L 54.390625 75.984375 
L 54.390625 0 
L 45.40625 0 
L 45.40625 8.203125 
Q 42.578125 3.328125 38.25 0.953125 
Q 33.9375 -1.421875 27.875 -1.421875 
Q 17.96875 -1.421875 11.734375 6.484375 
Q 5.515625 14.40625 5.515625 27.296875 
Q 5.515625 40.1875 11.734375 48.09375 
Q 17.96875 56 27.875 56 
Q 33.9375 56 38.25 53.625 
Q 42.578125 51.265625 45.40625 46.390625 
M 14.796875 27.296875 
Q 14.796875 17.390625 18.875 11.75 
Q 22.953125 6.109375 30.078125 6.109375 
Q 37.203125 6.109375 41.296875 11.75 
Q 45.40625 17.390625 45.40625 27.296875 
Q 45.40625 37.203125 41.296875 42.84375 
Q 37.203125 48.484375 30.078125 48.484375 
Q 22.953125 48.484375 18.875 42.84375 
Q 14.796875 37.203125 14.796875 27.296875 
" id="BitstreamVeraSans-Roman-64"/>
     </defs>
     <g transform="translate(134.28 88.70175)scale(0.144 -0.144)">
      <use xlink:href="#BitstreamVeraSans-Roman-64"/>
      <use x="63.4765625" xlink:href="#BitstreamVeraSans-Roman-61"/>
      <use x="124.755859375" xlink:href="#BitstreamVeraSans-Roman-74"/>
      <use x="163.96484375" xlink:href="#BitstreamVeraSans-Roman-61"/>
      <use x="225.244140625" xlink:href="#BitstreamVeraSans-Roman-31"/>
     </g>
    </g>
   </g>
  </g>
 </g>
 <defs>
  <clipPath id="pc8640773d2">
   <rect height="518.4" width="502.2" x="81.0" y="64.8"/>
  </clipPath>
 </defs>
</svg>
