<?xml version="1.0" encoding="utf-8" standalone="no"?>
<!DOCTYPE svg PUBLIC "-//W3C//DTD SVG 1.1//EN"
  "http://www.w3.org/Graphics/SVG/1.1/DTD/svg11.dtd">
<!-- Created with matplotlib (http://matplotlib.org/) -->
<svg height="648pt" version="1.1" viewBox="0 0 648 648" width="648pt" xmlns="http://www.w3.org/2000/svg" xmlns:xlink="http://www.w3.org/1999/xlink">
 <defs>
  <style type="text/css">
*{stroke-linecap:butt;stroke-linejoin:round;stroke-miterlimit:100000;}
  </style>
 </defs>
 <g id="figure_1">
  <g id="patch_1">
   <path d="M 0 648 
L 648 648 
L 648 0 
L 0 0 
z
" style="fill:#ffffff;"/>
  </g>
  <g id="axes_1">
   <g id="patch_2">
    <path d="M 81 583.2 
L 583.2 583.2 
L 583.2 64.8 
L 81 64.8 
z
" style="fill:#ffffff;"/>
   </g>
   <g id="line2d_1">
    <defs>
     <path d="M 0 3 
C 0.795609 3 1.55874 2.683901 2.12132 2.12132 
C 2.683901 1.55874 3 0.795609 3 0 
C 3 -0.795609 2.683901 -1.55874 2.12132 -2.12132 
C 1.55874 -2.683901 0.795609 -3 0 -3 
C -0.795609 -3 -1.55874 -2.683901 -2.12132 -2.12132 
C -2.683901 -1.55874 -3 -0.795609 -3 0 
C -3 0.795609 -2.683901 1.55874 -2.12132 2.12132 
C -1.55874 2.683901 -0.795609 3 0 3 
z
" id="m265a62182e" style="stroke:#000000;stroke-width:0.5;"/>
    </defs>
    <g clip-path="url(#p45565f14fe)">
     <use style="fill:#0000ff;stroke:#000000;stroke-width:0.5;" x="81.0" xlink:href="#m265a62182e" y="122.4"/>
     <use style="fill:#0000ff;stroke:#000000;stroke-width:0.5;" x="86.022" xlink:href="#m265a62182e" y="122.487264"/>
     <use style="fill:#0000ff;stroke:#000000;stroke-width:0.5;" x="91.044" xlink:href="#m265a62182e" y="122.66208"/>
     <use style="fill:#0000ff;stroke:#000000;stroke-width:0.5;" x="96.066" xlink:href="#m265a62182e" y="122.92416"/>
     <use style="fill:#0000ff;stroke:#000000;stroke-width:0.5;" x="101.088" xlink:href="#m265a62182e" y="123.273504"/>
     <use style="fill:#0000ff;stroke:#000000;stroke-width:0.5;" x="106.11" xlink:href="#m265a62182e" y="123.710112"/>
     <use style="fill:#0000ff;stroke:#000000;stroke-width:0.5;" x="111.132" xlink:href="#m265a62182e" y="124.233984"/>
     <use style="fill:#0000ff;stroke:#000000;stroke-width:0.5;" x="116.154" xlink:href="#m265a62182e" y="124.844544"/>
     <use style="fill:#0000ff;stroke:#000000;stroke-width:0.5;" x="121.176" xlink:href="#m265a62182e" y="125.542368"/>
     <use style="fill:#0000ff;stroke:#000000;stroke-width:0.5;" x="126.198" xlink:href="#m265a62182e" y="126.327168"/>
     <use style="fill:#0000ff;stroke:#000000;stroke-width:0.5;" x="131.22" xlink:href="#m265a62182e" y="127.198656"/>
     <use style="fill:#0000ff;stroke:#000000;stroke-width:0.5;" x="136.242" xlink:href="#m265a62182e" y="128.156544"/>
     <use style="fill:#0000ff;stroke:#000000;stroke-width:0.5;" x="141.264" xlink:href="#m265a62182e" y="129.20112"/>
     <use style="fill:#0000ff;stroke:#000000;stroke-width:0.5;" x="146.286" xlink:href="#m265a62182e" y="130.332096"/>
     <use style="fill:#0000ff;stroke:#000000;stroke-width:0.5;" x="151.308" xlink:href="#m265a62182e" y="131.548896"/>
     <use style="fill:#0000ff;stroke:#000000;stroke-width:0.5;" x="156.33" xlink:href="#m265a62182e" y="132.852096"/>
     <use style="fill:#0000ff;stroke:#000000;stroke-width:0.5;" x="161.352" xlink:href="#m265a62182e" y="134.240832"/>
     <use style="fill:#0000ff;stroke:#000000;stroke-width:0.5;" x="166.374" xlink:href="#m265a62182e" y="135.715104"/>
     <use style="fill:#0000ff;stroke:#000000;stroke-width:0.5;" x="171.396" xlink:href="#m265a62182e" y="137.274912"/>
     <use style="fill:#0000ff;stroke:#000000;stroke-width:0.5;" x="176.418" xlink:href="#m265a62182e" y="138.919968"/>
     <use style="fill:#0000ff;stroke:#000000;stroke-width:0.5;" x="181.44" xlink:href="#m265a62182e" y="140.649984"/>
     <use style="fill:#0000ff;stroke:#000000;stroke-width:0.5;" x="186.462" xlink:href="#m265a62182e" y="142.464672"/>
     <use style="fill:#0000ff;stroke:#000000;stroke-width:0.5;" x="191.484" xlink:href="#m265a62182e" y="144.364032"/>
     <use style="fill:#0000ff;stroke:#000000;stroke-width:0.5;" x="196.506" xlink:href="#m265a62182e" y="146.347488"/>
     <use style="fill:#0000ff;stroke:#000000;stroke-width:0.5;" x="201.528" xlink:href="#m265a62182e" y="148.415328"/>
     <use style="fill:#0000ff;stroke:#000000;stroke-width:0.5;" x="206.55" xlink:href="#m265a62182e" y="150.566688"/>
     <use style="fill:#0000ff;stroke:#000000;stroke-width:0.5;" x="211.572" xlink:href="#m265a62182e" y="152.801568"/>
     <use style="fill:#0000ff;stroke:#000000;stroke-width:0.5;" x="216.594" xlink:href="#m265a62182e" y="155.11968"/>
     <use style="fill:#0000ff;stroke:#000000;stroke-width:0.5;" x="221.616" xlink:href="#m265a62182e" y="157.521024"/>
     <use style="fill:#0000ff;stroke:#000000;stroke-width:0.5;" x="226.638" xlink:href="#m265a62182e" y="160.005024"/>
     <use style="fill:#0000ff;stroke:#000000;stroke-width:0.5;" x="231.66" xlink:href="#m265a62182e" y="162.571392"/>
     <use style="fill:#0000ff;stroke:#000000;stroke-width:0.5;" x="236.682" xlink:href="#m265a62182e" y="165.220128"/>
     <use style="fill:#0000ff;stroke:#000000;stroke-width:0.5;" x="241.704" xlink:href="#m265a62182e" y="167.950656"/>
     <use style="fill:#0000ff;stroke:#000000;stroke-width:0.5;" x="246.726" xlink:href="#m265a62182e" y="170.763264"/>
     <use style="fill:#0000ff;stroke:#000000;stroke-width:0.5;" x="251.748" xlink:href="#m265a62182e" y="173.6568"/>
     <use style="fill:#0000ff;stroke:#000000;stroke-width:0.5;" x="256.77" xlink:href="#m265a62182e" y="176.63184"/>
     <use style="fill:#0000ff;stroke:#000000;stroke-width:0.5;" x="261.792" xlink:href="#m265a62182e" y="179.687808"/>
     <use style="fill:#0000ff;stroke:#000000;stroke-width:0.5;" x="266.814" xlink:href="#m265a62182e" y="182.824128"/>
     <use style="fill:#0000ff;stroke:#000000;stroke-width:0.5;" x="271.836" xlink:href="#m265a62182e" y="186.041088"/>
     <use style="fill:#0000ff;stroke:#000000;stroke-width:0.5;" x="276.858" xlink:href="#m265a62182e" y="189.337824"/>
     <use style="fill:#0000ff;stroke:#000000;stroke-width:0.5;" x="281.88" xlink:href="#m265a62182e" y="192.714624"/>
     <use style="fill:#0000ff;stroke:#000000;stroke-width:0.5;" x="286.902" xlink:href="#m265a62182e" y="196.1712"/>
     <use style="fill:#0000ff;stroke:#000000;stroke-width:0.5;" x="291.924" xlink:href="#m265a62182e" y="199.706976"/>
     <use style="fill:#0000ff;stroke:#000000;stroke-width:0.5;" x="296.946" xlink:href="#m265a62182e" y="203.321952"/>
     <use style="fill:#0000ff;stroke:#000000;stroke-width:0.5;" x="301.968" xlink:href="#m265a62182e" y="207.01584"/>
     <use style="fill:#0000ff;stroke:#000000;stroke-width:0.5;" x="306.99" xlink:href="#m265a62182e" y="210.788352"/>
     <use style="fill:#0000ff;stroke:#000000;stroke-width:0.5;" x="312.012" xlink:href="#m265a62182e" y="214.6392"/>
     <use style="fill:#0000ff;stroke:#000000;stroke-width:0.5;" x="317.034" xlink:href="#m265a62182e" y="218.568384"/>
     <use style="fill:#0000ff;stroke:#000000;stroke-width:0.5;" x="322.056" xlink:href="#m265a62182e" y="222.575904"/>
     <use style="fill:#0000ff;stroke:#000000;stroke-width:0.5;" x="327.078" xlink:href="#m265a62182e" y="226.660896"/>
     <use style="fill:#0000ff;stroke:#000000;stroke-width:0.5;" x="332.1" xlink:href="#m265a62182e" y="230.823936"/>
     <use style="fill:#0000ff;stroke:#000000;stroke-width:0.5;" x="337.122" xlink:href="#m265a62182e" y="235.06416"/>
     <use style="fill:#0000ff;stroke:#000000;stroke-width:0.5;" x="342.144" xlink:href="#m265a62182e" y="239.381856"/>
     <use style="fill:#0000ff;stroke:#000000;stroke-width:0.5;" x="347.166" xlink:href="#m265a62182e" y="243.776736"/>
     <use style="fill:#0000ff;stroke:#000000;stroke-width:0.5;" x="352.188" xlink:href="#m265a62182e" y="248.2488"/>
     <use style="fill:#0000ff;stroke:#000000;stroke-width:0.5;" x="357.21" xlink:href="#m265a62182e" y="252.797472"/>
     <use style="fill:#0000ff;stroke:#000000;stroke-width:0.5;" x="362.232" xlink:href="#m265a62182e" y="257.42304"/>
     <use style="fill:#0000ff;stroke:#000000;stroke-width:0.5;" x="367.254" xlink:href="#m265a62182e" y="262.125504"/>
     <use style="fill:#0000ff;stroke:#000000;stroke-width:0.5;" x="372.276" xlink:href="#m265a62182e" y="266.904576"/>
     <use style="fill:#0000ff;stroke:#000000;stroke-width:0.5;" x="377.298" xlink:href="#m265a62182e" y="271.759968"/>
     <use style="fill:#0000ff;stroke:#000000;stroke-width:0.5;" x="382.32" xlink:href="#m265a62182e" y="276.691968"/>
     <use style="fill:#0000ff;stroke:#000000;stroke-width:0.5;" x="387.342" xlink:href="#m265a62182e" y="281.700576"/>
     <use style="fill:#0000ff;stroke:#000000;stroke-width:0.5;" x="392.364" xlink:href="#m265a62182e" y="286.785504"/>
     <use style="fill:#0000ff;stroke:#000000;stroke-width:0.5;" x="397.386" xlink:href="#m265a62182e" y="291.946752"/>
     <use style="fill:#0000ff;stroke:#000000;stroke-width:0.5;" x="402.408" xlink:href="#m265a62182e" y="297.184608"/>
     <use style="fill:#0000ff;stroke:#000000;stroke-width:0.5;" x="407.43" xlink:href="#m265a62182e" y="302.499072"/>
     <use style="fill:#0000ff;stroke:#000000;stroke-width:0.5;" x="412.452" xlink:href="#m265a62182e" y="307.890432"/>
     <use style="fill:#0000ff;stroke:#000000;stroke-width:0.5;" x="417.474" xlink:href="#m265a62182e" y="313.3584"/>
     <use style="fill:#0000ff;stroke:#000000;stroke-width:0.5;" x="422.496" xlink:href="#m265a62182e" y="318.903552"/>
     <use style="fill:#0000ff;stroke:#000000;stroke-width:0.5;" x="427.518" xlink:href="#m265a62182e" y="324.525888"/>
     <use style="fill:#0000ff;stroke:#000000;stroke-width:0.5;" x="432.54" xlink:href="#m265a62182e" y="330.225696"/>
     <use style="fill:#0000ff;stroke:#000000;stroke-width:0.5;" x="437.562" xlink:href="#m265a62182e" y="336.003264"/>
     <use style="fill:#0000ff;stroke:#000000;stroke-width:0.5;" x="442.584" xlink:href="#m265a62182e" y="341.85888"/>
     <use style="fill:#0000ff;stroke:#000000;stroke-width:0.5;" x="447.606" xlink:href="#m265a62182e" y="347.79312"/>
     <use style="fill:#0000ff;stroke:#000000;stroke-width:0.5;" x="452.628" xlink:href="#m265a62182e" y="353.80656"/>
     <use style="fill:#0000ff;stroke:#000000;stroke-width:0.5;" x="457.65" xlink:href="#m265a62182e" y="359.899776"/>
     <use style="fill:#0000ff;stroke:#000000;stroke-width:0.5;" x="462.672" xlink:href="#m265a62182e" y="366.073056"/>
     <use style="fill:#0000ff;stroke:#000000;stroke-width:0.5;" x="467.694" xlink:href="#m265a62182e" y="372.327552"/>
     <use style="fill:#0000ff;stroke:#000000;stroke-width:0.5;" x="472.716" xlink:href="#m265a62182e" y="378.66384"/>
     <use style="fill:#0000ff;stroke:#000000;stroke-width:0.5;" x="477.738" xlink:href="#m265a62182e" y="385.083648"/>
     <use style="fill:#0000ff;stroke:#000000;stroke-width:0.5;" x="482.76" xlink:href="#m265a62182e" y="391.587552"/>
     <use style="fill:#0000ff;stroke:#000000;stroke-width:0.5;" x="487.782" xlink:href="#m265a62182e" y="398.177856"/>
     <use style="fill:#0000ff;stroke:#000000;stroke-width:0.5;" x="492.804" xlink:href="#m265a62182e" y="404.856576"/>
     <use style="fill:#0000ff;stroke:#000000;stroke-width:0.5;" x="497.826" xlink:href="#m265a62182e" y="411.626304"/>
     <use style="fill:#0000ff;stroke:#000000;stroke-width:0.5;" x="502.848" xlink:href="#m265a62182e" y="418.4928"/>
     <use style="fill:#0000ff;stroke:#000000;stroke-width:0.5;" x="507.87" xlink:href="#m265a62182e" y="425.482848"/>
     <use style="fill:#0000ff;stroke:#000000;stroke-width:0.5;" x="512.892" xlink:href="#m265a62182e" y="432.595008"/>
     <use style="fill:#0000ff;stroke:#000000;stroke-width:0.5;" x="517.914" xlink:href="#m265a62182e" y="439.829568"/>
     <use style="fill:#0000ff;stroke:#000000;stroke-width:0.5;" x="522.936" xlink:href="#m265a62182e" y="447.187392"/>
     <use style="fill:#0000ff;stroke:#000000;stroke-width:0.5;" x="527.958" xlink:href="#m265a62182e" y="454.66992"/>
     <use style="fill:#0000ff;stroke:#000000;stroke-width:0.5;" x="532.98" xlink:href="#m265a62182e" y="462.278592"/>
     <use style="fill:#0000ff;stroke:#000000;stroke-width:0.5;" x="538.002" xlink:href="#m265a62182e" y="470.014272"/>
     <use style="fill:#0000ff;stroke:#000000;stroke-width:0.5;" x="543.024" xlink:href="#m265a62182e" y="477.879264"/>
     <use style="fill:#0000ff;stroke:#000000;stroke-width:0.5;" x="548.046" xlink:href="#m265a62182e" y="485.87472"/>
     <use style="fill:#0000ff;stroke:#000000;stroke-width:0.5;" x="553.068" xlink:href="#m265a62182e" y="494.002656"/>
     <use style="fill:#0000ff;stroke:#000000;stroke-width:0.5;" x="558.09" xlink:href="#m265a62182e" y="502.2648"/>
     <use style="fill:#0000ff;stroke:#000000;stroke-width:0.5;" x="563.112" xlink:href="#m265a62182e" y="510.663744"/>
     <use style="fill:#0000ff;stroke:#000000;stroke-width:0.5;" x="568.134" xlink:href="#m265a62182e" y="519.200928"/>
     <use style="fill:#0000ff;stroke:#000000;stroke-width:0.5;" x="573.156" xlink:href="#m265a62182e" y="527.878656"/>
     <use style="fill:#0000ff;stroke:#000000;stroke-width:0.5;" x="578.178" xlink:href="#m265a62182e" y="536.69952"/>
    </g>
   </g>
   <g id="line2d_2">
    <defs>
     <path d="M 0 -3 
L -2.85317 -0.927051 
L -1.763356 2.427051 
L 1.763356 2.427051 
L 2.85317 -0.927051 
z
" id="m35853bc1e8" style="stroke:#000000;stroke-linejoin:miter;stroke-width:0.5;"/>
    </defs>
    <g clip-path="url(#p45565f14fe)">
     <use style="fill:#ff0000;stroke:#000000;stroke-linejoin:miter;stroke-width:0.5;" x="81.0" xlink:href="#m35853bc1e8" y="122.4"/>
     <use style="fill:#ff0000;stroke:#000000;stroke-linejoin:miter;stroke-width:0.5;" x="86.022" xlink:href="#m35853bc1e8" y="122.546016"/>
     <use style="fill:#ff0000;stroke:#000000;stroke-linejoin:miter;stroke-width:0.5;" x="91.044" xlink:href="#m35853bc1e8" y="122.808672"/>
     <use style="fill:#ff0000;stroke:#000000;stroke-linejoin:miter;stroke-width:0.5;" x="96.066" xlink:href="#m35853bc1e8" y="123.188256"/>
     <use style="fill:#ff0000;stroke:#000000;stroke-linejoin:miter;stroke-width:0.5;" x="101.088" xlink:href="#m35853bc1e8" y="123.683616"/>
     <use style="fill:#ff0000;stroke:#000000;stroke-linejoin:miter;stroke-width:0.5;" x="106.11" xlink:href="#m35853bc1e8" y="124.294176"/>
     <use style="fill:#ff0000;stroke:#000000;stroke-linejoin:miter;stroke-width:0.5;" x="111.132" xlink:href="#m35853bc1e8" y="125.01936"/>
     <use style="fill:#ff0000;stroke:#000000;stroke-linejoin:miter;stroke-width:0.5;" x="116.154" xlink:href="#m35853bc1e8" y="125.85744"/>
     <use style="fill:#ff0000;stroke:#000000;stroke-linejoin:miter;stroke-width:0.5;" x="121.176" xlink:href="#m35853bc1e8" y="126.807552"/>
     <use style="fill:#ff0000;stroke:#000000;stroke-linejoin:miter;stroke-width:0.5;" x="126.198" xlink:href="#m35853bc1e8" y="127.867968"/>
     <use style="fill:#ff0000;stroke:#000000;stroke-linejoin:miter;stroke-width:0.5;" x="131.22" xlink:href="#m35853bc1e8" y="129.037248"/>
     <use style="fill:#ff0000;stroke:#000000;stroke-linejoin:miter;stroke-width:0.5;" x="136.242" xlink:href="#m35853bc1e8" y="130.313376"/>
     <use style="fill:#ff0000;stroke:#000000;stroke-linejoin:miter;stroke-width:0.5;" x="141.264" xlink:href="#m35853bc1e8" y="131.694336"/>
     <use style="fill:#ff0000;stroke:#000000;stroke-linejoin:miter;stroke-width:0.5;" x="146.286" xlink:href="#m35853bc1e8" y="133.1784"/>
     <use style="fill:#ff0000;stroke:#000000;stroke-linejoin:miter;stroke-width:0.5;" x="151.308" xlink:href="#m35853bc1e8" y="134.762688"/>
     <use style="fill:#ff0000;stroke:#000000;stroke-linejoin:miter;stroke-width:0.5;" x="156.33" xlink:href="#m35853bc1e8" y="136.444608"/>
     <use style="fill:#ff0000;stroke:#000000;stroke-linejoin:miter;stroke-width:0.5;" x="161.352" xlink:href="#m35853bc1e8" y="138.221856"/>
     <use style="fill:#ff0000;stroke:#000000;stroke-linejoin:miter;stroke-width:0.5;" x="166.374" xlink:href="#m35853bc1e8" y="140.091552"/>
     <use style="fill:#ff0000;stroke:#000000;stroke-linejoin:miter;stroke-width:0.5;" x="171.396" xlink:href="#m35853bc1e8" y="142.050528"/>
     <use style="fill:#ff0000;stroke:#000000;stroke-linejoin:miter;stroke-width:0.5;" x="176.418" xlink:href="#m35853bc1e8" y="144.095616"/>
     <use style="fill:#ff0000;stroke:#000000;stroke-linejoin:miter;stroke-width:0.5;" x="181.44" xlink:href="#m35853bc1e8" y="146.223648"/>
     <use style="fill:#ff0000;stroke:#000000;stroke-linejoin:miter;stroke-width:0.5;" x="186.462" xlink:href="#m35853bc1e8" y="148.43088"/>
     <use style="fill:#ff0000;stroke:#000000;stroke-linejoin:miter;stroke-width:0.5;" x="191.484" xlink:href="#m35853bc1e8" y="150.713856"/>
     <use style="fill:#ff0000;stroke:#000000;stroke-linejoin:miter;stroke-width:0.5;" x="196.506" xlink:href="#m35853bc1e8" y="153.068832"/>
     <use style="fill:#ff0000;stroke:#000000;stroke-linejoin:miter;stroke-width:0.5;" x="201.528" xlink:href="#m35853bc1e8" y="155.491776"/>
     <use style="fill:#ff0000;stroke:#000000;stroke-linejoin:miter;stroke-width:0.5;" x="206.55" xlink:href="#m35853bc1e8" y="157.978368"/>
     <use style="fill:#ff0000;stroke:#000000;stroke-linejoin:miter;stroke-width:0.5;" x="211.572" xlink:href="#m35853bc1e8" y="160.525152"/>
     <use style="fill:#ff0000;stroke:#000000;stroke-linejoin:miter;stroke-width:0.5;" x="216.594" xlink:href="#m35853bc1e8" y="163.126944"/>
     <use style="fill:#ff0000;stroke:#000000;stroke-linejoin:miter;stroke-width:0.5;" x="221.616" xlink:href="#m35853bc1e8" y="165.779712"/>
     <use style="fill:#ff0000;stroke:#000000;stroke-linejoin:miter;stroke-width:0.5;" x="226.638" xlink:href="#m35853bc1e8" y="168.478848"/>
     <use style="fill:#ff0000;stroke:#000000;stroke-linejoin:miter;stroke-width:0.5;" x="231.66" xlink:href="#m35853bc1e8" y="171.219456"/>
     <use style="fill:#ff0000;stroke:#000000;stroke-linejoin:miter;stroke-width:0.5;" x="236.682" xlink:href="#m35853bc1e8" y="173.996928"/>
     <use style="fill:#ff0000;stroke:#000000;stroke-linejoin:miter;stroke-width:0.5;" x="241.704" xlink:href="#m35853bc1e8" y="176.80608"/>
     <use style="fill:#ff0000;stroke:#000000;stroke-linejoin:miter;stroke-width:0.5;" x="246.726" xlink:href="#m35853bc1e8" y="179.64144"/>
     <use style="fill:#ff0000;stroke:#000000;stroke-linejoin:miter;stroke-width:0.5;" x="251.748" xlink:href="#m35853bc1e8" y="182.498688"/>
     <use style="fill:#ff0000;stroke:#000000;stroke-linejoin:miter;stroke-width:0.5;" x="256.77" xlink:href="#m35853bc1e8" y="185.371488"/>
     <use style="fill:#ff0000;stroke:#000000;stroke-linejoin:miter;stroke-width:0.5;" x="261.792" xlink:href="#m35853bc1e8" y="188.255232"/>
     <use style="fill:#ff0000;stroke:#000000;stroke-linejoin:miter;stroke-width:0.5;" x="266.814" xlink:href="#m35853bc1e8" y="191.143872"/>
     <use style="fill:#ff0000;stroke:#000000;stroke-linejoin:miter;stroke-width:0.5;" x="271.836" xlink:href="#m35853bc1e8" y="194.031648"/>
     <use style="fill:#ff0000;stroke:#000000;stroke-linejoin:miter;stroke-width:0.5;" x="276.858" xlink:href="#m35853bc1e8" y="196.913088"/>
     <use style="fill:#ff0000;stroke:#000000;stroke-linejoin:miter;stroke-width:0.5;" x="281.88" xlink:href="#m35853bc1e8" y="199.782144"/>
     <use style="fill:#ff0000;stroke:#000000;stroke-linejoin:miter;stroke-width:0.5;" x="286.902" xlink:href="#m35853bc1e8" y="202.633056"/>
     <use style="fill:#ff0000;stroke:#000000;stroke-linejoin:miter;stroke-width:0.5;" x="291.924" xlink:href="#m35853bc1e8" y="205.459488"/>
     <use style="fill:#ff0000;stroke:#000000;stroke-linejoin:miter;stroke-width:0.5;" x="296.946" xlink:href="#m35853bc1e8" y="208.255392"/>
     <use style="fill:#ff0000;stroke:#000000;stroke-linejoin:miter;stroke-width:0.5;" x="301.968" xlink:href="#m35853bc1e8" y="211.014144"/>
     <use style="fill:#ff0000;stroke:#000000;stroke-linejoin:miter;stroke-width:0.5;" x="306.99" xlink:href="#m35853bc1e8" y="213.729984"/>
     <use style="fill:#ff0000;stroke:#000000;stroke-linejoin:miter;stroke-width:0.5;" x="312.012" xlink:href="#m35853bc1e8" y="216.395712"/>
     <use style="fill:#ff0000;stroke:#000000;stroke-linejoin:miter;stroke-width:0.5;" x="317.034" xlink:href="#m35853bc1e8" y="219.00528"/>
     <use style="fill:#ff0000;stroke:#000000;stroke-linejoin:miter;stroke-width:0.5;" x="322.056" xlink:href="#m35853bc1e8" y="221.552064"/>
     <use style="fill:#ff0000;stroke:#000000;stroke-linejoin:miter;stroke-width:0.5;" x="327.078" xlink:href="#m35853bc1e8" y="224.028864"/>
     <use style="fill:#ff0000;stroke:#000000;stroke-linejoin:miter;stroke-width:0.5;" x="332.1" xlink:href="#m35853bc1e8" y="226.429056"/>
     <use style="fill:#ff0000;stroke:#000000;stroke-linejoin:miter;stroke-width:0.5;" x="337.122" xlink:href="#m35853bc1e8" y="228.745728"/>
     <use style="fill:#ff0000;stroke:#000000;stroke-linejoin:miter;stroke-width:0.5;" x="342.144" xlink:href="#m35853bc1e8" y="230.971968"/>
     <use style="fill:#ff0000;stroke:#000000;stroke-linejoin:miter;stroke-width:0.5;" x="347.166" xlink:href="#m35853bc1e8" y="233.100288"/>
     <use style="fill:#ff0000;stroke:#000000;stroke-linejoin:miter;stroke-width:0.5;" x="352.188" xlink:href="#m35853bc1e8" y="235.123776"/>
     <use style="fill:#ff0000;stroke:#000000;stroke-linejoin:miter;stroke-width:0.5;" x="357.21" xlink:href="#m35853bc1e8" y="237.034944"/>
     <use style="fill:#ff0000;stroke:#000000;stroke-linejoin:miter;stroke-width:0.5;" x="362.232" xlink:href="#m35853bc1e8" y="238.826592"/>
     <use style="fill:#ff0000;stroke:#000000;stroke-linejoin:miter;stroke-width:0.5;" x="367.254" xlink:href="#m35853bc1e8" y="240.490944"/>
     <use style="fill:#ff0000;stroke:#000000;stroke-linejoin:miter;stroke-width:0.5;" x="372.276" xlink:href="#m35853bc1e8" y="242.020512"/>
     <use style="fill:#ff0000;stroke:#000000;stroke-linejoin:miter;stroke-width:0.5;" x="377.298" xlink:href="#m35853bc1e8" y="243.40752"/>
     <use style="fill:#ff0000;stroke:#000000;stroke-linejoin:miter;stroke-width:0.5;" x="382.32" xlink:href="#m35853bc1e8" y="244.644192"/>
     <use style="fill:#ff0000;stroke:#000000;stroke-linejoin:miter;stroke-width:0.5;" x="387.342" xlink:href="#m35853bc1e8" y="245.722752"/>
     <use style="fill:#ff0000;stroke:#000000;stroke-linejoin:miter;stroke-width:0.5;" x="392.364" xlink:href="#m35853bc1e8" y="246.635136"/>
     <use style="fill:#ff0000;stroke:#000000;stroke-linejoin:miter;stroke-width:0.5;" x="397.386" xlink:href="#m35853bc1e8" y="247.373568"/>
     <use style="fill:#ff0000;stroke:#000000;stroke-linejoin:miter;stroke-width:0.5;" x="402.408" xlink:href="#m35853bc1e8" y="247.929408"/>
     <use style="fill:#ff0000;stroke:#000000;stroke-linejoin:miter;stroke-width:0.5;" x="407.43" xlink:href="#m35853bc1e8" y="248.294304"/>
     <use style="fill:#ff0000;stroke:#000000;stroke-linejoin:miter;stroke-width:0.5;" x="412.452" xlink:href="#m35853bc1e8" y="248.46048"/>
     <use style="fill:#ff0000;stroke:#000000;stroke-linejoin:miter;stroke-width:0.5;" x="417.474" xlink:href="#m35853bc1e8" y="248.41872"/>
     <use style="fill:#ff0000;stroke:#000000;stroke-linejoin:miter;stroke-width:0.5;" x="422.496" xlink:href="#m35853bc1e8" y="248.160672"/>
     <use style="fill:#ff0000;stroke:#000000;stroke-linejoin:miter;stroke-width:0.5;" x="427.518" xlink:href="#m35853bc1e8" y="247.677696"/>
     <use style="fill:#ff0000;stroke:#000000;stroke-linejoin:miter;stroke-width:0.5;" x="432.54" xlink:href="#m35853bc1e8" y="246.960864"/>
     <use style="fill:#ff0000;stroke:#000000;stroke-linejoin:miter;stroke-width:0.5;" x="437.562" xlink:href="#m35853bc1e8" y="246.00096"/>
     <use style="fill:#ff0000;stroke:#000000;stroke-linejoin:miter;stroke-width:0.5;" x="442.584" xlink:href="#m35853bc1e8" y="244.788768"/>
     <use style="fill:#ff0000;stroke:#000000;stroke-linejoin:miter;stroke-width:0.5;" x="447.606" xlink:href="#m35853bc1e8" y="243.315072"/>
     <use style="fill:#ff0000;stroke:#000000;stroke-linejoin:miter;stroke-width:0.5;" x="452.628" xlink:href="#m35853bc1e8" y="241.570368"/>
     <use style="fill:#ff0000;stroke:#000000;stroke-linejoin:miter;stroke-width:0.5;" x="457.65" xlink:href="#m35853bc1e8" y="239.544864"/>
     <use style="fill:#ff0000;stroke:#000000;stroke-linejoin:miter;stroke-width:0.5;" x="462.672" xlink:href="#m35853bc1e8" y="237.228768"/>
     <use style="fill:#ff0000;stroke:#000000;stroke-linejoin:miter;stroke-width:0.5;" x="467.694" xlink:href="#m35853bc1e8" y="234.611712"/>
     <use style="fill:#ff0000;stroke:#000000;stroke-linejoin:miter;stroke-width:0.5;" x="472.716" xlink:href="#m35853bc1e8" y="231.683616"/>
     <use style="fill:#ff0000;stroke:#000000;stroke-linejoin:miter;stroke-width:0.5;" x="477.738" xlink:href="#m35853bc1e8" y="228.433824"/>
     <use style="fill:#ff0000;stroke:#000000;stroke-linejoin:miter;stroke-width:0.5;" x="482.76" xlink:href="#m35853bc1e8" y="224.851104"/>
     <use style="fill:#ff0000;stroke:#000000;stroke-linejoin:miter;stroke-width:0.5;" x="487.782" xlink:href="#m35853bc1e8" y="220.924512"/>
     <use style="fill:#ff0000;stroke:#000000;stroke-linejoin:miter;stroke-width:0.5;" x="492.804" xlink:href="#m35853bc1e8" y="216.641952"/>
     <use style="fill:#ff0000;stroke:#000000;stroke-linejoin:miter;stroke-width:0.5;" x="497.826" xlink:href="#m35853bc1e8" y="211.991616"/>
     <use style="fill:#ff0000;stroke:#000000;stroke-linejoin:miter;stroke-width:0.5;" x="502.848" xlink:href="#m35853bc1e8" y="206.95968"/>
     <use style="fill:#ff0000;stroke:#000000;stroke-linejoin:miter;stroke-width:0.5;" x="507.87" xlink:href="#m35853bc1e8" y="201.530016"/>
     <use style="fill:#ff0000;stroke:#000000;stroke-linejoin:miter;stroke-width:0.5;" x="512.892" xlink:href="#m35853bc1e8" y="195.684768"/>
     <use style="fill:#ff0000;stroke:#000000;stroke-linejoin:miter;stroke-width:0.5;" x="517.914" xlink:href="#m35853bc1e8" y="189.405504"/>
     <use style="fill:#ff0000;stroke:#000000;stroke-linejoin:miter;stroke-width:0.5;" x="522.936" xlink:href="#m35853bc1e8" y="182.673792"/>
     <use style="fill:#ff0000;stroke:#000000;stroke-linejoin:miter;stroke-width:0.5;" x="527.958" xlink:href="#m35853bc1e8" y="175.470336"/>
     <use style="fill:#ff0000;stroke:#000000;stroke-linejoin:miter;stroke-width:0.5;" x="532.98" xlink:href="#m35853bc1e8" y="167.774976"/>
     <use style="fill:#ff0000;stroke:#000000;stroke-linejoin:miter;stroke-width:0.5;" x="538.002" xlink:href="#m35853bc1e8" y="159.567264"/>
     <use style="fill:#ff0000;stroke:#000000;stroke-linejoin:miter;stroke-width:0.5;" x="543.024" xlink:href="#m35853bc1e8" y="150.826176"/>
     <use style="fill:#ff0000;stroke:#000000;stroke-linejoin:miter;stroke-width:0.5;" x="548.046" xlink:href="#m35853bc1e8" y="141.529536"/>
     <use style="fill:#ff0000;stroke:#000000;stroke-linejoin:miter;stroke-width:0.5;" x="553.068" xlink:href="#m35853bc1e8" y="131.654592"/>
     <use style="fill:#ff0000;stroke:#000000;stroke-linejoin:miter;stroke-width:0.5;" x="558.09" xlink:href="#m35853bc1e8" y="121.17744"/>
     <use style="fill:#ff0000;stroke:#000000;stroke-linejoin:miter;stroke-width:0.5;" x="563.112" xlink:href="#m35853bc1e8" y="110.0736"/>
     <use style="fill:#ff0000;stroke:#000000;stroke-linejoin:miter;stroke-width:0.5;" x="568.134" xlink:href="#m35853bc1e8" y="98.318016"/>
     <use style="fill:#ff0000;stroke:#000000;stroke-linejoin:miter;stroke-width:0.5;" x="573.156" xlink:href="#m35853bc1e8" y="85.883904"/>
     <use style="fill:#ff0000;stroke:#000000;stroke-linejoin:miter;stroke-width:0.5;" x="578.178" xlink:href="#m35853bc1e8" y="72.743904"/>
    </g>
   </g>
   <g id="patch_3">
    <path d="M 81 583.2 
L 81 64.8 
" style="fill:none;stroke:#000000;stroke-linecap:square;stroke-linejoin:miter;"/>
   </g>
   <g id="patch_4">
    <path d="M 81 64.8 
L 583.2 64.8 
" style="fill:none;stroke:#000000;stroke-linecap:square;stroke-linejoin:miter;"/>
   </g>
   <g id="patch_5">
    <path d="M 583.2 583.2 
L 583.2 64.8 
" style="fill:none;stroke:#000000;stroke-linecap:square;stroke-linejoin:miter;"/>
   </g>
   <g id="patch_6">
    <path d="M 81 583.2 
L 583.2 583.2 
" style="fill:none;stroke:#000000;stroke-linecap:square;stroke-linejoin:miter;"/>
   </g>
   <g id="matplotlib.axis_1">
    <g id="xtick_1">
     <g id="line2d_3">
      <path clip-path="url(#p45565f14fe)" d="M 81 583.2 
L 81 64.8 
" style="fill:none;stroke:#000000;stroke-dasharray:1.000000,3.000000;stroke-dashoffset:0.0;stroke-width:0.5;"/>
     </g>
     <g id="line2d_4">
      <defs>
       <path d="M 0 0 
L 0 -4 
" id="m4301f4ce82" style="stroke:#000000;stroke-width:0.5;"/>
      </defs>
      <g>
       <use style="stroke:#000000;stroke-width:0.5;" x="81.0" xlink:href="#m4301f4ce82" y="583.2"/>
      </g>
     </g>
     <g id="line2d_5">
      <defs>
       <path d="M 0 0 
L 0 4 
" id="m29f9d571f4" style="stroke:#000000;stroke-width:0.5;"/>
      </defs>
      <g>
       <use style="stroke:#000000;stroke-width:0.5;" x="81.0" xlink:href="#m29f9d571f4" y="64.8"/>
      </g>
     </g>
     <g id="text_1">
      <!-- 0.0 -->
      <defs>
       <path d="M 10.6875 12.40625 
L 21 12.40625 
L 21 0 
L 10.6875 0 
z
" id="BitstreamVeraSans-Roman-2e"/>
       <path d="M 31.78125 66.40625 
Q 24.171875 66.40625 20.328125 58.90625 
Q 16.5 51.421875 16.5 36.375 
Q 16.5 21.390625 20.328125 13.890625 
Q 24.171875 6.390625 31.78125 6.390625 
Q 39.453125 6.390625 43.28125 13.890625 
Q 47.125 21.390625 47.125 36.375 
Q 47.125 51.421875 43.28125 58.90625 
Q 39.453125 66.40625 31.78125 66.40625 
M 31.78125 74.21875 
Q 44.046875 74.21875 50.515625 64.515625 
Q 56.984375 54.828125 56.984375 36.375 
Q 56.984375 17.96875 50.515625 8.265625 
Q 44.046875 -1.421875 31.78125 -1.421875 
Q 19.53125 -1.421875 13.0625 8.265625 
Q 6.59375 17.96875 6.59375 36.375 
Q 6.59375 54.828125 13.0625 64.515625 
Q 19.53125 74.21875 31.78125 74.21875 
" id="BitstreamVeraSans-Roman-30"/>
      </defs>
      <g transform="translate(71.458125 596.318125)scale(0.12 -0.12)">
       <use xlink:href="#BitstreamVeraSans-Roman-30"/>
       <use x="63.623046875" xlink:href="#BitstreamVeraSans-Roman-2e"/>
       <use x="95.41015625" xlink:href="#BitstreamVeraSans-Roman-30"/>
      </g>
     </g>
    </g>
    <g id="xtick_2">
     <g id="line2d_6">
      <path clip-path="url(#p45565f14fe)" d="M 181.44 583.2 
L 181.44 64.8 
" style="fill:none;stroke:#000000;stroke-dasharray:1.000000,3.000000;stroke-dashoffset:0.0;stroke-width:0.5;"/>
     </g>
     <g id="line2d_7">
      <g>
       <use style="stroke:#000000;stroke-width:0.5;" x="181.44" xlink:href="#m4301f4ce82" y="583.2"/>
      </g>
     </g>
     <g id="line2d_8">
      <g>
       <use style="stroke:#000000;stroke-width:0.5;" x="181.44" xlink:href="#m29f9d571f4" y="64.8"/>
      </g>
     </g>
     <g id="text_2">
      <!-- 0.2 -->
      <defs>
       <path d="M 19.1875 8.296875 
L 53.609375 8.296875 
L 53.609375 0 
L 7.328125 0 
L 7.328125 8.296875 
Q 12.9375 14.109375 22.625 23.890625 
Q 32.328125 33.6875 34.8125 36.53125 
Q 39.546875 41.84375 41.421875 45.53125 
Q 43.3125 49.21875 43.3125 52.78125 
Q 43.3125 58.59375 39.234375 62.25 
Q 35.15625 65.921875 28.609375 65.921875 
Q 23.96875 65.921875 18.8125 64.3125 
Q 13.671875 62.703125 7.8125 59.421875 
L 7.8125 69.390625 
Q 13.765625 71.78125 18.9375 73 
Q 24.125 74.21875 28.421875 74.21875 
Q 39.75 74.21875 46.484375 68.546875 
Q 53.21875 62.890625 53.21875 53.421875 
Q 53.21875 48.921875 51.53125 44.890625 
Q 49.859375 40.875 45.40625 35.40625 
Q 44.1875 33.984375 37.640625 27.21875 
Q 31.109375 20.453125 19.1875 8.296875 
" id="BitstreamVeraSans-Roman-32"/>
      </defs>
      <g transform="translate(171.898125 596.318125)scale(0.12 -0.12)">
       <use xlink:href="#BitstreamVeraSans-Roman-30"/>
       <use x="63.623046875" xlink:href="#BitstreamVeraSans-Roman-2e"/>
       <use x="95.41015625" xlink:href="#BitstreamVeraSans-Roman-32"/>
      </g>
     </g>
    </g>
    <g id="xtick_3">
     <g id="line2d_9">
      <path clip-path="url(#p45565f14fe)" d="M 281.88 583.2 
L 281.88 64.8 
" style="fill:none;stroke:#000000;stroke-dasharray:1.000000,3.000000;stroke-dashoffset:0.0;stroke-width:0.5;"/>
     </g>
     <g id="line2d_10">
      <g>
       <use style="stroke:#000000;stroke-width:0.5;" x="281.88" xlink:href="#m4301f4ce82" y="583.2"/>
      </g>
     </g>
     <g id="line2d_11">
      <g>
       <use style="stroke:#000000;stroke-width:0.5;" x="281.88" xlink:href="#m29f9d571f4" y="64.8"/>
      </g>
     </g>
     <g id="text_3">
      <!-- 0.4 -->
      <defs>
       <path d="M 37.796875 64.3125 
L 12.890625 25.390625 
L 37.796875 25.390625 
z
M 35.203125 72.90625 
L 47.609375 72.90625 
L 47.609375 25.390625 
L 58.015625 25.390625 
L 58.015625 17.1875 
L 47.609375 17.1875 
L 47.609375 0 
L 37.796875 0 
L 37.796875 17.1875 
L 4.890625 17.1875 
L 4.890625 26.703125 
z
" id="BitstreamVeraSans-Roman-34"/>
      </defs>
      <g transform="translate(272.338125 596.318125)scale(0.12 -0.12)">
       <use xlink:href="#BitstreamVeraSans-Roman-30"/>
       <use x="63.623046875" xlink:href="#BitstreamVeraSans-Roman-2e"/>
       <use x="95.41015625" xlink:href="#BitstreamVeraSans-Roman-34"/>
      </g>
     </g>
    </g>
    <g id="xtick_4">
     <g id="line2d_12">
      <path clip-path="url(#p45565f14fe)" d="M 382.32 583.2 
L 382.32 64.8 
" style="fill:none;stroke:#000000;stroke-dasharray:1.000000,3.000000;stroke-dashoffset:0.0;stroke-width:0.5;"/>
     </g>
     <g id="line2d_13">
      <g>
       <use style="stroke:#000000;stroke-width:0.5;" x="382.32" xlink:href="#m4301f4ce82" y="583.2"/>
      </g>
     </g>
     <g id="line2d_14">
      <g>
       <use style="stroke:#000000;stroke-width:0.5;" x="382.32" xlink:href="#m29f9d571f4" y="64.8"/>
      </g>
     </g>
     <g id="text_4">
      <!-- 0.6 -->
      <defs>
       <path d="M 33.015625 40.375 
Q 26.375 40.375 22.484375 35.828125 
Q 18.609375 31.296875 18.609375 23.390625 
Q 18.609375 15.53125 22.484375 10.953125 
Q 26.375 6.390625 33.015625 6.390625 
Q 39.65625 6.390625 43.53125 10.953125 
Q 47.40625 15.53125 47.40625 23.390625 
Q 47.40625 31.296875 43.53125 35.828125 
Q 39.65625 40.375 33.015625 40.375 
M 52.59375 71.296875 
L 52.59375 62.3125 
Q 48.875 64.0625 45.09375 64.984375 
Q 41.3125 65.921875 37.59375 65.921875 
Q 27.828125 65.921875 22.671875 59.328125 
Q 17.53125 52.734375 16.796875 39.40625 
Q 19.671875 43.65625 24.015625 45.921875 
Q 28.375 48.1875 33.59375 48.1875 
Q 44.578125 48.1875 50.953125 41.515625 
Q 57.328125 34.859375 57.328125 23.390625 
Q 57.328125 12.15625 50.6875 5.359375 
Q 44.046875 -1.421875 33.015625 -1.421875 
Q 20.359375 -1.421875 13.671875 8.265625 
Q 6.984375 17.96875 6.984375 36.375 
Q 6.984375 53.65625 15.1875 63.9375 
Q 23.390625 74.21875 37.203125 74.21875 
Q 40.921875 74.21875 44.703125 73.484375 
Q 48.484375 72.75 52.59375 71.296875 
" id="BitstreamVeraSans-Roman-36"/>
      </defs>
      <g transform="translate(372.778125 596.318125)scale(0.12 -0.12)">
       <use xlink:href="#BitstreamVeraSans-Roman-30"/>
       <use x="63.623046875" xlink:href="#BitstreamVeraSans-Roman-2e"/>
       <use x="95.41015625" xlink:href="#BitstreamVeraSans-Roman-36"/>
      </g>
     </g>
    </g>
    <g id="xtick_5">
     <g id="line2d_15">
      <path clip-path="url(#p45565f14fe)" d="M 482.76 583.2 
L 482.76 64.8 
" style="fill:none;stroke:#000000;stroke-dasharray:1.000000,3.000000;stroke-dashoffset:0.0;stroke-width:0.5;"/>
     </g>
     <g id="line2d_16">
      <g>
       <use style="stroke:#000000;stroke-width:0.5;" x="482.76" xlink:href="#m4301f4ce82" y="583.2"/>
      </g>
     </g>
     <g id="line2d_17">
      <g>
       <use style="stroke:#000000;stroke-width:0.5;" x="482.76" xlink:href="#m29f9d571f4" y="64.8"/>
      </g>
     </g>
     <g id="text_5">
      <!-- 0.8 -->
      <defs>
       <path d="M 31.78125 34.625 
Q 24.75 34.625 20.71875 30.859375 
Q 16.703125 27.09375 16.703125 20.515625 
Q 16.703125 13.921875 20.71875 10.15625 
Q 24.75 6.390625 31.78125 6.390625 
Q 38.8125 6.390625 42.859375 10.171875 
Q 46.921875 13.96875 46.921875 20.515625 
Q 46.921875 27.09375 42.890625 30.859375 
Q 38.875 34.625 31.78125 34.625 
M 21.921875 38.8125 
Q 15.578125 40.375 12.03125 44.71875 
Q 8.5 49.078125 8.5 55.328125 
Q 8.5 64.0625 14.71875 69.140625 
Q 20.953125 74.21875 31.78125 74.21875 
Q 42.671875 74.21875 48.875 69.140625 
Q 55.078125 64.0625 55.078125 55.328125 
Q 55.078125 49.078125 51.53125 44.71875 
Q 48 40.375 41.703125 38.8125 
Q 48.828125 37.15625 52.796875 32.3125 
Q 56.78125 27.484375 56.78125 20.515625 
Q 56.78125 9.90625 50.3125 4.234375 
Q 43.84375 -1.421875 31.78125 -1.421875 
Q 19.734375 -1.421875 13.25 4.234375 
Q 6.78125 9.90625 6.78125 20.515625 
Q 6.78125 27.484375 10.78125 32.3125 
Q 14.796875 37.15625 21.921875 38.8125 
M 18.3125 54.390625 
Q 18.3125 48.734375 21.84375 45.5625 
Q 25.390625 42.390625 31.78125 42.390625 
Q 38.140625 42.390625 41.71875 45.5625 
Q 45.3125 48.734375 45.3125 54.390625 
Q 45.3125 60.0625 41.71875 63.234375 
Q 38.140625 66.40625 31.78125 66.40625 
Q 25.390625 66.40625 21.84375 63.234375 
Q 18.3125 60.0625 18.3125 54.390625 
" id="BitstreamVeraSans-Roman-38"/>
      </defs>
      <g transform="translate(473.218125 596.318125)scale(0.12 -0.12)">
       <use xlink:href="#BitstreamVeraSans-Roman-30"/>
       <use x="63.623046875" xlink:href="#BitstreamVeraSans-Roman-2e"/>
       <use x="95.41015625" xlink:href="#BitstreamVeraSans-Roman-38"/>
      </g>
     </g>
    </g>
    <g id="xtick_6">
     <g id="line2d_18">
      <path clip-path="url(#p45565f14fe)" d="M 583.2 583.2 
L 583.2 64.8 
" style="fill:none;stroke:#000000;stroke-dasharray:1.000000,3.000000;stroke-dashoffset:0.0;stroke-width:0.5;"/>
     </g>
     <g id="line2d_19">
      <g>
       <use style="stroke:#000000;stroke-width:0.5;" x="583.2" xlink:href="#m4301f4ce82" y="583.2"/>
      </g>
     </g>
     <g id="line2d_20">
      <g>
       <use style="stroke:#000000;stroke-width:0.5;" x="583.2" xlink:href="#m29f9d571f4" y="64.8"/>
      </g>
     </g>
     <g id="text_6">
      <!-- 1.0 -->
      <defs>
       <path d="M 12.40625 8.296875 
L 28.515625 8.296875 
L 28.515625 63.921875 
L 10.984375 60.40625 
L 10.984375 69.390625 
L 28.421875 72.90625 
L 38.28125 72.90625 
L 38.28125 8.296875 
L 54.390625 8.296875 
L 54.390625 0 
L 12.40625 0 
z
" id="BitstreamVeraSans-Roman-31"/>
      </defs>
      <g transform="translate(573.658125 596.318125)scale(0.12 -0.12)">
       <use xlink:href="#BitstreamVeraSans-Roman-31"/>
       <use x="63.623046875" xlink:href="#BitstreamVeraSans-Roman-2e"/>
       <use x="95.41015625" xlink:href="#BitstreamVeraSans-Roman-30"/>
      </g>
     </g>
    </g>
    <g id="text_7">
     <!-- x -->
     <defs>
      <path d="M 54.890625 54.6875 
L 35.109375 28.078125 
L 55.90625 0 
L 45.3125 0 
L 29.390625 21.484375 
L 13.484375 0 
L 2.875 0 
L 24.125 28.609375 
L 4.6875 54.6875 
L 15.28125 54.6875 
L 29.78125 35.203125 
L 44.28125 54.6875 
z
" id="BitstreamVeraSans-Roman-78"/>
     </defs>
     <g transform="translate(326.773125 617.4909375)scale(0.18 -0.18)">
      <use xlink:href="#BitstreamVeraSans-Roman-78"/>
     </g>
    </g>
   </g>
   <g id="matplotlib.axis_2">
    <g id="ytick_1">
     <g id="line2d_21">
      <path clip-path="url(#p45565f14fe)" d="M 81 554.4 
L 583.2 554.4 
" style="fill:none;stroke:#000000;stroke-dasharray:1.000000,3.000000;stroke-dashoffset:0.0;stroke-width:0.5;"/>
     </g>
     <g id="line2d_22">
      <defs>
       <path d="M 0 0 
L 4 0 
" id="md21ff08aa8" style="stroke:#000000;stroke-width:0.5;"/>
      </defs>
      <g>
       <use style="stroke:#000000;stroke-width:0.5;" x="81.0" xlink:href="#md21ff08aa8" y="554.4"/>
      </g>
     </g>
     <g id="line2d_23">
      <defs>
       <path d="M 0 0 
L -4 0 
" id="m0f1b2013e7" style="stroke:#000000;stroke-width:0.5;"/>
      </defs>
      <g>
       <use style="stroke:#000000;stroke-width:0.5;" x="583.2" xlink:href="#m0f1b2013e7" y="554.4"/>
      </g>
     </g>
     <g id="text_8">
      <!-- −0.5 -->
      <defs>
       <path d="M 10.796875 72.90625 
L 49.515625 72.90625 
L 49.515625 64.59375 
L 19.828125 64.59375 
L 19.828125 46.734375 
Q 21.96875 47.46875 24.109375 47.828125 
Q 26.265625 48.1875 28.421875 48.1875 
Q 40.625 48.1875 47.75 41.5 
Q 54.890625 34.8125 54.890625 23.390625 
Q 54.890625 11.625 47.5625 5.09375 
Q 40.234375 -1.421875 26.90625 -1.421875 
Q 22.3125 -1.421875 17.546875 -0.640625 
Q 12.796875 0.140625 7.71875 1.703125 
L 7.71875 11.625 
Q 12.109375 9.234375 16.796875 8.0625 
Q 21.484375 6.890625 26.703125 6.890625 
Q 35.15625 6.890625 40.078125 11.328125 
Q 45.015625 15.765625 45.015625 23.390625 
Q 45.015625 31 40.078125 35.4375 
Q 35.15625 39.890625 26.703125 39.890625 
Q 22.75 39.890625 18.8125 39.015625 
Q 14.890625 38.140625 10.796875 36.28125 
z
" id="BitstreamVeraSans-Roman-35"/>
       <path d="M 10.59375 35.5 
L 73.1875 35.5 
L 73.1875 27.203125 
L 10.59375 27.203125 
z
" id="BitstreamVeraSans-Roman-2212"/>
      </defs>
      <g transform="translate(47.860625 557.71125)scale(0.12 -0.12)">
       <use xlink:href="#BitstreamVeraSans-Roman-2212"/>
       <use x="83.7890625" xlink:href="#BitstreamVeraSans-Roman-30"/>
       <use x="147.412109375" xlink:href="#BitstreamVeraSans-Roman-2e"/>
       <use x="179.19921875" xlink:href="#BitstreamVeraSans-Roman-35"/>
      </g>
     </g>
    </g>
    <g id="ytick_2">
     <g id="line2d_24">
      <path clip-path="url(#p45565f14fe)" d="M 81 410.4 
L 583.2 410.4 
" style="fill:none;stroke:#000000;stroke-dasharray:1.000000,3.000000;stroke-dashoffset:0.0;stroke-width:0.5;"/>
     </g>
     <g id="line2d_25">
      <g>
       <use style="stroke:#000000;stroke-width:0.5;" x="81.0" xlink:href="#md21ff08aa8" y="410.4"/>
      </g>
     </g>
     <g id="line2d_26">
      <g>
       <use style="stroke:#000000;stroke-width:0.5;" x="583.2" xlink:href="#m0f1b2013e7" y="410.4"/>
      </g>
     </g>
     <g id="text_9">
      <!-- 0.0 -->
      <g transform="translate(57.91625 413.71125)scale(0.12 -0.12)">
       <use xlink:href="#BitstreamVeraSans-Roman-30"/>
       <use x="63.623046875" xlink:href="#BitstreamVeraSans-Roman-2e"/>
       <use x="95.41015625" xlink:href="#BitstreamVeraSans-Roman-30"/>
      </g>
     </g>
    </g>
    <g id="ytick_3">
     <g id="line2d_27">
      <path clip-path="url(#p45565f14fe)" d="M 81 266.4 
L 583.2 266.4 
" style="fill:none;stroke:#000000;stroke-dasharray:1.000000,3.000000;stroke-dashoffset:0.0;stroke-width:0.5;"/>
     </g>
     <g id="line2d_28">
      <g>
       <use style="stroke:#000000;stroke-width:0.5;" x="81.0" xlink:href="#md21ff08aa8" y="266.4"/>
      </g>
     </g>
     <g id="line2d_29">
      <g>
       <use style="stroke:#000000;stroke-width:0.5;" x="583.2" xlink:href="#m0f1b2013e7" y="266.4"/>
      </g>
     </g>
     <g id="text_10">
      <!-- 0.5 -->
      <g transform="translate(57.91625 269.71125)scale(0.12 -0.12)">
       <use xlink:href="#BitstreamVeraSans-Roman-30"/>
       <use x="63.623046875" xlink:href="#BitstreamVeraSans-Roman-2e"/>
       <use x="95.41015625" xlink:href="#BitstreamVeraSans-Roman-35"/>
      </g>
     </g>
    </g>
    <g id="ytick_4">
     <g id="line2d_30">
      <path clip-path="url(#p45565f14fe)" d="M 81 122.4 
L 583.2 122.4 
" style="fill:none;stroke:#000000;stroke-dasharray:1.000000,3.000000;stroke-dashoffset:0.0;stroke-width:0.5;"/>
     </g>
     <g id="line2d_31">
      <g>
       <use style="stroke:#000000;stroke-width:0.5;" x="81.0" xlink:href="#md21ff08aa8" y="122.4"/>
      </g>
     </g>
     <g id="line2d_32">
      <g>
       <use style="stroke:#000000;stroke-width:0.5;" x="583.2" xlink:href="#m0f1b2013e7" y="122.4"/>
      </g>
     </g>
     <g id="text_11">
      <!-- 1.0 -->
      <g transform="translate(57.91625 125.71125)scale(0.12 -0.12)">
       <use xlink:href="#BitstreamVeraSans-Roman-31"/>
       <use x="63.623046875" xlink:href="#BitstreamVeraSans-Roman-2e"/>
       <use x="95.41015625" xlink:href="#BitstreamVeraSans-Roman-30"/>
      </g>
     </g>
    </g>
    <g id="text_12">
     <!-- y -->
     <defs>
      <path d="M 32.171875 -5.078125 
Q 28.375 -14.84375 24.75 -17.8125 
Q 21.140625 -20.796875 15.09375 -20.796875 
L 7.90625 -20.796875 
L 7.90625 -13.28125 
L 13.1875 -13.28125 
Q 16.890625 -13.28125 18.9375 -11.515625 
Q 21 -9.765625 23.484375 -3.21875 
L 25.09375 0.875 
L 2.984375 54.6875 
L 12.5 54.6875 
L 29.59375 11.921875 
L 46.6875 54.6875 
L 56.203125 54.6875 
z
" id="BitstreamVeraSans-Roman-79"/>
     </defs>
     <g transform="translate(39.1171875 329.326875)rotate(-90.0)scale(0.18 -0.18)">
      <use xlink:href="#BitstreamVeraSans-Roman-79"/>
     </g>
    </g>
   </g>
   <g id="text_13">
    <!-- Data -->
    <defs>
     <path d="M 34.28125 27.484375 
Q 23.390625 27.484375 19.1875 25 
Q 14.984375 22.515625 14.984375 16.5 
Q 14.984375 11.71875 18.140625 8.90625 
Q 21.296875 6.109375 26.703125 6.109375 
Q 34.1875 6.109375 38.703125 11.40625 
Q 43.21875 16.703125 43.21875 25.484375 
L 43.21875 27.484375 
z
M 52.203125 31.203125 
L 52.203125 0 
L 43.21875 0 
L 43.21875 8.296875 
Q 40.140625 3.328125 35.546875 0.953125 
Q 30.953125 -1.421875 24.3125 -1.421875 
Q 15.921875 -1.421875 10.953125 3.296875 
Q 6 8.015625 6 15.921875 
Q 6 25.140625 12.171875 29.828125 
Q 18.359375 34.515625 30.609375 34.515625 
L 43.21875 34.515625 
L 43.21875 35.40625 
Q 43.21875 41.609375 39.140625 45 
Q 35.0625 48.390625 27.6875 48.390625 
Q 23 48.390625 18.546875 47.265625 
Q 14.109375 46.140625 10.015625 43.890625 
L 10.015625 52.203125 
Q 14.9375 54.109375 19.578125 55.046875 
Q 24.21875 56 28.609375 56 
Q 40.484375 56 46.34375 49.84375 
Q 52.203125 43.703125 52.203125 31.203125 
" id="BitstreamVeraSans-Roman-61"/>
     <path d="M 18.3125 70.21875 
L 18.3125 54.6875 
L 36.8125 54.6875 
L 36.8125 47.703125 
L 18.3125 47.703125 
L 18.3125 18.015625 
Q 18.3125 11.328125 20.140625 9.421875 
Q 21.96875 7.515625 27.59375 7.515625 
L 36.8125 7.515625 
L 36.8125 0 
L 27.59375 0 
Q 17.1875 0 13.234375 3.875 
Q 9.28125 7.765625 9.28125 18.015625 
L 9.28125 47.703125 
L 2.6875 47.703125 
L 2.6875 54.6875 
L 9.28125 54.6875 
L 9.28125 70.21875 
z
" id="BitstreamVeraSans-Roman-74"/>
     <path d="M 19.671875 64.796875 
L 19.671875 8.109375 
L 31.59375 8.109375 
Q 46.6875 8.109375 53.6875 14.9375 
Q 60.6875 21.78125 60.6875 36.53125 
Q 60.6875 51.171875 53.6875 57.984375 
Q 46.6875 64.796875 31.59375 64.796875 
z
M 9.8125 72.90625 
L 30.078125 72.90625 
Q 51.265625 72.90625 61.171875 64.09375 
Q 71.09375 55.28125 71.09375 36.53125 
Q 71.09375 17.671875 61.125 8.828125 
Q 51.171875 0 30.078125 0 
L 9.8125 0 
z
" id="BitstreamVeraSans-Roman-44"/>
    </defs>
    <g transform="translate(305.83578125 59.8)scale(0.22 -0.22)">
     <use xlink:href="#BitstreamVeraSans-Roman-44"/>
     <use x="77.001953125" xlink:href="#BitstreamVeraSans-Roman-61"/>
     <use x="138.28125" xlink:href="#BitstreamVeraSans-Roman-74"/>
     <use x="177.490234375" xlink:href="#BitstreamVeraSans-Roman-61"/>
    </g>
   </g>
   <g id="legend_1">
    <g id="patch_7">
     <path d="M 88.2 118.593 
L 181.638 118.593 
L 181.638 72 
L 88.2 72 
z
" style="fill:#ffffff;stroke:#000000;stroke-linejoin:miter;"/>
    </g>
    <g id="line2d_33"/>
    <g id="line2d_34">
     <g>
      <use style="fill:#0000ff;stroke:#000000;stroke-width:0.5;" x="98.28" xlink:href="#m265a62182e" y="83.66175"/>
      <use style="fill:#0000ff;stroke:#000000;stroke-width:0.5;" x="118.44" xlink:href="#m265a62182e" y="83.66175"/>
     </g>
    </g>
    <g id="text_14">
     <!-- data1 -->
     <defs>
      <path d="M 45.40625 46.390625 
L 45.40625 75.984375 
L 54.390625 75.984375 
L 54.390625 0 
L 45.40625 0 
L 45.40625 8.203125 
Q 42.578125 3.328125 38.25 0.953125 
Q 33.9375 -1.421875 27.875 -1.421875 
Q 17.96875 -1.421875 11.734375 6.484375 
Q 5.515625 14.40625 5.515625 27.296875 
Q 5.515625 40.1875 11.734375 48.09375 
Q 17.96875 56 27.875 56 
Q 33.9375 56 38.25 53.625 
Q 42.578125 51.265625 45.40625 46.390625 
M 14.796875 27.296875 
Q 14.796875 17.390625 18.875 11.75 
Q 22.953125 6.109375 30.078125 6.109375 
Q 37.203125 6.109375 41.296875 11.75 
Q 45.40625 17.390625 45.40625 27.296875 
Q 45.40625 37.203125 41.296875 42.84375 
Q 37.203125 48.484375 30.078125 48.484375 
Q 22.953125 48.484375 18.875 42.84375 
Q 14.796875 37.203125 14.796875 27.296875 
" id="BitstreamVeraSans-Roman-64"/>
     </defs>
     <g transform="translate(134.28 88.70175)scale(0.144 -0.144)">
      <use xlink:href="#BitstreamVeraSans-Roman-64"/>
      <use x="63.4765625" xlink:href="#BitstreamVeraSans-Roman-61"/>
      <use x="124.755859375" xlink:href="#BitstreamVeraSans-Roman-74"/>
      <use x="163.96484375" xlink:href="#BitstreamVeraSans-Roman-61"/>
      <use x="225.244140625" xlink:href="#BitstreamVeraSans-Roman-31"/>
     </g>
    </g>
    <g id="line2d_35"/>
    <g id="line2d_36">
     <g>
      <use style="fill:#ff0000;stroke:#000000;stroke-linejoin:miter;stroke-width:0.5;" x="98.28" xlink:href="#m35853bc1e8" y="104.79825"/>
      <use style="fill:#ff0000;stroke:#000000;stroke-linejoin:miter;stroke-width:0.5;" x="118.44" xlink:href="#m35853bc1e8" y="104.79825"/>
     </g>
    </g>
    <g id="text_15">
     <!-- data2 -->
     <g transform="translate(134.28 109.83825)scale(0.144 -0.144)">
      <use xlink:href="#BitstreamVeraSans-Roman-64"/>
      <use x="63.4765625" xlink:href="#BitstreamVeraSans-Roman-61"/>
      <use x="124.755859375" xlink:href="#BitstreamVeraSans-Roman-74"/>
      <use x="163.96484375" xlink:href="#BitstreamVeraSans-Roman-61"/>
      <use x="225.244140625" xlink:href="#BitstreamVeraSans-Roman-32"/>
     </g>
    </g>
   </g>
  </g>
 </g>
 <defs>
  <clipPath id="p45565f14fe">
   <rect height="518.4" width="502.2" x="81.0" y="64.8"/>
  </clipPath>
 </defs>
</svg>
