<?xml version="1.0" encoding="utf-8" standalone="no"?>
<!DOCTYPE svg PUBLIC "-//W3C//DTD SVG 1.1//EN"
  "http://www.w3.org/Graphics/SVG/1.1/DTD/svg11.dtd">
<!-- Created with matplotlib (http://matplotlib.org/) -->
<svg height="648pt" version="1.1" viewBox="0 0 648 648" width="648pt" xmlns="http://www.w3.org/2000/svg" xmlns:xlink="http://www.w3.org/1999/xlink">
 <defs>
  <style type="text/css">
*{stroke-linecap:butt;stroke-linejoin:round;}
  </style>
 </defs>
 <g id="figure_1">
  <g id="patch_1">
   <path d="M 0 648 
L 648 648 
L 648 0 
L 0 0 
z
" style="fill:#ffffff;"/>
  </g>
  <g id="axes_1">
   <g id="patch_2">
    <path d="M 81 576.72 
L 583.2 576.72 
L 583.2 77.76 
L 81 77.76 
z
" style="fill:#ffffff;"/>
   </g>
   <g id="matplotlib.axis_1">
    <g id="xtick_1">
     <g id="line2d_1">
      <path clip-path="url(#p23825b7e48)" d="M 103.827273 576.72 
L 103.827273 77.76 
" style="fill:none;stroke:#b0b0b0;stroke-linecap:square;stroke-width:0.8;"/>
     </g>
     <g id="line2d_2">
      <defs>
       <path d="M 0 0 
L 0 3.5 
" id="mf8a4e78ec1" style="stroke:#000000;stroke-width:0.8;"/>
      </defs>
      <g>
       <use style="stroke:#000000;stroke-width:0.8;" x="103.827273" xlink:href="#mf8a4e78ec1" y="576.72"/>
      </g>
     </g>
     <g id="text_1">
      <!-- 0 -->
      <defs>
       <path d="M 31.78125 66.40625 
Q 24.171875 66.40625 20.328125 58.90625 
Q 16.5 51.421875 16.5 36.375 
Q 16.5 21.390625 20.328125 13.890625 
Q 24.171875 6.390625 31.78125 6.390625 
Q 39.453125 6.390625 43.28125 13.890625 
Q 47.125 21.390625 47.125 36.375 
Q 47.125 51.421875 43.28125 58.90625 
Q 39.453125 66.40625 31.78125 66.40625 
z
M 31.78125 74.21875 
Q 44.046875 74.21875 50.515625 64.515625 
Q 56.984375 54.828125 56.984375 36.375 
Q 56.984375 17.96875 50.515625 8.265625 
Q 44.046875 -1.421875 31.78125 -1.421875 
Q 19.53125 -1.421875 13.0625 8.265625 
Q 6.59375 17.96875 6.59375 36.375 
Q 6.59375 54.828125 13.0625 64.515625 
Q 19.53125 74.21875 31.78125 74.21875 
z
" id="DejaVuSans-30"/>
      </defs>
      <g transform="translate(100.646023 591.318438)scale(0.1 -0.1)">
       <use xlink:href="#DejaVuSans-30"/>
      </g>
     </g>
    </g>
    <g id="xtick_2">
     <g id="line2d_3">
      <path clip-path="url(#p23825b7e48)" d="M 179.918182 576.72 
L 179.918182 77.76 
" style="fill:none;stroke:#b0b0b0;stroke-linecap:square;stroke-width:0.8;"/>
     </g>
     <g id="line2d_4">
      <g>
       <use style="stroke:#000000;stroke-width:0.8;" x="179.918182" xlink:href="#mf8a4e78ec1" y="576.72"/>
      </g>
     </g>
     <g id="text_2">
      <!-- 20 -->
      <defs>
       <path d="M 19.1875 8.296875 
L 53.609375 8.296875 
L 53.609375 0 
L 7.328125 0 
L 7.328125 8.296875 
Q 12.9375 14.109375 22.625 23.890625 
Q 32.328125 33.6875 34.8125 36.53125 
Q 39.546875 41.84375 41.421875 45.53125 
Q 43.3125 49.21875 43.3125 52.78125 
Q 43.3125 58.59375 39.234375 62.25 
Q 35.15625 65.921875 28.609375 65.921875 
Q 23.96875 65.921875 18.8125 64.3125 
Q 13.671875 62.703125 7.8125 59.421875 
L 7.8125 69.390625 
Q 13.765625 71.78125 18.9375 73 
Q 24.125 74.21875 28.421875 74.21875 
Q 39.75 74.21875 46.484375 68.546875 
Q 53.21875 62.890625 53.21875 53.421875 
Q 53.21875 48.921875 51.53125 44.890625 
Q 49.859375 40.875 45.40625 35.40625 
Q 44.1875 33.984375 37.640625 27.21875 
Q 31.109375 20.453125 19.1875 8.296875 
z
" id="DejaVuSans-32"/>
      </defs>
      <g transform="translate(173.555682 591.318438)scale(0.1 -0.1)">
       <use xlink:href="#DejaVuSans-32"/>
       <use x="63.623047" xlink:href="#DejaVuSans-30"/>
      </g>
     </g>
    </g>
    <g id="xtick_3">
     <g id="line2d_5">
      <path clip-path="url(#p23825b7e48)" d="M 256.009091 576.72 
L 256.009091 77.76 
" style="fill:none;stroke:#b0b0b0;stroke-linecap:square;stroke-width:0.8;"/>
     </g>
     <g id="line2d_6">
      <g>
       <use style="stroke:#000000;stroke-width:0.8;" x="256.009091" xlink:href="#mf8a4e78ec1" y="576.72"/>
      </g>
     </g>
     <g id="text_3">
      <!-- 40 -->
      <defs>
       <path d="M 37.796875 64.3125 
L 12.890625 25.390625 
L 37.796875 25.390625 
z
M 35.203125 72.90625 
L 47.609375 72.90625 
L 47.609375 25.390625 
L 58.015625 25.390625 
L 58.015625 17.1875 
L 47.609375 17.1875 
L 47.609375 0 
L 37.796875 0 
L 37.796875 17.1875 
L 4.890625 17.1875 
L 4.890625 26.703125 
z
" id="DejaVuSans-34"/>
      </defs>
      <g transform="translate(249.646591 591.318438)scale(0.1 -0.1)">
       <use xlink:href="#DejaVuSans-34"/>
       <use x="63.623047" xlink:href="#DejaVuSans-30"/>
      </g>
     </g>
    </g>
    <g id="xtick_4">
     <g id="line2d_7">
      <path clip-path="url(#p23825b7e48)" d="M 332.1 576.72 
L 332.1 77.76 
" style="fill:none;stroke:#b0b0b0;stroke-linecap:square;stroke-width:0.8;"/>
     </g>
     <g id="line2d_8">
      <g>
       <use style="stroke:#000000;stroke-width:0.8;" x="332.1" xlink:href="#mf8a4e78ec1" y="576.72"/>
      </g>
     </g>
     <g id="text_4">
      <!-- 60 -->
      <defs>
       <path d="M 33.015625 40.375 
Q 26.375 40.375 22.484375 35.828125 
Q 18.609375 31.296875 18.609375 23.390625 
Q 18.609375 15.53125 22.484375 10.953125 
Q 26.375 6.390625 33.015625 6.390625 
Q 39.65625 6.390625 43.53125 10.953125 
Q 47.40625 15.53125 47.40625 23.390625 
Q 47.40625 31.296875 43.53125 35.828125 
Q 39.65625 40.375 33.015625 40.375 
z
M 52.59375 71.296875 
L 52.59375 62.3125 
Q 48.875 64.0625 45.09375 64.984375 
Q 41.3125 65.921875 37.59375 65.921875 
Q 27.828125 65.921875 22.671875 59.328125 
Q 17.53125 52.734375 16.796875 39.40625 
Q 19.671875 43.65625 24.015625 45.921875 
Q 28.375 48.1875 33.59375 48.1875 
Q 44.578125 48.1875 50.953125 41.515625 
Q 57.328125 34.859375 57.328125 23.390625 
Q 57.328125 12.15625 50.6875 5.359375 
Q 44.046875 -1.421875 33.015625 -1.421875 
Q 20.359375 -1.421875 13.671875 8.265625 
Q 6.984375 17.96875 6.984375 36.375 
Q 6.984375 53.65625 15.1875 63.9375 
Q 23.390625 74.21875 37.203125 74.21875 
Q 40.921875 74.21875 44.703125 73.484375 
Q 48.484375 72.75 52.59375 71.296875 
z
" id="DejaVuSans-36"/>
      </defs>
      <g transform="translate(325.7375 591.318438)scale(0.1 -0.1)">
       <use xlink:href="#DejaVuSans-36"/>
       <use x="63.623047" xlink:href="#DejaVuSans-30"/>
      </g>
     </g>
    </g>
    <g id="xtick_5">
     <g id="line2d_9">
      <path clip-path="url(#p23825b7e48)" d="M 408.190909 576.72 
L 408.190909 77.76 
" style="fill:none;stroke:#b0b0b0;stroke-linecap:square;stroke-width:0.8;"/>
     </g>
     <g id="line2d_10">
      <g>
       <use style="stroke:#000000;stroke-width:0.8;" x="408.190909" xlink:href="#mf8a4e78ec1" y="576.72"/>
      </g>
     </g>
     <g id="text_5">
      <!-- 80 -->
      <defs>
       <path d="M 31.78125 34.625 
Q 24.75 34.625 20.71875 30.859375 
Q 16.703125 27.09375 16.703125 20.515625 
Q 16.703125 13.921875 20.71875 10.15625 
Q 24.75 6.390625 31.78125 6.390625 
Q 38.8125 6.390625 42.859375 10.171875 
Q 46.921875 13.96875 46.921875 20.515625 
Q 46.921875 27.09375 42.890625 30.859375 
Q 38.875 34.625 31.78125 34.625 
z
M 21.921875 38.8125 
Q 15.578125 40.375 12.03125 44.71875 
Q 8.5 49.078125 8.5 55.328125 
Q 8.5 64.0625 14.71875 69.140625 
Q 20.953125 74.21875 31.78125 74.21875 
Q 42.671875 74.21875 48.875 69.140625 
Q 55.078125 64.0625 55.078125 55.328125 
Q 55.078125 49.078125 51.53125 44.71875 
Q 48 40.375 41.703125 38.8125 
Q 48.828125 37.15625 52.796875 32.3125 
Q 56.78125 27.484375 56.78125 20.515625 
Q 56.78125 9.90625 50.3125 4.234375 
Q 43.84375 -1.421875 31.78125 -1.421875 
Q 19.734375 -1.421875 13.25 4.234375 
Q 6.78125 9.90625 6.78125 20.515625 
Q 6.78125 27.484375 10.78125 32.3125 
Q 14.796875 37.15625 21.921875 38.8125 
z
M 18.3125 54.390625 
Q 18.3125 48.734375 21.84375 45.5625 
Q 25.390625 42.390625 31.78125 42.390625 
Q 38.140625 42.390625 41.71875 45.5625 
Q 45.3125 48.734375 45.3125 54.390625 
Q 45.3125 60.0625 41.71875 63.234375 
Q 38.140625 66.40625 31.78125 66.40625 
Q 25.390625 66.40625 21.84375 63.234375 
Q 18.3125 60.0625 18.3125 54.390625 
z
" id="DejaVuSans-38"/>
      </defs>
      <g transform="translate(401.828409 591.318438)scale(0.1 -0.1)">
       <use xlink:href="#DejaVuSans-38"/>
       <use x="63.623047" xlink:href="#DejaVuSans-30"/>
      </g>
     </g>
    </g>
    <g id="xtick_6">
     <g id="line2d_11">
      <path clip-path="url(#p23825b7e48)" d="M 484.281818 576.72 
L 484.281818 77.76 
" style="fill:none;stroke:#b0b0b0;stroke-linecap:square;stroke-width:0.8;"/>
     </g>
     <g id="line2d_12">
      <g>
       <use style="stroke:#000000;stroke-width:0.8;" x="484.281818" xlink:href="#mf8a4e78ec1" y="576.72"/>
      </g>
     </g>
     <g id="text_6">
      <!-- 100 -->
      <defs>
       <path d="M 12.40625 8.296875 
L 28.515625 8.296875 
L 28.515625 63.921875 
L 10.984375 60.40625 
L 10.984375 69.390625 
L 28.421875 72.90625 
L 38.28125 72.90625 
L 38.28125 8.296875 
L 54.390625 8.296875 
L 54.390625 0 
L 12.40625 0 
z
" id="DejaVuSans-31"/>
      </defs>
      <g transform="translate(474.738068 591.318438)scale(0.1 -0.1)">
       <use xlink:href="#DejaVuSans-31"/>
       <use x="63.623047" xlink:href="#DejaVuSans-30"/>
       <use x="127.246094" xlink:href="#DejaVuSans-30"/>
      </g>
     </g>
    </g>
    <g id="xtick_7">
     <g id="line2d_13">
      <path clip-path="url(#p23825b7e48)" d="M 560.372727 576.72 
L 560.372727 77.76 
" style="fill:none;stroke:#b0b0b0;stroke-linecap:square;stroke-width:0.8;"/>
     </g>
     <g id="line2d_14">
      <g>
       <use style="stroke:#000000;stroke-width:0.8;" x="560.372727" xlink:href="#mf8a4e78ec1" y="576.72"/>
      </g>
     </g>
     <g id="text_7">
      <!-- 120 -->
      <g transform="translate(550.828977 591.318438)scale(0.1 -0.1)">
       <use xlink:href="#DejaVuSans-31"/>
       <use x="63.623047" xlink:href="#DejaVuSans-32"/>
       <use x="127.246094" xlink:href="#DejaVuSans-30"/>
      </g>
     </g>
    </g>
    <g id="text_8">
     <!-- x -->
     <defs>
      <path d="M 54.890625 54.6875 
L 35.109375 28.078125 
L 55.90625 0 
L 45.3125 0 
L 29.390625 21.484375 
L 13.484375 0 
L 2.875 0 
L 24.125 28.609375 
L 4.6875 54.6875 
L 15.28125 54.6875 
L 29.78125 35.203125 
L 44.28125 54.6875 
z
" id="DejaVuSans-78"/>
     </defs>
     <g transform="translate(326.773125 611.075312)scale(0.18 -0.18)">
      <use xlink:href="#DejaVuSans-78"/>
     </g>
    </g>
   </g>
   <g id="matplotlib.axis_2">
    <g id="ytick_1">
     <g id="line2d_15">
      <path clip-path="url(#p23825b7e48)" d="M 81 564.75504 
L 583.2 564.75504 
" style="fill:none;stroke:#b0b0b0;stroke-linecap:square;stroke-width:0.8;"/>
     </g>
     <g id="line2d_16">
      <defs>
       <path d="M 0 0 
L -3.5 0 
" id="m00f1fc6ca2" style="stroke:#000000;stroke-width:0.8;"/>
      </defs>
      <g>
       <use style="stroke:#000000;stroke-width:0.8;" x="81" xlink:href="#m00f1fc6ca2" y="564.75504"/>
      </g>
     </g>
     <g id="text_9">
      <!-- 20.5 -->
      <defs>
       <path d="M 10.6875 12.40625 
L 21 12.40625 
L 21 0 
L 10.6875 0 
z
" id="DejaVuSans-2e"/>
       <path d="M 10.796875 72.90625 
L 49.515625 72.90625 
L 49.515625 64.59375 
L 19.828125 64.59375 
L 19.828125 46.734375 
Q 21.96875 47.46875 24.109375 47.828125 
Q 26.265625 48.1875 28.421875 48.1875 
Q 40.625 48.1875 47.75 41.5 
Q 54.890625 34.8125 54.890625 23.390625 
Q 54.890625 11.625 47.5625 5.09375 
Q 40.234375 -1.421875 26.90625 -1.421875 
Q 22.3125 -1.421875 17.546875 -0.640625 
Q 12.796875 0.140625 7.71875 1.703125 
L 7.71875 11.625 
Q 12.109375 9.234375 16.796875 8.0625 
Q 21.484375 6.890625 26.703125 6.890625 
Q 35.15625 6.890625 40.078125 11.328125 
Q 45.015625 15.765625 45.015625 23.390625 
Q 45.015625 31 40.078125 35.4375 
Q 35.15625 39.890625 26.703125 39.890625 
Q 22.75 39.890625 18.8125 39.015625 
Q 14.890625 38.140625 10.796875 36.28125 
z
" id="DejaVuSans-35"/>
      </defs>
      <g transform="translate(51.734375 568.554259)scale(0.1 -0.1)">
       <use xlink:href="#DejaVuSans-32"/>
       <use x="63.623047" xlink:href="#DejaVuSans-30"/>
       <use x="127.246094" xlink:href="#DejaVuSans-2e"/>
       <use x="159.033203" xlink:href="#DejaVuSans-35"/>
      </g>
     </g>
    </g>
    <g id="ytick_2">
     <g id="line2d_17">
      <path clip-path="url(#p23825b7e48)" d="M 81 490.757168 
L 583.2 490.757168 
" style="fill:none;stroke:#b0b0b0;stroke-linecap:square;stroke-width:0.8;"/>
     </g>
     <g id="line2d_18">
      <g>
       <use style="stroke:#000000;stroke-width:0.8;" x="81" xlink:href="#m00f1fc6ca2" y="490.757168"/>
      </g>
     </g>
     <g id="text_10">
      <!-- 21.0 -->
      <g transform="translate(51.734375 494.556387)scale(0.1 -0.1)">
       <use xlink:href="#DejaVuSans-32"/>
       <use x="63.623047" xlink:href="#DejaVuSans-31"/>
       <use x="127.246094" xlink:href="#DejaVuSans-2e"/>
       <use x="159.033203" xlink:href="#DejaVuSans-30"/>
      </g>
     </g>
    </g>
    <g id="ytick_3">
     <g id="line2d_19">
      <path clip-path="url(#p23825b7e48)" d="M 81 416.759296 
L 583.2 416.759296 
" style="fill:none;stroke:#b0b0b0;stroke-linecap:square;stroke-width:0.8;"/>
     </g>
     <g id="line2d_20">
      <g>
       <use style="stroke:#000000;stroke-width:0.8;" x="81" xlink:href="#m00f1fc6ca2" y="416.759296"/>
      </g>
     </g>
     <g id="text_11">
      <!-- 21.5 -->
      <g transform="translate(51.734375 420.558514)scale(0.1 -0.1)">
       <use xlink:href="#DejaVuSans-32"/>
       <use x="63.623047" xlink:href="#DejaVuSans-31"/>
       <use x="127.246094" xlink:href="#DejaVuSans-2e"/>
       <use x="159.033203" xlink:href="#DejaVuSans-35"/>
      </g>
     </g>
    </g>
    <g id="ytick_4">
     <g id="line2d_21">
      <path clip-path="url(#p23825b7e48)" d="M 81 342.761424 
L 583.2 342.761424 
" style="fill:none;stroke:#b0b0b0;stroke-linecap:square;stroke-width:0.8;"/>
     </g>
     <g id="line2d_22">
      <g>
       <use style="stroke:#000000;stroke-width:0.8;" x="81" xlink:href="#m00f1fc6ca2" y="342.761424"/>
      </g>
     </g>
     <g id="text_12">
      <!-- 22.0 -->
      <g transform="translate(51.734375 346.560642)scale(0.1 -0.1)">
       <use xlink:href="#DejaVuSans-32"/>
       <use x="63.623047" xlink:href="#DejaVuSans-32"/>
       <use x="127.246094" xlink:href="#DejaVuSans-2e"/>
       <use x="159.033203" xlink:href="#DejaVuSans-30"/>
      </g>
     </g>
    </g>
    <g id="ytick_5">
     <g id="line2d_23">
      <path clip-path="url(#p23825b7e48)" d="M 81 268.763552 
L 583.2 268.763552 
" style="fill:none;stroke:#b0b0b0;stroke-linecap:square;stroke-width:0.8;"/>
     </g>
     <g id="line2d_24">
      <g>
       <use style="stroke:#000000;stroke-width:0.8;" x="81" xlink:href="#m00f1fc6ca2" y="268.763552"/>
      </g>
     </g>
     <g id="text_13">
      <!-- 22.5 -->
      <g transform="translate(51.734375 272.56277)scale(0.1 -0.1)">
       <use xlink:href="#DejaVuSans-32"/>
       <use x="63.623047" xlink:href="#DejaVuSans-32"/>
       <use x="127.246094" xlink:href="#DejaVuSans-2e"/>
       <use x="159.033203" xlink:href="#DejaVuSans-35"/>
      </g>
     </g>
    </g>
    <g id="ytick_6">
     <g id="line2d_25">
      <path clip-path="url(#p23825b7e48)" d="M 81 194.76568 
L 583.2 194.76568 
" style="fill:none;stroke:#b0b0b0;stroke-linecap:square;stroke-width:0.8;"/>
     </g>
     <g id="line2d_26">
      <g>
       <use style="stroke:#000000;stroke-width:0.8;" x="81" xlink:href="#m00f1fc6ca2" y="194.76568"/>
      </g>
     </g>
     <g id="text_14">
      <!-- 23.0 -->
      <defs>
       <path d="M 40.578125 39.3125 
Q 47.65625 37.796875 51.625 33 
Q 55.609375 28.21875 55.609375 21.1875 
Q 55.609375 10.40625 48.1875 4.484375 
Q 40.765625 -1.421875 27.09375 -1.421875 
Q 22.515625 -1.421875 17.65625 -0.515625 
Q 12.796875 0.390625 7.625 2.203125 
L 7.625 11.71875 
Q 11.71875 9.328125 16.59375 8.109375 
Q 21.484375 6.890625 26.8125 6.890625 
Q 36.078125 6.890625 40.9375 10.546875 
Q 45.796875 14.203125 45.796875 21.1875 
Q 45.796875 27.640625 41.28125 31.265625 
Q 36.765625 34.90625 28.71875 34.90625 
L 20.21875 34.90625 
L 20.21875 43.015625 
L 29.109375 43.015625 
Q 36.375 43.015625 40.234375 45.921875 
Q 44.09375 48.828125 44.09375 54.296875 
Q 44.09375 59.90625 40.109375 62.90625 
Q 36.140625 65.921875 28.71875 65.921875 
Q 24.65625 65.921875 20.015625 65.03125 
Q 15.375 64.15625 9.8125 62.3125 
L 9.8125 71.09375 
Q 15.4375 72.65625 20.34375 73.4375 
Q 25.25 74.21875 29.59375 74.21875 
Q 40.828125 74.21875 47.359375 69.109375 
Q 53.90625 64.015625 53.90625 55.328125 
Q 53.90625 49.265625 50.4375 45.09375 
Q 46.96875 40.921875 40.578125 39.3125 
z
" id="DejaVuSans-33"/>
      </defs>
      <g transform="translate(51.734375 198.564898)scale(0.1 -0.1)">
       <use xlink:href="#DejaVuSans-32"/>
       <use x="63.623047" xlink:href="#DejaVuSans-33"/>
       <use x="127.246094" xlink:href="#DejaVuSans-2e"/>
       <use x="159.033203" xlink:href="#DejaVuSans-30"/>
      </g>
     </g>
    </g>
    <g id="ytick_7">
     <g id="line2d_27">
      <path clip-path="url(#p23825b7e48)" d="M 81 120.767807 
L 583.2 120.767807 
" style="fill:none;stroke:#b0b0b0;stroke-linecap:square;stroke-width:0.8;"/>
     </g>
     <g id="line2d_28">
      <g>
       <use style="stroke:#000000;stroke-width:0.8;" x="81" xlink:href="#m00f1fc6ca2" y="120.767807"/>
      </g>
     </g>
     <g id="text_15">
      <!-- 23.5 -->
      <g transform="translate(51.734375 124.567026)scale(0.1 -0.1)">
       <use xlink:href="#DejaVuSans-32"/>
       <use x="63.623047" xlink:href="#DejaVuSans-33"/>
       <use x="127.246094" xlink:href="#DejaVuSans-2e"/>
       <use x="159.033203" xlink:href="#DejaVuSans-35"/>
      </g>
     </g>
    </g>
    <g id="text_16">
     <!-- y -->
     <defs>
      <path d="M 32.171875 -5.078125 
Q 28.375 -14.84375 24.75 -17.8125 
Q 21.140625 -20.796875 15.09375 -20.796875 
L 7.90625 -20.796875 
L 7.90625 -13.28125 
L 13.1875 -13.28125 
Q 16.890625 -13.28125 18.9375 -11.515625 
Q 21 -9.765625 23.484375 -3.21875 
L 25.09375 0.875 
L 2.984375 54.6875 
L 12.5 54.6875 
L 29.59375 11.921875 
L 46.6875 54.6875 
L 56.203125 54.6875 
z
" id="DejaVuSans-79"/>
     </defs>
     <g transform="translate(43.990938 332.566875)rotate(-90)scale(0.18 -0.18)">
      <use xlink:href="#DejaVuSans-79"/>
     </g>
    </g>
   </g>
   <g id="line2d_29">
    <path clip-path="url(#p23825b7e48)" d="M 103.827273 100.44 
L 107.631818 164.650174 
L 111.436364 201.184403 
L 115.240909 220.287102 
L 119.045455 224.65712 
L 122.85 225.63552 
L 126.654545 225.63552 
L 130.459091 225.63552 
L 134.263636 225.63552 
L 138.068182 225.63552 
L 141.872727 225.63552 
L 145.677273 220.454189 
L 149.481818 267.23298 
L 153.286364 293.5225 
L 157.090909 303.073997 
L 160.895455 305.605612 
L 164.7 305.605612 
L 168.504545 305.605612 
L 172.309091 305.605612 
L 176.113636 305.605612 
L 179.918182 305.605612 
L 183.722727 305.605612 
L 187.527273 298.418643 
L 191.331818 336.098507 
L 195.136364 357.732673 
L 198.940909 365.445619 
L 202.745455 367.28417 
L 206.55 367.28417 
L 210.354545 367.28417 
L 214.159091 367.28417 
L 217.963636 367.28417 
L 221.768182 367.28417 
L 225.572727 367.28417 
L 229.377273 352.384403 
L 233.181818 383.570214 
L 236.986364 398.636921 
L 240.790909 405.656951 
L 244.595455 406.350015 
L 248.4 406.350015 
L 252.204545 406.350015 
L 256.009091 406.350015 
L 259.813636 406.350015 
L 263.618182 406.350015 
L 267.422727 406.350015 
L 271.227273 388.918632 
L 275.031818 417.739916 
L 278.836364 431.494344 
L 282.640909 436.842614 
L 286.445455 437.535974 
L 290.25 437.535974 
L 294.054545 437.535974 
L 297.859091 437.535974 
L 301.663636 437.535974 
L 305.468182 437.535974 
L 309.272727 437.535974 
L 313.077273 414.230048 
L 316.881818 439.374377 
L 320.686364 453.128806 
L 324.490909 458.477076 
L 328.295455 458.644163 
L 332.1 458.644163 
L 335.904545 458.644163 
L 339.709091 458.644163 
L 343.513636 458.644163 
L 347.318182 458.644163 
L 351.122727 458.644163 
L 354.927273 433.332747 
L 358.731818 454.967209 
L 362.536364 465.663897 
L 366.340909 469.867125 
L 370.145455 470.560041 
L 373.95 470.560041 
L 377.754545 470.560041 
L 381.559091 470.560041 
L 385.363636 470.560041 
L 389.168182 470.560041 
L 392.972727 470.560041 
L 396.777273 442.884244 
L 400.581818 462.847094 
L 404.386364 474.236995 
L 408.190909 478.273135 
L 411.995455 478.440222 
L 415.8 478.440222 
L 419.604545 478.440222 
L 423.409091 478.440222 
L 427.213636 478.440222 
L 431.018182 478.440222 
L 434.822727 478.440222 
L 438.627273 447.254263 
L 442.431818 468.721637 
L 446.236364 479.418622 
L 450.040909 483.788492 
L 453.845455 484.314469 
L 457.65 484.314469 
L 461.454545 484.314469 
L 465.259091 484.314469 
L 469.063636 484.314469 
L 472.868182 484.314469 
L 476.672727 484.314469 
L 480.477273 451.290255 
L 484.281818 470.560041 
L 488.086364 481.257025 
L 491.890909 485.459956 
L 495.695455 486.152872 
L 499.5 486.152872 
L 503.304545 486.152872 
L 507.109091 486.152872 
L 510.913636 486.152872 
L 514.718182 486.152872 
L 518.522727 486.152872 
L 522.327273 451.457342 
L 526.131818 471.705528 
L 529.936364 481.950089 
L 533.740909 486.152872 
L 537.545455 487.298359 
L 541.35 487.298359 
L 545.154545 487.298359 
L 548.959091 487.298359 
L 552.763636 487.298359 
L 556.568182 487.298359 
L 560.372727 487.298359 
" style="fill:none;stroke:#cd6600;stroke-dasharray:7.4,3.2;stroke-dashoffset:0;stroke-width:2;"/>
   </g>
   <g id="line2d_30">
    <path clip-path="url(#p23825b7e48)" d="M 103.827273 153.260125 
L 107.631818 210.735604 
L 111.436364 240.250248 
L 115.240909 255.150015 
L 119.045455 258.659882 
L 122.85 259.352946 
L 126.654545 259.352946 
L 130.459091 259.352946 
L 134.263636 259.352946 
L 138.068182 259.352946 
L 141.872727 259.352946 
L 145.677273 259.352946 
L 149.481818 300.257194 
L 153.286364 324.708459 
L 157.090909 332.588344 
L 160.895455 334.95302 
L 164.7 334.95302 
L 168.504545 334.95302 
L 172.309091 334.95302 
L 176.113636 334.95302 
L 179.918182 334.95302 
L 183.722727 334.95302 
L 187.527273 331.443153 
L 191.331818 365.445619 
L 195.136364 381.038451 
L 198.940909 388.918632 
L 202.745455 391.4501 
L 206.55 391.4501 
L 210.354545 391.4501 
L 214.159091 391.4501 
L 217.963636 391.4501 
L 221.768182 391.4501 
L 225.572727 391.4501 
L 229.377273 379.367135 
L 233.181818 408.881482 
L 236.986364 421.942847 
L 240.790909 429.129964 
L 244.595455 429.82288 
L 248.4 429.82288 
L 252.204545 429.82288 
L 256.009091 429.82288 
L 259.813636 429.82288 
L 263.618182 429.82288 
L 267.422727 429.82288 
L 271.227273 414.230048 
L 275.031818 438.681165 
L 278.836364 452.435742 
L 282.640909 456.80576 
L 286.445455 458.477076 
L 290.25 458.477076 
L 294.054545 458.477076 
L 297.859091 458.477076 
L 301.663636 458.477076 
L 305.468182 458.477076 
L 309.272727 458.477076 
L 313.077273 435.864214 
L 316.881818 460.315627 
L 320.686364 470.560041 
L 324.490909 475.215395 
L 328.295455 475.908459 
L 332.1 475.908459 
L 335.904545 475.908459 
L 339.709091 475.908459 
L 343.513636 475.908459 
L 347.318182 475.908459 
L 351.122727 475.908459 
L 354.927273 452.435742 
L 358.731818 474.069908 
L 362.536364 485.459956 
L 366.340909 489.663035 
L 370.145455 489.829826 
L 373.95 489.829826 
L 377.754545 489.829826 
L 381.559091 489.829826 
L 385.363636 489.829826 
L 389.168182 489.829826 
L 392.972727 489.829826 
L 396.777273 461.008543 
L 400.581818 481.950089 
L 404.386364 494.033054 
L 408.190909 496.849857 
L 411.995455 497.542921 
L 415.8 497.542921 
L 419.604545 497.542921 
L 423.409091 497.542921 
L 427.213636 497.542921 
L 431.018182 497.542921 
L 434.822727 497.542921 
L 438.627273 468.028573 
L 442.431818 487.991423 
L 446.236364 497.542921 
L 450.040909 501.219875 
L 453.845455 501.746 
L 457.65 501.746 
L 461.454545 501.746 
L 465.259091 501.746 
L 469.063636 501.746 
L 472.868182 501.746 
L 476.672727 501.746 
L 480.477273 468.721637 
L 484.281818 489.829826 
L 488.086364 499.381324 
L 491.890909 502.891191 
L 495.695455 502.891191 
L 499.5 502.891191 
L 503.304545 502.891191 
L 507.109091 502.891191 
L 510.913636 502.891191 
L 514.718182 502.891191 
L 518.522727 502.891191 
L 522.327273 469.867125 
L 526.131818 491.501586 
L 529.936364 501.052788 
L 533.740909 503.584551 
L 537.545455 503.584551 
L 541.35 503.584551 
L 545.154545 503.584551 
L 548.959091 503.584551 
L 552.763636 503.584551 
L 556.568182 503.584551 
L 560.372727 503.584551 
" style="fill:none;stroke:#ff00ff;stroke-linecap:square;stroke-width:2;"/>
   </g>
   <g id="line2d_31">
    <path clip-path="url(#p23825b7e48)" d="M 103.827273 191.632906 
L 107.631818 243.760115 
L 111.436364 269.071531 
L 115.240909 282.825811 
L 119.045455 288.174229 
L 122.85 288.174229 
L 126.654545 288.174229 
L 130.459091 288.174229 
L 134.263636 288.174229 
L 138.068182 288.174229 
L 141.872727 288.174229 
L 145.677273 290.012633 
L 149.481818 327.240074 
L 153.286364 346.342921 
L 157.090909 356.061357 
L 160.895455 358.425885 
L 164.7 358.425885 
L 168.504545 358.425885 
L 172.309091 358.425885 
L 176.113636 358.425885 
L 179.918182 358.425885 
L 183.722727 358.425885 
L 187.527273 355.894122 
L 191.331818 387.247316 
L 195.136364 402.147084 
L 198.940909 408.188418 
L 202.745455 408.881482 
L 206.55 408.881482 
L 210.354545 408.881482 
L 214.159091 408.881482 
L 217.963636 408.881482 
L 221.768182 408.881482 
L 225.572727 408.881482 
L 229.377273 401.001597 
L 233.181818 427.984477 
L 236.986364 441.212929 
L 240.790909 447.087176 
L 244.595455 447.254263 
L 248.4 447.254263 
L 252.204545 447.254263 
L 256.009091 447.254263 
L 259.813636 447.254263 
L 263.618182 447.254263 
L 267.422727 447.254263 
L 271.227273 433.332747 
L 275.031818 458.477076 
L 278.836364 468.195661 
L 282.640909 472.398592 
L 286.445455 474.069908 
L 290.25 474.069908 
L 294.054545 474.069908 
L 297.859091 474.069908 
L 301.663636 474.069908 
L 305.468182 474.069908 
L 309.272727 474.069908 
L 313.077273 456.638673 
L 316.881818 476.601671 
L 320.686364 487.991423 
L 324.490909 491.501586 
L 328.295455 491.668378 
L 332.1 491.668378 
L 335.904545 491.668378 
L 339.709091 491.668378 
L 343.513636 491.668378 
L 347.318182 491.668378 
L 351.122727 491.668378 
L 354.927273 468.888725 
L 358.731818 489.829826 
L 362.536364 499.381324 
L 366.340909 502.891191 
L 370.145455 502.891191 
L 373.95 502.891191 
L 377.754545 502.891191 
L 381.559091 502.891191 
L 385.363636 502.891191 
L 389.168182 502.891191 
L 392.972727 502.891191 
L 396.777273 478.273135 
L 400.581818 497.542921 
L 404.386364 507.094418 
L 408.190909 510.771372 
L 411.995455 510.771372 
L 415.8 510.771372 
L 419.604545 510.771372 
L 423.409091 510.771372 
L 427.213636 510.771372 
L 431.018182 510.771372 
L 434.822727 510.771372 
L 438.627273 483.788492 
L 442.431818 501.746 
L 446.236364 511.297201 
L 450.040909 514.281239 
L 453.845455 514.281239 
L 457.65 514.281239 
L 461.454545 514.281239 
L 465.259091 514.281239 
L 469.063636 514.281239 
L 472.868182 514.281239 
L 476.672727 514.281239 
L 480.477273 485.459956 
L 484.281818 503.584551 
L 488.086364 512.442688 
L 491.890909 516.645915 
L 495.695455 516.645915 
L 499.5 516.645915 
L 503.304545 516.645915 
L 507.109091 516.645915 
L 510.913636 516.645915 
L 514.718182 516.645915 
L 518.522727 516.645915 
L 522.327273 486.152872 
L 526.131818 504.729742 
L 529.936364 512.442688 
L 533.740909 516.645915 
L 537.545455 516.645915 
L 541.35 516.645915 
L 545.154545 516.645915 
L 548.959091 516.645915 
L 552.763636 516.645915 
L 556.568182 516.645915 
L 560.372727 516.645915 
" style="fill:none;stroke:#00ffff;stroke-dasharray:7.4,3.2;stroke-dashoffset:0;stroke-width:2;"/>
   </g>
   <g id="line2d_32">
    <path clip-path="url(#p23825b7e48)" d="M 103.827273 223.964056 
L 107.631818 269.071531 
L 111.436364 293.5225 
L 115.240909 303.767061 
L 119.045455 307.277224 
L 122.85 307.277224 
L 126.654545 307.277224 
L 130.459091 307.277224 
L 134.263636 307.277224 
L 138.068182 307.277224 
L 141.872727 307.277224 
L 145.677273 313.318558 
L 149.481818 348.874536 
L 153.286364 366.305771 
L 157.090909 373.325801 
L 160.895455 375.857268 
L 164.7 375.857268 
L 168.504545 375.857268 
L 172.309091 375.857268 
L 176.113636 375.857268 
L 179.918182 375.857268 
L 183.722727 375.857268 
L 187.527273 375.164352 
L 191.331818 402.840148 
L 195.136364 417.739916 
L 198.940909 425.45301 
L 202.745455 425.619801 
L 206.55 425.619801 
L 210.354545 425.619801 
L 214.159091 425.619801 
L 217.963636 425.619801 
L 221.768182 425.619801 
L 225.572727 425.619801 
L 229.377273 417.739916 
L 233.181818 443.577309 
L 236.986364 456.638673 
L 240.790909 461.008543 
L 244.595455 462.15403 
L 248.4 462.15403 
L 252.204545 462.15403 
L 256.009091 462.15403 
L 259.813636 462.15403 
L 263.618182 462.15403 
L 267.422727 462.15403 
L 271.227273 450.76413 
L 275.031818 469.867125 
L 278.836364 480.278625 
L 282.640909 485.459956 
L 286.445455 486.152872 
L 290.25 486.152872 
L 294.054545 486.152872 
L 297.859091 486.152872 
L 301.663636 486.152872 
L 305.468182 486.152872 
L 309.272727 486.152872 
L 313.077273 468.721637 
L 316.881818 489.829826 
L 320.686364 499.381324 
L 324.490909 502.891191 
L 328.295455 502.891191 
L 332.1 502.891191 
L 335.904545 502.891191 
L 339.709091 502.891191 
L 343.513636 502.891191 
L 347.318182 502.891191 
L 351.122727 502.891191 
L 354.927273 480.278625 
L 358.731818 501.746 
L 362.536364 511.297201 
L 366.340909 514.281239 
L 370.145455 514.281239 
L 373.95 514.281239 
L 377.754545 514.281239 
L 381.559091 514.281239 
L 385.363636 514.281239 
L 389.168182 514.281239 
L 392.972727 514.281239 
L 396.777273 491.501586 
L 400.581818 510.771372 
L 404.386364 519.177383 
L 408.190909 522.68725 
L 411.995455 522.68725 
L 415.8 522.68725 
L 419.604545 522.68725 
L 423.409091 522.68725 
L 427.213636 522.68725 
L 431.018182 522.68725 
L 434.822727 522.68725 
L 438.627273 495.70437 
L 442.431818 514.281239 
L 446.236364 522.854337 
L 450.040909 526.890329 
L 453.845455 526.890329 
L 457.65 526.890329 
L 461.454545 526.890329 
L 465.259091 526.890329 
L 469.063636 526.890329 
L 472.868182 526.890329 
L 476.672727 526.890329 
L 480.477273 496.849857 
L 484.281818 516.645915 
L 488.086364 524.525653 
L 491.890909 528.202607 
L 495.695455 528.202607 
L 499.5 528.202607 
L 503.304545 528.202607 
L 507.109091 528.202607 
L 510.913636 528.202607 
L 514.718182 528.202607 
L 518.522727 528.202607 
L 522.327273 497.542921 
L 526.131818 516.645915 
L 529.936364 524.525653 
L 533.740909 528.202607 
L 537.545455 528.202607 
L 541.35 528.202607 
L 545.154545 528.202607 
L 548.959091 528.202607 
L 552.763636 528.202607 
L 556.568182 528.202607 
L 560.372727 528.202607 
" style="fill:none;stroke:#808000;stroke-linecap:square;stroke-width:2;"/>
   </g>
   <g id="line2d_33">
    <path clip-path="url(#p23825b7e48)" d="M 103.827273 249.108385 
L 107.631818 290.012633 
L 111.436364 311.647094 
L 115.240909 322.870056 
L 119.045455 325.401523 
L 122.85 325.401523 
L 126.654545 325.401523 
L 130.459091 325.401523 
L 134.263636 325.401523 
L 138.068182 325.401523 
L 141.872727 325.401523 
L 145.677273 331.443153 
L 149.481818 365.445619 
L 153.286364 381.205686 
L 157.090909 389.08572 
L 160.895455 391.4501 
L 164.7 391.4501 
L 168.504545 391.4501 
L 172.309091 391.4501 
L 176.113636 391.4501 
L 179.918182 391.4501 
L 183.722727 391.4501 
L 187.527273 390.757183 
L 191.331818 417.739916 
L 195.136364 431.661431 
L 198.940909 436.842614 
L 202.745455 437.535974 
L 206.55 437.535974 
L 210.354545 437.535974 
L 214.159091 437.535974 
L 217.963636 437.535974 
L 221.768182 437.535974 
L 225.572727 437.535974 
L 229.377273 431.661431 
L 233.181818 454.967209 
L 236.986364 466.357257 
L 240.790909 470.560041 
L 244.595455 471.705528 
L 248.4 471.705528 
L 252.204545 471.705528 
L 256.009091 471.705528 
L 259.813636 471.705528 
L 263.618182 471.705528 
L 267.422727 471.705528 
L 271.227273 460.315627 
L 275.031818 480.278625 
L 278.836364 491.668378 
L 282.640909 495.70437 
L 286.445455 495.871457 
L 290.25 495.871457 
L 294.054545 495.871457 
L 297.859091 495.871457 
L 301.663636 495.871457 
L 305.468182 495.871457 
L 309.272727 495.871457 
L 313.077273 479.418622 
L 316.881818 501.052788 
L 320.686364 508.932821 
L 324.490909 513.135752 
L 328.295455 513.135752 
L 332.1 513.135752 
L 335.904545 513.135752 
L 339.709091 513.135752 
L 343.513636 513.135752 
L 347.318182 513.135752 
L 351.122727 513.135752 
L 354.927273 494.033054 
L 358.731818 512.442688 
L 362.536364 521.015786 
L 366.340909 524.525653 
L 370.145455 524.525653 
L 373.95 524.525653 
L 377.754545 524.525653 
L 381.559091 524.525653 
L 385.363636 524.525653 
L 389.168182 524.525653 
L 392.972727 524.525653 
L 396.777273 501.746 
L 400.581818 520.32287 
L 404.386364 528.202607 
L 408.190909 530.567283 
L 411.995455 530.567283 
L 415.8 530.567283 
L 419.604545 530.567283 
L 423.409091 530.567283 
L 427.213636 530.567283 
L 431.018182 530.567283 
L 434.822727 530.567283 
L 438.627273 505.422954 
L 442.431818 523.832737 
L 446.236364 530.567283 
L 450.040909 534.07715 
L 453.845455 534.07715 
L 457.65 534.07715 
L 461.454545 534.07715 
L 465.259091 534.07715 
L 469.063636 534.07715 
L 472.868182 534.07715 
L 476.672727 534.07715 
L 480.477273 507.261505 
L 484.281818 524.69274 
L 488.086364 532.238747 
L 491.890909 535.222637 
L 495.695455 535.222637 
L 499.5 535.222637 
L 503.304545 535.222637 
L 507.109091 535.222637 
L 510.913636 535.222637 
L 514.718182 535.222637 
L 518.522727 535.222637 
L 522.327273 508.932821 
L 526.131818 524.69274 
L 529.936364 532.238747 
L 533.740909 535.222637 
L 537.545455 535.222637 
L 541.35 535.222637 
L 545.154545 535.222637 
L 548.959091 535.222637 
L 552.763636 535.222637 
L 556.568182 535.222637 
L 560.372727 535.222637 
" style="fill:none;stroke:#800080;stroke-dasharray:7.4,3.2;stroke-dashoffset:0;stroke-width:2;"/>
   </g>
   <g id="line2d_34">
    <path clip-path="url(#p23825b7e48)" d="M 103.827273 264.701216 
L 107.631818 305.605612 
L 111.436364 326.54701 
L 115.240909 334.259956 
L 119.045455 336.791423 
L 122.85 336.791423 
L 126.654545 336.791423 
L 130.459091 336.791423 
L 134.263636 336.791423 
L 138.068182 336.791423 
L 141.872727 336.791423 
L 145.677273 346.342921 
L 149.481818 376.835668 
L 153.286364 393.288651 
L 157.090909 400.308681 
L 160.895455 401.001597 
L 164.7 401.001597 
L 168.504545 401.001597 
L 172.309091 401.001597 
L 176.113636 401.001597 
L 179.918182 401.001597 
L 183.722727 401.001597 
L 187.527273 402.147084 
L 191.331818 427.984477 
L 195.136364 441.045841 
L 198.940909 445.415712 
L 202.745455 447.087176 
L 206.55 447.087176 
L 210.354545 447.087176 
L 214.159091 447.087176 
L 217.963636 447.087176 
L 221.768182 447.087176 
L 225.572727 447.087176 
L 229.377273 441.212929 
L 233.181818 464.518706 
L 236.986364 475.908459 
L 240.790909 479.418622 
L 244.595455 480.111538 
L 248.4 480.111538 
L 252.204545 480.111538 
L 256.009091 480.111538 
L 259.813636 480.111538 
L 263.618182 480.111538 
L 267.422727 480.111538 
L 271.227273 468.888725 
L 275.031818 489.829826 
L 278.836364 498.688408 
L 282.640909 502.891191 
L 286.445455 502.891191 
L 290.25 502.891191 
L 294.054545 502.891191 
L 297.859091 502.891191 
L 301.663636 502.891191 
L 305.468182 502.891191 
L 309.272727 502.891191 
L 313.077273 489.663035 
L 316.881818 507.094418 
L 320.686364 516.645915 
L 324.490909 520.32287 
L 328.295455 520.32287 
L 332.1 520.32287 
L 335.904545 520.32287 
L 339.709091 520.32287 
L 343.513636 520.32287 
L 347.318182 520.32287 
L 351.122727 520.32287 
L 354.927273 501.219875 
L 358.731818 519.177383 
L 362.536364 528.202607 
L 366.340909 530.567283 
L 370.145455 530.567283 
L 373.95 530.567283 
L 377.754545 530.567283 
L 381.559091 530.567283 
L 385.363636 530.567283 
L 389.168182 530.567283 
L 392.972727 530.567283 
L 396.777273 508.932821 
L 400.581818 526.364204 
L 404.386364 534.07715 
L 408.190909 536.608617 
L 411.995455 536.608617 
L 415.8 536.608617 
L 419.604545 536.608617 
L 423.409091 536.608617 
L 427.213636 536.608617 
L 431.018182 536.608617 
L 434.822727 536.608617 
L 438.627273 513.135752 
L 442.431818 528.895671 
L 446.236364 537.754104 
L 450.040909 539.425568 
L 453.845455 539.425568 
L 457.65 539.425568 
L 461.454545 539.425568 
L 465.259091 539.425568 
L 469.063636 539.425568 
L 472.868182 539.425568 
L 476.672727 539.425568 
L 480.477273 514.281239 
L 484.281818 530.567283 
L 488.086364 538.447168 
L 491.890909 540.285572 
L 495.695455 540.285572 
L 499.5 540.285572 
L 503.304545 540.285572 
L 507.109091 540.285572 
L 510.913636 540.285572 
L 514.718182 540.285572 
L 518.522727 540.285572 
L 522.327273 514.281239 
L 526.131818 530.567283 
L 529.936364 538.447168 
L 533.740909 540.285572 
L 537.545455 540.285572 
L 541.35 540.285572 
L 545.154545 540.285572 
L 548.959091 540.285572 
L 552.763636 540.285572 
L 556.568182 540.285572 
L 560.372727 540.285572 
" style="fill:none;stroke:#ff0000;stroke-linecap:square;stroke-width:2;"/>
   </g>
   <g id="line2d_35">
    <path clip-path="url(#p23825b7e48)" d="M 103.827273 282.132895 
L 107.631818 318.666829 
L 111.436364 336.098507 
L 115.240909 346.342921 
L 119.045455 348.874536 
L 122.85 348.874536 
L 126.654545 348.874536 
L 130.459091 348.874536 
L 134.263636 348.874536 
L 138.068182 348.874536 
L 141.872727 348.874536 
L 145.677273 357.732673 
L 149.481818 388.918632 
L 153.286364 401.001597 
L 157.090909 406.350015 
L 160.895455 408.188418 
L 164.7 408.188418 
L 168.504545 408.188418 
L 172.309091 408.188418 
L 176.113636 408.188418 
L 179.918182 408.188418 
L 183.722727 408.188418 
L 187.527273 410.553094 
L 191.331818 435.864214 
L 195.136364 448.232663 
L 198.940909 453.295893 
L 202.745455 454.274293 
L 206.55 454.274293 
L 210.354545 454.274293 
L 214.159091 454.274293 
L 217.963636 454.274293 
L 221.768182 454.274293 
L 225.572727 454.274293 
L 229.377273 450.76413 
L 233.181818 470.727128 
L 236.986364 481.257025 
L 240.790909 486.152872 
L 244.595455 486.319959 
L 248.4 486.319959 
L 252.204545 486.319959 
L 256.009091 486.319959 
L 259.813636 486.319959 
L 263.618182 486.319959 
L 267.422727 486.319959 
L 271.227273 475.908459 
L 275.031818 495.871457 
L 278.836364 505.422954 
L 282.640909 508.932821 
L 286.445455 508.932821 
L 290.25 508.932821 
L 294.054545 508.932821 
L 297.859091 508.932821 
L 301.663636 508.932821 
L 305.468182 508.932821 
L 309.272727 508.932821 
L 313.077273 495.70437 
L 316.881818 513.302839 
L 320.686364 522.854337 
L 324.490909 526.364204 
L 328.295455 526.364204 
L 332.1 526.364204 
L 335.904545 526.364204 
L 339.709091 526.364204 
L 343.513636 526.364204 
L 347.318182 526.364204 
L 351.122727 526.364204 
L 354.927273 507.094418 
L 358.731818 524.69274 
L 362.536364 532.405834 
L 366.340909 535.915701 
L 370.145455 535.915701 
L 373.95 535.915701 
L 377.754545 535.915701 
L 381.559091 535.915701 
L 385.363636 535.915701 
L 389.168182 535.915701 
L 392.972727 535.915701 
L 396.777273 514.281239 
L 400.581818 531.712474 
L 404.386364 539.425568 
L 408.190909 541.263971 
L 411.995455 541.263971 
L 415.8 541.263971 
L 419.604545 541.263971 
L 423.409091 541.263971 
L 427.213636 541.263971 
L 431.018182 541.263971 
L 434.822727 541.263971 
L 438.627273 519.177383 
L 442.431818 534.244237 
L 446.236364 541.957035 
L 450.040909 544.321711 
L 453.845455 544.321711 
L 457.65 544.321711 
L 461.454545 544.321711 
L 465.259091 544.321711 
L 469.063636 544.321711 
L 472.868182 544.321711 
L 476.672727 544.321711 
L 480.477273 520.848698 
L 484.281818 536.608617 
L 488.086364 543.795439 
L 491.890909 546.160115 
L 495.695455 546.160115 
L 499.5 546.160115 
L 503.304545 546.160115 
L 507.109091 546.160115 
L 510.913636 546.160115 
L 514.718182 546.160115 
L 518.522727 546.160115 
L 522.327273 520.848698 
L 526.131818 536.608617 
L 529.936364 543.795439 
L 533.740909 546.160115 
L 537.545455 546.160115 
L 541.35 546.160115 
L 545.154545 546.160115 
L 548.959091 546.160115 
L 552.763636 546.160115 
L 556.568182 546.160115 
L 560.372727 546.160115 
" style="fill:none;stroke:#008000;stroke-dasharray:7.4,3.2;stroke-dashoffset:0;stroke-width:2;"/>
   </g>
   <g id="line2d_36">
    <path clip-path="url(#p23825b7e48)" d="M 103.827273 290.705697 
L 107.631818 325.401523 
L 111.436364 346.342921 
L 115.240909 355.894122 
L 119.045455 357.732673 
L 122.85 357.732673 
L 126.654545 357.732673 
L 130.459091 357.732673 
L 134.263636 357.732673 
L 138.068182 357.732673 
L 141.872727 357.732673 
L 145.677273 365.612855 
L 149.481818 394.267051 
L 153.286364 406.350015 
L 157.090909 414.230048 
L 160.895455 415.208448 
L 164.7 415.208448 
L 168.504545 415.208448 
L 172.309091 415.208448 
L 176.113636 415.208448 
L 179.918182 415.208448 
L 183.722727 415.208448 
L 187.527273 417.739916 
L 191.331818 441.212929 
L 195.136364 454.274293 
L 198.940909 458.644163 
L 202.745455 460.315627 
L 206.55 460.315627 
L 210.354545 460.315627 
L 214.159091 460.315627 
L 217.963636 460.315627 
L 221.768182 460.315627 
L 225.572727 460.315627 
L 229.377273 454.967209 
L 233.181818 475.908459 
L 236.986364 486.319959 
L 240.790909 489.829826 
L 244.595455 490.808226 
L 248.4 490.808226 
L 252.204545 490.808226 
L 256.009091 490.808226 
L 259.813636 490.808226 
L 263.618182 490.808226 
L 267.422727 490.808226 
L 271.227273 480.111538 
L 275.031818 499.381324 
L 278.836364 510.771372 
L 282.640909 513.302839 
L 286.445455 513.302839 
L 290.25 513.302839 
L 294.054545 513.302839 
L 297.859091 513.302839 
L 301.663636 513.302839 
L 305.468182 513.302839 
L 309.272727 513.302839 
L 313.077273 499.381324 
L 316.881818 518.484318 
L 320.686364 528.03552 
L 324.490909 529.874071 
L 328.295455 529.874071 
L 332.1 529.874071 
L 335.904545 529.874071 
L 339.709091 529.874071 
L 343.513636 529.874071 
L 347.318182 529.874071 
L 351.122727 529.874071 
L 354.927273 511.464288 
L 358.731818 528.895671 
L 362.536364 536.608617 
L 366.340909 538.447168 
L 370.145455 538.447168 
L 373.95 538.447168 
L 377.754545 538.447168 
L 381.559091 538.447168 
L 385.363636 538.447168 
L 389.168182 538.447168 
L 392.972727 538.447168 
L 396.777273 519.177383 
L 400.581818 534.244237 
L 404.386364 541.957035 
L 408.190909 544.321711 
L 411.995455 544.321711 
L 415.8 544.321711 
L 419.604545 544.321711 
L 423.409091 544.321711 
L 427.213636 544.321711 
L 431.018182 544.321711 
L 434.822727 544.321711 
L 438.627273 522.854337 
L 442.431818 538.280081 
L 446.236364 545.467199 
L 450.040909 547.305602 
L 453.845455 547.305602 
L 457.65 547.305602 
L 461.454545 547.305602 
L 465.259091 547.305602 
L 469.063636 547.305602 
L 472.868182 547.305602 
L 476.672727 547.305602 
L 480.477273 524.69274 
L 484.281818 539.425568 
L 488.086364 546.327202 
L 491.890909 549.669982 
L 495.695455 549.669982 
L 499.5 549.669982 
L 503.304545 549.669982 
L 507.109091 549.669982 
L 510.913636 549.669982 
L 514.718182 549.669982 
L 518.522727 549.669982 
L 522.327273 524.69274 
L 526.131818 539.425568 
L 529.936364 546.327202 
L 533.740909 549.669982 
L 537.545455 549.669982 
L 541.35 549.669982 
L 545.154545 549.669982 
L 548.959091 549.669982 
L 552.763636 549.669982 
L 556.568182 549.669982 
L 560.372727 549.669982 
" style="fill:none;stroke:#008080;stroke-linecap:square;stroke-width:2;"/>
   </g>
   <g id="line2d_37">
    <path clip-path="url(#p23825b7e48)" d="M 103.827273 297.725727 
L 107.631818 333.281704 
L 111.436364 352.384403 
L 115.240909 360.264436 
L 119.045455 361.935752 
L 122.85 361.935752 
L 126.654545 361.935752 
L 130.459091 361.935752 
L 134.263636 361.935752 
L 138.068182 361.935752 
L 141.872727 361.935752 
L 145.677273 369.122722 
L 149.481818 398.47013 
L 153.286364 411.698285 
L 157.090909 420.271383 
L 160.895455 421.249783 
L 164.7 421.249783 
L 168.504545 421.249783 
L 172.309091 421.249783 
L 176.113636 421.249783 
L 179.918182 421.249783 
L 183.722727 421.249783 
L 187.527273 423.78125 
L 191.331818 444.722796 
L 195.136364 458.477076 
L 198.940909 462.847094 
L 202.745455 463.825494 
L 206.55 463.825494 
L 210.354545 463.825494 
L 214.159091 463.825494 
L 217.963636 463.825494 
L 221.768182 463.825494 
L 225.572727 463.825494 
L 229.377273 458.477076 
L 233.181818 479.418622 
L 236.986364 489.829826 
L 240.790909 493.33999 
L 244.595455 494.033054 
L 248.4 494.033054 
L 252.204545 494.033054 
L 256.009091 494.033054 
L 259.813636 494.033054 
L 263.618182 494.033054 
L 267.422727 494.033054 
L 271.227273 485.459956 
L 275.031818 503.584551 
L 278.836364 513.135752 
L 282.640909 516.645915 
L 286.445455 516.645915 
L 290.25 516.645915 
L 294.054545 516.645915 
L 297.859091 516.645915 
L 301.663636 516.645915 
L 305.468182 516.645915 
L 309.272727 516.645915 
L 313.077273 502.891191 
L 316.881818 521.015786 
L 320.686364 528.895671 
L 324.490909 531.712474 
L 328.295455 531.712474 
L 332.1 531.712474 
L 335.904545 531.712474 
L 339.709091 531.712474 
L 343.513636 531.712474 
L 347.318182 531.712474 
L 351.122727 531.712474 
L 354.927273 513.302839 
L 358.731818 530.734222 
L 362.536364 538.447168 
L 366.340909 540.285572 
L 370.145455 540.285572 
L 373.95 540.285572 
L 377.754545 540.285572 
L 381.559091 540.285572 
L 385.363636 540.285572 
L 389.168182 540.285572 
L 392.972727 540.285572 
L 396.777273 521.015786 
L 400.581818 537.754104 
L 404.386364 544.321711 
L 408.190909 546.327202 
L 411.995455 546.327202 
L 415.8 546.327202 
L 419.604545 546.327202 
L 423.409091 546.327202 
L 427.213636 546.327202 
L 431.018182 546.327202 
L 434.822727 546.327202 
L 438.627273 526.364204 
L 442.431818 540.118484 
L 446.236364 547.305602 
L 450.040909 549.837069 
L 453.845455 549.837069 
L 457.65 549.837069 
L 461.454545 549.837069 
L 465.259091 549.837069 
L 469.063636 549.837069 
L 472.868182 549.837069 
L 476.672727 549.837069 
L 480.477273 528.03552 
L 484.281818 541.263971 
L 488.086364 549.669982 
L 491.890909 551.508533 
L 495.695455 551.508533 
L 499.5 551.508533 
L 503.304545 551.508533 
L 507.109091 551.508533 
L 510.913636 551.508533 
L 514.718182 551.508533 
L 518.522727 551.508533 
L 522.327273 528.03552 
L 526.131818 541.263971 
L 529.936364 549.669982 
L 533.740909 551.508533 
L 537.545455 551.508533 
L 541.35 551.508533 
L 545.154545 551.508533 
L 548.959091 551.508533 
L 552.763636 551.508533 
L 556.568182 551.508533 
L 560.372727 551.508533 
" style="fill:none;stroke:#000000;stroke-dasharray:7.4,3.2;stroke-dashoffset:0;stroke-width:2;"/>
   </g>
   <g id="line2d_38">
    <path clip-path="url(#p23825b7e48)" d="M 103.827273 305.605612 
L 107.631818 336.791423 
L 111.436364 356.061357 
L 115.240909 363.081239 
L 119.045455 365.445619 
L 122.85 365.445619 
L 126.654545 365.445619 
L 130.459091 365.445619 
L 134.263636 365.445619 
L 138.068182 365.445619 
L 141.872727 365.445619 
L 145.677273 373.325801 
L 149.481818 401.168684 
L 153.286364 415.901512 
L 157.090909 422.109934 
L 160.895455 423.78125 
L 164.7 423.78125 
L 168.504545 423.78125 
L 172.309091 423.78125 
L 176.113636 423.78125 
L 179.918182 423.78125 
L 183.722727 423.78125 
L 187.527273 426.313013 
L 191.331818 447.254263 
L 195.136364 461.008543 
L 198.940909 464.685498 
L 202.745455 465.663897 
L 206.55 465.663897 
L 210.354545 465.663897 
L 214.159091 465.663897 
L 217.963636 465.663897 
L 221.768182 465.663897 
L 225.572727 465.663897 
L 229.377273 461.008543 
L 233.181818 481.257025 
L 236.986364 491.501586 
L 240.790909 495.178541 
L 244.595455 495.871457 
L 248.4 495.871457 
L 252.204545 495.871457 
L 256.009091 495.871457 
L 259.813636 495.871457 
L 263.618182 495.871457 
L 267.422727 495.871457 
L 271.227273 487.298359 
L 275.031818 504.729742 
L 278.836364 514.281239 
L 282.640909 518.484318 
L 286.445455 518.484318 
L 290.25 518.484318 
L 294.054545 518.484318 
L 297.859091 518.484318 
L 301.663636 518.484318 
L 305.468182 518.484318 
L 309.272727 518.484318 
L 313.077273 503.751342 
L 316.881818 522.854337 
L 320.686364 530.567283 
L 324.490909 532.405834 
L 328.295455 532.405834 
L 332.1 532.405834 
L 335.904545 532.405834 
L 339.709091 532.405834 
L 343.513636 532.405834 
L 347.318182 532.405834 
L 351.122727 532.405834 
L 354.927273 514.974155 
L 358.731818 532.238747 
L 362.536364 540.118484 
L 366.340909 541.957035 
L 370.145455 541.957035 
L 373.95 541.957035 
L 377.754545 541.957035 
L 381.559091 541.957035 
L 385.363636 541.957035 
L 389.168182 541.957035 
L 392.972727 541.957035 
L 396.777273 522.854337 
L 400.581818 538.447168 
L 404.386364 546.160115 
L 408.190909 547.998666 
L 411.995455 547.998666 
L 415.8 547.998666 
L 419.604545 547.998666 
L 423.409091 547.998666 
L 427.213636 547.998666 
L 431.018182 547.998666 
L 434.822727 547.998666 
L 438.627273 528.03552 
L 442.431818 541.263971 
L 446.236364 549.669982 
L 450.040909 551.508533 
L 453.845455 551.508533 
L 457.65 551.508533 
L 461.454545 551.508533 
L 465.259091 551.508533 
L 469.063636 551.508533 
L 472.868182 551.508533 
L 476.672727 551.508533 
L 480.477273 528.72888 
L 484.281818 543.628647 
L 488.086364 550.815469 
L 491.890909 553.873209 
L 495.695455 553.873209 
L 499.5 553.873209 
L 503.304545 553.873209 
L 507.109091 553.873209 
L 510.913636 553.873209 
L 514.718182 553.873209 
L 518.522727 553.873209 
L 522.327273 528.72888 
L 526.131818 543.628647 
L 529.936364 550.815469 
L 533.740909 553.873209 
L 537.545455 553.873209 
L 541.35 553.873209 
L 545.154545 553.873209 
L 548.959091 553.873209 
L 552.763636 553.873209 
L 556.568182 553.873209 
L 560.372727 553.873209 
" style="fill:none;stroke:#8a977b;stroke-linecap:square;stroke-width:2;"/>
   </g>
   <g id="line2d_39">
    <path clip-path="url(#p23825b7e48)" d="M 103.827273 308.137375 
L 107.631818 341.161442 
L 111.436364 359.571224 
L 115.240909 365.612855 
L 119.045455 367.28417 
L 122.85 367.28417 
L 126.654545 367.28417 
L 130.459091 367.28417 
L 134.263636 367.28417 
L 138.068182 367.28417 
L 141.872727 367.28417 
L 145.677273 376.835668 
L 149.481818 402.840148 
L 153.286364 418.43298 
L 157.090909 425.45301 
L 160.895455 425.619801 
L 164.7 425.619801 
L 168.504545 425.619801 
L 172.309091 425.619801 
L 176.113636 425.619801 
L 179.918182 425.619801 
L 183.722727 425.619801 
L 187.527273 427.984477 
L 191.331818 450.76413 
L 195.136364 462.15403 
L 198.940909 465.663897 
L 202.745455 466.357257 
L 206.55 466.357257 
L 210.354545 466.357257 
L 214.159091 466.357257 
L 217.963636 466.357257 
L 221.768182 466.357257 
L 225.572727 466.357257 
L 229.377273 462.15403 
L 233.181818 481.950089 
L 236.986364 491.668378 
L 240.790909 495.871457 
L 244.595455 496.849857 
L 248.4 496.849857 
L 252.204545 496.849857 
L 256.009091 496.849857 
L 259.813636 496.849857 
L 263.618182 496.849857 
L 267.422727 496.849857 
L 271.227273 487.991423 
L 275.031818 505.422954 
L 278.836364 514.974155 
L 282.640909 519.177383 
L 286.445455 519.177383 
L 290.25 519.177383 
L 294.054545 519.177383 
L 297.859091 519.177383 
L 301.663636 519.177383 
L 305.468182 519.177383 
L 309.272727 519.177383 
L 313.077273 504.729742 
L 316.881818 523.832737 
L 320.686364 530.734222 
L 324.490909 534.07715 
L 328.295455 534.07715 
L 332.1 534.07715 
L 335.904545 534.07715 
L 339.709091 534.07715 
L 343.513636 534.07715 
L 347.318182 534.07715 
L 351.122727 534.07715 
L 354.927273 516.645915 
L 358.731818 532.405834 
L 362.536364 540.285572 
L 366.340909 543.628647 
L 370.145455 543.628647 
L 373.95 543.628647 
L 377.754545 543.628647 
L 381.559091 543.628647 
L 385.363636 543.628647 
L 389.168182 543.628647 
L 392.972727 543.628647 
L 396.777273 524.525653 
L 400.581818 539.425568 
L 404.386364 546.327202 
L 408.190909 549.669982 
L 411.995455 549.669982 
L 415.8 549.669982 
L 419.604545 549.669982 
L 423.409091 549.669982 
L 427.213636 549.669982 
L 431.018182 549.669982 
L 434.822727 549.669982 
L 438.627273 528.202607 
L 442.431818 541.957035 
L 446.236364 549.837069 
L 450.040909 553.346936 
L 453.845455 553.346936 
L 457.65 553.346936 
L 461.454545 553.346936 
L 465.259091 553.346936 
L 469.063636 553.346936 
L 472.868182 553.346936 
L 476.672727 553.346936 
L 480.477273 528.895671 
L 484.281818 543.795439 
L 488.086364 551.508533 
L 491.890909 554.04 
L 495.695455 554.04 
L 499.5 554.04 
L 503.304545 554.04 
L 507.109091 554.04 
L 510.913636 554.04 
L 514.718182 554.04 
L 518.522727 554.04 
L 522.327273 528.895671 
L 526.131818 543.795439 
L 529.936364 551.508533 
L 533.740909 554.04 
L 537.545455 554.04 
L 541.35 554.04 
L 545.154545 554.04 
L 548.959091 554.04 
L 552.763636 554.04 
L 556.568182 554.04 
L 560.372727 554.04 
" style="fill:none;stroke:#1d8308;stroke-dasharray:7.4,3.2;stroke-dashoffset:0;stroke-width:2;"/>
   </g>
   <g id="line2d_40">
    <path clip-path="url(#p23825b7e48)" d="M 103.827273 309.808691 
L 107.631818 342.832906 
L 111.436364 360.264436 
L 115.240909 366.305771 
L 119.045455 368.144322 
L 122.85 368.144322 
L 126.654545 368.144322 
L 130.459091 368.144322 
L 134.263636 368.144322 
L 138.068182 368.144322 
L 141.872727 368.144322 
L 145.677273 377.695819 
L 149.481818 403.818548 
L 153.286364 420.271383 
L 157.090909 425.619801 
L 160.895455 426.313013 
L 164.7 426.313013 
L 168.504545 426.313013 
L 172.309091 426.313013 
L 176.113636 426.313013 
L 179.918182 426.313013 
L 183.722727 426.313013 
L 187.527273 428.151564 
L 191.331818 451.457342 
L 195.136364 462.847094 
L 198.940909 466.357257 
L 202.745455 468.028573 
L 206.55 468.028573 
L 210.354545 468.028573 
L 214.159091 468.028573 
L 217.963636 468.028573 
L 221.768182 468.028573 
L 225.572727 468.028573 
L 229.377273 462.847094 
L 233.181818 483.788492 
L 236.986364 493.33999 
L 240.790909 496.849857 
L 244.595455 497.542921 
L 248.4 497.542921 
L 252.204545 497.542921 
L 256.009091 497.542921 
L 259.813636 497.542921 
L 263.618182 497.542921 
L 267.422727 497.542921 
L 271.227273 488.158511 
L 275.031818 507.094418 
L 278.836364 516.645915 
L 282.640909 520.32287 
L 286.445455 520.32287 
L 290.25 520.32287 
L 294.054545 520.32287 
L 297.859091 520.32287 
L 301.663636 520.32287 
L 305.468182 520.32287 
L 309.272727 520.32287 
L 313.077273 505.255867 
L 316.881818 523.832737 
L 320.686364 530.734222 
L 324.490909 534.07715 
L 328.295455 534.07715 
L 332.1 534.07715 
L 335.904545 534.07715 
L 339.709091 534.07715 
L 343.513636 534.07715 
L 347.318182 534.07715 
L 351.122727 534.07715 
L 354.927273 516.812707 
L 358.731818 532.405834 
L 362.536364 540.285572 
L 366.340909 543.628647 
L 370.145455 543.628647 
L 373.95 543.628647 
L 377.754545 543.628647 
L 381.559091 543.628647 
L 385.363636 543.628647 
L 389.168182 543.628647 
L 392.972727 543.628647 
L 396.777273 524.525653 
L 400.581818 539.425568 
L 404.386364 546.327202 
L 408.190909 549.669982 
L 411.995455 549.669982 
L 415.8 549.669982 
L 419.604545 549.669982 
L 423.409091 549.669982 
L 427.213636 549.669982 
L 431.018182 549.669982 
L 434.822727 549.669982 
L 438.627273 528.202607 
L 442.431818 541.957035 
L 446.236364 549.837069 
L 450.040909 553.346936 
L 453.845455 553.346936 
L 457.65 553.346936 
L 461.454545 553.346936 
L 465.259091 553.346936 
L 469.063636 553.346936 
L 472.868182 553.346936 
L 476.672727 553.346936 
L 480.477273 528.895671 
L 484.281818 543.795439 
L 488.086364 551.508533 
L 491.890909 554.04 
L 495.695455 554.04 
L 499.5 554.04 
L 503.304545 554.04 
L 507.109091 554.04 
L 510.913636 554.04 
L 514.718182 554.04 
L 518.522727 554.04 
L 522.327273 528.895671 
L 526.131818 543.795439 
L 529.936364 551.508533 
L 533.740909 554.04 
L 537.545455 554.04 
L 541.35 554.04 
L 545.154545 554.04 
L 548.959091 554.04 
L 552.763636 554.04 
L 556.568182 554.04 
L 560.372727 554.04 
" style="fill:none;stroke:#0000ff;stroke-linecap:square;stroke-width:2;"/>
   </g>
   <g id="line2d_41">
    <path clip-path="url(#p23825b7e48)" d="M 103.827273 311.647094 
L 107.631818 344.671309 
L 111.436364 361.242836 
L 115.240909 367.28417 
L 119.045455 369.122722 
L 122.85 369.122722 
L 126.654545 369.122722 
L 130.459091 369.122722 
L 134.263636 369.122722 
L 138.068182 369.122722 
L 141.872727 369.122722 
L 145.677273 379.367135 
L 149.481818 404.511464 
L 153.286364 420.271383 
L 157.090909 425.619801 
L 160.895455 426.313013 
L 164.7 426.313013 
L 168.504545 426.313013 
L 172.309091 426.313013 
L 176.113636 426.313013 
L 179.918182 426.313013 
L 183.722727 426.313013 
L 187.527273 428.151564 
L 191.331818 451.457342 
L 195.136364 462.847094 
L 198.940909 466.357257 
L 202.745455 468.028573 
L 206.55 468.028573 
L 210.354545 468.028573 
L 214.159091 468.028573 
L 217.963636 468.028573 
L 221.768182 468.028573 
L 225.572727 468.028573 
L 229.377273 462.847094 
L 233.181818 483.788492 
L 236.986364 493.33999 
L 240.790909 496.849857 
L 244.595455 497.542921 
L 248.4 497.542921 
L 252.204545 497.542921 
L 256.009091 497.542921 
L 259.813636 497.542921 
L 263.618182 497.542921 
L 267.422727 497.542921 
L 271.227273 488.158511 
L 275.031818 507.094418 
L 278.836364 516.645915 
L 282.640909 520.32287 
L 286.445455 520.32287 
L 290.25 520.32287 
L 294.054545 520.32287 
L 297.859091 520.32287 
L 301.663636 520.32287 
L 305.468182 520.32287 
L 309.272727 520.32287 
L 313.077273 505.255867 
L 316.881818 523.832737 
L 320.686364 530.734222 
L 324.490909 534.07715 
L 328.295455 534.07715 
L 332.1 534.07715 
L 335.904545 534.07715 
L 339.709091 534.07715 
L 343.513636 534.07715 
L 347.318182 534.07715 
L 351.122727 534.07715 
L 354.927273 516.812707 
L 358.731818 532.405834 
L 362.536364 540.285572 
L 366.340909 543.628647 
L 370.145455 543.628647 
L 373.95 543.628647 
L 377.754545 543.628647 
L 381.559091 543.628647 
L 385.363636 543.628647 
L 389.168182 543.628647 
L 392.972727 543.628647 
L 396.777273 524.525653 
L 400.581818 539.425568 
L 404.386364 546.327202 
L 408.190909 549.669982 
L 411.995455 549.669982 
L 415.8 549.669982 
L 419.604545 549.669982 
L 423.409091 549.669982 
L 427.213636 549.669982 
L 431.018182 549.669982 
L 434.822727 549.669982 
L 438.627273 528.202607 
L 442.431818 541.957035 
L 446.236364 549.837069 
L 450.040909 553.346936 
L 453.845455 553.346936 
L 457.65 553.346936 
L 461.454545 553.346936 
L 465.259091 553.346936 
L 469.063636 553.346936 
L 472.868182 553.346936 
L 476.672727 553.346936 
L 480.477273 528.895671 
L 484.281818 543.795439 
L 488.086364 551.508533 
L 491.890909 554.04 
L 495.695455 554.04 
L 499.5 554.04 
L 503.304545 554.04 
L 507.109091 554.04 
L 510.913636 554.04 
L 514.718182 554.04 
L 518.522727 554.04 
L 522.327273 528.895671 
L 526.131818 543.795439 
L 529.936364 551.508533 
L 533.740909 554.04 
L 537.545455 554.04 
L 541.35 554.04 
L 545.154545 554.04 
L 548.959091 554.04 
L 552.763636 554.04 
L 556.568182 554.04 
L 560.372727 554.04 
" style="fill:none;stroke:#cd6600;stroke-dasharray:7.4,3.2;stroke-dashoffset:0;stroke-width:2;"/>
   </g>
   <g id="line2d_42">
    <path clip-path="url(#p23825b7e48)" d="M 103.827273 313.318558 
L 107.631818 344.671309 
L 111.436364 361.242836 
L 115.240909 367.28417 
L 119.045455 369.122722 
L 122.85 369.122722 
L 126.654545 369.122722 
L 130.459091 369.122722 
L 134.263636 369.122722 
L 138.068182 369.122722 
L 141.872727 369.122722 
L 145.677273 379.367135 
L 149.481818 404.511464 
L 153.286364 420.271383 
L 157.090909 425.619801 
L 160.895455 426.313013 
L 164.7 426.313013 
L 168.504545 426.313013 
L 172.309091 426.313013 
L 176.113636 426.313013 
L 179.918182 426.313013 
L 183.722727 426.313013 
L 187.527273 428.151564 
L 191.331818 451.457342 
L 195.136364 462.847094 
L 198.940909 466.357257 
L 202.745455 468.028573 
L 206.55 468.028573 
L 210.354545 468.028573 
L 214.159091 468.028573 
L 217.963636 468.028573 
L 221.768182 468.028573 
L 225.572727 468.028573 
L 229.377273 462.847094 
L 233.181818 483.788492 
L 236.986364 493.33999 
L 240.790909 496.849857 
L 244.595455 497.542921 
L 248.4 497.542921 
L 252.204545 497.542921 
L 256.009091 497.542921 
L 259.813636 497.542921 
L 263.618182 497.542921 
L 267.422727 497.542921 
L 271.227273 488.158511 
L 275.031818 507.094418 
L 278.836364 516.645915 
L 282.640909 520.32287 
L 286.445455 520.32287 
L 290.25 520.32287 
L 294.054545 520.32287 
L 297.859091 520.32287 
L 301.663636 520.32287 
L 305.468182 520.32287 
L 309.272727 520.32287 
L 313.077273 505.255867 
L 316.881818 523.832737 
L 320.686364 530.734222 
L 324.490909 534.07715 
L 328.295455 534.07715 
L 332.1 534.07715 
L 335.904545 534.07715 
L 339.709091 534.07715 
L 343.513636 534.07715 
L 347.318182 534.07715 
L 351.122727 534.07715 
L 354.927273 516.812707 
L 358.731818 532.405834 
L 362.536364 540.285572 
L 366.340909 543.628647 
L 370.145455 543.628647 
L 373.95 543.628647 
L 377.754545 543.628647 
L 381.559091 543.628647 
L 385.363636 543.628647 
L 389.168182 543.628647 
L 392.972727 543.628647 
L 396.777273 524.525653 
L 400.581818 539.425568 
L 404.386364 546.327202 
L 408.190909 549.669982 
L 411.995455 549.669982 
L 415.8 549.669982 
L 419.604545 549.669982 
L 423.409091 549.669982 
L 427.213636 549.669982 
L 431.018182 549.669982 
L 434.822727 549.669982 
L 438.627273 528.202607 
L 442.431818 541.957035 
L 446.236364 549.837069 
L 450.040909 553.346936 
L 453.845455 553.346936 
L 457.65 553.346936 
L 461.454545 553.346936 
L 465.259091 553.346936 
L 469.063636 553.346936 
L 472.868182 553.346936 
L 476.672727 553.346936 
L 480.477273 528.895671 
L 484.281818 543.795439 
L 488.086364 551.508533 
L 491.890909 554.04 
L 495.695455 554.04 
L 499.5 554.04 
L 503.304545 554.04 
L 507.109091 554.04 
L 510.913636 554.04 
L 514.718182 554.04 
L 518.522727 554.04 
L 522.327273 528.895671 
L 526.131818 543.795439 
L 529.936364 551.508533 
L 533.740909 554.04 
L 537.545455 554.04 
L 541.35 554.04 
L 545.154545 554.04 
L 548.959091 554.04 
L 552.763636 554.04 
L 556.568182 554.04 
L 560.372727 554.04 
" style="fill:none;stroke:#ff00ff;stroke-linecap:square;stroke-width:2;"/>
   </g>
   <g id="line2d_43">
    <path clip-path="url(#p23825b7e48)" d="M 103.827273 313.318558 
L 107.631818 344.671309 
L 111.436364 361.242836 
L 115.240909 367.28417 
L 119.045455 369.122722 
L 122.85 369.122722 
L 126.654545 369.122722 
L 130.459091 369.122722 
L 134.263636 369.122722 
L 138.068182 369.122722 
L 141.872727 369.122722 
L 145.677273 379.367135 
L 149.481818 404.511464 
L 153.286364 420.271383 
L 157.090909 425.619801 
L 160.895455 426.313013 
L 164.7 426.313013 
L 168.504545 426.313013 
L 172.309091 426.313013 
L 176.113636 426.313013 
L 179.918182 426.313013 
L 183.722727 426.313013 
L 187.527273 428.151564 
L 191.331818 451.457342 
L 195.136364 462.847094 
L 198.940909 466.357257 
L 202.745455 468.028573 
L 206.55 468.028573 
L 210.354545 468.028573 
L 214.159091 468.028573 
L 217.963636 468.028573 
L 221.768182 468.028573 
L 225.572727 468.028573 
L 229.377273 462.847094 
L 233.181818 483.788492 
L 236.986364 493.33999 
L 240.790909 496.849857 
L 244.595455 497.542921 
L 248.4 497.542921 
L 252.204545 497.542921 
L 256.009091 497.542921 
L 259.813636 497.542921 
L 263.618182 497.542921 
L 267.422727 497.542921 
L 271.227273 488.158511 
L 275.031818 507.094418 
L 278.836364 516.645915 
L 282.640909 520.32287 
L 286.445455 520.32287 
L 290.25 520.32287 
L 294.054545 520.32287 
L 297.859091 520.32287 
L 301.663636 520.32287 
L 305.468182 520.32287 
L 309.272727 520.32287 
L 313.077273 505.255867 
L 316.881818 523.832737 
L 320.686364 530.734222 
L 324.490909 534.07715 
L 328.295455 534.07715 
L 332.1 534.07715 
L 335.904545 534.07715 
L 339.709091 534.07715 
L 343.513636 534.07715 
L 347.318182 534.07715 
L 351.122727 534.07715 
L 354.927273 516.812707 
L 358.731818 532.405834 
L 362.536364 540.285572 
L 366.340909 543.628647 
L 370.145455 543.628647 
L 373.95 543.628647 
L 377.754545 543.628647 
L 381.559091 543.628647 
L 385.363636 543.628647 
L 389.168182 543.628647 
L 392.972727 543.628647 
L 396.777273 524.525653 
L 400.581818 539.425568 
L 404.386364 546.327202 
L 408.190909 549.669982 
L 411.995455 549.669982 
L 415.8 549.669982 
L 419.604545 549.669982 
L 423.409091 549.669982 
L 427.213636 549.669982 
L 431.018182 549.669982 
L 434.822727 549.669982 
L 438.627273 528.202607 
L 442.431818 541.957035 
L 446.236364 549.837069 
L 450.040909 553.346936 
L 453.845455 553.346936 
L 457.65 553.346936 
L 461.454545 553.346936 
L 465.259091 553.346936 
L 469.063636 553.346936 
L 472.868182 553.346936 
L 476.672727 553.346936 
L 480.477273 528.895671 
L 484.281818 543.795439 
L 488.086364 551.508533 
L 491.890909 554.04 
L 495.695455 554.04 
L 499.5 554.04 
L 503.304545 554.04 
L 507.109091 554.04 
L 510.913636 554.04 
L 514.718182 554.04 
L 518.522727 554.04 
L 522.327273 528.895671 
L 526.131818 543.795439 
L 529.936364 551.508533 
L 533.740909 554.04 
L 537.545455 554.04 
L 541.35 554.04 
L 545.154545 554.04 
L 548.959091 554.04 
L 552.763636 554.04 
L 556.568182 554.04 
L 560.372727 554.04 
" style="fill:none;stroke:#00ffff;stroke-dasharray:7.4,3.2;stroke-dashoffset:0;stroke-width:2;"/>
   </g>
   <g id="line2d_44">
    <path clip-path="url(#p23825b7e48)" d="M 103.827273 313.318558 
L 107.631818 344.671309 
L 111.436364 361.242836 
L 115.240909 367.28417 
L 119.045455 369.122722 
L 122.85 369.122722 
L 126.654545 369.122722 
L 130.459091 369.122722 
L 134.263636 369.122722 
L 138.068182 369.122722 
L 141.872727 369.122722 
L 145.677273 379.367135 
L 149.481818 404.511464 
L 153.286364 420.271383 
L 157.090909 425.619801 
L 160.895455 426.313013 
L 164.7 426.313013 
L 168.504545 426.313013 
L 172.309091 426.313013 
L 176.113636 426.313013 
L 179.918182 426.313013 
L 183.722727 426.313013 
L 187.527273 428.151564 
L 191.331818 451.457342 
L 195.136364 462.847094 
L 198.940909 466.357257 
L 202.745455 468.028573 
L 206.55 468.028573 
L 210.354545 468.028573 
L 214.159091 468.028573 
L 217.963636 468.028573 
L 221.768182 468.028573 
L 225.572727 468.028573 
L 229.377273 462.847094 
L 233.181818 483.788492 
L 236.986364 493.33999 
L 240.790909 496.849857 
L 244.595455 497.542921 
L 248.4 497.542921 
L 252.204545 497.542921 
L 256.009091 497.542921 
L 259.813636 497.542921 
L 263.618182 497.542921 
L 267.422727 497.542921 
L 271.227273 488.158511 
L 275.031818 507.094418 
L 278.836364 516.645915 
L 282.640909 520.32287 
L 286.445455 520.32287 
L 290.25 520.32287 
L 294.054545 520.32287 
L 297.859091 520.32287 
L 301.663636 520.32287 
L 305.468182 520.32287 
L 309.272727 520.32287 
L 313.077273 505.255867 
L 316.881818 523.832737 
L 320.686364 530.734222 
L 324.490909 534.07715 
L 328.295455 534.07715 
L 332.1 534.07715 
L 335.904545 534.07715 
L 339.709091 534.07715 
L 343.513636 534.07715 
L 347.318182 534.07715 
L 351.122727 534.07715 
L 354.927273 516.812707 
L 358.731818 532.405834 
L 362.536364 540.285572 
L 366.340909 543.628647 
L 370.145455 543.628647 
L 373.95 543.628647 
L 377.754545 543.628647 
L 381.559091 543.628647 
L 385.363636 543.628647 
L 389.168182 543.628647 
L 392.972727 543.628647 
L 396.777273 524.525653 
L 400.581818 539.425568 
L 404.386364 546.327202 
L 408.190909 549.669982 
L 411.995455 549.669982 
L 415.8 549.669982 
L 419.604545 549.669982 
L 423.409091 549.669982 
L 427.213636 549.669982 
L 431.018182 549.669982 
L 434.822727 549.669982 
L 438.627273 528.202607 
L 442.431818 541.957035 
L 446.236364 549.837069 
L 450.040909 553.346936 
L 453.845455 553.346936 
L 457.65 553.346936 
L 461.454545 553.346936 
L 465.259091 553.346936 
L 469.063636 553.346936 
L 472.868182 553.346936 
L 476.672727 553.346936 
L 480.477273 528.895671 
L 484.281818 543.795439 
L 488.086364 551.508533 
L 491.890909 554.04 
L 495.695455 554.04 
L 499.5 554.04 
L 503.304545 554.04 
L 507.109091 554.04 
L 510.913636 554.04 
L 514.718182 554.04 
L 518.522727 554.04 
L 522.327273 528.895671 
L 526.131818 543.795439 
L 529.936364 551.508533 
L 533.740909 554.04 
L 537.545455 554.04 
L 541.35 554.04 
L 545.154545 554.04 
L 548.959091 554.04 
L 552.763636 554.04 
L 556.568182 554.04 
L 560.372727 554.04 
" style="fill:none;stroke:#808000;stroke-linecap:square;stroke-width:2;"/>
   </g>
   <g id="line2d_45">
    <path clip-path="url(#p23825b7e48)" d="M 103.827273 313.318558 
L 107.631818 344.671309 
L 111.436364 361.242836 
L 115.240909 367.28417 
L 119.045455 369.122722 
L 122.85 369.122722 
L 126.654545 369.122722 
L 130.459091 369.122722 
L 134.263636 369.122722 
L 138.068182 369.122722 
L 141.872727 369.122722 
L 145.677273 379.367135 
L 149.481818 404.511464 
L 153.286364 420.271383 
L 157.090909 425.619801 
L 160.895455 426.313013 
L 164.7 426.313013 
L 168.504545 426.313013 
L 172.309091 426.313013 
L 176.113636 426.313013 
L 179.918182 426.313013 
L 183.722727 426.313013 
L 187.527273 428.151564 
L 191.331818 451.457342 
L 195.136364 462.847094 
L 198.940909 466.357257 
L 202.745455 468.028573 
L 206.55 468.028573 
L 210.354545 468.028573 
L 214.159091 468.028573 
L 217.963636 468.028573 
L 221.768182 468.028573 
L 225.572727 468.028573 
L 229.377273 462.847094 
L 233.181818 483.788492 
L 236.986364 493.33999 
L 240.790909 496.849857 
L 244.595455 497.542921 
L 248.4 497.542921 
L 252.204545 497.542921 
L 256.009091 497.542921 
L 259.813636 497.542921 
L 263.618182 497.542921 
L 267.422727 497.542921 
L 271.227273 488.158511 
L 275.031818 507.094418 
L 278.836364 516.645915 
L 282.640909 520.32287 
L 286.445455 520.32287 
L 290.25 520.32287 
L 294.054545 520.32287 
L 297.859091 520.32287 
L 301.663636 520.32287 
L 305.468182 520.32287 
L 309.272727 520.32287 
L 313.077273 505.255867 
L 316.881818 523.832737 
L 320.686364 530.734222 
L 324.490909 534.07715 
L 328.295455 534.07715 
L 332.1 534.07715 
L 335.904545 534.07715 
L 339.709091 534.07715 
L 343.513636 534.07715 
L 347.318182 534.07715 
L 351.122727 534.07715 
L 354.927273 516.812707 
L 358.731818 532.405834 
L 362.536364 540.285572 
L 366.340909 543.628647 
L 370.145455 543.628647 
L 373.95 543.628647 
L 377.754545 543.628647 
L 381.559091 543.628647 
L 385.363636 543.628647 
L 389.168182 543.628647 
L 392.972727 543.628647 
L 396.777273 524.525653 
L 400.581818 539.425568 
L 404.386364 546.327202 
L 408.190909 549.669982 
L 411.995455 549.669982 
L 415.8 549.669982 
L 419.604545 549.669982 
L 423.409091 549.669982 
L 427.213636 549.669982 
L 431.018182 549.669982 
L 434.822727 549.669982 
L 438.627273 528.202607 
L 442.431818 541.957035 
L 446.236364 549.837069 
L 450.040909 553.346936 
L 453.845455 553.346936 
L 457.65 553.346936 
L 461.454545 553.346936 
L 465.259091 553.346936 
L 469.063636 553.346936 
L 472.868182 553.346936 
L 476.672727 553.346936 
L 480.477273 528.895671 
L 484.281818 543.795439 
L 488.086364 551.508533 
L 491.890909 554.04 
L 495.695455 554.04 
L 499.5 554.04 
L 503.304545 554.04 
L 507.109091 554.04 
L 510.913636 554.04 
L 514.718182 554.04 
L 518.522727 554.04 
L 522.327273 528.895671 
L 526.131818 543.795439 
L 529.936364 551.508533 
L 533.740909 554.04 
L 537.545455 554.04 
L 541.35 554.04 
L 545.154545 554.04 
L 548.959091 554.04 
L 552.763636 554.04 
L 556.568182 554.04 
L 560.372727 554.04 
" style="fill:none;stroke:#800080;stroke-dasharray:7.4,3.2;stroke-dashoffset:0;stroke-width:2;"/>
   </g>
   <g id="line2d_46">
    <path clip-path="url(#p23825b7e48)" d="M 103.827273 313.318558 
L 107.631818 344.671309 
L 111.436364 361.242836 
L 115.240909 367.28417 
L 119.045455 369.122722 
L 122.85 369.122722 
L 126.654545 369.122722 
L 130.459091 369.122722 
L 134.263636 369.122722 
L 138.068182 369.122722 
L 141.872727 369.122722 
L 145.677273 379.367135 
L 149.481818 404.511464 
L 153.286364 420.271383 
L 157.090909 425.619801 
L 160.895455 426.313013 
L 164.7 426.313013 
L 168.504545 426.313013 
L 172.309091 426.313013 
L 176.113636 426.313013 
L 179.918182 426.313013 
L 183.722727 426.313013 
L 187.527273 428.151564 
L 191.331818 451.457342 
L 195.136364 462.847094 
L 198.940909 466.357257 
L 202.745455 468.028573 
L 206.55 468.028573 
L 210.354545 468.028573 
L 214.159091 468.028573 
L 217.963636 468.028573 
L 221.768182 468.028573 
L 225.572727 468.028573 
L 229.377273 462.847094 
L 233.181818 483.788492 
L 236.986364 493.33999 
L 240.790909 496.849857 
L 244.595455 497.542921 
L 248.4 497.542921 
L 252.204545 497.542921 
L 256.009091 497.542921 
L 259.813636 497.542921 
L 263.618182 497.542921 
L 267.422727 497.542921 
L 271.227273 488.158511 
L 275.031818 507.094418 
L 278.836364 516.645915 
L 282.640909 520.32287 
L 286.445455 520.32287 
L 290.25 520.32287 
L 294.054545 520.32287 
L 297.859091 520.32287 
L 301.663636 520.32287 
L 305.468182 520.32287 
L 309.272727 520.32287 
L 313.077273 505.255867 
L 316.881818 523.832737 
L 320.686364 530.734222 
L 324.490909 534.07715 
L 328.295455 534.07715 
L 332.1 534.07715 
L 335.904545 534.07715 
L 339.709091 534.07715 
L 343.513636 534.07715 
L 347.318182 534.07715 
L 351.122727 534.07715 
L 354.927273 516.812707 
L 358.731818 532.405834 
L 362.536364 540.285572 
L 366.340909 543.628647 
L 370.145455 543.628647 
L 373.95 543.628647 
L 377.754545 543.628647 
L 381.559091 543.628647 
L 385.363636 543.628647 
L 389.168182 543.628647 
L 392.972727 543.628647 
L 396.777273 524.525653 
L 400.581818 539.425568 
L 404.386364 546.327202 
L 408.190909 549.669982 
L 411.995455 549.669982 
L 415.8 549.669982 
L 419.604545 549.669982 
L 423.409091 549.669982 
L 427.213636 549.669982 
L 431.018182 549.669982 
L 434.822727 549.669982 
L 438.627273 528.202607 
L 442.431818 541.957035 
L 446.236364 549.837069 
L 450.040909 553.346936 
L 453.845455 553.346936 
L 457.65 553.346936 
L 461.454545 553.346936 
L 465.259091 553.346936 
L 469.063636 553.346936 
L 472.868182 553.346936 
L 476.672727 553.346936 
L 480.477273 528.895671 
L 484.281818 543.795439 
L 488.086364 551.508533 
L 491.890909 554.04 
L 495.695455 554.04 
L 499.5 554.04 
L 503.304545 554.04 
L 507.109091 554.04 
L 510.913636 554.04 
L 514.718182 554.04 
L 518.522727 554.04 
L 522.327273 528.895671 
L 526.131818 543.795439 
L 529.936364 551.508533 
L 533.740909 554.04 
L 537.545455 554.04 
L 541.35 554.04 
L 545.154545 554.04 
L 548.959091 554.04 
L 552.763636 554.04 
L 556.568182 554.04 
L 560.372727 554.04 
" style="fill:none;stroke:#ff0000;stroke-linecap:square;stroke-width:2;"/>
   </g>
   <g id="line2d_47">
    <path clip-path="url(#p23825b7e48)" d="M 103.827273 313.318558 
L 107.631818 344.671309 
L 111.436364 361.242836 
L 115.240909 367.28417 
L 119.045455 369.122722 
L 122.85 369.122722 
L 126.654545 369.122722 
L 130.459091 369.122722 
L 134.263636 369.122722 
L 138.068182 369.122722 
L 141.872727 369.122722 
L 145.677273 379.367135 
L 149.481818 404.511464 
L 153.286364 420.271383 
L 157.090909 425.619801 
L 160.895455 426.313013 
L 164.7 426.313013 
L 168.504545 426.313013 
L 172.309091 426.313013 
L 176.113636 426.313013 
L 179.918182 426.313013 
L 183.722727 426.313013 
L 187.527273 428.151564 
L 191.331818 451.457342 
L 195.136364 462.847094 
L 198.940909 466.357257 
L 202.745455 468.028573 
L 206.55 468.028573 
L 210.354545 468.028573 
L 214.159091 468.028573 
L 217.963636 468.028573 
L 221.768182 468.028573 
L 225.572727 468.028573 
L 229.377273 462.847094 
L 233.181818 483.788492 
L 236.986364 493.33999 
L 240.790909 496.849857 
L 244.595455 497.542921 
L 248.4 497.542921 
L 252.204545 497.542921 
L 256.009091 497.542921 
L 259.813636 497.542921 
L 263.618182 497.542921 
L 267.422727 497.542921 
L 271.227273 488.158511 
L 275.031818 507.094418 
L 278.836364 516.645915 
L 282.640909 520.32287 
L 286.445455 520.32287 
L 290.25 520.32287 
L 294.054545 520.32287 
L 297.859091 520.32287 
L 301.663636 520.32287 
L 305.468182 520.32287 
L 309.272727 520.32287 
L 313.077273 505.255867 
L 316.881818 523.832737 
L 320.686364 530.734222 
L 324.490909 534.07715 
L 328.295455 534.07715 
L 332.1 534.07715 
L 335.904545 534.07715 
L 339.709091 534.07715 
L 343.513636 534.07715 
L 347.318182 534.07715 
L 351.122727 534.07715 
L 354.927273 516.812707 
L 358.731818 532.405834 
L 362.536364 540.285572 
L 366.340909 543.628647 
L 370.145455 543.628647 
L 373.95 543.628647 
L 377.754545 543.628647 
L 381.559091 543.628647 
L 385.363636 543.628647 
L 389.168182 543.628647 
L 392.972727 543.628647 
L 396.777273 524.525653 
L 400.581818 539.425568 
L 404.386364 546.327202 
L 408.190909 549.669982 
L 411.995455 549.669982 
L 415.8 549.669982 
L 419.604545 549.669982 
L 423.409091 549.669982 
L 427.213636 549.669982 
L 431.018182 549.669982 
L 434.822727 549.669982 
L 438.627273 528.202607 
L 442.431818 541.957035 
L 446.236364 549.837069 
L 450.040909 553.346936 
L 453.845455 553.346936 
L 457.65 553.346936 
L 461.454545 553.346936 
L 465.259091 553.346936 
L 469.063636 553.346936 
L 472.868182 553.346936 
L 476.672727 553.346936 
L 480.477273 528.895671 
L 484.281818 543.795439 
L 488.086364 551.508533 
L 491.890909 554.04 
L 495.695455 554.04 
L 499.5 554.04 
L 503.304545 554.04 
L 507.109091 554.04 
L 510.913636 554.04 
L 514.718182 554.04 
L 518.522727 554.04 
L 522.327273 528.895671 
L 526.131818 543.795439 
L 529.936364 551.508533 
L 533.740909 554.04 
L 537.545455 554.04 
L 541.35 554.04 
L 545.154545 554.04 
L 548.959091 554.04 
L 552.763636 554.04 
L 556.568182 554.04 
L 560.372727 554.04 
" style="fill:none;stroke:#008000;stroke-dasharray:7.4,3.2;stroke-dashoffset:0;stroke-width:2;"/>
   </g>
   <g id="line2d_48">
    <path clip-path="url(#p23825b7e48)" d="M 103.827273 313.318558 
L 107.631818 344.671309 
L 111.436364 361.242836 
L 115.240909 367.28417 
L 119.045455 369.122722 
L 122.85 369.122722 
L 126.654545 369.122722 
L 130.459091 369.122722 
L 134.263636 369.122722 
L 138.068182 369.122722 
L 141.872727 369.122722 
L 145.677273 379.367135 
L 149.481818 404.511464 
L 153.286364 420.271383 
L 157.090909 425.619801 
L 160.895455 426.313013 
L 164.7 426.313013 
L 168.504545 426.313013 
L 172.309091 426.313013 
L 176.113636 426.313013 
L 179.918182 426.313013 
L 183.722727 426.313013 
L 187.527273 428.151564 
L 191.331818 451.457342 
L 195.136364 462.847094 
L 198.940909 466.357257 
L 202.745455 468.028573 
L 206.55 468.028573 
L 210.354545 468.028573 
L 214.159091 468.028573 
L 217.963636 468.028573 
L 221.768182 468.028573 
L 225.572727 468.028573 
L 229.377273 462.847094 
L 233.181818 483.788492 
L 236.986364 493.33999 
L 240.790909 496.849857 
L 244.595455 497.542921 
L 248.4 497.542921 
L 252.204545 497.542921 
L 256.009091 497.542921 
L 259.813636 497.542921 
L 263.618182 497.542921 
L 267.422727 497.542921 
L 271.227273 488.158511 
L 275.031818 507.094418 
L 278.836364 516.645915 
L 282.640909 520.32287 
L 286.445455 520.32287 
L 290.25 520.32287 
L 294.054545 520.32287 
L 297.859091 520.32287 
L 301.663636 520.32287 
L 305.468182 520.32287 
L 309.272727 520.32287 
L 313.077273 505.255867 
L 316.881818 523.832737 
L 320.686364 530.734222 
L 324.490909 534.07715 
L 328.295455 534.07715 
L 332.1 534.07715 
L 335.904545 534.07715 
L 339.709091 534.07715 
L 343.513636 534.07715 
L 347.318182 534.07715 
L 351.122727 534.07715 
L 354.927273 516.812707 
L 358.731818 532.405834 
L 362.536364 540.285572 
L 366.340909 543.628647 
L 370.145455 543.628647 
L 373.95 543.628647 
L 377.754545 543.628647 
L 381.559091 543.628647 
L 385.363636 543.628647 
L 389.168182 543.628647 
L 392.972727 543.628647 
L 396.777273 524.525653 
L 400.581818 539.425568 
L 404.386364 546.327202 
L 408.190909 549.669982 
L 411.995455 549.669982 
L 415.8 549.669982 
L 419.604545 549.669982 
L 423.409091 549.669982 
L 427.213636 549.669982 
L 431.018182 549.669982 
L 434.822727 549.669982 
L 438.627273 528.202607 
L 442.431818 541.957035 
L 446.236364 549.837069 
L 450.040909 553.346936 
L 453.845455 553.346936 
L 457.65 553.346936 
L 461.454545 553.346936 
L 465.259091 553.346936 
L 469.063636 553.346936 
L 472.868182 553.346936 
L 476.672727 553.346936 
L 480.477273 528.895671 
L 484.281818 543.795439 
L 488.086364 551.508533 
L 491.890909 554.04 
L 495.695455 554.04 
L 499.5 554.04 
L 503.304545 554.04 
L 507.109091 554.04 
L 510.913636 554.04 
L 514.718182 554.04 
L 518.522727 554.04 
L 522.327273 528.895671 
L 526.131818 543.795439 
L 529.936364 551.508533 
L 533.740909 554.04 
L 537.545455 554.04 
L 541.35 554.04 
L 545.154545 554.04 
L 548.959091 554.04 
L 552.763636 554.04 
L 556.568182 554.04 
L 560.372727 554.04 
" style="fill:none;stroke:#008080;stroke-linecap:square;stroke-width:2;"/>
   </g>
   <g id="patch_3">
    <path d="M 81 576.72 
L 81 77.76 
" style="fill:none;stroke:#000000;stroke-linecap:square;stroke-linejoin:miter;stroke-width:0.8;"/>
   </g>
   <g id="patch_4">
    <path d="M 583.2 576.72 
L 583.2 77.76 
" style="fill:none;stroke:#000000;stroke-linecap:square;stroke-linejoin:miter;stroke-width:0.8;"/>
   </g>
   <g id="patch_5">
    <path d="M 81 576.72 
L 583.2 576.72 
" style="fill:none;stroke:#000000;stroke-linecap:square;stroke-linejoin:miter;stroke-width:0.8;"/>
   </g>
   <g id="patch_6">
    <path d="M 81 77.76 
L 583.2 77.76 
" style="fill:none;stroke:#000000;stroke-linecap:square;stroke-linejoin:miter;stroke-width:0.8;"/>
   </g>
   <g id="text_17">
    <!-- Data -->
    <defs>
     <path d="M 19.671875 64.796875 
L 19.671875 8.109375 
L 31.59375 8.109375 
Q 46.6875 8.109375 53.6875 14.9375 
Q 60.6875 21.78125 60.6875 36.53125 
Q 60.6875 51.171875 53.6875 57.984375 
Q 46.6875 64.796875 31.59375 64.796875 
z
M 9.8125 72.90625 
L 30.078125 72.90625 
Q 51.265625 72.90625 61.171875 64.09375 
Q 71.09375 55.28125 71.09375 36.53125 
Q 71.09375 17.671875 61.125 8.828125 
Q 51.171875 0 30.078125 0 
L 9.8125 0 
z
" id="DejaVuSans-44"/>
     <path d="M 34.28125 27.484375 
Q 23.390625 27.484375 19.1875 25 
Q 14.984375 22.515625 14.984375 16.5 
Q 14.984375 11.71875 18.140625 8.90625 
Q 21.296875 6.109375 26.703125 6.109375 
Q 34.1875 6.109375 38.703125 11.40625 
Q 43.21875 16.703125 43.21875 25.484375 
L 43.21875 27.484375 
z
M 52.203125 31.203125 
L 52.203125 0 
L 43.21875 0 
L 43.21875 8.296875 
Q 40.140625 3.328125 35.546875 0.953125 
Q 30.953125 -1.421875 24.3125 -1.421875 
Q 15.921875 -1.421875 10.953125 3.296875 
Q 6 8.015625 6 15.921875 
Q 6 25.140625 12.171875 29.828125 
Q 18.359375 34.515625 30.609375 34.515625 
L 43.21875 34.515625 
L 43.21875 35.40625 
Q 43.21875 41.609375 39.140625 45 
Q 35.0625 48.390625 27.6875 48.390625 
Q 23 48.390625 18.546875 47.265625 
Q 14.109375 46.140625 10.015625 43.890625 
L 10.015625 52.203125 
Q 14.9375 54.109375 19.578125 55.046875 
Q 24.21875 56 28.609375 56 
Q 40.484375 56 46.34375 49.84375 
Q 52.203125 43.703125 52.203125 31.203125 
z
" id="DejaVuSans-61"/>
     <path d="M 18.3125 70.21875 
L 18.3125 54.6875 
L 36.8125 54.6875 
L 36.8125 47.703125 
L 18.3125 47.703125 
L 18.3125 18.015625 
Q 18.3125 11.328125 20.140625 9.421875 
Q 21.96875 7.515625 27.59375 7.515625 
L 36.8125 7.515625 
L 36.8125 0 
L 27.59375 0 
Q 17.1875 0 13.234375 3.875 
Q 9.28125 7.765625 9.28125 18.015625 
L 9.28125 47.703125 
L 2.6875 47.703125 
L 2.6875 54.6875 
L 9.28125 54.6875 
L 9.28125 70.21875 
z
" id="DejaVuSans-74"/>
    </defs>
    <g transform="translate(305.835781 71.76)scale(0.22 -0.22)">
     <use xlink:href="#DejaVuSans-44"/>
     <use x="77.001953" xlink:href="#DejaVuSans-61"/>
     <use x="138.28125" xlink:href="#DejaVuSans-74"/>
     <use x="177.490234" xlink:href="#DejaVuSans-61"/>
    </g>
   </g>
   <g id="legend_1">
    <g id="patch_7">
     <path d="M 264.85 680.885 
L 399.35 680.885 
Q 403.35 680.885 403.35 676.885 
L 403.35 91.76 
Q 403.35 87.76 399.35 87.76 
L 264.85 87.76 
Q 260.85 87.76 260.85 91.76 
L 260.85 676.885 
Q 260.85 680.885 264.85 680.885 
z
" style="fill:#ffffff;opacity:0.8;stroke:#cccccc;stroke-linejoin:miter;"/>
    </g>
    <g id="line2d_49">
     <path d="M 268.85 103.956875 
L 308.85 103.956875 
" style="fill:none;stroke:#cd6600;stroke-dasharray:7.4,3.2;stroke-dashoffset:0;stroke-width:2;"/>
    </g>
    <g id="line2d_50"/>
    <g id="text_18">
     <!-- data1 -->
     <defs>
      <path d="M 45.40625 46.390625 
L 45.40625 75.984375 
L 54.390625 75.984375 
L 54.390625 0 
L 45.40625 0 
L 45.40625 8.203125 
Q 42.578125 3.328125 38.25 0.953125 
Q 33.9375 -1.421875 27.875 -1.421875 
Q 17.96875 -1.421875 11.734375 6.484375 
Q 5.515625 14.40625 5.515625 27.296875 
Q 5.515625 40.1875 11.734375 48.09375 
Q 17.96875 56 27.875 56 
Q 33.9375 56 38.25 53.625 
Q 42.578125 51.265625 45.40625 46.390625 
z
M 14.796875 27.296875 
Q 14.796875 17.390625 18.875 11.75 
Q 22.953125 6.109375 30.078125 6.109375 
Q 37.203125 6.109375 41.296875 11.75 
Q 45.40625 17.390625 45.40625 27.296875 
Q 45.40625 37.203125 41.296875 42.84375 
Q 37.203125 48.484375 30.078125 48.484375 
Q 22.953125 48.484375 18.875 42.84375 
Q 14.796875 37.203125 14.796875 27.296875 
z
" id="DejaVuSans-64"/>
     </defs>
     <g style="fill:#cd6600;" transform="translate(324.85 110.956875)scale(0.2 -0.2)">
      <use xlink:href="#DejaVuSans-64"/>
      <use x="63.476562" xlink:href="#DejaVuSans-61"/>
      <use x="124.755859" xlink:href="#DejaVuSans-74"/>
      <use x="163.964844" xlink:href="#DejaVuSans-61"/>
      <use x="225.244141" xlink:href="#DejaVuSans-31"/>
     </g>
    </g>
    <g id="line2d_51">
     <path d="M 268.85 133.313125 
L 308.85 133.313125 
" style="fill:none;stroke:#ff00ff;stroke-linecap:square;stroke-width:2;"/>
    </g>
    <g id="line2d_52"/>
    <g id="text_19">
     <!-- data2 -->
     <g style="fill:#ff00ff;" transform="translate(324.85 140.313125)scale(0.2 -0.2)">
      <use xlink:href="#DejaVuSans-64"/>
      <use x="63.476562" xlink:href="#DejaVuSans-61"/>
      <use x="124.755859" xlink:href="#DejaVuSans-74"/>
      <use x="163.964844" xlink:href="#DejaVuSans-61"/>
      <use x="225.244141" xlink:href="#DejaVuSans-32"/>
     </g>
    </g>
    <g id="line2d_53">
     <path d="M 268.85 162.669375 
L 308.85 162.669375 
" style="fill:none;stroke:#00ffff;stroke-dasharray:7.4,3.2;stroke-dashoffset:0;stroke-width:2;"/>
    </g>
    <g id="line2d_54"/>
    <g id="text_20">
     <!-- data3 -->
     <g style="fill:#00ffff;" transform="translate(324.85 169.669375)scale(0.2 -0.2)">
      <use xlink:href="#DejaVuSans-64"/>
      <use x="63.476562" xlink:href="#DejaVuSans-61"/>
      <use x="124.755859" xlink:href="#DejaVuSans-74"/>
      <use x="163.964844" xlink:href="#DejaVuSans-61"/>
      <use x="225.244141" xlink:href="#DejaVuSans-33"/>
     </g>
    </g>
    <g id="line2d_55">
     <path d="M 268.85 192.025625 
L 308.85 192.025625 
" style="fill:none;stroke:#808000;stroke-linecap:square;stroke-width:2;"/>
    </g>
    <g id="line2d_56"/>
    <g id="text_21">
     <!-- data4 -->
     <g style="fill:#808000;" transform="translate(324.85 199.025625)scale(0.2 -0.2)">
      <use xlink:href="#DejaVuSans-64"/>
      <use x="63.476562" xlink:href="#DejaVuSans-61"/>
      <use x="124.755859" xlink:href="#DejaVuSans-74"/>
      <use x="163.964844" xlink:href="#DejaVuSans-61"/>
      <use x="225.244141" xlink:href="#DejaVuSans-34"/>
     </g>
    </g>
    <g id="line2d_57">
     <path d="M 268.85 221.381875 
L 308.85 221.381875 
" style="fill:none;stroke:#800080;stroke-dasharray:7.4,3.2;stroke-dashoffset:0;stroke-width:2;"/>
    </g>
    <g id="line2d_58"/>
    <g id="text_22">
     <!-- data5 -->
     <g style="fill:#800080;" transform="translate(324.85 228.381875)scale(0.2 -0.2)">
      <use xlink:href="#DejaVuSans-64"/>
      <use x="63.476562" xlink:href="#DejaVuSans-61"/>
      <use x="124.755859" xlink:href="#DejaVuSans-74"/>
      <use x="163.964844" xlink:href="#DejaVuSans-61"/>
      <use x="225.244141" xlink:href="#DejaVuSans-35"/>
     </g>
    </g>
    <g id="line2d_59">
     <path d="M 268.85 250.738125 
L 308.85 250.738125 
" style="fill:none;stroke:#ff0000;stroke-linecap:square;stroke-width:2;"/>
    </g>
    <g id="line2d_60"/>
    <g id="text_23">
     <!-- data6 -->
     <g style="fill:#ff0000;" transform="translate(324.85 257.738125)scale(0.2 -0.2)">
      <use xlink:href="#DejaVuSans-64"/>
      <use x="63.476562" xlink:href="#DejaVuSans-61"/>
      <use x="124.755859" xlink:href="#DejaVuSans-74"/>
      <use x="163.964844" xlink:href="#DejaVuSans-61"/>
      <use x="225.244141" xlink:href="#DejaVuSans-36"/>
     </g>
    </g>
    <g id="line2d_61">
     <path d="M 268.85 280.094375 
L 308.85 280.094375 
" style="fill:none;stroke:#008000;stroke-dasharray:7.4,3.2;stroke-dashoffset:0;stroke-width:2;"/>
    </g>
    <g id="line2d_62"/>
    <g id="text_24">
     <!-- data7 -->
     <defs>
      <path d="M 8.203125 72.90625 
L 55.078125 72.90625 
L 55.078125 68.703125 
L 28.609375 0 
L 18.3125 0 
L 43.21875 64.59375 
L 8.203125 64.59375 
z
" id="DejaVuSans-37"/>
     </defs>
     <g style="fill:#008000;" transform="translate(324.85 287.094375)scale(0.2 -0.2)">
      <use xlink:href="#DejaVuSans-64"/>
      <use x="63.476562" xlink:href="#DejaVuSans-61"/>
      <use x="124.755859" xlink:href="#DejaVuSans-74"/>
      <use x="163.964844" xlink:href="#DejaVuSans-61"/>
      <use x="225.244141" xlink:href="#DejaVuSans-37"/>
     </g>
    </g>
    <g id="line2d_63">
     <path d="M 268.85 309.450625 
L 308.85 309.450625 
" style="fill:none;stroke:#008080;stroke-linecap:square;stroke-width:2;"/>
    </g>
    <g id="line2d_64"/>
    <g id="text_25">
     <!-- data8 -->
     <g style="fill:#008080;" transform="translate(324.85 316.450625)scale(0.2 -0.2)">
      <use xlink:href="#DejaVuSans-64"/>
      <use x="63.476562" xlink:href="#DejaVuSans-61"/>
      <use x="124.755859" xlink:href="#DejaVuSans-74"/>
      <use x="163.964844" xlink:href="#DejaVuSans-61"/>
      <use x="225.244141" xlink:href="#DejaVuSans-38"/>
     </g>
    </g>
    <g id="line2d_65">
     <path d="M 268.85 338.806875 
L 308.85 338.806875 
" style="fill:none;stroke:#000000;stroke-dasharray:7.4,3.2;stroke-dashoffset:0;stroke-width:2;"/>
    </g>
    <g id="line2d_66"/>
    <g id="text_26">
     <!-- data9 -->
     <defs>
      <path d="M 10.984375 1.515625 
L 10.984375 10.5 
Q 14.703125 8.734375 18.5 7.8125 
Q 22.3125 6.890625 25.984375 6.890625 
Q 35.75 6.890625 40.890625 13.453125 
Q 46.046875 20.015625 46.78125 33.40625 
Q 43.953125 29.203125 39.59375 26.953125 
Q 35.25 24.703125 29.984375 24.703125 
Q 19.046875 24.703125 12.671875 31.3125 
Q 6.296875 37.9375 6.296875 49.421875 
Q 6.296875 60.640625 12.9375 67.421875 
Q 19.578125 74.21875 30.609375 74.21875 
Q 43.265625 74.21875 49.921875 64.515625 
Q 56.59375 54.828125 56.59375 36.375 
Q 56.59375 19.140625 48.40625 8.859375 
Q 40.234375 -1.421875 26.421875 -1.421875 
Q 22.703125 -1.421875 18.890625 -0.6875 
Q 15.09375 0.046875 10.984375 1.515625 
z
M 30.609375 32.421875 
Q 37.25 32.421875 41.125 36.953125 
Q 45.015625 41.5 45.015625 49.421875 
Q 45.015625 57.28125 41.125 61.84375 
Q 37.25 66.40625 30.609375 66.40625 
Q 23.96875 66.40625 20.09375 61.84375 
Q 16.21875 57.28125 16.21875 49.421875 
Q 16.21875 41.5 20.09375 36.953125 
Q 23.96875 32.421875 30.609375 32.421875 
z
" id="DejaVuSans-39"/>
     </defs>
     <g transform="translate(324.85 345.806875)scale(0.2 -0.2)">
      <use xlink:href="#DejaVuSans-64"/>
      <use x="63.476562" xlink:href="#DejaVuSans-61"/>
      <use x="124.755859" xlink:href="#DejaVuSans-74"/>
      <use x="163.964844" xlink:href="#DejaVuSans-61"/>
      <use x="225.244141" xlink:href="#DejaVuSans-39"/>
     </g>
    </g>
    <g id="line2d_67">
     <path d="M 268.85 368.163125 
L 308.85 368.163125 
" style="fill:none;stroke:#8a977b;stroke-linecap:square;stroke-width:2;"/>
    </g>
    <g id="line2d_68"/>
    <g id="text_27">
     <!-- data10 -->
     <g style="fill:#8a977b;" transform="translate(324.85 375.163125)scale(0.2 -0.2)">
      <use xlink:href="#DejaVuSans-64"/>
      <use x="63.476562" xlink:href="#DejaVuSans-61"/>
      <use x="124.755859" xlink:href="#DejaVuSans-74"/>
      <use x="163.964844" xlink:href="#DejaVuSans-61"/>
      <use x="225.244141" xlink:href="#DejaVuSans-31"/>
      <use x="288.867188" xlink:href="#DejaVuSans-30"/>
     </g>
    </g>
    <g id="line2d_69">
     <path d="M 268.85 397.519375 
L 308.85 397.519375 
" style="fill:none;stroke:#1d8308;stroke-dasharray:7.4,3.2;stroke-dashoffset:0;stroke-width:2;"/>
    </g>
    <g id="line2d_70"/>
    <g id="text_28">
     <!-- data11 -->
     <g style="fill:#1d8308;" transform="translate(324.85 404.519375)scale(0.2 -0.2)">
      <use xlink:href="#DejaVuSans-64"/>
      <use x="63.476562" xlink:href="#DejaVuSans-61"/>
      <use x="124.755859" xlink:href="#DejaVuSans-74"/>
      <use x="163.964844" xlink:href="#DejaVuSans-61"/>
      <use x="225.244141" xlink:href="#DejaVuSans-31"/>
      <use x="288.867188" xlink:href="#DejaVuSans-31"/>
     </g>
    </g>
    <g id="line2d_71">
     <path d="M 268.85 426.875625 
L 308.85 426.875625 
" style="fill:none;stroke:#0000ff;stroke-linecap:square;stroke-width:2;"/>
    </g>
    <g id="line2d_72"/>
    <g id="text_29">
     <!-- data12 -->
     <g style="fill:#0000ff;" transform="translate(324.85 433.875625)scale(0.2 -0.2)">
      <use xlink:href="#DejaVuSans-64"/>
      <use x="63.476562" xlink:href="#DejaVuSans-61"/>
      <use x="124.755859" xlink:href="#DejaVuSans-74"/>
      <use x="163.964844" xlink:href="#DejaVuSans-61"/>
      <use x="225.244141" xlink:href="#DejaVuSans-31"/>
      <use x="288.867188" xlink:href="#DejaVuSans-32"/>
     </g>
    </g>
    <g id="line2d_73">
     <path d="M 268.85 456.231875 
L 308.85 456.231875 
" style="fill:none;stroke:#cd6600;stroke-dasharray:7.4,3.2;stroke-dashoffset:0;stroke-width:2;"/>
    </g>
    <g id="line2d_74"/>
    <g id="text_30">
     <!-- data13 -->
     <g style="fill:#cd6600;" transform="translate(324.85 463.231875)scale(0.2 -0.2)">
      <use xlink:href="#DejaVuSans-64"/>
      <use x="63.476562" xlink:href="#DejaVuSans-61"/>
      <use x="124.755859" xlink:href="#DejaVuSans-74"/>
      <use x="163.964844" xlink:href="#DejaVuSans-61"/>
      <use x="225.244141" xlink:href="#DejaVuSans-31"/>
      <use x="288.867188" xlink:href="#DejaVuSans-33"/>
     </g>
    </g>
    <g id="line2d_75">
     <path d="M 268.85 485.588125 
L 308.85 485.588125 
" style="fill:none;stroke:#ff00ff;stroke-linecap:square;stroke-width:2;"/>
    </g>
    <g id="line2d_76"/>
    <g id="text_31">
     <!-- data14 -->
     <g style="fill:#ff00ff;" transform="translate(324.85 492.588125)scale(0.2 -0.2)">
      <use xlink:href="#DejaVuSans-64"/>
      <use x="63.476562" xlink:href="#DejaVuSans-61"/>
      <use x="124.755859" xlink:href="#DejaVuSans-74"/>
      <use x="163.964844" xlink:href="#DejaVuSans-61"/>
      <use x="225.244141" xlink:href="#DejaVuSans-31"/>
      <use x="288.867188" xlink:href="#DejaVuSans-34"/>
     </g>
    </g>
    <g id="line2d_77">
     <path d="M 268.85 514.944375 
L 308.85 514.944375 
" style="fill:none;stroke:#00ffff;stroke-dasharray:7.4,3.2;stroke-dashoffset:0;stroke-width:2;"/>
    </g>
    <g id="line2d_78"/>
    <g id="text_32">
     <!-- data15 -->
     <g style="fill:#00ffff;" transform="translate(324.85 521.944375)scale(0.2 -0.2)">
      <use xlink:href="#DejaVuSans-64"/>
      <use x="63.476562" xlink:href="#DejaVuSans-61"/>
      <use x="124.755859" xlink:href="#DejaVuSans-74"/>
      <use x="163.964844" xlink:href="#DejaVuSans-61"/>
      <use x="225.244141" xlink:href="#DejaVuSans-31"/>
      <use x="288.867188" xlink:href="#DejaVuSans-35"/>
     </g>
    </g>
    <g id="line2d_79">
     <path d="M 268.85 544.300625 
L 308.85 544.300625 
" style="fill:none;stroke:#808000;stroke-linecap:square;stroke-width:2;"/>
    </g>
    <g id="line2d_80"/>
    <g id="text_33">
     <!-- data16 -->
     <g style="fill:#808000;" transform="translate(324.85 551.300625)scale(0.2 -0.2)">
      <use xlink:href="#DejaVuSans-64"/>
      <use x="63.476562" xlink:href="#DejaVuSans-61"/>
      <use x="124.755859" xlink:href="#DejaVuSans-74"/>
      <use x="163.964844" xlink:href="#DejaVuSans-61"/>
      <use x="225.244141" xlink:href="#DejaVuSans-31"/>
      <use x="288.867188" xlink:href="#DejaVuSans-36"/>
     </g>
    </g>
    <g id="line2d_81">
     <path d="M 268.85 573.656875 
L 308.85 573.656875 
" style="fill:none;stroke:#800080;stroke-dasharray:7.4,3.2;stroke-dashoffset:0;stroke-width:2;"/>
    </g>
    <g id="line2d_82"/>
    <g id="text_34">
     <!-- data17 -->
     <g style="fill:#800080;" transform="translate(324.85 580.656875)scale(0.2 -0.2)">
      <use xlink:href="#DejaVuSans-64"/>
      <use x="63.476562" xlink:href="#DejaVuSans-61"/>
      <use x="124.755859" xlink:href="#DejaVuSans-74"/>
      <use x="163.964844" xlink:href="#DejaVuSans-61"/>
      <use x="225.244141" xlink:href="#DejaVuSans-31"/>
      <use x="288.867188" xlink:href="#DejaVuSans-37"/>
     </g>
    </g>
    <g id="line2d_83">
     <path d="M 268.85 603.013125 
L 308.85 603.013125 
" style="fill:none;stroke:#ff0000;stroke-linecap:square;stroke-width:2;"/>
    </g>
    <g id="line2d_84"/>
    <g id="text_35">
     <!-- data18 -->
     <g style="fill:#ff0000;" transform="translate(324.85 610.013125)scale(0.2 -0.2)">
      <use xlink:href="#DejaVuSans-64"/>
      <use x="63.476562" xlink:href="#DejaVuSans-61"/>
      <use x="124.755859" xlink:href="#DejaVuSans-74"/>
      <use x="163.964844" xlink:href="#DejaVuSans-61"/>
      <use x="225.244141" xlink:href="#DejaVuSans-31"/>
      <use x="288.867188" xlink:href="#DejaVuSans-38"/>
     </g>
    </g>
    <g id="line2d_85">
     <path d="M 268.85 632.369375 
L 308.85 632.369375 
" style="fill:none;stroke:#008000;stroke-dasharray:7.4,3.2;stroke-dashoffset:0;stroke-width:2;"/>
    </g>
    <g id="line2d_86"/>
    <g id="text_36">
     <!-- data19 -->
     <g style="fill:#008000;" transform="translate(324.85 639.369375)scale(0.2 -0.2)">
      <use xlink:href="#DejaVuSans-64"/>
      <use x="63.476562" xlink:href="#DejaVuSans-61"/>
      <use x="124.755859" xlink:href="#DejaVuSans-74"/>
      <use x="163.964844" xlink:href="#DejaVuSans-61"/>
      <use x="225.244141" xlink:href="#DejaVuSans-31"/>
      <use x="288.867188" xlink:href="#DejaVuSans-39"/>
     </g>
    </g>
    <g id="line2d_87">
     <path style="fill:none;stroke:#008080;stroke-linecap:square;stroke-width:2;"/>
    </g>
    <g id="line2d_88"/>
    <g id="text_37">
     <!-- data20 -->
     <g style="fill:#008080;" transform="translate(324.85 668.725625)scale(0.2 -0.2)">
      <use xlink:href="#DejaVuSans-64"/>
      <use x="63.476562" xlink:href="#DejaVuSans-61"/>
      <use x="124.755859" xlink:href="#DejaVuSans-74"/>
      <use x="163.964844" xlink:href="#DejaVuSans-61"/>
      <use x="225.244141" xlink:href="#DejaVuSans-32"/>
      <use x="288.867188" xlink:href="#DejaVuSans-30"/>
     </g>
    </g>
   </g>
  </g>
 </g>
 <defs>
  <clipPath id="p23825b7e48">
   <rect height="498.96" width="502.2" x="81" y="77.76"/>
  </clipPath>
 </defs>
</svg>
