<?xml version="1.0" encoding="utf-8" standalone="no"?>
<!DOCTYPE svg PUBLIC "-//W3C//DTD SVG 1.1//EN"
  "http://www.w3.org/Graphics/SVG/1.1/DTD/svg11.dtd">
<!-- Created with matplotlib (http://matplotlib.org/) -->
<svg height="648pt" version="1.1" viewBox="0 0 648 648" width="648pt" xmlns="http://www.w3.org/2000/svg" xmlns:xlink="http://www.w3.org/1999/xlink">
 <defs>
  <style type="text/css">
*{stroke-linecap:butt;stroke-linejoin:round;}
  </style>
 </defs>
 <g id="figure_1">
  <g id="patch_1">
   <path d="M 0 648 
L 648 648 
L 648 0 
L 0 0 
z
" style="fill:#ffffff;"/>
  </g>
  <g id="axes_1">
   <g id="patch_2">
    <path d="M 81 576.72 
L 583.2 576.72 
L 583.2 77.76 
L 81 77.76 
z
" style="fill:#ffffff;"/>
   </g>
   <g id="matplotlib.axis_1">
    <g id="xtick_1">
     <g id="line2d_1">
      <path clip-path="url(#pf357919976)" d="M 99.215702 576.72 
L 99.215702 77.76 
" style="fill:none;stroke:#b0b0b0;stroke-linecap:square;stroke-width:0.8;"/>
     </g>
     <g id="line2d_2">
      <defs>
       <path d="M 0 0 
L 0 3.5 
" id="mf1da9374fd" style="stroke:#000000;stroke-width:0.8;"/>
      </defs>
      <g>
       <use style="stroke:#000000;stroke-width:0.8;" x="99.215702" xlink:href="#mf1da9374fd" y="576.72"/>
      </g>
     </g>
     <g id="text_1">
      <!-- 0 -->
      <defs>
       <path d="M 31.78125 66.40625 
Q 24.171875 66.40625 20.328125 58.90625 
Q 16.5 51.421875 16.5 36.375 
Q 16.5 21.390625 20.328125 13.890625 
Q 24.171875 6.390625 31.78125 6.390625 
Q 39.453125 6.390625 43.28125 13.890625 
Q 47.125 21.390625 47.125 36.375 
Q 47.125 51.421875 43.28125 58.90625 
Q 39.453125 66.40625 31.78125 66.40625 
z
M 31.78125 74.21875 
Q 44.046875 74.21875 50.515625 64.515625 
Q 56.984375 54.828125 56.984375 36.375 
Q 56.984375 17.96875 50.515625 8.265625 
Q 44.046875 -1.421875 31.78125 -1.421875 
Q 19.53125 -1.421875 13.0625 8.265625 
Q 6.59375 17.96875 6.59375 36.375 
Q 6.59375 54.828125 13.0625 64.515625 
Q 19.53125 74.21875 31.78125 74.21875 
z
" id="DejaVuSans-30"/>
      </defs>
      <g transform="translate(96.034452 591.318438)scale(0.1 -0.1)">
       <use xlink:href="#DejaVuSans-30"/>
      </g>
     </g>
    </g>
    <g id="xtick_2">
     <g id="line2d_3">
      <path clip-path="url(#pf357919976)" d="M 191.447107 576.72 
L 191.447107 77.76 
" style="fill:none;stroke:#b0b0b0;stroke-linecap:square;stroke-width:0.8;"/>
     </g>
     <g id="line2d_4">
      <g>
       <use style="stroke:#000000;stroke-width:0.8;" x="191.447107" xlink:href="#mf1da9374fd" y="576.72"/>
      </g>
     </g>
     <g id="text_2">
      <!-- 20 -->
      <defs>
       <path d="M 19.1875 8.296875 
L 53.609375 8.296875 
L 53.609375 0 
L 7.328125 0 
L 7.328125 8.296875 
Q 12.9375 14.109375 22.625 23.890625 
Q 32.328125 33.6875 34.8125 36.53125 
Q 39.546875 41.84375 41.421875 45.53125 
Q 43.3125 49.21875 43.3125 52.78125 
Q 43.3125 58.59375 39.234375 62.25 
Q 35.15625 65.921875 28.609375 65.921875 
Q 23.96875 65.921875 18.8125 64.3125 
Q 13.671875 62.703125 7.8125 59.421875 
L 7.8125 69.390625 
Q 13.765625 71.78125 18.9375 73 
Q 24.125 74.21875 28.421875 74.21875 
Q 39.75 74.21875 46.484375 68.546875 
Q 53.21875 62.890625 53.21875 53.421875 
Q 53.21875 48.921875 51.53125 44.890625 
Q 49.859375 40.875 45.40625 35.40625 
Q 44.1875 33.984375 37.640625 27.21875 
Q 31.109375 20.453125 19.1875 8.296875 
z
" id="DejaVuSans-32"/>
      </defs>
      <g transform="translate(185.084607 591.318438)scale(0.1 -0.1)">
       <use xlink:href="#DejaVuSans-32"/>
       <use x="63.623047" xlink:href="#DejaVuSans-30"/>
      </g>
     </g>
    </g>
    <g id="xtick_3">
     <g id="line2d_5">
      <path clip-path="url(#pf357919976)" d="M 283.678512 576.72 
L 283.678512 77.76 
" style="fill:none;stroke:#b0b0b0;stroke-linecap:square;stroke-width:0.8;"/>
     </g>
     <g id="line2d_6">
      <g>
       <use style="stroke:#000000;stroke-width:0.8;" x="283.678512" xlink:href="#mf1da9374fd" y="576.72"/>
      </g>
     </g>
     <g id="text_3">
      <!-- 40 -->
      <defs>
       <path d="M 37.796875 64.3125 
L 12.890625 25.390625 
L 37.796875 25.390625 
z
M 35.203125 72.90625 
L 47.609375 72.90625 
L 47.609375 25.390625 
L 58.015625 25.390625 
L 58.015625 17.1875 
L 47.609375 17.1875 
L 47.609375 0 
L 37.796875 0 
L 37.796875 17.1875 
L 4.890625 17.1875 
L 4.890625 26.703125 
z
" id="DejaVuSans-34"/>
      </defs>
      <g transform="translate(277.316012 591.318438)scale(0.1 -0.1)">
       <use xlink:href="#DejaVuSans-34"/>
       <use x="63.623047" xlink:href="#DejaVuSans-30"/>
      </g>
     </g>
    </g>
    <g id="xtick_4">
     <g id="line2d_7">
      <path clip-path="url(#pf357919976)" d="M 375.909917 576.72 
L 375.909917 77.76 
" style="fill:none;stroke:#b0b0b0;stroke-linecap:square;stroke-width:0.8;"/>
     </g>
     <g id="line2d_8">
      <g>
       <use style="stroke:#000000;stroke-width:0.8;" x="375.909917" xlink:href="#mf1da9374fd" y="576.72"/>
      </g>
     </g>
     <g id="text_4">
      <!-- 60 -->
      <defs>
       <path d="M 33.015625 40.375 
Q 26.375 40.375 22.484375 35.828125 
Q 18.609375 31.296875 18.609375 23.390625 
Q 18.609375 15.53125 22.484375 10.953125 
Q 26.375 6.390625 33.015625 6.390625 
Q 39.65625 6.390625 43.53125 10.953125 
Q 47.40625 15.53125 47.40625 23.390625 
Q 47.40625 31.296875 43.53125 35.828125 
Q 39.65625 40.375 33.015625 40.375 
z
M 52.59375 71.296875 
L 52.59375 62.3125 
Q 48.875 64.0625 45.09375 64.984375 
Q 41.3125 65.921875 37.59375 65.921875 
Q 27.828125 65.921875 22.671875 59.328125 
Q 17.53125 52.734375 16.796875 39.40625 
Q 19.671875 43.65625 24.015625 45.921875 
Q 28.375 48.1875 33.59375 48.1875 
Q 44.578125 48.1875 50.953125 41.515625 
Q 57.328125 34.859375 57.328125 23.390625 
Q 57.328125 12.15625 50.6875 5.359375 
Q 44.046875 -1.421875 33.015625 -1.421875 
Q 20.359375 -1.421875 13.671875 8.265625 
Q 6.984375 17.96875 6.984375 36.375 
Q 6.984375 53.65625 15.1875 63.9375 
Q 23.390625 74.21875 37.203125 74.21875 
Q 40.921875 74.21875 44.703125 73.484375 
Q 48.484375 72.75 52.59375 71.296875 
z
" id="DejaVuSans-36"/>
      </defs>
      <g transform="translate(369.547417 591.318438)scale(0.1 -0.1)">
       <use xlink:href="#DejaVuSans-36"/>
       <use x="63.623047" xlink:href="#DejaVuSans-30"/>
      </g>
     </g>
    </g>
    <g id="xtick_5">
     <g id="line2d_9">
      <path clip-path="url(#pf357919976)" d="M 468.141322 576.72 
L 468.141322 77.76 
" style="fill:none;stroke:#b0b0b0;stroke-linecap:square;stroke-width:0.8;"/>
     </g>
     <g id="line2d_10">
      <g>
       <use style="stroke:#000000;stroke-width:0.8;" x="468.141322" xlink:href="#mf1da9374fd" y="576.72"/>
      </g>
     </g>
     <g id="text_5">
      <!-- 80 -->
      <defs>
       <path d="M 31.78125 34.625 
Q 24.75 34.625 20.71875 30.859375 
Q 16.703125 27.09375 16.703125 20.515625 
Q 16.703125 13.921875 20.71875 10.15625 
Q 24.75 6.390625 31.78125 6.390625 
Q 38.8125 6.390625 42.859375 10.171875 
Q 46.921875 13.96875 46.921875 20.515625 
Q 46.921875 27.09375 42.890625 30.859375 
Q 38.875 34.625 31.78125 34.625 
z
M 21.921875 38.8125 
Q 15.578125 40.375 12.03125 44.71875 
Q 8.5 49.078125 8.5 55.328125 
Q 8.5 64.0625 14.71875 69.140625 
Q 20.953125 74.21875 31.78125 74.21875 
Q 42.671875 74.21875 48.875 69.140625 
Q 55.078125 64.0625 55.078125 55.328125 
Q 55.078125 49.078125 51.53125 44.71875 
Q 48 40.375 41.703125 38.8125 
Q 48.828125 37.15625 52.796875 32.3125 
Q 56.78125 27.484375 56.78125 20.515625 
Q 56.78125 9.90625 50.3125 4.234375 
Q 43.84375 -1.421875 31.78125 -1.421875 
Q 19.734375 -1.421875 13.25 4.234375 
Q 6.78125 9.90625 6.78125 20.515625 
Q 6.78125 27.484375 10.78125 32.3125 
Q 14.796875 37.15625 21.921875 38.8125 
z
M 18.3125 54.390625 
Q 18.3125 48.734375 21.84375 45.5625 
Q 25.390625 42.390625 31.78125 42.390625 
Q 38.140625 42.390625 41.71875 45.5625 
Q 45.3125 48.734375 45.3125 54.390625 
Q 45.3125 60.0625 41.71875 63.234375 
Q 38.140625 66.40625 31.78125 66.40625 
Q 25.390625 66.40625 21.84375 63.234375 
Q 18.3125 60.0625 18.3125 54.390625 
z
" id="DejaVuSans-38"/>
      </defs>
      <g transform="translate(461.778822 591.318438)scale(0.1 -0.1)">
       <use xlink:href="#DejaVuSans-38"/>
       <use x="63.623047" xlink:href="#DejaVuSans-30"/>
      </g>
     </g>
    </g>
    <g id="xtick_6">
     <g id="line2d_11">
      <path clip-path="url(#pf357919976)" d="M 560.372727 576.72 
L 560.372727 77.76 
" style="fill:none;stroke:#b0b0b0;stroke-linecap:square;stroke-width:0.8;"/>
     </g>
     <g id="line2d_12">
      <g>
       <use style="stroke:#000000;stroke-width:0.8;" x="560.372727" xlink:href="#mf1da9374fd" y="576.72"/>
      </g>
     </g>
     <g id="text_6">
      <!-- 100 -->
      <defs>
       <path d="M 12.40625 8.296875 
L 28.515625 8.296875 
L 28.515625 63.921875 
L 10.984375 60.40625 
L 10.984375 69.390625 
L 28.421875 72.90625 
L 38.28125 72.90625 
L 38.28125 8.296875 
L 54.390625 8.296875 
L 54.390625 0 
L 12.40625 0 
z
" id="DejaVuSans-31"/>
      </defs>
      <g transform="translate(550.828977 591.318438)scale(0.1 -0.1)">
       <use xlink:href="#DejaVuSans-31"/>
       <use x="63.623047" xlink:href="#DejaVuSans-30"/>
       <use x="127.246094" xlink:href="#DejaVuSans-30"/>
      </g>
     </g>
    </g>
    <g id="text_7">
     <!-- x -->
     <defs>
      <path d="M 54.890625 54.6875 
L 35.109375 28.078125 
L 55.90625 0 
L 45.3125 0 
L 29.390625 21.484375 
L 13.484375 0 
L 2.875 0 
L 24.125 28.609375 
L 4.6875 54.6875 
L 15.28125 54.6875 
L 29.78125 35.203125 
L 44.28125 54.6875 
z
" id="DejaVuSans-78"/>
     </defs>
     <g transform="translate(326.773125 611.075312)scale(0.18 -0.18)">
      <use xlink:href="#DejaVuSans-78"/>
     </g>
    </g>
   </g>
   <g id="matplotlib.axis_2">
    <g id="ytick_1">
     <g id="line2d_13">
      <path clip-path="url(#pf357919976)" d="M 81 480.870814 
L 583.2 480.870814 
" style="fill:none;stroke:#b0b0b0;stroke-linecap:square;stroke-width:0.8;"/>
     </g>
     <g id="line2d_14">
      <defs>
       <path d="M 0 0 
L -3.5 0 
" id="m803657e221" style="stroke:#000000;stroke-width:0.8;"/>
      </defs>
      <g>
       <use style="stroke:#000000;stroke-width:0.8;" x="81" xlink:href="#m803657e221" y="480.870814"/>
      </g>
     </g>
     <g id="text_8">
      <!-- 50 -->
      <defs>
       <path d="M 10.796875 72.90625 
L 49.515625 72.90625 
L 49.515625 64.59375 
L 19.828125 64.59375 
L 19.828125 46.734375 
Q 21.96875 47.46875 24.109375 47.828125 
Q 26.265625 48.1875 28.421875 48.1875 
Q 40.625 48.1875 47.75 41.5 
Q 54.890625 34.8125 54.890625 23.390625 
Q 54.890625 11.625 47.5625 5.09375 
Q 40.234375 -1.421875 26.90625 -1.421875 
Q 22.3125 -1.421875 17.546875 -0.640625 
Q 12.796875 0.140625 7.71875 1.703125 
L 7.71875 11.625 
Q 12.109375 9.234375 16.796875 8.0625 
Q 21.484375 6.890625 26.703125 6.890625 
Q 35.15625 6.890625 40.078125 11.328125 
Q 45.015625 15.765625 45.015625 23.390625 
Q 45.015625 31 40.078125 35.4375 
Q 35.15625 39.890625 26.703125 39.890625 
Q 22.75 39.890625 18.8125 39.015625 
Q 14.890625 38.140625 10.796875 36.28125 
z
" id="DejaVuSans-35"/>
      </defs>
      <g transform="translate(61.275 484.670032)scale(0.1 -0.1)">
       <use xlink:href="#DejaVuSans-35"/>
       <use x="63.623047" xlink:href="#DejaVuSans-30"/>
      </g>
     </g>
    </g>
    <g id="ytick_2">
     <g id="line2d_15">
      <path clip-path="url(#pf357919976)" d="M 81 378.878638 
L 583.2 378.878638 
" style="fill:none;stroke:#b0b0b0;stroke-linecap:square;stroke-width:0.8;"/>
     </g>
     <g id="line2d_16">
      <g>
       <use style="stroke:#000000;stroke-width:0.8;" x="81" xlink:href="#m803657e221" y="378.878638"/>
      </g>
     </g>
     <g id="text_9">
      <!-- 100 -->
      <g transform="translate(54.9125 382.677857)scale(0.1 -0.1)">
       <use xlink:href="#DejaVuSans-31"/>
       <use x="63.623047" xlink:href="#DejaVuSans-30"/>
       <use x="127.246094" xlink:href="#DejaVuSans-30"/>
      </g>
     </g>
    </g>
    <g id="ytick_3">
     <g id="line2d_17">
      <path clip-path="url(#pf357919976)" d="M 81 276.886463 
L 583.2 276.886463 
" style="fill:none;stroke:#b0b0b0;stroke-linecap:square;stroke-width:0.8;"/>
     </g>
     <g id="line2d_18">
      <g>
       <use style="stroke:#000000;stroke-width:0.8;" x="81" xlink:href="#m803657e221" y="276.886463"/>
      </g>
     </g>
     <g id="text_10">
      <!-- 150 -->
      <g transform="translate(54.9125 280.685682)scale(0.1 -0.1)">
       <use xlink:href="#DejaVuSans-31"/>
       <use x="63.623047" xlink:href="#DejaVuSans-35"/>
       <use x="127.246094" xlink:href="#DejaVuSans-30"/>
      </g>
     </g>
    </g>
    <g id="ytick_4">
     <g id="line2d_19">
      <path clip-path="url(#pf357919976)" d="M 81 174.894288 
L 583.2 174.894288 
" style="fill:none;stroke:#b0b0b0;stroke-linecap:square;stroke-width:0.8;"/>
     </g>
     <g id="line2d_20">
      <g>
       <use style="stroke:#000000;stroke-width:0.8;" x="81" xlink:href="#m803657e221" y="174.894288"/>
      </g>
     </g>
     <g id="text_11">
      <!-- 200 -->
      <g transform="translate(54.9125 178.693507)scale(0.1 -0.1)">
       <use xlink:href="#DejaVuSans-32"/>
       <use x="63.623047" xlink:href="#DejaVuSans-30"/>
       <use x="127.246094" xlink:href="#DejaVuSans-30"/>
      </g>
     </g>
    </g>
    <g id="text_12">
     <!-- y -->
     <defs>
      <path d="M 32.171875 -5.078125 
Q 28.375 -14.84375 24.75 -17.8125 
Q 21.140625 -20.796875 15.09375 -20.796875 
L 7.90625 -20.796875 
L 7.90625 -13.28125 
L 13.1875 -13.28125 
Q 16.890625 -13.28125 18.9375 -11.515625 
Q 21 -9.765625 23.484375 -3.21875 
L 25.09375 0.875 
L 2.984375 54.6875 
L 12.5 54.6875 
L 29.59375 11.921875 
L 46.6875 54.6875 
L 56.203125 54.6875 
z
" id="DejaVuSans-79"/>
     </defs>
     <g transform="translate(47.169062 332.566875)rotate(-90)scale(0.18 -0.18)">
      <use xlink:href="#DejaVuSans-79"/>
     </g>
    </g>
   </g>
   <g id="line2d_21">
    <defs>
     <path d="M 0 3 
C 0.795609 3 1.55874 2.683901 2.12132 2.12132 
C 2.683901 1.55874 3 0.795609 3 0 
C 3 -0.795609 2.683901 -1.55874 2.12132 -2.12132 
C 1.55874 -2.683901 0.795609 -3 0 -3 
C -0.795609 -3 -1.55874 -2.683901 -2.12132 -2.12132 
C -2.683901 -1.55874 -3 -0.795609 -3 0 
C -3 0.795609 -2.683901 1.55874 -2.12132 2.12132 
C -1.55874 2.683901 -0.795609 3 0 3 
z
" id="md294980f2c" style="stroke:#cd6600;"/>
    </defs>
    <g clip-path="url(#pf357919976)">
     <use style="fill:#cd6600;stroke:#cd6600;" x="103.827273" xlink:href="#md294980f2c" y="554.04"/>
     <use style="fill:#cd6600;stroke:#cd6600;" x="108.438843" xlink:href="#md294980f2c" y="539.985478"/>
     <use style="fill:#cd6600;stroke:#cd6600;" x="113.050413" xlink:href="#md294980f2c" y="531.846503"/>
     <use style="fill:#cd6600;stroke:#cd6600;" x="117.661983" xlink:href="#md294980f2c" y="520.810949"/>
     <use style="fill:#cd6600;stroke:#cd6600;" x="122.273554" xlink:href="#md294980f2c" y="515.690942"/>
     <use style="fill:#cd6600;stroke:#cd6600;" x="126.885124" xlink:href="#md294980f2c" y="506.20567"/>
     <use style="fill:#cd6600;stroke:#cd6600;" x="131.496694" xlink:href="#md294980f2c" y="499.412991"/>
     <use style="fill:#cd6600;stroke:#cd6600;" x="136.108264" xlink:href="#md294980f2c" y="494.496968"/>
     <use style="fill:#cd6600;stroke:#cd6600;" x="140.719835" xlink:href="#md294980f2c" y="484.950501"/>
     <use style="fill:#cd6600;stroke:#cd6600;" x="145.331405" xlink:href="#md294980f2c" y="481.339978"/>
     <use style="fill:#cd6600;stroke:#cd6600;" x="149.942975" xlink:href="#md294980f2c" y="474.812478"/>
     <use style="fill:#cd6600;stroke:#cd6600;" x="154.554545" xlink:href="#md294980f2c" y="467.734221"/>
     <use style="fill:#cd6600;stroke:#cd6600;" x="159.166116" xlink:href="#md294980f2c" y="461.818675"/>
     <use style="fill:#cd6600;stroke:#cd6600;" x="163.777686" xlink:href="#md294980f2c" y="458.779308"/>
     <use style="fill:#cd6600;stroke:#cd6600;" x="168.389256" xlink:href="#md294980f2c" y="450.048778"/>
     <use style="fill:#cd6600;stroke:#cd6600;" x="173.000826" xlink:href="#md294980f2c" y="446.050685"/>
     <use style="fill:#cd6600;stroke:#cd6600;" x="177.612397" xlink:href="#md294980f2c" y="441.012271"/>
     <use style="fill:#cd6600;stroke:#cd6600;" x="182.223967" xlink:href="#md294980f2c" y="435.871866"/>
     <use style="fill:#cd6600;stroke:#cd6600;" x="186.835537" xlink:href="#md294980f2c" y="428.446835"/>
     <use style="fill:#cd6600;stroke:#cd6600;" x="191.447107" xlink:href="#md294980f2c" y="425.509461"/>
     <use style="fill:#cd6600;stroke:#cd6600;" x="196.058678" xlink:href="#md294980f2c" y="421.042204"/>
     <use style="fill:#cd6600;stroke:#cd6600;" x="200.670248" xlink:href="#md294980f2c" y="413.739564"/>
     <use style="fill:#cd6600;stroke:#cd6600;" x="205.281818" xlink:href="#md294980f2c" y="410.027049"/>
     <use style="fill:#cd6600;stroke:#cd6600;" x="209.893388" xlink:href="#md294980f2c" y="404.53987"/>
     <use style="fill:#cd6600;stroke:#cd6600;" x="214.504959" xlink:href="#md294980f2c" y="401.724886"/>
     <use style="fill:#cd6600;stroke:#cd6600;" x="219.116529" xlink:href="#md294980f2c" y="394.197863"/>
     <use style="fill:#cd6600;stroke:#cd6600;" x="223.728099" xlink:href="#md294980f2c" y="389.791801"/>
     <use style="fill:#cd6600;stroke:#cd6600;" x="228.339669" xlink:href="#md294980f2c" y="387.303192"/>
     <use style="fill:#cd6600;stroke:#cd6600;" x="232.95124" xlink:href="#md294980f2c" y="381.265255"/>
     <use style="fill:#cd6600;stroke:#cd6600;" x="237.56281" xlink:href="#md294980f2c" y="376.226842"/>
     <use style="fill:#cd6600;stroke:#cd6600;" x="242.17438" xlink:href="#md294980f2c" y="371.331217"/>
     <use style="fill:#cd6600;stroke:#cd6600;" x="246.78595" xlink:href="#md294980f2c" y="367.863483"/>
     <use style="fill:#cd6600;stroke:#cd6600;" x="251.397521" xlink:href="#md294980f2c" y="364.395749"/>
     <use style="fill:#cd6600;stroke:#cd6600;" x="256.009091" xlink:href="#md294980f2c" y="356.44036"/>
     <use style="fill:#cd6600;stroke:#cd6600;" x="260.620661" xlink:href="#md294980f2c" y="354.808485"/>
     <use style="fill:#cd6600;stroke:#cd6600;" x="265.232231" xlink:href="#md294980f2c" y="349.708876"/>
     <use style="fill:#cd6600;stroke:#cd6600;" x="269.843802" xlink:href="#md294980f2c" y="345.833174"/>
     <use style="fill:#cd6600;stroke:#cd6600;" x="274.455372" xlink:href="#md294980f2c" y="340.733565"/>
     <use style="fill:#cd6600;stroke:#cd6600;" x="279.066942" xlink:href="#md294980f2c" y="335.429972"/>
     <use style="fill:#cd6600;stroke:#cd6600;" x="283.678512" xlink:href="#md294980f2c" y="332.166222"/>
     <use style="fill:#cd6600;stroke:#cd6600;" x="288.290083" xlink:href="#md294980f2c" y="329.514426"/>
     <use style="fill:#cd6600;stroke:#cd6600;" x="292.901653" xlink:href="#md294980f2c" y="322.782942"/>
     <use style="fill:#cd6600;stroke:#cd6600;" x="297.513223" xlink:href="#md294980f2c" y="318.703255"/>
     <use style="fill:#cd6600;stroke:#cd6600;" x="302.124793" xlink:href="#md294980f2c" y="315.64349"/>
     <use style="fill:#cd6600;stroke:#cd6600;" x="306.736364" xlink:href="#md294980f2c" y="310.747865"/>
     <use style="fill:#cd6600;stroke:#cd6600;" x="311.347934" xlink:href="#md294980f2c" y="308.096069"/>
     <use style="fill:#cd6600;stroke:#cd6600;" x="315.959504" xlink:href="#md294980f2c" y="301.160601"/>
     <use style="fill:#cd6600;stroke:#cd6600;" x="320.571074" xlink:href="#md294980f2c" y="297.896851"/>
     <use style="fill:#cd6600;stroke:#cd6600;" x="325.182645" xlink:href="#md294980f2c" y="295.04107"/>
     <use style="fill:#cd6600;stroke:#cd6600;" x="329.794215" xlink:href="#md294980f2c" y="290.961383"/>
     <use style="fill:#cd6600;stroke:#cd6600;" x="334.405785" xlink:href="#md294980f2c" y="285.045837"/>
     <use style="fill:#cd6600;stroke:#cd6600;" x="339.017355" xlink:href="#md294980f2c" y="282.190056"/>
     <use style="fill:#cd6600;stroke:#cd6600;" x="343.628926" xlink:href="#md294980f2c" y="276.886463"/>
     <use style="fill:#cd6600;stroke:#cd6600;" x="348.240496" xlink:href="#md294980f2c" y="275.050604"/>
     <use style="fill:#cd6600;stroke:#cd6600;" x="352.852066" xlink:href="#md294980f2c" y="270.766933"/>
     <use style="fill:#cd6600;stroke:#cd6600;" x="357.463636" xlink:href="#md294980f2c" y="264.443418"/>
     <use style="fill:#cd6600;stroke:#cd6600;" x="362.075207" xlink:href="#md294980f2c" y="261.587637"/>
     <use style="fill:#cd6600;stroke:#cd6600;" x="366.686777" xlink:href="#md294980f2c" y="258.93584"/>
     <use style="fill:#cd6600;stroke:#cd6600;" x="371.298347" xlink:href="#md294980f2c" y="254.2442"/>
     <use style="fill:#cd6600;stroke:#cd6600;" x="375.909917" xlink:href="#md294980f2c" y="250.368498"/>
     <use style="fill:#cd6600;stroke:#cd6600;" x="380.521488" xlink:href="#md294980f2c" y="245.268889"/>
     <use style="fill:#cd6600;stroke:#cd6600;" x="385.133058" xlink:href="#md294980f2c" y="242.005139"/>
     <use style="fill:#cd6600;stroke:#cd6600;" x="389.744628" xlink:href="#md294980f2c" y="238.129437"/>
     <use style="fill:#cd6600;stroke:#cd6600;" x="394.356198" xlink:href="#md294980f2c" y="236.293577"/>
     <use style="fill:#cd6600;stroke:#cd6600;" x="398.967769" xlink:href="#md294980f2c" y="229.154125"/>
     <use style="fill:#cd6600;stroke:#cd6600;" x="403.579339" xlink:href="#md294980f2c" y="226.502329"/>
     <use style="fill:#cd6600;stroke:#cd6600;" x="408.190909" xlink:href="#md294980f2c" y="223.034595"/>
     <use style="fill:#cd6600;stroke:#cd6600;" x="412.802479" xlink:href="#md294980f2c" y="219.158892"/>
     <use style="fill:#cd6600;stroke:#cd6600;" x="417.41405" xlink:href="#md294980f2c" y="215.895142"/>
     <use style="fill:#cd6600;stroke:#cd6600;" x="422.02562" xlink:href="#md294980f2c" y="211.203502"/>
     <use style="fill:#cd6600;stroke:#cd6600;" x="426.63719" xlink:href="#md294980f2c" y="205.899909"/>
     <use style="fill:#cd6600;stroke:#cd6600;" x="431.24876" xlink:href="#md294980f2c" y="204.472019"/>
     <use style="fill:#cd6600;stroke:#cd6600;" x="435.860331" xlink:href="#md294980f2c" y="201.004285"/>
     <use style="fill:#cd6600;stroke:#cd6600;" x="440.471901" xlink:href="#md294980f2c" y="196.516629"/>
     <use style="fill:#cd6600;stroke:#cd6600;" x="445.083471" xlink:href="#md294980f2c" y="191.213036"/>
     <use style="fill:#cd6600;stroke:#cd6600;" x="449.695041" xlink:href="#md294980f2c" y="189.173192"/>
     <use style="fill:#cd6600;stroke:#cd6600;" x="454.306612" xlink:href="#md294980f2c" y="184.685537"/>
     <use style="fill:#cd6600;stroke:#cd6600;" x="458.918182" xlink:href="#md294980f2c" y="181.421787"/>
     <use style="fill:#cd6600;stroke:#cd6600;" x="463.529752" xlink:href="#md294980f2c" y="178.973975"/>
     <use style="fill:#cd6600;stroke:#cd6600;" x="468.141322" xlink:href="#md294980f2c" y="172.446476"/>
     <use style="fill:#cd6600;stroke:#cd6600;" x="472.752893" xlink:href="#md294980f2c" y="169.998663"/>
     <use style="fill:#cd6600;stroke:#cd6600;" x="477.364463" xlink:href="#md294980f2c" y="166.53093"/>
     <use style="fill:#cd6600;stroke:#cd6600;" x="481.976033" xlink:href="#md294980f2c" y="164.083117"/>
     <use style="fill:#cd6600;stroke:#cd6600;" x="486.587603" xlink:href="#md294980f2c" y="158.779524"/>
     <use style="fill:#cd6600;stroke:#cd6600;" x="491.199174" xlink:href="#md294980f2c" y="155.515775"/>
     <use style="fill:#cd6600;stroke:#cd6600;" x="495.810744" xlink:href="#md294980f2c" y="151.232103"/>
     <use style="fill:#cd6600;stroke:#cd6600;" x="500.422314" xlink:href="#md294980f2c" y="147.764369"/>
     <use style="fill:#cd6600;stroke:#cd6600;" x="505.033884" xlink:href="#md294980f2c" y="145.316557"/>
     <use style="fill:#cd6600;stroke:#cd6600;" x="509.645455" xlink:href="#md294980f2c" y="142.052807"/>
     <use style="fill:#cd6600;stroke:#cd6600;" x="514.257025" xlink:href="#md294980f2c" y="136.137261"/>
     <use style="fill:#cd6600;stroke:#cd6600;" x="518.868595" xlink:href="#md294980f2c" y="132.669527"/>
     <use style="fill:#cd6600;stroke:#cd6600;" x="523.480165" xlink:href="#md294980f2c" y="131.241637"/>
     <use style="fill:#cd6600;stroke:#cd6600;" x="528.091736" xlink:href="#md294980f2c" y="125.938044"/>
     <use style="fill:#cd6600;stroke:#cd6600;" x="532.703306" xlink:href="#md294980f2c" y="124.102185"/>
     <use style="fill:#cd6600;stroke:#cd6600;" x="537.314876" xlink:href="#md294980f2c" y="119.002576"/>
     <use style="fill:#cd6600;stroke:#cd6600;" x="541.926446" xlink:href="#md294980f2c" y="115.126873"/>
     <use style="fill:#cd6600;stroke:#cd6600;" x="546.538017" xlink:href="#md294980f2c" y="111.251171"/>
     <use style="fill:#cd6600;stroke:#cd6600;" x="551.149587" xlink:href="#md294980f2c" y="109.82328"/>
     <use style="fill:#cd6600;stroke:#cd6600;" x="555.761157" xlink:href="#md294980f2c" y="106.355546"/>
     <use style="fill:#cd6600;stroke:#cd6600;" x="560.372727" xlink:href="#md294980f2c" y="100.44"/>
    </g>
   </g>
   <g id="patch_3">
    <path d="M 81 576.72 
L 81 77.76 
" style="fill:none;stroke:#000000;stroke-linecap:square;stroke-linejoin:miter;stroke-width:0.8;"/>
   </g>
   <g id="patch_4">
    <path d="M 583.2 576.72 
L 583.2 77.76 
" style="fill:none;stroke:#000000;stroke-linecap:square;stroke-linejoin:miter;stroke-width:0.8;"/>
   </g>
   <g id="patch_5">
    <path d="M 81 576.72 
L 583.2 576.72 
" style="fill:none;stroke:#000000;stroke-linecap:square;stroke-linejoin:miter;stroke-width:0.8;"/>
   </g>
   <g id="patch_6">
    <path d="M 81 77.76 
L 583.2 77.76 
" style="fill:none;stroke:#000000;stroke-linecap:square;stroke-linejoin:miter;stroke-width:0.8;"/>
   </g>
   <g id="text_13">
    <!-- Data -->
    <defs>
     <path d="M 19.671875 64.796875 
L 19.671875 8.109375 
L 31.59375 8.109375 
Q 46.6875 8.109375 53.6875 14.9375 
Q 60.6875 21.78125 60.6875 36.53125 
Q 60.6875 51.171875 53.6875 57.984375 
Q 46.6875 64.796875 31.59375 64.796875 
z
M 9.8125 72.90625 
L 30.078125 72.90625 
Q 51.265625 72.90625 61.171875 64.09375 
Q 71.09375 55.28125 71.09375 36.53125 
Q 71.09375 17.671875 61.125 8.828125 
Q 51.171875 0 30.078125 0 
L 9.8125 0 
z
" id="DejaVuSans-44"/>
     <path d="M 34.28125 27.484375 
Q 23.390625 27.484375 19.1875 25 
Q 14.984375 22.515625 14.984375 16.5 
Q 14.984375 11.71875 18.140625 8.90625 
Q 21.296875 6.109375 26.703125 6.109375 
Q 34.1875 6.109375 38.703125 11.40625 
Q 43.21875 16.703125 43.21875 25.484375 
L 43.21875 27.484375 
z
M 52.203125 31.203125 
L 52.203125 0 
L 43.21875 0 
L 43.21875 8.296875 
Q 40.140625 3.328125 35.546875 0.953125 
Q 30.953125 -1.421875 24.3125 -1.421875 
Q 15.921875 -1.421875 10.953125 3.296875 
Q 6 8.015625 6 15.921875 
Q 6 25.140625 12.171875 29.828125 
Q 18.359375 34.515625 30.609375 34.515625 
L 43.21875 34.515625 
L 43.21875 35.40625 
Q 43.21875 41.609375 39.140625 45 
Q 35.0625 48.390625 27.6875 48.390625 
Q 23 48.390625 18.546875 47.265625 
Q 14.109375 46.140625 10.015625 43.890625 
L 10.015625 52.203125 
Q 14.9375 54.109375 19.578125 55.046875 
Q 24.21875 56 28.609375 56 
Q 40.484375 56 46.34375 49.84375 
Q 52.203125 43.703125 52.203125 31.203125 
z
" id="DejaVuSans-61"/>
     <path d="M 18.3125 70.21875 
L 18.3125 54.6875 
L 36.8125 54.6875 
L 36.8125 47.703125 
L 18.3125 47.703125 
L 18.3125 18.015625 
Q 18.3125 11.328125 20.140625 9.421875 
Q 21.96875 7.515625 27.59375 7.515625 
L 36.8125 7.515625 
L 36.8125 0 
L 27.59375 0 
Q 17.1875 0 13.234375 3.875 
Q 9.28125 7.765625 9.28125 18.015625 
L 9.28125 47.703125 
L 2.6875 47.703125 
L 2.6875 54.6875 
L 9.28125 54.6875 
L 9.28125 70.21875 
z
" id="DejaVuSans-74"/>
    </defs>
    <g transform="translate(305.835781 71.76)scale(0.22 -0.22)">
     <use xlink:href="#DejaVuSans-44"/>
     <use x="77.001953" xlink:href="#DejaVuSans-61"/>
     <use x="138.28125" xlink:href="#DejaVuSans-74"/>
     <use x="177.490234" xlink:href="#DejaVuSans-61"/>
    </g>
   </g>
   <g id="legend_1">
    <g id="patch_7">
     <path d="M 271.2125 123.11625 
L 392.9875 123.11625 
Q 396.9875 123.11625 396.9875 119.11625 
L 396.9875 91.76 
Q 396.9875 87.76 392.9875 87.76 
L 271.2125 87.76 
Q 267.2125 87.76 267.2125 91.76 
L 267.2125 119.11625 
Q 267.2125 123.11625 271.2125 123.11625 
z
" style="fill:#ffffff;opacity:0.8;stroke:#cccccc;stroke-linejoin:miter;"/>
    </g>
    <g id="line2d_22"/>
    <g id="line2d_23">
     <g>
      <use style="fill:#cd6600;stroke:#cd6600;" x="295.2125" xlink:href="#md294980f2c" y="103.956875"/>
     </g>
    </g>
    <g id="text_14">
     <!-- data1 -->
     <defs>
      <path d="M 45.40625 46.390625 
L 45.40625 75.984375 
L 54.390625 75.984375 
L 54.390625 0 
L 45.40625 0 
L 45.40625 8.203125 
Q 42.578125 3.328125 38.25 0.953125 
Q 33.9375 -1.421875 27.875 -1.421875 
Q 17.96875 -1.421875 11.734375 6.484375 
Q 5.515625 14.40625 5.515625 27.296875 
Q 5.515625 40.1875 11.734375 48.09375 
Q 17.96875 56 27.875 56 
Q 33.9375 56 38.25 53.625 
Q 42.578125 51.265625 45.40625 46.390625 
z
M 14.796875 27.296875 
Q 14.796875 17.390625 18.875 11.75 
Q 22.953125 6.109375 30.078125 6.109375 
Q 37.203125 6.109375 41.296875 11.75 
Q 45.40625 17.390625 45.40625 27.296875 
Q 45.40625 37.203125 41.296875 42.84375 
Q 37.203125 48.484375 30.078125 48.484375 
Q 22.953125 48.484375 18.875 42.84375 
Q 14.796875 37.203125 14.796875 27.296875 
z
" id="DejaVuSans-64"/>
     </defs>
     <g style="fill:#cd6600;" transform="translate(331.2125 110.956875)scale(0.2 -0.2)">
      <use xlink:href="#DejaVuSans-64"/>
      <use x="63.476562" xlink:href="#DejaVuSans-61"/>
      <use x="124.755859" xlink:href="#DejaVuSans-74"/>
      <use x="163.964844" xlink:href="#DejaVuSans-61"/>
      <use x="225.244141" xlink:href="#DejaVuSans-31"/>
     </g>
    </g>
   </g>
  </g>
 </g>
 <defs>
  <clipPath id="pf357919976">
   <rect height="498.96" width="502.2" x="81" y="77.76"/>
  </clipPath>
 </defs>
</svg>
