<?xml version="1.0" encoding="utf-8" standalone="no"?>
<!DOCTYPE svg PUBLIC "-//W3C//DTD SVG 1.1//EN"
  "http://www.w3.org/Graphics/SVG/1.1/DTD/svg11.dtd">
<!-- Created with matplotlib (http://matplotlib.org/) -->
<svg height="648pt" version="1.1" viewBox="0 0 648 648" width="648pt" xmlns="http://www.w3.org/2000/svg" xmlns:xlink="http://www.w3.org/1999/xlink">
 <defs>
  <style type="text/css">
*{stroke-linecap:butt;stroke-linejoin:round;stroke-miterlimit:100000;}
  </style>
 </defs>
 <g id="figure_1">
  <g id="patch_1">
   <path d="M 0 648 
L 648 648 
L 648 0 
L 0 0 
z
" style="fill:#ffffff;"/>
  </g>
  <g id="axes_1">
   <g id="patch_2">
    <path d="M 81 583.2 
L 583.2 583.2 
L 583.2 64.8 
L 81 64.8 
z
" style="fill:#ffffff;"/>
   </g>
   <g id="line2d_1">
    <defs>
     <path d="M 0 3 
C 0.795609 3 1.55874 2.683901 2.12132 2.12132 
C 2.683901 1.55874 3 0.795609 3 0 
C 3 -0.795609 2.683901 -1.55874 2.12132 -2.12132 
C 1.55874 -2.683901 0.795609 -3 0 -3 
C -0.795609 -3 -1.55874 -2.683901 -2.12132 -2.12132 
C -2.683901 -1.55874 -3 -0.795609 -3 0 
C -3 0.795609 -2.683901 1.55874 -2.12132 2.12132 
C -1.55874 2.683901 -0.795609 3 0 3 
z
" id="md3d4d06cc5" style="stroke:#000000;stroke-width:0.5;"/>
    </defs>
    <g clip-path="url(#pc4e51ceede)">
     <use style="fill:#0000ff;stroke:#000000;stroke-width:0.5;" x="81.0" xlink:href="#md3d4d06cc5" y="402.026974876"/>
     <use style="fill:#0000ff;stroke:#000000;stroke-width:0.5;" x="131.392421274" xlink:href="#md3d4d06cc5" y="245.973025124"/>
     <use style="fill:#0000ff;stroke:#000000;stroke-width:0.5;" x="160.87009804" xlink:href="#md3d4d06cc5" y="186.240664703"/>
     <use style="fill:#0000ff;stroke:#000000;stroke-width:0.5;" x="181.784842548" xlink:href="#md3d4d06cc5" y="126.119464068"/>
     <use style="fill:#0000ff;stroke:#000000;stroke-width:0.5;" x="198.007578726" xlink:href="#md3d4d06cc5" y="97.1841205289"/>
     <use style="fill:#0000ff;stroke:#000000;stroke-width:0.5;" x="211.262519314" xlink:href="#md3d4d06cc5" y="76.6603415533"/>
     <use style="fill:#0000ff;stroke:#000000;stroke-width:0.5;" x="222.469411898" xlink:href="#md3d4d06cc5" y="72.9692197348"/>
     <use style="fill:#0000ff;stroke:#000000;stroke-width:0.5;" x="232.177263822" xlink:href="#md3d4d06cc5" y="95.6931168808"/>
     <use style="fill:#0000ff;stroke:#000000;stroke-width:0.5;" x="240.74019608" xlink:href="#md3d4d06cc5" y="130.0696634"/>
     <use style="fill:#0000ff;stroke:#000000;stroke-width:0.5;" x="248.4" xlink:href="#md3d4d06cc5" y="152.213170028"/>
     <use style="fill:#0000ff;stroke:#000000;stroke-width:0.5;" x="255.329135495" xlink:href="#md3d4d06cc5" y="165.166424338"/>
     <use style="fill:#0000ff;stroke:#000000;stroke-width:0.5;" x="261.654940588" xlink:href="#md3d4d06cc5" y="170.796053859"/>
     <use style="fill:#0000ff;stroke:#000000;stroke-width:0.5;" x="267.474117176" xlink:href="#md3d4d06cc5" y="176.722113122"/>
     <use style="fill:#0000ff;stroke:#000000;stroke-width:0.5;" x="272.861833173" xlink:href="#md3d4d06cc5" y="230.240144904"/>
     <use style="fill:#0000ff;stroke:#000000;stroke-width:0.5;" x="277.877676766" xlink:href="#md3d4d06cc5" y="220.853949752"/>
     <use style="fill:#0000ff;stroke:#000000;stroke-width:0.5;" x="282.569685097" xlink:href="#md3d4d06cc5" y="251.747066633"/>
     <use style="fill:#0000ff;stroke:#000000;stroke-width:0.5;" x="286.977149439" xlink:href="#md3d4d06cc5" y="204.146438945"/>
     <use style="fill:#0000ff;stroke:#000000;stroke-width:0.5;" x="291.132617354" xlink:href="#md3d4d06cc5" y="294.465883082"/>
     <use style="fill:#0000ff;stroke:#000000;stroke-width:0.5;" x="295.0633528" xlink:href="#md3d4d06cc5" y="313.271016007"/>
     <use style="fill:#0000ff;stroke:#000000;stroke-width:0.5;" x="298.792421274" xlink:href="#md3d4d06cc5" y="278.357145653"/>
     <use style="fill:#0000ff;stroke:#000000;stroke-width:0.5;" x="302.339509938" xlink:href="#md3d4d06cc5" y="364.150588028"/>
     <use style="fill:#0000ff;stroke:#000000;stroke-width:0.5;" x="305.72155677" xlink:href="#md3d4d06cc5" y="349.119075372"/>
     <use style="fill:#0000ff;stroke:#000000;stroke-width:0.5;" x="308.953239749" xlink:href="#md3d4d06cc5" y="349.119075372"/>
     <use style="fill:#0000ff;stroke:#000000;stroke-width:0.5;" x="312.047361863" xlink:href="#md3d4d06cc5" y="303.476221024"/>
     <use style="fill:#0000ff;stroke:#000000;stroke-width:0.5;" x="315.015157452" xlink:href="#md3d4d06cc5" y="324.0"/>
     <use style="fill:#0000ff;stroke:#000000;stroke-width:0.5;" x="317.86653845" xlink:href="#md3d4d06cc5" y="349.119075372"/>
     <use style="fill:#0000ff;stroke:#000000;stroke-width:0.5;" x="320.61029412" xlink:href="#md3d4d06cc5" y="459.530170777"/>
     <use style="fill:#0000ff;stroke:#000000;stroke-width:0.5;" x="323.254254447" xlink:href="#md3d4d06cc5" y="364.150588028"/>
     <use style="fill:#0000ff;stroke:#000000;stroke-width:0.5;" x="325.805424848" xlink:href="#md3d4d06cc5" y="402.026974876"/>
     <use style="fill:#0000ff;stroke:#000000;stroke-width:0.5;" x="328.27009804" xlink:href="#md3d4d06cc5" y="335.860341553"/>
     <use style="fill:#0000ff;stroke:#000000;stroke-width:0.5;" x="330.653947548" xlink:href="#md3d4d06cc5" y="427.146050248"/>
     <use style="fill:#0000ff;stroke:#000000;stroke-width:0.5;" x="332.962106371" xlink:href="#md3d4d06cc5" y="402.026974876"/>
     <use style="fill:#0000ff;stroke:#000000;stroke-width:0.5;" x="335.199233536" xlink:href="#md3d4d06cc5" y="459.530170777"/>
     <use style="fill:#0000ff;stroke:#000000;stroke-width:0.5;" x="337.369570713" xlink:href="#md3d4d06cc5" y="427.146050248"/>
     <use style="fill:#0000ff;stroke:#000000;stroke-width:0.5;" x="339.476990624" xlink:href="#md3d4d06cc5" y="505.173025124"/>
     <use style="fill:#0000ff;stroke:#000000;stroke-width:0.5;" x="341.525038628" xlink:href="#md3d4d06cc5" y="505.173025124"/>
     <use style="fill:#0000ff;stroke:#000000;stroke-width:0.5;" x="343.516968609" xlink:href="#md3d4d06cc5" y="459.530170777"/>
     <use style="fill:#0000ff;stroke:#000000;stroke-width:0.5;" x="345.455774074" xlink:href="#md3d4d06cc5" y="459.530170777"/>
     <use style="fill:#0000ff;stroke:#000000;stroke-width:0.5;" x="347.344215216" xlink:href="#md3d4d06cc5" y="583.2"/>
     <use style="fill:#0000ff;stroke:#000000;stroke-width:0.5;" x="349.184842548" xlink:href="#md3d4d06cc5" y="505.173025124"/>
     <use style="fill:#0000ff;stroke:#000000;stroke-width:0.5;" x="350.980017615" xlink:href="#md3d4d06cc5" y="583.2"/>
     <use style="fill:#0000ff;stroke:#000000;stroke-width:0.5;" x="352.731931213" xlink:href="#md3d4d06cc5" y="505.173025124"/>
     <use style="fill:#0000ff;stroke:#000000;stroke-width:0.5;" x="356.113978044" xlink:href="#md3d4d06cc5" y="459.530170777"/>
     <use style="fill:#0000ff;stroke:#000000;stroke-width:0.5;" x="357.747774806" xlink:href="#md3d4d06cc5" y="427.146050248"/>
     <use style="fill:#0000ff;stroke:#000000;stroke-width:0.5;" x="359.345661023" xlink:href="#md3d4d06cc5" y="505.173025124"/>
     <use style="fill:#0000ff;stroke:#000000;stroke-width:0.5;" x="360.909181418" xlink:href="#md3d4d06cc5" y="505.173025124"/>
     <use style="fill:#0000ff;stroke:#000000;stroke-width:0.5;" x="362.439783137" xlink:href="#md3d4d06cc5" y="402.026974876"/>
     <use style="fill:#0000ff;stroke:#000000;stroke-width:0.5;" x="363.938823797" xlink:href="#md3d4d06cc5" y="427.146050248"/>
     <use style="fill:#0000ff;stroke:#000000;stroke-width:0.5;" x="366.847247479" xlink:href="#md3d4d06cc5" y="505.173025124"/>
     <use style="fill:#0000ff;stroke:#000000;stroke-width:0.5;" x="368.258959724" xlink:href="#md3d4d06cc5" y="583.2"/>
     <use style="fill:#0000ff;stroke:#000000;stroke-width:0.5;" x="371.002715394" xlink:href="#md3d4d06cc5" y="505.173025124"/>
     <use style="fill:#0000ff;stroke:#000000;stroke-width:0.5;" x="372.336714221" xlink:href="#md3d4d06cc5" y="505.173025124"/>
     <use style="fill:#0000ff;stroke:#000000;stroke-width:0.5;" x="373.646675721" xlink:href="#md3d4d06cc5" y="583.2"/>
     <use style="fill:#0000ff;stroke:#000000;stroke-width:0.5;" x="374.93345084" xlink:href="#md3d4d06cc5" y="583.2"/>
     <use style="fill:#0000ff;stroke:#000000;stroke-width:0.5;" x="376.197846122" xlink:href="#md3d4d06cc5" y="583.2"/>
     <use style="fill:#0000ff;stroke:#000000;stroke-width:0.5;" x="377.440626749" xlink:href="#md3d4d06cc5" y="505.173025124"/>
     <use style="fill:#0000ff;stroke:#000000;stroke-width:0.5;" x="378.662519314" xlink:href="#md3d4d06cc5" y="505.173025124"/>
     <use style="fill:#0000ff;stroke:#000000;stroke-width:0.5;" x="379.864214381" xlink:href="#md3d4d06cc5" y="583.2"/>
     <use style="fill:#0000ff;stroke:#000000;stroke-width:0.5;" x="381.046368822" xlink:href="#md3d4d06cc5" y="505.173025124"/>
     <use style="fill:#0000ff;stroke:#000000;stroke-width:0.5;" x="383.354527645" xlink:href="#md3d4d06cc5" y="583.2"/>
     <use style="fill:#0000ff;stroke:#000000;stroke-width:0.5;" x="385.59165481" xlink:href="#md3d4d06cc5" y="583.2"/>
     <use style="fill:#0000ff;stroke:#000000;stroke-width:0.5;" x="386.684921972" xlink:href="#md3d4d06cc5" y="583.2"/>
     <use style="fill:#0000ff;stroke:#000000;stroke-width:0.5;" x="388.823337789" xlink:href="#md3d4d06cc5" y="505.173025124"/>
     <use style="fill:#0000ff;stroke:#000000;stroke-width:0.5;" x="390.900647576" xlink:href="#md3d4d06cc5" y="583.2"/>
     <use style="fill:#0000ff;stroke:#000000;stroke-width:0.5;" x="393.909389883" xlink:href="#md3d4d06cc5" y="583.2"/>
     <use style="fill:#0000ff;stroke:#000000;stroke-width:0.5;" x="394.885255492" xlink:href="#md3d4d06cc5" y="505.173025124"/>
     <use style="fill:#0000ff;stroke:#000000;stroke-width:0.5;" x="396.798547394" xlink:href="#md3d4d06cc5" y="505.173025124"/>
     <use style="fill:#0000ff;stroke:#000000;stroke-width:0.5;" x="397.73663649" xlink:href="#md3d4d06cc5" y="583.2"/>
     <use style="fill:#0000ff;stroke:#000000;stroke-width:0.5;" x="400.48039216" xlink:href="#md3d4d06cc5" y="583.2"/>
     <use style="fill:#0000ff;stroke:#000000;stroke-width:0.5;" x="401.372438889" xlink:href="#md3d4d06cc5" y="505.173025124"/>
     <use style="fill:#0000ff;stroke:#000000;stroke-width:0.5;" x="402.253672664" xlink:href="#md3d4d06cc5" y="583.2"/>
     <use style="fill:#0000ff;stroke:#000000;stroke-width:0.5;" x="403.984728165" xlink:href="#md3d4d06cc5" y="583.2"/>
     <use style="fill:#0000ff;stroke:#000000;stroke-width:0.5;" x="404.835040738" xlink:href="#md3d4d06cc5" y="583.2"/>
     <use style="fill:#0000ff;stroke:#000000;stroke-width:0.5;" x="406.506399318" xlink:href="#md3d4d06cc5" y="583.2"/>
     <use style="fill:#0000ff;stroke:#000000;stroke-width:0.5;" x="412.070931525" xlink:href="#md3d4d06cc5" y="583.2"/>
     <use style="fill:#0000ff;stroke:#000000;stroke-width:0.5;" x="415.069331576" xlink:href="#md3d4d06cc5" y="583.2"/>
     <use style="fill:#0000ff;stroke:#000000;stroke-width:0.5;" x="419.347088664" xlink:href="#md3d4d06cc5" y="505.173025124"/>
     <use style="fill:#0000ff;stroke:#000000;stroke-width:0.5;" x="424.685331439" xlink:href="#md3d4d06cc5" y="505.173025124"/>
     <use style="fill:#0000ff;stroke:#000000;stroke-width:0.5;" x="427.833048023" xlink:href="#md3d4d06cc5" y="583.2"/>
     <use style="fill:#0000ff;stroke:#000000;stroke-width:0.5;" x="429.054940588" xlink:href="#md3d4d06cc5" y="583.2"/>
     <use style="fill:#0000ff;stroke:#000000;stroke-width:0.5;" x="429.658270991" xlink:href="#md3d4d06cc5" y="505.173025124"/>
     <use style="fill:#0000ff;stroke:#000000;stroke-width:0.5;" x="438.154413261" xlink:href="#md3d4d06cc5" y="583.2"/>
     <use style="fill:#0000ff;stroke:#000000;stroke-width:0.5;" x="439.215759064" xlink:href="#md3d4d06cc5" y="583.2"/>
     <use style="fill:#0000ff;stroke:#000000;stroke-width:0.5;" x="441.803252672" xlink:href="#md3d4d06cc5" y="583.2"/>
     <use style="fill:#0000ff;stroke:#000000;stroke-width:0.5;" x="442.813003574" xlink:href="#md3d4d06cc5" y="583.2"/>
     <use style="fill:#0000ff;stroke:#000000;stroke-width:0.5;" x="449.513878611" xlink:href="#md3d4d06cc5" y="583.2"/>
     <use style="fill:#0000ff;stroke:#000000;stroke-width:0.5;" x="451.320204977" xlink:href="#md3d4d06cc5" y="583.2"/>
     <use style="fill:#0000ff;stroke:#000000;stroke-width:0.5;" x="457.310724789" xlink:href="#md3d4d06cc5" y="583.2"/>
     <use style="fill:#0000ff;stroke:#000000;stroke-width:0.5;" x="458.127597386" xlink:href="#md3d4d06cc5" y="583.2"/>
     <use style="fill:#0000ff;stroke:#000000;stroke-width:0.5;" x="466.915819245" xlink:href="#md3d4d06cc5" y="583.2"/>
     <use style="fill:#0000ff;stroke:#000000;stroke-width:0.5;" x="467.274836747" xlink:href="#md3d4d06cc5" y="583.2"/>
     <use style="fill:#0000ff;stroke:#000000;stroke-width:0.5;" x="467.987596341" xlink:href="#md3d4d06cc5" y="583.2"/>
     <use style="fill:#0000ff;stroke:#000000;stroke-width:0.5;" x="472.790344824" xlink:href="#md3d4d06cc5" y="505.173025124"/>
     <use style="fill:#0000ff;stroke:#000000;stroke-width:0.5;" x="489.608180338" xlink:href="#md3d4d06cc5" y="583.2"/>
     <use style="fill:#0000ff;stroke:#000000;stroke-width:0.5;" x="494.939429616" xlink:href="#md3d4d06cc5" y="583.2"/>
     <use style="fill:#0000ff;stroke:#000000;stroke-width:0.5;" x="506.876990624" xlink:href="#md3d4d06cc5" y="583.2"/>
     <use style="fill:#0000ff;stroke:#000000;stroke-width:0.5;" x="510.916968609" xlink:href="#md3d4d06cc5" y="583.2"/>
     <use style="fill:#0000ff;stroke:#000000;stroke-width:0.5;" x="524.171909197" xlink:href="#md3d4d06cc5" y="583.2"/>
     <use style="fill:#0000ff;stroke:#000000;stroke-width:0.5;" x="537.317607246" xlink:href="#md3d4d06cc5" y="583.2"/>
     <use style="fill:#0000ff;stroke:#000000;stroke-width:0.5;" x="562.768319703" xlink:href="#md3d4d06cc5" y="583.2"/>
    </g>
   </g>
   <g id="patch_3">
    <path d="M 583.2 583.2 
L 583.2 64.8 
" style="fill:none;stroke:#000000;stroke-linecap:square;stroke-linejoin:miter;"/>
   </g>
   <g id="patch_4">
    <path d="M 81 64.8 
L 583.2 64.8 
" style="fill:none;stroke:#000000;stroke-linecap:square;stroke-linejoin:miter;"/>
   </g>
   <g id="patch_5">
    <path d="M 81 583.2 
L 81 64.8 
" style="fill:none;stroke:#000000;stroke-linecap:square;stroke-linejoin:miter;"/>
   </g>
   <g id="patch_6">
    <path d="M 81 583.2 
L 583.2 583.2 
" style="fill:none;stroke:#000000;stroke-linecap:square;stroke-linejoin:miter;"/>
   </g>
   <g id="matplotlib.axis_1">
    <g id="xtick_1">
     <g id="line2d_2">
      <path clip-path="url(#pc4e51ceede)" d="M 81 583.2 
L 81 64.8 
" style="fill:none;stroke:#000000;stroke-dasharray:1.000000,3.000000;stroke-dashoffset:0.0;stroke-width:0.5;"/>
     </g>
     <g id="line2d_3">
      <defs>
       <path d="M 0 0 
L 0 -4 
" id="m533c64c13b" style="stroke:#000000;stroke-width:0.5;"/>
      </defs>
      <g>
       <use style="stroke:#000000;stroke-width:0.5;" x="81.0" xlink:href="#m533c64c13b" y="583.2"/>
      </g>
     </g>
     <g id="line2d_4">
      <defs>
       <path d="M 0 0 
L 0 4 
" id="m5479c0ccc1" style="stroke:#000000;stroke-width:0.5;"/>
      </defs>
      <g>
       <use style="stroke:#000000;stroke-width:0.5;" x="81.0" xlink:href="#m5479c0ccc1" y="64.8"/>
      </g>
     </g>
     <g id="text_1">
      <!-- $\mathdefault{10^{0}}$ -->
      <defs>
       <path d="M 31.78125 66.40625 
Q 24.171875 66.40625 20.328125 58.90625 
Q 16.5 51.421875 16.5 36.375 
Q 16.5 21.390625 20.328125 13.890625 
Q 24.171875 6.390625 31.78125 6.390625 
Q 39.453125 6.390625 43.28125 13.890625 
Q 47.125 21.390625 47.125 36.375 
Q 47.125 51.421875 43.28125 58.90625 
Q 39.453125 66.40625 31.78125 66.40625 
M 31.78125 74.21875 
Q 44.046875 74.21875 50.515625 64.515625 
Q 56.984375 54.828125 56.984375 36.375 
Q 56.984375 17.96875 50.515625 8.265625 
Q 44.046875 -1.421875 31.78125 -1.421875 
Q 19.53125 -1.421875 13.0625 8.265625 
Q 6.59375 17.96875 6.59375 36.375 
Q 6.59375 54.828125 13.0625 64.515625 
Q 19.53125 74.21875 31.78125 74.21875 
" id="BitstreamVeraSans-Roman-30"/>
       <path d="M 12.40625 8.296875 
L 28.515625 8.296875 
L 28.515625 63.921875 
L 10.984375 60.40625 
L 10.984375 69.390625 
L 28.421875 72.90625 
L 38.28125 72.90625 
L 38.28125 8.296875 
L 54.390625 8.296875 
L 54.390625 0 
L 12.40625 0 
z
" id="BitstreamVeraSans-Roman-31"/>
      </defs>
      <g transform="translate(69.84 596.944375)scale(0.12 -0.12)">
       <use transform="translate(0.0 0.796875)" xlink:href="#BitstreamVeraSans-Roman-31"/>
       <use transform="translate(63.623046875 0.796875)" xlink:href="#BitstreamVeraSans-Roman-30"/>
       <use transform="translate(132.75859375 48.046875)scale(0.7)" xlink:href="#BitstreamVeraSans-Roman-30"/>
      </g>
     </g>
    </g>
    <g id="xtick_2">
     <g id="line2d_5">
      <path clip-path="url(#pc4e51ceede)" d="M 248.4 583.2 
L 248.4 64.8 
" style="fill:none;stroke:#000000;stroke-dasharray:1.000000,3.000000;stroke-dashoffset:0.0;stroke-width:0.5;"/>
     </g>
     <g id="line2d_6">
      <g>
       <use style="stroke:#000000;stroke-width:0.5;" x="248.4" xlink:href="#m533c64c13b" y="583.2"/>
      </g>
     </g>
     <g id="line2d_7">
      <g>
       <use style="stroke:#000000;stroke-width:0.5;" x="248.4" xlink:href="#m5479c0ccc1" y="64.8"/>
      </g>
     </g>
     <g id="text_2">
      <!-- $\mathdefault{10^{1}}$ -->
      <g transform="translate(237.24 596.824375)scale(0.12 -0.12)">
       <use transform="translate(0.0 0.7156250000000028)" xlink:href="#BitstreamVeraSans-Roman-31"/>
       <use transform="translate(63.623046875 0.7156250000000028)" xlink:href="#BitstreamVeraSans-Roman-30"/>
       <use transform="translate(132.75859375 47.965625)scale(0.7)" xlink:href="#BitstreamVeraSans-Roman-31"/>
      </g>
     </g>
    </g>
    <g id="xtick_3">
     <g id="line2d_8">
      <path clip-path="url(#pc4e51ceede)" d="M 415.8 583.2 
L 415.8 64.8 
" style="fill:none;stroke:#000000;stroke-dasharray:1.000000,3.000000;stroke-dashoffset:0.0;stroke-width:0.5;"/>
     </g>
     <g id="line2d_9">
      <g>
       <use style="stroke:#000000;stroke-width:0.5;" x="415.8" xlink:href="#m533c64c13b" y="583.2"/>
      </g>
     </g>
     <g id="line2d_10">
      <g>
       <use style="stroke:#000000;stroke-width:0.5;" x="415.8" xlink:href="#m5479c0ccc1" y="64.8"/>
      </g>
     </g>
     <g id="text_3">
      <!-- $\mathdefault{10^{2}}$ -->
      <defs>
       <path d="M 19.1875 8.296875 
L 53.609375 8.296875 
L 53.609375 0 
L 7.328125 0 
L 7.328125 8.296875 
Q 12.9375 14.109375 22.625 23.890625 
Q 32.328125 33.6875 34.8125 36.53125 
Q 39.546875 41.84375 41.421875 45.53125 
Q 43.3125 49.21875 43.3125 52.78125 
Q 43.3125 58.59375 39.234375 62.25 
Q 35.15625 65.921875 28.609375 65.921875 
Q 23.96875 65.921875 18.8125 64.3125 
Q 13.671875 62.703125 7.8125 59.421875 
L 7.8125 69.390625 
Q 13.765625 71.78125 18.9375 73 
Q 24.125 74.21875 28.421875 74.21875 
Q 39.75 74.21875 46.484375 68.546875 
Q 53.21875 62.890625 53.21875 53.421875 
Q 53.21875 48.921875 51.53125 44.890625 
Q 49.859375 40.875 45.40625 35.40625 
Q 44.1875 33.984375 37.640625 27.21875 
Q 31.109375 20.453125 19.1875 8.296875 
" id="BitstreamVeraSans-Roman-32"/>
      </defs>
      <g transform="translate(404.64 596.944375)scale(0.12 -0.12)">
       <use transform="translate(0.0 0.796875)" xlink:href="#BitstreamVeraSans-Roman-31"/>
       <use transform="translate(63.623046875 0.796875)" xlink:href="#BitstreamVeraSans-Roman-30"/>
       <use transform="translate(132.75859375 48.046875)scale(0.7)" xlink:href="#BitstreamVeraSans-Roman-32"/>
      </g>
     </g>
    </g>
    <g id="xtick_4">
     <g id="line2d_11">
      <path clip-path="url(#pc4e51ceede)" d="M 583.2 583.2 
L 583.2 64.8 
" style="fill:none;stroke:#000000;stroke-dasharray:1.000000,3.000000;stroke-dashoffset:0.0;stroke-width:0.5;"/>
     </g>
     <g id="line2d_12">
      <g>
       <use style="stroke:#000000;stroke-width:0.5;" x="583.2" xlink:href="#m533c64c13b" y="583.2"/>
      </g>
     </g>
     <g id="line2d_13">
      <g>
       <use style="stroke:#000000;stroke-width:0.5;" x="583.2" xlink:href="#m5479c0ccc1" y="64.8"/>
      </g>
     </g>
     <g id="text_4">
      <!-- $\mathdefault{10^{3}}$ -->
      <defs>
       <path d="M 40.578125 39.3125 
Q 47.65625 37.796875 51.625 33 
Q 55.609375 28.21875 55.609375 21.1875 
Q 55.609375 10.40625 48.1875 4.484375 
Q 40.765625 -1.421875 27.09375 -1.421875 
Q 22.515625 -1.421875 17.65625 -0.515625 
Q 12.796875 0.390625 7.625 2.203125 
L 7.625 11.71875 
Q 11.71875 9.328125 16.59375 8.109375 
Q 21.484375 6.890625 26.8125 6.890625 
Q 36.078125 6.890625 40.9375 10.546875 
Q 45.796875 14.203125 45.796875 21.1875 
Q 45.796875 27.640625 41.28125 31.265625 
Q 36.765625 34.90625 28.71875 34.90625 
L 20.21875 34.90625 
L 20.21875 43.015625 
L 29.109375 43.015625 
Q 36.375 43.015625 40.234375 45.921875 
Q 44.09375 48.828125 44.09375 54.296875 
Q 44.09375 59.90625 40.109375 62.90625 
Q 36.140625 65.921875 28.71875 65.921875 
Q 24.65625 65.921875 20.015625 65.03125 
Q 15.375 64.15625 9.8125 62.3125 
L 9.8125 71.09375 
Q 15.4375 72.65625 20.34375 73.4375 
Q 25.25 74.21875 29.59375 74.21875 
Q 40.828125 74.21875 47.359375 69.109375 
Q 53.90625 64.015625 53.90625 55.328125 
Q 53.90625 49.265625 50.4375 45.09375 
Q 46.96875 40.921875 40.578125 39.3125 
" id="BitstreamVeraSans-Roman-33"/>
      </defs>
      <g transform="translate(572.04 596.944375)scale(0.12 -0.12)">
       <use transform="translate(0.0 0.796875)" xlink:href="#BitstreamVeraSans-Roman-31"/>
       <use transform="translate(63.623046875 0.796875)" xlink:href="#BitstreamVeraSans-Roman-30"/>
       <use transform="translate(132.75859375 48.046875)scale(0.7)" xlink:href="#BitstreamVeraSans-Roman-33"/>
      </g>
     </g>
    </g>
    <g id="xtick_5">
     <g id="line2d_14">
      <defs>
       <path d="M 0 0 
L 0 -2 
" id="mc1844fc017" style="stroke:#000000;stroke-width:0.5;"/>
      </defs>
      <g>
       <use style="stroke:#000000;stroke-width:0.5;" x="131.392421274" xlink:href="#mc1844fc017" y="583.2"/>
      </g>
     </g>
     <g id="line2d_15">
      <defs>
       <path d="M 0 0 
L 0 2 
" id="mb9a20df1dc" style="stroke:#000000;stroke-width:0.5;"/>
      </defs>
      <g>
       <use style="stroke:#000000;stroke-width:0.5;" x="131.392421274" xlink:href="#mb9a20df1dc" y="64.8"/>
      </g>
     </g>
    </g>
    <g id="xtick_6">
     <g id="line2d_16">
      <g>
       <use style="stroke:#000000;stroke-width:0.5;" x="160.87009804" xlink:href="#mc1844fc017" y="583.2"/>
      </g>
     </g>
     <g id="line2d_17">
      <g>
       <use style="stroke:#000000;stroke-width:0.5;" x="160.87009804" xlink:href="#mb9a20df1dc" y="64.8"/>
      </g>
     </g>
    </g>
    <g id="xtick_7">
     <g id="line2d_18">
      <g>
       <use style="stroke:#000000;stroke-width:0.5;" x="181.784842548" xlink:href="#mc1844fc017" y="583.2"/>
      </g>
     </g>
     <g id="line2d_19">
      <g>
       <use style="stroke:#000000;stroke-width:0.5;" x="181.784842548" xlink:href="#mb9a20df1dc" y="64.8"/>
      </g>
     </g>
    </g>
    <g id="xtick_8">
     <g id="line2d_20">
      <g>
       <use style="stroke:#000000;stroke-width:0.5;" x="198.007578726" xlink:href="#mc1844fc017" y="583.2"/>
      </g>
     </g>
     <g id="line2d_21">
      <g>
       <use style="stroke:#000000;stroke-width:0.5;" x="198.007578726" xlink:href="#mb9a20df1dc" y="64.8"/>
      </g>
     </g>
    </g>
    <g id="xtick_9">
     <g id="line2d_22">
      <g>
       <use style="stroke:#000000;stroke-width:0.5;" x="211.262519314" xlink:href="#mc1844fc017" y="583.2"/>
      </g>
     </g>
     <g id="line2d_23">
      <g>
       <use style="stroke:#000000;stroke-width:0.5;" x="211.262519314" xlink:href="#mb9a20df1dc" y="64.8"/>
      </g>
     </g>
    </g>
    <g id="xtick_10">
     <g id="line2d_24">
      <g>
       <use style="stroke:#000000;stroke-width:0.5;" x="222.469411898" xlink:href="#mc1844fc017" y="583.2"/>
      </g>
     </g>
     <g id="line2d_25">
      <g>
       <use style="stroke:#000000;stroke-width:0.5;" x="222.469411898" xlink:href="#mb9a20df1dc" y="64.8"/>
      </g>
     </g>
    </g>
    <g id="xtick_11">
     <g id="line2d_26">
      <g>
       <use style="stroke:#000000;stroke-width:0.5;" x="232.177263822" xlink:href="#mc1844fc017" y="583.2"/>
      </g>
     </g>
     <g id="line2d_27">
      <g>
       <use style="stroke:#000000;stroke-width:0.5;" x="232.177263822" xlink:href="#mb9a20df1dc" y="64.8"/>
      </g>
     </g>
    </g>
    <g id="xtick_12">
     <g id="line2d_28">
      <g>
       <use style="stroke:#000000;stroke-width:0.5;" x="240.74019608" xlink:href="#mc1844fc017" y="583.2"/>
      </g>
     </g>
     <g id="line2d_29">
      <g>
       <use style="stroke:#000000;stroke-width:0.5;" x="240.74019608" xlink:href="#mb9a20df1dc" y="64.8"/>
      </g>
     </g>
    </g>
    <g id="xtick_13">
     <g id="line2d_30">
      <g>
       <use style="stroke:#000000;stroke-width:0.5;" x="298.792421274" xlink:href="#mc1844fc017" y="583.2"/>
      </g>
     </g>
     <g id="line2d_31">
      <g>
       <use style="stroke:#000000;stroke-width:0.5;" x="298.792421274" xlink:href="#mb9a20df1dc" y="64.8"/>
      </g>
     </g>
    </g>
    <g id="xtick_14">
     <g id="line2d_32">
      <g>
       <use style="stroke:#000000;stroke-width:0.5;" x="328.27009804" xlink:href="#mc1844fc017" y="583.2"/>
      </g>
     </g>
     <g id="line2d_33">
      <g>
       <use style="stroke:#000000;stroke-width:0.5;" x="328.27009804" xlink:href="#mb9a20df1dc" y="64.8"/>
      </g>
     </g>
    </g>
    <g id="xtick_15">
     <g id="line2d_34">
      <g>
       <use style="stroke:#000000;stroke-width:0.5;" x="349.184842548" xlink:href="#mc1844fc017" y="583.2"/>
      </g>
     </g>
     <g id="line2d_35">
      <g>
       <use style="stroke:#000000;stroke-width:0.5;" x="349.184842548" xlink:href="#mb9a20df1dc" y="64.8"/>
      </g>
     </g>
    </g>
    <g id="xtick_16">
     <g id="line2d_36">
      <g>
       <use style="stroke:#000000;stroke-width:0.5;" x="365.407578726" xlink:href="#mc1844fc017" y="583.2"/>
      </g>
     </g>
     <g id="line2d_37">
      <g>
       <use style="stroke:#000000;stroke-width:0.5;" x="365.407578726" xlink:href="#mb9a20df1dc" y="64.8"/>
      </g>
     </g>
    </g>
    <g id="xtick_17">
     <g id="line2d_38">
      <g>
       <use style="stroke:#000000;stroke-width:0.5;" x="378.662519314" xlink:href="#mc1844fc017" y="583.2"/>
      </g>
     </g>
     <g id="line2d_39">
      <g>
       <use style="stroke:#000000;stroke-width:0.5;" x="378.662519314" xlink:href="#mb9a20df1dc" y="64.8"/>
      </g>
     </g>
    </g>
    <g id="xtick_18">
     <g id="line2d_40">
      <g>
       <use style="stroke:#000000;stroke-width:0.5;" x="389.869411898" xlink:href="#mc1844fc017" y="583.2"/>
      </g>
     </g>
     <g id="line2d_41">
      <g>
       <use style="stroke:#000000;stroke-width:0.5;" x="389.869411898" xlink:href="#mb9a20df1dc" y="64.8"/>
      </g>
     </g>
    </g>
    <g id="xtick_19">
     <g id="line2d_42">
      <g>
       <use style="stroke:#000000;stroke-width:0.5;" x="399.577263822" xlink:href="#mc1844fc017" y="583.2"/>
      </g>
     </g>
     <g id="line2d_43">
      <g>
       <use style="stroke:#000000;stroke-width:0.5;" x="399.577263822" xlink:href="#mb9a20df1dc" y="64.8"/>
      </g>
     </g>
    </g>
    <g id="xtick_20">
     <g id="line2d_44">
      <g>
       <use style="stroke:#000000;stroke-width:0.5;" x="408.14019608" xlink:href="#mc1844fc017" y="583.2"/>
      </g>
     </g>
     <g id="line2d_45">
      <g>
       <use style="stroke:#000000;stroke-width:0.5;" x="408.14019608" xlink:href="#mb9a20df1dc" y="64.8"/>
      </g>
     </g>
    </g>
    <g id="xtick_21">
     <g id="line2d_46">
      <g>
       <use style="stroke:#000000;stroke-width:0.5;" x="466.192421274" xlink:href="#mc1844fc017" y="583.2"/>
      </g>
     </g>
     <g id="line2d_47">
      <g>
       <use style="stroke:#000000;stroke-width:0.5;" x="466.192421274" xlink:href="#mb9a20df1dc" y="64.8"/>
      </g>
     </g>
    </g>
    <g id="xtick_22">
     <g id="line2d_48">
      <g>
       <use style="stroke:#000000;stroke-width:0.5;" x="495.67009804" xlink:href="#mc1844fc017" y="583.2"/>
      </g>
     </g>
     <g id="line2d_49">
      <g>
       <use style="stroke:#000000;stroke-width:0.5;" x="495.67009804" xlink:href="#mb9a20df1dc" y="64.8"/>
      </g>
     </g>
    </g>
    <g id="xtick_23">
     <g id="line2d_50">
      <g>
       <use style="stroke:#000000;stroke-width:0.5;" x="516.584842548" xlink:href="#mc1844fc017" y="583.2"/>
      </g>
     </g>
     <g id="line2d_51">
      <g>
       <use style="stroke:#000000;stroke-width:0.5;" x="516.584842548" xlink:href="#mb9a20df1dc" y="64.8"/>
      </g>
     </g>
    </g>
    <g id="xtick_24">
     <g id="line2d_52">
      <g>
       <use style="stroke:#000000;stroke-width:0.5;" x="532.807578726" xlink:href="#mc1844fc017" y="583.2"/>
      </g>
     </g>
     <g id="line2d_53">
      <g>
       <use style="stroke:#000000;stroke-width:0.5;" x="532.807578726" xlink:href="#mb9a20df1dc" y="64.8"/>
      </g>
     </g>
    </g>
    <g id="xtick_25">
     <g id="line2d_54">
      <g>
       <use style="stroke:#000000;stroke-width:0.5;" x="546.062519314" xlink:href="#mc1844fc017" y="583.2"/>
      </g>
     </g>
     <g id="line2d_55">
      <g>
       <use style="stroke:#000000;stroke-width:0.5;" x="546.062519314" xlink:href="#mb9a20df1dc" y="64.8"/>
      </g>
     </g>
    </g>
    <g id="xtick_26">
     <g id="line2d_56">
      <g>
       <use style="stroke:#000000;stroke-width:0.5;" x="557.269411898" xlink:href="#mc1844fc017" y="583.2"/>
      </g>
     </g>
     <g id="line2d_57">
      <g>
       <use style="stroke:#000000;stroke-width:0.5;" x="557.269411898" xlink:href="#mb9a20df1dc" y="64.8"/>
      </g>
     </g>
    </g>
    <g id="xtick_27">
     <g id="line2d_58">
      <g>
       <use style="stroke:#000000;stroke-width:0.5;" x="566.977263822" xlink:href="#mc1844fc017" y="583.2"/>
      </g>
     </g>
     <g id="line2d_59">
      <g>
       <use style="stroke:#000000;stroke-width:0.5;" x="566.977263822" xlink:href="#mb9a20df1dc" y="64.8"/>
      </g>
     </g>
    </g>
    <g id="xtick_28">
     <g id="line2d_60">
      <g>
       <use style="stroke:#000000;stroke-width:0.5;" x="575.54019608" xlink:href="#mc1844fc017" y="583.2"/>
      </g>
     </g>
     <g id="line2d_61">
      <g>
       <use style="stroke:#000000;stroke-width:0.5;" x="575.54019608" xlink:href="#mb9a20df1dc" y="64.8"/>
      </g>
     </g>
    </g>
    <g id="text_5">
     <!-- x -->
     <defs>
      <path d="M 54.890625 54.6875 
L 35.109375 28.078125 
L 55.90625 0 
L 45.3125 0 
L 29.390625 21.484375 
L 13.484375 0 
L 2.875 0 
L 24.125 28.609375 
L 4.6875 54.6875 
L 15.28125 54.6875 
L 29.78125 35.203125 
L 44.28125 54.6875 
z
" id="BitstreamVeraSans-Roman-78"/>
     </defs>
     <g transform="translate(326.773125 618.1171875)scale(0.18 -0.18)">
      <use xlink:href="#BitstreamVeraSans-Roman-78"/>
     </g>
    </g>
   </g>
   <g id="matplotlib.axis_2">
    <g id="ytick_1">
     <g id="line2d_62">
      <path clip-path="url(#pc4e51ceede)" d="M 81 583.2 
L 583.2 583.2 
" style="fill:none;stroke:#000000;stroke-dasharray:1.000000,3.000000;stroke-dashoffset:0.0;stroke-width:0.5;"/>
     </g>
     <g id="line2d_63">
      <defs>
       <path d="M 0 0 
L 4 0 
" id="m527a415e1b" style="stroke:#000000;stroke-width:0.5;"/>
      </defs>
      <g>
       <use style="stroke:#000000;stroke-width:0.5;" x="81.0" xlink:href="#m527a415e1b" y="583.2"/>
      </g>
     </g>
     <g id="line2d_64">
      <defs>
       <path d="M 0 0 
L -4 0 
" id="md9894ae626" style="stroke:#000000;stroke-width:0.5;"/>
      </defs>
      <g>
       <use style="stroke:#000000;stroke-width:0.5;" x="583.2" xlink:href="#md9894ae626" y="583.2"/>
      </g>
     </g>
     <g id="text_6">
      <!-- $\mathdefault{10^{0}}$ -->
      <g transform="translate(54.68 586.824375)scale(0.12 -0.12)">
       <use transform="translate(0.0 0.796875)" xlink:href="#BitstreamVeraSans-Roman-31"/>
       <use transform="translate(63.623046875 0.796875)" xlink:href="#BitstreamVeraSans-Roman-30"/>
       <use transform="translate(132.75859375 48.046875)scale(0.7)" xlink:href="#BitstreamVeraSans-Roman-30"/>
      </g>
     </g>
    </g>
    <g id="ytick_2">
     <g id="line2d_65">
      <path clip-path="url(#pc4e51ceede)" d="M 81 324 
L 583.2 324 
" style="fill:none;stroke:#000000;stroke-dasharray:1.000000,3.000000;stroke-dashoffset:0.0;stroke-width:0.5;"/>
     </g>
     <g id="line2d_66">
      <g>
       <use style="stroke:#000000;stroke-width:0.5;" x="81.0" xlink:href="#m527a415e1b" y="324.0"/>
      </g>
     </g>
     <g id="line2d_67">
      <g>
       <use style="stroke:#000000;stroke-width:0.5;" x="583.2" xlink:href="#md9894ae626" y="324.0"/>
      </g>
     </g>
     <g id="text_7">
      <!-- $\mathdefault{10^{1}}$ -->
      <g transform="translate(54.68 327.564375)scale(0.12 -0.12)">
       <use transform="translate(0.0 0.7156250000000028)" xlink:href="#BitstreamVeraSans-Roman-31"/>
       <use transform="translate(63.623046875 0.7156250000000028)" xlink:href="#BitstreamVeraSans-Roman-30"/>
       <use transform="translate(132.75859375 47.965625)scale(0.7)" xlink:href="#BitstreamVeraSans-Roman-31"/>
      </g>
     </g>
    </g>
    <g id="ytick_3">
     <g id="line2d_68">
      <path clip-path="url(#pc4e51ceede)" d="M 81 64.8 
L 583.2 64.8 
" style="fill:none;stroke:#000000;stroke-dasharray:1.000000,3.000000;stroke-dashoffset:0.0;stroke-width:0.5;"/>
     </g>
     <g id="line2d_69">
      <g>
       <use style="stroke:#000000;stroke-width:0.5;" x="81.0" xlink:href="#m527a415e1b" y="64.8"/>
      </g>
     </g>
     <g id="line2d_70">
      <g>
       <use style="stroke:#000000;stroke-width:0.5;" x="583.2" xlink:href="#md9894ae626" y="64.8"/>
      </g>
     </g>
     <g id="text_8">
      <!-- $\mathdefault{10^{2}}$ -->
      <g transform="translate(54.68 68.424375)scale(0.12 -0.12)">
       <use transform="translate(0.0 0.796875)" xlink:href="#BitstreamVeraSans-Roman-31"/>
       <use transform="translate(63.623046875 0.796875)" xlink:href="#BitstreamVeraSans-Roman-30"/>
       <use transform="translate(132.75859375 48.046875)scale(0.7)" xlink:href="#BitstreamVeraSans-Roman-32"/>
      </g>
     </g>
    </g>
    <g id="ytick_4">
     <g id="line2d_71">
      <defs>
       <path d="M 0 0 
L 2 0 
" id="mb62024b7e5" style="stroke:#000000;stroke-width:0.5;"/>
      </defs>
      <g>
       <use style="stroke:#000000;stroke-width:0.5;" x="81.0" xlink:href="#mb62024b7e5" y="505.173025124"/>
      </g>
     </g>
     <g id="line2d_72">
      <defs>
       <path d="M 0 0 
L -2 0 
" id="mbdc7ef238e" style="stroke:#000000;stroke-width:0.5;"/>
      </defs>
      <g>
       <use style="stroke:#000000;stroke-width:0.5;" x="583.2" xlink:href="#mbdc7ef238e" y="505.173025124"/>
      </g>
     </g>
    </g>
    <g id="ytick_5">
     <g id="line2d_73">
      <g>
       <use style="stroke:#000000;stroke-width:0.5;" x="81.0" xlink:href="#mb62024b7e5" y="459.530170777"/>
      </g>
     </g>
     <g id="line2d_74">
      <g>
       <use style="stroke:#000000;stroke-width:0.5;" x="583.2" xlink:href="#mbdc7ef238e" y="459.530170777"/>
      </g>
     </g>
    </g>
    <g id="ytick_6">
     <g id="line2d_75">
      <g>
       <use style="stroke:#000000;stroke-width:0.5;" x="81.0" xlink:href="#mb62024b7e5" y="427.146050248"/>
      </g>
     </g>
     <g id="line2d_76">
      <g>
       <use style="stroke:#000000;stroke-width:0.5;" x="583.2" xlink:href="#mbdc7ef238e" y="427.146050248"/>
      </g>
     </g>
    </g>
    <g id="ytick_7">
     <g id="line2d_77">
      <g>
       <use style="stroke:#000000;stroke-width:0.5;" x="81.0" xlink:href="#mb62024b7e5" y="402.026974876"/>
      </g>
     </g>
     <g id="line2d_78">
      <g>
       <use style="stroke:#000000;stroke-width:0.5;" x="583.2" xlink:href="#mbdc7ef238e" y="402.026974876"/>
      </g>
     </g>
    </g>
    <g id="ytick_8">
     <g id="line2d_79">
      <g>
       <use style="stroke:#000000;stroke-width:0.5;" x="81.0" xlink:href="#mb62024b7e5" y="381.503195901"/>
      </g>
     </g>
     <g id="line2d_80">
      <g>
       <use style="stroke:#000000;stroke-width:0.5;" x="583.2" xlink:href="#mbdc7ef238e" y="381.503195901"/>
      </g>
     </g>
    </g>
    <g id="ytick_9">
     <g id="line2d_81">
      <g>
       <use style="stroke:#000000;stroke-width:0.5;" x="81.0" xlink:href="#mb62024b7e5" y="364.150588028"/>
      </g>
     </g>
     <g id="line2d_82">
      <g>
       <use style="stroke:#000000;stroke-width:0.5;" x="583.2" xlink:href="#mbdc7ef238e" y="364.150588028"/>
      </g>
     </g>
    </g>
    <g id="ytick_10">
     <g id="line2d_83">
      <g>
       <use style="stroke:#000000;stroke-width:0.5;" x="81.0" xlink:href="#mb62024b7e5" y="349.119075372"/>
      </g>
     </g>
     <g id="line2d_84">
      <g>
       <use style="stroke:#000000;stroke-width:0.5;" x="583.2" xlink:href="#mbdc7ef238e" y="349.119075372"/>
      </g>
     </g>
    </g>
    <g id="ytick_11">
     <g id="line2d_85">
      <g>
       <use style="stroke:#000000;stroke-width:0.5;" x="81.0" xlink:href="#mb62024b7e5" y="335.860341553"/>
      </g>
     </g>
     <g id="line2d_86">
      <g>
       <use style="stroke:#000000;stroke-width:0.5;" x="583.2" xlink:href="#mbdc7ef238e" y="335.860341553"/>
      </g>
     </g>
    </g>
    <g id="ytick_12">
     <g id="line2d_87">
      <g>
       <use style="stroke:#000000;stroke-width:0.5;" x="81.0" xlink:href="#mb62024b7e5" y="245.973025124"/>
      </g>
     </g>
     <g id="line2d_88">
      <g>
       <use style="stroke:#000000;stroke-width:0.5;" x="583.2" xlink:href="#mbdc7ef238e" y="245.973025124"/>
      </g>
     </g>
    </g>
    <g id="ytick_13">
     <g id="line2d_89">
      <g>
       <use style="stroke:#000000;stroke-width:0.5;" x="81.0" xlink:href="#mb62024b7e5" y="200.330170777"/>
      </g>
     </g>
     <g id="line2d_90">
      <g>
       <use style="stroke:#000000;stroke-width:0.5;" x="583.2" xlink:href="#mbdc7ef238e" y="200.330170777"/>
      </g>
     </g>
    </g>
    <g id="ytick_14">
     <g id="line2d_91">
      <g>
       <use style="stroke:#000000;stroke-width:0.5;" x="81.0" xlink:href="#mb62024b7e5" y="167.946050248"/>
      </g>
     </g>
     <g id="line2d_92">
      <g>
       <use style="stroke:#000000;stroke-width:0.5;" x="583.2" xlink:href="#mbdc7ef238e" y="167.946050248"/>
      </g>
     </g>
    </g>
    <g id="ytick_15">
     <g id="line2d_93">
      <g>
       <use style="stroke:#000000;stroke-width:0.5;" x="81.0" xlink:href="#mb62024b7e5" y="142.826974876"/>
      </g>
     </g>
     <g id="line2d_94">
      <g>
       <use style="stroke:#000000;stroke-width:0.5;" x="583.2" xlink:href="#mbdc7ef238e" y="142.826974876"/>
      </g>
     </g>
    </g>
    <g id="ytick_16">
     <g id="line2d_95">
      <g>
       <use style="stroke:#000000;stroke-width:0.5;" x="81.0" xlink:href="#mb62024b7e5" y="122.303195901"/>
      </g>
     </g>
     <g id="line2d_96">
      <g>
       <use style="stroke:#000000;stroke-width:0.5;" x="583.2" xlink:href="#mbdc7ef238e" y="122.303195901"/>
      </g>
     </g>
    </g>
    <g id="ytick_17">
     <g id="line2d_97">
      <g>
       <use style="stroke:#000000;stroke-width:0.5;" x="81.0" xlink:href="#mb62024b7e5" y="104.950588028"/>
      </g>
     </g>
     <g id="line2d_98">
      <g>
       <use style="stroke:#000000;stroke-width:0.5;" x="583.2" xlink:href="#mbdc7ef238e" y="104.950588028"/>
      </g>
     </g>
    </g>
    <g id="ytick_18">
     <g id="line2d_99">
      <g>
       <use style="stroke:#000000;stroke-width:0.5;" x="81.0" xlink:href="#mb62024b7e5" y="89.9190753717"/>
      </g>
     </g>
     <g id="line2d_100">
      <g>
       <use style="stroke:#000000;stroke-width:0.5;" x="583.2" xlink:href="#mbdc7ef238e" y="89.9190753717"/>
      </g>
     </g>
    </g>
    <g id="ytick_19">
     <g id="line2d_101">
      <g>
       <use style="stroke:#000000;stroke-width:0.5;" x="81.0" xlink:href="#mb62024b7e5" y="76.6603415533"/>
      </g>
     </g>
     <g id="line2d_102">
      <g>
       <use style="stroke:#000000;stroke-width:0.5;" x="583.2" xlink:href="#mbdc7ef238e" y="76.6603415533"/>
      </g>
     </g>
    </g>
    <g id="text_9">
     <!-- y -->
     <defs>
      <path d="M 32.171875 -5.078125 
Q 28.375 -14.84375 24.75 -17.8125 
Q 21.140625 -20.796875 15.09375 -20.796875 
L 7.90625 -20.796875 
L 7.90625 -13.28125 
L 13.1875 -13.28125 
Q 16.890625 -13.28125 18.9375 -11.515625 
Q 21 -9.765625 23.484375 -3.21875 
L 25.09375 0.875 
L 2.984375 54.6875 
L 12.5 54.6875 
L 29.59375 11.921875 
L 46.6875 54.6875 
L 56.203125 54.6875 
z
" id="BitstreamVeraSans-Roman-79"/>
     </defs>
     <g transform="translate(45.9365625 329.326875)rotate(-90.0)scale(0.18 -0.18)">
      <use xlink:href="#BitstreamVeraSans-Roman-79"/>
     </g>
    </g>
   </g>
   <g id="text_10">
    <!-- Data -->
    <defs>
     <path d="M 34.28125 27.484375 
Q 23.390625 27.484375 19.1875 25 
Q 14.984375 22.515625 14.984375 16.5 
Q 14.984375 11.71875 18.140625 8.90625 
Q 21.296875 6.109375 26.703125 6.109375 
Q 34.1875 6.109375 38.703125 11.40625 
Q 43.21875 16.703125 43.21875 25.484375 
L 43.21875 27.484375 
z
M 52.203125 31.203125 
L 52.203125 0 
L 43.21875 0 
L 43.21875 8.296875 
Q 40.140625 3.328125 35.546875 0.953125 
Q 30.953125 -1.421875 24.3125 -1.421875 
Q 15.921875 -1.421875 10.953125 3.296875 
Q 6 8.015625 6 15.921875 
Q 6 25.140625 12.171875 29.828125 
Q 18.359375 34.515625 30.609375 34.515625 
L 43.21875 34.515625 
L 43.21875 35.40625 
Q 43.21875 41.609375 39.140625 45 
Q 35.0625 48.390625 27.6875 48.390625 
Q 23 48.390625 18.546875 47.265625 
Q 14.109375 46.140625 10.015625 43.890625 
L 10.015625 52.203125 
Q 14.9375 54.109375 19.578125 55.046875 
Q 24.21875 56 28.609375 56 
Q 40.484375 56 46.34375 49.84375 
Q 52.203125 43.703125 52.203125 31.203125 
" id="BitstreamVeraSans-Roman-61"/>
     <path d="M 18.3125 70.21875 
L 18.3125 54.6875 
L 36.8125 54.6875 
L 36.8125 47.703125 
L 18.3125 47.703125 
L 18.3125 18.015625 
Q 18.3125 11.328125 20.140625 9.421875 
Q 21.96875 7.515625 27.59375 7.515625 
L 36.8125 7.515625 
L 36.8125 0 
L 27.59375 0 
Q 17.1875 0 13.234375 3.875 
Q 9.28125 7.765625 9.28125 18.015625 
L 9.28125 47.703125 
L 2.6875 47.703125 
L 2.6875 54.6875 
L 9.28125 54.6875 
L 9.28125 70.21875 
z
" id="BitstreamVeraSans-Roman-74"/>
     <path d="M 19.671875 64.796875 
L 19.671875 8.109375 
L 31.59375 8.109375 
Q 46.6875 8.109375 53.6875 14.9375 
Q 60.6875 21.78125 60.6875 36.53125 
Q 60.6875 51.171875 53.6875 57.984375 
Q 46.6875 64.796875 31.59375 64.796875 
z
M 9.8125 72.90625 
L 30.078125 72.90625 
Q 51.265625 72.90625 61.171875 64.09375 
Q 71.09375 55.28125 71.09375 36.53125 
Q 71.09375 17.671875 61.125 8.828125 
Q 51.171875 0 30.078125 0 
L 9.8125 0 
z
" id="BitstreamVeraSans-Roman-44"/>
    </defs>
    <g transform="translate(305.83578125 59.8)scale(0.22 -0.22)">
     <use xlink:href="#BitstreamVeraSans-Roman-44"/>
     <use x="77.001953125" xlink:href="#BitstreamVeraSans-Roman-61"/>
     <use x="138.28125" xlink:href="#BitstreamVeraSans-Roman-74"/>
     <use x="177.490234375" xlink:href="#BitstreamVeraSans-Roman-61"/>
    </g>
   </g>
   <g id="legend_1">
    <g id="patch_7">
     <path d="M 88.2 97.4565 
L 181.638 97.4565 
L 181.638 72 
L 88.2 72 
z
" style="fill:#ffffff;stroke:#000000;stroke-linejoin:miter;"/>
    </g>
    <g id="line2d_103"/>
    <g id="line2d_104">
     <g>
      <use style="fill:#0000ff;stroke:#000000;stroke-width:0.5;" x="98.28" xlink:href="#md3d4d06cc5" y="83.66175"/>
      <use style="fill:#0000ff;stroke:#000000;stroke-width:0.5;" x="118.44" xlink:href="#md3d4d06cc5" y="83.66175"/>
     </g>
    </g>
    <g id="text_11">
     <!-- data1 -->
     <defs>
      <path d="M 45.40625 46.390625 
L 45.40625 75.984375 
L 54.390625 75.984375 
L 54.390625 0 
L 45.40625 0 
L 45.40625 8.203125 
Q 42.578125 3.328125 38.25 0.953125 
Q 33.9375 -1.421875 27.875 -1.421875 
Q 17.96875 -1.421875 11.734375 6.484375 
Q 5.515625 14.40625 5.515625 27.296875 
Q 5.515625 40.1875 11.734375 48.09375 
Q 17.96875 56 27.875 56 
Q 33.9375 56 38.25 53.625 
Q 42.578125 51.265625 45.40625 46.390625 
M 14.796875 27.296875 
Q 14.796875 17.390625 18.875 11.75 
Q 22.953125 6.109375 30.078125 6.109375 
Q 37.203125 6.109375 41.296875 11.75 
Q 45.40625 17.390625 45.40625 27.296875 
Q 45.40625 37.203125 41.296875 42.84375 
Q 37.203125 48.484375 30.078125 48.484375 
Q 22.953125 48.484375 18.875 42.84375 
Q 14.796875 37.203125 14.796875 27.296875 
" id="BitstreamVeraSans-Roman-64"/>
     </defs>
     <g transform="translate(134.28 88.70175)scale(0.144 -0.144)">
      <use xlink:href="#BitstreamVeraSans-Roman-64"/>
      <use x="63.4765625" xlink:href="#BitstreamVeraSans-Roman-61"/>
      <use x="124.755859375" xlink:href="#BitstreamVeraSans-Roman-74"/>
      <use x="163.96484375" xlink:href="#BitstreamVeraSans-Roman-61"/>
      <use x="225.244140625" xlink:href="#BitstreamVeraSans-Roman-31"/>
     </g>
    </g>
   </g>
  </g>
 </g>
 <defs>
  <clipPath id="pc4e51ceede">
   <rect height="518.4" width="502.2" x="81.0" y="64.8"/>
  </clipPath>
 </defs>
</svg>
